
<svg xmlns="http://www.w3.org/2000/svg" version="1.1" xmlns:xlink="http://www.w3.org/1999/xlink" preserveAspectRatio="none" x="0px" y="0px" width="387px" height="242px" viewBox="0 0 387 242">
<defs>
<g id="Symbol_1_0_Layer0_0_FILL">
<path fill="#000000" stroke="none" d="
M -17.85 75.6
L -19.35 75.6 -19.35 83.85 -17.85 83.85 -17.85 75.6
M -3.95 78.8
Q -3.9 77.95 -4.2 77.2 -4.45 76.45 -5.1 75.95 -5.8 75.45 -7.05 75.45 -7.85 75.45 -8.55 75.65 -9.25 75.85 -9.75 76.15
L -9.4 77.15
Q -8.95 76.85 -8.4 76.7 -7.85 76.55 -7.25 76.55 -6.45 76.55 -6.05 76.9 -5.65 77.2 -5.5 77.65 -5.4 78.1 -5.4 78.45
L -5.4 78.6
Q -7.8 78.6 -9.05 79.4 -10.35 80.15 -10.35 81.7 -10.35 82.3 -10.05 82.8 -9.8 83.35 -9.25 83.7 -8.65 84 -7.85 84.05 -6.95 84 -6.3 83.65 -5.65 83.3 -5.3 82.8
L -5.25 82.8 -5.15 83.85 -3.8 83.85
Q -3.85 83.45 -3.9 82.9 -3.95 82.4 -3.95 81.85
L -3.95 78.8
M -7 79.75
Q -6.2 79.6 -5.35 79.65
L -5.35 81.1
Q -5.35 81.2 -5.4 81.3 -5.4 81.45 -5.45 81.55 -5.65 82.1 -6.15 82.5 -6.65 82.9 -7.45 82.95 -8.05 82.95 -8.45 82.6 -8.85 82.2 -8.85 81.5 -8.85 80.7 -8.3 80.3 -7.8 79.9 -7 79.75
M -22.7 76.6
Q -22.25 77.55 -22.25 78.8 -22.25 79.8 -22.5 80.5 -22.8 81.2 -23.2 81.55 -23.65 81.9 -24.05 81.9 -24.5 81.9 -24.65 81.45 -24.75 81 -24.6 80
L -24 76.95
Q -24.35 76.75 -24.8 76.65 -25.25 76.6 -25.8 76.55 -27 76.6 -27.9 77.15 -28.85 77.7 -29.35 78.6 -29.85 79.55 -29.85 80.6 -29.85 81.3 -29.6 81.75 -29.35 82.25 -28.95 82.5 -28.5 82.75 -28 82.75 -27.25 82.75 -26.65 82.35 -26.05 82 -25.6 81.25
L -25.55 81.25
Q -25.55 82 -25.2 82.4 -24.8 82.75 -24.3 82.75 -23.5 82.75 -22.8 82.25 -22.1 81.8 -21.7 80.9 -21.3 80 -21.25 78.7 -21.25 77.25 -21.9 76.15 -22.5 75.05 -23.6 74.45 -24.7 73.8 -26.2 73.8 -27.65 73.8 -28.8 74.3 -29.9 74.85 -30.75 75.75 -31.55 76.65 -32 77.8 -32.4 79 -32.4 80.3 -32.4 81.95 -31.7 83.15 -31 84.3 -29.85 84.95 -28.7 85.6 -27.25 85.6 -26.4 85.6 -25.7 85.45 -24.95 85.3 -24.25 84.95
L -24.5 84.2
Q -25.05 84.5 -25.7 84.65 -26.35 84.8 -27.1 84.8 -28.35 84.8 -29.35 84.25 -30.3 83.7 -30.9 82.65 -31.45 81.65 -31.45 80.2 -31.45 78.5 -30.75 77.2 -30.05 75.95 -28.9 75.25 -27.75 74.6 -26.35 74.55 -25 74.6 -24.1 75.1 -23.2 75.65 -22.7 76.6
M -28.35 79
Q -28 78.3 -27.4 77.9 -26.8 77.5 -26 77.5 -25.75 77.5 -25.5 77.5 -25.3 77.55 -25.15 77.6
L -25.55 79.5
Q -25.65 80.05 -25.95 80.6 -26.25 81.1 -26.7 81.45 -27.1 81.8 -27.6 81.8 -28.15 81.8 -28.45 81.45 -28.75 81.1 -28.75 80.55 -28.75 79.7 -28.35 79
M -35.75 73.25
L -37.2 73.65 -37.2 75.6 -38.5 75.6 -38.5 76.75 -37.2 76.75 -37.2 81.25
Q -37.2 81.95 -37.1 82.5 -36.95 83.05 -36.65 83.4 -36.35 83.7 -35.95 83.85 -35.55 84 -35 84 -34.6 84 -34.25 83.95 -33.9 83.9 -33.7 83.8
L -33.75 82.7
Q -33.9 82.75 -34.1 82.75 -34.35 82.8 -34.65 82.8 -35.25 82.8 -35.5 82.4 -35.75 81.95 -35.75 81.2
L -35.75 76.75 -33.6 76.75 -33.6 75.6 -35.75 75.6 -35.75 73.25
M -13.55 73.25
L -15 73.65 -15 75.6 -16.3 75.6 -16.3 76.75 -15 76.75 -15 81.25
Q -15 81.95 -14.9 82.5 -14.75 83.05 -14.45 83.4 -14.15 83.7 -13.75 83.85 -13.35 84 -12.8 84 -12.4 84 -12.05 83.95 -11.7 83.9 -11.5 83.8
L -11.55 82.7
Q -11.7 82.75 -11.9 82.75 -12.15 82.8 -12.45 82.8 -13.05 82.8 -13.3 82.4 -13.55 81.95 -13.55 81.2
L -13.55 76.75 -11.4 76.75 -11.4 75.6 -13.55 75.6 -13.55 73.25
M -17.95 72.65
Q -18.2 72.4 -18.6 72.4 -19 72.4 -19.3 72.65 -19.55 72.9 -19.55 73.3 -19.55 73.7 -19.3 73.95 -19.05 74.2 -18.65 74.25 -18.2 74.2 -17.95 73.95 -17.7 73.7 -17.7 73.3 -17.7 72.9 -17.95 72.65
M -47.95 78.8
Q -47.9 77.95 -48.2 77.2 -48.45 76.45 -49.1 75.95 -49.8 75.45 -51.05 75.45 -51.85 75.45 -52.55 75.65 -53.25 75.85 -53.75 76.15
L -53.4 77.15
Q -52.95 76.85 -52.4 76.7 -51.85 76.55 -51.25 76.55 -50.45 76.55 -50.05 76.9 -49.65 77.2 -49.5 77.65 -49.4 78.1 -49.4 78.45
L -49.4 78.6
Q -51.8 78.6 -53.05 79.4 -54.35 80.15 -54.35 81.7 -54.35 82.3 -54.05 82.8 -53.8 83.35 -53.25 83.7 -52.65 84 -51.85 84.05 -50.95 84 -50.3 83.65 -49.65 83.3 -49.3 82.8
L -49.25 82.8 -49.15 83.85 -47.8 83.85
Q -47.85 83.45 -47.9 82.9 -47.95 82.4 -47.95 81.85
L -47.95 78.8
M -49.45 81.55
Q -49.65 82.1 -50.15 82.5 -50.65 82.9 -51.45 82.95 -52.05 82.95 -52.45 82.6 -52.85 82.2 -52.85 81.5 -52.85 80.7 -52.3 80.3 -51.8 79.9 -51 79.75 -50.2 79.6 -49.35 79.65
L -49.35 81.1
Q -49.35 81.2 -49.4 81.3 -49.4 81.45 -49.45 81.55
M -81 83.85
L -79.2 83.85 -82.85 79 -79.65 75.6 -81.45 75.6 -83.85 78.45
Q -84.05 78.7 -84.25 78.95 -84.45 79.2 -84.6 79.4
L -84.65 79.4 -84.65 71.8 -86.1 71.8 -86.1 83.85 -84.65 83.85 -84.65 80.75 -83.85 79.9 -81 83.85
M -71.2 77.45
Q -71.7 76.5 -72.6 76 -73.5 75.45 -74.7 75.45 -75.8 75.45 -76.75 75.95 -77.65 76.5 -78.2 77.45 -78.75 78.4 -78.75 79.8 -78.75 81.1 -78.2 82.05 -77.7 83 -76.85 83.5 -75.95 84 -74.8 84.05 -73.8 84.05 -72.85 83.6 -71.95 83.1 -71.35 82.15 -70.75 81.2 -70.7 79.65 -70.75 78.4 -71.2 77.45
M -74.7 76.55
Q -73.85 76.6 -73.3 77.05 -72.75 77.55 -72.5 78.3 -72.25 79 -72.25 79.7 -72.25 80.65 -72.6 81.35 -72.9 82.1 -73.45 82.5 -74 82.9 -74.75 82.9 -75.5 82.9 -76.05 82.5 -76.6 82.1 -76.9 81.4 -77.25 80.65 -77.25 79.75 -77.25 78.95 -77 78.25 -76.7 77.5 -76.15 77.05 -75.6 76.6 -74.7 76.55
M -63.5 77.9
Q -63.3 78.45 -63.3 79.1
L -63.3 83.85 -61.8 83.85 -61.8 78.95
Q -61.8 77.9 -62.1 77.2 -62.4 76.5 -62.85 76.15 -63.3 75.75 -63.75 75.6 -64.25 75.45 -64.7 75.45 -65.4 75.45 -65.95 75.65 -66.45 75.9 -66.85 76.25 -67.25 76.6 -67.45 77
L -67.55 75.6 -68.85 75.6
Q -68.85 76.15 -68.8 76.65 -68.8 77.2 -68.8 77.85
L -68.8 83.85 -67.3 83.85 -67.3 78.9
Q -67.3 78.7 -67.3 78.55 -67.25 78.35 -67.2 78.2 -67 77.55 -66.5 77.15 -65.95 76.7 -65.2 76.7 -64.5 76.7 -64.1 77 -63.65 77.35 -63.5 77.9
M -79.85 51.2
L -79.85 49.95 -86.05 49.95 -86.05 61.4 -79.6 61.4 -79.6 60.15 -84.6 60.15 -84.6 56.05 -80.1 56.05 -80.1 54.8 -84.6 54.8 -84.6 51.2 -79.85 51.2
M -66.45 54.35
Q -66.9 53.6 -67.55 53.3 -68.15 52.95 -68.7 53 -69.3 53 -69.75 53.15 -70.15 53.3 -70.55 53.55 -70.8 53.75 -71 54.05 -71.25 54.3 -71.45 54.65
L -71.5 54.65
Q -71.75 53.9 -72.35 53.45 -72.95 53 -73.8 53 -74.5 53 -75 53.2 -75.5 53.4 -75.85 53.75 -76.15 54.1 -76.4 54.5
L -76.45 54.5 -76.5 53.15 -77.8 53.15
Q -77.8 53.7 -77.75 54.2 -77.75 54.75 -77.75 55.4
L -77.75 61.4 -76.3 61.4 -76.3 56.45
Q -76.3 56.25 -76.25 56.05 -76.25 55.85 -76.2 55.7 -76.05 55.3 -75.8 55 -75.55 54.65 -75.15 54.45 -74.8 54.2 -74.35 54.2 -73.45 54.25 -73.05 54.85 -72.6 55.45 -72.6 56.45
L -72.6 61.4 -71.15 61.4 -71.15 56.3
Q -71.15 56.1 -71.1 55.9 -71.1 55.7 -71.05 55.55 -70.85 55 -70.35 54.6 -69.9 54.25 -69.25 54.2 -68.35 54.2 -67.9 54.9 -67.45 55.55 -67.45 56.75
L -67.45 61.4 -66 61.4 -66 56.55
Q -66.05 55.15 -66.45 54.35
M -44.05 71.8
L -45.5 71.8 -45.5 83.85 -44.05 83.85 -44.05 80.75 -43.25 79.9 -40.4 83.85 -38.6 83.85 -42.25 79 -39.05 75.6 -40.85 75.6 -43.25 78.45
Q -43.45 78.7 -43.65 78.95 -43.85 79.2 -44 79.4
L -44.05 79.4 -44.05 71.8
M -57.55 73.25
L -59 73.65 -59 75.6 -60.3 75.6 -60.3 76.75 -59 76.75 -59 81.25
Q -59 81.95 -58.9 82.5 -58.75 83.05 -58.45 83.4 -58.15 83.7 -57.75 83.85 -57.35 84 -56.8 84 -56.4 84 -56.05 83.95 -55.7 83.9 -55.5 83.8
L -55.55 82.7
Q -55.7 82.75 -55.9 82.75 -56.15 82.8 -56.45 82.8 -57.05 82.8 -57.3 82.4 -57.55 81.95 -57.55 81.2
L -57.55 76.75 -55.4 76.75 -55.4 75.6 -57.55 75.6 -57.55 73.25
M -58.05 54.75
Q -58.3 54 -58.95 53.5 -59.65 53 -60.9 53 -61.7 53 -62.4 53.2 -63.1 53.4 -63.6 53.7
L -63.25 54.7
Q -62.8 54.4 -62.25 54.25 -61.7 54.1 -61.1 54.1 -60.3 54.1 -59.9 54.45 -59.5 54.75 -59.35 55.2 -59.25 55.65 -59.25 56
L -59.25 56.15
Q -61.65 56.15 -62.9 56.95 -64.2 57.7 -64.2 59.25 -64.2 59.85 -63.9 60.35 -63.65 60.9 -63.1 61.25 -62.5 61.55 -61.7 61.6 -60.8 61.55 -60.15 61.2 -59.5 60.85 -59.15 60.35
L -59.1 60.35 -59 61.4 -57.65 61.4
Q -57.7 61 -57.75 60.45 -57.8 59.95 -57.8 59.4
L -57.8 56.35
Q -57.75 55.5 -58.05 54.75
M -59.2 57.2
L -59.2 58.65
Q -59.2 58.75 -59.25 58.85 -59.25 59 -59.3 59.1 -59.5 59.65 -60 60.05 -60.5 60.45 -61.3 60.5 -61.9 60.5 -62.3 60.15 -62.7 59.75 -62.7 59.05 -62.7 58.25 -62.15 57.85 -61.65 57.45 -60.85 57.3 -60.05 57.15 -59.2 57.2
M -53.85 53.15
L -55.35 53.15 -55.35 61.4 -53.85 61.4 -53.85 53.15
M -53.95 50.2
Q -54.2 49.95 -54.6 49.95 -55 49.95 -55.3 50.2 -55.55 50.45 -55.55 50.85 -55.55 51.25 -55.3 51.5 -55.05 51.75 -54.65 51.8 -54.2 51.75 -53.95 51.5 -53.7 51.25 -53.7 50.85 -53.7 50.45 -53.95 50.2
M -46.7 61.6
Q -46.25 61.55 -45.95 61.3 -45.7 61 -45.7 60.55 -45.7 60.05 -46 59.75 -46.25 59.45 -46.7 59.45 -47.15 59.45 -47.45 59.75 -47.7 60.05 -47.7 60.55 -47.7 61 -47.45 61.3 -47.15 61.55 -46.7 61.6
M -46.7 53.45
Q -47.15 53.45 -47.45 53.75 -47.7 54.05 -47.7 54.55 -47.7 55 -47.45 55.3 -47.15 55.6 -46.7 55.6 -46.25 55.6 -45.95 55.3 -45.7 55 -45.7 54.55 -45.7 54.05 -46 53.75 -46.25 53.45 -46.7 53.45
M -49.85 49.35
L -51.35 49.35 -51.35 61.4 -49.85 61.4 -49.85 49.35
M -53.1 28.1
Q -53.8 27.75 -54.9 27.7 -55.85 27.75 -56.65 28.1 -57.4 28.45 -57.85 29.1 -58.3 29.8 -58.3 30.65 -58.3 31.4 -57.9 32.05 -57.45 32.7 -56.55 33.15
L -56.55 33.2
Q -57.55 33.6 -58.15 34.35 -58.7 35.1 -58.7 36.15 -58.7 36.95 -58.25 37.65 -57.85 38.3 -57 38.7 -56.2 39.1 -55 39.15 -53.95 39.1 -53.1 38.75 -52.25 38.35 -51.75 37.6 -51.25 36.9 -51.25 35.9 -51.25 34.9 -51.85 34.2 -52.45 33.5 -53.5 33.05
L -53.5 33
Q -52.5 32.55 -52.05 31.85 -51.65 31.15 -51.65 30.45 -51.65 29.75 -52 29.1 -52.4 28.5 -53.1 28.1
M -53.9 29.05
Q -53.45 29.3 -53.25 29.75 -53.1 30.15 -53.1 30.6 -53.1 31.35 -53.55 31.85 -54.05 32.35 -54.8 32.6 -55.75 32.35 -56.3 31.85 -56.9 31.4 -56.9 30.55 -56.9 30.1 -56.65 29.7 -56.45 29.3 -56 29.05 -55.6 28.8 -54.95 28.8 -54.3 28.8 -53.9 29.05
M -57.2 35.95
Q -57.2 35.15 -56.7 34.55 -56.15 33.95 -55.2 33.65 -54.05 33.95 -53.4 34.55 -52.8 35.1 -52.75 36.1 -52.8 36.95 -53.35 37.5 -53.95 38.05 -55 38.05 -55.7 38.05 -56.2 37.75 -56.7 37.45 -56.95 37 -57.2 36.5 -57.2 35.95
M -44.7 29.05
Q -44.35 29 -44.1 28.95 -43.8 28.95 -43.6 28.95
L -43.6 27.75
Q -43.8 27.75 -44.05 27.75 -44.35 27.75 -44.65 27.8 -45.7 27.95 -46.6 28.35 -47.5 28.75 -48.2 29.45 -49.05 30.3 -49.55 31.55 -50.05 32.8 -50.05 34.45 -50.05 35.85 -49.6 36.9 -49.1 38 -48.25 38.55 -47.35 39.1 -46.15 39.15 -45 39.1 -44.2 38.6 -43.35 38.05 -42.95 37.15 -42.5 36.25 -42.5 35.25 -42.5 34.15 -42.9 33.35 -43.35 32.55 -44.1 32.15 -44.85 31.7 -45.8 31.7 -46.75 31.7 -47.4 32.05 -48.1 32.4 -48.5 32.95
L -48.55 32.95
Q -48.4 32.05 -47.95 31.2 -47.5 30.4 -46.7 29.8 -45.85 29.25 -44.7 29.05
M -47.55 33.2
Q -46.95 32.8 -46.3 32.8 -45.25 32.8 -44.6 33.45 -44 34.15 -44 35.35 -44 36.55 -44.6 37.25 -45.2 37.95 -46.15 38 -46.95 37.95 -47.5 37.55 -48 37.15 -48.3 36.45 -48.55 35.75 -48.6 34.8 -48.6 34.6 -48.55 34.45 -48.5 34.3 -48.45 34.15 -48.1 33.55 -47.55 33.2
M -67.05 38.05
Q -67.05 37.6 -67.35 37.3 -67.6 37 -68.05 37 -68.5 37 -68.8 37.3 -69.05 37.6 -69.05 38.05 -69.05 38.55 -68.8 38.85 -68.5 39.1 -68.05 39.15 -67.6 39.1 -67.3 38.85 -67.05 38.55 -67.05 38.05
M -65.55 38.1
Q -65.55 38.55 -65.3 38.85 -65 39.1 -64.55 39.15 -64.1 39.1 -63.8 38.85 -63.55 38.55 -63.55 38.1 -63.55 37.6 -63.85 37.3 -64.1 37 -64.55 37 -65 37 -65.3 37.3 -65.55 37.6 -65.55 38.1
M -76.15 26.9
L -77.65 26.9 -77.65 38.95 -76.15 38.95 -76.15 26.9
M -78.9 28.75
L -78.9 27.5 -87.35 27.5 -87.35 28.75 -83.9 28.75 -83.9 38.95 -82.4 38.95 -82.4 28.75 -78.9 28.75
M -65.3 32.85
Q -65 33.15 -64.55 33.15 -64.1 33.15 -63.8 32.85 -63.55 32.55 -63.55 32.1 -63.55 31.6 -63.85 31.3 -64.1 31 -64.55 31 -65 31 -65.3 31.3 -65.55 31.6 -65.55 32.1 -65.55 32.55 -65.3 32.85
M -70.45 27.9
Q -70.1 27.9 -69.9 27.95 -69.65 28 -69.5 28.1
L -69.25 26.95
Q -69.5 26.85 -69.8 26.75 -70.15 26.7 -70.55 26.7 -71.1 26.7 -71.6 26.85 -72.15 27.05 -72.55 27.45 -73.05 27.95 -73.3 28.7 -73.5 29.45 -73.5 30.35
L -73.5 30.7 -74.65 30.7 -74.65 31.85 -73.5 31.85 -73.5 38.95 -72.05 38.95 -72.05 31.85 -70.05 31.85 -70.05 30.7 -72.05 30.7 -72.05 30.3
Q -72.05 29.65 -71.9 29.1 -71.75 28.55 -71.4 28.25 -71.05 27.9 -70.45 27.9
M -13.25 30.45
Q -13.25 29.75 -13.6 29.1 -14 28.5 -14.7 28.1 -15.4 27.75 -16.5 27.7 -17.45 27.75 -18.25 28.1 -19 28.45 -19.45 29.1 -19.9 29.8 -19.9 30.65 -19.9 31.4 -19.5 32.05 -19.05 32.7 -18.15 33.15
L -18.15 33.2
Q -19.15 33.6 -19.75 34.35 -20.3 35.1 -20.3 36.15 -20.3 36.95 -19.85 37.65 -19.45 38.3 -18.6 38.7 -17.8 39.1 -16.6 39.15 -15.55 39.1 -14.7 38.75 -13.85 38.35 -13.35 37.6 -12.85 36.9 -12.85 35.9 -12.85 34.9 -13.45 34.2 -14.05 33.5 -15.1 33.05
L -15.1 33
Q -14.1 32.55 -13.65 31.85 -13.25 31.15 -13.25 30.45
M -14.85 29.75
Q -14.7 30.15 -14.7 30.6 -14.7 31.35 -15.15 31.85 -15.65 32.35 -16.4 32.6 -17.35 32.35 -17.9 31.85 -18.5 31.4 -18.5 30.55 -18.5 30.1 -18.25 29.7 -18.05 29.3 -17.6 29.05 -17.2 28.8 -16.55 28.8 -15.9 28.8 -15.5 29.05 -15.05 29.3 -14.85 29.75
M -18.8 35.95
Q -18.8 35.15 -18.3 34.55 -17.75 33.95 -16.8 33.65 -15.65 33.95 -15 34.55 -14.4 35.1 -14.35 36.1 -14.4 36.95 -14.95 37.5 -15.55 38.05 -16.6 38.05 -17.3 38.05 -17.8 37.75 -18.3 37.45 -18.55 37 -18.8 36.5 -18.8 35.95
M -5.1 29.2
Q -6.05 27.75 -7.8 27.7 -8.95 27.7 -9.8 28.4 -10.65 29.05 -11.15 30.35 -11.65 31.6 -11.65 33.45 -11.6 35.3 -11.15 36.55 -10.7 37.8 -9.9 38.5 -9.05 39.15 -8 39.15 -6.15 39.1 -5.15 37.65 -4.15 36.15 -4.15 33.3 -4.15 30.65 -5.1 29.2
M -7.9 28.85
Q -7.1 28.9 -6.6 29.45 -6.1 30 -5.85 31 -5.65 32 -5.65 33.35 -5.65 34.8 -5.9 35.8 -6.1 36.85 -6.65 37.4 -7.15 37.95 -7.9 38 -8.95 37.95 -9.55 36.8 -10.15 35.65 -10.15 33.5 -10.1 31.2 -9.5 30.05 -8.9 28.9 -7.9 28.85
M -36.5 27.9
L -37.75 27.9 -40.2 29.2 -39.9 30.35 -37.95 29.3 -37.95 38.95 -36.5 38.95 -36.5 27.9
M -26.85 28.3
Q -27.65 27.75 -28.8 27.7 -29.9 27.75 -30.75 28.3 -31.6 28.8 -32.1 29.7 -32.55 30.6 -32.55 31.65 -32.55 32.6 -32.15 33.35 -31.75 34.1 -31 34.55 -30.3 35 -29.3 35 -28.45 35 -27.8 34.7 -27.15 34.4 -26.7 33.85
L -26.65 33.85
Q -26.8 34.8 -27.15 35.55 -27.55 36.3 -28.1 36.75 -28.6 37.2 -29.15 37.5 -29.75 37.75 -30.4 37.85 -30.8 37.9 -31.1 37.9 -31.4 37.9 -31.6 37.9
L -31.6 39.1
Q -31.35 39.15 -31 39.1 -30.65 39.1 -30.25 39.05 -29.35 38.95 -28.5 38.55 -27.65 38.2 -27 37.55 -26.2 36.75 -25.65 35.5 -25.15 34.2 -25.1 32.4 -25.15 30.95 -25.55 29.9 -26 28.85 -26.85 28.3
M -30.05 29.2
Q -29.55 28.85 -28.9 28.85 -28.1 28.85 -27.6 29.3 -27.1 29.75 -26.85 30.5 -26.65 31.25 -26.65 32.2 -26.65 32.35 -26.65 32.5 -26.7 32.65 -26.75 32.75 -27.05 33.25 -27.65 33.55 -28.2 33.9 -28.95 33.9 -29.95 33.85 -30.5 33.25 -31.05 32.6 -31.1 31.55 -31.05 30.75 -30.8 30.15 -30.5 29.55 -30.05 29.2
M -8.45 -13.85
Q -8.8 -14.05 -9.3 -14.2 -9.85 -14.35 -10.45 -14.35 -11.35 -14.35 -12 -14.05 -12.6 -13.7 -12.95 -13.15 -13.3 -12.6 -13.3 -11.95 -13.3 -11.2 -12.75 -10.6 -12.2 -10 -11.1 -9.6 -10.3 -9.35 -9.95 -9 -9.6 -8.65 -9.6 -8.1 -9.6 -7.6 -10 -7.25 -10.35 -6.9 -11.2 -6.9 -11.75 -6.9 -12.3 -7.1 -12.8 -7.25 -13.15 -7.5
L -13.55 -6.35
Q -13.1 -6.1 -12.5 -5.95 -11.9 -5.8 -11.2 -5.8 -9.75 -5.8 -8.95 -6.45 -8.15 -7.15 -8.15 -8.25 -8.15 -9.15 -8.7 -9.75 -9.25 -10.3 -10.3 -10.7 -11.1 -11 -11.5 -11.3 -11.85 -11.6 -11.85 -12.1 -11.85 -12.6 -11.5 -12.9 -11.15 -13.25 -10.5 -13.25 -9.9 -13.25 -9.5 -13.1 -9.05 -12.9 -8.8 -12.75
L -8.45 -13.85
M -37.35 -14.2
Q -37.35 -13.6 -37.3 -12.95 -37.3 -12.35 -37.3 -11.6
L -37.3 -5.95 -35.85 -5.95 -35.85 -10.35
Q -35.85 -10.5 -35.8 -10.7 -35.8 -10.85 -35.75 -11.05 -35.6 -11.9 -35.05 -12.4 -34.55 -12.95 -33.75 -12.95 -33.6 -12.95 -33.5 -12.95 -33.35 -12.9 -33.25 -12.9
L -33.25 -14.3
Q -33.35 -14.35 -33.45 -14.35 -33.55 -14.35 -33.65 -14.35 -34.45 -14.35 -35.05 -13.85 -35.65 -13.4 -35.95 -12.55
L -36 -12.55 -36.05 -14.2 -37.35 -14.2
M -20.85 -14.2
L -22.35 -14.2 -22.35 -9.35
Q -22.35 -7.95 -21.9 -7.15 -21.5 -6.35 -20.85 -6.05 -20.2 -5.75 -19.5 -5.75 -18.8 -5.8 -18.25 -6 -17.7 -6.25 -17.35 -6.6 -17 -6.95 -16.8 -7.3
L -16.75 -7.3 -16.7 -5.95 -15.35 -5.95
Q -15.4 -6.45 -15.4 -7 -15.4 -7.55 -15.4 -8.2
L -15.4 -14.2 -16.9 -14.2 -16.9 -9.15
Q -16.9 -8.95 -16.95 -8.75 -17 -8.55 -17.05 -8.35 -17.2 -8.05 -17.45 -7.75 -17.75 -7.4 -18.15 -7.2 -18.55 -7 -19.05 -7 -20.05 -7.05 -20.45 -7.75 -20.9 -8.45 -20.85 -9.65
L -20.85 -14.2
M -28.45 -14.25
Q -28.8 -14.15 -29.15 -13.95 -29.5 -13.75 -29.75 -13.45 -30.05 -13.2 -30.25 -12.9
L -30.25 -18 -31.75 -18 -31.75 -5.95 -30.25 -5.95 -30.25 -10.9
Q -30.25 -11.1 -30.25 -11.3 -30.2 -11.45 -30.15 -11.6 -29.95 -12.25 -29.4 -12.65 -28.9 -13.1 -28.15 -13.1 -27.45 -13.1 -27.05 -12.75 -26.6 -12.45 -26.45 -11.9 -26.25 -11.35 -26.25 -10.65
L -26.25 -5.95 -24.75 -5.95 -24.75 -10.85
Q -24.75 -11.9 -25.05 -12.6 -25.35 -13.25 -25.8 -13.65 -26.2 -14.05 -26.7 -14.2 -27.2 -14.35 -27.65 -14.35 -28.05 -14.35 -28.45 -14.25
M -21.15 -35.05
Q -21.4 -35.8 -22.05 -36.3 -22.75 -36.8 -24 -36.8 -24.8 -36.8 -25.5 -36.6 -26.2 -36.4 -26.7 -36.1
L -26.35 -35.1
Q -25.9 -35.4 -25.35 -35.55 -24.8 -35.7 -24.2 -35.7 -23.4 -35.7 -23 -35.35 -22.6 -35.05 -22.45 -34.6 -22.35 -34.15 -22.35 -33.8
L -22.35 -33.65
Q -24.75 -33.65 -26 -32.85 -27.3 -32.1 -27.3 -30.55 -27.3 -29.95 -27 -29.45 -26.75 -28.9 -26.2 -28.55 -25.6 -28.25 -24.8 -28.2 -23.9 -28.25 -23.25 -28.6 -22.6 -28.95 -22.25 -29.45
L -22.2 -29.45 -22.1 -28.4 -20.75 -28.4
Q -20.8 -28.8 -20.85 -29.35 -20.9 -29.85 -20.9 -30.4
L -20.9 -33.45
Q -20.85 -34.3 -21.15 -35.05
M -25.25 -31.95
Q -24.75 -32.35 -23.95 -32.5 -23.15 -32.65 -22.3 -32.6
L -22.3 -31.15
Q -22.3 -31.05 -22.35 -30.95 -22.35 -30.8 -22.4 -30.7 -22.6 -30.15 -23.1 -29.75 -23.6 -29.35 -24.4 -29.3 -25 -29.3 -25.4 -29.65 -25.8 -30.05 -25.8 -30.75 -25.8 -31.55 -25.25 -31.95
M -32.65 -32
L -34.25 -36.65 -35.9 -36.65 -32.75 -28.4 -31.3 -28.4 -28.1 -36.65 -29.65 -36.65 -31.25 -32
Q -31.45 -31.45 -31.65 -30.9 -31.8 -30.4 -31.95 -29.9
L -32 -29.9
Q -32.1 -30.4 -32.3 -30.9 -32.45 -31.45 -32.65 -32
M -14.65 -35.4
Q -14.5 -35.35 -14.4 -35.35
L -14.4 -36.75
Q -14.5 -36.8 -14.6 -36.8 -14.7 -36.8 -14.8 -36.8 -15.6 -36.8 -16.2 -36.3 -16.8 -35.85 -17.1 -35
L -17.15 -35 -17.2 -36.65 -18.5 -36.65
Q -18.5 -36.05 -18.45 -35.4 -18.45 -34.8 -18.45 -34.05
L -18.45 -28.4 -17 -28.4 -17 -32.8
Q -17 -32.95 -16.95 -33.15 -16.95 -33.3 -16.9 -33.5 -16.75 -34.35 -16.2 -34.85 -15.7 -35.4 -14.9 -35.4 -14.75 -35.4 -14.65 -35.4
M -5.8 -40.45
L -7.3 -40.45 -7.3 -35.55 -7.35 -35.55
Q -7.6 -36.05 -8.25 -36.45 -8.85 -36.8 -9.8 -36.8 -10.85 -36.8 -11.65 -36.25 -12.5 -35.75 -13 -34.75 -13.5 -33.75 -13.5 -32.4 -13.5 -31.15 -13.05 -30.2 -12.55 -29.25 -11.8 -28.75 -11 -28.25 -10 -28.2 -8.95 -28.25 -8.25 -28.7 -7.55 -29.15 -7.2 -29.85
L -7.15 -29.85 -7.1 -28.4 -5.75 -28.4
Q -5.75 -28.85 -5.8 -29.4 -5.8 -29.95 -5.8 -30.5
L -5.8 -40.45
M -11.7 -34.1
Q -11.4 -34.8 -10.85 -35.2 -10.3 -35.65 -9.55 -35.65 -8.7 -35.6 -8.1 -35.15 -7.55 -34.65 -7.35 -33.9 -7.35 -33.75 -7.3 -33.6 -7.3 -33.4 -7.3 -33.3
L -7.3 -31.85
Q -7.3 -31.65 -7.3 -31.5 -7.35 -31.35 -7.35 -31.2 -7.6 -30.35 -8.2 -29.9 -8.8 -29.45 -9.55 -29.4 -10.35 -29.45 -10.9 -29.85 -11.45 -30.25 -11.7 -30.95 -12 -31.6 -12 -32.45 -12 -33.4 -11.7 -34.1
M -56.8 -17.2
Q -57.95 -17.2 -58.8 -16.5 -59.65 -15.85 -60.15 -14.55 -60.65 -13.3 -60.65 -11.45 -60.6 -9.6 -60.15 -8.35 -59.7 -7.1 -58.9 -6.4 -58.05 -5.75 -57 -5.75 -55.15 -5.8 -54.15 -7.25 -53.15 -8.75 -53.15 -11.6 -53.15 -14.25 -54.1 -15.7 -55.05 -17.15 -56.8 -17.2
M -55.6 -15.45
Q -55.1 -14.9 -54.85 -13.9 -54.65 -12.9 -54.65 -11.55 -54.65 -10.1 -54.9 -9.1 -55.1 -8.05 -55.65 -7.5 -56.15 -6.95 -56.9 -6.9 -57.95 -6.95 -58.55 -8.1 -59.15 -9.25 -59.15 -11.4 -59.1 -13.7 -58.5 -14.85 -57.9 -16 -56.9 -16.05 -56.1 -16 -55.6 -15.45
M -42.85 -17.4
L -44.65 -17.4 -48.55 -5.95 -47 -5.95 -45.8 -9.55 -41.75 -9.55 -40.5 -5.95 -38.95 -5.95 -42.85 -17.4
M -43.8 -16.1
L -43.75 -16.1
Q -43.65 -15.6 -43.5 -15.1 -43.35 -14.55 -43.15 -14
L -42.05 -10.7 -45.5 -10.7 -44.4 -14
Q -44.2 -14.55 -44.05 -15.05 -43.95 -15.6 -43.8 -16.1
M -43.7 -20.85
Q -44.5 -20.85 -44.95 -20.4 -45.4 -20 -45.4 -19.3 -45.4 -18.7 -44.95 -18.25 -44.5 -17.85 -43.7 -17.85 -42.95 -17.85 -42.5 -18.25 -42.05 -18.7 -42.05 -19.35 -42.05 -20 -42.5 -20.45 -42.95 -20.85 -43.7 -20.85
M -44.35 -18.75
Q -44.55 -19 -44.55 -19.3 -44.55 -19.7 -44.35 -20 -44.15 -20.25 -43.75 -20.25 -43.35 -20.25 -43.15 -20 -42.9 -19.75 -42.9 -19.35 -42.9 -19 -43.15 -18.7 -43.35 -18.45 -43.75 -18.45 -44.1 -18.5 -44.35 -18.75
M -71.5 -15.7
Q -72.45 -17.15 -74.2 -17.2 -75.35 -17.2 -76.2 -16.5 -77.05 -15.85 -77.55 -14.55 -78.05 -13.3 -78.05 -11.45 -78 -9.6 -77.55 -8.35 -77.1 -7.1 -76.3 -6.4 -75.45 -5.75 -74.4 -5.75 -72.55 -5.8 -71.55 -7.25 -70.55 -8.75 -70.55 -11.6 -70.55 -14.25 -71.5 -15.7
M -73 -15.45
Q -72.5 -14.9 -72.25 -13.9 -72.05 -12.9 -72.05 -11.55 -72.05 -10.1 -72.3 -9.1 -72.5 -8.05 -73.05 -7.5 -73.55 -6.95 -74.3 -6.9 -75.35 -6.95 -75.95 -8.1 -76.55 -9.25 -76.55 -11.4 -76.5 -13.7 -75.9 -14.85 -75.3 -16 -74.3 -16.05 -73.5 -16 -73 -15.45
M -62.8 -15.7
Q -63.75 -17.15 -65.5 -17.2 -66.65 -17.2 -67.5 -16.5 -68.35 -15.85 -68.85 -14.55 -69.35 -13.3 -69.35 -11.45 -69.3 -9.6 -68.85 -8.35 -68.4 -7.1 -67.6 -6.4 -66.75 -5.75 -65.7 -5.75 -63.85 -5.8 -62.85 -7.25 -61.85 -8.75 -61.85 -11.6 -61.85 -14.25 -62.8 -15.7
M -65.6 -16.05
Q -64.8 -16 -64.3 -15.45 -63.8 -14.9 -63.55 -13.9 -63.35 -12.9 -63.35 -11.55 -63.35 -10.1 -63.6 -9.1 -63.8 -8.05 -64.35 -7.5 -64.85 -6.95 -65.6 -6.9 -66.65 -6.95 -67.25 -8.1 -67.85 -9.25 -67.85 -11.4 -67.8 -13.7 -67.2 -14.85 -66.6 -16 -65.6 -16.05
M -74.25 -40.45
L -75.7 -40.45 -75.7 -30.5
Q -75.7 -29.95 -75.7 -29.4 -75.75 -28.85 -75.75 -28.4
L -74.5 -28.4 -74.4 -29.75 -74.35 -29.75
Q -73.9 -28.95 -73.2 -28.6 -72.5 -28.2 -71.6 -28.2 -70.65 -28.2 -69.85 -28.7 -69 -29.2 -68.45 -30.15 -67.95 -31.15 -67.95 -32.6 -67.95 -33.85 -68.35 -34.8 -68.8 -35.75 -69.6 -36.3 -70.35 -36.8 -71.4 -36.8 -72.4 -36.8 -73.1 -36.4 -73.8 -36 -74.2 -35.3
L -74.25 -35.3 -74.25 -40.45
M -73.25 -35.15
Q -72.65 -35.6 -71.85 -35.6 -71.05 -35.6 -70.55 -35.2 -70 -34.8 -69.7 -34.1 -69.4 -33.4 -69.4 -32.55 -69.45 -31.15 -70.1 -30.3 -70.75 -29.4 -71.9 -29.4 -72.75 -29.4 -73.35 -29.9 -73.95 -30.35 -74.15 -31.15 -74.2 -31.3 -74.2 -31.4 -74.25 -31.55 -74.25 -31.7
L -74.25 -33.15
Q -74.25 -33.35 -74.2 -33.5 -74.15 -33.65 -74.15 -33.8 -73.9 -34.65 -73.25 -35.15
M -42.15 -36.2
Q -43 -35.65 -43.5 -34.65 -43.95 -33.65 -43.95 -32.4 -43.95 -31.15 -43.45 -30.2 -43 -29.25 -42.1 -28.75 -41.2 -28.25 -39.9 -28.25 -38.95 -28.25 -38.25 -28.4 -37.55 -28.55 -37.15 -28.75
L -37.45 -29.8
Q -37.85 -29.65 -38.35 -29.5 -38.9 -29.4 -39.7 -29.4 -40.45 -29.4 -41.1 -29.7 -41.75 -29.95 -42.1 -30.6 -42.5 -31.25 -42.5 -32.25
L -36.75 -32.25
Q -36.75 -32.35 -36.7 -32.55 -36.7 -32.7 -36.7 -32.95 -36.7 -33.5 -36.85 -34.2 -37 -34.85 -37.4 -35.45 -37.75 -36.05 -38.45 -36.4 -39.1 -36.8 -40.1 -36.8 -41.3 -36.8 -42.15 -36.2
M -42.2 -34.4
Q -41.95 -34.95 -41.45 -35.35 -40.95 -35.7 -40.2 -35.75 -39.4 -35.7 -38.9 -35.3 -38.45 -34.9 -38.3 -34.35 -38.15 -33.8 -38.15 -33.3
L -42.5 -33.3
Q -42.45 -33.85 -42.2 -34.4
M -59.1 -34.8
Q -59.6 -35.75 -60.5 -36.25 -61.4 -36.8 -62.6 -36.8 -63.7 -36.8 -64.65 -36.3 -65.55 -35.75 -66.1 -34.8 -66.65 -33.85 -66.65 -32.45 -66.65 -31.15 -66.1 -30.2 -65.6 -29.25 -64.75 -28.75 -63.85 -28.25 -62.7 -28.2 -61.7 -28.2 -60.75 -28.65 -59.85 -29.15 -59.25 -30.1 -58.65 -31.05 -58.6 -32.6 -58.65 -33.85 -59.1 -34.8
M -60.4 -33.95
Q -60.15 -33.25 -60.15 -32.55 -60.15 -31.6 -60.5 -30.9 -60.8 -30.15 -61.35 -29.75 -61.9 -29.35 -62.65 -29.35 -63.4 -29.35 -63.95 -29.75 -64.5 -30.15 -64.8 -30.85 -65.15 -31.6 -65.15 -32.5 -65.15 -33.3 -64.9 -34 -64.6 -34.75 -64.05 -35.2 -63.5 -35.65 -62.6 -35.7 -61.75 -35.65 -61.2 -35.2 -60.65 -34.7 -60.4 -33.95
M -51.3 -31.6
Q -51.3 -31.4 -51.35 -31.2 -51.4 -31 -51.45 -30.8 -51.6 -30.5 -51.85 -30.2 -52.15 -29.85 -52.55 -29.65 -52.95 -29.45 -53.45 -29.45 -54.45 -29.5 -54.85 -30.2 -55.3 -30.9 -55.25 -32.1
L -55.25 -36.65 -56.75 -36.65 -56.75 -31.8
Q -56.75 -30.4 -56.3 -29.6 -55.9 -28.8 -55.25 -28.5 -54.6 -28.2 -53.9 -28.2 -53.2 -28.25 -52.65 -28.45 -52.1 -28.7 -51.75 -29.05 -51.4 -29.4 -51.2 -29.75
L -51.15 -29.75 -51.1 -28.4 -49.75 -28.4
Q -49.8 -28.9 -49.8 -29.45 -49.8 -30 -49.8 -30.65
L -49.8 -36.65 -51.3 -36.65 -51.3 -31.6
M -45.85 -40.45
L -47.35 -40.45 -47.35 -28.4 -45.85 -28.4 -45.85 -40.45
M -40.95 -59.1
L -42.45 -59.1 -42.45 -54.05
Q -42.45 -53.85 -42.5 -53.65 -42.55 -53.45 -42.6 -53.25 -42.75 -52.95 -43 -52.65 -43.3 -52.3 -43.7 -52.1 -44.1 -51.9 -44.6 -51.9 -45.6 -51.95 -46 -52.65 -46.45 -53.35 -46.4 -54.55
L -46.4 -59.1 -47.9 -59.1 -47.9 -54.25
Q -47.9 -52.85 -47.45 -52.05 -47.05 -51.25 -46.4 -50.95 -45.75 -50.65 -45.05 -50.65 -44.35 -50.7 -43.8 -50.9 -43.25 -51.15 -42.9 -51.5 -42.55 -51.85 -42.35 -52.2
L -42.3 -52.2 -42.25 -50.85 -40.9 -50.85
Q -40.95 -51.35 -40.95 -51.9 -40.95 -52.45 -40.95 -53.1
L -40.95 -59.1
M -51.85 -57.05
Q -51.75 -56.6 -51.75 -56.25
L -51.75 -56.1
Q -54.15 -56.1 -55.4 -55.3 -56.7 -54.55 -56.7 -53 -56.7 -52.4 -56.4 -51.9 -56.15 -51.35 -55.6 -51 -55 -50.7 -54.2 -50.65 -53.3 -50.7 -52.65 -51.05 -52 -51.4 -51.65 -51.9
L -51.6 -51.9 -51.5 -50.85 -50.15 -50.85
Q -50.2 -51.25 -50.25 -51.8 -50.3 -52.3 -50.3 -52.85
L -50.3 -55.9
Q -50.25 -56.75 -50.55 -57.5 -50.8 -58.25 -51.45 -58.75 -52.15 -59.25 -53.4 -59.25 -54.2 -59.25 -54.9 -59.05 -55.6 -58.85 -56.1 -58.55
L -55.75 -57.55
Q -55.3 -57.85 -54.75 -58 -54.2 -58.15 -53.6 -58.15 -52.8 -58.15 -52.4 -57.8 -52 -57.5 -51.85 -57.05
M -51.7 -53.6
Q -51.7 -53.5 -51.75 -53.4 -51.75 -53.25 -51.8 -53.15 -52 -52.6 -52.5 -52.2 -53 -51.8 -53.8 -51.75 -54.4 -51.75 -54.8 -52.1 -55.2 -52.5 -55.2 -53.2 -55.2 -54 -54.65 -54.4 -54.15 -54.8 -53.35 -54.95 -52.55 -55.1 -51.7 -55.05
L -51.7 -53.6
M -65 -58
Q -64.55 -57.8 -64.3 -57.65
L -63.95 -58.75
Q -64.3 -58.95 -64.8 -59.1 -65.35 -59.25 -65.95 -59.25 -66.85 -59.25 -67.5 -58.95 -68.1 -58.6 -68.45 -58.05 -68.8 -57.5 -68.8 -56.85 -68.8 -56.1 -68.25 -55.5 -67.7 -54.9 -66.6 -54.5 -65.8 -54.25 -65.45 -53.9 -65.1 -53.55 -65.1 -53 -65.1 -52.5 -65.5 -52.15 -65.85 -51.8 -66.7 -51.8 -67.25 -51.8 -67.8 -52 -68.3 -52.15 -68.65 -52.4
L -69.05 -51.25
Q -68.6 -51 -68 -50.85 -67.4 -50.7 -66.7 -50.7 -65.25 -50.7 -64.45 -51.35 -63.65 -52.05 -63.65 -53.15 -63.65 -54.05 -64.2 -54.65 -64.75 -55.2 -65.8 -55.6 -66.6 -55.9 -67 -56.2 -67.35 -56.5 -67.35 -57 -67.35 -57.5 -67 -57.8 -66.65 -58.15 -66 -58.15 -65.4 -58.15 -65 -58
M -61.35 -61.05
L -61.35 -59.1 -62.65 -59.1 -62.65 -57.95 -61.35 -57.95 -61.35 -53.45
Q -61.35 -52.75 -61.25 -52.2 -61.1 -51.65 -60.8 -51.3 -60.5 -51 -60.1 -50.85 -59.7 -50.7 -59.15 -50.7 -58.75 -50.7 -58.4 -50.75 -58.05 -50.8 -57.85 -50.9
L -57.9 -52
Q -58.05 -51.95 -58.25 -51.95 -58.5 -51.9 -58.8 -51.9 -59.4 -51.9 -59.65 -52.3 -59.9 -52.75 -59.9 -53.5
L -59.9 -57.95 -57.75 -57.95 -57.75 -59.1 -59.9 -59.1 -59.9 -61.45 -61.35 -61.05
M -73.7 -59.25
Q -74.9 -59.25 -75.75 -58.65 -76.6 -58.1 -77.1 -57.1 -77.55 -56.1 -77.55 -54.85 -77.55 -53.6 -77.05 -52.65 -76.6 -51.7 -75.7 -51.2 -74.8 -50.7 -73.5 -50.7 -72.55 -50.7 -71.85 -50.85 -71.15 -51 -70.75 -51.2
L -71.05 -52.25
Q -71.45 -52.1 -71.95 -51.95 -72.5 -51.85 -73.3 -51.85 -74.05 -51.85 -74.7 -52.15 -75.35 -52.4 -75.7 -53.05 -76.1 -53.7 -76.1 -54.7
L -70.35 -54.7
Q -70.35 -54.8 -70.3 -55 -70.3 -55.15 -70.3 -55.4 -70.3 -55.95 -70.45 -56.65 -70.6 -57.3 -71 -57.9 -71.35 -58.5 -72.05 -58.85 -72.7 -59.25 -73.7 -59.25
M -75.05 -57.8
Q -74.55 -58.15 -73.8 -58.2 -73 -58.15 -72.5 -57.75 -72.05 -57.35 -71.9 -56.8 -71.75 -56.25 -71.75 -55.75
L -76.1 -55.75
Q -76.05 -56.3 -75.8 -56.85 -75.55 -57.4 -75.05 -57.8
M -62.5 -81.55
Q -63 -81.7 -63.45 -81.7 -64.15 -81.7 -64.7 -81.5 -65.2 -81.25 -65.6 -80.9 -66 -80.55 -66.2 -80.15
L -66.3 -81.55 -67.6 -81.55
Q -67.6 -81 -67.55 -80.5 -67.55 -79.95 -67.55 -79.3
L -67.55 -73.3 -66.05 -73.3 -66.05 -78.25
Q -66.05 -78.45 -66.05 -78.6 -66 -78.8 -65.95 -78.95 -65.75 -79.6 -65.25 -80 -64.7 -80.45 -63.95 -80.45 -63.25 -80.45 -62.85 -80.15 -62.4 -79.8 -62.25 -79.25 -62.05 -78.7 -62.05 -78.05
L -62.05 -73.3 -60.55 -73.3 -60.55 -78.2
Q -60.55 -79.25 -60.85 -79.95 -61.15 -80.65 -61.6 -81 -62.05 -81.4 -62.5 -81.55
M -71.35 -81.15
Q -72.25 -81.7 -73.45 -81.7 -74.55 -81.7 -75.5 -81.2 -76.4 -80.65 -76.95 -79.7 -77.5 -78.75 -77.5 -77.35 -77.5 -76.05 -76.95 -75.1 -76.45 -74.15 -75.6 -73.65 -74.7 -73.15 -73.55 -73.1 -72.55 -73.1 -71.6 -73.55 -70.7 -74.05 -70.1 -75 -69.5 -75.95 -69.45 -77.5 -69.5 -78.75 -69.95 -79.7 -70.45 -80.65 -71.35 -81.15
M -74.8 -74.65
Q -75.35 -75.05 -75.65 -75.75 -76 -76.5 -76 -77.4 -76 -78.2 -75.75 -78.9 -75.45 -79.65 -74.9 -80.1 -74.35 -80.55 -73.45 -80.6 -72.6 -80.55 -72.05 -80.1 -71.5 -79.6 -71.25 -78.85 -71 -78.15 -71 -77.45 -71 -76.5 -71.35 -75.8 -71.65 -75.05 -72.2 -74.65 -72.75 -74.25 -73.5 -74.25 -74.25 -74.25 -74.8 -74.65
M -56.3 -83.9
L -57.75 -83.5 -57.75 -81.55 -59.05 -81.55 -59.05 -80.4 -57.75 -80.4 -57.75 -75.9
Q -57.75 -75.2 -57.65 -74.65 -57.5 -74.1 -57.2 -73.75 -56.9 -73.45 -56.5 -73.3 -56.1 -73.15 -55.55 -73.15 -55.15 -73.15 -54.8 -73.2 -54.45 -73.25 -54.25 -73.35
L -54.3 -74.45
Q -54.45 -74.4 -54.65 -74.4 -54.9 -74.35 -55.2 -74.35 -55.8 -74.35 -56.05 -74.75 -56.3 -75.2 -56.3 -75.95
L -56.3 -80.4 -54.15 -80.4 -54.15 -81.55 -56.3 -81.55 -56.3 -83.9
M -51.3 -81.5
Q -52 -81.3 -52.5 -81
L -52.15 -80
Q -51.7 -80.3 -51.15 -80.45 -50.6 -80.6 -50 -80.6 -49.2 -80.6 -48.8 -80.25 -48.4 -79.95 -48.25 -79.5 -48.15 -79.05 -48.15 -78.7
L -48.15 -78.55
Q -50.55 -78.55 -51.8 -77.75 -53.1 -77 -53.1 -75.45 -53.1 -74.85 -52.8 -74.35 -52.55 -73.8 -52 -73.45 -51.4 -73.15 -50.6 -73.1 -49.7 -73.15 -49.05 -73.5 -48.4 -73.85 -48.05 -74.35
L -48 -74.35 -47.9 -73.3 -46.55 -73.3
Q -46.6 -73.7 -46.65 -74.25 -46.7 -74.75 -46.7 -75.3
L -46.7 -78.35
Q -46.65 -79.2 -46.95 -79.95 -47.2 -80.7 -47.85 -81.2 -48.55 -81.7 -49.8 -81.7 -50.6 -81.7 -51.3 -81.5
M -51.6 -75.65
Q -51.6 -76.45 -51.05 -76.85 -50.55 -77.25 -49.75 -77.4 -48.95 -77.55 -48.1 -77.5
L -48.1 -76.05
Q -48.1 -75.95 -48.15 -75.85 -48.15 -75.7 -48.2 -75.6 -48.4 -75.05 -48.9 -74.65 -49.4 -74.25 -50.2 -74.2 -50.8 -74.2 -51.2 -74.55 -51.6 -74.95 -51.6 -75.65
M -13.5 -57.95
L -11.35 -57.95 -11.35 -59.1 -13.5 -59.1 -13.5 -61.45 -14.95 -61.05 -14.95 -59.1 -16.25 -59.1 -16.25 -57.95 -14.95 -57.95 -14.95 -53.45
Q -14.95 -52.75 -14.85 -52.2 -14.7 -51.65 -14.4 -51.3 -14.1 -51 -13.7 -50.85 -13.3 -50.7 -12.75 -50.7 -12.35 -50.7 -12 -50.75 -11.65 -50.8 -11.45 -50.9
L -11.5 -52
Q -11.65 -51.95 -11.85 -51.95 -12.1 -51.9 -12.4 -51.9 -13 -51.9 -13.25 -52.3 -13.5 -52.75 -13.5 -53.5
L -13.5 -57.95
M -4.55 -62.3
L -6 -62.3 -6 -50.85 -4.55 -50.85 -4.55 -62.3
M -20.65 -59.25
Q -21.35 -59.25 -21.9 -59.05 -22.4 -58.8 -22.8 -58.45 -23.2 -58.1 -23.4 -57.7
L -23.5 -59.1 -24.8 -59.1
Q -24.8 -58.55 -24.75 -58.05 -24.75 -57.5 -24.75 -56.85
L -24.75 -50.85 -23.25 -50.85 -23.25 -55.8
Q -23.25 -56 -23.25 -56.15 -23.2 -56.35 -23.15 -56.5 -22.95 -57.15 -22.45 -57.55 -21.9 -58 -21.15 -58 -20.45 -58 -20.05 -57.7 -19.6 -57.35 -19.45 -56.8 -19.25 -56.25 -19.25 -55.6
L -19.25 -50.85 -17.75 -50.85 -17.75 -55.75
Q -17.75 -56.8 -18.05 -57.5 -18.35 -58.2 -18.8 -58.55 -19.25 -58.95 -19.7 -59.1 -20.2 -59.25 -20.65 -59.25
M -31.65 -58
Q -31.1 -58.15 -30.5 -58.15 -29.7 -58.15 -29.3 -57.8 -28.9 -57.5 -28.75 -57.05 -28.65 -56.6 -28.65 -56.25
L -28.65 -56.1
Q -31.05 -56.1 -32.3 -55.3 -33.6 -54.55 -33.6 -53 -33.6 -52.4 -33.3 -51.9 -33.05 -51.35 -32.5 -51 -31.9 -50.7 -31.1 -50.65 -30.2 -50.7 -29.55 -51.05 -28.9 -51.4 -28.55 -51.9
L -28.5 -51.9 -28.4 -50.85 -27.05 -50.85
Q -27.1 -51.25 -27.15 -51.8 -27.2 -52.3 -27.2 -52.85
L -27.2 -55.9
Q -27.15 -56.75 -27.45 -57.5 -27.7 -58.25 -28.35 -58.75 -29.05 -59.25 -30.3 -59.25 -31.1 -59.25 -31.8 -59.05 -32.5 -58.85 -33 -58.55
L -32.65 -57.55
Q -32.2 -57.85 -31.65 -58
M -30.7 -51.75
Q -31.3 -51.75 -31.7 -52.1 -32.1 -52.5 -32.1 -53.2 -32.1 -54 -31.55 -54.4 -31.05 -54.8 -30.25 -54.95 -29.45 -55.1 -28.6 -55.05
L -28.6 -53.6
Q -28.6 -53.5 -28.65 -53.4 -28.65 -53.25 -28.7 -53.15 -28.9 -52.6 -29.4 -52.2 -29.9 -51.8 -30.7 -51.75
M -34.45 -59.2
Q -34.55 -59.25 -34.65 -59.25 -34.75 -59.25 -34.85 -59.25 -35.65 -59.25 -36.25 -58.75 -36.85 -58.3 -37.15 -57.45
L -37.2 -57.45 -37.25 -59.1 -38.55 -59.1
Q -38.55 -58.5 -38.5 -57.85 -38.5 -57.25 -38.5 -56.5
L -38.5 -50.85 -37.05 -50.85 -37.05 -55.25
Q -37.05 -55.4 -37 -55.6 -37 -55.75 -36.95 -55.95 -36.8 -56.8 -36.25 -57.3 -35.75 -57.85 -34.95 -57.85 -34.8 -57.85 -34.7 -57.85 -34.55 -57.8 -34.45 -57.8
L -34.45 -59.2
M -29.15 -81.55
L -30.65 -81.55 -30.65 -73.3 -29.15 -73.3 -29.15 -81.55
M -37.8 -81.55
L -39.6 -81.55 -42 -78.7
Q -42.2 -78.45 -42.4 -78.2 -42.6 -77.95 -42.75 -77.75
L -42.8 -77.75 -42.8 -85.35 -44.25 -85.35 -44.25 -73.3 -42.8 -73.3 -42.8 -76.4 -42 -77.25 -39.15 -73.3 -37.35 -73.3 -41 -78.15 -37.8 -81.55
M -30.85 -83.85
Q -30.85 -83.45 -30.6 -83.2 -30.35 -82.95 -29.95 -82.9 -29.5 -82.95 -29.25 -83.2 -29 -83.45 -29 -83.85 -29 -84.25 -29.25 -84.5 -29.5 -84.75 -29.9 -84.75 -30.3 -84.75 -30.6 -84.5 -30.85 -84.25 -30.85 -83.85
M -34.5 -81.55
L -34.5 -83.9 -35.95 -83.5 -35.95 -81.55 -37.25 -81.55 -37.25 -80.4 -35.95 -80.4 -35.95 -75.9
Q -35.95 -75.2 -35.85 -74.65 -35.7 -74.1 -35.4 -73.75 -35.1 -73.45 -34.7 -73.3 -34.3 -73.15 -33.75 -73.15 -33.35 -73.15 -33 -73.2 -32.65 -73.25 -32.45 -73.35
L -32.5 -74.45
Q -32.65 -74.4 -32.85 -74.4 -33.1 -74.35 -33.4 -74.35 -34 -74.35 -34.25 -74.75 -34.5 -75.2 -34.5 -75.95
L -34.5 -80.4 -32.35 -80.4 -32.35 -81.55 -34.5 -81.55
M -12.85 -77.35
Q -12.85 -76.05 -12.3 -75.1 -11.8 -74.15 -10.95 -73.65 -10.05 -73.15 -8.9 -73.1 -7.9 -73.1 -6.95 -73.55 -6.05 -74.05 -5.45 -75 -4.85 -75.95 -4.8 -77.5 -4.85 -78.75 -5.3 -79.7 -5.8 -80.65 -6.7 -81.15 -7.6 -81.7 -8.8 -81.7 -9.9 -81.7 -10.85 -81.2 -11.75 -80.65 -12.3 -79.7 -12.85 -78.75 -12.85 -77.35
M -11 -75.75
Q -11.35 -76.5 -11.35 -77.4 -11.35 -78.2 -11.1 -78.9 -10.8 -79.65 -10.25 -80.1 -9.7 -80.55 -8.8 -80.6 -7.95 -80.55 -7.4 -80.1 -6.85 -79.6 -6.6 -78.85 -6.35 -78.15 -6.35 -77.45 -6.35 -76.5 -6.7 -75.8 -7 -75.05 -7.55 -74.65 -8.1 -74.25 -8.85 -74.25 -9.6 -74.25 -10.15 -74.65 -10.7 -75.05 -11 -75.75
M -19.65 -78.2
Q -19.65 -79.25 -19.95 -79.95 -20.25 -80.65 -20.7 -81 -21.15 -81.4 -21.6 -81.55 -22.1 -81.7 -22.55 -81.7 -23.25 -81.7 -23.8 -81.5 -24.3 -81.25 -24.7 -80.9 -25.1 -80.55 -25.3 -80.15
L -25.4 -81.55 -26.7 -81.55
Q -26.7 -81 -26.65 -80.5 -26.65 -79.95 -26.65 -79.3
L -26.65 -73.3 -25.15 -73.3 -25.15 -78.25
Q -25.15 -78.45 -25.15 -78.6 -25.1 -78.8 -25.05 -78.95 -24.85 -79.6 -24.35 -80 -23.8 -80.45 -23.05 -80.45 -22.35 -80.45 -21.95 -80.15 -21.5 -79.8 -21.35 -79.25 -21.15 -78.7 -21.15 -78.05
L -21.15 -73.3 -19.65 -73.3 -19.65 -78.2
M -13.35 -85.5
Q -13.7 -85.55 -14.1 -85.55 -14.65 -85.55 -15.15 -85.4 -15.7 -85.2 -16.1 -84.8 -16.6 -84.3 -16.85 -83.55 -17.05 -82.8 -17.05 -81.9
L -17.05 -81.55 -18.2 -81.55 -18.2 -80.4 -17.05 -80.4 -17.05 -73.3 -15.6 -73.3 -15.6 -80.4 -13.6 -80.4 -13.6 -81.55 -15.6 -81.55 -15.6 -81.95
Q -15.6 -82.6 -15.45 -83.15 -15.3 -83.7 -14.95 -84 -14.6 -84.35 -14 -84.35 -13.65 -84.35 -13.45 -84.3 -13.2 -84.25 -13.05 -84.15
L -12.8 -85.3
Q -13.05 -85.4 -13.35 -85.5
M -81.1 -16.8
Q -81.8 -17.15 -82.9 -17.2 -83.85 -17.15 -84.65 -16.8 -85.4 -16.45 -85.85 -15.8 -86.3 -15.1 -86.3 -14.25 -86.3 -13.5 -85.9 -12.85 -85.45 -12.2 -84.55 -11.75
L -84.55 -11.7
Q -85.55 -11.3 -86.15 -10.55 -86.7 -9.8 -86.7 -8.75 -86.7 -7.95 -86.25 -7.25 -85.85 -6.6 -85 -6.2 -84.2 -5.8 -83 -5.75 -81.95 -5.8 -81.1 -6.15 -80.25 -6.55 -79.75 -7.3 -79.25 -8 -79.25 -9 -79.25 -10 -79.85 -10.7 -80.45 -11.4 -81.5 -11.85
L -81.5 -11.9
Q -80.5 -12.35 -80.05 -13.05 -79.65 -13.75 -79.65 -14.45 -79.65 -15.15 -80 -15.8 -80.4 -16.4 -81.1 -16.8
M -82.95 -16.1
Q -82.3 -16.1 -81.9 -15.85 -81.45 -15.6 -81.25 -15.15 -81.1 -14.75 -81.1 -14.3 -81.1 -13.55 -81.55 -13.05 -82.05 -12.55 -82.8 -12.3 -83.75 -12.55 -84.3 -13.05 -84.9 -13.5 -84.9 -14.35 -84.9 -14.8 -84.65 -15.2 -84.45 -15.6 -84 -15.85 -83.6 -16.1 -82.95 -16.1
M -83.2 -11.25
Q -82.05 -10.95 -81.4 -10.35 -80.8 -9.8 -80.75 -8.8 -80.8 -7.95 -81.35 -7.4 -81.95 -6.85 -83 -6.85 -83.7 -6.85 -84.2 -7.15 -84.7 -7.45 -84.95 -7.9 -85.2 -8.4 -85.2 -8.95 -85.2 -9.75 -84.7 -10.35 -84.15 -10.95 -83.2 -11.25
M -81.25 -39.85
L -83.05 -39.85 -86.95 -28.4 -85.4 -28.4 -84.2 -32 -80.15 -32 -78.9 -28.4 -77.35 -28.4 -81.25 -39.85
M -82.45 -37.5
Q -82.35 -38.05 -82.2 -38.55
L -82.15 -38.55
Q -82.05 -38.05 -81.9 -37.55 -81.75 -37 -81.55 -36.45
L -80.45 -33.15 -83.9 -33.15 -82.8 -36.45
Q -82.6 -37 -82.45 -37.5
M -83.35 -40.7
Q -82.9 -40.3 -82.1 -40.3 -81.35 -40.3 -80.9 -40.7 -80.45 -41.15 -80.45 -41.8 -80.45 -42.45 -80.9 -42.9 -81.35 -43.3 -82.1 -43.3 -82.9 -43.3 -83.35 -42.85 -83.8 -42.45 -83.8 -41.75 -83.8 -41.15 -83.35 -40.7
M -82.15 -42.7
Q -81.75 -42.7 -81.55 -42.45 -81.3 -42.2 -81.3 -41.8 -81.3 -41.45 -81.55 -41.15 -81.75 -40.9 -82.15 -40.9 -82.5 -40.95 -82.75 -41.2 -82.95 -41.45 -82.95 -41.75 -82.95 -42.15 -82.75 -42.45 -82.55 -42.7 -82.15 -42.7
M -83.2 -62.4
Q -84 -62.4 -84.75 -62.35 -85.5 -62.25 -86.05 -62.15
L -86.05 -50.85 -84.6 -50.85 -84.6 -55.8 -83.2 -55.8
Q -82.2 -55.8 -81.65 -55.25 -81.15 -54.75 -80.9 -53.6 -80.65 -52.5 -80.45 -51.8 -80.25 -51.1 -80.15 -50.85
L -78.6 -50.85
Q -78.8 -51.2 -79 -52 -79.2 -52.8 -79.5 -54 -79.7 -54.9 -80.1 -55.5 -80.5 -56.05 -81.15 -56.3
L -81.15 -56.35
Q -80.55 -56.55 -80.05 -56.95 -79.6 -57.35 -79.3 -57.95 -79 -58.5 -79 -59.3 -79 -59.95 -79.25 -60.5 -79.45 -61.05 -79.9 -61.45 -80.45 -61.95 -81.25 -62.15 -82.05 -62.4 -83.2 -62.4
M -81.2 -57.55
Q -81.85 -56.95 -83.05 -56.95
L -84.6 -56.95 -84.6 -61.1
Q -84.4 -61.15 -84.05 -61.2 -83.65 -61.25 -83.1 -61.25 -81.95 -61.25 -81.2 -60.75 -80.5 -60.2 -80.5 -59.1 -80.5 -58.1 -81.2 -57.55
M -84.6 -84.75
L -86.05 -84.75 -86.05 -73.3 -84.6 -73.3 -84.6 -77.65 -83.5 -78.95 -79.7 -73.3 -77.95 -73.3 -82.45 -79.9 -78.3 -84.75 -80.1 -84.75 -83.6 -80.45
Q -83.85 -80.15 -84.05 -79.85 -84.3 -79.55 -84.55 -79.25
L -84.6 -79.25 -84.6 -84.75
M 67.05 82.95
Q 67.05 83.45 67.3 83.75 67.6 84 68.05 84.05 68.5 84 68.8 83.75 69.05 83.45 69.05 82.95 69.05 82.5 68.75 82.2 68.5 81.9 68.05 81.9 67.6 81.9 67.3 82.2 67.05 82.5 67.05 82.95
M 60.65 76.65
Q 60.3 77.2 60.3 77.85 60.3 78.6 60.85 79.2 61.4 79.8 62.5 80.2 63.3 80.45 63.65 80.8 64 81.15 64 81.7 64 82.2 63.6 82.55 63.25 82.9 62.4 82.9 61.85 82.9 61.3 82.7 60.8 82.55 60.45 82.3
L 60.05 83.45
Q 60.5 83.7 61.1 83.85 61.7 84 62.4 84 63.85 84 64.65 83.35 65.45 82.65 65.45 81.55 65.45 80.65 64.9 80.05 64.35 79.5 63.3 79.1 62.5 78.8 62.1 78.5 61.75 78.2 61.75 77.7 61.75 77.2 62.1 76.9 62.45 76.55 63.1 76.55 63.7 76.55 64.1 76.7 64.55 76.9 64.8 77.05
L 65.15 75.95
Q 64.8 75.75 64.3 75.6 63.75 75.45 63.15 75.45 62.25 75.45 61.6 75.75 61 76.1 60.65 76.65
M 58.2 75.6
L 56.7 75.6 56.7 80.65
Q 56.7 80.85 56.65 81.05 56.6 81.25 56.55 81.45 56.4 81.75 56.15 82.05 55.85 82.4 55.45 82.6 55.05 82.8 54.55 82.8 53.55 82.75 53.15 82.05 52.7 81.35 52.75 80.15
L 52.75 75.6 51.25 75.6 51.25 80.45
Q 51.25 81.85 51.7 82.65 52.1 83.45 52.75 83.75 53.4 84.05 54.1 84.05 54.8 84 55.35 83.8 55.9 83.55 56.25 83.2 56.6 82.85 56.8 82.5
L 56.85 82.5 56.9 83.85 58.25 83.85
Q 58.2 83.35 58.2 82.8 58.2 82.25 58.2 81.6
L 58.2 75.6
M 43.35 71.8
L 41.85 71.8 41.85 83.85 43.35 83.85 43.35 78.9
Q 43.35 78.7 43.35 78.5 43.4 78.35 43.45 78.2 43.65 77.55 44.2 77.15 44.7 76.7 45.45 76.7 46.15 76.7 46.55 77.05 47 77.35 47.15 77.9 47.35 78.45 47.35 79.15
L 47.35 83.85 48.85 83.85 48.85 78.95
Q 48.85 77.9 48.55 77.2 48.25 76.55 47.8 76.15 47.4 75.75 46.9 75.6 46.4 75.45 45.95 75.45 45.55 75.45 45.15 75.55 44.8 75.65 44.45 75.85 44.1 76.05 43.85 76.35 43.55 76.6 43.35 76.9
L 43.35 71.8
M 78 71.8
L 76.5 71.8 76.5 76.7 76.45 76.7
Q 76.2 76.2 75.55 75.8 74.95 75.45 74 75.45 72.95 75.45 72.15 76 71.3 76.5 70.8 77.5 70.3 78.5 70.3 79.85 70.3 81.1 70.75 82.05 71.25 83 72 83.5 72.8 84 73.8 84.05 74.85 84 75.55 83.55 76.25 83.1 76.6 82.4
L 76.65 82.4 76.7 83.85 78.05 83.85
Q 78.05 83.4 78 82.85 78 82.3 78 81.75
L 78 71.8
M 76.45 78.35
Q 76.45 78.5 76.5 78.65 76.5 78.85 76.5 78.95
L 76.5 80.4
Q 76.5 80.6 76.5 80.75 76.45 80.9 76.45 81.05 76.2 81.9 75.6 82.35 75 82.8 74.25 82.85 73.45 82.8 72.9 82.4 72.35 82 72.1 81.3 71.8 80.65 71.8 79.8 71.8 78.85 72.1 78.15 72.4 77.45 72.95 77.05 73.5 76.6 74.25 76.6 75.1 76.65 75.7 77.1 76.25 77.6 76.45 78.35
M 0 83.85
L 0 71.8 -1.5 71.8 -1.5 83.85 0 83.85
M 33.85 78.8
Q 33.9 77.95 33.6 77.2 33.35 76.45 32.7 75.95 32 75.45 30.75 75.45 29.95 75.45 29.25 75.65 28.55 75.85 28.05 76.15
L 28.4 77.15
Q 28.85 76.85 29.4 76.7 29.95 76.55 30.55 76.55 31.35 76.55 31.75 76.9 32.15 77.2 32.3 77.65 32.4 78.1 32.4 78.45
L 32.4 78.6
Q 30 78.6 28.75 79.4 27.45 80.15 27.45 81.7 27.45 82.3 27.75 82.8 28 83.35 28.55 83.7 29.15 84 29.95 84.05 30.85 84 31.5 83.65 32.15 83.3 32.5 82.8
L 32.55 82.8 32.65 83.85 34 83.85
Q 33.95 83.45 33.9 82.9 33.85 82.4 33.85 81.85
L 33.85 78.8
M 30.8 79.75
Q 31.6 79.6 32.45 79.65
L 32.45 81.1
Q 32.45 81.2 32.4 81.3 32.4 81.45 32.35 81.55 32.15 82.1 31.65 82.5 31.15 82.9 30.35 82.95 29.75 82.95 29.35 82.6 28.95 82.2 28.95 81.5 28.95 80.7 29.5 80.3 30 79.9 30.8 79.75
M 39.85 76.85
Q 40 76.85 40.1 76.85 40.25 76.9 40.35 76.9
L 40.35 75.5
Q 40.25 75.45 40.15 75.45 40.05 75.45 39.95 75.45 39.15 75.45 38.55 75.95 37.95 76.4 37.65 77.25
L 37.6 77.25 37.55 75.6 36.25 75.6
Q 36.25 76.2 36.3 76.85 36.3 77.45 36.3 78.2
L 36.3 83.85 37.75 83.85 37.75 79.45
Q 37.75 79.3 37.8 79.1 37.8 78.95 37.85 78.75 38 77.9 38.55 77.4 39.05 76.85 39.85 76.85
M 4 75.6
L 2.5 75.6 2.5 83.85 4 83.85 4 75.6
M 12.25 78.8
Q 12.3 77.95 12 77.2 11.75 76.45 11.1 75.95 10.4 75.45 9.15 75.45 8.35 75.45 7.65 75.65 6.95 75.85 6.45 76.15
L 6.8 77.15
Q 7.25 76.85 7.8 76.7 8.35 76.55 8.95 76.55 9.75 76.55 10.15 76.9 10.55 77.2 10.7 77.65 10.8 78.1 10.8 78.45
L 10.8 78.6
Q 8.4 78.6 7.15 79.4 5.85 80.15 5.85 81.7 5.85 82.3 6.15 82.8 6.4 83.35 6.95 83.7 7.55 84 8.35 84.05 9.25 84 9.9 83.65 10.55 83.3 10.9 82.8
L 10.95 82.8 11.05 83.85 12.4 83.85
Q 12.35 83.45 12.3 82.9 12.25 82.4 12.25 81.85
L 12.25 78.8
M 10.8 81.3
Q 10.8 81.45 10.75 81.55 10.55 82.1 10.05 82.5 9.55 82.9 8.75 82.95 8.15 82.95 7.75 82.6 7.35 82.2 7.35 81.5 7.35 80.7 7.9 80.3 8.4 79.9 9.2 79.75 10 79.6 10.85 79.65
L 10.85 81.1
Q 10.85 81.2 10.8 81.3
M 18.15 79.8
L 18.15 78.7 13.95 78.7 13.95 79.8 18.15 79.8
M 19.85 76.15
L 20.2 77.15
Q 20.65 76.85 21.2 76.7 21.75 76.55 22.35 76.55 23.15 76.55 23.55 76.9 23.95 77.2 24.1 77.65 24.2 78.1 24.2 78.45
L 24.2 78.6
Q 21.8 78.6 20.55 79.4 19.25 80.15 19.25 81.7 19.25 82.3 19.55 82.8 19.8 83.35 20.35 83.7 20.95 84 21.75 84.05 22.65 84 23.3 83.65 23.95 83.3 24.3 82.8
L 24.35 82.8 24.45 83.85 25.8 83.85
Q 25.75 83.45 25.7 82.9 25.65 82.4 25.65 81.85
L 25.65 78.8
Q 25.7 77.95 25.4 77.2 25.15 76.45 24.5 75.95 23.8 75.45 22.55 75.45 21.75 75.45 21.05 75.65 20.35 75.85 19.85 76.15
M 21.3 80.3
Q 21.8 79.9 22.6 79.75 23.4 79.6 24.25 79.65
L 24.25 81.1
Q 24.25 81.2 24.2 81.3 24.2 81.45 24.15 81.55 23.95 82.1 23.45 82.5 22.95 82.9 22.15 82.95 21.55 82.95 21.15 82.6 20.75 82.2 20.75 81.5 20.75 80.7 21.3 80.3
M 3.25 72.4
Q 2.85 72.4 2.55 72.65 2.3 72.9 2.3 73.3 2.3 73.7 2.55 73.95 2.8 74.2 3.2 74.25 3.65 74.2 3.9 73.95 4.15 73.7 4.15 73.3 4.15 72.9 3.9 72.65 3.65 72.4 3.25 72.4
M 2.55 28.2
Q 1.8 27.75 0.6 27.7 -0.35 27.75 -1.15 28.05 -1.95 28.35 -2.5 28.85
L -2.05 29.9
Q -1.65 29.55 -1.05 29.25 -0.45 29 0.3 28.95 1.15 28.95 1.6 29.25 2.1 29.55 2.3 30.05 2.5 30.55 2.5 31.1 2.5 31.95 2.05 32.75 1.6 33.6 0.7 34.6 -0.2 35.55 -1.6 36.9
L -2.8 38.05 -2.8 38.95 4.25 38.95 4.25 37.7 -0.7 37.7 -0.7 37.65 0.2 36.85
Q 1.35 35.75 2.2 34.75 3.05 33.8 3.5 32.85 4 31.95 4 30.95 4 30.15 3.65 29.4 3.3 28.65 2.55 28.2
M 12.35 29.4
Q 12 28.65 11.25 28.2 10.5 27.75 9.3 27.7 8.35 27.75 7.55 28.05 6.75 28.35 6.2 28.85
L 6.65 29.9
Q 7.05 29.55 7.65 29.25 8.25 29 9 28.95 9.85 28.95 10.3 29.25 10.8 29.55 11 30.05 11.2 30.55 11.2 31.1 11.2 31.95 10.75 32.75 10.3 33.6 9.4 34.6 8.5 35.55 7.1 36.9
L 5.9 38.05 5.9 38.95 12.95 38.95 12.95 37.7 8 37.7 8 37.65 8.9 36.85
Q 10.05 35.75 10.9 34.75 11.75 33.8 12.2 32.85 12.7 31.95 12.7 30.95 12.7 30.15 12.35 29.4
M 85.15 75.6
L 82.75 78.45
Q 82.55 78.7 82.35 78.95 82.15 79.2 82 79.4
L 81.95 79.4 81.95 71.8 80.5 71.8 80.5 83.85 81.95 83.85 81.95 80.75 82.75 79.9 85.6 83.85 87.4 83.85 83.75 79 86.95 75.6 85.15 75.6
M 4.1 -16.2
Q 4.7 -16.1 5.1 -15.85
L 5.45 -17.1
Q 5.15 -17.25 4.5 -17.4 3.8 -17.55 2.75 -17.6 0.95 -17.55 -0.4 -16.8 -1.7 -16.1 -2.45 -14.7 -3.2 -13.4 -3.25 -11.6 -3.2 -9.7 -2.5 -8.4 -1.75 -7.1 -0.5 -6.45 0.8 -5.8 2.45 -5.8 3.45 -5.8 4.25 -5.95 5.05 -6.1 5.45 -6.35
L 5.15 -7.5
Q 4.7 -7.3 4.05 -7.15 3.4 -7.05 2.7 -7.05 1.35 -7.05 0.35 -7.6 -0.65 -8.15 -1.15 -9.2 -1.7 -10.2 -1.7 -11.65 -1.65 -13.15 -1.1 -14.2 -0.55 -15.25 0.45 -15.8 1.45 -16.35 2.8 -16.35 3.5 -16.35 4.1 -16.2
M 3.3 -32.25
Q 3.3 -32.35 3.35 -32.55 3.35 -32.7 3.35 -32.95 3.35 -33.5 3.2 -34.2 3.05 -34.85 2.65 -35.45 2.3 -36.05 1.6 -36.4 0.95 -36.8 -0.05 -36.8 -1.25 -36.8 -2.1 -36.2 -2.95 -35.65 -3.45 -34.65 -3.9 -33.65 -3.9 -32.4 -3.9 -31.15 -3.4 -30.2 -2.95 -29.25 -2.05 -28.75 -1.15 -28.25 0.15 -28.25 1.1 -28.25 1.8 -28.4 2.5 -28.55 2.9 -28.75
L 2.6 -29.8
Q 2.2 -29.65 1.7 -29.5 1.15 -29.4 0.35 -29.4 -0.4 -29.4 -1.05 -29.7 -1.7 -29.95 -2.05 -30.6 -2.45 -31.25 -2.45 -32.25
L 3.3 -32.25
M 1.75 -34.35
Q 1.9 -33.8 1.9 -33.3
L -2.45 -33.3
Q -2.4 -33.85 -2.15 -34.4 -1.9 -34.95 -1.4 -35.35 -0.9 -35.7 -0.15 -35.75 0.65 -35.7 1.15 -35.3 1.6 -34.9 1.75 -34.35
M 8.8 -35.55
Q 9.5 -35.55 9.9 -35.25 10.35 -34.9 10.5 -34.35 10.7 -33.8 10.7 -33.15
L 10.7 -28.4 12.2 -28.4 12.2 -33.3
Q 12.2 -34.35 11.9 -35.05 11.6 -35.75 11.15 -36.1 10.7 -36.5 10.25 -36.65 9.75 -36.8 9.3 -36.8 8.6 -36.8 8.05 -36.6 7.55 -36.35 7.15 -36 6.75 -35.65 6.55 -35.25
L 6.45 -36.65 5.15 -36.65
Q 5.15 -36.1 5.2 -35.6 5.2 -35.05 5.2 -34.4
L 5.2 -28.4 6.7 -28.4 6.7 -33.35
Q 6.7 -33.55 6.7 -33.7 6.75 -33.9 6.8 -34.05 7 -34.7 7.5 -35.1 8.05 -35.55 8.8 -35.55
M 24.7 -37.45
Q 24.25 -38.5 23.4 -39.05 22.6 -39.6 21.45 -39.65 20.35 -39.6 19.5 -39.05 18.65 -38.55 18.15 -37.65 17.7 -36.75 17.7 -35.7 17.7 -34.75 18.1 -34 18.5 -33.25 19.25 -32.8 19.95 -32.35 20.95 -32.35 21.8 -32.35 22.45 -32.65 23.1 -32.95 23.55 -33.5
L 23.6 -33.5
Q 23.45 -32.55 23.1 -31.8 22.7 -31.05 22.15 -30.6 21.65 -30.15 21.1 -29.85 20.5 -29.6 19.85 -29.5 19.45 -29.45 19.15 -29.45 18.85 -29.45 18.65 -29.45
L 18.65 -28.25
Q 18.9 -28.2 19.25 -28.25 19.6 -28.25 20 -28.3 20.9 -28.4 21.75 -28.8 22.6 -29.15 23.25 -29.8 24.05 -30.6 24.6 -31.85 25.1 -33.15 25.15 -34.95 25.1 -36.4 24.7 -37.45
M 21.35 -38.5
Q 22.15 -38.5 22.65 -38.05 23.15 -37.6 23.4 -36.85 23.6 -36.1 23.6 -35.15 23.6 -35 23.6 -34.85 23.55 -34.7 23.5 -34.6 23.2 -34.1 22.6 -33.8 22.05 -33.45 21.3 -33.45 20.3 -33.5 19.75 -34.1 19.2 -34.75 19.15 -35.8 19.2 -36.6 19.45 -37.2 19.75 -37.8 20.2 -38.15 20.7 -38.5 21.35 -38.5
M 17.35 -59.1
L 15.85 -59.1 15.85 -50.85 17.35 -50.85 17.35 -59.1
M 19.8 -58.55
L 20.15 -57.55
Q 20.6 -57.85 21.15 -58 21.7 -58.15 22.3 -58.15 23.1 -58.15 23.5 -57.8 23.9 -57.5 24.05 -57.05 24.15 -56.6 24.15 -56.25
L 24.15 -56.1
Q 21.75 -56.1 20.5 -55.3 19.2 -54.55 19.2 -53 19.2 -52.4 19.5 -51.9 19.75 -51.35 20.3 -51 20.9 -50.7 21.7 -50.65 22.6 -50.7 23.25 -51.05 23.9 -51.4 24.25 -51.9
L 24.3 -51.9 24.4 -50.85 25.75 -50.85
Q 25.7 -51.25 25.65 -51.8 25.6 -52.3 25.6 -52.85
L 25.6 -55.9
Q 25.65 -56.75 25.35 -57.5 25.1 -58.25 24.45 -58.75 23.75 -59.25 22.5 -59.25 21.7 -59.25 21 -59.05 20.3 -58.85 19.8 -58.55
M 24.2 -53.6
Q 24.2 -53.5 24.15 -53.4 24.15 -53.25 24.1 -53.15 23.9 -52.6 23.4 -52.2 22.9 -51.8 22.1 -51.75 21.5 -51.75 21.1 -52.1 20.7 -52.5 20.7 -53.2 20.7 -54 21.25 -54.4 21.75 -54.8 22.55 -54.95 23.35 -55.1 24.2 -55.05
L 24.2 -53.6
M 1.95 -57.95
L 1.95 -59.1 -0.2 -59.1 -0.2 -61.45 -1.65 -61.05 -1.65 -59.1 -2.95 -59.1 -2.95 -57.95 -1.65 -57.95 -1.65 -53.45
Q -1.65 -52.75 -1.55 -52.2 -1.4 -51.65 -1.1 -51.3 -0.8 -51 -0.4 -50.85 0 -50.7 0.55 -50.7 0.95 -50.7 1.3 -50.75 1.65 -50.8 1.85 -50.9
L 1.8 -52
Q 1.65 -51.95 1.45 -51.95 1.2 -51.9 0.9 -51.9 0.3 -51.9 0.05 -52.3 -0.2 -52.75 -0.2 -53.5
L -0.2 -57.95 1.95 -57.95
M 8.25 -58.75
Q 7.55 -59.25 6.3 -59.25 5.5 -59.25 4.8 -59.05 4.1 -58.85 3.6 -58.55
L 3.95 -57.55
Q 4.4 -57.85 4.95 -58 5.5 -58.15 6.1 -58.15 6.9 -58.15 7.3 -57.8 7.7 -57.5 7.85 -57.05 7.95 -56.6 7.95 -56.25
L 7.95 -56.1
Q 5.55 -56.1 4.3 -55.3 3 -54.55 3 -53 3 -52.4 3.3 -51.9 3.55 -51.35 4.1 -51 4.7 -50.7 5.5 -50.65 6.4 -50.7 7.05 -51.05 7.7 -51.4 8.05 -51.9
L 8.1 -51.9 8.2 -50.85 9.55 -50.85
Q 9.5 -51.25 9.45 -51.8 9.4 -52.3 9.4 -52.85
L 9.4 -55.9
Q 9.45 -56.75 9.15 -57.5 8.9 -58.25 8.25 -58.75
M 4.5 -53.2
Q 4.5 -54 5.05 -54.4 5.55 -54.8 6.35 -54.95 7.15 -55.1 8 -55.05
L 8 -53.6
Q 8 -53.5 7.95 -53.4 7.95 -53.25 7.9 -53.15 7.7 -52.6 7.2 -52.2 6.7 -51.8 5.9 -51.75 5.3 -51.75 4.9 -52.1 4.5 -52.5 4.5 -53.2
M 17.25 -62.05
Q 17 -62.3 16.6 -62.3 16.2 -62.3 15.9 -62.05 15.65 -61.8 15.65 -61.4 15.65 -61 15.9 -60.75 16.15 -60.5 16.55 -60.45 17 -60.5 17.25 -60.75 17.5 -61 17.5 -61.4 17.5 -61.8 17.25 -62.05
M 13.35 -62.9
L 11.85 -62.9 11.85 -50.85 13.35 -50.85 13.35 -62.9
M 0.95 -81.7
Q 0.85 -81.7 0.75 -81.7 -0.05 -81.7 -0.65 -81.2 -1.25 -80.75 -1.55 -79.9
L -1.6 -79.9 -1.65 -81.55 -2.95 -81.55
Q -2.95 -80.95 -2.9 -80.3 -2.9 -79.7 -2.9 -78.95
L -2.9 -73.3 -1.45 -73.3 -1.45 -77.7
Q -1.45 -77.85 -1.4 -78.05 -1.4 -78.2 -1.35 -78.4 -1.2 -79.25 -0.65 -79.75 -0.15 -80.3 0.65 -80.3 0.8 -80.3 0.9 -80.3 1.05 -80.25 1.15 -80.25
L 1.15 -81.65
Q 1.05 -81.7 0.95 -81.7
M 9.85 -81.15
Q 9.6 -80.95 9.4 -80.65 9.15 -80.4 8.95 -80.05
L 8.9 -80.05
Q 8.65 -80.8 8.05 -81.25 7.45 -81.7 6.6 -81.7 5.9 -81.7 5.4 -81.5 4.9 -81.3 4.55 -80.95 4.25 -80.6 4 -80.2
L 3.95 -80.2 3.9 -81.55 2.6 -81.55
Q 2.6 -81 2.65 -80.5 2.65 -79.95 2.65 -79.3
L 2.65 -73.3 4.1 -73.3 4.1 -78.25
Q 4.1 -78.45 4.15 -78.65 4.15 -78.85 4.2 -79 4.35 -79.4 4.6 -79.7 4.85 -80.05 5.25 -80.25 5.6 -80.5 6.05 -80.5 6.95 -80.45 7.35 -79.85 7.8 -79.25 7.8 -78.25
L 7.8 -73.3 9.25 -73.3 9.25 -78.4
Q 9.25 -78.6 9.3 -78.8 9.3 -79 9.35 -79.15 9.55 -79.7 10.05 -80.1 10.5 -80.45 11.15 -80.5 12.05 -80.5 12.5 -79.8 12.95 -79.15 12.95 -77.95
L 12.95 -73.3 14.4 -73.3 14.4 -78.15
Q 14.35 -79.55 13.95 -80.35 13.5 -81.1 12.85 -81.4 12.25 -81.75 11.7 -81.7 11.1 -81.7 10.65 -81.55 10.25 -81.4 9.85 -81.15
M 32.2 -81.55
L 30.7 -81.55 30.7 -73.3 32.2 -73.3 32.2 -81.55
M 31.45 -84.75
Q 31.05 -84.75 30.75 -84.5 30.5 -84.25 30.5 -83.85 30.5 -83.45 30.75 -83.2 31 -82.95 31.4 -82.9 31.85 -82.95 32.1 -83.2 32.35 -83.45 32.35 -83.85 32.35 -84.25 32.1 -84.5 31.85 -84.75 31.45 -84.75
M 21.05 -79.5
Q 21.15 -79.05 21.15 -78.7
L 21.15 -78.55
Q 18.75 -78.55 17.5 -77.75 16.2 -77 16.2 -75.45 16.2 -74.85 16.5 -74.35 16.75 -73.8 17.3 -73.45 17.9 -73.15 18.7 -73.1 19.6 -73.15 20.25 -73.5 20.9 -73.85 21.25 -74.35
L 21.3 -74.35 21.4 -73.3 22.75 -73.3
Q 22.7 -73.7 22.65 -74.25 22.6 -74.75 22.6 -75.3
L 22.6 -78.35
Q 22.65 -79.2 22.35 -79.95 22.1 -80.7 21.45 -81.2 20.75 -81.7 19.5 -81.7 18.7 -81.7 18 -81.5 17.3 -81.3 16.8 -81
L 17.15 -80
Q 17.6 -80.3 18.15 -80.45 18.7 -80.6 19.3 -80.6 20.1 -80.6 20.5 -80.25 20.9 -79.95 21.05 -79.5
M 21.1 -75.6
Q 20.9 -75.05 20.4 -74.65 19.9 -74.25 19.1 -74.2 18.5 -74.2 18.1 -74.55 17.7 -74.95 17.7 -75.65 17.7 -76.45 18.25 -76.85 18.75 -77.25 19.55 -77.4 20.35 -77.55 21.2 -77.5
L 21.2 -76.05
Q 21.2 -75.95 21.15 -75.85 21.15 -75.7 21.1 -75.6
M 26.85 -83.9
L 25.4 -83.5 25.4 -81.55 24.1 -81.55 24.1 -80.4 25.4 -80.4 25.4 -75.9
Q 25.4 -75.2 25.5 -74.65 25.65 -74.1 25.95 -73.75 26.25 -73.45 26.65 -73.3 27.05 -73.15 27.6 -73.15 28 -73.15 28.35 -73.2 28.7 -73.25 28.9 -73.35
L 28.85 -74.45
Q 28.7 -74.4 28.5 -74.4 28.25 -74.35 27.95 -74.35 27.35 -74.35 27.1 -74.75 26.85 -75.2 26.85 -75.95
L 26.85 -80.4 29 -80.4 29 -81.55 26.85 -81.55 26.85 -83.9
M 58.4 -81.3
Q 57.75 -81.7 56.75 -81.7 55.55 -81.7 54.7 -81.1 53.85 -80.55 53.35 -79.55 52.9 -78.55 52.9 -77.3 52.9 -76.05 53.4 -75.1 53.85 -74.15 54.75 -73.65 55.65 -73.15 56.95 -73.15 57.9 -73.15 58.6 -73.3 59.3 -73.45 59.7 -73.65
L 59.4 -74.7
Q 59 -74.55 58.5 -74.4 57.95 -74.3 57.15 -74.3 56.4 -74.3 55.75 -74.6 55.1 -74.85 54.75 -75.5 54.35 -76.15 54.35 -77.15
L 60.1 -77.15
Q 60.1 -77.25 60.15 -77.45 60.15 -77.6 60.15 -77.85 60.15 -78.4 60 -79.1 59.85 -79.75 59.45 -80.35 59.1 -80.95 58.4 -81.3
M 54.65 -79.3
Q 54.9 -79.85 55.4 -80.25 55.9 -80.6 56.65 -80.65 57.45 -80.6 57.95 -80.2 58.4 -79.8 58.55 -79.25 58.7 -78.7 58.7 -78.2
L 54.35 -78.2
Q 54.4 -78.75 54.65 -79.3
M 42.15 -77.5
Q 42.1 -78.75 41.65 -79.7 41.15 -80.65 40.25 -81.15 39.35 -81.7 38.15 -81.7 37.05 -81.7 36.1 -81.2 35.2 -80.65 34.65 -79.7 34.1 -78.75 34.1 -77.35 34.1 -76.05 34.65 -75.1 35.15 -74.15 36 -73.65 36.9 -73.15 38.05 -73.1 39.05 -73.1 40 -73.55 40.9 -74.05 41.5 -75 42.1 -75.95 42.15 -77.5
M 36.8 -74.65
Q 36.25 -75.05 35.95 -75.75 35.6 -76.5 35.6 -77.4 35.6 -78.2 35.85 -78.9 36.15 -79.65 36.7 -80.1 37.25 -80.55 38.15 -80.6 39 -80.55 39.55 -80.1 40.1 -79.6 40.35 -78.85 40.6 -78.15 40.6 -77.45 40.6 -76.5 40.25 -75.8 39.95 -75.05 39.4 -74.65 38.85 -74.25 38.1 -74.25 37.35 -74.25 36.8 -74.65
M 46.9 -81.5
Q 46.4 -81.25 46 -80.9 45.6 -80.55 45.4 -80.15
L 45.3 -81.55 44 -81.55
Q 44 -81 44.05 -80.5 44.05 -79.95 44.05 -79.3
L 44.05 -73.3 45.55 -73.3 45.55 -78.25
Q 45.55 -78.45 45.55 -78.6 45.6 -78.8 45.65 -78.95 45.85 -79.6 46.35 -80 46.9 -80.45 47.65 -80.45 48.35 -80.45 48.75 -80.15 49.2 -79.8 49.35 -79.25 49.55 -78.7 49.55 -78.05
L 49.55 -73.3 51.05 -73.3 51.05 -78.2
Q 51.05 -79.25 50.75 -79.95 50.45 -80.65 50 -81 49.55 -81.4 49.1 -81.55 48.6 -81.7 48.15 -81.7 47.45 -81.7 46.9 -81.5
M 68.9 -74.95
Q 68.65 -75.25 68.2 -75.25 67.75 -75.25 67.45 -74.95 67.2 -74.65 67.2 -74.15 67.2 -73.7 67.45 -73.4 67.75 -73.15 68.2 -73.1 68.65 -73.15 68.95 -73.4 69.2 -73.7 69.2 -74.15 69.2 -74.65 68.9 -74.95
M 66.05 -81.65
Q 65.95 -81.7 65.85 -81.7 65.75 -81.7 65.65 -81.7 64.85 -81.7 64.25 -81.2 63.65 -80.75 63.35 -79.9
L 63.3 -79.9 63.25 -81.55 61.95 -81.55
Q 61.95 -80.95 62 -80.3 62 -79.7 62 -78.95
L 62 -73.3 63.45 -73.3 63.45 -77.7
Q 63.45 -77.85 63.5 -78.05 63.5 -78.2 63.55 -78.4 63.7 -79.25 64.25 -79.75 64.75 -80.3 65.55 -80.3 65.7 -80.3 65.8 -80.3 65.95 -80.25 66.05 -80.25
L 66.05 -81.65
M 68.2 -81.25
Q 67.75 -81.25 67.45 -80.95 67.2 -80.65 67.2 -80.15 67.2 -79.7 67.45 -79.4 67.75 -79.1 68.2 -79.1 68.65 -79.1 68.95 -79.4 69.2 -79.7 69.2 -80.15 69.2 -80.65 68.9 -80.95 68.65 -81.25 68.2 -81.25 Z"/>
</g>
</defs>

<g transform="matrix( 1, 0, 0, 1, 117.35,119.45) ">
<g transform="matrix( 1, 0, 0, 1, 0,0) ">
<use xlink:href="#Symbol_1_0_Layer0_0_FILL"/>
</g>
</g>
</svg>
