<?xml version="1.0" encoding="utf-8"?>
<!-- Generator: Adobe Illustrator 18.1.1, SVG Export Plug-In . SVG Version: 6.00 Build 0)  -->
<svg version="1.1" id="Layer_1" xmlns="http://www.w3.org/2000/svg" xmlns:xlink="http://www.w3.org/1999/xlink" x="0px" y="0px"
	 viewBox="0 95 1024 579" enable-background="new 0 95 1024 579" xml:space="preserve">
<g>
	<path fill="#F5F2E5" d="M301.4,100c8.9,0,17.7,0,26.6,0c6.6,4.4,14.2,1.3,21.3,4c12.9,4.9,21.3,11.1,17.7,27.5
		c-4,16.4,8,35,25.7,44.8c16.4,8.9,29.7,4,41.7-8c6.2-6.2,12.4-12.4,20.4-17.3c21.3-12.4,45.2-9.3,58.5,11.1
		c11.1,16.4,23.1,20.8,41.2,14.6c15.1-5.3,29.3-2.2,41.7,7.5c8,5.8,16,10.6,26.6,8.9c38.1-8,74.9,3.5,111.7,10.2
		c20.4,3.5,40.8,5.3,60.7,12c11.1,4,21.7-0.9,31.5-6.6c10.6-6.2,21.7-12.9,34.1-15.5c26.6-5.8,47.4,7.1,53.2,33.2
		c2.7,13.7,7.5,26.6,12.9,39.5c9.3,21.3,14.6,43.9,0.4,65.6c-6.2,9.8-5.8,19.5-0.4,29.3c4,7.1,8,14.2,9.3,22.2
		c2.7,14.2,12.4,20.8,25.3,24.8c12,3.5,23.5,8.9,35.5,12.9c14.2,4.9,23.9,13.7,27.5,28.8c0,5.8,0,12,0,17.7c-4,17.3-16.8,26.2-31,35
		c-63.4,40.3-53.6,32.4-40.8,96.6c4.4,21.7,13.7,45.2-7.1,62.1c-19.1,15.1-40.8,5.3-60.7-1.8c-43-15.5-87.3-27-132.1-37.7
		c-17.7-4-33.7-11.1-44.8-26.6c-7.1-9.8-16.8-14.2-28.4-15.5c-80.7-10.2-161.4-17.3-242.5-9.3c-30.1,3.1-60.3,5.3-90,9.3
		c-13.3,1.8-23.9,6.2-31,18.2c-7.5,12.9-19.5,19.5-33.7,23.1C231,633.2,179.5,646.5,129,663.8c-6.2,2.2-12.9,2.7-19.5,3.5
		c-30.1,3.5-46.5-14.2-41.2-43.9c3.1-18.2,7.5-36.3,13.3-53.6c6.6-21.3,0-35.5-18.2-47C49.2,514,35,504.2,20.8,494.9
		C6.6,486.1-1.3,473.7,0,456.4c1.3-17.7,12-27.9,27-34.6c11.5-5.3,23.9-8,35.5-12.9c22.2-8.9,30.6-24.8,19.1-45.7
		c-16-28.4-10.6-50.5,12-70.9c7.5-7.1,9.8-16,10.2-26.2c1.3-59,35.5-93.1,86.4-113.9c14.2-5.8,28.8-11.1,44.8-12.4
		c22.2,1.8,22.2,1.8,16.8-19.1C262.4,99.5,284.6,106.2,301.4,100z"/>
	<path display="none" fill="#FFFFFF" d="M239.4,148.7c-47.4,7.5-89.1,24.4-115.7,67.8c-3.5,6.2-8,13.3-8.4,20.4
		c-3.5,31-6.6,61.2-33.7,83.8c-8.9,7.5-4.9,22.2,1.8,32.8c20.8,34.1,13.7,53.2-24.4,66.1c-10.6,3.5-21.3,6.6-31.5,10.6
		c-13.7,5.3-22.2,15.1-22.6,29.7c-0.9,13.7,6.2,23.5,18.2,30.6c17.7,10.6,35,21.7,52.3,33.2c14.2,9.8,22.2,22.2,15.1,41.7
		c-7.1,19.9-10.6,41.2-15.1,62.1c-5.8,27.5,13.7,45.7,39.5,35.9c55.9-20.8,113.5-35.9,171.6-49.6c8-1.8,18.2-4.9,19.9-12.4
		c8.9-32.4,36.3-28.8,59-31c57.6-6.2,115.7-11.5,173.8-9.8c50.5,1.8,101.1,7.5,151.2,13.3c10.2,1.3,16.8,7.1,20.8,14.6
		c8.4,16,22.2,21.7,39,25.7c53.6,12.9,107.3,26.2,158.3,47.9c12,5.3,23.9,4.4,32.8-4.4c9.3-8.9,12.9-20.8,9.3-34.6
		c-4.9-19.9-9.3-39.9-14.2-59.8c-4.4-18.6,0.4-31.5,16.8-43.4c23.9-16.8,52.8-27,70.5-52.3c0,62.9-0.4,125.5,0.4,188.4
		c0,13.3-2.7,16-16,16c-316.1-0.4-632.6-0.4-948.6-0.4c-21.3,0-51.4,8.4-62.1-2.2s-2.2-40.3-2.2-62.1c0-164,0-328-0.4-492.1
		c0-13.3,2.7-16,16-16c97.5,1.3,194.2,0.9,290.8,0.9c-16,8-35,9.3-48.8,22.2C252.7,133.2,252.7,144.3,239.4,148.7z"/>
	<path display="none" fill="#FFFFFF" d="M1024,450.2c-15.1-23.5-41.2-27-64.3-35c-16.4-5.8-30.6-10.6-30.1-31.9
		c0-5.8-4.4-12.9-8.4-17.7c-9.3-12.9-10.2-23.5,0.4-37.7c16-21.3,6.6-43.9-4-64.3c-4.9-9.3-8.9-17.7-9.3-28.4
		c-2.2-31-22.6-43.4-52.3-34.1c-8,2.7-15.1,5.8-21.7,10.6c-16.4,11.5-32.8,10.6-53.6,7.5c-53.6-8-106.4-31.9-162.2-17.7
		c-8.9,2.2-15.5-1.8-21.7-8c-12.4-13.7-27-16.8-43.9-9.3c-20.4,8.9-34.6,4.4-43.9-17.7c-8-19.1-35-22.6-53.6-8.9
		c-4.9,3.5-8.9,8-12.9,12.4c-12,14.6-26.6,25.3-45.7,17.3c-21.7-8.9-44.3-29.7-38.6-48.8c10.6-35.5-17.3-28.4-30.1-38.6
		c226.1,0,452.2,0,678.2-0.4c15.1,0,18.2,3.1,18.2,18.2C1023.6,228.5,1024,339.3,1024,450.2z"/>
	<path fill="#020202" d="M102,637.7c7.5-30.6,12.4-57.6,21.3-83.3c7.1-21.3,2.2-33.2-16.8-44.3c-25.3-14.2-48.3-31.9-74.5-49.2
		c27.9-13.7,56.3-21.7,84.7-29.7c15.1-4.4,19.5-10.6,12.4-24.4c-8.9-16.4-1.8-22.2,14.2-26.6c246-70.5,492.5-70.9,738.5,0
		c15.1,4.4,24.4,8.9,15.1,26.2c-6.2,12-3.5,19.1,11.1,23.1c28.4,8,55.9,18.2,88.2,28.8c-25.7,17.3-47.4,34.1-71.4,47.4
		c-23.5,12.9-29.3,27.9-20.4,53.2c8.4,23.9,12.9,49.6,19.5,77.6c-59.4-20.4-115.3-37.7-172.9-50.5c-8-1.8-11.5-5.3-8-13.7
		c6.2-14.2-1.8-17.3-13.7-19.5c-144.5-28.4-289-28.4-433.5,0c-13.7,2.7-20.4,6.2-13.3,21.3c3.5,7.1,0.9,12-8,14.2
		C217.2,599.6,160.9,616.8,102,637.7z"/>
	<path fill="#0F0F0F" d="M797.9,268.4c22.6-17.7,48.3-29.7,73.1-43c0.9,1.8,2.2,3.5,3.1,5.3c-20.8,16-42.1,31.9-62.5,48.8
		c-4.9,4-15.5,6.2-10.2,17.3c1.8,0.4,2.7,0.9,2.2,1.8c-0.4,0.9-0.9,1.8-1.3,1.8c-6.2,9.3-15.1,6.2-20.4,1.8
		c-8-6.6,0.4-12.9,3.5-19.1C788.6,276.4,792.6,272,797.9,268.4z"/>
	<path fill="#121211" d="M452.2,228.1c-12.4,7.1-14.2,21.7-22.2,31.9c-5.8,5.8,4,11.5,0.4,17.7c-21.7,9.3-19.9-3.5-16.8-17.7
		c0.4-7.1,5.3-12,7.5-18.2c12-23.9,34.1-38.1,50.5-58.5c2.7,18.2-14.2,25.7-18.2,40.3C455.3,225.4,454.8,226.7,452.2,228.1z"/>
	<path fill="#0F0F10" d="M193.3,303c23.9-32.4,31.5-73.1,55-105.1c4,1.8,6.2,5.3,7.5,9.8c1.3,9.8-4.4,17.7-7.5,26.6
		c-1.8,4.9-4.9,8.9-8.9,12.4c-7.5,19.1-16,38.1-31.9,52.3c-4.4,4-8.4,8.9-15.1,4H193.3z"/>
	<path fill="#CDCAC0" d="M242.9,233.4c3.1-8.9,6.2-17.7,9.3-26.6c-1.8-5.3,1.3-9.3,3.5-13.7c4.4-3.5,4.4-11.1,11.1-13.3
		c3.5,1.3,6.6,3.5,7.5,7.5c15.1,16.8,9.3,31.5-4,45.7c-3.1,1.8-6.2,3.1-9.8,4.9C246.5,246.7,245.1,246.7,242.9,233.4z"/>
	<path fill="#1A1918" d="M242.9,233.4c2.2,17.7,12.4,2.7,18.2,4.4c3.1,11.1,14.6,19.5,7.5,33.2c-3.1,6.6-10.2,16.8-3.1,22.2
		c9.8,7.1,12.9-8.4,22.6-11.1c-1.8,8.4-8,12.4-13.3,16.4c-6.6,5.3-14.2,8.4-22.2,3.1c-7.5-4.9-5.8-12.9-4.4-19.9
		c1.3-5.8,3.5-11.1,5.8-16.8c7.1-16.4,2.2-22.2-15.1-18.6C239.4,241.8,238.5,236.9,242.9,233.4z"/>
	<path fill="#1A1A19" d="M620.2,268.4c-11.5,8.4-23.9,17.3-31-4c-3.5-9.8-8.9,4-12-3.1c17.7-14.2,33.7-32.8,60.7-31
		c1.8,1.3,2.2,3.1,2.2,5.3c-3.5,12.9-22.6,14.6-20.8,30.6C619.7,267.1,619.7,267.5,620.2,268.4z"/>
	<path fill="#191817" d="M664.9,233c4.9-4.9,10.2-5.8,22.2,0.4c-11.5,9.3-22.2,16-30.6,24.8c-17.3,17.7-16.8,18.2-35.9,10.2l0.4,0.4
		c3.5-18.2,19.1-25.3,32.4-34.6C657,233,661.4,235.6,664.9,233z"/>
	<path fill="#E4E2D6" d="M500.5,264.4c-2.7,1.3-5.3,2.7-8,4c-7.5,3.1-15.5,14.2-21.7-1.3c0-16,11.1-25.3,21.3-35.5
		c6.2-5.3,14.6-7.1,21.3-11.5c3.1,0.9,6.6,1.8,9.8,2.7C521.3,240,511.6,252.5,500.5,264.4z"/>
	<path fill="#161616" d="M843.1,304.8c0,2.7-0.4,5.3-0.4,8c0.4,4.4-0.4,7.1-5.8,5.3c-11.1-2.2-12.4-9.8-11.5-19.1
		c-3.1-4.9,2.2-6.2,4-8.9c15.1-9.3,31.5-13.7,48.8-12.9c1.8,14.2-12,14.6-18.6,21.3C854.7,303.4,847.1,299,843.1,304.8z"/>
	<path fill="#161615" d="M709.7,238.3c17.7-6.6,22.6,0.9,18.2,17.3c-4,4-7.1,8.4-10.2,12.9c-12.4,4.4-21.3,18.2-37.7,12.9
		c5.3-16,22.2-21.3,29.3-34.6C706.6,243.6,706.6,240.9,709.7,238.3z"/>
	<path fill="#181817" d="M310.3,295c-22.2,2.2-10.6-13.3-11.5-22.2c6.6-5.8,5.8-15.5,11.5-21.7c6.2-7.5,12.9-13.3,25.7-13.7
		c-4.9,18.2-20.4,30.6-21.3,48.8C317.8,291.5,313,292.8,310.3,295z"/>
	<path fill="#191918" d="M772.2,245.8c13.7,5.8,4.4,12,0,17.7c-5.8,8-18.6,10.2-18.6,22.6c-4.4,8.4-11.1,7.5-18.6,4.9
		c-8.4-9.8,1.8-13.7,5.8-19.5s13.3-7.1,12.4-16.4C758.9,251.1,763.8,244.9,772.2,245.8z"/>
	<path fill="#141414" d="M391,229.8c-1.3,10.6,3.1,21.3,0,32.4c-4,15.1-10.6,24.4-27,23.5c-1.3-1.3-2.2-3.5-2.7-5.3
		c3.1-12,9.8-22.2,12-34.1c2.7-4.4,5.8-8.4,8-12.9c2.7-3.5,5.8-7.1,8.4-10.6C391.9,224.5,392.3,226.7,391,229.8z"/>
	<path fill="#2D2C2A" d="M122.8,321.2c15.5-8,32.4-6.6,48.8-7.1c9.3-0.4,17.3-0.9,21.3-11.1h-0.4c4.4,6.2,8.9,12,17.7,12.9
		c-13.7,9.8-28.4,7.1-41.7,9.8c-10.2-1.3-19.9,2.7-30.1,3.5c-2.2,0-4.4,0-6.2-0.4C128.1,327.4,124.6,325.6,122.8,321.2z"/>
	<path fill="#0C0C0C" d="M496.9,233.8c-7.5,10.2-15.5,20.4-23.1,30.1c-3.5,2.7,0.4,12.4-9.3,9.8c-7.5-4.4-4-11.5-4.9-17.7
		c0-3.1,0-5.8,1.8-8.9c7.5-8,16-14.2,26.2-18.6C493.4,225.9,497.4,225.4,496.9,233.8z"/>
	<path fill="#1E1E1C" d="M160.9,225c-5.8,19.9-13.3,39.9,0,61.2c-25.7-8.4-27.5-34.1-6.2-62.1C156.9,221.9,159.1,222.3,160.9,225z"
		/>
	<path fill="#111111" d="M582,233.4c-0.4,14.6-23.9,19.9-16.8,38.6c0.4,0.4-10.6,4-16,1.8c-8-3.1-5.8-9.8-2.7-14.6
		c7.1-11.5,17.3-19.9,28.8-26.2C578.1,231.2,580.3,231.2,582,233.4z"/>
	<path fill="#2F2D2B" d="M500.5,264.4c1.3-17.3,14.2-28.4,23.1-41.2C535.5,251.6,531.5,258.7,500.5,264.4z"/>
	<path fill="#222320" d="M310.3,295c1.3-3.1,3.1-5.8,4.4-8.9c11.5-3.5,17.3-13.3,23.9-22.2c5.3-7.5,12-10.6,20.8-9.3
		c7.1,12-6.6,19.1-7.1,29.3c-1.8,2.7-3.5,4.9-7.1,2.7c-6.2-4.9-11.5-12.4-19.1-1.3C322.7,290.6,317.4,295,310.3,295z"/>
	<path fill="#E3E0D5" d="M349.8,282.6c-7.1-12.9,12.9-16.4,9.8-27.9c1.8-1.3,3.5-3.1,4.9-4.4c4.9-2.7,8.4-8.4,14.6-7.5
		c-0.9,14.6-6.6,27.5-15.1,39.5C359.1,285.7,354.6,286.1,349.8,282.6z"/>
	<path fill="#141414" d="M270.9,233c5.3-15.1,10.2-29.7,4-45.7c11.5,0.4,14.6,8.4,15.1,17.7C289.9,218.3,285,229.4,270.9,233z"/>
	<path display="none" fill="#F9F7EF" d="M239.4,148.7c4.4-8.9,8.9-17.7,13.3-26.6c3.1,5.8,16,4,12,14.6
		C260.2,148.3,250,149.6,239.4,148.7z"/>
	<path fill="#706F69" d="M256.2,185.5c-15.1-4.9-29.3,0-43.4,3.1c-2.7-1.3-2.7-3.1-0.4-4.9c9.8-5.8,20.4-7.5,31.5-7.5
		c4,3.1,10.2-0.4,14.2,4C258.9,182.4,258,184.2,256.2,185.5z"/>
	<path fill="#EAE8DC" d="M133,325.2c1.3,0.4,2.7,0.4,4.4,0.4c6.6-1.3,13.7-5.8,18.6,3.1c-1.3,2.2-2.7,4-4,6.2
		c-8.4,0.4-16.8,2.7-25.3,4c-5.8,0-11.5-0.4-12-8.4C119.2,323.8,125.5,322.5,133,325.2z"/>
	<path fill="#242422" d="M882.1,277.3c8,0,16.8,3.1,14.6,11.1c-2.7,10.2-13.3,12-23.5,11.1c-1.3-1.8-1.8-3.5-1.3-5.3
		C874.6,288.4,880.8,284.4,882.1,277.3z"/>
	<path fill="#62615D" d="M420.7,241.4c-0.9,6.6,0,14.2-7.5,18.2c-6.6-0.4-8,11.1-19.1,6.6C403.8,257.3,412.3,249.4,420.7,241.4z"/>
	<path fill="#E7E3D8" d="M882.1,277.3c8,11.1-3.1,13.3-8.4,18.2c-6.2,4-12,4.4-17.7-0.9c4-10.2,18.6-6.6,21.7-17.3
		C879,277.3,880.8,277.3,882.1,277.3z"/>
	<path fill="#666561" d="M856,295c5.8,0.4,12,0.4,17.7,0.9c0.4,1.3,0,2.7-0.4,4c-8.9,8.4-20.4,1.3-30.6,4.9
		C844.9,298.1,853.3,300.3,856,295z"/>
	<path fill="#252523" d="M344.9,210.3c-4.4,0-4.4-4-4.4-6.2c0-7.1,4-10.6,11.1-10.6c3.5,0,5.8,2.2,4.9,5.3
		C354.6,204.6,350.6,208.6,344.9,210.3z"/>
	<path fill="#43423F" d="M735,291.5c6.6,0.9,12.4-2.2,18.6-4.9c5.3-0.9,10.6-2.2,16-3.1C759.4,292.4,749.2,301.2,735,291.5z"/>
	<path fill="#7C7B75" d="M115.3,330.5c2.2,8,8.9,4.4,13.7,5.3c2.2,0.9,5.3,0.9,5.8,4.4c-22.2,6.2-24.8,5.3-24.4-9.8
		C112.2,329.1,113.5,329.1,115.3,330.5z"/>
	<path fill="#3E3D3B" d="M582,233.4c-2.2-0.4-4.4-0.4-6.6-0.9c-1.8-7.1-7.5-5.3-12-4.9c-17.3,1.8-8.4-6.6-5.3-12.9
		c3.5,0.9,6.6,4,10.2,4.4C572.3,224.5,585.1,221.4,582,233.4z"/>
	<path fill="#343331" d="M772.2,245.8c-5.8,4.4-9.8,12-19.1,9.3C750.5,245.8,754.9,243.6,772.2,245.8z"/>
	<path fill="#5C5A56" d="M664.9,233c-2.2,4-5.8,3.5-9.8,4c-5.8-0.9-13.3,2.7-17.3-4.9l-0.9-0.9l0.9-0.9
		C648.1,218.3,656.1,229,664.9,233z"/>
	<path fill="#696762" d="M829,290.6c-1.3,3.1-2.7,5.8-4,8.9c-7.5,0.4-14.6,6.2-22.2,0.9c-1.3-0.9-1.8-1.8-0.9-3.1
		C810.8,294.6,819.6,292.4,829,290.6z"/>
	<path fill="#74746F" d="M212.8,183.7c0,1.8,0,3.1,0.4,4.9c-6.2,3.1-12.4,6.2-23.5,11.5C196.4,185.5,204.4,184.6,212.8,183.7z"/>
	<path fill="#95938B" d="M155.6,329.1c-5.3-4.9-12.4-0.9-18.6-3.1c10.6-3.5,21.3-6.6,31.9,0C164.5,327.4,160.5,330.9,155.6,329.1z"
		/>
	<path fill="#474643" d="M464.6,273.7c3.1-3.1,6.2-6.2,9.3-9.8c2.2,17.7,13.3-0.4,18.6,4.4C485,279.9,475.7,280.4,464.6,273.7z"/>
	<path fill="#666560" d="M310.7,251.1c-0.9,8.9-0.4,18.2-11.5,21.7C295.7,262.2,303.2,256.4,310.7,251.1z"/>
	<path fill="#43423F" d="M496.9,233.8c-1.3-4.9-5.8-4.4-9.3-4.9c7.5-6.6,16-9.3,25.7-8.4C510.2,227.2,503.6,230.3,496.9,233.8z"/>
	<path fill="#9E9C95" d="M717.7,268.4c-7.1-12.4,2.2-12,10.2-12.9C728.8,263.1,727,268.4,717.7,268.4z"/>
	<path fill="#464542" d="M836.9,318.1c1.8-1.8,3.5-3.5,5.8-5.3c6.6,4.4,14.6,3.5,22.2,4c0.9,0.9,1.3,1.8,0.9,2.7
		c-0.4,0.9-0.4,1.3-0.9,1.3C855.1,321.6,845.4,325.2,836.9,318.1z"/>
	<path fill="#5C5B57" d="M797.9,268.4c-2.7,5.8-4.4,12.4-12.4,13.7C777.1,266.6,794.4,273.7,797.9,268.4z"/>
	<path fill="#75756F" d="M349.8,282.6c4.9,0,9.3-0.4,14.2-0.4c0.9,1.3,0.9,2.2-0.4,3.5c-5.8,8-12,6.2-18.2,1.3
		C346.7,285.7,348,284.4,349.8,282.6z"/>
	<path fill="#474743" d="M379,243.1c-4.9,2.7-9.8,4.9-14.6,7.5c3.5-8,9.8-13.3,16.8-17.7C380.3,236.1,379.9,239.6,379,243.1z"/>
	<path fill="#71706A" d="M134.8,340.7c-1.8-1.3-4-3.1-5.8-4.4c7.5,1.3,14.6-8.4,22.6-0.9C147.2,340.7,141,339.8,134.8,340.7z"/>
	<path fill="#010101" d="M568.3,219.2c-7.5,7.5-8.9,1.3-10.2-4.4c3.1-5.8,8-3.5,12.4-2.7C569.6,214.3,569.2,216.5,568.3,219.2z"/>
	<path fill="#7D7B76" d="M709.7,238.3c0,2.7,0,5.3-0.4,8.4c-4.4-1.8-11.5,6.2-12.9-0.4C695.5,238.7,704.4,239.6,709.7,238.3z"/>
	<path fill="#4D4C49" d="M864.4,321.2c0-1.3,0-2.7,0-4c5.3-4.4,11.5-4,17.7-5.3c1.3,1.3,1.8,2.2,1.3,3.5c-0.4,1.3-0.9,1.8-1.3,1.8
		C876.4,318.5,870.2,319.8,864.4,321.2z"/>
	<path fill="#2E2E2C" d="M430,277.3c-2.7-5.8-8.4-11.5-0.4-17.7c0.4,3.1-2.2,7.1,1.8,9.3C444.6,274.6,435.8,275.5,430,277.3z"/>
	<path display="none" fill="#797871" d="M294.8,158.5c0,3.1-3.1,4-5.8,4.9c-3.1,1.3-6.2,0.9-5.3-3.1c0.4-2.2,4-4,6.2-4.9
		C292.1,154.5,294.3,155.4,294.8,158.5z"/>
	<path fill="#3F3E3C" d="M256.2,185.5c0.4-1.8,0.9-3.5,1.3-5.3c2.7-2.7,5.3-2.7,7.5,0.4l1.8-0.9c-1.3,5.8-4,10.2-8.4,13.7
		c-2.2,1.8-4,1.8-6.2-0.4C254,190.4,254.9,187.7,256.2,185.5z"/>
	<path fill="#121211" d="M160.9,225c-2.2-0.4-4.4-0.4-6.6-0.9c4-6.6,7.1-13.7,18.2-13.3C170.7,217.9,167.1,222.3,160.9,225z"/>
	<path fill="#4F4E4A" d="M452.2,228.1c0.4-1.8,0.9-3.1,0.9-4.9c5.3,0.9,11.1-4,16.4,1.3C464.6,231.2,457.9,228.1,452.2,228.1z"/>
	<path fill="#464542" d="M461.5,247.1c0.9,3.1,4,6.6-1.8,8.9c-1.8,2.2-5.8,5.8-6.6,3.1C450.8,252.5,457,249.8,461.5,247.1z"/>
	<path fill="#7A7972" d="M882.1,317.2c0-1.8,0-3.5,0-5.3c4-5.3,8.9-5.3,16.4-4C893.7,315.4,887.5,315.4,882.1,317.2z"/>
	<path fill="#1B1A19" d="M115.3,330.5c-1.8,0-3.1,0.4-4.9,0.4c0.9-7.1,6.2-9.3,12.4-10.2c3.5,1.3,6.6,2.7,10.2,4.4
		C127.2,326.9,121,328.7,115.3,330.5z"/>
	<path fill="#383835" d="M391,229.8c-0.4-2.7-0.9-4.9-0.9-7.5c3.1-4,7.5-9.8,11.1-3.5C403.4,223.6,395.4,226.7,391,229.8z"/>
	<path fill="#585753" d="M265.1,180.2c-2.7,0-4.9-0.4-7.5-0.4c-4.9-0.4-9.8,0.4-13.7-4C251.3,176.7,259.8,171.3,265.1,180.2z"/>
	<path fill="#010101" d="M252.7,193.1c2.2,0,4,0.4,6.2,0.4c-2.2,4.4-4,8.9-6.2,12.9c-1.3-2.7-2.7-5.8-4-8.4
		C249.6,196.2,251.3,194.8,252.7,193.1z"/>
	<path fill="#F5F2E5" d="M513.8,338.9c121,0,239.4,17.3,356,49.6c14.2,4,18.2,8.4,12.9,23.9c-15.5,46.1-29.7,92.6-43,139.2
		c-3.5,12.4-7.5,14.2-19.9,10.6c-204.4-57.6-409.2-57.6-613.5,0c-14.2,4-17.3-0.4-20.8-12.4c-13.3-45.2-27-90.4-41.7-135.2
		c-5.3-15.5-3.5-22.2,13.7-27C274.4,356.2,392.8,338.5,513.8,338.9z"/>
	<path fill="#F4F1E4" d="M118.4,619.1c7.1-28.4,12-54.1,19.9-78c5.3-15.5,0.4-22.6-11.5-30.6c-22.2-14.6-43.4-30.1-67.8-47
		c23.9-12.4,48.8-17.7,72.7-25.3c9.8-3.1,8.9,7.5,10.6,12.9c12,38.1,23.9,75.8,35,114.4c3.5,12.9,8.9,16,21.7,11.5
		c18.2-6.2,36.8-10.6,55.4-15.5c7.1-1.8,13.3-2.2,15.1,7.1c1.3,9.3-6.2,8.9-11.5,9.8C212.3,588.9,167.1,602.7,118.4,619.1z"/>
	<path fill="#F4F1E4" d="M969.5,460.8c-24.8,17.3-45.2,32.8-66.9,46.1c-14.6,9.3-19.5,18.2-13.3,35.9c8,22.6,12,46.5,18.6,73.6
		c-28.4-8.4-54.1-16.4-79.8-23.9c-19.1-5.3-38.6-9.8-57.6-15.1c-5.3-1.3-15.1,0.4-12.9-10.6c2.7-12.4,11.5-6.2,17.7-4.4
		c17.3,4,34.6,8,51,14.2c14.2,5.3,19.1,0.9,22.6-12.9c10.6-38.1,23.1-76.2,34.6-114.4c3.5-11.5,7.5-15.5,19.9-10.6
		C923.8,447.1,945.1,453.3,969.5,460.8z"/>
	<path fill="#E4E2D6" d="M637.9,232.1c5.8,2.2,13.3-3.1,17.3,4.9c-9.3,13.3-23.5,20.8-34.6,31.9c-5.3-1.3-11.5,4-17.3-1.8
		C610.4,251.1,627.7,244.9,637.9,232.1z"/>
	<path fill="#040404" d="M668.5,505.6c25.7-38.6,51.4-77.1,76.7-116.1c4.9-7.5,11.1-5.8,17.3-4.4c7.1,1.8,14.2,2.7,15.5,12.4
		c6.2,42.6,12.9,84.7,19.1,127.2c0.4,3.5,3.1,10.6-4.4,9.3c-8-0.9-18.6,1.3-22.2-10.2c-2.7-8,0.9-20.8-7.5-23.9
		c-14.2-5.8-30.1-7.5-45.2-10.6c-6.6-1.3-9.8,3.1-12,7.5C698.2,515.8,684.9,514,668.5,505.6z"/>
	<path fill="#020202" d="M379.9,502.9c13.7-43.4,27.5-85.1,40.3-127.2c2.7-8.9,6.6-13.3,16.8-13.7c9.8-0.4,16,1.3,20.4,11.5
		c15.5,36.3,32.8,72.3,48.8,108.6c2.2,4.9,10.6,12.4-0.4,15.5c-7.1,1.8-17.3,6.2-23.5-4.9c-4-7.1-3.5-19.5-14.2-20.4
		c-15.5-0.9-31,0.9-46.1,2.2c-6.2,0.4-8,6.6-8.9,11.5C410.5,505.1,398.5,506.5,379.9,502.9z"/>
	<path fill="#040404" d="M337.3,512.7c-12.4,3.5-12.9-3.1-13.7-10.2c-4-27-8.9-53.6-12.9-80.7c-1.3-10.2-2.2-19.5-16.8-16
		c-13.3,3.5-11.5-7.5-13.3-14.6c-2.7-9.3,3.1-11.1,10.6-12c16.8-2.2,33.7-5.3,50.1-8c9.3-1.8,15.5-1.3,16.8,10.6
		c1.3,9.3,1.3,16-11.1,16c-12.4,0-11.5,8-10.2,16.8c4.4,27,8.4,54.1,13.3,80.7C352.4,508.2,349.8,515.3,337.3,512.7z"/>
	<path fill="#040404" d="M536.8,432.4c0-19.9,0.4-39.9,0-59.4c-0.4-12,6.2-12,15.5-12.4c9.8,0,12.4,3.5,12,12.9
		c-1.3,27-0.9,54.5-3.5,81.6c-1.3,16,3.1,21.3,18.6,20.4c9.3-0.4,20.8-3.5,19.1,14.6c-1.3,17.7-12.4,11.1-20.4,10.6
		c-47.4-1.8-47.4-2.2-44.8-51c0.4-5.8,0.9-12,1.3-17.7C535.5,432.4,535.9,432.4,536.8,432.4z"/>
	<path fill="#050505" d="M238.9,390.3c10.2-2.7,9.8,4,11.1,8.9c9.3,38.6,18.6,77.1,28.4,115.7c3.1,12.4-6.2,10.6-12.4,12.9
		c-7.1,2.7-12,3.1-14.2-6.6c-9.3-39.5-19.1-78.5-28.4-117.9C219.4,386.8,236.7,396.5,238.9,390.3z"/>
	<path fill="#070707" d="M624.6,475.9c3.5-31.5,7.1-62.9,9.8-94.4c0.9-10.6,2.7-16,15.5-14.6c13.3,1.3,12.9,7.5,11.5,17.7
		c-4,34.6-7.1,69.2-11.1,103.3c-0.9,8.4,2.7,21.7-16,19.1c-17.3-2.7-12-12.4-11.1-22.2C624.2,481.6,624.6,478.5,624.6,475.9
		L624.6,475.9z"/>
	<path fill="#E3E1D5" d="M763.3,472.8c-13.3-4.9-24.4-3.1-34.1-11.1c7.5-11.5,15.1-22.6,25.7-38.6
		C758.5,442.2,760.7,455.9,763.3,472.8z"/>
	<path fill="#E3E1D5" d="M426,445.7c4.9-14.6,9.3-28.4,14.6-45.2c7.5,16,13.3,28.4,19.9,43C449.1,447.9,438.4,447.1,426,445.7z"/>
</g>
</svg>
