
<svg xmlns="http://www.w3.org/2000/svg" version="1.1" xmlns:xlink="http://www.w3.org/1999/xlink" preserveAspectRatio="none" x="0px" y="0px" width="209px" height="84px" viewBox="0 0 209 84">
<defs>
<g id="Layer0_0_MEMBER_0_MEMBER_0_FILL">
<path fill="#000000" stroke="none" d="
M 143.9 47.8
L 143.9 46.05 143 45.75
Q 142.45 45.6 142.1 45.6
L 109.35 45.55
Q 108.7 45.55 108.3 45.9 107.85 46.3 107.85 46.85 107.8 48.2 109.35 48.25
L 110.7 48.25 110.7 76.4 113.05 76.4 113.05 48.3 139.05 48.3 139.05 62.25 113.25 62.25 113.25 66.55 139.05 66.55 139.05 73.25 113.25 73.25 113.25 75.1 139.05 75.1 139.15 76.4 141.45 76.4 141.45 48.45 143.9 47.8 Z"/>
</g>

<g id="Layer0_0_MEMBER_0_MEMBER_1_FILL">
<path fill="#000000" stroke="none" d="
M 136.55 81.6
L 139.5 81.6 140.1 80.9
Q 140.9 79.75 140.55 78.8 139.9 77 138.05 77 136.8 77 136.15 77.95 135.45 78.95 135.85 80.1
L 136.55 81.6 Z"/>
</g>

<g id="Layer0_0_MEMBER_0_MEMBER_2_FILL">
<path fill="#000000" stroke="none" d="
M 112.35 81.6
L 112.9 80.95
Q 113.3 80.5 113.4 79.6 113.5 78.7 113.15 78.2 112.65 77.4 111.65 77.1 110.65 76.8 109.85 77.15 109 77.55 108.7 78.5 108.4 79.4 108.75 80.3 108.75 80.35 109.55 81.6
L 112.35 81.6 Z"/>
</g>

<g id="Layer0_0_MEMBER_0_MEMBER_3_FILL">
<path fill="#000000" stroke="none" d="
M 118.15 16.55
Q 112.2 19.2 105.9 18.95 100 18.7 93.5 15.85 89.65 21.2 87.95 24 87.35 25 83.25 32.95
L 83.05 31.3
Q 82.25 25.95 82.1 23.25 82.05 21.75 82.1 19.5
L 82.25 15.75
Q 82.35 14.75 81.6 14.75 80.3 14.65 79.15 14.95 77.9 15.25 76.7 16.2 76.05 16.65 74.65 18 71 21.55 68.5 27.15 66.5 31.6 66.8 34.8 66.95 36 67.6 37 68.35 38.2 69.4 38.4 70.2 38.55 70.5 38.95 70.8 39.35 70.7 40.2 70.55 42.6 70.05 47.35
L 69.8 50.05 72.05 50.05 72.35 51.7 73.6 77
Q 73.65 77.85 72.85 78.2
L 68.95 80.15 94.9 80.15 90.35 77.85 91.85 50.2 94.4 50.2 95.05 38.05
Q 95.05 36.6 95.1 36.35 95.25 35.4 96.05 34.9
L 96.15 34.65 99.5 28.35
Q 106.85 28.25 111.5 26.55 115.2 25.25 117.25 24.2 120.3 22.75 122.4 20.8
L 118.15 16.55
M 93.5 27.05
L 94.2 29.4
Q 91 29.5 89.3 28.8
L 91.75 25.5 92.5 27.9 93.5 27.05
M 81.45 33.85
Q 81.65 33.55 81.9 33.5
L 85.55 33.1 85.15 34.45
Q 87.05 36.9 87.15 37.1 87.55 37.8 87.3 38.4 87.15 38.8 86.2 38.8 85.95 38.8 84.6 38.55
L 80.35 37.75
Q 80.15 36.85 80.55 35.8 80.75 35.15 81.45 33.85
M 74.5 30.8
Q 74.6 30.8 75.45 30.85
L 81.15 31.45
Q 79.2 34.4 78.75 38.5 78.6 39.7 78.55 46
L 72.35 44.75 72.15 39.9
Q 72.05 34.8 73.65 31.5 73.95 30.9 74.5 30.8 Z"/>
</g>

<g id="Layer0_0_MEMBER_0_MEMBER_4_FILL">
<path fill="#000000" stroke="none" d="
M 88.3 16.1
Q 90.95 16.1 92.75 14.5 94.55 12.95 94.75 10.6 95 7.45 92.9 5.35 91.05 3.5 88.55 3.5 85.9 3.6 84.05 5.25 82.15 7.05 82.1 9.85 82.05 12.35 83.8 14.3 85.65 16.4 88.3 16.1 Z"/>
</g>

<g id="Layer0_0_MEMBER_0_MEMBER_5_FILL">
<path fill="#000000" stroke="none" d="
M 127.4 23.95
Q 127.05 23.75 126.55 23.8 126 23.85 125.65 24.05 124.9 24.55 124.7 25.65 124.65 26 124.8 26.55
L 125 27.45
Q 119.45 27.75 115.85 31.75 112.15 35.75 113.15 40.7
L 114.65 40.7
Q 114.4 39.55 114.45 39.05
L 115.3 35.6
Q 116 33.4 118.65 31.2 119.55 30.45 120.95 29.9 121.4 29.75 123.5 29.05 125.75 28.25 128.85 28.8 133.25 29.6 136.05 32.6 138.8 35.6 138.6 38.85
L 138.6 40.75 140.15 40.75
Q 140.35 39.65 140.35 39.1 140.2 34.1 136.55 30.95 132.65 27.65 128.05 27.45 128.3 26.8 128.45 26.5 128.65 25.95 128.55 25.6 128.4 24.6 127.4 23.95 Z"/>
</g>

<g id="Layer0_0_MEMBER_0_MEMBER_6_FILL">
<path fill="#000000" stroke="none" d="
M 139.9 44
Q 141.95 44 142.75 42.6
L 109.35 42.6
Q 109.8 43.55 110.7 43.85 111.3 44 112.6 44 126.25 43.95 139.9 44 Z"/>
</g>

<g id="Layer0_0_MEMBER_0_MEMBER_7_FILL">
<path fill="#000000" stroke="none" d="
M 129.6 13.4
Q 129.15 12.65 128.4 12.85
L 123.1 14.2 123.25 13.6
Q 123.4 13 122.95 12.75 122.4 12.6 122.2 12.5 121.85 12.3 121.7 12.55 121.65 12.6 121.5 13.05
L 120.65 15.5
Q 120.55 16.05 120.75 16.25
L 122.9 18.85
Q 123.65 19.75 124.55 19.1 125.45 18.45 127.35 17.2 128.95 16.05 129.65 14.7 130 13.95 129.6 13.4 Z"/>
</g>

<g id="Layer0_0_MEMBER_0_MEMBER_8_FILL">
<path fill="#000000" stroke="none" d="
M 87.4 17.7
Q 86.65 17.1 86.15 17.1 85.65 17.15 85.1 17.85
L 83.6 17.15 83.6 19.7 84.55 19.1
Q 85.2 19 85.25 19.05 86.2 19.95 87.6 18.95
L 89 19.75 89 17.3 88 17.75
Q 87.55 17.85 87.4 17.7 Z"/>
</g>

<g id="Layer0_0_MEMBER_0_MEMBER_9_FILL">
<path fill="#FFFFFF" stroke="none" d="
M 75.45 30.85
Q 74.6 30.8 74.5 30.8 73.95 30.9 73.65 31.5 72.05 34.8 72.15 39.9
L 72.35 44.75 78.55 46
Q 78.6 39.7 78.75 38.5 79.2 34.4 81.15 31.45
L 75.45 30.85 Z"/>
</g>

<g id="Layer0_0_MEMBER_0_MEMBER_10_FILL">
<path fill="#FFFFFF" stroke="none" d="
M 84.6 38.55
Q 85.95 38.8 86.2 38.8 87.15 38.8 87.3 38.4 87.55 37.8 87.15 37.1 87.05 36.9 85.15 34.45
L 85.55 33.1 81.9 33.5
Q 81.65 33.55 81.45 33.85 80.75 35.15 80.55 35.8 80.15 36.85 80.35 37.75
L 84.6 38.55 Z"/>
</g>

<g id="Layer0_0_MEMBER_0_MEMBER_11_FILL">
<path fill="#FFFFFF" stroke="none" d="
M 94.2 29.4
L 93.5 27.05 92.5 27.9 91.75 25.5 89.3 28.8
Q 91 29.5 94.2 29.4 Z"/>
</g>

<path id="Symbol_9_0_Layer0_0_1_STROKES" stroke="#303030" stroke-opacity="0.4980392156862745" stroke-width="1" stroke-linejoin="round" stroke-linecap="round" fill="none" d="
M -92.8 0
L 92.8 0"/>
</defs>

<g transform="matrix( 1, 0, 0, 1, 104.5,56.75) ">
<g transform="matrix( 1, 0, 0, 1, 0,0) ">
<use xlink:href="#Symbol_9_0_Layer0_0_1_STROKES"/>
</g>
</g>

<g transform="matrix( 1, 0, 0, 1, 47.1,51.8) ">
<clipPath id="Mask_Mask_1">
<rect x="-2" y="-1.7" width="118.85" height="65.8" fill="#FFFFFF" stroke="none"/>
</clipPath>

<text clip-path="url(#Mask_Mask_1)" writing-mode="lr"><tspan x="0.3" y="24.1" baseline-shift="0%" font-family="Myriad Pro" font-size="25" fill="#000000" xml:space="preserve">Aftensmad</tspan></text>
</g>

<g transform="matrix( 0.6526031494140625, 0, 0, 0.6526031494140625, 35.8,2.2) ">
<use xlink:href="#Layer0_0_MEMBER_0_MEMBER_0_FILL"/>
</g>

<g transform="matrix( 0.6526031494140625, 0, 0, 0.6526031494140625, 35.8,2.2) ">
<use xlink:href="#Layer0_0_MEMBER_0_MEMBER_1_FILL"/>
</g>

<g transform="matrix( 0.6526031494140625, 0, 0, 0.6526031494140625, 35.8,2.2) ">
<use xlink:href="#Layer0_0_MEMBER_0_MEMBER_2_FILL"/>
</g>

<g transform="matrix( 0.6526031494140625, 0, 0, 0.6526031494140625, 35.8,2.2) ">
<use xlink:href="#Layer0_0_MEMBER_0_MEMBER_3_FILL"/>
</g>

<g transform="matrix( 0.6526031494140625, 0, 0, 0.6526031494140625, 35.8,2.2) ">
<use xlink:href="#Layer0_0_MEMBER_0_MEMBER_4_FILL"/>
</g>

<g transform="matrix( 0.6526031494140625, 0, 0, 0.6526031494140625, 35.8,2.2) ">
<use xlink:href="#Layer0_0_MEMBER_0_MEMBER_5_FILL"/>
</g>

<g transform="matrix( 0.6526031494140625, 0, 0, 0.6526031494140625, 35.8,2.2) ">
<use xlink:href="#Layer0_0_MEMBER_0_MEMBER_6_FILL"/>
</g>

<g transform="matrix( 0.6526031494140625, 0, 0, 0.6526031494140625, 35.8,2.2) ">
<use xlink:href="#Layer0_0_MEMBER_0_MEMBER_7_FILL"/>
</g>

<g transform="matrix( 0.6526031494140625, 0, 0, 0.6526031494140625, 35.8,2.2) ">
<use xlink:href="#Layer0_0_MEMBER_0_MEMBER_8_FILL"/>
</g>

<g transform="matrix( 0.6526031494140625, 0, 0, 0.6526031494140625, 35.8,2.2) ">
<use xlink:href="#Layer0_0_MEMBER_0_MEMBER_9_FILL"/>
</g>

<g transform="matrix( 0.6526031494140625, 0, 0, 0.6526031494140625, 35.8,2.2) ">
<use xlink:href="#Layer0_0_MEMBER_0_MEMBER_10_FILL"/>
</g>

<g transform="matrix( 0.6526031494140625, 0, 0, 0.6526031494140625, 35.8,2.2) ">
<use xlink:href="#Layer0_0_MEMBER_0_MEMBER_11_FILL"/>
</g>
</svg>
