
<svg xmlns="http://www.w3.org/2000/svg" version="1.1" xmlns:xlink="http://www.w3.org/1999/xlink" preserveAspectRatio="none" x="0px" y="0px" width="209px" height="84px" viewBox="0 0 209 84">
<defs>
<g id="Layer1_0_FILL">
<path fill="#000000" stroke="none" d="
M 74.45 59.15
Q 73.35 58.85 71.7 58.85 70.55 58.85 69.5 58.95 68.5 59.05 67.75 59.2
L 67.75 75.75
Q 68.3 75.8 69.15 75.9 70 75.95 71.1 75.95 73.2 75.95 74.65 75.55 76.1 75.2 76.95 74.35 77.6 73.75 78 72.9 78.35 72.1 78.35 71 78.35 69.75 77.85 68.9 77.3 68 76.5 67.5 75.75 66.95 74.9 66.75
L 74.9 66.7
Q 76.25 66.2 77 65.25 77.75 64.25 77.75 63.05 77.75 62.05 77.4 61.3 77 60.55 76.35 60.05 75.6 59.4 74.45 59.15
M 71.85 60.5
Q 73.55 60.5 74.55 61.15 75.55 61.8 75.55 63.25 75.55 64.5 74.6 65.25 73.65 66.05 71.9 66.05
L 69.95 66.05 69.95 60.65
Q 70.2 60.6 70.65 60.55 71.1 60.5 71.85 60.5
M 69.95 74.15
L 69.95 67.7 71.7 67.7
Q 72.95 67.7 73.9 68.05 74.9 68.4 75.5 69.1 76.05 69.8 76.1 70.95 76.05 72.2 75.45 72.9 74.85 73.65 73.85 73.95 72.9 74.25 71.75 74.25 71.15 74.25 70.7 74.25 70.25 74.2 69.95 74.15
M 130.55 58.05
L 128.35 58.05 128.35 75.8 130.55 75.8 130.55 68.5
Q 130.55 68.2 130.55 67.95 130.6 67.7 130.65 67.45 131 66.55 131.75 65.9 132.55 65.3 133.65 65.25 134.65 65.3 135.3 65.75 135.9 66.25 136.15 67.05 136.45 67.9 136.4 68.85
L 136.4 75.8 138.6 75.8 138.6 68.6
Q 138.6 67.05 138.2 66.05 137.75 65.05 137.1 64.45 136.45 63.9 135.75 63.65 135 63.4 134.4 63.45 133.8 63.45 133.2 63.6 132.65 63.8 132.15 64.05 131.65 64.35 131.25 64.75 130.85 65.15 130.6 65.6
L 130.55 65.6 130.55 58.05
M 89.35 70.75
Q 89.35 72.85 90 74.05 90.65 75.2 91.6 75.65 92.55 76.1 93.5 76.05 94.6 76.05 95.4 75.7 96.2 75.35 96.7 74.85 97.25 74.3 97.5 73.8
L 97.55 73.8 97.7 75.8 99.65 75.8
Q 99.6 75.1 99.6 74.25 99.55 73.45 99.55 72.5
L 99.55 63.7 97.35 63.7 97.35 71.1
Q 97.35 71.4 97.3 71.7 97.25 72 97.15 72.25 96.95 72.75 96.55 73.2 96.15 73.65 95.55 73.95 95 74.25 94.25 74.25 92.75 74.2 92.15 73.2 91.5 72.15 91.55 70.4
L 91.55 63.7 89.35 63.7 89.35 70.75
M 86.9 63.45
Q 86.75 63.45 86.6 63.45 85.45 63.45 84.55 64.15 83.65 64.85 83.25 66.1
L 83.1 66.1 83.05 63.7 81.15 63.7
Q 81.2 64.55 81.2 65.45 81.25 66.4 81.25 67.45
L 81.25 75.8 83.4 75.8 83.4 69.35
Q 83.4 69.05 83.45 68.8 83.45 68.55 83.5 68.35 83.75 67.05 84.5 66.3 85.3 65.55 86.45 65.5 86.7 65.5 86.85 65.5 87.05 65.55 87.2 65.6
L 87.2 63.5
Q 87.05 63.45 86.9 63.45
M 118.95 67.45
Q 119.45 66.45 120.4 65.85 121.35 65.2 122.75 65.2 123.65 65.2 124.25 65.4 124.9 65.55 125.3 65.8
L 125.8 64.1
Q 125.35 63.85 124.55 63.65 123.75 63.45 122.75 63.45 120.75 63.45 119.3 64.3 117.85 65.1 117.05 66.55 116.25 68 116.25 69.9 116.25 71.75 117 73.1 117.75 74.5 119.1 75.25 120.45 76.05 122.25 76.05 123.5 76.05 124.4 75.8 125.3 75.6 125.75 75.35
L 125.35 73.7
Q 124.9 73.9 124.25 74.1 123.6 74.3 122.65 74.3 121.45 74.3 120.5 73.75 119.55 73.2 119 72.2 118.5 71.2 118.45 69.8 118.45 68.5 118.95 67.45
M 106.65 65.9
Q 107.45 65.3 108.55 65.25 109.55 65.3 110.2 65.75 110.8 66.25 111.05 67.05 111.35 67.85 111.3 68.85
L 111.3 75.8 113.5 75.8 113.5 68.6
Q 113.5 67.05 113.1 66.05 112.65 65 112 64.45 111.35 63.9 110.65 63.65 109.9 63.4 109.25 63.45 108.25 63.45 107.45 63.8 106.65 64.1 106.1 64.6 105.55 65.15 105.25 65.7
L 105.2 65.7 105.05 63.7 103.15 63.7
Q 103.2 64.45 103.2 65.25 103.25 66.05 103.25 66.95
L 103.25 75.8 105.45 75.8 105.45 68.55
Q 105.45 68.25 105.45 68 105.5 67.7 105.55 67.5 105.85 66.55 106.65 65.9 Z"/>
</g>

<g id="Layer0_0_MEMBER_0_FILL">
<path fill="#FEFEFE" stroke="none" d="
M -33.6 165.45
Q -33.619921875 165.7490234375 -33.65 166
L -27 166
Q -27.05 165.8 -27.15 165.8 -27.25 165.75 -27.45 165.8 -27.55 165.8 -27.65 165.8 -27.75 165.8 -27.8 165.75 -28.2 165.5 -28.4 165.5 -28.6 165.5 -29.05 165.8 -29.15 165.85 -29.25 165.9 -29.35 165.9 -29.35 165.8 -29.35 165.35 -29.65 165.05 -29.8 164.95 -30.35 164.65 -30.8 164.35 -31.05 164.3 -31.35 164.25 -31.75 164.4 -31.95 164.5 -32.05 164.5 -32.2 164.5 -32.25 164.35 -32.4 164.05 -32.7 163.95 -33.05 163.95 -33.2 163.95 -33.4 163.95 -33.5 164 -33.55 164.05 -33.55 164.25 -33.55 164.55 -33.6 165.45
M -14.55 163.35
Q -14.65 162.95 -15.15 163 -15.3 163 -15.35 162.95 -16.05 162.25 -16.9 162.75 -17.15 162.9 -17.3 162.9 -17.5 162.9 -17.6 162.65 -17.65 162.55 -17.75 162.6 -17.8 162.6 -17.85 162.7 -18 162.95 -18.25 163.1 -18.4 163.15 -18.8 163.3 -19.25 163.5 -19.25 163.7 -19.3 163.9 -18.95 164.2 -18.8 164.3 -18.8 164.45 -18.75 164.55 -18.9 164.6 -19.2 164.65 -19.2 164.8 -19.2 164.9 -19.1 165.15 -19.1 165.2 -19.05 165.35 -19.05 165.45 -19.2 165.45 -19.5 165.45 -19.6 165.65
L -19.7 166 -11.7 166
Q -11.6216796875 165.8419921875 -11.65 165.7 -11.65 165.35 -11.75 165.2 -11.85 165.1 -12.2 165.2 -12.4 165.25 -12.5 165.2 -12.55 165.1 -12.55 164.9 -12.55 164.3 -13.2 164.15 -13.4 164.1 -13.8 163.8 -14.15 163.55 -14.4 163.55 -14.45 163.55 -14.5 163.5 -14.55 163.4 -14.55 163.35
M -12.95 160.65
Q -13.1 160.6 -13.25 160.65 -13.75 160.75 -13.95 160.85 -14.35 160.95 -14.5 161.3 -14.55 161.35 -14.8 161.55 -15.15 161.75 -15.15 162 -15.15 162.25 -14.85 162.4 -14.55 162.6 -13.9 163.1 -13.3 163.5 -12.95 163.75 -11.55 164.6 -11.1 165.75 -11.040625 165.8806640625 -11 166
L -7.45 166
Q -7.4583984375 165.95 -7.45 165.9
L -7.5 165.9
Q -7.9 166 -8.05 165.8 -8.1 165.7 -8.3 165.25 -8.4 164.85 -8.75 164.6 -9.05 164.3 -9.5 164.25 -9.8 164.2 -9.95 164.1 -10.15 163.95 -10.1 163.65 -10.1 163.6 -10.15 163.5 -10.2 163.45 -10.3 163.45 -10.55 163.5 -10.7 163.35 -10.75 163.1 -10.8 162.95 -10.95 162.55 -11 162.5 -11.1 162.25 -11.35 162.25 -11.6 162.25 -11.7 162.1 -11.75 162 -11.75 161.75 -11.75 161.4 -11.9 161.25 -12.1 161.1 -12.45 161.1 -12.75 161.1 -12.75 160.9 -12.8 160.7 -12.95 160.65
M -62.5 156.35
Q -62.65 156.3 -62.8 156.5 -63.2 156.95 -63.6 157.25 -64.1 157.65 -64.25 158.15 -64.45 158.6 -64.4 159.25 -64.25 160.8 -64.1 164.4 -64.1 164.7634765625 -64.05 166
L -61.45 166
Q -61.4134765625 165.3716796875 -61.4 164.7 -61.3 161.75 -61.3 160.3 -61.2 159.75 -61.2 159.5 -61.2 159 -61.55 158.75
L -61.6 158.7 -61.55 158.65
Q -61.4 158.55 -61.45 158.35 -61.6 158.1 -61.6 158 -61.85 157.15 -62.25 156.55 -62.4 156.35 -62.5 156.35
M -56.55 158.05
Q -56.7 158.35 -56.75 158.6 -56.95 161.15 -57 162.4 -57.0431640625 163.8263671875 -57.05 166
L -53.4 166
Q -53.3712890625 165.5845703125 -53.35 165.05 -53.35 163.75 -53.35 161.8
L -53.3 158.55
Q -53.3 158 -53.55 157.55 -53.95 156.65 -54.35 155.7 -54.4 155.5 -54.45 155.5 -54.55 155.45 -54.7 155.6 -55.45 156.2 -56.25 157.55 -56.3 157.7 -56.55 158.05
M -59.75 156.75
Q -59.95 157.05 -60.4 157.7 -60.45 157.75 -60.55 157.95 -60.65 158.1 -60.65 158.25 -60.65 158.4 -60.75 159.45 -60.8 160.15 -60.75 160.65 -60.8421875 162.4951171875 -60.85 166
L -57.6 166
Q -57.63671875 163.1462890625 -57.4 159.95 -57.3 159.35 -57.25 159.05 -57.2 158.55 -57.3 158.15 -57.5 157.65 -57.85 157 -58.35 156.3 -58.55 155.95 -58.65 155.8 -58.75 155.8 -58.8 155.85 -58.95 155.95 -59.35 156.25 -59.75 156.75
M -49.4 157.55
Q -50.2 156.05 -50.45 155.65 -50.55 155.45 -50.65 155.45 -50.75 155.4 -50.9 155.6 -51.6 156.25 -52.15 157.15 -52.25 157.3 -52.45 157.55 -52.65 157.75 -52.65 157.95 -52.75 158.75 -52.75 158.95 -52.8 159.5 -52.8 159.9 -52.95 161.7 -52.9 163.85 -52.9 164.45 -52.9 165.7 -52.9 165.8541015625 -52.9 166
L -49.45 166
Q -49.4005859375 165.2427734375 -49.35 164.4 -49.25 163.05 -49.3 161.15 -49.3 159 -49.35 157.9 -49.35 157.65 -49.4 157.55
M -46.2 156.75
Q -46.95 155.85 -47 155 -47.8 155.3 -48.25 156.25 -48.75 157.3 -48.75 158.3 -48.75 161.0341796875 -48.8 166
L -45.35 166
Q -45.4 165.8 -45.4 164.95 -45.4 164.25 -45.45 163.85
L -45.55 158.4
Q -45.55 157.5 -46.2 156.75
M -44.75 151.3
Q -44.65 151.4 -44.6 151.5 -44.55 151.6 -44.7 151.7 -44.9 151.8 -44.95 152
L -44.9 152.4
Q -44.8 152.75 -44.7 153.45 -44.65 154.05 -44.8 154.45 -45 155.05 -45.05 155.8 -45.05 156.2 -45.05 157.15 -45.05 159.2 -44.95 163.3 -44.95 163.7921875 -44.9 166
L -34.15 166
Q -34.15 164.9634765625 -34.15 164.45 -34.15 162.5 -34.15 159.8 -34.1 156.75 -34.1 155.2 -34.1 155 -34.05 154.85 -33.75 153.9 -33.75 152.7 -33.75 152.35 -33.85 150.55 -33.85 150.4 -33.9 150.35 -34 150.3 -34.15 150.3 -36.15 150.2 -37.15 150.2 -41.2 150.15 -44.3 150.4 -44.55 150.4 -44.65 150.4 -44.85 150.4 -44.9 150.55 -45.1 151.05 -44.75 151.3
M -28.3 153.35
Q -28.6 153.4 -28.6 153.7 -28.65 154.25 -28.7 155.35 -28.75 157.35 -28.65 159.9 -28.6 161.4 -28.35 164.45 -28.35 164.8 -28.25 164.95 -28.1 165.1 -27.8 165.15 -27.6 165.2 -27.3 165.3 -27.2 165.35 -26.8 165.6
L -26.75 165.35 -26.85 157.5 -26.9 157.3
Q -26.9 156.3 -26.9 155.8 -26.9 154.9 -26.8 154.3 -26.65 153.6 -26.85 153.4 -27.05 153.2 -27.75 153.3 -28.1 153.35 -28.3 153.35
M -24.1 153.6
Q -24.45 153.65 -25 153.8 -25.25 153.85 -25.45 154.15 -25.7 154.4 -25.65 154.7 -25.6 155.4 -25.55 156.75 -25.55 157 -25.25 162.7 -25.2 163.45 -25.2 163.6 -25.2 163.85 -25.1 163.95 -25.05 164.05 -24.8 164 -23.8 163.95 -21.85 163.85 -21.65 163.85 -21.6 163.75 -21.55 163.7 -21.55 163.55 -21.65 162.35 -21.7 161.7 -21.8 160.65 -21.8 159.9 -21.85 156.95 -22.75 154.2 -22.8 154.05 -22.9 153.9 -23 153.8 -23.2 153.75 -23.6 153.6 -24.1 153.6
M -22.05 149.5
Q -22.35 149.35 -22.55 149.55 -23.95 150.75 -24.2 150.95 -25.1 151.75 -25.7 152.5 -23.25 152.2 -22.25 152.15 -20.3 152.1 -18.75 152.4 -20.1 150.45 -22.05 149.5
M -45.3 153.3
Q -45.35 153.05 -45.4 152.95 -45.5 152.85 -45.75 152.85 -49 152.9 -51.9 153.2 -52.2 153.25 -52.3 153.35 -52.4 153.45 -52.35 153.75 -52.25 154.8 -52.45 155.45 -52.55 155.75 -52.5 156.1 -52.5 156.25 -52.4 156.85 -51.9 156.2 -51.7 155.95 -51.25 155.45 -50.9 155.15 -50.5 154.85 -50.4 154.9 -50.3 154.9 -50.05 155.35 -49.8 155.9 -49.25 157.05 -48.6 156 -47.4 154.6 -47.15 154.3 -46.95 154.3 -46.8 154.35 -46.6 154.7 -46.45 155 -46.45 155.2 -46.4 155.6 -46.2 156 -46 156.35 -45.65 156.75 -45.7 156.15 -45.4 155 -45.2 153.9 -45.3 153.3
M -22.65 142.9
Q -22.85 142.75 -22.95 142.7 -23.15 142.65 -23.35 142.8 -24.6 144.05 -25.25 144.7 -26.3 145.8 -27.05 146.7 -28.65 148.55 -31.05 151.9 -31.3 152.3 -31.55 152.45 -31.85 152.65 -32.2 152.55 -32.45 152.55 -32.5 152.8 -32.6 154.05 -32.8 155.1 -32.9 155.75 -32.9 156.65 -32.9 157.2 -32.9 158.25 -32.9 159.05 -32.9 160.6 -32.85 162.2 -32.85 162.95 -32.85 163.3 -32.7 163.5 -32.6 163.7 -32.25 163.8 -32 163.9 -31.75 163.85 -31.05 163.8 -30.35 164.1 -29.8 164.35 -29.15 164.85
L -29.15 161.9
Q -29.2 159 -29.25 157.55 -29.25 156.95 -29.25 156.65 -29.25 156.1 -29.3 155.75 -29.35 155.3 -29.3 155 -29.3 154.55 -29.15 154.25 -29 154 -29.05 153.75 -29.1 153.5 -29.35 153.3 -29.5 153.15 -29.5 153 -29.55 152.85 -29.4 152.65 -29.15 152.3 -29.1 152.2 -28.55 151.5 -27.6 150.65 -26.5 149.7 -25.95 149.25 -25.45 148.75 -24.95 148.55 -24.4 148.35 -23.75 148.45 -23.35 148.55 -22.5 148.6 -21.8 148.75 -21.5 149.4 -21.5 149.45 -21.35 149.5 -20.4 150.05 -19.4 150.95 -19.1 151.3 -17.7 152.75 -17.45 153 -17.4 153.25 -17.35 153.45 -17.5 153.75 -17.65 154.35 -17.55 155.25 -17.3 157.45 -17.25 158.45 -17.05 160.2 -17.05 161.6 -17.05 161.95 -16.95 162.05 -16.8 162.2 -16.5 162.1 -16.2 162.05 -15.85 161.85 -15.45 161.65 -15.3 161.4 -15.1 161.2 -15.1 161.1 -15 160.95 -15 160.8 -14.85 158.55 -15 156.7 -15.1 155.9 -15.1 155.5 -15.2 154.85 -15.1 154.35 -14.9 153.15 -15.55 151.85 -16.45 150.1 -18.35 147.5 -19.75 145.5 -20.2 144.95 -21.35 143.6 -22.65 142.9
M -39.85 130.9
Q -39.85 131.6 -40 132.1 -40.45 131.75 -40.75 131.15 -41.05 130.4 -41.3 130.05 -41.6 131.5 -41.6 132.5 -41.6 132.55 -41.65 132.7 -41.65 132.85 -41.75 132.85 -41.95 132.9 -42.1 132.6
L -42.65 131.3
Q -42.7 131.6 -42.9 132.1 -43.05 132.5 -43.05 132.8 -42.85 134.95 -42.35 136.45 -42.05 137.3 -41.85 137.65 -41.5 138.25 -40.85 138.5 -40.8 138.55 -40.7 138.65 -40.55 138.95 -39.95 139.8 -39.45 140.55 -39.25 141.05 -38.95 141.9 -38.35 142.4 -38.05 142.65 -37.7 142.65 -37.4 142.65 -37 142.55 -36.75 142.45 -36.8 142.3 -36.9 142.05 -36.8 142 -36.5 142.15 -36.1 142.45 -35.9 142.6 -35.5 142.95 -35.1 143.2 -34.65 143.1 -32.75 142.6 -32 141 -31.8 140.65 -31.35 140.45 -30.25 140 -29.5 139.3 -29.15 138.95 -29 138.7 -28.8 138.35 -28.8 137.95
L -29.35 138.1
Q -29.2 137.8 -29.3 137.75 -29.4 137.7 -29.65 137.8 -29.95 137.95 -30.1 138.05 -30.4 138.15 -30.65 138.15
L -30.05 137.65
Q -31.45 137.5 -31.75 138.65 -31.9 139.2 -32.45 139.6 -32.55 139.65 -32.8 139.85 -33 140 -33.15 140.1 -33.8 140.5 -34.4 140.65 -35.1 140.9 -35.75 140.8 -37.35 140.65 -38.5 139.65 -39.55 138.85 -40.35 137.3 -40.5 137.05 -40.55 136.8 -40.6 136.6 -40.55 136.35 -40.25 136.85 -39.75 137.8 -39.25 138.65 -38.65 139.05 -38 139.55 -37.7 139.75 -37.15 140.1 -36.6 140.2 -35.85 140.4 -34.95 140.25 -34.35 140.1 -33.35 139.75 -33.25 139.7 -33.05 139.6 -32.85 139.55 -32.75 139.45 -32.25 138.8 -31.95 138.3 -31.6 137.6 -31.45 136.95 -31.4 136.9 -31.4 136.85 -31.4 136.75 -31.45 136.7 -31.5 136.7 -31.6 136.75
L -31.7 136.8
Q -31.75 136.8 -32 136.95 -32.15 137.1 -32.25 137 -32.35 136.9 -32.25 136.65 -32.15 136.45 -32.1 136.35 -32.05 136.2 -31.95 136.05 -31.8 135.85 -31.8 135.8 -31.55 135.4 -31.55 135 -31.9 135.1 -31.95 135.1 -32.25 135.15 -32.35 135.05 -32.45 134.95 -32.35 134.65
L -32.2 134.1
Q -32.1 133.6 -32.15 133.55 -32.25 133.45 -32.65 133.65 -33.8 134.25 -35.2 133.75
L -36.55 133.3
Q -36.55 133.45 -36.5 133.55 -36.5 133.6 -36.4 133.7 -36.35 133.75 -36.2 133.95 -36.05 134.1 -36.15 134.2 -36.25 134.35 -36.45 134.3 -36.65 134.25 -36.8 134.25
L -36.85 134.3
Q -36.85 134.4 -36.75 134.75 -36.7 135 -36.8 135.15 -36.9 135.3 -37.2 135.3 -37.6 135.25 -37.7 135.3
L -37.75 135.3
Q -37.75 135.55 -37.6 136.05 -37.55 136.5 -37.85 136.85 -38 135.75 -38.05 135.5 -38.2 134.95 -37.65 135 -37.35 135.05 -37.25 134.95 -37.2 134.85 -37.25 134.5 -37.35 134.15 -37.35 134.05 -37.3 133.8 -36.95 133.75 -37.2 133.25 -37.35 133.05 -37.6 132.6 -37.7 132.3 -38 131.6 -38.65 130.9 -38.85 130.65 -39.85 129.7 -39.85 129.95 -39.85 130.9
M -40.2 129.2
Q -40.1 128.8 -39.85 129.1
L -39.15 129.8
Q -39.05 129.6 -39.2 129.4 -39.5 129.05 -39.55 128.5 -39.6 128.3 -39.65 127.6 -39.7 126.8 -40.45 126.2 -40.9 125.85 -41.25 125.85 -41.6 125.9 -41.95 126.35 -42.25 126.65 -42.4 126.3
L -42.55 125.85
Q -42.55 126.55 -42.55 126.65 -42.5 126.95 -42.65 127.1 -42.75 127.25 -43.05 127.2
L -44.05 127.2 -44.1 127.3
Q -43.45 127.65 -43.3 127.7 -43 127.85 -42.9 128 -42.8 128.15 -43 128.45 -43.1 128.6 -43.1 128.8 -43.1 128.9 -43.15 129.15 -43.35 130.6 -43.3 131.7 -43.15 131.55 -42.9 131.1 -42.75 130.85 -42.55 130.9 -42.4 130.9 -42.35 131 -42.35 131.05 -42.25 131.15
L -42.2 131.4
Q -42.15 131.55 -42 131.6 -41.75 130.3 -41.55 129.85 -41.5 129.65 -41.5 129.55 -41.45 129.4 -41.3 129.4 -41.1 129.4 -41 129.5 -40.95 129.6 -40.9 129.75 -40.85 129.85 -40.65 130.25 -40.55 130.6 -40.4 130.75 -40.35 130.7 -40.35 130 -40.3 129.5 -40.2 129.2
M -41.6 127.1
Q -41.65 126.95 -41.65 126.9 -41.65 126.8 -41.55 126.8 -41.3 126.85 -41.2 127 -41.1 127.1 -41.05 127.3 -41.05 127.6 -41.3 127.55 -41.5 127.55 -41.55 127.4 -41.6 127.3 -41.6 127.1
M -21.95 128.85
Q -21.75 129.05 -21.5 129.55 -21.25 130.1 -21.05 130.35 -20.95 129.75 -21.1 129.15 -21.55 126.95 -22.9 125.75 -24.5 124.25 -27.25 124.8 -29.45 125.25 -31.05 127.2 -32.75 129.25 -32.8 131.7 -32.8 131.85 -32.75 132.55 -32.75 132.65 -32.75 132.9 -32.75 133.1 -32.7 133.2 -32.6 133.25 -32.45 133.15 -32.2 133 -32.15 133 -31.8 132.9 -31.7 133 -31.6 133.1 -31.65 133.45 -31.7 133.8 -31.85 134.2 -31.95 134.45 -32.2 134.95 -31.45 134.65 -31.3 134.65 -31.15 134.7 -30.95 135.05
L -30.55 134.75
Q -30.4 134.65 -30.3 134.65 -30.2 134.55 -30.1 134.65 -30 134.7 -30.05 134.85 -30.05 134.9 -30.15 135.1
L -30.15 135.15
Q -30.05 135.15 -29.75 135.05 -29.5 134.95 -29.3 135.05 -29.8 135.5 -30 135.7 -30.4 136.05 -30.75 136.25 -31.05 136.4 -30.85 136.85 -30.8 136.95 -30.7 136.9 -30.6 136.85 -30.45 136.75
L -30.2 136.65
Q -29.95 136.55 -29.55 136.35 -29.15 136.2 -28.8 136.2
L -30.45 137.2
Q -30.35 137.3 -30.05 137.3 -29.85 137.3 -29.7 137.45 -29.55 137.6 -29.15 137.4 -28.75 137.2 -28.65 136.95 -28.2 135.8 -27.1 135.05 -26.5 134.65 -25.5 135 -24.45 135.4 -24.4 136.1 -24.25 135.7 -24.2 135.5
L -23.8 133.55
Q -23.8 133.4 -23.75 133.4 -23.7 133.3 -23.6 133.3 -23.55 133.3 -23.5 133.35 -23.5 133.4 -23.45 133.55 -23.35 133.7 -23.05 134.4 -22.85 133.15 -22.8 131.35 -22.4 131.45 -22.2 131.85 -22.1 132.05 -21.95 132.55 -21.9 132.25 -21.95 131.85 -21.95 131.4 -22 131.2 -22.05 130.35 -22.2 129.75 -22.4 129 -22.8 128.45 -23.35 127.75 -24.05 127.65 -26.6 127.25 -28.4 128.6 -28.9 128.95 -29.45 129.55 -30.05 130.3 -30.35 130.7
L -31.1 132.15
Q -31.05 131.35 -30.45 130.6 -29.6 128.8 -27.8 127.65 -27.65 127.55 -27.4 127.5 -26.05 127.15 -25.35 127.05 -24.2 127 -23.35 127.45 -22.7 127.85 -21.95 128.85
M -26.4 130.3
Q -26.9 130.45 -27.25 130.7 -27.7 131.1 -27.95 131.3 -28.4 131.65 -28.75 131.8 -28.65 130.9 -27.7 130.4 -26.8 129.9 -25.5 130.05 -26.1 130.2 -26.4 130.3
M -27.1 132.55
Q -26.15 132.25 -25.4 132.55 -25 132.65 -24.85 132.8 -24.6 133.05 -24.6 133.5 -25.6 132.7 -26.65 132.85 -27.45 132.95 -28.5 133.7 -28.6 133.55 -28.55 133.45 -28.05 132.85 -27.1 132.55
M -25.65 134.35
Q -25.6 134.35 -25.55 134.3 -25.35 134.35 -25.4 134.5 -25.5 134.65 -25.55 134.7 -25.7 134.55 -25.7 134.5 -25.7 134.4 -25.65 134.35
M -39.25 122.5
Q -39.4 122.35 -39.75 122.4 -40.2 122.5 -40.55 122.8 -41 123.25 -41.2 123.85 -41.35 124.35 -41.45 125.15 -41.55 125.35 -41.4 125.45 -41.3 125.5 -41 125.55 -39.65 125.85 -39.25 127.2 -39.15 127.6 -39.1 127.85 -39.1 127.95 -39.05 128 -39 128.05 -38.9 128.05 -38.65 128.1 -38.25 127.8 -37.85 127.55 -37.7 127.3 -37.45 126.7 -37.95 126.25 -38.1 126.1 -38.1 126 -38.05 125.9 -37.85 125.8 -37.35 125.6 -37.25 125.05 -37.15 124.45 -37.5 124.05 -37.6 123.95 -37.9 123.9 -38.1 123.85 -38.4 123.95 -38.8 124.1 -38.85 124.1 -39.1 124.15 -39.15 124.05 -39.25 124 -39.2 123.8 -39.1 123.3 -39.1 122.9 -39.15 122.65 -39.25 122.5 Z"/>

<path fill="#FAFBFB" stroke="none" d="
M -26.15 153.15
Q -26.35 153.15 -26.3 153.3 -26.25 153.6 -26.35 154.15 -26.5 154.8 -26.5 155.05 -26.45 157.15 -26.35 161.45 -26.35 162.05 -26.3 163.3 -26.3 164.35 -26.2 165.1 -26.15 165.45 -26.15 165.55 -26.105078125 165.775 -26 166
L -25.95 166 -25.9 165.75
Q -25.8 164.5 -25.75 162.95 -25.75 162.15 -25.8 160.2 -25.8 159.8 -25.85 159 -25.9 158.2 -25.95 157.8 -26 156.55 -26.05 155.9 -26.1 154.75 -25.9 154 -25.9 153.85 -25.9 153.6 -25.95 153.3 -25.95 153.25 -25.95 153.15 -26 153.15 -26.05 153.15 -26.15 153.15
M -21.25 142.05
Q -21.6 141.7 -21.8 141.7 -22 141.7 -22.4 142.05 -22.55 142.2 -22.5 142.3 -22.5 142.4 -22.35 142.5 -21.5 143 -20.5 144.15 -18.7 146.3 -16.5 149.6 -15.45 151.15 -14.6 152.9
L -14.55 153.05
Q -14.45 153.15 -14.35 153.1 -14.2 153.05 -14.25 152.9 -14.25 152.7 -14.45 152.3 -15.1 151.25 -15.35 150.7 -17.75 146.1 -21.25 142.05
M -36.3 142.85
Q -36.45 142.75 -36.6 142.75 -36.7 142.8 -36.85 142.9 -37 142.95 -37 143.1 -37 143.15 -36.95 143.3 -36.95 143.6 -36.75 143.75 -36.6 143.85 -36.3 143.85 -35.85 143.85 -35.8 143.9 -35.5 143.95 -35.4 144.25 -35.75 144.35 -36.1 144.35 -36.35 144.3 -36.45 144.4 -36.5 144.5 -36.35 144.7 -36.25 144.9 -36.4 145.15 -36.45 145.3 -36.4 145.35 -36.4 145.4 -36.2 145.4 -35.55 145.4 -35.25 145.6 -35.05 145.7 -35 145.6 -34.95 145.6 -34.9 145.4 -34.75 143.8 -36.3 142.85 Z"/>

<path fill="#FDFDFD" stroke="none" d="
M -20.25 166
Q -20.1701171875 165.89140625 -20.15 165.75 -20.05 165.45 -20.1 165.4 -20.2 165.3 -20.5 165.35 -22.95 165.7 -24.8 165.5 -24.95 165.5 -25.05 165.5 -25.2 165.5 -25.2 165.7 -25.2 165.91328125 -25.2 166
L -20.25 166
M -31.8 150.4
Q -31.85 150.45 -32.2 150.45 -32.25 150.45 -32.4 150.4 -32.55 150.4 -32.65 150.4 -33.15 150.4 -33.2 150.45 -33.3 150.55 -33.35 151 -33.4 151.45 -33.4 151.55 -33.4 151.85 -33.3 152.05 -33.25 152.15 -32.95 152.15 -32.8 152.15 -32.5 152.15
L -32.1 152.2
Q -31.85 152.25 -31.7 152.05 -31.3 151.65 -30.95 151.05 -30.5 150.35 -30.25 149.95
L -31.3 149.95
Q -31.5 149.95 -31.5 150.1 -31.55 150.35 -31.8 150.4
M -23.2 148.95
Q -24.1 148.9 -24.8 149.1 -25.55 149.35 -26.15 149.9 -26.6 150.3 -27.5 151.1 -28.3 151.8 -28.7 152.4
L -28.85 152.65
Q -28.95 152.8 -28.85 152.9 -28.8 153 -28.7 152.95 -28.6 152.95 -28.45 152.9 -27.45 152.85 -27 152.75 -26.2 152.5 -25.75 151.9 -25.4 151.45 -24.75 150.9 -24.05 150.35 -23.65 150.05 -23.3 149.7 -23.15 149.55 -22.9 149.25 -22.75 148.95
L -23.2 148.95
M -19.8 152.8
L -20 152.8
Q -20.1 152.8 -20.15 152.8 -20.2 152.85 -20.15 152.9 -20.05 153.25 -20.1 153.75 -20.2 154.45 -20.2 154.6 -20.05 156.65 -19.75 160.75 -19.65 162.5 -19.6 162.9 -19.6 163.05 -19.55 163.1 -19.5 163.1 -19.35 163.05 -18.8 162.85 -18.55 162.45 -18.3 162.1 -18.25 161.5 -18.2 160.85 -18.15 160.55 -18.2 160.3 -18.25 160.15 -18.3 159.9 -18.25 159.75
L -18.75 157.25
Q -18.95 156.35 -19 155.7 -19 154.85 -18.85 154.15 -18.65 153.45 -18.85 153.15 -19.1 152.9 -19.8 152.8
M -45.75 149.1
Q -46.05 149.1 -46.6 149.15 -47.15 149.2 -47.45 149.2 -47.6 149.2 -47.65 149.2 -47.7 149.25 -47.7 149.35 -47.75 149.6 -47.55 149.7 -47.25 149.8 -47.35 149.95 -47.4 150 -47.7 150.2
L -47.25 150.2
Q -45.75 150.1 -42.95 149.95 -41.7 149.85 -39.25 149.7 -36.7 149.6 -34.8 149.7 -34.5 149.7 -33.55 149.9 -32.75 150.05 -32.25 150 -32.15 150 -32 150 -31.85 149.95 -31.9 149.75 -31.9 149.5 -31.9 149.35 -31.95 149.15 -32.2 149.15 -32.9 149.15 -34.25 149.05 -35.6 148.9 -36.3 148.95 -36.65 148.95 -39.25 148.95 -41 148.95 -42.15 149 -44.55 149.05 -45.75 149.1
M -33.15 145.9
Q -33.3 145.9 -33.35 146 -33.95 146.75 -34.15 147.1 -34.6 147.7 -34.8 148.3 -34.85 148.45 -34.8 148.55 -34.75 148.6 -34.6 148.55 -33.85 148.55 -33.6 148.55 -32.65 148.65 -32.45 148.7 -31.85 148.85 -31.55 149.3 -31.45 149.4 -31.35 149.4 -31.3 149.4 -31.15 149.4 -30.45 149.35 -30.05 149.7
L -29.05 148.4
Q -29.95 148.15 -31.15 148 -32.55 147.9 -33.25 147.8 -33.45 147.85 -33.5 147.85 -33.65 147.85 -33.65 147.7 -33.65 147.55 -33.5 147.5 -33.45 147.5 -33.25 147.45 -32.25 147.25 -30.8 147.5 -30.15 147.6 -29.85 147.7 -29.4 147.85 -29.05 148.15 -28.95 148.25 -28.85 148.2 -28.8 148.15 -28.75 148.05 -28.3 147.55 -27.8 146.8 -27.65 146.65 -27.65 146.55 -27.7 146.5 -27.95 146.45 -29.75 146.2 -32.9 145.9 -33.05 145.9 -33.15 145.9
M -31.3 142.6
Q -32.1 142.6 -32.5 142.65 -33.15 142.8 -33.6 143.2 -33.65 143.25 -33.85 143.35 -33.9 143.35 -34.05 143.45 -34.15 143.5 -34.1 143.65 -34 143.85 -33.75 143.85 -33.05 143.8 -32.75 143.8 -28.9 143.75 -26.2 144 -25.85 144 -25.75 144.2 -25.65 144.4 -25.55 144.4 -25.5 144.4 -25.35 144.25 -24.55 143.4 -24.1 142.9 -24.8 142.65 -25.75 142.65 -29.45 142.6 -31.3 142.6
M -38.1 145.3
Q -38 144.8 -38.05 144.45 -38.1 144.35 -38.25 144.3 -38.45 144.3 -38.55 144.3 -39.3 144.25 -41.85 144.2 -44.05 144.15 -45.35 144.45 -45.9 144.6 -46.25 144.8 -46.7 145.1 -46.95 145.65 -46.7 145.65 -46.65 145.65 -42.9 145.4 -40.2 145.35
L -38.35 145.35
Q -38.3 145.35 -38.2 145.35 -38.1 145.35 -38.1 145.3
M -38.4 143.75
Q -38.35 143.6 -38.7 142.9 -38.8 142.65 -38.95 142.6 -39.05 142.55 -39.3 142.65 -39.7 142.8 -40.3 142.8 -42.15 142.75 -43.05 142.75 -44.4 142.7 -45.1 143.85 -44.4 143.9 -43.2 143.8 -40.6 143.8 -39.3 143.85 -38.5 143.9 -38.4 143.75
M -31.5 141.6
Q -32 141.65 -32 142.05 -31.2 142.05 -28.8 142.1 -26.8 142.15 -25.6 142.15 -24.95 142.15 -24.7 142.15 -24.25 142.25 -23.95 142.5 -23.85 142.6 -23.75 142.55 -23.5 142.35 -23 142 -22.55 141.7 -22.35 141.3
L -22.85 141.3
Q -23.9 141.3 -26.75 141.35 -27.6 141.4 -29.1 141.5 -30.75 141.6 -31.5 141.6 Z"/>

<path fill="#131415" stroke="none" d="
M -38.7 122.75
Q -38.7 122.35 -39 122.2 -39.2 122.05 -39.6 122 -40.85 121.95 -41.45 123.45 -41.8 124.3 -41.9 125.35 -41.9 125.45 -41.95 125.6 -41.95 125.7 -42.05 125.7 -42.2 125.75 -42.2 125.65 -42.25 125.5 -42.25 125.45 -42.45 125 -42.65 124.7 -42.75 124.45 -42.95 124.5 -43.05 124.5 -43.05 124.65 -43.05 124.7 -43.05 124.85 -43 125.15 -43 125.7 -43 126.3 -43 126.55 -42.95 126.8 -43.05 126.9 -43.15 126.95 -43.4 126.9 -43.65 126.85 -44.05 126.85 -44.15 126.85 -44.75 126.9 -44.85 126.9 -44.95 126.9 -45.05 126.9 -45.05 127.05 -45.05 127.3 -44.8 127.4 -44.3 127.55 -43.7 127.9 -43.55 128 -43.5 128.1 -43.4 128.2 -43.5 128.45 -43.65 129.1 -43.7 129.7 -43.8 132.95 -43.05 135.9 -42.9 136.5 -42.5 137.55 -42.3 138.25 -41.6 138.9 -40.45 139.9 -40.4 140 -40.25 140.15 -40.15 140.4 -40.1 140.5 -40 140.85 -41 141 -41.5 141.1 -42.4 141.25 -43 141.4 -43.25 141.45 -43.35 141.45 -43.55 141.55 -43.65 141.65 -43.9 141.85 -45.9 143.75 -47.25 145 -48.1 145.9 -48.9 146.75 -50.35 148.35 -51.95 150.05 -52.6 150.8 -53.2 151.4 -53.45 151.85 -53.9 152.5 -54.05 153.1 -53.9 153.15 -53.6 153.25 -53.3 153.35 -53.1 153.35 -53 153.35 -53 153.45 -52.95 153.5 -52.95 153.65
L -53.15 157
Q -53.45 156.5 -53.65 156.15 -53.85 155.65 -53.9 155.2 -53.9 154.9 -54.2 154.75 -54.45 154.55 -54.6 154.75 -54.75 154.95 -55.15 155.3 -55.55 155.6 -55.7 155.85 -56.35 156.7 -56.7 157.25 -56.85 157.45 -57 157.45 -57.1 157.45 -57.25 157.3 -57.85 156.55 -58.1 155.65 -58.25 155.2 -58.75 155.3 -58.95 155.35 -59.25 155.55 -59.7 155.9 -60.15 156.45 -60.4 156.75 -60.85 157.4 -61.05 157.65 -61.1 157.65 -61.2 157.65 -61.3 157.4 -61.45 157.15 -61.7 156.7 -61.95 156.2 -62.05 156 -62.15 155.8 -62.25 155.75 -62.35 155.7 -62.5 155.75 -63.05 155.85 -63.6 156.4 -63.8 156.6 -64.4 157.25 -64.9 157.8 -65.25 158.1
L -65.25 158.55
Q -65.1 158.55 -65.1 158.7 -65.05 158.8 -65.05 158.95 -64.810546875 163.1177734375 -64.7 166
L -64.05 166
Q -64.1 164.7634765625 -64.1 164.4 -64.25 160.8 -64.4 159.25 -64.45 158.6 -64.25 158.15 -64.1 157.65 -63.6 157.25 -63.2 156.95 -62.8 156.5 -62.65 156.3 -62.5 156.35 -62.4 156.35 -62.25 156.55 -61.85 157.15 -61.6 158 -61.6 158.1 -61.45 158.35 -61.4 158.55 -61.55 158.65
L -61.6 158.7 -61.55 158.75
Q -61.2 159 -61.2 159.5 -61.2 159.75 -61.3 160.3 -61.3 161.75 -61.4 164.7 -61.4134765625 165.3716796875 -61.45 166
L -60.85 166
Q -60.8421875 162.4951171875 -60.75 160.65 -60.8 160.15 -60.75 159.45 -60.65 158.4 -60.65 158.25 -60.65 158.1 -60.55 157.95 -60.45 157.75 -60.4 157.7 -59.95 157.05 -59.75 156.75 -59.35 156.25 -58.95 155.95 -58.8 155.85 -58.75 155.8 -58.65 155.8 -58.55 155.95 -58.35 156.3 -57.85 157 -57.5 157.65 -57.3 158.15 -57.2 158.55 -57.25 159.05 -57.3 159.35 -57.4 159.95 -57.63671875 163.1462890625 -57.6 166
L -57.05 166
Q -57.0431640625 163.8263671875 -57 162.4 -56.95 161.15 -56.75 158.6 -56.7 158.35 -56.55 158.05 -56.3 157.7 -56.25 157.55 -55.45 156.2 -54.7 155.6 -54.55 155.45 -54.45 155.5 -54.4 155.5 -54.35 155.7 -53.95 156.65 -53.55 157.55 -53.3 158 -53.3 158.55
L -53.35 161.8
Q -53.35 163.75 -53.35 165.05 -53.3712890625 165.5845703125 -53.4 166
L -52.9 166
Q -52.9 165.8541015625 -52.9 165.7 -52.9 164.45 -52.9 163.85 -52.95 161.7 -52.8 159.9 -52.8 159.5 -52.75 158.95 -52.75 158.75 -52.65 157.95 -52.65 157.75 -52.45 157.55 -52.25 157.3 -52.15 157.15 -51.6 156.25 -50.9 155.6 -50.75 155.4 -50.65 155.45 -50.55 155.45 -50.45 155.65 -50.2 156.05 -49.4 157.55 -49.35 157.65 -49.35 157.9 -49.3 159 -49.3 161.15 -49.25 163.05 -49.35 164.4 -49.4005859375 165.2427734375 -49.45 166
L -48.8 166
Q -48.75 161.0341796875 -48.75 158.3 -48.75 157.3 -48.25 156.25 -47.8 155.3 -47 155 -46.95 155.85 -46.2 156.75 -45.55 157.5 -45.55 158.4
L -45.45 163.85
Q -45.4 164.25 -45.4 164.95 -45.4 165.8 -45.35 166
L -44.9 166
Q -44.95 163.7921875 -44.95 163.3 -45.05 159.2 -45.05 157.15 -45.05 156.2 -45.05 155.8 -45 155.05 -44.8 154.45 -44.65 154.05 -44.7 153.45 -44.8 152.75 -44.9 152.4
L -44.95 152
Q -44.9 151.8 -44.7 151.7 -44.55 151.6 -44.6 151.5 -44.65 151.4 -44.75 151.3 -45.1 151.05 -44.9 150.55 -44.85 150.4 -44.65 150.4 -44.55 150.4 -44.3 150.4 -41.2 150.15 -37.15 150.2 -36.15 150.2 -34.15 150.3 -34 150.3 -33.9 150.35 -33.85 150.4 -33.85 150.55 -33.75 152.35 -33.75 152.7 -33.75 153.9 -34.05 154.85 -34.1 155 -34.1 155.2 -34.1 156.75 -34.15 159.8 -34.15 162.5 -34.15 164.45 -34.15 164.9634765625 -34.15 166
L -33.65 166
Q -33.619921875 165.7490234375 -33.6 165.45 -33.55 164.55 -33.55 164.25 -33.55 164.05 -33.5 164 -33.4 163.95 -33.2 163.95 -33.05 163.95 -32.7 163.95 -32.4 164.05 -32.25 164.35 -32.2 164.5 -32.05 164.5 -31.95 164.5 -31.75 164.4 -31.35 164.25 -31.05 164.3 -30.8 164.35 -30.35 164.65 -29.8 164.95 -29.65 165.05 -29.35 165.35 -29.35 165.8 -29.35 165.9 -29.25 165.9 -29.15 165.85 -29.05 165.8 -28.6 165.5 -28.4 165.5 -28.2 165.5 -27.8 165.75 -27.75 165.8 -27.65 165.8 -27.55 165.8 -27.45 165.8 -27.25 165.75 -27.15 165.8 -27.05 165.8 -27 166
L -26 166
Q -26.105078125 165.775 -26.15 165.55 -26.15 165.45 -26.2 165.1 -26.3 164.35 -26.3 163.3 -26.35 162.05 -26.35 161.45 -26.45 157.15 -26.5 155.05 -26.5 154.8 -26.35 154.15 -26.25 153.6 -26.3 153.3 -26.35 153.15 -26.15 153.15 -26.05 153.15 -26 153.15 -25.95 153.15 -25.95 153.25 -25.95 153.3 -25.9 153.6 -25.9 153.85 -25.9 154 -26.1 154.75 -26.05 155.9 -26 156.55 -25.95 157.8 -25.9 158.2 -25.85 159 -25.8 159.8 -25.8 160.2 -25.75 162.15 -25.75 162.95 -25.8 164.5 -25.9 165.75
L -25.95 166 -25.2 166
Q -25.2 165.91328125 -25.2 165.7 -25.2 165.5 -25.05 165.5 -24.95 165.5 -24.8 165.5 -22.95 165.7 -20.5 165.35 -20.2 165.3 -20.1 165.4 -20.05 165.45 -20.15 165.75 -20.1701171875 165.89140625 -20.25 166
L -19.7 166 -19.6 165.65
Q -19.5 165.45 -19.2 165.45 -19.05 165.45 -19.05 165.35 -19.1 165.2 -19.1 165.15 -19.2 164.9 -19.2 164.8 -19.2 164.65 -18.9 164.6 -18.75 164.55 -18.8 164.45 -18.8 164.3 -18.95 164.2 -19.3 163.9 -19.25 163.7 -19.25 163.5 -18.8 163.3 -18.4 163.15 -18.25 163.1 -18 162.95 -17.85 162.7 -17.8 162.6 -17.75 162.6 -17.65 162.55 -17.6 162.65 -17.5 162.9 -17.3 162.9 -17.15 162.9 -16.9 162.75 -16.05 162.25 -15.35 162.95 -15.3 163 -15.15 163 -14.65 162.95 -14.55 163.35 -14.55 163.4 -14.5 163.5 -14.45 163.55 -14.4 163.55 -14.15 163.55 -13.8 163.8 -13.4 164.1 -13.2 164.15 -12.55 164.3 -12.55 164.9 -12.55 165.1 -12.5 165.2 -12.4 165.25 -12.2 165.2 -11.85 165.1 -11.75 165.2 -11.65 165.35 -11.65 165.7 -11.6216796875 165.8419921875 -11.7 166
L -11 166
Q -11.040625 165.8806640625 -11.1 165.75 -11.55 164.6 -12.95 163.75 -13.3 163.5 -13.9 163.1 -14.55 162.6 -14.85 162.4 -15.15 162.25 -15.15 162 -15.15 161.75 -14.8 161.55 -14.55 161.35 -14.5 161.3 -14.35 160.95 -13.95 160.85 -13.75 160.75 -13.25 160.65 -13.1 160.6 -12.95 160.65 -12.8 160.7 -12.75 160.9 -12.75 161.1 -12.45 161.1 -12.1 161.1 -11.9 161.25 -11.75 161.4 -11.75 161.75 -11.75 162 -11.7 162.1 -11.6 162.25 -11.35 162.25 -11.1 162.25 -11 162.5 -10.95 162.55 -10.8 162.95 -10.75 163.1 -10.7 163.35 -10.55 163.5 -10.3 163.45 -10.2 163.45 -10.15 163.5 -10.1 163.6 -10.1 163.65 -10.15 163.95 -9.95 164.1 -9.8 164.2 -9.5 164.25 -9.05 164.3 -8.75 164.6 -8.4 164.85 -8.3 165.25 -8.1 165.7 -8.05 165.8 -7.9 166 -7.5 165.9
L -7.45 165.9
Q -7.4583984375 165.95 -7.45 166
L -6.85 166
Q -7.4380859375 165.2685546875 -8.7 164.1 -8.85 163.95 -9.35 163.6 -9.8 163.3 -10 163 -10.45 162.5 -10.7 162.25 -11.1 161.8 -11.3 161.4 -11.5 161 -11.9 160.7 -12.25 160.5 -12.8 160.4 -13.35 160.25 -13.95 160.35 -14.15 160.4 -14.2 160.4 -14.3 160.35 -14.3 160.15 -14.35 157.2 -14.6 155 -14.6 154.7 -14.5 154.6 -14.4 154.5 -14.15 154.5 -14 154.5 -13.65 154.55 -13.4 154.5 -13.25 154.25 -13.1 154.05 -13.05 153.85 -13.05 153.65 -13.15 153.4 -13.3 153.15 -13.85 151.95 -14.25 151.1 -14.6 150.6 -15.65 149.05 -16.05 148.2 -16.9 146.45 -18.15 144.6 -19.15 143.1 -20.65 141.25 -21.1 140.7 -21.8 140.7 -22.75 140.75 -24.3 140.8 -26.1 140.85 -26.8 140.85 -27.15 140.9 -28.15 140.95 -29 141 -29.5 141 -30.05 141.05 -30.35 141.05 -30.9 141.1 -31.3 141.05 -31 140.85 -30.45 140.6 -30.05 140.35 -29.75 140.1 -29.1 139.65 -28.8 139.3 -28.35 138.75 -28.3 138.15 -28.25 138 -28.15 137.25 -28.1 136.65 -27.5 135.95 -26.85 135.25 -26.25 135.15 -25.9 135.1 -25.7 135.25 -25.45 135.45 -25.4 135.8 -25.2 136.9 -25.7 137.9 -25.85 138.1 -25.9 138.2 -26 138.35 -25.9 138.45 -25.75 138.5 -25.55 138.4 -25.35 138.35 -25.2 138.15 -25.1 138.1 -25.05 137.95 -24.35 136.95 -23.8 135.75 -23.75 136 -23.75 136.25 -23.75 136.3 -23.8 136.65 -23.85 136.7 -23.9 136.85 -23.9 136.95 -23.75 137 -23.65 137.05 -23.6 136.95 -23.55 136.9 -23.5 136.75 -23.3 136.35 -23.15 135.75 -22.95 135.05 -22.85 134.7
L -22.5 133.4
Q -22.4 133.6 -22.4 133.95 -22.45 134.4 -22.45 134.45 -22.2 134.55 -22.1 134.4 -22 134.3 -21.9 134.1 -21.55 133.35 -21.45 132.3 -21.4 132.1 -21.45 131.55 -21.45 131.05 -21.4 130.75 -21.15 131.3 -21.1 131.95 -21.1 132 -21.1 132.1 -21.05 132.15 -21 132.15 -20.85 132.15 -20.75 132.05 -20.7 131.95 -20.65 131.75 -19.85 128.8 -21.95 126.1 -23.55 123.95 -26.2 124.2 -28.2 124.35 -29.85 125.45 -31.3 126.4 -32.2 127.95 -33.55 130.15 -33.35 132.45 -33.35 132.65 -33.25 133 -33.15 133.35 -33.3 133.45 -33.45 133.6 -33.8 133.55 -34.2 133.45 -34.35 133.45 -36.85 133.15 -38 131.05 -38.35 130.35 -38.8 129.05 -38.95 128.65 -38.85 128.55 -38.85 128.45 -38.4 128.35 -37.7 128.15 -37.4 127.8 -37.15 127.45 -37.2 126.7 -37.25 126.1 -36.95 125.6 -36.55 124.95 -36.85 124.3 -37.1 123.7 -37.85 123.55 -38.25 123.5 -38.45 123.3 -38.65 123.1 -38.7 122.75
M -39.75 122.4
Q -39.4 122.35 -39.25 122.5 -39.15 122.65 -39.1 122.9 -39.1 123.3 -39.2 123.8 -39.25 124 -39.15 124.05 -39.1 124.15 -38.85 124.1 -38.8 124.1 -38.4 123.95 -38.1 123.85 -37.9 123.9 -37.6 123.95 -37.5 124.05 -37.15 124.45 -37.25 125.05 -37.35 125.6 -37.85 125.8 -38.05 125.9 -38.1 126 -38.1 126.1 -37.95 126.25 -37.45 126.7 -37.7 127.3 -37.85 127.55 -38.25 127.8 -38.65 128.1 -38.9 128.05 -39 128.05 -39.05 128 -39.1 127.95 -39.1 127.85 -39.15 127.6 -39.25 127.2 -39.65 125.85 -41 125.55 -41.3 125.5 -41.4 125.45 -41.55 125.35 -41.45 125.15 -41.35 124.35 -41.2 123.85 -41 123.25 -40.55 122.8 -40.2 122.5 -39.75 122.4
M -21.5 129.55
Q -21.75 129.05 -21.95 128.85 -22.7 127.85 -23.35 127.45 -24.2 127 -25.35 127.05 -26.05 127.15 -27.4 127.5 -27.65 127.55 -27.8 127.65 -29.6 128.8 -30.45 130.6
L -30.35 130.7
Q -30.05 130.3 -29.45 129.55 -28.9 128.95 -28.4 128.6 -26.6 127.25 -24.05 127.65 -23.35 127.75 -22.8 128.45 -22.4 129 -22.2 129.75 -22.05 130.35 -22 131.2 -21.95 131.4 -21.95 131.85 -21.9 132.25 -21.95 132.55 -22.1 132.05 -22.2 131.85 -22.4 131.45 -22.8 131.35 -22.85 133.15 -23.05 134.4 -23.35 133.7 -23.45 133.55 -23.5 133.4 -23.5 133.35 -23.55 133.3 -23.6 133.3 -23.7 133.3 -23.75 133.4 -23.8 133.4 -23.8 133.55
L -24.2 135.5
Q -24.25 135.7 -24.4 136.1 -24.45 135.4 -25.5 135 -26.5 134.65 -27.1 135.05 -28.2 135.8 -28.65 136.95 -28.75 137.2 -29.15 137.4 -29.55 137.6 -29.7 137.45 -29.85 137.3 -30.05 137.3 -30.35 137.3 -30.45 137.2
L -28.8 136.2
Q -29.15 136.2 -29.55 136.35 -29.95 136.55 -30.2 136.65
L -30.45 136.75
Q -30.6 136.85 -30.7 136.9 -30.8 136.95 -30.85 136.85 -31.05 136.4 -30.75 136.25 -30.4 136.05 -30 135.7 -29.8 135.5 -29.3 135.05 -29.5 134.95 -29.75 135.05 -30.05 135.15 -30.15 135.15
L -30.15 135.1
Q -30.05 134.9 -30.05 134.85 -30 134.7 -30.1 134.65 -30.2 134.55 -30.3 134.65 -30.4 134.65 -30.55 134.75
L -30.95 135.05
Q -31.15 134.7 -31.3 134.65 -31.45 134.65 -32.2 134.95 -31.95 134.45 -31.85 134.2 -31.7 133.8 -31.65 133.45 -31.6 133.1 -31.7 133 -31.8 132.9 -32.15 133 -32.2 133 -32.45 133.15 -32.6 133.25 -32.7 133.2 -32.75 133.1 -32.75 132.9 -32.75 132.65 -32.75 132.55 -32.8 131.85 -32.8 131.7 -32.75 129.25 -31.05 127.2 -29.45 125.25 -27.25 124.8 -24.5 124.25 -22.9 125.75 -21.55 126.95 -21.1 129.15 -20.95 129.75 -21.05 130.35 -21.25 130.1 -21.5 129.55
M -39.85 129.1
Q -40.1 128.8 -40.2 129.2 -40.3 129.5 -40.35 130 -40.35 130.7 -40.4 130.75 -40.55 130.6 -40.65 130.25 -40.85 129.85 -40.9 129.75 -40.95 129.6 -41 129.5 -41.1 129.4 -41.3 129.4 -41.45 129.4 -41.5 129.55 -41.5 129.65 -41.55 129.85 -41.75 130.3 -42 131.6 -42.15 131.55 -42.2 131.4
L -42.25 131.15
Q -42.35 131.05 -42.35 131 -42.4 130.9 -42.55 130.9 -42.75 130.85 -42.9 131.1 -43.15 131.55 -43.3 131.7 -43.35 130.6 -43.15 129.15 -43.1 128.9 -43.1 128.8 -43.1 128.6 -43 128.45 -42.8 128.15 -42.9 128 -43 127.85 -43.3 127.7 -43.45 127.65 -44.1 127.3
L -44.05 127.2 -43.05 127.2
Q -42.75 127.25 -42.65 127.1 -42.5 126.95 -42.55 126.65 -42.55 126.55 -42.55 125.85
L -42.4 126.3
Q -42.25 126.65 -41.95 126.35 -41.6 125.9 -41.25 125.85 -40.9 125.85 -40.45 126.2 -39.7 126.8 -39.65 127.6 -39.6 128.3 -39.55 128.5 -39.5 129.05 -39.2 129.4 -39.05 129.6 -39.15 129.8
L -39.85 129.1
M -40 132.1
Q -39.85 131.6 -39.85 130.9 -39.85 129.95 -39.85 129.7 -38.85 130.65 -38.65 130.9 -38 131.6 -37.7 132.3 -37.6 132.6 -37.35 133.05 -37.2 133.25 -36.95 133.75 -37.3 133.8 -37.35 134.05 -37.35 134.15 -37.25 134.5 -37.2 134.85 -37.25 134.95 -37.35 135.05 -37.65 135 -38.2 134.95 -38.05 135.5 -38 135.75 -37.85 136.85 -37.55 136.5 -37.6 136.05 -37.75 135.55 -37.75 135.3
L -37.7 135.3
Q -37.6 135.25 -37.2 135.3 -36.9 135.3 -36.8 135.15 -36.7 135 -36.75 134.75 -36.85 134.4 -36.85 134.3
L -36.8 134.25
Q -36.65 134.25 -36.45 134.3 -36.25 134.35 -36.15 134.2 -36.05 134.1 -36.2 133.95 -36.35 133.75 -36.4 133.7 -36.5 133.6 -36.5 133.55 -36.55 133.45 -36.55 133.3
L -35.2 133.75
Q -33.8 134.25 -32.65 133.65 -32.25 133.45 -32.15 133.55 -32.1 133.6 -32.2 134.1
L -32.35 134.65
Q -32.45 134.95 -32.35 135.05 -32.25 135.15 -31.95 135.1 -31.9 135.1 -31.55 135 -31.55 135.4 -31.8 135.8 -31.8 135.85 -31.95 136.05 -32.05 136.2 -32.1 136.35 -32.15 136.45 -32.25 136.65 -32.35 136.9 -32.25 137 -32.15 137.1 -32 136.95 -31.75 136.8 -31.7 136.8
L -31.6 136.75
Q -31.5 136.7 -31.45 136.7 -31.4 136.75 -31.4 136.85 -31.4 136.9 -31.45 136.95 -31.6 137.6 -31.95 138.3 -32.25 138.8 -32.75 139.45 -32.85 139.55 -33.05 139.6 -33.25 139.7 -33.35 139.75 -34.35 140.1 -34.95 140.25 -35.85 140.4 -36.6 140.2 -37.15 140.1 -37.7 139.75 -38 139.55 -38.65 139.05 -39.25 138.65 -39.75 137.8 -40.25 136.85 -40.55 136.35 -40.6 136.6 -40.55 136.8 -40.5 137.05 -40.35 137.3 -39.55 138.85 -38.5 139.65 -37.35 140.65 -35.75 140.8 -35.1 140.9 -34.4 140.65 -33.8 140.5 -33.15 140.1 -33 140 -32.8 139.85 -32.55 139.65 -32.45 139.6 -31.9 139.2 -31.75 138.65 -31.45 137.5 -30.05 137.65
L -30.65 138.15
Q -30.4 138.15 -30.1 138.05 -29.95 137.95 -29.65 137.8 -29.4 137.7 -29.3 137.75 -29.2 137.8 -29.35 138.1
L -28.8 137.95
Q -28.8 138.35 -29 138.7 -29.15 138.95 -29.5 139.3 -30.25 140 -31.35 140.45 -31.8 140.65 -32 141 -32.75 142.6 -34.65 143.1 -35.1 143.2 -35.5 142.95 -35.9 142.6 -36.1 142.45 -36.5 142.15 -36.8 142 -36.9 142.05 -36.8 142.3 -36.75 142.45 -37 142.55 -37.4 142.65 -37.7 142.65 -38.05 142.65 -38.35 142.4 -38.95 141.9 -39.25 141.05 -39.45 140.55 -39.95 139.8 -40.55 138.95 -40.7 138.65 -40.8 138.55 -40.85 138.5 -41.5 138.25 -41.85 137.65 -42.05 137.3 -42.35 136.45 -42.85 134.95 -43.05 132.8 -43.05 132.5 -42.9 132.1 -42.7 131.6 -42.65 131.3
L -42.1 132.6
Q -41.95 132.9 -41.75 132.85 -41.65 132.85 -41.65 132.7 -41.6 132.55 -41.6 132.5 -41.6 131.5 -41.3 130.05 -41.05 130.4 -40.75 131.15 -40.45 131.75 -40 132.1
M -31.25 135.85
Q -31.1 135.75 -30.75 135.55 -30.8 135.95 -31 136.15 -31.15 136.35 -31.55 136.3 -31.5 136.05 -31.25 135.85
M -32 142.05
Q -32 141.65 -31.5 141.6 -30.75 141.6 -29.1 141.5 -27.6 141.4 -26.75 141.35 -23.9 141.3 -22.85 141.3
L -22.35 141.3
Q -22.55 141.7 -23 142 -23.5 142.35 -23.75 142.55 -23.85 142.6 -23.95 142.5 -24.25 142.25 -24.7 142.15 -24.95 142.15 -25.6 142.15 -26.8 142.15 -28.8 142.1 -31.2 142.05 -32 142.05
M -40.25 141.5
Q -39.7 141.5 -39.55 141.6 -39.45 141.75 -39.2 142.3 -39.8 142.3 -41.15 142.3 -42.4 142.3 -43.05 142.3
L -43.25 142.35
Q -43.3 142.35 -43.35 142.25 -43.35 142.15 -43.25 142.1 -43.2 142.05 -43.1 142.05 -41.7 141.5 -40.25 141.5
M -36.6 142.75
Q -36.45 142.75 -36.3 142.85 -34.75 143.8 -34.9 145.4 -34.95 145.6 -35 145.6 -35.05 145.7 -35.25 145.6 -35.55 145.4 -36.2 145.4 -36.4 145.4 -36.4 145.35 -36.45 145.3 -36.4 145.15 -36.25 144.9 -36.35 144.7 -36.5 144.5 -36.45 144.4 -36.35 144.3 -36.1 144.35 -35.75 144.35 -35.4 144.25 -35.5 143.95 -35.8 143.9 -35.85 143.85 -36.3 143.85 -36.6 143.85 -36.75 143.75 -36.95 143.6 -36.95 143.3 -37 143.15 -37 143.1 -37 142.95 -36.85 142.9 -36.7 142.8 -36.6 142.75
M -37.2 143.6
L -37.15 143.7
Q -36.75 144.6 -36.8 144.9 -36.9 145.2 -37.6 145.95 -38.15 146.55 -38.5 147 -38.9 147.6 -39.1 148.25 -39.15 148.5 -39.35 148.5
L -40.5 148.5 -40.45 148.35
Q -39.95 148.3 -39.6 147.95 -39.35 147.75 -39 147.15 -38.35 146.15 -38 145.8 -37.6 145.35 -37.6 144.75 -37.6 144.35 -37.85 143.7
L -38.15 143
Q -37.75 143 -37.55 143.1 -37.3 143.25 -37.2 143.6
M -38.7 142.9
Q -38.35 143.6 -38.4 143.75 -38.5 143.9 -39.3 143.85 -40.6 143.8 -43.2 143.8 -44.4 143.9 -45.1 143.85 -44.4 142.7 -43.05 142.75 -42.15 142.75 -40.3 142.8 -39.7 142.8 -39.3 142.65 -39.05 142.55 -38.95 142.6 -38.8 142.65 -38.7 142.9
M -38.05 144.45
Q -38 144.8 -38.1 145.3 -38.1 145.35 -38.2 145.35 -38.3 145.35 -38.35 145.35
L -40.2 145.35
Q -42.9 145.4 -46.65 145.65 -46.7 145.65 -46.95 145.65 -46.7 145.1 -46.25 144.8 -45.9 144.6 -45.35 144.45 -44.05 144.15 -41.85 144.2 -39.3 144.25 -38.55 144.3 -38.45 144.3 -38.25 144.3 -38.1 144.35 -38.05 144.45
M -38.4 145.8
Q -38.55 146.15 -38.85 146.5 -39 146.7 -39.3 147.1 -39.35 147.2 -39.45 147.2 -39.55 147.2 -39.65 147.2
L -44.6 147.4
Q -45.25 147.4 -48.55 147.65 -48.8 147.65 -48.95 147.6 -48.6 147 -48.3 146.7 -47.9 146.3 -47.3 146.2 -44.65 145.85 -41.8 145.8 -41.35 145.8 -40.15 145.8 -39.05 145.85 -38.4 145.8
M -38.05 147.45
Q -38.05 147.55 -38 147.55 -37.95 147.6 -37.85 147.6 -37.6 147.7 -37.25 147.75 -37.05 147.75 -36.6 147.75 -36.9 148.55 -37.75 148.5 -37.85 148.45 -37.9 148.5 -38.4 148.5 -38.5 148.35 -38.65 148.2 -38.45 147.7 -38.3 147.2 -37.8 146.65 -37.2 146.1 -36.9 145.8 -36.8 145.75 -36.65 145.8
L -36.35 145.85
Q -36.2 145.85 -35.95 145.9 -35.7 145.9 -35.5 145.9 -35.25 145.9 -35.25 146 -35.2 146.1 -35.35 146.25 -35.65 146.8 -36 147 -36.45 147.3 -37 147.25 -37.2 147.2 -37.45 147.25 -37.7 147.25 -37.85 147.25 -38.05 147.3 -38.05 147.45
M -36.35 148.25
Q -36.2 148.05 -36.15 147.95 -35.5 147.1 -35.2 146.65 -34.65 145.85 -34.5 145.2 -34.4 144.85 -34.55 144.4
L -34.9 143.6
Q -34.4 143.65 -34.3 144.1 -34.2 144.7 -33.85 145.15 -33.7 145.4 -33.75 145.55 -33.75 145.7 -33.95 145.9 -34.4 146.3 -34.75 147 -35 147.4 -35.4 148.25 -35.5 148.4 -35.55 148.45 -35.6 148.55 -35.75 148.6 -36.1 148.6 -36.15 148.6 -36.35 148.6 -36.45 148.5 -36.45 148.4 -36.35 148.25
M -32.5 142.65
Q -32.1 142.6 -31.3 142.6 -29.45 142.6 -25.75 142.65 -24.8 142.65 -24.1 142.9 -24.55 143.4 -25.35 144.25 -25.5 144.4 -25.55 144.4 -25.65 144.4 -25.75 144.2 -25.85 144 -26.2 144 -28.9 143.75 -32.75 143.8 -33.05 143.8 -33.75 143.85 -34 143.85 -34.1 143.65 -34.15 143.5 -34.05 143.45 -33.9 143.35 -33.85 143.35 -33.65 143.25 -33.6 143.2 -33.15 142.8 -32.5 142.65
M -33.7 144.6
Q -33.8 144.35 -33.75 144.3 -33.7 144.2 -33.4 144.2 -31.95 144.2 -30.6 144.15 -28.4 144.05 -26.2 144.45
L -25.75 144.55
Q -26.1 145 -26.6 145.5 -26.75 145.7 -27.45 146.4 -27.5 146.15 -27.65 146.05 -27.8 146 -28.05 145.95 -29.45 145.75 -30.15 145.65 -31.4 145.5 -32.3 145.55 -33.4 145.55 -33.7 144.6
M -33.35 146
Q -33.3 145.9 -33.15 145.9 -33.05 145.9 -32.9 145.9 -29.75 146.2 -27.95 146.45 -27.7 146.5 -27.65 146.55 -27.65 146.65 -27.8 146.8 -28.3 147.55 -28.75 148.05 -28.8 148.15 -28.85 148.2 -28.95 148.25 -29.05 148.15 -29.4 147.85 -29.85 147.7 -30.15 147.6 -30.8 147.5 -32.25 147.25 -33.25 147.45 -33.45 147.5 -33.5 147.5 -33.65 147.55 -33.65 147.7 -33.65 147.85 -33.5 147.85 -33.45 147.85 -33.25 147.8 -32.55 147.9 -31.15 148 -29.95 148.15 -29.05 148.4
L -30.05 149.7
Q -30.45 149.35 -31.15 149.4 -31.3 149.4 -31.35 149.4 -31.45 149.4 -31.55 149.3 -31.85 148.85 -32.45 148.7 -32.65 148.65 -33.6 148.55 -33.85 148.55 -34.6 148.55 -34.75 148.6 -34.8 148.55 -34.85 148.45 -34.8 148.3 -34.6 147.7 -34.15 147.1 -33.95 146.75 -33.35 146
M -21.8 141.7
Q -21.6 141.7 -21.25 142.05 -17.75 146.1 -15.35 150.7 -15.1 151.25 -14.45 152.3 -14.25 152.7 -14.25 152.9 -14.2 153.05 -14.35 153.1 -14.45 153.15 -14.55 153.05
L -14.6 152.9
Q -15.45 151.15 -16.5 149.6 -18.7 146.3 -20.5 144.15 -21.5 143 -22.35 142.5 -22.5 142.4 -22.5 142.3 -22.55 142.2 -22.4 142.05 -22 141.7 -21.8 141.7
M -22.95 142.7
Q -22.85 142.75 -22.65 142.9 -21.35 143.6 -20.2 144.95 -19.75 145.5 -18.35 147.5 -16.45 150.1 -15.55 151.85 -14.9 153.15 -15.1 154.35 -15.2 154.85 -15.1 155.5 -15.1 155.9 -15 156.7 -14.85 158.55 -15 160.8 -15 160.95 -15.1 161.1 -15.1 161.2 -15.3 161.4 -15.45 161.65 -15.85 161.85 -16.2 162.05 -16.5 162.1 -16.8 162.2 -16.95 162.05 -17.05 161.95 -17.05 161.6 -17.05 160.2 -17.25 158.45 -17.3 157.45 -17.55 155.25 -17.65 154.35 -17.5 153.75 -17.35 153.45 -17.4 153.25 -17.45 153 -17.7 152.75 -19.1 151.3 -19.4 150.95 -20.4 150.05 -21.35 149.5 -21.5 149.45 -21.5 149.4 -21.8 148.75 -22.5 148.6 -23.35 148.55 -23.75 148.45 -24.4 148.35 -24.95 148.55 -25.45 148.75 -25.95 149.25 -26.5 149.7 -27.6 150.65 -28.55 151.5 -29.1 152.2 -29.15 152.3 -29.4 152.65 -29.55 152.85 -29.5 153 -29.5 153.15 -29.35 153.3 -29.1 153.5 -29.05 153.75 -29 154 -29.15 154.25 -29.3 154.55 -29.3 155 -29.35 155.3 -29.3 155.75 -29.25 156.1 -29.25 156.65 -29.25 156.95 -29.25 157.55 -29.2 159 -29.15 161.9
L -29.15 164.85
Q -29.8 164.35 -30.35 164.1 -31.05 163.8 -31.75 163.85 -32 163.9 -32.25 163.8 -32.6 163.7 -32.7 163.5 -32.85 163.3 -32.85 162.95 -32.85 162.2 -32.9 160.6 -32.9 159.05 -32.9 158.25 -32.9 157.2 -32.9 156.65 -32.9 155.75 -32.8 155.1 -32.6 154.05 -32.5 152.8 -32.45 152.55 -32.2 152.55 -31.85 152.65 -31.55 152.45 -31.3 152.3 -31.05 151.9 -28.65 148.55 -27.05 146.7 -26.3 145.8 -25.25 144.7 -24.6 144.05 -23.35 142.8 -23.15 142.65 -22.95 142.7
M -49.55 148.25
Q -49.45 148.15 -49.35 148.15 -48.6 148.15 -47.4 148.05 -45.8 147.85 -45.4 147.85 -44 147.75 -42.55 147.75 -42.15 147.7 -40 147.7 -40.65 148.2 -41.45 148.4 -42.1 148.55 -43 148.55 -44.4 148.6 -45.15 148.6 -46.35 148.7 -47.3 148.85 -47.75 148.9 -47.85 148.95 -48.15 149.1 -48.15 149.5 -48.1 149.6 -48.2 149.65 -48.25 149.65 -48.35 149.65
L -50.8 149.65
Q -50.2 148.9 -49.55 148.25
M -45.55 150.55
Q -45.5 150.6 -45.5 150.8 -45.45 151 -45.5 151.05 -45.55 151.15 -45.75 151.15 -46.4 151.2 -52.4 151.6 -52 150.75 -51.65 150.5 -51.25 150.1 -50.5 150.2 -50.1 150.2 -49.5 150.2 -49.15 150.15 -48.5 150.1 -48.3 150.1 -48.25 150.15 -48.1 150.2 -48.1 150.4 -48.1 150.75 -47.7 150.7 -47.4 150.65 -46.75 150.6 -46.2 150.55 -45.85 150.5 -45.65 150.5 -45.55 150.55
M -45.4 152.95
Q -45.35 153.05 -45.3 153.3 -45.2 153.9 -45.4 155 -45.7 156.15 -45.65 156.75 -46 156.35 -46.2 156 -46.4 155.6 -46.45 155.2 -46.45 155 -46.6 154.7 -46.8 154.35 -46.95 154.3 -47.15 154.3 -47.4 154.6 -48.6 156 -49.25 157.05 -49.8 155.9 -50.05 155.35 -50.3 154.9 -50.4 154.9 -50.5 154.85 -50.9 155.15 -51.25 155.45 -51.7 155.95 -51.9 156.2 -52.4 156.85 -52.5 156.25 -52.5 156.1 -52.55 155.75 -52.45 155.45 -52.25 154.8 -52.35 153.75 -52.4 153.45 -52.3 153.35 -52.2 153.25 -51.9 153.2 -49 152.9 -45.75 152.85 -45.5 152.85 -45.4 152.95
M -45.35 152
Q -45.35 152.2 -45.4 152.25 -45.5 152.35 -45.7 152.35 -46.2 152.4 -48.9 152.55 -50.85 152.65 -52.1 152.8 -52.7 152.9 -53.35 152.65 -53.2 152.3 -52.9 152.15 -52.65 152 -52.25 152 -50.9 151.95 -49 151.85 -47.9 151.8 -45.75 151.7 -45.5 151.7 -45.45 151.7 -45.35 151.75 -45.35 152
M -46.6 149.15
Q -46.05 149.1 -45.75 149.1 -44.55 149.05 -42.15 149 -41 148.95 -39.25 148.95 -36.65 148.95 -36.3 148.95 -35.6 148.9 -34.25 149.05 -32.9 149.15 -32.2 149.15 -31.95 149.15 -31.9 149.35 -31.9 149.5 -31.9 149.75 -31.85 149.95 -32 150 -32.15 150 -32.25 150 -32.75 150.05 -33.55 149.9 -34.5 149.7 -34.8 149.7 -36.7 149.6 -39.25 149.7 -41.7 149.85 -42.95 149.95 -45.75 150.1 -47.25 150.2
L -47.7 150.2
Q -47.4 150 -47.35 149.95 -47.25 149.8 -47.55 149.7 -47.75 149.6 -47.7 149.35 -47.7 149.25 -47.65 149.2 -47.6 149.2 -47.45 149.2 -47.15 149.2 -46.6 149.15
M -14.4 153.6
Q -14.35 153.5 -14.15 153.5 -13.8 153.5 -13.8 153.85 -13.8 154.05 -13.95 154.05 -14.1 154.05 -14.2 154.05 -14.35 154.05 -14.4 154.05 -14.5 154 -14.5 153.85 -14.45 153.65 -14.4 153.6
M -18.4 153.05
Q -18.35 152.95 -18.25 152.95 -18.15 152.95 -18.1 152.95 -18 153 -17.95 153.1 -17.8 153.6 -17.9 153.85 -18.1 154.45 -18 155.35 -17.85 156.75 -17.85 156.8 -17.85 157.9 -17.7 160.05
L -17.7 160.65
Q -17.65 161 -17.65 161.2 -17.6 161.55 -17.65 161.7 -17.7 161.95 -17.95 162.05
L -18.1 160.55 -18.15 160.55
Q -18.2 160.85 -18.25 161.5 -18.3 162.1 -18.55 162.45 -18.8 162.85 -19.35 163.05 -19.5 163.1 -19.55 163.1 -19.6 163.05 -19.6 162.9 -19.65 162.5 -19.75 160.75 -20.05 156.65 -20.2 154.6 -20.2 154.45 -20.1 153.75 -20.05 153.25 -20.15 152.9 -20.2 152.85 -20.15 152.8 -20.1 152.8 -20 152.8
L -19.8 152.8
Q -19.1 152.9 -18.85 153.15 -18.65 153.45 -18.85 154.15 -19 154.85 -19 155.7 -18.95 156.35 -18.75 157.25
L -18.25 159.75 -18.15 159.75
Q -18.15 159 -18.25 157.85 -18.35 156.2 -18.35 156 -18.4 155.1 -18.4 154.8 -18.45 154.15 -18.35 153.6 -18.35 153.5 -18.4 153.2
L -18.4 153.05
M -20.25 162.7
L -20.25 163.15
Q -20.25 163.65 -20.35 163.75 -20.45 163.85 -21 163.85 -20.95 163.45 -21.05 162.85 -21.1 162 -21.1 161.9 -21.15 161.25 -21.25 159.95 -21.4 158.65 -21.4 158 -21.45 157.35 -21.7 156.35 -22 155.15 -22.05 154.75 -22.2 153.75 -23.05 153.35 -23.75 152.95 -24.65 153.2 -25 153.3 -25.1 153.3 -25.25 153.35 -25.3 153.35 -25.4 153.35 -25.4 153.25 -25.45 153.1 -25.35 153.05
L -25.2 153.05 -23.1 152.75
Q -22.6 152.7 -21.2 152.7 -20.9 152.7 -20.75 152.85 -20.6 152.95 -20.6 153.35 -20.5 156.85 -20.3 159.4 -20.25 160.5 -20.25 162.7
M -19.95 164.35
Q -19.8 164.35 -19.75 164.35 -19.65 164.35 -19.65 164.5 -19.65 164.75 -19.95 164.75 -20 164.75 -22.35 164.95
L -24.85 165.15
Q -25.1 165.2 -25.2 165.1 -25.3 165.05 -25.25 164.8 -25.25 164.6 -25.2 164.5 -25.1 164.45 -24.9 164.5 -22.75 164.55 -21.05 164.4 -20.9 164.4 -20.5 164.4 -20.15 164.4 -19.95 164.35
M -22.55 149.55
Q -22.35 149.35 -22.05 149.5 -20.1 150.45 -18.75 152.4 -20.3 152.1 -22.25 152.15 -23.25 152.2 -25.7 152.5 -25.1 151.75 -24.2 150.95 -23.95 150.75 -22.55 149.55
M -24.8 149.1
Q -24.1 148.9 -23.2 148.95
L -22.75 148.95
Q -22.9 149.25 -23.15 149.55 -23.3 149.7 -23.65 150.05 -24.05 150.35 -24.75 150.9 -25.4 151.45 -25.75 151.9 -26.2 152.5 -27 152.75 -27.45 152.85 -28.45 152.9 -28.6 152.95 -28.7 152.95 -28.8 153 -28.85 152.9 -28.95 152.8 -28.85 152.65
L -28.7 152.4
Q -28.3 151.8 -27.5 151.1 -26.6 150.3 -26.15 149.9 -25.55 149.35 -24.8 149.1
M -25 153.8
Q -24.45 153.65 -24.1 153.6 -23.6 153.6 -23.2 153.75 -23 153.8 -22.9 153.9 -22.8 154.05 -22.75 154.2 -21.85 156.95 -21.8 159.9 -21.8 160.65 -21.7 161.7 -21.65 162.35 -21.55 163.55 -21.55 163.7 -21.6 163.75 -21.65 163.85 -21.85 163.85 -23.8 163.95 -24.8 164 -25.05 164.05 -25.1 163.95 -25.2 163.85 -25.2 163.6 -25.2 163.45 -25.25 162.7 -25.55 157 -25.55 156.75 -25.6 155.4 -25.65 154.7 -25.7 154.4 -25.45 154.15 -25.25 153.85 -25 153.8
M -28.6 153.7
Q -28.6 153.4 -28.3 153.35 -28.1 153.35 -27.75 153.3 -27.05 153.2 -26.85 153.4 -26.65 153.6 -26.8 154.3 -26.9 154.9 -26.9 155.8 -26.9 156.3 -26.9 157.3
L -26.85 157.5 -26.75 165.35 -26.8 165.6
Q -27.2 165.35 -27.3 165.3 -27.6 165.2 -27.8 165.15 -28.1 165.1 -28.25 164.95 -28.35 164.8 -28.35 164.45 -28.6 161.4 -28.65 159.9 -28.75 157.35 -28.7 155.35 -28.65 154.25 -28.6 153.7
M -32.2 150.45
Q -31.85 150.45 -31.8 150.4 -31.55 150.35 -31.5 150.1 -31.5 149.95 -31.3 149.95
L -30.25 149.95
Q -30.5 150.35 -30.95 151.05 -31.3 151.65 -31.7 152.05 -31.85 152.25 -32.1 152.2
L -32.5 152.15
Q -32.8 152.15 -32.95 152.15 -33.25 152.15 -33.3 152.05 -33.4 151.85 -33.4 151.55 -33.4 151.45 -33.35 151 -33.3 150.55 -33.2 150.45 -33.15 150.4 -32.65 150.4 -32.55 150.4 -32.4 150.4 -32.25 150.45 -32.2 150.45
M -33.3 153.15
Q -33.3 152.8 -33.15 152.6 -33 153.1 -33 153.45 -32.95 153.9 -33.05 154.3 -33.25 154.9 -33.3 155.85 -33.3 156.35 -33.35 157.4 -33.4 158.1 -33.4 159.25 -33.4 160.65 -33.4 161.1 -33.45 162.2 -33.45 163.25 -33.45 163.3 -33.45 163.4 -33.45 163.5 -33.6 163.5 -33.7 163.5 -33.7 163.4
L -33.7 163.25
Q -33.7 162.9 -33.75 160.8 -33.75 159.3 -33.65 158.3
L -33.65 157.45
Q -33.65 155.85 -33.65 155.55 -33.6 154.5 -33.35 153.7 -33.3 153.55 -33.3 153.15 Z"/>

<path fill="#F6F7F8" stroke="none" d="
M -33.15 152.6
Q -33.3 152.8 -33.3 153.15 -33.3 153.55 -33.35 153.7 -33.6 154.5 -33.65 155.55 -33.65 155.85 -33.65 157.45
L -33.65 158.3
Q -33.75 159.3 -33.75 160.8 -33.7 162.9 -33.7 163.25
L -33.7 163.4
Q -33.7 163.5 -33.6 163.5 -33.45 163.5 -33.45 163.4 -33.45 163.3 -33.45 163.25 -33.45 162.2 -33.4 161.1 -33.4 160.65 -33.4 159.25 -33.4 158.1 -33.35 157.4 -33.3 156.35 -33.3 155.85 -33.25 154.9 -33.05 154.3 -32.95 153.9 -33 153.45 -33 153.1 -33.15 152.6 Z"/>

<path fill="#FAFAFB" stroke="none" d="
M -19.75 164.35
Q -19.8 164.35 -19.95 164.35 -20.15 164.4 -20.5 164.4 -20.9 164.4 -21.05 164.4 -22.75 164.55 -24.9 164.5 -25.1 164.45 -25.2 164.5 -25.25 164.6 -25.25 164.8 -25.3 165.05 -25.2 165.1 -25.1 165.2 -24.85 165.15
L -22.35 164.95
Q -20 164.75 -19.95 164.75 -19.65 164.75 -19.65 164.5 -19.65 164.35 -19.75 164.35 Z"/>

<path fill="#FDFEFE" stroke="none" d="
M -20.25 163.15
L -20.25 162.7
Q -20.25 160.5 -20.3 159.4 -20.5 156.85 -20.6 153.35 -20.6 152.95 -20.75 152.85 -20.9 152.7 -21.2 152.7 -22.6 152.7 -23.1 152.75
L -25.2 153.05 -25.35 153.05
Q -25.45 153.1 -25.4 153.25 -25.4 153.35 -25.3 153.35 -25.25 153.35 -25.1 153.3 -25 153.3 -24.65 153.2 -23.75 152.95 -23.05 153.35 -22.2 153.75 -22.05 154.75 -22 155.15 -21.7 156.35 -21.45 157.35 -21.4 158 -21.4 158.65 -21.25 159.95 -21.15 161.25 -21.1 161.9 -21.1 162 -21.05 162.85 -20.95 163.45 -21 163.85 -20.45 163.85 -20.35 163.75 -20.25 163.65 -20.25 163.15
M -38.85 146.5
Q -38.55 146.15 -38.4 145.8 -39.05 145.85 -40.15 145.8 -41.35 145.8 -41.8 145.8 -44.65 145.85 -47.3 146.2 -47.9 146.3 -48.3 146.7 -48.6 147 -48.95 147.6 -48.8 147.65 -48.55 147.65 -45.25 147.4 -44.6 147.4
L -39.65 147.2
Q -39.55 147.2 -39.45 147.2 -39.35 147.2 -39.3 147.1 -39 146.7 -38.85 146.5 Z"/>

<path fill="#3D3D3D" stroke="none" d="
M -18.15 159.75
L -18.25 159.75
Q -18.3 159.9 -18.25 160.15 -18.2 160.3 -18.15 160.55
L -18.1 160.55
Q -18.05 160.3 -18.05 160.15 -18.05 159.9 -18.15 159.75 Z"/>

<path fill="#F9FAFA" stroke="none" d="
M -18.25 152.95
Q -18.35 152.95 -18.4 153.05
L -18.4 153.2
Q -18.35 153.5 -18.35 153.6 -18.45 154.15 -18.4 154.8 -18.4 155.1 -18.35 156 -18.35 156.2 -18.25 157.85 -18.15 159 -18.15 159.75 -18.05 159.9 -18.05 160.15 -18.05 160.3 -18.1 160.55
L -17.95 162.05
Q -17.7 161.95 -17.65 161.7 -17.6 161.55 -17.65 161.2 -17.65 161 -17.7 160.65
L -17.7 160.05
Q -17.85 157.9 -17.85 156.8 -17.85 156.75 -18 155.35 -18.1 154.45 -17.9 153.85 -17.8 153.6 -17.95 153.1 -18 153 -18.1 152.95 -18.15 152.95 -18.25 152.95
M -36.15 147.95
Q -36.2 148.05 -36.35 148.25 -36.45 148.4 -36.45 148.5 -36.35 148.6 -36.15 148.6 -36.1 148.6 -35.75 148.6 -35.6 148.55 -35.55 148.45 -35.5 148.4 -35.4 148.25 -35 147.4 -34.75 147 -34.4 146.3 -33.95 145.9 -33.75 145.7 -33.75 145.55 -33.7 145.4 -33.85 145.15 -34.2 144.7 -34.3 144.1 -34.4 143.65 -34.9 143.6
L -34.55 144.4
Q -34.4 144.85 -34.5 145.2 -34.65 145.85 -35.2 146.65 -35.5 147.1 -36.15 147.95
M -37.15 143.7
L -37.2 143.6
Q -37.3 143.25 -37.55 143.1 -37.75 143 -38.15 143
L -37.85 143.7
Q -37.6 144.35 -37.6 144.75 -37.6 145.35 -38 145.8 -38.35 146.15 -39 147.15 -39.35 147.75 -39.6 147.95 -39.95 148.3 -40.45 148.35
L -40.5 148.5 -39.35 148.5
Q -39.15 148.5 -39.1 148.25 -38.9 147.6 -38.5 147 -38.15 146.55 -37.6 145.95 -36.9 145.2 -36.8 144.9 -36.75 144.6 -37.15 143.7 Z"/>

<path fill="#DDDFDF" stroke="none" d="
M -14.15 153.5
Q -14.35 153.5 -14.4 153.6 -14.45 153.65 -14.5 153.85 -14.5 154 -14.4 154.05 -14.35 154.05 -14.2 154.05 -14.1 154.05 -13.95 154.05 -13.8 154.05 -13.8 153.85 -13.8 153.5 -14.15 153.5 Z"/>

<path fill="#FCFCFC" stroke="none" d="
M -45.4 152.25
Q -45.35 152.2 -45.35 152 -45.35 151.75 -45.45 151.7 -45.5 151.7 -45.75 151.7 -47.9 151.8 -49 151.85 -50.9 151.95 -52.25 152 -52.65 152 -52.9 152.15 -53.2 152.3 -53.35 152.65 -52.7 152.9 -52.1 152.8 -50.85 152.65 -48.9 152.55 -46.2 152.4 -45.7 152.35 -45.5 152.35 -45.4 152.25
M -45.5 150.8
Q -45.5 150.6 -45.55 150.55 -45.65 150.5 -45.85 150.5 -46.2 150.55 -46.75 150.6 -47.4 150.65 -47.7 150.7 -48.1 150.75 -48.1 150.4 -48.1 150.2 -48.25 150.15 -48.3 150.1 -48.5 150.1 -49.15 150.15 -49.5 150.2 -50.1 150.2 -50.5 150.2 -51.25 150.1 -51.65 150.5 -52 150.75 -52.4 151.6 -46.4 151.2 -45.75 151.15 -45.55 151.15 -45.5 151.05 -45.45 151 -45.5 150.8 Z"/>

<path fill="#FCFCFD" stroke="none" d="
M -49.35 148.15
Q -49.45 148.15 -49.55 148.25 -50.2 148.9 -50.8 149.65
L -48.35 149.65
Q -48.25 149.65 -48.2 149.65 -48.1 149.6 -48.15 149.5 -48.15 149.1 -47.85 148.95 -47.75 148.9 -47.3 148.85 -46.35 148.7 -45.15 148.6 -44.4 148.6 -43 148.55 -42.1 148.55 -41.45 148.4 -40.65 148.2 -40 147.7 -42.15 147.7 -42.55 147.75 -44 147.75 -45.4 147.85 -45.8 147.85 -47.4 148.05 -48.6 148.15 -49.35 148.15 Z"/>

<path fill="#FDFDFE" stroke="none" d="
M -33.75 144.3
Q -33.8 144.35 -33.7 144.6 -33.4 145.55 -32.3 145.55 -31.4 145.5 -30.15 145.65 -29.45 145.75 -28.05 145.95 -27.8 146 -27.65 146.05 -27.5 146.15 -27.45 146.4 -26.75 145.7 -26.6 145.5 -26.1 145 -25.75 144.55
L -26.2 144.45
Q -28.4 144.05 -30.6 144.15 -31.95 144.2 -33.4 144.2 -33.7 144.2 -33.75 144.3 Z"/>

<path fill="#FBFBFB" stroke="none" d="
M -38 147.55
Q -38.05 147.55 -38.05 147.45 -38.05 147.3 -37.85 147.25 -37.7 147.25 -37.45 147.25 -37.2 147.2 -37 147.25 -36.45 147.3 -36 147 -35.65 146.8 -35.35 146.25 -35.2 146.1 -35.25 146 -35.25 145.9 -35.5 145.9 -35.7 145.9 -35.95 145.9 -36.2 145.85 -36.35 145.85
L -36.65 145.8
Q -36.8 145.75 -36.9 145.8 -37.2 146.1 -37.8 146.65 -38.3 147.2 -38.45 147.7 -38.65 148.2 -38.5 148.35 -38.4 148.5 -37.9 148.5 -37.85 148.45 -37.75 148.5 -36.9 148.55 -36.6 147.75 -37.05 147.75 -37.25 147.75 -37.6 147.7 -37.85 147.6 -37.95 147.6 -38 147.55 Z"/>

<path fill="#F6F7F7" stroke="none" d="
M -39.55 141.6
Q -39.7 141.5 -40.25 141.5 -41.7 141.5 -43.1 142.05 -43.2 142.05 -43.25 142.1 -43.35 142.15 -43.35 142.25 -43.3 142.35 -43.25 142.35
L -43.05 142.3
Q -42.4 142.3 -41.15 142.3 -39.8 142.3 -39.2 142.3 -39.45 141.75 -39.55 141.6 Z"/>

<path fill="#E2E3E3" stroke="none" d="
M -30.75 135.55
Q -31.1 135.75 -31.25 135.85 -31.5 136.05 -31.55 136.3 -31.15 136.35 -31 136.15 -30.8 135.95 -30.75 135.55 Z"/>

<path fill="#1D1D1D" stroke="none" d="
M -41.65 126.9
Q -41.65 126.95 -41.6 127.1 -41.6 127.3 -41.55 127.4 -41.5 127.55 -41.3 127.55 -41.05 127.6 -41.05 127.3 -41.1 127.1 -41.2 127 -41.3 126.85 -41.55 126.8 -41.65 126.8 -41.65 126.9 Z"/>

<path fill="#3A3A3A" stroke="none" d="
M -30.45 130.6
Q -31.05 131.35 -31.1 132.15
L -30.35 130.7 -30.45 130.6 Z"/>

<path fill="#2A2A2A" stroke="none" d="
M -25.55 134.3
Q -25.6 134.35 -25.65 134.35 -25.7 134.4 -25.7 134.5 -25.7 134.55 -25.55 134.7 -25.5 134.65 -25.4 134.5 -25.35 134.35 -25.55 134.3 Z"/>

<path fill="#181819" stroke="none" d="
M -25.4 132.55
Q -26.15 132.25 -27.1 132.55 -28.05 132.85 -28.55 133.45 -28.6 133.55 -28.5 133.7 -27.45 132.95 -26.65 132.85 -25.6 132.7 -24.6 133.5 -24.6 133.05 -24.85 132.8 -25 132.65 -25.4 132.55 Z"/>

<path fill="#191A1B" stroke="none" d="
M -27.25 130.7
Q -26.9 130.45 -26.4 130.3 -26.1 130.2 -25.5 130.05 -26.8 129.9 -27.7 130.4 -28.65 130.9 -28.75 131.8 -28.4 131.65 -27.95 131.3 -27.7 131.1 -27.25 130.7 Z"/>
</g>

<path id="Symbol_9_0_Layer0_0_1_STROKES" stroke="#303030" stroke-opacity="0.4980392156862745" stroke-width="1" stroke-linejoin="round" stroke-linecap="round" fill="none" d="
M -92.8 0
L 92.8 0"/>
</defs>

<g transform="matrix( 1, 0, 0, 1, 104.5,56.75) ">
<g transform="matrix( 1, 0, 0, 1, 0,0) ">
<use xlink:href="#Symbol_9_0_Layer0_0_1_STROKES"/>
</g>
</g>

<g transform="matrix( 1, 0, 0, 1, 0,0) ">
<use xlink:href="#Layer1_0_FILL"/>
</g>

<g transform="matrix( 1.1591033935546875, 0, 0, 1.159088134765625, 146.3,-138.4) ">
<use xlink:href="#Layer0_0_MEMBER_0_FILL"/>
</g>
</svg>
