
<svg xmlns="http://www.w3.org/2000/svg" version="1.1" xmlns:xlink="http://www.w3.org/1999/xlink" preserveAspectRatio="none" x="0px" y="0px" width="209px" height="84px" viewBox="0 0 209 84">
<defs>
<g id="Layer0_0_MEMBER_0_FILL">
<path fill="#000000" stroke="none" d="
M -165.65 84
Q -165.8 83.2 -167.1 82.25 -168.15 81.5 -169.5 81 -170.4 80.7 -171.8 80.75 -173.45 80.9 -174.25 80.9
L -174.3 80.25 -167 78.75 -167.25 76.95 -178.2 77.75 -177.35 84 -168.15 83.55 -168 85.8 -177.75 87 -177.55 89
Q -176 88.9 -172.85 88.75 -170.05 88.6 -168.2 88.1 -167.3 87.9 -166.4 86.4 -165.55 84.95 -165.65 84
M -195.75 90.8
Q -197.55 91 -198.45 91.05
L -198.7 89.95 -190.9 88
Q -196 84.2 -200.1 88.55 -201.9 90.5 -201.95 92.8 -202.05 95.2 -200.15 96.5 -198.75 97.45 -196.15 97.6 -194.6 97.65 -191.6 97.4 -190.95 97.35 -190.2 95.9 -189.45 94.4 -189.65 93.55 -189.85 92.75 -191 91.9 -192.05 91.15 -193.15 90.9 -194.15 90.65 -195.75 90.8
M -226.6 83.4
L -226.55 84.95 -219.5 84.95 -222.2 94.45 -220.65 94.85 -215.7 82 -226.6 83.4
M -238.4 20.3
Q -239.5 18.1 -242.3 18.15 -246.5 18.2 -246.25 23.3 -246.05 26.3 -245.45 27.5 -244.5 29.45 -242 29.25 -240.9 29.2 -239.4 27.85 -237.75 26.2 -236.9 25.55 -238.2 20.7 -238.4 20.3
M -242.3 20.15
L -238.9 23.65 -241.75 27.15
Q -242.65 25.95 -243.1 25.35 -243.9 24.3 -244 23.5 -244.1 22.9 -243.45 21.9 -242.6 20.75 -242.3 20.15
M -161.5 18.3
Q -159 16.05 -157.85 14.95 -155.9 13 -157.95 10.4 -159.35 8.65 -162.6 9.25 -165.85 9.85 -168.1 12.3
L -159.75 11.8 -159.4 13 -167.9 20.2 -167.25 21.55 -156.1 20.35 -156.2 18.6 -161.5 18.3
M -180.5 -6.05
L -182.7 -5.75 -181.4 5 -179.25 4.7 -180.5 -6.05
M -211.9 -9
L -213.8 -8.8 -212.6 1.85 -210.55 1.65 -211.9 -9
M -230.85 -0.7
L -232.75 -0.45 -231.65 10.35 -229.65 10.1 -230.85 -0.7
M -225.3 -1.35
L -227.25 -1.1 -226 9.85 -223.95 9.55 -225.3 -1.35
M -238.1 -2.3
Q -237.15 -2.6 -235.2 -3.2 -234.4 -4.65 -233.9 -5.45 -233.1 -6.85 -232.2 -7.3 -226.95 -9.8 -209.25 -17.5
L -206.9 -11.55 -205.65 -17.7 -177.15 -13.75 -178.35 -8 -177.6 -7.65 -174.95 -11.35
Q -161.85 -5.35 -153.75 5 -152.2 6.95 -151.1 7.65 -149.6 8.6 -147.65 8.25 -168 -20.2 -204.05 -20.2
L -218.1 -20.15 -214.65 -22.8
Q -230.5 -21.2 -245.85 -7.65 -261.1 5.8 -264.5 21
L -261.15 16.5 -260 16.95 -264.35 34
Q -264.35 34.1 -265.05 34.65
L -273.55 40.25
Q -275.05 36.15 -279.1 35.4 -280.1 35.2 -286.8 35.4 -290.55 35.5 -292.15 37.15 -293.75 38.8 -293.7 42.5 -293.65 45.75 -293.45 52.25 -293.2 58.75 -293.2 61.95 -293.1 73.45 -291.1 75.55 -289 77.65 -277.6 77.65 -276.5 77.65 -269.7 76.65 -264.95 75.95 -262.55 77.05 -260.05 78.2 -257.45 82.15 -256 84.35 -253.1 88.9 -253 89 -252.5 89.15
L -252.5 85.85
Q -251.6 86.6 -250.1 87.9 -248.8 89 -247.9 89.6 -244.8 91.65 -234.2 98.4
L -251.4 81.3 -243.55 78.5
Q -240.3 79.7 -233.3 77.65 -225.8 75.5 -222.45 71.8 -214.4 79.2 -204.25 74.15 -203.6 73.8 -202.3 74.1 -200.2 74.5 -200.1 74.5 -197.75 74.65 -193 75 -188.85 75.25 -185.9 75.35 -178.55 75.65 -174.5 75.1 -172.6 74.85 -169.95 74 -168.4 73.5 -165.4 72.5 -163.6 72.9 -159.65 73.95 -156 74.8 -153.45 74.85 -149.85 74.95 -147.7 73.45 -145.15 71.65 -144.85 67.8 -144.8 67.3 -144 66.6 -143 65.8 -142.6 65.4
L -140.8 66.7 -149.1 80.15
Q -152.7697265625 82.8685546875 -153.5 83.55
L -163.7 93.45 -165.65 94.1 -166.65 89.2 -168 90.5 -165.65 94.4
Q -178.35 103.3 -193.2 105.15
L -194.45 100.8 -195.25 100.9 -195.6 106.75 -222.05 103.5
Q -221.95 103.55 -219.35 105 -217.7 105.95 -216.55 106.2 -177.85 114.85 -149.95 83.95 -149.45 83.4 -149.25 82.15 -149.0796875 80.9158203125 -148.95 80.2
L -143.45 82.9
Q -140.3 77.25 -139.4 75.9 -138.9 75.1 -138 74.45 -137.05 73.75 -136.25 73.7 -132.5 73.7 -123.15 73.8 -114.85 73.95 -110.1 73.85 -106 73.8 -97.8 73.3 -89.65 72.8 -85.55 72.7 -79.8 72.6 -70.3 72.75 -58.8 72.9 -55.1 72.9 -49.6 72.85 -47.45 70.85 -45.3 68.8 -45.25 63.4 -45.2 60.25 -45.6 55.3 -46.25 48.35 -46.3 47.2 -46.35 45.95 -46.25 42.75 -46.2 39.85 -46.35 38.25 -46.8 34 -48.85 32.15 -50.9 30.35 -55.2 30.4 -56.95 30.45 -65.15 30.85 -71.3 31.15 -75.15 31.05 -82.2 30.85 -85.05 32 -89.75 33.85 -91.05 40.15 -95.55 33.5 -96.9 32.4 -98.3 31.3 -101.85 31.4 -117.35 31.8 -125.15 32.3 -131.1 32.65 -132.3 31.8 -133.45 30.95 -135.2 25.25 -137.15 18.9 -138.05 16.95 -140.15 12.35 -143.7 9.5
L -142.9 13.1 -146.2 10.5 -137.8 31.1 -146.4 34.45
Q -147.7 31.7 -154.8 32.2 -161.9 32.7 -165.55 35.85 -172.2 32.95 -182.9 33.15 -197.3 33.4 -200.55 32.95
L -203.95 1.8 -198.1 0.25 -198.15 -0.7 -201.2 -1.25
Q -200.35 -3.95 -200 -5.3 -199.3 -7.6 -199.7 -8.9 -200.2 -10.55 -203.85 -10.45 -207.35 -10.35 -208.8 -9.05
L -208 1.55
Q -205.95 7.4 -205.1 17.55 -203.85 31.95 -203.45 34.55
L -204.6 35.2
Q -208.8 30.2 -209.45 29.4 -216.35 20 -220.05 15.5 -220.5 14.95 -221.75 14.6 -223.2 14.25 -223.85 14
L -224.6 15.55 -211.6 33 -224.2 37.45
Q -227.95 33.55 -235.15 34.05 -243.55 35.3 -247.7 35.1 -250.25 35 -254 35.15 -258.2 35.45 -260.3 35.5 -260.85 29.1 -259.05 24.85 -257.35 20.9 -254.65 20.8 -254.55 18.35 -254.45 17.2 -254.35 15.2 -253.7 14.3 -248.3 7.25 -240.55 -1 -239.8 -1.8 -238.1 -2.3
M -76.95 36.15
Q -76.25 36.25 -75.55 38.05 -74.9 39.7 -74.8 41.15 -74.65 44.15 -74.45 52.4 -74.35 59.45 -74 63.6 -73.75 66.6 -75.45 67.4 -75.75 67.55 -79.3 68 -81.75 68.35 -82.9 67.6 -84.2 66.75 -84.1 64.25 -83.95 60.25 -84.8 57 -87.55 64 -88.2 65.35 -88.75 66.35 -89.5 67.2 -90.4 68.15 -91.05 68.1 -91.75 68.1 -92.65 67.2 -93.45 66.45 -94 65.45 -94.95 63.75 -96.1 61.25 -97.4 58.4 -98.1 56.95
L -98.65 57.15 -98.15 62.1
Q -97.8 66.7 -99 67.8 -100.2 68.95 -104.75 68.25 -105.55 68.15 -106.55 67.3 -107.5 66.45 -107.55 65.8 -107.65 61.1 -107.65 37.5 -101.6 36.05 -100.05 36.75 -98.55 37.45 -96 42.85
L -91.25 52.7
Q -89.05 47.95 -88.05 45.75 -86.25 41.9 -85.3 39.3 -84.2 36.35 -81.65 35.9 -80.65 35.75 -76.95 36.15
M -62.1 44.15
Q -63.1 44.9 -63.6 45.2 -63.1 45.5 -62.15 46.25 -61.3 46.9 -60.7 46.95 -59.05 47.05 -56.45 47.05 -54.9 47.05 -51.45 47 -51.65 47.55 -51.5 51.95 -51.4 54.65 -54.45 55.2 -56.2 55.5 -58.8 55.45 -61.75 55.3 -63.25 55.3
L -63.85 56.65
Q -63.35 57.1 -62.35 58.05 -61.45 58.9 -60.75 59 -59.75 59.2 -58.05 59.1 -55.8 58.95 -55.3 58.95 -54.2 59 -51.75 58.8 -49.85 59.05 -49.95 61.8 -50.05 64.8 -50.95 66.1 -52.2 67.75 -55.4 67.5 -57.8 67.3 -62.35 67.5 -67.1 67.7 -69.3 67.55 -70.35 67.45 -71.65 66.45 -73 65.4 -73.05 64.6 -73.25 58.8 -73.25 50.65 -73.2 41.15 -73.2 36.2
L -51.9 36.2 -50.85 43.4
Q -54.3 43.35 -55.95 43.35 -58.7 43.35 -60.6 43.5 -61.25 43.55 -62.1 44.15
M -110.35 37.65
Q -109.05 38.85 -109.1 42 -109.35 55.2 -108.65 63.95 -108.4 67.25 -110.2 68.25 -111.05 68.7 -114.5 69 -117.3 69.25 -118.35 67.75 -119.2 66.6 -119.15 63.75 -119.1 61.8 -119.1 45.6
L -125.9 45.6
Q -125.7 48.85 -125.45 55.1 -125.15 60.5 -124.75 64.25 -124.45 67.2 -125.85 68.35 -127 69.3 -129.95 69.4 -132.9 69.5 -134.1 68.5 -135.45 67.35 -135.3 64.4 -135.1 60.65 -135.15 55.15 -135.25 48.9 -135.25 45.6
L -141.8 45.6
Q -142.5 39.7 -141.75 38.75 -141 37.8 -135.55 37.7 -125.95 37.55 -114.65 36.75 -111.6 36.55 -110.35 37.65
M -152.85 37.9
Q -152.25 38.15 -151.6 38.9 -151 39.7 -151 40.3 -150.9 49.75 -150.9 69.15
L -160.1 69.15 -160.1 57.75 -169.9 57.75
Q -171.1 59.2 -170.5 64.5 -170 68.75 -173.6 69.9 -175.15 70.4 -177.6 69.65 -178.15 69.5 -181.75 68.05 -188.25 71.5 -193.8 70.95 -199.5 70.35 -203.6 65.65 -207.4 61.25 -207.5 54.7 -207.55 48.15 -203.9 43.4 -200.15 38.6 -194.5 37.95 -188.8 37.25 -182.05 40.9 -180.85 37.8 -177.75 37.4 -175.15 37.05 -173.35 38.5 -172.05 39.55 -171.5 42.75 -171.15 44.6 -170.5 48.7
L -160.45 48.7
Q -160.55 45.3 -160.65 44.5 -161.3 39.85 -159.35 38.15 -157.35 36.45 -152.85 37.9
M -237.75 40.5
Q -233.85 38.8 -230.9 39.75 -228 40.7 -225.7 44.4 -224.45 46.5 -222.05 49.45 -220.65 51.15 -217.55 54.95
L -217.55 39.9 -213.15 39
Q -210.3 38.55 -209.05 39.55 -207.7 40.65 -207.8 43.7 -207.9 47.3 -207.8 54.45 -207.75 61.6 -207.85 65.15 -207.9 66.55 -208.55 68.45 -209.25 70.4 -209.65 70.35 -215.75 70.15 -217.65 68.4 -219.45 66.7 -223 62.5 -226.45 58.4 -228.65 56.35 -228.5 58.1 -228.35 61.6 -228.15 64.75 -227.9 66.8 -227.6 69.4 -229 70.4 -230.05 71.15 -232.75 71.3 -235.4 71.45 -236.45 70.75 -237.85 69.9 -237.8 67.25 -237.75 64.25 -237.75 40.5
M -240.45 40.2
Q -238.8 40.95 -238.85 43.6 -238.9 46.4 -238.9 53.1 -238.85 59.15 -238.95 62.55 -239 66.3 -241 68.55 -243 70.8 -246.75 71.3 -252.95 72.1 -256.15 72 -260.85 68.975 -265.55 65.95 -265.8662109375 65.09140625 -266.05 64.1
L -265.95 64.2 -265.95 40.4
Q -264.55 40.25 -261.7 39.95 -258.6 39.55 -257.4 40.8 -256.15 42.05 -256.5 45.3 -256.8 48.15 -256.8 52 -256.8 53.25 -256.6 58.75 -256.55 61.25 -255.7 62.45 -254.6 64 -252.05 63.85 -249.65 63.75 -248.8 62.25 -248.1 61.1 -248.25 58.7 -248.45 48.75 -248.8 43.75 -249 41.25 -247.7 40.4 -246.75 39.75 -244.25 39.75 -241.45 39.7 -240.45 40.2
M -280.3 40.7
Q -278.7 41.5 -278.8 44.25 -278.95 48.05 -278.9 53.7 -278.9 56.9 -278.85 63.45
L -266.05 64.2
Q -265.45 70.2 -266.35 71.25 -267.25 72.3 -273.15 72.35
L -278.6 72.3
Q -281.9 72.25 -284.1 72.35 -286.3 72.45 -287.25 71.55 -288.25 70.65 -288.25 68.35 -288.35 53.45 -288.85 44.5 -289 41.75 -287.6 40.85 -286.6 40.2 -284 40.25 -281.15 40.3 -280.3 40.7
M -192 47.05
Q -194.7 46.9 -196.45 49 -198.05 50.9 -197.9 54.35 -197.8 57.9 -196.05 59.7 -193.35 62.45 -190.15 61.65 -188.6 61.25 -184.65 58.75
L -180.15 61.85 -181.05 45.85 -184.45 49.65
Q -189.25 47.2 -192 47.05 Z"/>
</g>

<path id="Symbol_9_0_Layer0_0_1_STROKES" stroke="#303030" stroke-opacity="0.4980392156862745" stroke-width="1" stroke-linejoin="round" stroke-linecap="round" fill="none" d="
M -92.8 0
L 92.8 0"/>
</defs>

<g transform="matrix( 1, 0, 0, 1, 104.5,38.85) ">
<g transform="matrix( 1, 0, 0, 1, 0,17.9) ">
<g transform="matrix( 1, 0, 0, 1, 0,0) ">
<use xlink:href="#Symbol_9_0_Layer0_0_1_STROKES"/>
</g>
</g>
</g>

<g transform="matrix( 1, 0, 0, 1, 104.5,67) ">
<g transform="matrix( 1, 0, 0, 1, -39,-15) ">
<clipPath id="Mask_Mask_1">
<rect x="-2" y="-2" width="16.4" height="34.05" fill="#FFFFFF" stroke="none"/>
</clipPath>

<text clip-path="url(#Mask_Mask_1)" writing-mode="lr"><tspan x="0" y="23.8" baseline-shift="0%" font-family="Myriad Pro" font-size="25" fill="#000000" xml:space="preserve">F</tspan></text>
</g>

<g transform="matrix( 1, 0, 0, 1, -26.8,-15) ">
<clipPath id="Mask_Mask_2">
<rect x="-2" y="-2" width="12.4" height="34.05" fill="#FFFFFF" stroke="none"/>
</clipPath>

<text clip-path="url(#Mask_Mask_2)" writing-mode="lr"><tspan x="0" y="23.8" baseline-shift="0%" font-family="Myriad Pro" font-size="25" fill="#000000" xml:space="preserve">r</tspan></text>
</g>

<g transform="matrix( 1, 0, 0, 1, -18.6,-15) ">
<clipPath id="Mask_Mask_3">
<rect x="-2" y="-2" width="17.95" height="34.05" fill="#FFFFFF" stroke="none"/>
</clipPath>

<text clip-path="url(#Mask_Mask_3)" writing-mode="lr"><tspan x="0" y="23.8" baseline-shift="0%" font-family="Myriad Pro" font-size="25" fill="#000000" xml:space="preserve">o</tspan></text>
</g>

<g transform="matrix( 1, 0, 0, 1, -4.85,-15) ">
<clipPath id="Mask_Mask_4">
<rect x="-2" y="-2" width="15.95" height="34.05" fill="#FFFFFF" stroke="none"/>
</clipPath>

<text clip-path="url(#Mask_Mask_4)" writing-mode="lr"><tspan x="0" y="23.8" baseline-shift="0%" font-family="Myriad Pro" font-size="25" fill="#000000" xml:space="preserve">k</tspan></text>
</g>

<g transform="matrix( 1, 0, 0, 1, 6.9,-15) ">
<clipPath id="Mask_Mask_5">
<rect x="-2" y="-2" width="17.95" height="34.05" fill="#FFFFFF" stroke="none"/>
</clipPath>

<text clip-path="url(#Mask_Mask_5)" writing-mode="lr"><tspan x="0" y="23.8" baseline-shift="0%" font-family="Myriad Pro" font-size="25" fill="#000000" xml:space="preserve">o</tspan></text>
</g>

<g transform="matrix( 1, 0, 0, 1, 20.65,-15) ">
<clipPath id="Mask_Mask_6">
<rect x="-2" y="-2" width="14.1" height="34.05" fill="#FFFFFF" stroke="none"/>
</clipPath>

<text clip-path="url(#Mask_Mask_6)" writing-mode="lr"><tspan x="0" y="23.8" baseline-shift="0%" font-family="Myriad Pro" font-size="25" fill="#000000" xml:space="preserve">s</tspan></text>
</g>

<g transform="matrix( 1, 0, 0, 1, 30.55,-15) ">
<clipPath id="Mask_Mask_7">
<rect x="-2" y="-2" width="12.5" height="34.05" fill="#FFFFFF" stroke="none"/>
</clipPath>

<text clip-path="url(#Mask_Mask_7)" writing-mode="lr"><tspan x="0" y="23.8" baseline-shift="0%" font-family="Myriad Pro" font-size="25" fill="#000000" xml:space="preserve">t</tspan></text>
</g>
</g>

<g transform="matrix( 0.389617919921875, 0, 0, 0.3892364501953125, 170.55,12.1) ">
<use xlink:href="#Layer0_0_MEMBER_0_FILL"/>
</g>
</svg>
