
<svg xmlns="http://www.w3.org/2000/svg" version="1.1" xmlns:xlink="http://www.w3.org/1999/xlink" preserveAspectRatio="none" x="0px" y="0px" width="209px" height="84px" viewBox="0 0 209 84">
<defs>
<g id="Layer0_0_MEMBER_0_MEMBER_0_FILL">
<path fill="#000000" stroke="none" d="
M 149.6 41.75
Q 149.7 25.7 138.45 14.4 127.25 3.1 111.2 3 95.4 2.95 84.1 14.15 72.8 25.4 72.7 41.2 72.65 57.2 83.85 68.5 95.1 79.85 111.1 79.9 126.85 80 138.2 68.75 149.55 57.5 149.6 41.75
M 122.65 41
Q 122.8 42.8 122.85 45.45 122.85 46.9 122.85 49.85
L 122.85 59.05
Q 122.85 59.8 122.6 60.05 122.35 60.3 121.65 60.3
L 118.2 60.3
Q 117.45 60.3 117.2 60.05 116.95 59.8 116.95 59.1
L 116.95 44.2
Q 116.95 42.4 116.5 40.65 115.7 37.55 112.4 37.45 109.15 37.3 107.3 39.15 105.5 41 105.4 44.55 105.35 46.35 105.35 55.4
L 105.35 59.15
Q 105.35 59.85 105.1 60.05 104.85 60.3 104.15 60.3
L 100.65 60.3
Q 99.95 60.3 99.7 60.05 99.45 59.8 99.45 59.1
L 99.45 24
Q 99.45 23.05 99.7 22.8 99.95 22.55 100.95 22.55
L 104.25 22.55
Q 104.9 22.55 105.1 22.8 105.35 23.05 105.35 23.7
L 105.35 35.2
Q 108 32.65 111.25 32.2 115.95 31.5 119.05 33.9 122.2 36.3 122.65 41 Z"/>
</g>

<g id="Layer0_0_MEMBER_0_MEMBER_1_FILL">
<path fill="#FFFFFF" stroke="none" d="
M 122.85 45.45
Q 122.8 42.8 122.65 41 122.2 36.3 119.05 33.9 115.95 31.5 111.25 32.2 108 32.65 105.35 35.2
L 105.35 23.7
Q 105.35 23.05 105.1 22.8 104.9 22.55 104.25 22.55
L 100.95 22.55
Q 99.95 22.55 99.7 22.8 99.45 23.05 99.45 24
L 99.45 59.1
Q 99.45 59.8 99.7 60.05 99.95 60.3 100.65 60.3
L 104.15 60.3
Q 104.85 60.3 105.1 60.05 105.35 59.85 105.35 59.15
L 105.35 55.4
Q 105.35 46.35 105.4 44.55 105.5 41 107.3 39.15 109.15 37.3 112.4 37.45 115.7 37.55 116.5 40.65 116.95 42.4 116.95 44.2
L 116.95 59.1
Q 116.95 59.8 117.2 60.05 117.45 60.3 118.2 60.3
L 121.65 60.3
Q 122.35 60.3 122.6 60.05 122.85 59.8 122.85 59.05
L 122.85 49.85
Q 122.85 46.9 122.85 45.45 Z"/>
</g>

<path id="Symbol_9_0_Layer0_0_1_STROKES" stroke="#303030" stroke-opacity="0.4980392156862745" stroke-width="1" stroke-linejoin="round" stroke-linecap="round" fill="none" d="
M -92.8 0
L 92.8 0"/>
</defs>

<g transform="matrix( 1, 0, 0, 1, 104.5,38.85) ">
<g transform="matrix( 1, 0, 0, 1, 0,17.9) ">
<g transform="matrix( 1, 0, 0, 1, 0,0) ">
<use xlink:href="#Symbol_9_0_Layer0_0_1_STROKES"/>
</g>
</g>
</g>

<g transform="matrix( 1, 0, 0, 1, 10.45,51.2) ">
<clipPath id="Mask_Mask_1">
<rect x="-2" y="-2" width="192.1" height="66.1" fill="#FFFFFF" stroke="none"/>
</clipPath>

<text clip-path="url(#Mask_Mask_1)" writing-mode="lr"><tspan x="23.1" y="23.8" baseline-shift="0%" font-family="Myriad Pro" font-size="25" fill="#000000" xml:space="preserve">Vores historie</tspan></text>
</g>

<g transform="matrix( 0.663543701171875, 0, 0, 0.6641845703125, 30.75,1.5) ">
<use xlink:href="#Layer0_0_MEMBER_0_MEMBER_0_FILL"/>
</g>

<g transform="matrix( 0.663543701171875, 0, 0, 0.6641845703125, 30.75,1.5) ">
<use xlink:href="#Layer0_0_MEMBER_0_MEMBER_1_FILL"/>
</g>
</svg>
