
<svg xmlns="http://www.w3.org/2000/svg" version="1.1" xmlns:xlink="http://www.w3.org/1999/xlink" preserveAspectRatio="none" x="0px" y="0px" width="209px" height="84px" viewBox="0 0 209 84">
<defs>
<g id="Symbol_10_0_Layer0_0_FILL">
<path fill="#000000" stroke="none" d="
M -2.25 -6.15
L -4.45 -6.15 -4.45 5.95 -2.25 5.95 -2.25 -6.15
M -3.35 -10.9
Q -4 -10.9 -4.35 -10.5 -4.75 -10.15 -4.75 -9.55 -4.75 -8.95 -4.4 -8.6 -4 -8.2 -3.45 -8.2 -2.75 -8.2 -2.4 -8.6 -2 -8.95 -2.05 -9.55 -2.05 -10.15 -2.4 -10.5 -2.75 -10.9 -3.35 -10.9
M -20.15 -2.9
Q -20.15 -1.8 -19.4 -0.9 -18.6 -0.05 -16.95 0.55 -15.75 1 -15.25 1.5 -14.7 2 -14.75 2.8 -14.75 3.55 -15.3 4.05 -15.85 4.55 -17.05 4.55 -17.9 4.55 -18.7 4.3 -19.45 4.05 -19.95 3.7
L -20.5 5.35
Q -19.9 5.75 -19 5.95 -18.1 6.2 -17.1 6.2 -14.95 6.15 -13.8 5.2 -12.6 4.2 -12.6 2.55 -12.6 1.25 -13.4 0.35 -14.2 -0.5 -15.75 -1.05 -16.95 -1.5 -17.5 -1.95 -18.05 -2.4 -18.05 -3.1 -18.05 -3.8 -17.55 -4.3 -17.05 -4.75 -16.05 -4.75 -15.2 -4.75 -14.55 -4.55 -13.95 -4.3 -13.6 -4.05
L -13.05 -5.65
Q -13.55 -6 -14.3 -6.2 -15.05 -6.4 -16 -6.4 -17.3 -6.4 -18.25 -5.95 -19.15 -5.45 -19.65 -4.65 -20.15 -3.85 -20.15 -2.9
M -30.4 -5.55
Q -31.7 -4.7 -32.35 -3.2 -33.05 -1.75 -33.05 0.1 -33.05 1.95 -32.35 3.3 -31.6 4.65 -30.3 5.45 -28.95 6.2 -27.1 6.2 -25.65 6.2 -24.65 5.95 -23.65 5.7 -23.05 5.45
L -23.45 3.85
Q -24.05 4.15 -24.85 4.3 -25.65 4.5 -26.8 4.5 -27.9 4.5 -28.85 4.05 -29.8 3.65 -30.35 2.7 -30.9 1.8 -30.95 0.3
L -22.45 0.3
Q -22.45 0.15 -22.4 -0.15 -22.4 -0.4 -22.4 -0.75 -22.35 -1.6 -22.6 -2.55 -22.85 -3.5 -23.4 -4.4 -23.95 -5.3 -24.95 -5.85 -25.9 -6.4 -27.35 -6.4 -29.15 -6.4 -30.4 -5.55
M -30.9 -1.3
Q -30.85 -2.05 -30.45 -2.9 -30.1 -3.7 -29.35 -4.25 -28.65 -4.8 -27.55 -4.85 -26.3 -4.8 -25.65 -4.25 -25 -3.65 -24.75 -2.85 -24.5 -2 -24.5 -1.3
L -30.9 -1.3
M -34.4 -6.35
Q -34.55 -6.4 -34.7 -6.4 -34.85 -6.4 -35 -6.4 -36.15 -6.4 -37.05 -5.7 -37.95 -5 -38.35 -3.75
L -38.5 -3.75 -38.55 -6.15 -40.45 -6.15
Q -40.4 -5.3 -40.4 -4.4 -40.35 -3.45 -40.35 -2.4
L -40.35 5.95 -38.2 5.95 -38.2 -0.5
Q -38.2 -0.8 -38.15 -1.05 -38.15 -1.3 -38.1 -1.5 -37.85 -2.8 -37.1 -3.55 -36.3 -4.3 -35.15 -4.35 -34.9 -4.35 -34.75 -4.35 -34.55 -4.3 -34.4 -4.25
L -34.4 -6.35
M -52.05 -5.65
Q -53.4 -4.9 -54.2 -3.45 -54.95 -2.05 -55 0 -55 1.9 -54.2 3.3 -53.45 4.7 -52.15 5.45 -50.85 6.2 -49.2 6.2 -47.7 6.2 -46.35 5.55 -45 4.9 -44.1 3.45 -43.2 2.05 -43.2 -0.2 -43.2 -2.05 -43.9 -3.45 -44.65 -4.85 -45.95 -5.6 -47.25 -6.4 -49 -6.4 -50.7 -6.4 -52.05 -5.65
M -52.8 -0.05
Q -52.8 -1.25 -52.4 -2.3 -52 -3.4 -51.2 -4.05 -50.35 -4.75 -49.05 -4.75 -47.75 -4.75 -46.95 -4 -46.15 -3.3 -45.8 -2.25 -45.45 -1.2 -45.45 -0.15 -45.45 1.25 -45.9 2.3 -46.4 3.35 -47.2 3.95 -48.05 4.55 -49.1 4.55 -50.2 4.55 -51 3.95 -51.85 3.35 -52.3 2.3 -52.75 1.25 -52.8 -0.05
M -65.3 -6.15
L -67.65 -6.15 -63.05 5.95 -60.95 5.95 -56.2 -6.15 -58.5 -6.15 -60.85 0.65
Q -61.2 1.45 -61.45 2.25 -61.7 3 -61.9 3.75
L -61.95 3.75
Q -62.15 3 -62.4 2.25 -62.65 1.45 -62.95 0.65
L -65.3 -6.15
M -82.2 -5.55
Q -83.5 -4.7 -84.15 -3.2 -84.85 -1.75 -84.85 0.1 -84.85 1.95 -84.15 3.3 -83.4 4.65 -82.1 5.45 -80.75 6.2 -78.9 6.2 -77.45 6.2 -76.45 5.95 -75.45 5.7 -74.85 5.45
L -75.25 3.85
Q -75.85 4.15 -76.65 4.3 -77.45 4.5 -78.6 4.5 -79.7 4.5 -80.65 4.05 -81.6 3.65 -82.15 2.7 -82.7 1.8 -82.75 0.3
L -74.25 0.3
Q -74.25 0.15 -74.2 -0.15 -74.2 -0.4 -74.2 -0.75 -74.15 -1.6 -74.4 -2.55 -74.65 -3.5 -75.2 -4.4 -75.75 -5.3 -76.75 -5.85 -77.7 -6.4 -79.15 -6.4 -80.95 -6.4 -82.2 -5.55
M -82.25 -2.9
Q -81.9 -3.7 -81.15 -4.25 -80.45 -4.8 -79.35 -4.85 -78.1 -4.8 -77.45 -4.25 -76.8 -3.65 -76.55 -2.85 -76.3 -2 -76.3 -1.3
L -82.7 -1.3
Q -82.65 -2.05 -82.25 -2.9
M -94.55 -6.85
Q -94.55 -7.45 -94.25 -8 -93.95 -8.6 -93.2 -8.95 -92.5 -9.35 -91.4 -9.35 -90.25 -9.35 -89.4 -9.1 -88.6 -8.8 -88.2 -8.6
L -87.6 -10.35
Q -88.15 -10.7 -89.1 -10.9 -90 -11.15 -91.3 -11.15 -92.95 -11.15 -94.15 -10.55 -95.4 -9.95 -96.05 -8.95 -96.75 -7.9 -96.75 -6.6 -96.7 -4.85 -95.55 -3.7 -94.4 -2.55 -92.3 -1.85 -90.6 -1.2 -89.85 -0.4 -89.1 0.35 -89.15 1.55 -89.15 2.85 -90.05 3.6 -90.95 4.4 -92.65 4.4 -93.8 4.4 -94.8 4.05 -95.8 3.75 -96.55 3.3
L -97.1 5.1
Q -96.65 5.45 -95.95 5.65 -95.25 5.9 -94.45 6.05 -93.6 6.2 -92.8 6.2 -90.8 6.2 -89.5 5.5 -88.2 4.85 -87.55 3.75 -86.9 2.65 -86.9 1.35 -86.9 -0.5 -88 -1.65 -89.05 -2.8 -91.2 -3.6 -92.95 -4.25 -93.75 -4.95 -94.55 -5.7 -94.55 -6.85
M 79.75 -4.6
Q 79.8 -3.8 79.8 -2.9
L 79.8 5.95 81.95 5.95 81.95 -1.35
Q 81.95 -1.65 81.95 -1.9 82 -2.2 82.1 -2.4 82.3 -3 82.65 -3.5 83.05 -4 83.6 -4.3 84.15 -4.6 84.8 -4.6 86.1 -4.6 86.7 -3.7 87.35 -2.75 87.35 -1.3
L 87.35 5.95 89.5 5.95 89.5 -1.5
Q 89.5 -1.85 89.55 -2.1 89.6 -2.4 89.65 -2.6 89.95 -3.45 90.65 -4 91.35 -4.6 92.3 -4.6 93.6 -4.6 94.25 -3.65 94.9 -2.65 94.9 -0.9
L 94.9 5.95 97.05 5.95 97.05 -1.2
Q 97.05 -3.25 96.4 -4.4 95.75 -5.55 94.8 -6 93.9 -6.45 93.05 -6.4 92.2 -6.4 91.55 -6.2 90.95 -6 90.4 -5.55 90 -5.3 89.7 -4.9 89.35 -4.5 89.05 -4
L 89 -4
Q 88.6 -5.1 87.7 -5.75 86.8 -6.4 85.6 -6.4 84.6 -6.4 83.85 -6.1 83.15 -5.8 82.6 -5.3 82.1 -4.8 81.8 -4.2
L 81.7 -4.2 81.6 -6.15 79.7 -6.15
Q 79.75 -5.4 79.75 -4.6
M 68.15 -3.9
Q 68.8 -4.3 69.6 -4.55 70.45 -4.8 71.3 -4.8 72.55 -4.75 73.1 -4.3 73.7 -3.8 73.9 -3.15 74.05 -2.5 74.05 -2
L 74.05 -1.75
Q 70.55 -1.75 68.65 -0.6 66.8 0.55 66.8 2.75 66.8 3.65 67.2 4.4 67.6 5.2 68.45 5.7 69.25 6.2 70.5 6.2 71.75 6.2 72.7 5.65 73.65 5.15 74.2 4.4
L 74.25 4.4 74.45 5.95 76.4 5.95
Q 76.3 5.35 76.3 4.6 76.25 3.85 76.25 3.05
L 76.25 -1.45
Q 76.25 -2.7 75.85 -3.85 75.45 -4.95 74.45 -5.65 73.45 -6.4 71.65 -6.4 70.45 -6.4 69.45 -6.1 68.4 -5.85 67.65 -5.35
L 68.15 -3.9
M 71.7 -0.05
Q 72.85 -0.25 74.1 -0.25
L 74.1 1.85
Q 74.1 2.05 74.05 2.25 74.05 2.4 74 2.55 73.7 3.35 73 3.95 72.25 4.55 71.05 4.6 70.2 4.6 69.6 4.1 69 3.55 69 2.5 69 1.35 69.75 0.75 70.55 0.15 71.7 -0.05
M 59.5 -4.4
Q 59.55 -3.45 59.55 -2.4
L 59.55 5.95 61.7 5.95 61.7 -0.5
Q 61.7 -0.8 61.75 -1.05 61.75 -1.3 61.8 -1.5 62.05 -2.8 62.8 -3.55 63.6 -4.3 64.75 -4.35 65 -4.35 65.15 -4.35 65.35 -4.3 65.5 -4.25
L 65.5 -6.35
Q 65.35 -6.4 65.2 -6.4 65.05 -6.4 64.9 -6.4 63.75 -6.4 62.85 -5.7 61.95 -5 61.55 -3.75
L 61.4 -3.75 61.35 -6.15 59.45 -6.15
Q 59.5 -5.3 59.5 -4.4
M 47.45 -5.65
Q 46.2 -4.9 45.45 -3.5 44.7 -2.05 44.65 0 44.65 1.7 45.3 3 45.95 4.35 47.15 5.1 48.3 5.9 49.8 5.9 51.2 5.9 52.15 5.3 53.15 4.75 53.65 3.85
L 53.7 3.85 53.7 5.25
Q 53.7 6.75 53.2 7.7 52.7 8.6 51.8 9.05 50.95 9.45 49.8 9.45 48.65 9.45 47.75 9.15 46.85 8.9 46.25 8.5
L 45.7 10.15
Q 46.45 10.65 47.55 10.9 48.6 11.15 49.7 11.15 50.9 11.2 52.05 10.85 53.2 10.55 54.1 9.75 55 8.95 55.4 7.6 55.85 6.25 55.85 4.2
L 55.85 -2.8
Q 55.85 -3.9 55.85 -4.7 55.9 -5.5 55.95 -6.15
L 54.05 -6.15 53.95 -4.3 53.85 -4.3
Q 53.6 -4.85 53.1 -5.3 52.65 -5.8 51.9 -6.1 51.15 -6.4 50.1 -6.4 48.7 -6.4 47.45 -5.65
M 47.9 -3.45
Q 48.9 -4.65 50.45 -4.7 51.7 -4.65 52.45 -4 53.25 -3.35 53.55 -2.4 53.6 -2.15 53.65 -1.9 53.65 -1.65 53.65 -1.35
L 53.65 0.8
Q 53.65 1.1 53.65 1.4 53.6 1.7 53.5 2 53.1 3.05 52.3 3.65 51.5 4.2 50.45 4.25 49.25 4.2 48.45 3.65 47.65 3.05 47.3 2.05 46.85 1.1 46.85 -0.1 46.9 -2.25 47.9 -3.45
M 35.2 -6.1
Q 34.15 -5.85 33.4 -5.35
L 33.9 -3.9
Q 34.55 -4.3 35.35 -4.55 36.2 -4.8 37.05 -4.8 38.3 -4.75 38.85 -4.3 39.45 -3.8 39.65 -3.15 39.8 -2.5 39.8 -2
L 39.8 -1.75
Q 36.3 -1.75 34.4 -0.6 32.55 0.55 32.55 2.75 32.55 3.65 32.95 4.4 33.35 5.2 34.2 5.7 35 6.2 36.25 6.2 37.5 6.2 38.45 5.65 39.4 5.15 39.95 4.4
L 40 4.4 40.2 5.95 42.15 5.95
Q 42.05 5.35 42.05 4.6 42 3.85 42 3.05
L 42 -1.45
Q 42 -2.7 41.6 -3.85 41.2 -4.95 40.2 -5.65 39.2 -6.4 37.4 -6.4 36.2 -6.4 35.2 -6.1
M 37.45 -0.05
Q 38.6 -0.25 39.85 -0.25
L 39.85 1.85
Q 39.85 2.05 39.8 2.25 39.8 2.4 39.75 2.55 39.45 3.35 38.75 3.95 38 4.55 36.8 4.6 35.95 4.6 35.35 4.1 34.75 3.55 34.75 2.5 34.75 1.35 35.5 0.75 36.3 0.15 37.45 -0.05
M 27.85 -9.65
L 25.7 -9.05 25.7 -6.15 23.8 -6.15 23.8 -4.45 25.7 -4.45 25.7 2.15
Q 25.7 3.2 25.9 4 26.05 4.8 26.55 5.25 26.95 5.7 27.5 5.95 28.15 6.2 28.9 6.2 29.55 6.2 30.05 6.1 30.55 6 30.85 5.9
L 30.75 4.25
Q 30.55 4.3 30.25 4.35 29.9 4.4 29.5 4.4 28.55 4.4 28.2 3.8 27.8 3.2 27.85 2.05
L 27.85 -4.45 31 -4.45 31 -6.15 27.85 -6.15 27.85 -9.65
M 19.2 -1.05
Q 18 -1.5 17.45 -1.95 16.9 -2.4 16.9 -3.1 16.9 -3.8 17.4 -4.3 17.9 -4.75 18.9 -4.75 19.75 -4.75 20.4 -4.55 21 -4.3 21.35 -4.05
L 21.9 -5.65
Q 21.4 -6 20.65 -6.2 19.9 -6.4 18.95 -6.4 17.65 -6.4 16.7 -5.95 15.8 -5.45 15.3 -4.65 14.8 -3.85 14.8 -2.9 14.8 -1.8 15.55 -0.9 16.35 -0.05 18 0.55 19.2 1 19.7 1.5 20.25 2 20.2 2.8 20.2 3.55 19.65 4.05 19.1 4.55 17.9 4.55 17.05 4.55 16.25 4.3 15.5 4.05 15 3.7
L 14.45 5.35
Q 15.05 5.75 15.95 5.95 16.85 6.2 17.85 6.2 20 6.15 21.15 5.2 22.35 4.2 22.35 2.55 22.35 1.25 21.55 0.35 20.75 -0.5 19.2 -1.05
M 8.8 -6.2
Q 8.05 -6.45 7.4 -6.4 6.4 -6.4 5.6 -6.05 4.8 -5.75 4.25 -5.25 3.7 -4.7 3.4 -4.15
L 3.35 -4.15 3.2 -6.15 1.3 -6.15
Q 1.35 -5.4 1.35 -4.6 1.4 -3.8 1.4 -2.9
L 1.4 5.95 3.6 5.95 3.6 -1.3
Q 3.6 -1.6 3.6 -1.85 3.65 -2.15 3.7 -2.35 4 -3.3 4.8 -3.95 5.6 -4.55 6.7 -4.6 7.7 -4.55 8.35 -4.1 8.95 -3.6 9.2 -2.8 9.5 -2 9.45 -1
L 9.45 5.95 11.65 5.95 11.65 -1.25
Q 11.65 -2.8 11.25 -3.8 10.8 -4.85 10.15 -5.4 9.5 -5.95 8.8 -6.2 Z"/>
</g>

<g id="Symbol_11_0_Layer0_2_MEMBER_0_MEMBER_0_FILL">
<path fill="#1D1D1D" stroke="none" d="
M 73.15 17.35
Q 61.3 5.55 44.6 5.5 27.9 5.45 16.05 17.3 4.2 29.15 4.2 45.9 4.25 62.65 16.05 74.4 27.85 86.2 44.55 86.2 61.25 86.2 73.1 74.35 84.95 62.55 84.95 45.85 84.95 29.2 73.15 17.35 Z"/>
</g>

<g id="Symbol_11_0_Layer0_2_MEMBER_0_MEMBER_1_FILL">
<path fill="#FFFFFF" stroke="none" d="
M 65.05 29.85
Q 65.05 27.9 63.8 26.65 62.5 25.35 60.55 25.35
L 28.6 25.35
Q 26.65 25.35 25.35 26.65 24.1 27.95 24.1 29.9
L 24.1 61.75
Q 24.1 63.8 25.35 65.05 26.6 66.3 28.65 66.35
L 60.5 66.35
Q 62.45 66.3 63.75 65.1 65.05 63.85 65.05 61.9 65.15 45.9 65.05 29.85 Z"/>
</g>

<g id="Symbol_11_0_Layer0_2_MEMBER_0_MEMBER_2_FILL">
<path fill="#1D1D1E" stroke="none" d="
M 60.7 42.55
Q 60.7 41.95 60.05 41.95
L 57.35 41.95
Q 56.65 41.9 56.85 42.6 57.6 45.1 57.15 47.65 55.9 55.35 48.85 57.8 41.65 60.4 35.95 55.2 30.45 50.15 32.25 42.6 32.35 42.15 32.25 42.05 32.15 41.95 31.75 41.95 30.5 42.05 29.2 41.95 28.75 41.9 28.6 42.1 28.45 42.25 28.45 42.75
L 28.5 59.9
Q 28.5 61.05 28.95 61.5 29.45 61.95 30.55 61.95
L 58.7 61.95
Q 60.65 61.95 60.7 60.1
L 60.7 42.55 Z"/>
</g>

<g id="Symbol_11_0_Layer0_2_MEMBER_0_MEMBER_3_FILL">
<path fill="#1D1D1D" stroke="none" d="
M 52.9 45.95
Q 52.95 42.5 50.5 40 48 37.5 44.6 37.5 41.15 37.5 38.7 39.95 36.25 42.4 36.25 45.8 36.25 49.35 38.65 51.75 41.1 54.15 44.6 54.15 48 54.15 50.45 51.75 52.85 49.35 52.9 45.95 Z"/>
</g>

<g id="Symbol_11_0_Layer0_2_MEMBER_0_MEMBER_4_FILL">
<path fill="#1D1E1E" stroke="none" d="
M 58.8 35.85
Q 60.65 35.85 60.65 34.1 60.75 32.3 60.65 30.45 60.65 28.65 58.8 28.65
L 55.2 28.65
Q 53.6 28.65 53.45 30.1 53.2 32.45 53.5 34.5 53.65 35.85 55.05 35.85
L 58.8 35.85 Z"/>
</g>

<path id="Symbol_9_0_Layer0_0_1_STROKES" stroke="#303030" stroke-opacity="0.4980392156862745" stroke-width="1" stroke-linejoin="round" stroke-linecap="round" fill="none" d="
M -92.8 0
L 92.8 0"/>
</defs>

<g transform="matrix( 1, 0, 0, 1, 104.5,38.85) ">
<g transform="matrix( 1, 0, 0, 1, 0,3.5) ">
<g transform="matrix( 1, 0, 0, 1, 0,15.2) ">
<g transform="matrix( 1, 0, 0, 1, 0,0) ">
<use xlink:href="#Symbol_9_0_Layer0_0_1_STROKES"/>
</g>
</g>

<g transform="matrix( 1, 0, 0, 1, 0,27.4) ">
<g transform="matrix( 1, 0, 0, 1, 0,0) ">
<use xlink:href="#Symbol_10_0_Layer0_0_FILL"/>
</g>
</g>

<g transform="matrix( 0.63165283203125, 0, 0, 0.63165283203125, -25.85,-41.95) ">
<use xlink:href="#Symbol_11_0_Layer0_2_MEMBER_0_MEMBER_0_FILL"/>
</g>

<g transform="matrix( 0.63165283203125, 0, 0, 0.63165283203125, -25.85,-41.95) ">
<use xlink:href="#Symbol_11_0_Layer0_2_MEMBER_0_MEMBER_1_FILL"/>
</g>

<g transform="matrix( 0.63165283203125, 0, 0, 0.63165283203125, -25.85,-41.95) ">
<use xlink:href="#Symbol_11_0_Layer0_2_MEMBER_0_MEMBER_2_FILL"/>
</g>

<g transform="matrix( 0.63165283203125, 0, 0, 0.63165283203125, -25.85,-41.95) ">
<use xlink:href="#Symbol_11_0_Layer0_2_MEMBER_0_MEMBER_3_FILL"/>
</g>

<g transform="matrix( 0.63165283203125, 0, 0, 0.63165283203125, -25.85,-41.95) ">
<use xlink:href="#Symbol_11_0_Layer0_2_MEMBER_0_MEMBER_4_FILL"/>
</g>
</g>
</g>
</svg>
