
<svg xmlns="http://www.w3.org/2000/svg" version="1.1" xmlns:xlink="http://www.w3.org/1999/xlink" preserveAspectRatio="none" x="0px" y="0px" width="209px" height="84px" viewBox="0 0 209 84">
<defs>
<g id="Symbol_5_0_Layer0_0_FILL">
<path fill="#000000" stroke="none" d="
M -92.1 21.2
Q -92.8 22.25 -92.8 23.55 -92.75 25.3 -91.6 26.45 -90.45 27.6 -88.35 28.3 -86.65 28.95 -85.9 29.75 -85.15 30.5 -85.2 31.7 -85.2 33 -86.1 33.75 -87 34.55 -88.7 34.55 -89.85 34.55 -90.85 34.2 -91.85 33.9 -92.6 33.45
L -93.15 35.25
Q -92.7 35.6 -92 35.8 -91.3 36.05 -90.5 36.2 -89.65 36.35 -88.85 36.35 -86.85 36.35 -85.55 35.65 -84.25 35 -83.6 33.9 -82.95 32.8 -82.95 31.5 -82.95 29.65 -84.05 28.5 -85.1 27.35 -87.25 26.55 -89 25.9 -89.8 25.2 -90.6 24.45 -90.6 23.3 -90.6 22.7 -90.3 22.15 -90 21.55 -89.25 21.2 -88.55 20.8 -87.45 20.8 -86.3 20.8 -85.45 21.05 -84.65 21.35 -84.25 21.55
L -83.65 19.8
Q -84.2 19.45 -85.15 19.25 -86.05 19 -87.35 19 -89 19 -90.2 19.6 -91.45 20.2 -92.1 21.2
M -75.2 23.75
Q -77 23.75 -78.25 24.6 -79.55 25.45 -80.2 26.95 -80.9 28.4 -80.9 30.25 -80.9 32.1 -80.2 33.45 -79.45 34.8 -78.15 35.6 -76.8 36.35 -74.95 36.35 -73.5 36.35 -72.5 36.1 -71.5 35.85 -70.9 35.6
L -71.3 34
Q -71.9 34.3 -72.7 34.45 -73.5 34.65 -74.65 34.65 -75.75 34.65 -76.7 34.2 -77.65 33.8 -78.2 32.85 -78.75 31.95 -78.8 30.45
L -70.3 30.45
Q -70.3 30.3 -70.25 30 -70.25 29.75 -70.25 29.4 -70.2 28.55 -70.45 27.6 -70.7 26.65 -71.25 25.75 -71.8 24.85 -72.8 24.3 -73.75 23.75 -75.2 23.75
M -72.6 27.3
Q -72.35 28.15 -72.35 28.85
L -78.75 28.85
Q -78.7 28.1 -78.3 27.25 -77.95 26.45 -77.2 25.9 -76.5 25.35 -75.4 25.3 -74.15 25.35 -73.5 25.9 -72.85 26.5 -72.6 27.3
M -52.25 24
L -54.55 24 -56.9 30.8
Q -57.25 31.6 -57.5 32.4 -57.75 33.15 -57.95 33.9
L -58 33.9
Q -58.2 33.15 -58.45 32.4 -58.7 31.6 -59 30.8
L -61.35 24 -63.7 24 -59.1 36.1 -57 36.1 -52.25 24
M -39.25 29.95
Q -39.25 28.1 -39.95 26.7 -40.7 25.3 -42 24.55 -43.3 23.75 -45.05 23.75 -46.75 23.75 -48.1 24.5 -49.45 25.25 -50.25 26.7 -51 28.1 -51.05 30.15 -51.05 32.05 -50.25 33.45 -49.5 34.85 -48.2 35.6 -46.9 36.35 -45.25 36.35 -43.75 36.35 -42.4 35.7 -41.05 35.05 -40.15 33.6 -39.25 32.2 -39.25 29.95
M -45.1 25.4
Q -43.8 25.4 -43 26.15 -42.2 26.85 -41.85 27.9 -41.5 28.95 -41.5 30 -41.5 31.4 -41.95 32.45 -42.45 33.5 -43.25 34.1 -44.1 34.7 -45.15 34.7 -46.25 34.7 -47.05 34.1 -47.9 33.5 -48.35 32.45 -48.8 31.4 -48.85 30.1 -48.85 28.9 -48.45 27.85 -48.05 26.75 -47.25 26.1 -46.4 25.4 -45.1 25.4
M -34.6 24
L -36.5 24
Q -36.45 24.85 -36.45 25.75 -36.4 26.7 -36.4 27.75
L -36.4 36.1 -34.25 36.1 -34.25 29.65
Q -34.25 29.35 -34.2 29.1 -34.2 28.85 -34.15 28.65 -33.9 27.35 -33.15 26.6 -32.35 25.85 -31.2 25.8 -30.95 25.8 -30.8 25.8 -30.6 25.85 -30.45 25.9
L -30.45 23.8
Q -30.6 23.75 -30.75 23.75 -30.9 23.75 -31.05 23.75 -32.2 23.75 -33.1 24.45 -34 25.15 -34.4 26.4
L -34.55 26.4 -34.6 24
M -23.4 23.75
Q -25.2 23.75 -26.45 24.6 -27.75 25.45 -28.4 26.95 -29.1 28.4 -29.1 30.25 -29.1 32.1 -28.4 33.45 -27.65 34.8 -26.35 35.6 -25 36.35 -23.15 36.35 -21.7 36.35 -20.7 36.1 -19.7 35.85 -19.1 35.6
L -19.5 34
Q -20.1 34.3 -20.9 34.45 -21.7 34.65 -22.85 34.65 -23.95 34.65 -24.9 34.2 -25.85 33.8 -26.4 32.85 -26.95 31.95 -27 30.45
L -18.5 30.45
Q -18.5 30.3 -18.45 30 -18.45 29.75 -18.45 29.4 -18.4 28.55 -18.65 27.6 -18.9 26.65 -19.45 25.75 -20 24.85 -21 24.3 -21.95 23.75 -23.4 23.75
M -20.8 27.3
Q -20.55 28.15 -20.55 28.85
L -26.95 28.85
Q -26.9 28.1 -26.5 27.25 -26.15 26.45 -25.4 25.9 -24.7 25.35 -23.6 25.3 -22.35 25.35 -21.7 25.9 -21.05 26.5 -20.8 27.3
M -12.05 23.75
Q -13.35 23.75 -14.3 24.2 -15.2 24.7 -15.7 25.5 -16.2 26.3 -16.2 27.25 -16.2 28.35 -15.45 29.25 -14.65 30.1 -13 30.7 -11.8 31.15 -11.3 31.65 -10.75 32.15 -10.8 32.95 -10.8 33.7 -11.35 34.2 -11.9 34.7 -13.1 34.7 -13.95 34.7 -14.75 34.45 -15.5 34.2 -16 33.85
L -16.55 35.5
Q -15.95 35.9 -15.05 36.1 -14.15 36.35 -13.15 36.35 -11 36.3 -9.85 35.35 -8.65 34.35 -8.65 32.7 -8.65 31.4 -9.45 30.5 -10.25 29.65 -11.8 29.1 -13 28.65 -13.55 28.2 -14.1 27.75 -14.1 27.05 -14.1 26.35 -13.6 25.85 -13.1 25.4 -12.1 25.4 -11.25 25.4 -10.6 25.6 -10 25.85 -9.65 26.1
L -9.1 24.5
Q -9.6 24.15 -10.35 23.95 -11.1 23.75 -12.05 23.75
M 13.5 24.5
Q 12.5 23.75 10.7 23.75 9.5 23.75 8.5 24.05 7.45 24.3 6.7 24.8
L 7.2 26.25
Q 7.85 25.85 8.65 25.6 9.5 25.35 10.35 25.35 11.6 25.4 12.15 25.85 12.75 26.35 12.95 27 13.1 27.65 13.1 28.15
L 13.1 28.4
Q 9.6 28.4 7.7 29.55 5.85 30.7 5.85 32.9 5.85 33.8 6.25 34.55 6.65 35.35 7.5 35.85 8.3 36.35 9.55 36.35 10.8 36.35 11.75 35.8 12.7 35.3 13.25 34.55
L 13.3 34.55 13.5 36.1 15.45 36.1
Q 15.35 35.5 15.35 34.75 15.3 34 15.3 33.2
L 15.3 28.7
Q 15.3 27.45 14.9 26.3 14.5 25.2 13.5 24.5
M 10.75 30.1
Q 11.9 29.9 13.15 29.9
L 13.15 32
Q 13.15 32.2 13.1 32.4 13.1 32.55 13.05 32.7 12.75 33.5 12.05 34.1 11.3 34.7 10.1 34.75 9.25 34.75 8.65 34.25 8.05 33.7 8.05 32.65 8.05 31.5 8.8 30.9 9.6 30.3 10.75 30.1
M 5.95 18.45
Q 5.6 18.3 5.1 18.2 4.65 18.1 4.05 18.1 3.25 18.1 2.5 18.35 1.75 18.6 1.1 19.2 0.35 19.95 0 21.05 -0.3 22.15 -0.3 23.45
L -0.3 24 -2 24 -2 25.7 -0.3 25.7 -0.3 36.1 1.85 36.1 1.85 25.7 4.8 25.7 4.8 24 1.85 24 1.85 23.35
Q 1.85 22.4 2.05 21.6 2.25 20.85 2.8 20.35 3.3 19.85 4.2 19.85 4.7 19.85 5.05 19.95 5.4 20 5.6 20.1
L 5.95 18.45
M 24.45 23.75
Q 22.45 23.75 21 24.6 19.55 25.4 18.75 26.85 17.95 28.3 17.95 30.2 17.95 32.05 18.7 33.4 19.45 34.8 20.8 35.55 22.15 36.35 23.95 36.35 25.2 36.35 26.1 36.1 27 35.9 27.45 35.65
L 27.05 34
Q 26.6 34.2 25.95 34.4 25.3 34.6 24.35 34.6 23.15 34.6 22.2 34.05 21.25 33.5 20.7 32.5 20.2 31.5 20.15 30.1 20.15 28.8 20.65 27.75 21.15 26.75 22.1 26.15 23.05 25.5 24.45 25.5 25.35 25.5 25.95 25.7 26.6 25.85 27 26.1
L 27.5 24.4
Q 27.05 24.15 26.25 23.95 25.45 23.75 24.45 23.75
M 34.85 23.75
Q 33.05 23.75 31.8 24.6 30.5 25.45 29.85 26.95 29.15 28.4 29.15 30.25 29.15 32.1 29.85 33.45 30.6 34.8 31.9 35.6 33.25 36.35 35.1 36.35 36.55 36.35 37.55 36.1 38.55 35.85 39.15 35.6
L 38.75 34
Q 38.15 34.3 37.35 34.45 36.55 34.65 35.4 34.65 34.3 34.65 33.35 34.2 32.4 33.8 31.85 32.85 31.3 31.95 31.25 30.45
L 39.75 30.45
Q 39.75 30.3 39.8 30 39.8 29.75 39.8 29.4 39.85 28.55 39.6 27.6 39.35 26.65 38.8 25.75 38.25 24.85 37.25 24.3 36.3 23.75 34.85 23.75
M 37.45 27.3
Q 37.7 28.15 37.7 28.85
L 31.3 28.85
Q 31.35 28.1 31.75 27.25 32.1 26.45 32.85 25.9 33.55 25.35 34.65 25.3 35.9 25.35 36.55 25.9 37.2 26.5 37.45 27.3
M 44.7 18.35
L 42.55 18.35 42.55 33
Q 42.55 33.8 42.5 34.65 42.45 35.45 42.45 36.1
L 44.35 36.1 44.4 34.1 44.5 34.1
Q 45.2 35.3 46.2 35.85 47.25 36.4 48.55 36.35 49.95 36.35 51.15 35.65 52.4 34.95 53.15 33.5 53.95 32.05 53.95 29.9 53.95 28.05 53.3 26.7 52.7 25.3 51.55 24.5 50.4 23.75 48.9 23.75 47.4 23.75 46.4 24.35 45.35 24.95 44.75 25.95
L 44.7 25.95 44.7 18.35
M 51.35 27.75
Q 51.75 28.75 51.75 29.95 51.75 32.1 50.8 33.35 49.85 34.6 48.1 34.6 46.9 34.6 46 33.9 45.15 33.2 44.8 32.05 44.75 31.85 44.75 31.65 44.7 31.45 44.7 31.25
L 44.7 29.1
Q 44.7 28.8 44.75 28.6 44.8 28.35 44.85 28.2 45.2 26.9 46.1 26.2 47 25.5 48.15 25.5 49.35 25.5 50.15 26.1 50.95 26.7 51.35 27.75
M 64.95 24.55
Q 63.65 23.75 61.9 23.75 60.2 23.75 58.85 24.5 57.5 25.25 56.7 26.7 55.95 28.1 55.9 30.15 55.9 32.05 56.7 33.45 57.45 34.85 58.75 35.6 60.05 36.35 61.7 36.35 63.2 36.35 64.55 35.7 65.9 35.05 66.8 33.6 67.7 32.2 67.7 29.95 67.7 28.1 67 26.7 66.25 25.3 64.95 24.55
M 58.5 27.85
Q 58.9 26.75 59.7 26.1 60.55 25.4 61.85 25.4 63.15 25.4 63.95 26.15 64.75 26.85 65.1 27.9 65.45 28.95 65.45 30 65.45 31.4 65 32.45 64.5 33.5 63.7 34.1 62.85 34.7 61.8 34.7 60.7 34.7 59.9 34.1 59.05 33.5 58.6 32.45 58.15 31.4 58.1 30.1 58.1 28.9 58.5 27.85
M 78.7 24.55
Q 77.4 23.75 75.65 23.75 73.95 23.75 72.6 24.5 71.25 25.25 70.45 26.7 69.7 28.1 69.65 30.15 69.65 32.05 70.45 33.45 71.2 34.85 72.5 35.6 73.8 36.35 75.45 36.35 76.95 36.35 78.3 35.7 79.65 35.05 80.55 33.6 81.45 32.2 81.45 29.95 81.45 28.1 80.75 26.7 80 25.3 78.7 24.55
M 77.7 26.15
Q 78.5 26.85 78.85 27.9 79.2 28.95 79.2 30 79.2 31.4 78.75 32.45 78.25 33.5 77.45 34.1 76.6 34.7 75.55 34.7 74.45 34.7 73.65 34.1 72.8 33.5 72.35 32.45 71.9 31.4 71.85 30.1 71.85 28.9 72.25 27.85 72.65 26.75 73.45 26.1 74.3 25.4 75.6 25.4 76.9 25.4 77.7 26.15
M 93.8 24
L 91.15 24 87.6 28.2
Q 87.3 28.5 87.05 28.85 86.75 29.25 86.5 29.55
L 86.45 29.55 86.45 18.35 84.3 18.35 84.3 36.1 86.45 36.1 86.45 31.55 87.6 30.3 91.75 36.1 94.45 36.1 89.1 28.95 93.8 24 Z"/>
</g>

<g id="Symbol_5_0_Layer0_1_MEMBER_0_MEMBER_0_FILL">
<path fill="#000000" stroke="none" d="
M 25.5 -10.3
Q 25.5 -20.8 17.95 -28.3 10.45 -35.8 -0.05 -35.75 -10.65 -35.7 -18.1 -28.25 -25.55 -20.85 -25.5 -10.25 -25.5 0.3 -18 7.75 -10.6 15.25 -0.05 15.25 10.5 15.2 18 7.7 25.5 0.2 25.5 -10.3 Z"/>
</g>

<g id="Symbol_5_0_Layer0_1_MEMBER_0_MEMBER_1_FILL">
<path fill="#FFFFFF" stroke="none" d="
M 46.8 22.2
Q 45.95 20.95 43.15 21 37.7 21 35.7 23 33.65 25 33.6 30.4
L 33.6 31.3
Q 33.9 33.4 31.9 33.2 29.9 33 29.75 34.3 29.7 35.05 29.95 36.65 29.8 38.6 29.85 38.75 30.1 39.85 31.8 39.55 33.05 39.35 33.45 40.05 33.65 40.45 33.6 41.7
L 33.6 52.8
Q 33.6 57 34.3 57.7 35 58.35 39.25 58.3 40.55 58.25 41 57.75 41.35 57.3 41.35 56 41.4 47 41.25 42.5 41.2 40.75 41.7 40.1 42.3 39.35 44.1 39.55 46.5 39.8 46.75 38.1 46.6 35.85 46.8 34.95 47.15 33.4 46.1 33.2 44.75 33.3 44.15 33.15 43.1 33.25 42.6 33.25 41.65 33.25 41.35 32.35 40.55 30.15 41.55 28.7 42.5 27.3 44.85 27.1 45.25 27.1 46.05 27.2 46.75 27.1 46.95 26.2 47.65 23.4 46.8 22.2 Z"/>
</g>

<path id="Symbol_9_0_Layer0_0_1_STROKES" stroke="#303030" stroke-opacity="0.4980392156862745" stroke-width="1" stroke-linejoin="round" stroke-linecap="round" fill="none" d="
M -92.8 0
L 92.8 0"/>
</defs>

<g transform="matrix( 1, 0, 0, 1, 104.5,38.85) ">
<g transform="matrix( 1, 0, 0, 1, 0,17.9) ">
<g transform="matrix( 1, 0, 0, 1, 0,0) ">
<use xlink:href="#Symbol_9_0_Layer0_0_1_STROKES"/>
</g>
</g>

<g transform="matrix( 1, 0, 0, 1, 0,0) ">
<use xlink:href="#Symbol_5_0_Layer0_0_FILL"/>
</g>

<g transform="matrix( 1, 0, 0, 1, 0,0) ">
<use xlink:href="#Symbol_5_0_Layer0_1_MEMBER_0_MEMBER_0_FILL"/>
</g>

<g transform="matrix( 0.7404632568359375, 0, 0, 0.73974609375, -28.5,-39.55) ">
<use xlink:href="#Symbol_5_0_Layer0_1_MEMBER_0_MEMBER_1_FILL"/>
</g>
</g>
</svg>
