<?xml version="1.0" encoding="utf-8"?>
<!-- Generator: Adobe Illustrator 18.1.1, SVG Export Plug-In . SVG Version: 6.00 Build 0)  -->
<svg version="1.1" id="Layer_1" xmlns="http://www.w3.org/2000/svg" xmlns:xlink="http://www.w3.org/1999/xlink" x="0px" y="0px"
	 viewBox="0 0 384 514" enable-background="new 0 0 384 514" xml:space="preserve">
<g>
	<g>
		<path fill="#FEFEFE" d="M1,412C1,233.5,1,55,0.9-123.5c0-3.7,0.8-4.6,4.6-4.6c125,0.1,250,0.1,375,0c3.7,0,4.6,0.8,4.6,4.6
			c-0.1,235-0.1,470,0,705c0,3.7-0.8,4.6-4.6,4.6c-125-0.1-250-0.1-375,0c-3.7,0-4.7-0.8-4.6-4.6C1.2,572.7,1,563.8,1,555
			c0.8-1,1.2-2.3,2.3-3.2c19.5-16.9,38.2-34.8,59.6-49.3c12.1-8.3,25.2-14.9,39.1-19.9c26.1-9.4,52.4-18.4,78.9-26.6
			c1.9-0.6,3.9-1,5.8-1.6c7.6-2.7,16.1-3.9,20.5-12c-2.6,1.5-4.8,3.7-7.7,4.6c-4.3-0.7-5.2-2-2.8-5.2c3.4-4.6,4.7-9.4,3.4-15
			c-0.4-1.6-0.1-3.4,0.8-4.8c4.6-7.9,6.3-17.3,11.6-24.8c3.7-5.2,7.5-10.1,9.3-16.2c1.3-4.5,3-8.7,5-12.9
			c3.3-6.8,7.5-11.8,15.1-13.9c4.7-1.3,5.6-4.3,5.4-10.3c-0.3-10.8,1.1-21.5,3.8-32c0.1-0.3,0.2-0.6,0.4-0.9
			c2.6-5.7,6.3-10.8,7.7-17c2.9-5.4,5.3-11.1,8.3-16.4c1.6-2.8,1.1-5.8,1.7-8.7c2.9-8.5,6.3-16.8,8.1-25.6c1.5-2.5,2-4.8-0.7-7
			c-1.9-1.6-1.9-4.2-2.3-6.4c-4-22.7-12.7-43.6-24.4-63.3c-3.2-5.4-6.7-10.7-10.3-15.9c-3.1-4.5-6.6-8.7-11.7-11.2
			c-3.8-2.8-6.8-6.4-10.2-9.6c-0.8-0.8-1.6-1.6-2.4-2.4c-3.8-4.5-9.5-6.1-13.9-9.6c-2.6-4.5-5.6-8.6-11.1-9.8
			c-1.6-0.6-3.3-0.7-5-0.1c-1.9,0.6-3.7,1.5-5.7,2c-1.7,0.8-1.4,3.4-3.3,4c-2.7,0.8-5.8,0.9-6.9,4.2c-0.7,4.7,0,5.8,4.8,6.7
			c3,0.5,6.1,0.6,6.5,4.7c-1.6,2.9-4.8,2.6-7.4,3.5c-3,1.1-6,2-9,3c-3.5,0.7-6.9,2-10.3,3.1c-12.1,3.1-23.9,7-35.8,10.6
			c-2.1,0.6-4,1.6-6.3,1.3c-1.8-0.4-3.6-0.7-3.8-3.1c0.2-6.5,3-12.3,4.8-18.3c9.7-31.2,19.6-62.3,33.3-92c0.7-1.6,1.5-3.1,2.2-4.7
			c1.5-3,2.2-6.4,3.8-9.3c3.1-4.4,2.9-9.4,2.7-14.4c-0.1-2.3-1.7-2.9-3.5-2.2c-3.1,1.1-6.4,2.1-8.5,4.9c-9,11.8-20.2,21.6-30.4,32.4
			c-6.1,6.4-11.4,13.4-14,22.1c-0.3,1.4-0.8,2.8-1.2,4.2c-0.4,1.2-0.8,2.4-1.1,3.7c-6.8,20.6-10,42-14.5,63.1
			c-0.9,4.2-1.8,8.4-2.4,12.7c-1.3,3.5-0.2,7.8-3.4,10.7c-5,1.3-10.4,0.7-15.1,3.6c-2.3,1.4-4.4,2.8-5,5.6c-1,3.6-1.9,7.2-2.6,10.9
			c-1.3,12.8-3.5,25.4-3.5,38.3c0,2-0.1,4,0.6,5.9c1,8.5,1.7,17.1,3.3,25.6c0.2,6.2,2.8,12,3.5,18.1c0.7,4.2,2.6,8,4,12.1
			c3.9,11.8,9.9,22.5,16.6,32.9c0.2,0.4,0.4,0.9,0.6,1.3c1.8,3.9,0.3,7.3-2.3,10.1c-5.5,6-10.1,12.8-16.8,17.7
			c-1.9,1.4-3.5,3.1-4.9,5c-6.3,7.5-13.9,13.8-20.4,21.1c-6.1,7-12.1,14-16.6,22.2c-0.8,1.5-1.6,2.9-2.2,4.4
			c-3.6,4.9-6.2,10.5-10.2,15.2C3.6,411.3,2.7,412.7,1,412z"/>
		<path fill="#E6E4E0" d="M14,395c3.2-7.9,8.2-14.7,13.7-21.1c1.7-2,3.6-3.9,5.3-5.9c2.3-1.1,3.6-0.7,2.9,2.2
			c-0.2,1-0.9,1.8-1.5,2.6c-6.3,7.6-11.6,15.8-15.2,25.1c1.9-3.3,4.5-5.6,8-7.3c5.7-2.7,11-5.6,13.4-12.4c1.2-3.3,5-5.1,7.9-7.4
			c1.7-1.3,3.3-2.6,4-4.9c2.6-9,11.8-14.7,20.6-12.4c2.7,0.7,5.7,2,5.8,5.8c-3.5,1-6.6-1.6-10.2-1.1c-6.5,0.9-9.4,3-10.6,9.6
			c-0.4,1.9-1,3.8-2.7,4.6c-5.1,2.5-6.5,7.7-9,12.1c-0.3,0.6-0.3,1.4-0.8,1.8c-4.5,3.8-8.9,7.7-10.9,13.5c-5.9,0.2-8.9,4.9-13.1,7.9
			c-2.9,2.1-4.2,3.8-4.7,6.8c-0.6,3.5-0.4,7,0.1,10.4c0.7,5.2,6.5,8.4,11.8,7.3c3.8-0.9,7.5-3.1,11.6-1.7c1.4,1.3,0.3,2.1-0.7,2.4
			c-1.8,0.6-1.8,1.8-1.7,3.3c-0.3,0.3-0.7,0.6-1.1,0.8c-3.3,1-6.7,1.6-9.9,2.9c-4.5,1.8-4.8,2.9-2,7.2c5.8,5.6,5,11,2.1,18.4
			c-2.1,5.4-2.7,12.2-3.6,18.4c-1,6.7,5.9,10.9,12.4,9.1c19.2-5.2,38-12,57.3-17c14.5-3.8,29-7.8,43.1-12.7c7.3-2.6,15-4.5,22-7.9
			c1.5-0.7,3-1.4,4.8-0.9c2.1,2.5-1.4,4.2-0.9,6.5c-3,2.7-6.8,4.3-10.7,5c-8.2,1.4-15.9,4.6-23.6,7.5c-5.1,1.9-10.4,3.8-15.6,5
			c-9.2,2.1-17.7,6.7-27.3,7.3c-3.9,0.2-7.1,2.7-10.7,3.9c-11.7,3.9-22.7,9.2-33.3,15.6c-3.4,2-6.4,4.2-8.4,7.5
			c-1.4,2.4-3.6,3.8-6.1,4.8c-4.9,1.9-10.8,0-12.1-5.1c-1.6-6-5.6-10.9-6.8-17.1c-0.5-2.9-0.8-5.5,0.5-8.2c2-4.3,3.1-8.8,3.4-13.5
			c0.2-4.5,0.4-8.7,3.1-12.8c2.4-3.6-0.4-10.9-3.9-13.4c-3.5-2.5-7.3-4.6-9.7-8.4c0-1.3,0-2.7,0-4c1.8-1.7,3.7-0.7,5.6-0.1
			c1.7,0.5,3.4,1.2,5.9-0.3C7.5,431,2.4,428.1,1,422c0-3.3,0-6.7,0-10c1-0.7,2-1.3,3-2c0.8,0.8,0.6,1.8,0.4,2.8
			c5.2-3.7,8.5-8.8,10.6-14.8C15.5,396.5,15.8,395.5,14,395z"/>
		<path fill="#F1EEE9" d="M1,439c5.1,2,8.1,7.4,13.7,8.6c1.2,0.3,1.3,1.8,1.3,3c-0.1,2.3,0.2,4.6,0.9,6.9c0.3,1.1,0.5,2.9-0.1,3.4
			c-6.4,4.8-2.2,12.3-4.7,18.1c-0.8,1.8-0.6,4.1-1.5,5.7c-4.3,7.4-1.1,13.7,2.6,20c0.8,1.4,2,2.8,1.8,4.6c-0.5,5,3.8,7,6.8,8
			c2.5,0.9,7.2-0.8,8.6-3.6c4.6-9,13.8-11.3,21.4-16.1c8.8-5.5,18.7-8.7,28.3-11.7c9.5-2.9,19.3-5.3,29-8c12.5-3.5,24.9-7.3,37-12.1
			c4.5-1.8,9.8-1.3,14-4.4c0.7-0.5,1.3-1,2-1.5c5.2-4.6,12-5.1,18.2-7c2.2-0.7,4.9,0.2,6.8,2c-13.2,4.3-26.4,8.6-39.6,12.9
			c-18.9,6.2-37.7,12.7-56.1,20.4c-22.8,9.5-41.6,25-60.3,40.8C21,537.6,12.1,547.5,1,555C1,516.3,1,477.7,1,439z"/>
		<path fill="#F1EEE9" d="M1,422c3.1,4.3,6.3,8.4,11.3,10.7c1.1,0.5,1.8,1.5,1.5,2.8c-0.4,1.8-2,1.4-3.2,1.5c-3.5,0.5-6.1-2.7-9.6-2
			C1,430.7,1,426.3,1,422z"/>
		<path fill="#EAE9EE" d="M38,436c-2.1-1.6-3.7-3.1,0.4-3.9c0.9-0.2,2-0.1,2.6-1.1c0.8-1.4,2.2-2,3.6-2.5
			c14.5-4.7,25.3-15.1,36.7-24.3c6.3-5.1,9.6-12.5,9.6-20.2c0-7.2-2.9-14.2-8.1-19.9c-1.4-1.6-3.4-2.8-3.8-5.1
			c-5.7-5.6-13.1-5.8-19.5-1.2c-3.3,2.4-6,4.3-5.7,8.9c0.2,2.4-2.3,3.4-3.9,4.8c-3.7,3.2-8.3,5.3-9.6,11.1c-0.7,2.8-4.8,5.1-7.8,6.9
			c-9.1,5.4-9.1,5.2-14.3,11.9c-0.7-2.8,0.4-7.5,3.3-12c3.9-6.1,7.3-12.6,12.4-17.9c1-1,3.8-3.4-0.8-3.6c6.7-7,13.3-14,20-21
			c0.4-0.3,0.8-0.6,1.2-0.8c1.6-0.8,2.6-4.1,4.8-1.9c2,2-0.3,3.9-1.6,5.6c5-3.7,9.6-8,16.6-7.6c2.5,0.1,4.3-2.2,4.9-4.4
			c1.6-6,4.2-11.2,9.5-14.7c1.1-0.7,1.4-2.2,2-3.4c2.4-4,4.8-8,9.2-10.2c2.8-1.4,3.8-3.5,2.6-6.6c-0.8-2.2-0.7-4.6-1.4-6.8
			c-1.2-3.9,0.9-6.7,3.8-9c2.8-1,3.5-3.8,5.2-5.9c2.8-3.5,6.1-3.8,8.9-0.9c0.8,0.8,1.9,1.9,0.9,3c-2.5,2.6-1.7,5-0.4,7.8
			c1.4,3-0.2,5-2.6,6.7c-5.4,3.8-5.7,4.6-4.1,10.7c0.9,3.3-0.4,6.2-1.2,9.3c-0.4,1.4-1.7,2-3.1,2.2c-1.9,0.2-4-0.5-5.5,1.5
			c-3,4-6.8,7.4-7.8,12.6c-0.6,2.8,1.4,4.3,4.3,3.3c1.6-0.6,2.8-1.9,4.2-2.7c3.5-2.1,6.8-0.8,7.4,3.2c0.3,2.4,1,4.5,2.3,6.5
			c1.1,1.6,1.4,3.5,0.6,5.3c-2.3,5-1.5,10.1-0.6,15.2c-4.3,2.1-5.3,5.4-4.5,10.1c0.7,4.3-2.3,7.9-4.5,11.2
			c-5.5,8.1-12.6,14.9-19.7,21.6c-2.2,2.1-4.1,4.4-6.2,6.4c-1.4,1.3-1.9,2.6-0.9,4.4c-0.2,1.1-0.9,1.9-1.7,2.3
			c-10.3,4.5-19.1,11.9-30.2,14.6C42.8,435.4,40.6,437.6,38,436z"/>
		<path fill="#ECEBF0" d="M260,294c-1.1,9.1-9.1,15.6-9.4,24.9c-0.3,8.8-3.5,17.4-1.8,26.4c0.9,4.9-1.7,8.7-6.6,10.1
			c-7,1.9-10.7,6.5-14.1,12.8c-3.7,6.8-4.8,14.3-8.2,21c-0.6,1.2-1.1,2.6-2,3.4c-6.1,5.6-8.7,13-11.3,20.5c-0.8,2.2-1.7,4.3-3,6.2
			c-2,2.9-2.9,6-1.8,9.8c1.3,4.5-0.5,8.8-3.6,12.4c-2.2,2.5-3,4.8,1.9,4.5c-1.3,3.4-4.7,3.6-7.4,4.8c-2.2,1-4.8,1-7.1,1.8
			c-1.7,0.6-3.8,1.1-4.7-1.1c-0.8-1.9,1-2.9,2.3-3.8c0.5-0.4,1.1-0.7,1.7-1c2.3-1.3,4.5-2.8,6.7-4.3c0.6-0.4,1.2-0.8,1.8-1.2
			c3.3-1.7,3.7-4.1,1.3-6.8c-2-2.3-3.4-4.9-4.6-7.6c-1.9-4.4-1-6.4,3.1-8.4c6.6-3.1,9-10.6,5.5-17c-1.5-2.7-3.7-4.4-6.8-4.2
			c-2.9,0.2-3.8,2.8-4.8,5.2c-0.8,2.1-0.7,4.2-0.5,6.4c0.4,4.4-1.3,5.8-5.6,4.9c-4.8-1-8.6-3.2-10.3-8.2c2-2.5,3.9,1.2,5.9,0.1
			c0.2-2.7-3.3-4.4-1.9-7.4c1.4-1.1,2.4,0.4,3.7,0.5c0.3-2.1-3-3.6-1.1-6c1-0.4,2-0.2,2.9-0.1c2.7,0.2,3.2-1.2,2.3-3.4
			c-1.3-3.2-3.4-6.1-5.5-8.8c-1.5-1.9-4-4.1-1.1-6.3c2.6-2,5.5-1,7.6,1.3c2,2.2,2.9,5.2,4.3,7.8c1.3,2.5,2.6,4.2,4.5,0.3
			c1.2-2.5,3.6-4.3,4.9-6.9c0.9-1.9,1.7-3.9-1.7-3c-2.7,0.7-4.2-0.1-4.7-2.8c-0.5-2.6-3-2.2-4.6-3.2c-0.4-0.3-0.5-0.8-0.5-1.2
			c1-2.4,3.4-2.5,5.3-3.3c7.6-3.1,14.8-6.7,19.9-13.5c0.2-0.4,0.5-0.8,0.8-1.1c2.9-2.8,5-6.2,6.8-9.8c1.5-2.1,1.9-4.9,4.1-6.4
			c0.8-0.5,1.7-0.9,2.8-1c5.9,1.8,6.7,4.3,2.6,8.5c-0.8,0.8-1.6,1.7-2.3,2.6c-2,2.5-1.2,4.3,1.5,5.4c3.5,1.4,7.2,1.2,10.8,1.1
			c1.6,0,2.9-1.3,3.1-2.8c0.8-6.6,3-12.9,3.6-19.5c0.2-3.1-0.7-5.4-4-6.5c-2.9-0.9-2.8-2.9-1.2-5c1.2-1.6,2.5-3.2,4.4-4
			c6.7-2.8,9.8-8.6,12.4-14.8C257.2,294.9,258,293.5,260,294z"/>
		<path fill="#E5E4EA" d="M233.9,397.2c1.6-6,4.2-12.3,7.5-18.2c13.7-24.6,27.2-49.2,35.1-76.3c2.3-8,3.8-16.2,8.3-23.3
			c0.5-0.8,0.9-2,2.1-1.7c1.3,0.3,1.2,1.6,1,2.5c-2.4,9.2-1.6,18.9-3.5,28c-1.9,8.6-2.5,17.8-6.7,25.9c-1.8,3.5-1.9,7.7-1.7,11.7
			c0.1,1.8,0.1,3.6-1.2,5.2c-2.1,2.6-2,5,0.2,8c2.9,3.9-0.9,7.3-2.8,10.2c-8.5,12.8-20.4,22.1-32.7,30.9c-1.3,1-2.7,1.2-4.2,0.8
			C233.8,400.3,234.1,398.9,233.9,397.2z"/>
		<path fill="#F6F0EF" d="M105,288c-5.9,4.3-2.6,10.1-1.3,14.6c1.5,4.8-0.7,6.6-3.7,8.1c-2.2,1.1-3.7,2.6-5.1,4.4
			c-3.5,4.5-5.3,10.2-10.7,13.4c-2.3,1.4-2.5,4.6-3.2,7.1c-1.6,6-3.7,7.4-9.8,7.7c-4.1,0.2-7.3,2.9-10.4,5.3c-1.5,1.2-2.7,2.8-5,2.8
			c-0.2-2,1.3-3,2.3-4.2c0.6-0.8,1.3-1.8,0.4-2.6c-1-1-1.8,0.2-2.5,0.8c-0.9,0.8-1.8,1.5-3,1.5c6.6-6.6,13.6-12.8,19.5-20
			c2.9-3.5,6.6-6.6,4.5-12c4.7,3.2,7.2-0.4,10-3.2c0.7-0.8,1.3-1.8,1.9-2.7c0.2-0.4,0.5-0.7,0.7-1.1c1.7-2.3,2.7-5,4.1-7.5
			c0.5-4.6-3.5-6.8-5.5-10c-4.7-5.1-6.9-11.3-8.3-17.8c-0.7-1.4-2.2-2.1-3-3.4c-0.8-1.4-1.7-2.8-1.5-4.5c0.4-1.1,1.2-1.4,2.3-1.3
			c1.8,0.6,3.2,1.9,5,2.5c1.4,0.4,1.8-0.2,1.5-1.5c-0.6-2.5-0.6-4.9-0.5-7.4c0.3-4.7,1.6-5.5,6-3.5c1.5,0.7,3,1.5,4.3,2.4
			c5.2,4,10,8.5,15,12.8c-1.7,3.2-3.2,6.3,1.4,8.4C111.5,282.2,107.9,284.9,105,288z"/>
		<path fill="#410405" d="M81,271.7c1.7,6.4,3.1,13,8.2,17.9c0.9,1.7-3.7,2.2-1,4.4c0.4,0.7,0.6,1.6,1.1,2.2
			c3.8,4.1,3.8,8.4,0.9,12.9c-0.1,0.2-0.3,0.3-0.5,0.4c-5.6-1.9-8.3-6.9-7.4-14.1c-2.1,2.8-1.6,6.2,1.4,10c1.6,2,4.1,3.4,4.2,6.4
			c-0.3,1.6-1.7,2.3-2.7,3.3c-2.8,2.9-5.6,4.2-8.2-0.2c0-0.3,0-0.7,0-1c-2-8.4-6.6-15.4-11.8-22.1c-1.8-2.3-1.8-4.6,1.5-5.9
			c0.9-0.4,1.9-0.4,2.9-0.1c5.8,1.8,7,1,7.8-5.1c0.1-0.8-0.2-1.6-0.2-2.5C77.8,275.8,77.5,272.7,81,271.7z"/>
		<path fill="#3B0809" d="M147.1,37.4c-5.4,15.1-12.5,29.6-17.6,44.9c-6.9,20.6-13.6,41.3-19.9,62.1c-0.3,1.1-0.5,2.3-0.7,3.4
			c-0.6,2.2,0.3,4.7-1.1,6.8c-0.3,0.6-0.8,1.2-1.3,1.6c-0.4,0.2-0.8,0.3-1.3,0.4c-1.5-0.2-3.1,0.7-4.5-0.7c-0.4-2.6,1.1-4.8,1.3-7.3
			c0.1-0.4,0.3-0.9,0.5-1.3c1.3-2.2,1-4.9,2.5-7c1.4-2.1,2.2-4.5,3.2-6.9c2.3-6,4.1-12.2,6.2-18.2c0.6-1.7,1-3.5,0.5-5.3
			c-0.4-3.5,1.3-6.4,3-9.2c1.7-2.2,2.2-4.9,3.3-7.4c5-14.1,9.4-28.3,14.5-42.3c2-5.5,4.6-10.6,6.8-16c0.6-1.4,1.2-2.8,2.8-3.3
			C148.2,32.9,147.8,35.1,147.1,37.4z"/>
		<path fill="#1B0604" d="M77.9,149.8c1.3-10.8,3.9-21.4,6-32.1c2.8-14.1,5.6-28.3,10-42.1c0.3-0.9,0.8-1.8,1.2-2.7
			c1.1-0.8,2.1-2.2,3.4-0.4c0.4,1.5,0,3-0.4,4.4c-2.7,8.4-3,17-2.8,25.6c-0.9,8.8-3.3,17.2-6.8,25.4c-2.8,6.4-4.6,13.2-6.6,19.8
			c-0.3,1.1-0.5,2.3-1.1,3.3c-0.6,1-1.3,2.3-2.6,1.7C77,152.3,77.5,150.9,77.9,149.8z"/>
		<path fill="#501A1B" d="M218.1,128.8c3.8,2.5,6.1,6.5,9.6,9.3c3.4,3.6,8.4,6.1,8.9,11.9c-1.7,2.5-3.4,0.5-5.1,0
			c-0.7-0.4-1.4-0.9-2.1-1.4c-1.6-1.2-3.4-1.7-4.9,0c-1.6,1.7-0.6,3.5,0.7,4.9c2.7,2.9,3.8,6.6,5.2,10.1c0.7,1.8,1,3.6-0.8,5
			c-0.8,0.5-1.7,0.9-2.5,1.3c-1.8,0.6-3.9,2.9-5.1-0.7c-0.7-3.7-1.9-6.1-6.3-3.6c-2.2,1.2-4.6,0.2-6.8-0.5c-0.3,0-0.7-0.1-1-0.1
			c-1.9,0-4,3.8-5.6-0.3c-1.2-3.2-1.4-6.2,2.2-8.1c1.2-0.6,2.4-1.2,3.5-1.9c1.8-1.4,3.5-4.1,5.3-0.1c0,0.9-0.4,1.6-1.1,2.2
			c-2,1.7-0.7,2.3,0.9,2.9c3.4,1.7,5.3-0.5,7.2-2.7c-0.7-2.5-3.2-3.2-4.9-4.7c-1.6-1.4-3.6-2.5-3.1-5.2c0.2-0.5,0.6-1.1,1-1
			c2.5,1.2,3.8,0.6,3.9-2.2c0-0.8,0.7-1.5,1.3-2c0.9-0.8,4.2-0.8,0.9-2.9c-1.1-0.7-2.3-1.3-3.4-2.1c-0.4-0.3-0.7-0.7-1-1.1
			C213.9,132.4,213.8,129.6,218.1,128.8z"/>
		<path fill="#DFDEDE" d="M236.1,149.9c-2-4.5-6-7.5-8.4-11.7c7.3,2.7,11,9.2,15.2,15.1c12.1,17.3,21.3,36,27.7,56
			c2.4,7.4,4.2,15,5.4,22.7c0.3,1.7,0.7,3,2.2,4.1c3,2.2,2.6,4.7-0.1,7c-0.6-0.4-1-1.1-1.2-1.8c-0.2-0.5-0.2-1.3-0.5-1.4
			c-4.9-1.7-4.6-6-5.2-9.9c-0.3-1.2-0.7-2.3-1.1-3.5c-2-11.1-5.8-21.6-9.9-32c-1.9-4.4-3.6-9-5.9-13.2c-1.2-2.8-2.6-5.5-4.1-8.1
			c-3.4-6-7.2-11.7-10.9-17.5C238,154,236.6,152.2,236.1,149.9z"/>
		<path fill="#CFCDC9" d="M48.8,225.1c-1.7-2.6-1-5.5-0.9-8.2c0.8-12.3,1.1-24.7,4-36.8c0.8,1,0.7,2.1,0.2,2.8
			c1.6-4.5,0.2-11,6.7-13.4c-1.3,0.3-2.5,0-3.2-1.4c0.5-2.6,2.9-3.5,4.7-3.6c4.2-0.1,8-1.9,12.1-2.2c1.2,0.2,2.5,0.5,3.7,0.5
			c1.5,0.2,3.1,0.1,4,1.8c0,1.2-0.9,1.8-1.8,2.3c-1.2,0.5-2.4,0.8-3.7,1c-4.6,1.5-8.9,3.8-13.3,5.5c-4.8,1.8-5.8,6.7-5.5,10.9
			c0.4,5.8-1,11.5-0.6,17.3c0.2-0.2,0.3-0.6,0.3-0.9c0.3-1.7-0.3-4.5,2-4.5c2.7,0.1,2.5,3,2.6,5.2c0.1,2.5-0.6,5-1,7.4
			c-0.6,3.8-0.9,7.6-0.1,11.3c-4.8,1.2-6.9-0.3-8.8-6.6c-0.1-0.5-0.2-1-0.2-1.6c0-1.3,0.5-2.6,0.5-3.9c-0.1-1.2,0-2.3,0-2.7
			c-0.5,4.4-0.2,9.6-0.2,14.7C50.3,221.8,50.6,223.8,48.8,225.1z"/>
		<path fill="#540406" d="M76.1,163.8c-1,0.1-2,0.2-2.8-0.6c0.2-1.3,0.7-2.4,1.9-3.1c0.9-3.4,1.8-6.8,2.7-10.2
			c0.2,0.8,0.2,1.8,0.7,2.2c0.5,0.4,1.1-0.4,1.2-1c3.2-15.8,11.8-30,14.1-46.1c0.1-0.7,0.1-1.3,0.1-2c1-7.7,2.4-15.3,3.1-23.1
			c0.1-1.6-0.8-4.4,2.6-4.3c1.8,1.3,1.6,3.2,1.2,4.9c-0.4,1.8-0.6,3.5,0,5.3c0,5.7-2.6,10.9-3.6,16.4c-0.4,2.3-1.1,4.5-0.5,6.8
			c-2.3,8.1-2.8,16.6-6.1,24.5c-3.6,0.4-3.1,3.3-3,5.5c0.1,2.6,0.6,5.3,0.3,7.9c-0.1,0.5-0.2,1-0.3,1.5c-0.9,3-0.2,6.2-0.6,9.2
			c-0.2,2.1-0.7,4-3.6,3.3C80.9,161.3,79.2,164.5,76.1,163.8z"/>
		<path fill="#E6D5D7" d="M97.2,66.2c2.3-9.1,7.9-16.2,14.1-22.9C121.4,32.5,132.7,23,141.5,11c2.5-3.5,6.4-4.5,10-5.8
			c2.3-0.9,4.7-0.3,4.5,3.3c-0.3,5.3,1.1,10.9-3.3,15.3c-0.8-1.1-0.7-2.3-0.5-3.5c0.7-2.3,0.7-4.6,0.6-6.9c0-1.1,0.1-2.4-1.3-2.9
			c-1.3-0.4-2.4,0.1-3.1,1.1c-4,6.3-10.1,10.4-15.7,15.1c-11.2,11-22.5,22-30.9,35.6C100.7,63.8,99.8,66.1,97.2,66.2z"/>
		<path fill="#E7E6EA" d="M186,447c-1,1.9-5.3,1.8-4.3,3.9c1.4,2.8,3.9-0.6,6-0.6c4.7,0,8.3-2.6,12.3-4.3c2.5-1.9,4.9-3.9,7.4-5.8
			c0.5-0.4,1.1-0.8,1.7-0.3c0.8,0.6,0.9,1.4,0.3,2.2c-3,3.5-5.7,7.5-10.1,9.2c-3.9,1.6-8.1,2.5-12.2,3.8c-7.9-2.1-14.7,1.5-21.7,4.3
			c-1,0.4-2.2,0.5-3.3,0.7c-2.1-2.8,0.7-3.6,2-5c1.4-2.9,4.7-2.1,6.8-3.8c2.4-1.1,5-1.9,7.4-3.1C180.8,447.6,183.1,445,186,447z"/>
		<path fill="#6B4245" d="M48.8,225.1c-0.4-8.1,0.9-16,2.2-23.9c0,3.9,0,7.9,0,11.8c-0.8,5.6,0.1,11,2.7,16.1
			c1.1-3.1,0.4-6.1-1.5-8.7c-1.6-2.3-2.3-4.7-1.2-7.4c1.5,3.6,2.9,7.4,8,6.8c0.9-0.1,1.2,0.4,1.4,1.2c0.1,3.4-2,6.6-1,10
			c-0.4,2.1-2.3,2.8-3.9,3.8c-2.3,3.4-1.9,6.2,1.4,9.8c0.5,0.4-0.4,2.4,1.5,1.3c0.8-0.5,1.9-0.6,2.8-0.7c0.7,0,1.4,0.1,1.9,0.6
			c0.8,1.7-0.4,2.7-1.4,3.8c-2.4,2.4-7.3-0.2-7.9,4.7c-1.9-1.1-1-2.6-1.9-3.5C50,242.5,49.7,233.7,48.8,225.1z"/>
		<path fill="#E8E3E1" d="M106.5,155c0.8-2.4,1.6-4.8,2.4-7.2c-0.2,1.6,1.3,1.5,2.1,2.2c1.7,1.3,3.2,0.1,4.7-0.4
			c8.7-2.7,17.3-5.5,26.1-7.9c1.8,0.3,4.1,0.4,4.3,2.6c0.2,2.3-2,2.9-3.7,3.4c-8.2,2.1-15.9,5.9-24.4,7c-2.2-0.1-4.2,0.7-6.3,1.1
			C109.8,156,108,156.6,106.5,155z"/>
		<path fill="#9A7A7B" d="M97.2,66.2c8.8-12.8,18.5-24.9,29.8-35.6c1.7-1.6,3.4-3.1,5.1-4.7c0.2,0.1,0.4,0.3,0.6,0.4
			c1.7,2.4,1,4.5-0.9,6.4c-1.1,0.9-2.2,1.7-3.3,2.5c-8.7,7.7-16.6,16.1-22.8,25.9c-1.9,3.1-4.2,5.9-7,8.3c-0.8,0.6-1.6,1.1-2.6,0.6
			C96.4,68.7,96.8,67.4,97.2,66.2z"/>
		<path fill="#8E2B30" d="M218.1,128.8c-3,1.7-3.1,4.3-2.1,7.1c-1.2,0.2-2.2,2.3-3.7,0.4c-0.6-1.5-0.6-3.1-0.2-4.7
			c1-2.5-0.6-2.9-2.5-3c-1.3,0.6-0.5,1.3-0.1,2c0.6,1,1.4,2,0.4,3.1c-1,1.1-2.3,0.6-3.1-0.1c-2.9-2.5-3.8,1.3-5.8,1.8
			c-0.5,0-0.9-0.1-1.3-0.3c-1.5-2.2-2.2-5.4-6.1-4.6c-1.3,0.3-3.1,0.7-3.5-0.8c-0.6-1.8,1.5-2.1,2.6-3c2.2-1.3,0.2-3.6,1.3-5.1
			c2.8-0.9,3.7,1.3,4.9,2.8c-0.2-2.9,1.3-3.9,4.1-3c1.2,1.4,1.9,3.1,4.6,2.1c3.4-1.3,5.6,2.1,8.3,3.4
			C216.7,127.6,217.4,128.2,218.1,128.8z"/>
		<path fill="#AB9697" d="M52.1,251c0.5,0.7,1.1,1.4,2,2.6c-0.8-7.2,5.2-2,7-4.5c2.3-1.5,2.2,1.1,3.2,1.8c0.1,0.4,0.1,0.9,0,1.3
			c-0.8,1.5-1.2,3.2-1.4,4.9c-0.6,4.1,0.1,8.6-3.1,12.1c-2.1-0.1-2.5-1.6-2.8-3.1c-0.2,0.9,0.1,2.1-1,2.8
			C54.2,263.1,52.5,257.2,52.1,251z"/>
		<path fill="#D1C1C2" d="M193.9,127.9c-1,0.5-2.1,1-3.7,1.8c8.4-0.8,8.6-0.6,10.2,5.4c0.2,1.1,0,2-1.4,2.2
			c-1.6-0.7-2.3-2.3-3.8-3.2c-2.6-1.6-5.5-2.5-7.7-0.1c-4.2,4.7-9.6,1.5-14.3,2.7c-0.5,0.1-1.3-0.4-1.3-1.2c0-0.8,0.6-1.2,1.2-1.4
			c2.4-1.1,5-1.4,6.8-2.1c-2.7,0.7-6,1.6-9.3,2.9c-2,0.8-4,1.7-6.2,0.6c-0.2-0.2-0.3-0.3-0.5-0.5c4.9-3.2,11.1-3,16.1-6
			c1.7-0.1,0.9-1.7,1.5-2.5c0.4-0.6,1-0.9,1.7-0.9c2.7,0.5,5.2-0.4,7.8-0.5C192.7,125.3,194.2,125.7,193.9,127.9z"/>
		<path fill="#80161C" d="M67.1,286.9c-3.3,1.4-2.1,3.1-0.5,5.2c3.3,4.4,7.3,8.4,9.2,13.8c1,2.7,0.4,5.4,1.2,8
			c-7.5-10-13.4-20.9-17-33c-0.6-1.5-1.1-3,0.5-4.3C65.5,278.3,66.6,282.4,67.1,286.9z"/>
		<path fill="#511A19" d="M202.9,121.9c-3.2,0.8-3.2,0.8-2.5,5c-2.5-1.5-3.3-4.8-6.4-4.8c-0.4,0.3-0.9,0.3-1.3,0
			c-0.3-0.4-0.4-0.8-0.5-1.3c0.1-3.2,2.7-1.3,4.2-2c-1.9-0.8-3.5-0.4-5,0.5c-0.7-0.1-1.3-0.5-1.7-1.1c-0.2-0.4-0.2-0.9-0.2-1.3
			c0.3-3.3-2.7-6.7,0.5-9.8c6.2,0.7,9.7,4.7,11.9,10.1C203,118.5,203.8,120,202.9,121.9z"/>
		<path fill="#DCDBE0" d="M14,395c1.2-0.2,1.8-2.1,3.8-1.3c-2.5,9-7,16.6-15,22.2C1.9,413.4,4.2,412,4,410C7.3,405,10.7,400,14,395z
			"/>
		<path fill="#DBDADE" d="M278,241c0,0.7,0,1.4,0.1,2.1c-1,9.1-4.7,17.5-8.1,25.9c-0.1,5-2.9,9.2-4.7,13.6c-0.6,1.4-1.2,3.4-3.5,3.5
			c-2.1-3.1,0.7-5.5,1.3-8.1c4.5-7.9,5.4-17,8.8-25.2c1.4-2.5,2.7-5.1,3-8.1C275.1,243,275.5,240.9,278,241z"/>
		<path fill="#DAD9D8" d="M224,418.9c0.7-1.3,1.6-2.9,3.3-2.4c1.3,0.4,1.4,2.1,1.8,3.3c1.6,5,1,10.2,1,15.3c0,1.6-0.6,3.1-2.8,1.6
			c-3-2.1-5.7-13-4.1-16.7c2.1,3.1,2.2,6.9,3.8,10.1C226.8,426.2,225.5,422.5,224,418.9z"/>
		<path fill="#F9F8F8" d="M75.2,160.1c0,1.4,0.3,3-1.9,3.1c-5.5,2.5-12.3,0.6-17.2,5c-0.2,1.3-0.9,1.5-2,1c2.7-6.9,9.1-7.9,15.2-9.1
			C71.1,159.7,73.2,160,75.2,160.1z"/>
		<path fill="#532D2C" d="M181.9,127.1c-0.1,1.2,0.7,3.3-1.9,1.8c-1-2.5-2.8-3.1-5.4-3c-6,0.2-8.1-2.8-6.4-8.6
			c2.4,3.1,5.4,3.5,8.8,1.8c0.5,0,1,0,1.5,0.2C182,120.9,180.7,124.6,181.9,127.1z"/>
		<path fill="#E7E7E7" d="M261.2,314.7c-0.1-9.5,3.7-15.7,9.2-21.1C268.3,300.6,266.2,307.5,261.2,314.7z"/>
		<path fill="#F0CCCA" d="M190,117.1c0.1,0.3,0.2,0.6,0.3,0.8c-2.3,1.9-4.4,0.6-5.3-1.3c-1.4-2.7-2.7-1.8-4.4-0.9
			c-2.1-0.8-0.9-1.4-1.7-2.9c-1.1-2.2-1.2-3.4,0.3-5c2.2,1.5,3.6-1.9,5.8-1C189.5,108.9,187.8,114,190,117.1z"/>
		<path fill="#C6CCCC" d="M142.1,142.1c-8.9,2.7-17.7,5.4-26.6,8.2c-1.6,0.5-3.1,1.5-4.5-0.3c12.6-3.7,25.1-7.4,37.7-11.1
			c1.8-0.5,3.5-1.2,5.3-0.9c0,0.3,0.1,0.5,0.1,0.8C150.7,141.9,146.5,142.5,142.1,142.1z"/>
		<path fill="#8D4444" d="M202.9,121.9c-0.8-1.5-1-3.1-1-4.8c4.9,3,10.6,4.9,14.1,9.9c-2.3,0.5-3.6-1.4-5.4-2.2
			c-2.7-1.2-4.7,0.5-7,1.6C202.3,125.1,204.3,123.1,202.9,121.9z"/>
		<path fill="#E5E3E9" d="M262,286c3.9-5.1,5.6-11.2,8-17c0.5,9.9-6.3,16.8-10,25c-1,0.7-2,1.3-3,2c-0.1-0.2-0.3-0.3-0.4-0.5
			c-0.4-2,1.1-3.3,1.6-5C259.2,288.8,259.9,286.8,262,286z"/>
		<path fill="#7C2533" d="M147.1,37.4c-0.1-1.9-0.3-3.8-1.9-5.2c-1.3-1.9,0.7-3.7,0.2-5.7c0.4-3.7,2.9-6.8,3-10.6
			c0.5-1.2,1.3-1.6,2.5-1.1c2.6,4.6-0.1,9.1-0.6,13.6c-0.2,1.5-0.6,3.1-1.2,4.6C148.7,34.7,148.3,36.2,147.1,37.4z"/>
		<path fill="#5E5957" d="M224,418.9c2.3-0.3,2.1,1.6,2.5,2.9c1.1,3.8,2.4,7.7,1.4,11.9c-3-4.1-4.5-8.6-4.8-13.7
			C223.4,419.7,223.7,419.3,224,418.9z"/>
		<path fill="#96666D" d="M149.1,33.1c0.5-4.4,1-8.8,1.5-13.2c0.2-1.7,1.3-3.5-0.6-5c-0.9-2.3,0.4-3.8,2.3-3.9
			c2.2,0,1.2,2.2,1.3,3.5c0.1,1.8,0.4,3.6-0.3,5.3c-0.1,1.3-0.3,2.6-0.4,3.9C151.3,26.8,151.2,30.4,149.1,33.1z"/>
		<path fill="#464340" d="M218.7,435.3c-0.1,1.7-0.2,3.6-1.9,3.2c-3.3-0.8-3.4-4.2-3.9-6.7c-0.4-1.9,1.9-3.4,3.1-2.9
			C218.9,430,217.9,433.3,218.7,435.3z"/>
		<path fill="#533234" d="M60.9,277c-1.3,1.1-0.7,2.7-0.9,4c-1.6-3.9-3.8-7.6-3.9-12.1c0-2.1,0-4.2,0-6.5c3.3,1.2,0.7,5.5,3.8,6.4
			C60.6,271.5,61.6,274.1,60.9,277z"/>
		<path fill="#686460" d="M54.1,169.2c0.7-0.3,1.3-0.7,2-1c1.4,0.4,2.8,0.8,4.5,1.3c-6.4,2.5-5.7,8.8-8.1,13.7
			c-0.2-1.2-0.3-2.1-0.5-3.1C52.7,176.4,53.4,172.8,54.1,169.2z"/>
		<path fill="#F29B85" d="M190,117.1c-1.9-1.3-3.7-2.5-2.5-5.5c0.8-1.9-3.1-2.3-2.6-4.7c1.7-1.5,3.4-1.6,5.1,0.1
			c1,2.5-1.6,5.6,1.4,7.8C191.5,114.8,190.5,116.3,190,117.1z"/>
		<path fill="#F0CFD0" d="M177.1,120c-6.4,3.6-7.3,3.3-8.9-2.5c1.2-3.8,4.3-4.4,7.7-4.4c0.3,0.2,0.4,0.5,0.4,0.8
			c0,0.3-0.1,0.4-0.1,0.4c-1,1.3-2.8,1.6-3.7,3.3C173.3,119.5,176.9,116.7,177.1,120z"/>
		<path fill="#9C7173" d="M175.8,114.1c0-0.4,0.1-0.7,0.1-1.1c1.8-1.2-0.1-4.8,3.2-5.1c-0.1,2.6-1.8,5.6,1.8,7.3
			c0.4,0.3,0.6,0.7,0.6,1.1c-0.1,0.5-0.4,0.8-0.8,1.1c-0.7,0.3-1.4,0.2-2,0C177.3,116.7,175.6,116.2,175.8,114.1z"/>
		<path fill="#4F2323" d="M96.1,70c0.7-0.3,1.5-0.7,2.2-1c0.9-0.8,1.8-0.9,2.8-0.3c0.5,0.7,0.6,1.4,0.3,2.2
			c-0.9,1.1-1.9,1.7-3.4,1.2c-1,0.3-1.9,0.6-2.9,0.9C94.8,71.8,95.6,71,96.1,70z"/>
		<path fill="#D1C1C2" d="M154,138c3.1-1.9,6.4-3,10-3c0,0,0,0,0,0C161.4,138.7,158.5,139.5,154,138L154,138z"/>
		<path fill="#DCDBE0" d="M79,359c8.9,5.9,11.4,15.3,13.8,24.8c-3.6,4.5-1.3,10.5-5.8,15.7c-10.2,11.6-22.5,19.8-35.3,27.6
			c-3.2,1.9-7.1,2.7-10.6,4c-3.9-0.3-7.5,1.1-11.2,2.2c-5.6,1.6-11.6-0.3-13.2-5.7c-1.4-4.5-2.4-9.7-0.2-14.2c1.1-2.5-0.9-3.6-1-5.8
			c4.2,0.3,8.2,0.5,9.3-5.2c0.4-2.1,3.3-3.8,5.7-3c3.9,1.4,5-0.9,5.5-3.6c0.7-3.9,2.5-6.2,6.3-7.4c4-1.3,4.3-5.9,5.3-8.7
			c1.3-3.6,3.3-5.5,6-7.3c1.7-1.1,3.9-2.2,3.5-4.4c-1-5.5,2.5-8.2,6.4-9.9c4.1-1.8,8.6-2.3,12.9,0C77.1,358.5,78.1,358.7,79,359z"/>
		<path fill="#D6D6D5" d="M178,449c-1.9,2-4.6,2.3-7,3c-6,1.8-12.1,3.4-18.5,3.5c-7.2,0.1-13.7,3.1-19.8,6.4
			c-13.6,7.2-28.4,10.3-43,14.2c-11.7,3.1-23.3,6.8-35.5,8c-4.1,0.4-8-0.1-11.9-1c-4.9-1.2-7.3-8.2-5.3-14.7c4.5-4.1,5.5-9,3.9-14.8
			c-0.8-2.8-2-4.8-4.9-5.6c-1.1-0.3-2.2-0.7-3.2-1.3c-2-1.3-3.9-2.8-3.6-5.4c0.2-2.6,2.4-3.2,4.5-3.8c1.1-0.3,2.2-0.6,3.2-1.3
			c0.3,0,0.7,0,1,0c2.3-0.6,4.7-1.3,7-1.9c-0.2,4.2,2,3.7,4.7,2.5c7.9-3.4,15.1-8.1,22.8-11.8c1.4-0.7,3-2.5,4.7-0.3
			c-1.4,3.3-1.2,4.9,3.2,4.6c3.4-0.2,7,0.5,10.3,1.5c1.1,0.3,2.3,0.9,3.4,0.7c8.5-1.4,16.2,2.8,24.4,3.3c2.3,0.1,4.6,0.2,6.9-0.3
			c1.8-0.4,3.6-0.9,5.4-0.7c9.8,1.5,19-2,28.5-3.5c10.5-1.7,20.9-1.6,30.6,3.8c2.2,1.2,4.4,2.4,5.3,5c0.2,1.8-1.3,2.1-2.3,2.9
			c-0.3,0.3-0.7,0.7-1,1c-5-8.4-13.7-8.5-21.6-8.1c-11.9,0.5-23.9,3-35.3,6.2c-13.1,3.6-25.1,2-37.4-1.3c-4.6-1.3-8.9-1-13.6,0
			c-4.6,1-9,4.5-14.2,2c-1.8-0.9-2.2,1-2.4,2.3c-0.4,2.6-1.7,4.7-3.2,6.7c-2.1,2.7-2.6,5.6-2.1,8.9c1.1,6.9,3.7,9.9,10.8,9.8
			c8.5,0,16.9-1.6,25.1-3.8c8.7-2.4,16.8-6.4,24.5-11.1c4.3-2.6,8.8-4,13.8-5.3c10.7-2.7,21.1-0.9,31.6-0.5
			C171.2,448.8,174.7,446.7,178,449z"/>
		<path fill="#DFDEDC" d="M38,468c-1.7,3.9,0.3,7.4,1.2,10.9c0.5,1.9,2,2.8,4.1,3.1c7.6,1,14.9,0.3,22.4-1.6
			c11.2-2.7,22.4-5.5,33.6-8.4c13.4-3.4,26.5-7.8,38.9-14.1c5.2-2.6,10.7-4.5,16.7-4c5.6,0.5,10.7-1.8,16.2-2c-1.7,2.4-4.9,1.6-7,3
			c-8,3-16.3,4.9-24.1,8.4c-7.9,3.6-16.5,4.7-24.7,7.4c-19.7,6.4-39.9,10.9-59.4,17.7c-7.2,2.5-14.6,4.5-21.9,6.7
			c-3.3,1-7.4-1.4-9.4-4.1c-2.8-3.7-4.2-8.5-1.1-12.9c1.7-2.5,2.8-4.5,1.8-7.7c-0.9-2.8-0.6-5.5,1.6-8.2c2.7-3.5,3.8-7.8-0.5-11.6
			c-1.1-0.9-1.6-2.5-2.4-3.8c4.8-0.3,7.7,2.8,10,6.3c1,1.5,1.7,3.1,3.1,4.4C42.3,462.5,42.3,462.5,38,468z"/>
		<path fill="#DCDBE0" d="M38,468c0-1.5,0.9-2.4,1.8-3.4c1.5-1.5,0.9-2.8-0.5-3.7c-3.2-2.2-5.3-4.8-7.1-8.4
			c-1.2-2.3-4.8-4.6-8.2-5.6c-3.6-4.1-3.2-6.2,1.5-8c3.7-1.4,7.5-2.7,11.5-3c-0.8,0.6-1.5,1.3-2.4,1.6c-2.1,0.7-4.6,1.4-4.3,4
			c0.2,2.5,2.3,4.2,4.7,4.4c6.1,0.5,7.2,4.9,7.9,9.6C43.6,460.6,43.3,465.3,38,468z"/>
		<path fill="#FCFCFC" d="M186,367c3.1,0,6.4-0.8,6.2,4.4c-0.1,2.2,2,1.5,3.3,0.5c1.2-0.9,2.4-1.3,3.6-0.1c1.2,1.3,1,2.7,0.2,4.1
			c-2.1,3.8-5.8,6.5-7.3,10.9c-0.7,2.2-3.1,1-4.1-1c-1.4-2.6-2.7-5.3-4-8c-0.8-1.7-1.8-3.2-3.8-3.7c-1.5-0.3-3.2-0.7-4.2,0.6
			c-1.1,1.5,0.3,2.8,1.3,3.9c2.7,2.8,4.7,6,6.3,9.5c0.7,1.4,2.1,2.9,0.8,4.6c-1.3,1.8-3.2,1.3-5,0.9c-0.8-0.2-1.6-0.4-2.4-0.6
			c-2,0.6-3.1-0.9-4.2-2c-3.6-3.9-8.1-6.9-11.1-11.3c-0.8-1.3-2.1-2.1-4.2-2.6c7.5,6,12.1,13.8,17.4,21c0.2,2.1,1.5,3.6,2.5,5.3
			c0.7,1.1,2.1,2.5,0.5,3.9c-1.3,1.2-2.5,0-3.6-0.5c-1.1-0.6-2-1.7-3.5-1.7c-3.1,0-4.6-2.5-6.5-4.2c-2.5-2.3-4.8-5-8.4-8
			c1,3.9,3,5.9,4.4,8.1c1.5,2.2,3.3,4.2,4.5,6.6c2,4.2,0.9,5.7-3.8,6.5c-4.8,0.9-9.3,3.1-14,4.6c-7.4,2.3-14.3,3.2-22,1
			c-8.7-2.5-17.3-5.9-26.6-6.5c-3.5-0.2-4.2-2.4-1.9-5.6c2.4-3.5,6.1-6.1,8.6-9.5c-4.3,3.4-8.5,6.9-12.6,10.6
			c-3.4,3.4-7.6,5.7-11.4,8.6c-1.2,0.9-2.6,2.2-4.4,0.9c-3.6,0-3.2-1.4-1.2-3.4c4.9-4.9,9.9-9.9,14.8-14.8
			c6.5-6.5,12.4-13.5,16.8-21.7c1.6-3.1-1.1-5.3-0.2-8.4c1.1-3.7,2.5-4.7,5.8-4.7c0.2,0.2,0.3,0.3,0.5,0.5c0.9,1.9-0.7,3.3-1.4,5.5
			c3-0.7,5.3-2.8,8.1-1.7c10.1-1.6,19.9,2.1,30,1.4c4.1-0.3,8.3-0.2,12.5,0c6.9,0.3,13.6-0.7,20-3.2
			C183.8,367.1,184.8,366.4,186,367z"/>
		<path fill="#E0DFE5" d="M105,288c1.4-3.8,5.9-6.2,5-11c-1.3-2.4-0.8-4.1,1.7-5.2c1.5,0.7,2.5,2,4.4,2.1c3.6,0.1,6.6,2,9.6,3.9
			c1.3,0.8,2.4,1.8,3.7,2.5c10.3,6,16.6,4.1,22-6.6c2.2-4.4,4.5-8.9,4.6-14.1c0-1,0.4-2,1.3-2.6c2.1,0.2,2.4,1.9,2.8,3.5
			c3.2,13.4-0.7,25.3-7.7,36.5c-1.1,2-2.4,3.7-4.3,4.9c-5.2,5.4-10.5,10.6-18,12.9c-1.6,0.5-2.5,2.1-2.5,4c-0.1,1.9,1.3,3.4,1.3,5.3
			c-2.3,5.8-6.1,10.8-9.2,16.1c-1.2,2.1-2,4-1.8,6.4c-1.8,2.3,0.7,4.4,0.5,6.6c-3.2,3.2-3.3,6.7-0.9,10.4c-0.4,1.3-1.2,2.5-2.2,3.4
			c-1.8,0.4-1.3-1.5-2.1-2.1c0,0,0,0,0,0c-3-4.7-2.8-9.7-0.8-14.6c1-2.4,1.2-4.4-0.7-6.4c-1.5-1.6-2.8-3.2-1.8-5.8
			c0.7-1.7-0.7-2.6-2.1-3.4c-1.4-0.8-2.5-0.5-3.5,0.7c-1.3,1.5-3,2.6-4.8,3.5c-1.4,0.7-2.7,1.3-4-0.2c-1.3-1.4-3-2.8-1.9-4.7
			c1.6-2.8,1.8-6.4,4.5-8.7c1.7-1.5,3.5-3.1,4.3-5.4c0.4-1.2,1.3-2,2.7-1.8c1.9,0.3,4.8,1.9,5.3-0.3c0.7-3.1,3-6.2,1.1-9.9
			c-2.3-4.5-0.7-8.1,3.7-10.5c3.3-1.8,5.5-3.7,2.7-7.7c-2.1-3-2.7-6,2.5-7.1c-6.1-4.7-7.1-4.6-10.4,1.2
			C108.5,285.8,107.6,287.8,105,288z"/>
		<path fill="#BFBFC2" d="M77,418c5.6-2.4,10-6.6,15-10c1.2-0.7,2.5-2.2,3.8-0.4c1,1.4-0.3,2.6-1.1,3.5c-3.9,4.3-8.7,7.7-13.2,11.3
			c-1.4,0.7-2.6,2.2-4.5,1.6c-8,4.1-16,8.2-24,12.4c-3.2,1.7-6.4,3.3-10.4,2.2c-0.2-2.1,2.8-2.5,2.4-4.6
			C56.7,430.7,66.5,423.7,77,418z"/>
		<path fill="#CDCCCD" d="M178,449c-9.1,1.3-18,1.4-27.1-0.6c-3.6-0.8-7.7,1.9-11.6,1.8c-8.5-0.1-15,4.6-21.7,8.6
			c-10.9,6.4-22.7,9.7-35.2,11.3c-4.8,0.6-9.5,1.7-14.2,0.1c-6.9-2.2-10.6-11.7-6.8-17.9c2.1-3.5,5-6.3,4.9-11
			c-0.1-2.6,2.5-2.9,4.3-1.1c2.1,2.2,3.9,2.1,5.9-0.2c0.5-0.6,1.6-1.6,1.9-1.4c5.1,2.6,9.1-3.4,14.1-1.7c4.7,1.6,9.6,3.7,14.3,3.6
			c8.8,0,17.4,3.6,26.8-0.8c6-2.8,13.8-2.6,20.8-3.7c4.4-0.7,8.7-1.8,13.1-2.5c7.3-1.1,13.7,1,20.3,2.9c3.1,0.9,4.5,3.2,4.1,6.5
			c-2,1.3-4,2.6-6,4C183.1,446.6,180.9,449.4,178,449z"/>
		<path fill="#E7E6EA" d="M81,422c4.3-3.7,8.6-7.5,12.8-11.3c0.7-0.7,2.3-1.4,1.4-2.7c-0.8-1.3-2.1,0.3-3.2,0
			c4.1-4.9,9.3-8.4,14.1-12.5c0.6-0.5,1.6-0.8,2.2,0c0.7,0.8,0,1.5-0.6,2.1c-3.2,3.2-6.4,6.4-9.5,9.6c-1,1.1-2.3,2.4-1.7,3.9
			c0.6,1.5,2.4,0.7,3.6,0.8c4.3,0.3,8.4,1.8,12.5,2.7c9.7,2.1,19.2,8.1,29.3,4.1c5.3-2,11.6-1.3,15.9-6c0.7-0.8,1.8-0.7,2.8-0.4
			c1.4,0.5,3,1.3,4-0.4c0.8-1.5-0.1-3-0.9-4.2c-2.7-4-5.6-7.9-8.2-11.9c-0.7-1.1-2.3-2.6-0.7-3.9c1.5-1.1,2.8,0.4,3.8,1.3
			c4.1,3.9,8.2,7.8,12.3,11.7c2.7,4,6.1,6.9,11.1,7.6c3,0.5,4.3-0.6,3.4-3.5c-1.1-3.1-0.2-5.9,0.9-8.7c1-2.5,2.4-5.4,5.4-5.1
			c3,0.3,6,1.3,7.8,4.6c3.1,5.8,2.2,11.1-0.8,16.5c-0.9,1.7-2.5,2.3-4.4,2.8c-4.6,1.2-5.3,2.9-3.1,7.3c1.3,2.6,2.4,5.3,4.8,7.5
			c3.3,3.1,1.7,7-3,8.1c0.3-1,1-1.6,2-2c-3.2-6.2-8.5-10.5-13.5-15c-1.8-1.6-5.1-0.7-7.6,0.8c-1.6,1-3,2.3-4.9,2.3
			c-13.2,0.3-25.9,4.3-39,4.9c-8.5,0.4-16.7-2.6-24.9-4.4c-6.1-1.4-12.3-2.9-18.6-3.3C84.2,425.2,81.2,425.7,81,422z"/>
		<path fill="#E5E3E9" d="M257,296c-1.1,7-5.2,11.9-11,15.5c-1.2,0.8-3,0.6-3.8,2.2c-1.1,2.1-6.6,4.2,1,6c5.3,1.3,3.2,7.7,2.4,11.4
			c-1,4.7-2,9.3-2.6,14c-0.5,3.9-2.5,6.4-7.1,5.1c-1.7-0.5-3.7,0-5.5-0.2c-3-0.4-6.2-0.9-7.3-4.2c-1.1-3.1,1.9-4.7,3.5-6.5
			c4.1-4.6,4.1-5.4-1.9-7.4c-0.7-2.3,1-4,1.6-6c0.8-1.7,1.3-3.5,2.1-5.3c1.5-3,2-6.5,4-9.3c3.2-3,6.8-5.1,11.3-5.6
			c4-0.5,6.8-2.9,9.3-6C253.9,298.1,254.4,295.8,257,296L257,296z"/>
		<path fill="#703C40" d="M227.1,326.1c-0.8,1.9-1.7,3.8-2.5,5.7c-0.5,0.3-1.1,0.7-1.6,1c-0.4-0.3-0.8-1.6-1.2-0.7
			c-2.7,6.1-8.7,7.3-13.8,9.9c-1.6,0.4-3.2,0.9-4.9,1.3c-4.2,0.6-8.4,1.1-12.6,1.8c-2.7-0.5-4.3-1.6-1.3-3.9
			c2.7-2.1,5.1-5.1,9.1-4.9c1.6-0.4,3.2-0.5,4.8-0.6c2.9-0.3,5.7-0.5,4.7-4.7c-0.2-1.1,0.9-1.6,1.9-1.8c2.9,0.8,5.4,0.7,7.4-2.2
			c1.1-1.6,3-2.6,4.8-3.5C224.7,322.2,225.1,325.6,227.1,326.1z"/>
		<path fill="#D93B30" d="M212.1,349.2c-5.1,8.2-13.6,11.7-22,15.3c-1.4,0.6-2.8,1.1-4.1,1.6c-2,1-3.8,2.9-6.4,2.3
			c-2.1-1.7-2.9-3.3-0.2-4.7c-4.5,2.8-9.7,1.2-14.8,1.2c-1.6,0-2.7-1.2-1.7-3.1c0.7-0.5,1.4-0.8,2.3-1c5-0.1,10-0.6,14.9-1.2
			c7.4,0,13.5-3.7,20.1-6.4c2.3-1.3,5.1-1.4,7.3-3C209,349.5,210.3,347.9,212.1,349.2z"/>
		<path fill="#D5D4D4" d="M180.2,367.8c2-0.6,3.9-1.1,5.9-1.7c0,0.3,0,0.6-0.1,0.9c-4.8,3.3-10.4,4.6-15.9,4.8
			c-9.7,0.4-19.5,0.8-29.2,0c-6.2-0.5-12.2-2.6-18.4-0.2c-1.5,0.6-2.2-1.2-3.5-1.6c-1.1-1.2-4.5,0.4-4-3c0-1.5,0-2.9,2-3
			c0.8-0.8,1.8-0.7,2.7-0.5c4.8,0.9,8.2-1,10.7-4.9c2.1-0.3,3.6,0.4,4.1,2.6c-2.4,4.6-2.4,4.6,2.5,7c1.2,0.6,2.4,1.2,3.8,1.3
			c8.5,0.3,16.9,0.9,25.4-0.3c3.3-0.8,6.8,0.1,10.1-0.9C177.6,367.7,178.8,367.4,180.2,367.8z"/>
		<path fill="#E7E6EA" d="M175,398c-3.4-1.8-5-5.3-7.4-8c-3.6-4-5.7-9.3-10.9-11.9c-0.6-0.3-1.5-1.1-1-2c0.6-1.1,1.6-1,2.6-0.4
			c1.6,0.9,3.4,1.3,4.5,3c3.7,5.8,9.4,9.7,14.2,14.4c0.4,0.7,0.8,1.4,1.1,2.2c0.7,1.7,3.6,3.2,1.8,4.9
			C178.3,401.5,176.7,398.6,175,398z"/>
		<path fill="#420508" d="M212.1,349.2c-1.4,0.6-2.7,1.3-4.1,1.9c-1.9-0.5-4.5,1.8-5.6-1.6c0.1-0.5,0.3-0.9,0.5-1.2
			c0.2-1.1,3-0.1,1.7-2.3c0.6-2.1,3.9-2.2,3.3-5c2.8-1.5,5.6-2.9,8.3-4.5c1.5-0.9,3.8-1.1,3.4-4.1c-0.1-1.3,1.9-2,3.5-1.9
			c-0.1,0.8-0.2,1.6-0.2,2.4c-2.1,1.6-1.4,4.8-3.7,6.3c-2.5,3.2-6.8,5.2-7.2,9.9L212.1,349.2z"/>
		<path fill="#611B21" d="M212.1,349c-2.8-7,4.5-6.8,7.2-9.9C216.9,342.5,216.3,347,212.1,349z"/>
		<path fill="#F9F9F9" d="M151,297c3-5.9,5.8-11.8,8-18c1.4-4,1.9-8-0.3-11.9c-0.8-1.5-0.6-2.8-0.1-4.3c0.9-2.3,0.2-4.2-1.6-5.8
			c-0.1-0.2-0.3-0.4-0.4-0.6c-0.1-0.3-0.1-0.7,0.1-0.9c4.4-3.9,4.4-4.4,1.3-10.5c-2.3-2.2-4.4-4.6-7.6-5.6
			c-5.3-2.7-10.7-4.8-16.9-3.7c-2,0.6-3.7,1.6-5.1,3.2c-3.3,5.7-5.4,11.8-7.2,18.1c-0.3,1.4-0.8,2.7-1.5,3.9c-0.6,1-1.4,1.8-2.1,2.7
			c-1.7,2.3-2.1,5.3-4.1,7.4c-0.5,0.5-1,0.9-1.7,0.9c-1.5,1.4-2,3.1-2,5c-2.3,0.3-3.7-0.8-4.4-2.9c-1.1-3.2,2.3-3.3,3.4-5
			c-3.9-4.8-9.2-7.9-13.5-12.1c-2.7-1.8-4.9-4.2-7.1-6.5c-0.9-1.1-1.7-2.3-2.5-3.6c-0.8-1.4-1.1-2.9-1.2-4.5
			c2.3-24.7,8.2-48.6,16.2-72.1c1.1-3.1,1.8-6.4,3-9.4c0.9-2.2,1.8-4.3,4.5-4.8c3.3-0.4,6.1-2.5,9.6-2.1c1.1-0.4,1.8-1.2,3.2-1.6
			c8.2-2,16.3-4.6,24.3-7c-0.2-2.8-2.7-1.9-3.4-3.3c4-1.4,8.3-1.7,11.9-4.1c3.6,0,6.9-1.1,10-3c5.9-1.3,11.9-2.7,17.8-4
			c0.1,0.2,0.1,0.4,0.2,0.5c-3.1,1.2-6.2,2.4-9.2,3.6c4,0.4,7.7-0.9,11.6,0.4c1.2,0.4,0.6-2.4,2.9-3.2c5.5-2,9.3-1,11.7,4.7
			c0.2,0.5,0.4,1.1,0,1.4c-4.9,4.7-4.7,11-5.1,17c-0.7,2.1-2.1,3.9-3.2,5.8c-1.8,3.3-5,4.7-8,6.5c-1.5,1.1-2.6,2.5-3,4.3
			c-0.1,3,0.3,5.9,0,8.9c-0.4,3.6,1.5,6.2,4.5,8.3c5.4,3.6,6.2,6.2,3.7,12.2c-1.3,3.3-2.3,6.6-3,10c-0.6,1.9-1.7,3.4-2.9,4.9
			c-1,1.2-1.6,2.6-1.9,4.1c-0.2,1.7-1.5,3.7,0.9,4.7c1.8,0.8,2.4-1.2,3.2-2.3c1-1.6,1.9-3.2,3.1-4.5c0.6-0.5,1.2-0.8,2-0.7
			c1.1,0.3,1.5,1.2,1.7,2.2c0,1.3,0.3,2.6-0.4,3.2c0.8-3.1,2.7-6,6.3-7.5c0.5-0.1,0.9-0.1,1.4,0c3.1,2.6,6.6,1.1,9.9,0.6
			c3.5-0.5,6.6-0.4,8.4,3.4c1.1,4.1,3.8,7.1,7,9.6c4.9,3,9.9,5.9,13,11.1c0.8,1.4,2.4,2.2,3.6,3.3c0.3,0.3,0.6,0.7,0.9,1
			c1.1,2.9,4.8,1.9,6.3,4.2c1,1.5-1.2,4.3,1.9,5.1c0.3,0.4,0.5,0.8,0.6,1.3c0.4,2.4,1,4.7-0.2,7c-2.6,5.2-6.6,9.5-9.8,14.2
			c-2,4.9-6.5,7.7-10.1,11.1c-0.9,1.1-1.6,2.4-2.8,3.3c-1.1,0.7-2.2,1.2-3.4,0.1c0-3.7,0-3.7,2.4-6.5c-1.5,2.8-4.8,4.5-9.3,5
			c-3.9,0.4-7.7,2.1-8.2,7.2c-0.3,3-3.1,2.7-5.2,2.3c-5.4-1.2-9.6-0.2-11.3,5.7c-0.2,0.8-0.7,1.6-1.5,1.9
			c-6.7,2.2-13.4,5.5-20.7,2.1c-3-1.4-6.4-2-9.4-3.3C156.6,303.5,151.8,302.4,151,297z"/>
		<path fill="#F5311D" d="M63.9,251.7l0-0.3c-0.7-1.9,0.1-3.2,1.8-3.8c1.7-0.6,2.8,0.6,3.5,2c1.7,3.1,3.9,6.1,3.7,9.9
			c-0.1,2.5,2.2,3.8,2.8,6c0.7,1.2,2,2,2.2,3.6c1.9,3.6,0.8,6.6-1.9,9.1c-2.7,2.5-5.8,2.9-9.1,0.7c-1.3-1.4-2-3.1-2.1-4.9
			C64.3,266.5,64.9,259,63.9,251.7z"/>
		<path fill="#482C29" d="M89.1,249.8c2.3,2.1,4.5,4.2,6.8,6.3c0.1,1.7-0.8,1.6-1.9,0.9c-2.7-1.5-5.3-3.2-8.7-3.8
			c-0.3,4-1,7.8,0.5,11.6c0.4,1,0.4,2.9-0.1,3.2c-1.4,1-2.7-0.3-3.8-1.3c-0.5-1.3-0.4-2.6-0.3-3.9c0-1.5,0-2.9,0-4.4
			C81.6,250.8,81.6,250.8,89.1,249.8z"/>
		<path fill="#D91208" d="M87.9,311.8c-4.5-3.5-6.7-8.9-10-13.8c0.7-0.9,2.9-1.6,3-3.9c0-1,0.5-2.2,1.7-2c1.6,0.3,1.3,1.8,1,2.8
			c-2,6.5,1.6,10.6,6.1,14.4C89.4,310.6,88.8,311.3,87.9,311.8z"/>
		<path fill="#CC231E" d="M83,264.3c-0.3,0.8-0.7,1.6-1,2.4c-1.3-0.7-2.6-1.5-3.9-2.2c-1.2-1.8-4.2-1.5-4.7-4.1
			c-0.2-0.6-0.3-1.3-0.2-2c0.5-2.1-2-5.5,0.9-6.1c2.7-0.6,4.2,2.9,5.5,5.3c0.5,0.8,0.4,1.9,1,2.7C81.6,261.5,82.3,262.9,83,264.3z"
			/>
		<path fill="#AD0716" d="M68.1,278.9c3.5,0.6,6.5,0,8.7-3.3c1.2-1.9,2.2-3.5,0.1-5.5c-0.7-0.6,0.5-0.9,1.1-1.1
			c0.7,1.3,2.7,1.1,3.1,2.7c-1.7,2.1-2.4,4.6-3,7.2c0,0.2-0.1,0.5-0.1,0.7c-1.5,2.8-3.9,3.7-6.9,3.2c-1.5-0.5-2.9-1-3.4-2.7
			C67.5,279.7,67.7,279.2,68.1,278.9z"/>
		<path fill="#B8ADAC" d="M94,257c0.7-0.2,1.7,0.2,1.9-0.9c4.3,3.5,8.6,7,12.9,10.6c0.9,0.7,1.1,1.6,0.2,2.5
			C103,266.3,98.9,261.1,94,257z"/>
		<path fill="#482627" d="M86.9,294c-2.4-3.1-0.6-4,2.3-4.4c2.3,3.6,6.7,6.2,5.8,11.4c-2.3,1.3-2.7-1-3.8-1.9
			C89.4,297.7,89.5,294.7,86.9,294z"/>
		<path fill="#D4A0A3" d="M86.9,294c0-1.8,0.5-2.2,1.8-0.7c2.3,2.4,2.6,6.4,6.2,7.7c-2.1,2.4-2.3,5.9-4.8,8
			C94,303,88.9,298.8,86.9,294z"/>
		<path fill="#360204" d="M73.9,260.1c1,1.8,3.6,2.2,4.1,4.4c-1-0.3-2.2-1.1-2.4,0.9c-2.2-1.1-3.8-2.7-3.8-5.3
			c-0.1-0.5-0.1-1,0.4-1.1C73.1,258.7,73.6,259.3,73.9,260.1z"/>
		<path fill="#210504" d="M68,279.9c1,0.7,2,1.4,3,2.1c3.5,1.5,5.4-0.4,7-3.1c0,0,0,0,0,0c1.3,3.5,0.3,6.8-2.1,9.2
			c-2.2,2.2-4.5,0.1-6.5-1.3c-0.8-0.6-1.5-0.2-2.3,0.1c-2.2-3.2-3-7.3-6.2-10c-0.8-2.7-2.7-5.2-1-8.1c0.8-4,1.6-8,2.4-12
			c3,1.4,1.9,4.2,2.1,6.5C64.8,269.1,64.3,275,68,279.9z"/>
		<path fill="#B50406" d="M81.1,308.4c2.1,1.2,2.8,3,3.3,4.9C82.7,312.3,80.9,311.3,81.1,308.4z"/>
		<path fill="#ED6352" d="M101.2,155.8c1.3,0.5,2.7-1.5,4,0.1c-1.6,4.1-5.8,2.6-8.6,4.1c-7,0.6-8.1-0.5-8-7.4c0-2.1,0.9-4.2,0.4-6.3
			c-0.5-4.4-0.3-8.7,2.9-12.3c4,0.7,6.2-1.9,8.2-4.8c1.1-1.6,1.8-3.5,3.1-5c2.1-2,2.5-4.6,2.6-7.3c0-0.9,0.2-1.9,0.5-2.8
			c0.4-1.1,1.1-2.1,2-3c4-3.6,6.1-8.8,10.2-12.3c1.3,0.5,1,1.5,0.6,2.4c-1.6,2.6-3.1,5.2-3.3,8.4c-1.9,6.9-4.2,13.6-6.9,20.3
			c-1.8,3.1-3.2,6.3-4.9,9.4c-2.2,2.7,0.3,5.9-0.9,8.7l0,0C102.5,150.6,100.8,153,101.2,155.8z"/>
		<path fill="#B21E32" d="M146,27c1.9,2.1-1,3.4-0.8,5.2c-8.9,18.8-14.9,38.7-21.5,58.3c-0.4,1.2-1,2.4-1.6,3.6
			c-1-0.5-1.4-1.3-1.7-2.3c-0.3-1.7,0.4-3.4,0.4-5.1c2-3.9,1.5-8.7,4.4-12.3c3.8-7.6,5.3-16,8.4-23.9c2.7-7,6.3-13.5,9.1-20.4
			C143.2,28.6,143.8,26.8,146,27z"/>
		<path fill="#660612" d="M108,130c2.6-6.8,3.6-14.1,7.8-20.3c0.4,1,1.1,2,0.6,3.3c-2.6,7-4.2,14.3-7.5,21
			C107.6,133,107,131.7,108,130z"/>
		<path fill="#5C1F20" d="M96.8,158.9c2.5-1.8,6-0.8,8.4-3c0.2,0,0.4,0,0.6,0.1c1.1-0.2,2.6-1.7,2.9,0.8c-3.7,1.5-3.9,5.1-4.9,8.2
			c-0.6,1.7-1.2,3.4-1.8,5.1c-3.8-2.4,0.1-6-1.4-8.7c-0.8-0.9-2-1.2-3.1-1.7C97.3,159.5,97,159.2,96.8,158.9z"/>
		<path fill="#9F1527" d="M108,130c0.3,1.3,0.7,2.7,1,4c-0.8,2.4-1.4,4.9-3.2,6.8c-3.3,0.4-3.3,0.4-2.8-1.8
			C104.7,136,106.4,133,108,130z"/>
		<path fill="#D73338" d="M103.1,139c0.1,0.8,0,2,1.4,1c1.1-0.8,1.4-0.3,1.4,0.8c-1.7,2.1-0.3,5.4-2.8,7.3
			C102.6,145,99.9,142,103.1,139z"/>
		<path fill="#EB4144" d="M120.9,91.8c1,0.5,1.1,1.4,1.2,2.3c-0.8,2.5-1.3,5.1-3,7.2c-0.1-0.8-0.1-1.8-1-2.2
			c-0.1-0.2-0.2-0.4-0.3-0.6c0-1.8,1-3.3,1.3-5C119.4,92.6,119.7,91.8,120.9,91.8z"/>
		<path fill="#C1A69F" d="M108.8,156.8c-0.7-1.2-1.9-0.6-2.9-0.8c0.2-0.4,0.4-0.7,0.6-1.1c3.9,0.8,7.4-2.9,11.5-1
			C114.9,154.9,111.8,155.9,108.8,156.8z"/>
		<path fill="#D73338" d="M101.2,155.8c-1.6-3.1,0.7-5.3,1.9-7.8C103.3,150.8,101.9,153.2,101.2,155.8z"/>
		<path fill="#3F0304" d="M98,72.1c1-0.4,2-0.7,2.9-1.1c1.6,2,0.8,3.6-1,4.9c-2.9,0.8-1.9,3.2-1.8,4.9c0.4,7.7-1.9,14.9-4,22.1
			C93.1,92.4,94.9,82.2,98,72.1z"/>
		<path fill="#B01D1F" d="M229.1,168.1c1.2-5.1-1.3-9.2-4.1-12.8c-2-2.6-4.5-4.9-1.6-7.8c3.2-3.3,6-0.8,8.5,1.6
			c-0.3,3,1,5.4,2.9,7.6c1.6,2.5,0.7,6,4,7.9c2,1.2-1.4,3-0.3,4.7c-1.6,7.5,0.4,13.8,6.3,18.9c0.4,0.3,0.6,0.7,0.9,1.2
			c0.4,1,0.3,1.9,0,2.9c-1.2,2.1-2.1,4.6-5.3,4.2c-0.2-3.7-5.2-3.7-5.7-7.3c-0.2-0.4-0.2-0.9-0.3-1.3c0.1-5-2.3-9.7-2.2-14.8
			c0-1.5-1.3-2.2-2.6-2.6C228.7,169.7,228.1,169,229.1,168.1z"/>
		<path fill="#F4DADA" d="M208.9,155.8c-1.3,0.6-2.6,1.4-4,1.9c-2.7,1-4.1,2.3-1.4,4.7c1.4,1.3-1.5,2.3,0,3.4c2.2,0.1,2.8-4.4,5.7-2
			c-1.5,2.7-3.7,4.8-6.8,5.5c-3.1-1.4-4.8,0.9-6.8,2.5c-0.1,1.6-5.6-0.7-2.3,3.3c0.4,1,0,1.8-0.7,2.5c-1.8,1.1-2.9,3-4.7,4
			c-1.1,0.6-2.3,1-3.5,1.2c-4.2-0.4-3.6-2.6-1.9-5.2c1.6-1.8,2.6-4.1,4.4-5.8c1.7-1.5,0.9-3.2,0.5-4.9c0.4-2.7,2.6-3.8,4.7-4.7
			c2.5-1,4.1-2.8,4.7-5.4c1.3-1.9-1.9-6.6,3.6-5.9c1.6,0.5,3.3,0.8,5,1.1C207,153,210.1,152.4,208.9,155.8z"/>
		<path fill="#F9EEEE" d="M201.6,168.8c3.2-0.6,4.6-4,7.6-5c2.8,1.4,5.4,2.2,7.9-0.9c1.6-1.9,3.3-1,4.2,1.1c0.6,1.5,1,3.1,1.4,4.7
			c-1.3,3.3-4.4,3-7.1,3.7c-2.3,0.9-4.6,1.9-7,2.4c-1.5,0.4-3,0.4-4.5,0.4c-0.8,0-1.5-0.1-2.3-0.3c-1.8-0.7-4.1-1.1-4-3.5
			C198.1,169.7,200.1,169.3,201.6,168.8z"/>
		<path fill="#CF6769" d="M208.9,155.8c-0.1-2.7-2.7-1.7-3.9-2.7c-0.2-2.6-2.8-2.4-4.2-3.6c-1.7-1.4-3-2.5-1.9-4.8
			c2.2-1.8,3.9-0.8,5.6,0.8c2.8,2.4,4.2-1.3,6.4-1.6c2.3,0,1.6,1.8,1.8,3c1.2,3.7,5.1,4.8,7.4,7.3c0.8,0.8,1.8,1.3,1.7,2.7
			c-2.6,1.3-5.2,0.7-7.9,0.5c-1-0.6-1.1-1.6-1.3-2.7C210.3,150.7,210.4,156.2,208.9,155.8z"/>
		<path fill="#E5381D" d="M212.8,146.9c-1-0.7-0.5-2.4-1.9-2.8c-0.1-0.2-0.2-0.4-0.4-0.6c-0.1-0.4-0.2-0.9-0.1-1.3
			c0.5-1.9,0.8-4,2.7-5.2c0.8-0.8,1.5-2.1,2.9-1.1c0,0,0,0.1,0,0.1c2.1,1.5,1.4,4.4,3.1,6c-0.3,0.6-0.6,1.1-0.9,1.8
			c-0.8,1.9,1.3,4.6-1.1,5.8C215,150.7,215.4,146,212.8,146.9z"/>
		<path fill="#7A1216" d="M234,157c-0.6-0.8-1.1-1.6-1.9-2.3c-2.2-1.9-2.6-3.7-0.2-5.7c1.4,0.1,2.4,2.3,4.2,0.8
			c1.7,1.4,2.9,3.2,3.8,5.2c-0.1,0.2-0.1,0.4-0.2,0.6C238.4,159,235.9,156.5,234,157z"/>
		<path fill="#854046" d="M215.3,171.3c2.5-1,5.6-0.1,7.6-2.5c1.2,3.7,2.8-0.8,4.1,0.2c0.6,1.7,1.8,2.8,3.5,3.3
			c0.6,4.1-1.8,3.5-4.4,3.1c-1.2-0.2-3.3-3.2-3.7,0.8c-1.9,3-3.6,3.3-4.7-0.5c-0.3-1.1-0.6-2.1-1.7-2.8
			C215.5,172.5,214.9,172.1,215.3,171.3z"/>
		<path fill="#8E313A" d="M214.2,157.1c2.5-1.3,5.1-0.9,7.7-0.2c-2,4-6.3,5.6-9,3.2C213.8,159.3,213.2,157.9,214.2,157.1z"/>
		<path fill="#A81C1C" d="M219.1,142.1c-4.4-0.3-2.1-4-3.1-6c1.7,0.1,3.2,0.7,4.4,1.9c1.1,1.1,3.7,1.3,3,3.2
			C222.8,142.8,220.5,141.7,219.1,142.1z"/>
		<path fill="#E9A5A6" d="M214.2,157.1c-0.9,0.8,1.2,2.9-1.3,3c-0.7,0-1.3,0-2-0.1c-0.9,0-2.1,0.4-2.6-0.7c-0.6-1.4,0.9-1.5,1.5-2.1
			c1-0.9,2-1.7,3-2.6C213.8,155.2,214.2,156.1,214.2,157.1z"/>
		<path fill="#E69EA2" d="M230,171.9c-0.7,0.3-1,2.1-2.1,1.1c-1.2-1-2.3-2.4-0.9-4.1c0.6-0.6,1.2-1.1,2.1-0.9
			c0.2,0.6,0.5,1.2,0.7,1.7C230.6,170.5,230.5,171.2,230,171.9z"/>
		<path fill="#91151C" d="M260.9,194c5,10.4,8.6,21.3,10.1,32.8c0.5,1,0.7,2-0.6,2.4c-1.8,0.5-2.7-0.8-3.3-2.2
			c-0.7-2.1,0.3-4.7-1.7-6.5c-1-3.5-0.2-7.7-3.8-10.3c-1.4-3.1-1.4-6.5-2-9.8c1,4,1,7.5-4,8.9c-0.7,0.2-0.9,0.9-1,1.6
			c0,0.2,0,0.3,0,0.5c0,1.9,1.4,4.3-0.8,5.4c-1.9,1-2.8-1.8-4.5-2.4c-1.5-1.1-2.2-2.5-1.9-4.3c-0.9-4.8,4.1-8.3,2.9-13.2
			c0.1-0.5,0.3-0.9,0.6-1.3c5.2-2.3,5.8-1.6,5.4,6.1c-0.1-2.1,1.2-3.9,0.5-6.1c-0.4-1.1-0.6-2.4,0.9-2.9
			C258.9,192.3,260.2,192.5,260.9,194z"/>
		<path fill="#AB171D" d="M260.9,194c-2.1-0.6-4.4-1.9-3.1,2.4c0.7,2.3,0,4.8-1.5,7c-1.7-0.9-3-2.1-1.9-4c3.5-6-1-3.6-3.4-3.3
			c-1.9-2.6-0.2-4.2,2-6.1c-3.1,0.6-6.2,3.2-8.1-1l0,0c-2.4-1.9-0.7-2.6,1-3.4c0.2-0.5,1.7,1.3,1.1-0.6c-0.5-1.4-1.1-2.7-0.3-4.2
			c1.9-0.9,4.4,0.9,6.1-1.1c1.1-0.3,1.6,0.7,2.2,1.3C257.7,185.1,259.7,189.4,260.9,194z"/>
		<path fill="#9B9492" d="M278,241c-3.3,3.3-1.1,8.9-5,12c-2.7,4.5-3.8,9.6-5.7,14.3c-0.5,1.2-0.2,3.2-2.6,2.5c-1-1.3-1-2.9-0.9-4.4
			c1.3-5.5,4.2-10.3,6.8-15.3c0.6-1.2,1.4-2.2,1.8-3.5c0.8-2.6,1.3-5-2.8-4.8c-0.8,0-1.5-0.5-2-1.3c-0.2-0.4-0.2-0.9-0.1-1.4
			c1.3-2.2,3.9-3.8,3.4-6.9c0.1-0.7,0.3-1.4,0.7-2c0.2-0.1,0.4-0.3,0.6-0.4c1.3,1.2,0.9,2.8,0.9,4.2c0,2,0,3.3,2.8,3.2
			C278.1,237.2,278.1,239.3,278,241z"/>
		<path fill="#7A1216" d="M239.9,155.1c4,5.8,8.3,11.4,11,17.9c-0.6,0.6-1.4,0.6-2.1,0.3c-2.9-3.5-6.1-6.8-8-11
			c-1-2.2-2.1-4.5-1.1-7L239.9,155.1z"/>
		<path fill="#B51A1D" d="M271.7,232c1.4,3.8-0.3,5.9-3.8,7.1c-3.3-3.7-3.2-10.1,0-13.3c0.2,1.2,0.3,2.7,1.9,2.8
			c1.1,0.1,1-1,1.2-1.7c1,0.8,0.7,2.1,1.1,3.1c0,0-0.3-0.1-0.3-0.1l-0.4,0C271.8,230.6,268.4,231.8,271.7,232z"/>
		<path fill="#731216" d="M249,173c0.6,0,1.3,0,1.9,0c2,2.4,3.3,5.1,4.2,8c-0.7-0.3-1.4-0.7-2.1-1c-0.8,1.2-2,1.7-2.6,0.1
			C249.7,177.8,247.9,175.7,249,173z"/>
		<path fill="#F9F8F8" d="M60.1,221c-0.3-0.4-0.7-0.8-1-1.1c-2.9-2.1-1.8-4.9-1.6-7.7c0.5-5.1,2.5-10.1,0.9-15.2
			c-0.5,0-0.9-0.1-1.4-0.1c0,1.7,0.1,3.3,0,5c-0.1,1.4,0.3,3.6-1.7,3.5c-1.8-0.1-1-2.1-1.1-3.3c-0.2-1.5-0.3-3,0-4.5
			c1.3-5.7-0.3-11.4,0.9-17.1c1-4.7,2.8-8.3,8.1-9.4c3.1-0.6,6-1.9,8.6-3.8c0.9-0.6,2.2-1.9,3.4-0.2c1.3,2,0.1,3.8-0.4,5.6
			c-1.3,3.9-2.5,7.8-3.3,11.9c-1.8,7.7-3.5,15.3-4.3,23.2c-0.7,2.7-0.5,5.4-1,8.1c-0.4,1.4-0.6,2.9-0.8,4.3c-0.2,1.3-0.4,2.8-2,3
			C61.5,223.6,60.5,222.6,60.1,221z"/>
		<path fill="#610C0F" d="M96.8,158.9c0.4,0,0.7,0.1,1.1,0.1c1.3,2.6-1,2.9-2.4,3.7c-5.1-0.1-5.3,5.2-8.2,7.6
			c-2.6-3.7-4.4-3.6-6.7,0.5c-0.9,1.6-1.5,3.3-2,5.1c-0.4,1.9-0.9,4-3.4,4.4c-0.5-0.3-0.8-0.6-0.9-1.1c0.5-4.6,0.3-9.3,3.6-13.1
			c0.7-0.5,1.5-1,2.2-1.5c1.3-1.7,1.4-4.2,3.3-5.6c0.9,0.4,2.2,3.2,2.5-0.5c0.3-3.5-0.9-7.1,0.8-10.5c1,1.9,1.1,4,1,6.4
			c0.3-2.6-0.8-5.1,0.3-7.4c0.4-0.7,0.9-1.1,1.7-1c1.8,2,0.2,4.2,0.1,6.2C89.7,159.2,89.6,159.2,96.8,158.9z"/>
		<path fill="#AE3A39" d="M77.9,166c-1,4.7-2.1,9.3-3.1,14c0.5,1.9-0.2,3.6-1.4,5c-1.7,2-2.7,1.1-3.3-1c0.7-5.9,3.6-11.1,4.9-16.9
			C76,166.8,77,166.4,77.9,166z"/>
		<path fill="#ED6352" d="M83.5,159c-1,2,0.4,5.3-3.3,5.6c-1.2-1-2.8-0.4-4.1-0.8C79.5,163.6,80.3,159.4,83.5,159z"/>
		<path fill="#3F0304" d="M96,109c-1.6-1.5-0.9-3.3-0.5-5c1.5-6,3-12.1,4.4-18.1c0.1-6.1,1.9-12.1,2.1-18.2c0.4-1.8,1.2-3.5,2.6-4.7
			c0.9-0.7,2-1.6,3.1-0.9c1.4,0.8,0.3,2.1,0.1,3.2c1.3-2.4,2.2-4.9,2.7-7.4c1.1-6.2,5.4-10.1,9.3-14.3c1-1.1,2.1-2.9,3.7-0.5
			c-0.1,3-1.6,5.5-3.2,7.7c-5,7.2-7.7,15.3-10.3,23.6c-2.2,7-5,13.7-6.9,20.7c-1.2,3.3-2.2,6.8-3.7,10C98.7,106.9,98,108.6,96,109z"
			/>
		<path fill="#F9756B" d="M96,109c3-4.2,3.7-9.4,6.1-13.9c1-0.2,1.4,0.5,1.7,1.2c-0.8,7.9-3.7,15.4-4.1,23.3
			c-0.1,1.8-0.7,3.6,0.6,5.2c0.8,3-2.3,3.7-3.2,5.6c-1.3,1.2-2.3,2.8-4,3.5c-2.9,3.5-3,7.7-3.1,11.9c-0.3,0.4-0.6,0.7-0.9,1.1
			c-0.5,0.4-1,0.3-1.4-0.2c0.6-4.3-1-9,2.2-12.9C92.2,125.6,92.8,117,96,109z"/>
		<path fill="#A31A20" d="M89.9,133.9c-0.6,4.4-1.3,8.7-1.9,13.1c-0.2,0.3-0.5,0.4-0.9,0.2c0.5-4.1-1.5-8.2-0.2-12.4
			C87.6,132.5,88.2,131.8,89.9,133.9z"/>
		<path fill="#880815" d="M103.1,67c-1,6.3-1.3,12.7-3.2,18.8c-2.5-3.3,1.1-6.6,0-9.9c0.3-1.6,0.7-3.3,1-4.9c0-0.7,0.1-1.4,0.1-2
			C101.2,67.8,101.3,66.6,103.1,67z"/>
		<path fill="#ED6352" d="M87.1,147.1c0.3-0.1,0.6-0.2,0.9-0.2c0.4,0,0.7,0,1.1,0c-1.7,2.8,1.5,6.4-1.8,9.4
			c-0.2-3.1-0.3-5.7-0.4-8.3C87,147.7,87.1,147.4,87.1,147.1z"/>
		<path fill="#ED9FA7" d="M153.1,19.9c0-2.6,0-5.3,0-8.2c-2.2,0.3-2.9,1.6-3.2,3.2c-0.3,0.7-0.6,1.4-1,2c-0.7,2.8-2,5.3-4,7.4
			c-3.1,3.2-5.2,7.2-7.7,10.9c-2,0.2-1.9-1.3-1.8-2.5c0.1-1.6,0.4-3.2-1.4-4.1c-0.8-0.7-1.2-1.7-2-2.3c0,0,0-0.4,0-0.4
			c1.6-3.4,5.5-4.1,7.9-6.8c2.4-2.6,5.1-5,7.1-8.1c1.2-1.8,2.6-2.7,5-2.1c2.7,0.7,2.1,2.7,2,4.3C153.9,15.4,154.8,17.8,153.1,19.9z"
			/>
		<path fill="#54191C" d="M60.1,221c2.8,2.3,4.2,2,4.1-2c0-1.1,0.5-2.1,0.7-3.2c2.3,1.8,0.6,4.7,1.7,6.9c-0.3,0.5,0.2,0.1,0.2-0.1
			c-0.3-2.2,0.8-2,2.2-1.2c1.1,1.2,1.4,2.9,2.6,4c1.3,1.8,3.7,3,3.7,5.6c-0.5,3.6-4,1.6-5.9,2.7c-2,1.2-2.5,2.4-3.2,4
			c-1.7-0.4-2.3,4.7-4.8,1c-0.5-1.8,0.3-3.5,0.5-5.3c-1.3-0.3-3.9,1.1-3.2-2.2C56.2,227.5,59.1,224.3,60.1,221z"/>
		<path fill="#971118" d="M73.9,260.1c-0.7-0.1-1.4-1-2.1,0c1-4.4-2.6-7.1-4-10.6c-0.9-2.3-1.7-1.9-3.9,1.8
			c-1.8,0.4-0.8-2.9-2.8-2.2c0.4-1.2,2.2-1.6,1.8-3.2c3.8-3.1,6.5-3.4,8.3,0c1.3,2.5,2.2-0.6,3,0.4c5.3,2.3,8.1,9.2,5.8,14.7
			c-1.7-2.9-3.5-5.7-5.6-9.3C73.3,255,75.5,257.7,73.9,260.1z"/>
		<path fill="#590D10" d="M74,247c-1.2-0.1-2.4,2.4-3.8-0.8c-1.6-3.8-4.8-0.3-7.3-0.3c-0.6,0-1.3,0-1.9,0.1c-1.2,0-2.1-0.5-2.4-1.8
			c-0.2-1.3-0.4-2.7,0.6-3.8c0.8-0.7,1.4-1.8,2.7-1.4c0.9,0.3,1.9,0.9,2.1-0.8c0.2-3.3,1.3,0,1.9-0.3c0.2,0.1,0.4,0.2,0.6,0.2
			c2,1.3,3.1,4,5.8,4.3c0.4,0.1,0.8,0.4,1,0.8C73.3,244.5,73.6,245.8,74,247z"/>
		<path fill="#441A1B" d="M51,213c-0.2,2.3-0.1,4.3,2,6.2c3.2,2.9,3.4,7.7,1.4,12C49.7,227.6,48.3,220.1,51,213
			C51,213,51,213,51,213z"/>
		<path fill="#E2C5C5" d="M59.8,240.8c-1.5,0.7-0.2,2.1-0.8,3.1c-0.4,0.9-0.8,1.7-2,1.2c-2.1,0.4-4.1,0.8-3.5-2.6
			c0.2-1.1,0-2.4-0.6-3.3c-1.8-2.8-0.4-4.1,2.1-5.1C58.4,235,60.1,237.2,59.8,240.8z"/>
		<path fill="#A27074" d="M59.8,240.8c-1.2-2.6-2.8-4.8-4.8-6.8c1.3-0.9,2.5-1.8,3.8-2.7c0.7,3,2.5,1.2,4,0.8
			c0.6,2.5-0.1,4.7-0.8,6.9C61.2,239.6,60.5,240.2,59.8,240.8z"/>
		<path fill="#54191C" d="M57,245c0.7-0.4,1.3-0.8,2-1.2c0.7,0.7,1.3,1.4,2,2.1c-0.8,1.4-2.4,0.8-3.6,1.4c-0.9,0.4-2.2,0.9-2.5-0.3
			C54.4,245.6,56.8,246.3,57,245z"/>
		<path fill="#D8444D" d="M103,96c-0.3-0.3-0.6-0.6-0.9-0.9c5.3-18,10.6-36,21.1-51.9c0.6-3.7,2.7-6.5,5.1-9.2
			c0.9-0.6,1.8-1.3,2.7-1.9c1.5,4.5-1.9,8-2.6,12c-0.6,1.5-1.1,3.2-2.6,4.1c-2,6-7.4,10-9.2,16.1c-0.2,1.5-1,2.7-1.9,3.9
			c-4.3,7.4-5.7,15.9-8.8,23.7C105.3,93.5,105.6,95.8,103,96z"/>
		<path fill="#5E2224" d="M128.3,34c-1.4,3.2-2.6,6.6-5.1,9.2c-4.5,2.7-8.5,6.1-10.1,11.1c-1.5,4.5-3.2,8.8-5.2,13.2
			c-2-1.7,0.2-3.3-0.5-4.8c-2.5,0.5-3.2,2.6-4.4,4.3c-0.7,0.7-1.4,1.3-2.1,2c-0.9,0-1.8,0-2.8,0c8.2-10.9,15.4-22.6,25.9-31.7
			C125.5,36.2,126.5,34.6,128.3,34z"/>
		<path fill="#D4727D" d="M127.1,44.2c1.3-4,2.6-8.1,3.9-12.1c2.1-1.6,1.7-3.7,1.1-5.8c1.5-0.3,1.8,0.7,2,1.8c2,0.4,2.8,1.6,2.3,3.6
			c-1.4,5.9-3,11.8-4.6,17.6c-0.6,2.2-1.4,5.1-4.5,4c-3.2-1.1-1.6-3.7-0.7-5.8C127,46.4,127.9,45.4,127.1,44.2z"/>
		<path fill="#4F181B" d="M213.1,137c-0.7,2.2-1.4,4.4-2,6.7c-1.9,0.8-3.8,0.7-5.8,0.5c-1.1-0.2-2.1-0.6-2.9-1.6
			c-1-2.4-3.2-4.6-1.2-7.5c1.6-6,4.7-4,7.9-1.3c1.1-2.1-0.5-2.6-1.3-3.4c-0.6-0.7-2-0.9-1.3-2.2c0.9-1.7,2.2-0.8,3.4-0.3
			c1.4,0.7,2.9,1.3,3,3.2C213,133.1,213,135.1,213.1,137z"/>
		<path fill="#653B3E" d="M201.2,135.2c-0.8,2.7,1.9,4.4,1.7,6.9c-1.1,1.2-4.3-0.4-3.9,2.8c0.7,1.4,1,2.9,2.9,3.8
			c1.4,0.6,4,1.6,3.1,4.4c-1.8,0.4-3.4-0.2-4.9-1.3c-0.8-0.4-1-1.9-2.2-1.6c-1.4,0.4-1.4,1.6-1.2,2.8c0.2,1.4,0.3,2.9,0.5,4.4
			c-0.4,1.1-1.3,1.4-2.4,1.3c-1.4-0.4-2.3-1.1-2.1-2.7c0.2-1.3,0.7-2.7,0.5-3.9c-1-6.2,1.1-11,5.7-15c0.5-0.6,1-1.3,1.5-1.9
			C200.7,135.1,201,135.1,201.2,135.2z"/>
		<path fill="#BB9698" d="M193.2,122c0.3-0.1,0.6-0.1,0.8,0.1c1.6,2,2.4,3.9-0.1,5.8c-0.6-1.5-1.9-1.9-3.3-2.2
			c-0.8-0.6-1.3-1.2-0.6-2.2C190.9,122.7,191.5,121.2,193.2,122z"/>
		<path fill="#D73026" d="M212.9,131.2c-1-1.1-2-2.1-3-3.2c2.1-0.7,3.7,0.4,4.6,2C215.1,130.8,213.6,130.9,212.9,131.2z"/>
		<path fill="#940A17" d="M68,279.9c-4-3.8-4.3-9-5-13.9c-0.4-3,0.9-6.2-0.8-9.2c-0.5-2-0.3-3.9,1.7-5.1c2.9,4.6,1.8,9.8,2,14.8
			c0.1,4.2-0.7,8.6,2.1,12.3C68,279.2,68,279.6,68,279.9z"/>
		<path fill="#F0CFD0" d="M179,117c0.7-0.1,1.4-0.2,2.1-0.3c3.5,0.7,4,4.1,5.2,6.6c0.9,2-1.1,2.7-2.8,3c-0.5,0.3-1,0.6-1.5,0.9
			c-1.8,0.2-2.3-0.7-1.9-2.3c0.6-2.2-0.3-3.8-2.1-4.9C177.1,118.5,177.6,117.6,179,117z"/>
		<path fill="#5C3B3A" d="M183.5,126.2c1.8-1.2,4.1-2.3,0.9-4.5c-1.9-1.3-0.6-4.4-3.3-5.1c0-0.2,0-0.3-0.1-0.5
			c3.3-1.9,3.9,1.5,5.5,2.9c1.1,1.7,2.8,3.1,3.3,5.2c0.3,0.5,0.6,1,0.9,1.4C188.4,127.1,186,127.2,183.5,126.2z"/>
		<path fill="#BF9498" d="M186,120c-1.7-1.2-2.2-4-5-3.8c0-0.3,0-0.7-0.1-1c1.6-0.5,0.5-3.5,3-3.2c2.5,0.4,0.4,2.3,1.1,3.3
			c1.3,1.9,3,2.9,5.4,2.7c0.4,0.3,0.8,0.6,1.2,0.9c-0.2,0.5-0.4,0.8-0.8,1.2C189.1,121.1,187.6,121.1,186,120z"/>
		<path fill="#B33230" d="M191.5,118.9c2.4-3.1,5.2-1.5,8-1.1c-1.2,3.9-4.8,1.3-6.6,3c-1.6,0.4-2.1-0.3-1.8-1.7
			C191.2,119.1,191.3,119,191.5,118.9z"/>
		<path fill="#EDE0E0" d="M191,119.1c0.6,0.6,1.2,1.2,1.8,1.7c0.1,0.4,0.3,0.8,0.4,1.2c-1.3,0.5-1.8,2.3-3.4,2.3
			c-1.9-0.9-2.8-2.6-3.8-4.3C187.8,120.3,189.4,119.9,191,119.1z"/>
		<path fill="#ACABAE" d="M265,270c2.6-4.5,3.1-10,5.9-14.5c0.6-1,0.9-2.1,2.1-2.5c-3.5,8.2-3.4,17.6-9,25c-1.2,2.7-2.9,5.1-3.5,8.1
			c-0.6,2.8-2.7,5.1-5.5,6.1c-5.2,2-10.3,4.2-15.2,6.9c-0.8-0.8-1-1.8-1-2.8c0-1,0.1-2,0.6-2.9c1.6-0.1,2.2-1.5,3.1-2.4
			c2.7-2.5,5.6-4.5,9-6c5.3-2.4,8.9-6.6,11.2-12C263.3,271.8,263.5,270.5,265,270z"/>
		<path fill="#C1C0C4" d="M240,299.1c2.3-3.3,5.5-5.1,9.3-5.9c5.4-1.2,9.4-3.7,10.9-9.4c0.6-2.2,2.1-4.1,3.8-5.7c0.4,2.9-3,4.9-2,8
			c-1,1.7-2,3.3-3,5c-3.9,6.1-9.4,10.1-16,12.9c-1.7,0.7-3.4,1.5-5.2,0.3C236.9,301.7,237.7,300.1,240,299.1z"/>
		<path fill="#FEFEFE" d="M179,117c-0.4,1-0.7,1.9-1.1,2.9c0,0-0.4,0.1-0.4,0.1s-0.4-0.1-0.4-0.1c-0.6-0.3-1.1-0.8-1.7-0.8
			c-1.7-0.1-4.2,2.3-5-0.5c-0.7-2.3,2.1-3.3,4-4.4c0.4-0.2,1-0.2,1.4-0.3C176.9,115,177.9,116,179,117z"/>
		<path fill="#D5D3D9" d="M238.1,304.1c6.7-1.2,11.9-5.1,16.8-9.5c1.3-1.2,2.7-2.4,4-3.6c-0.7,1.7-1.3,3.3-2,5
			c-3.3,4.3-5.9,9.8-11.8,10.6c-4.9,0.6-8.7,2.7-12.4,5.3c-0.8-1.2-0.1-2.2,0.5-3.2C235,307.3,235.8,304.9,238.1,304.1z"/>
		<path fill="#51070E" d="M137,35c1.9-7.4,8.5-11.7,11.9-18.1c0.9,3.9-2.3,6.6-2.9,10c-7,12-12,24.9-16,38.2
			c-1.1,3.5-1.7,7.1-3.9,10.1c-1-0.5-1.4-1.4-1.6-2.5c1.3-5.4,3-10.7,4.7-16c2-5.4,3.4-11,5.2-16.5C135,38.4,135.4,36.4,137,35z"/>
		<path fill="#DCDBE0" d="M81,422c0.6,1.3,1.7,2.1,3.2,2c4.7-0.3,9.1,1.1,13.7,1.8c5.9,0.9,11.5,2.5,17.2,4c7.7,2,15.5,1.9,23.5,1
			c9.6-1.1,19-4.5,28.8-3.8c1.7,0.1,3.2-0.3,4.6-1.4c5.6-4.5,10.8-3.7,14.9,2.2c2,2.9,3.8,5.8,7,7.6c1.9,1.1,3.3,2.5,1.2,4.7
			c-5.1-5.8-11.4-8.7-19.1-8.6c-3.1,0-6-0.8-9.3-0.7c-6.2,0.3-12,2.2-17.9,3.2c-13.3,2.3-27,3.5-40,0.6c-9.1-2-18.5-0.7-27.1-4.2
			c-0.4-0.2-1-0.3-1.5-0.2c-2.2,0.1-5,2.1-6.2-0.7c-0.9-2.1,2.3-3.4,3.1-5.3C78.4,423.4,79.2,421.9,81,422z"/>
		<path fill="#EAE9EE" d="M115,367c0.5,2.1,3,1.6,4,3c-2.2-0.4-3.6,1.3-5.3,2.1c-1,0.5-2.1,1.3-3.1,0.2c-1-1.1-0.2-2.2,0.7-3
			c1.3-1.2,2-2.6,1.8-4.4C113.7,365.7,114.3,366.3,115,367z"/>
		<path fill="#EDDFDE" d="M151,297c2,3.3,5.1,5.3,8.5,6.6c4.3,1.6,8.7,3,13,4.6c6.2,2.3,11.8-1.6,17.7-2.7c0.4-0.1,0.6-1.1,0.8-1.7
			c2.8-6.8,4.8-7.9,11.7-6.4c2.4,0.5,5.4,2.3,4.6-3c-0.4-2.8,6.1-7.4,10.8-7c4,0.3,5.7-1.3,7.4-4.1c0.8-1.2,1.8-2.4,4.1-2
			c-2.4,3.2-5.4,5.7-5.6,9.7c-1.4,4-4.6,6.5-7.8,8.9c-2.4,1.8-4.4,3.7-6.3,6.1c-2.4,3.1-5.4,6-10.1,4.6c-2.6-0.8-2.9,1.4-3.9,2.7
			c-5.9,2.2-5.9,2.2-22.9-0.9c2.8,1.7,5,2.4,6.7,3.9c0.5,0.5-0.1-0.2,0.4,0.3c1.8,1.9,4.1,4.1,2.8,6.8c-1.2,2.7-4.4,2.5-7,2.6
			c-1.1,0.1-2.3,0-3.4-0.2c-2-0.3-3.8-0.8-4.3,2.3c-0.2,1.7-2.1,1.8-3.6,2c-3.3,0.2-6.6-0.2-9.7-1.2c-3.1-1.1-6.2-0.4-9.3-0.4
			c-6.2-0.1-12.6,0.2-17.6-4.6c-0.7-1.7-1.3-3.3-2-5c7.7-0.2,15.2,1.2,22.6,2.7c3.2,0.7,6.2,1.3,9.1-0.6c2.6-1.6,5.2-0.3,7.8,0.1
			c1.8,0.3,4,0.7,4.9-1.4c0.9-2.2-1.3-3.3-2.8-4.1c-7.5-4.1-14-9.5-20.6-14.7C148.7,300,150.1,298.8,151,297z"/>
		<path fill="#F9F4F1" d="M147,301c3.5,0.7,6.4,3.1,8.9,5.2c4.4,3.6,9.1,6.5,13.9,9.4c1.6,0.9,3.8,2.4,2.8,4.7
			c-0.9,2.2-3.3,3-5.5,2.6c-4.1-0.8-7.8-1.6-12.1,0.8c-3.6,2.1-7.9-1.4-12-1.9c-5.7-0.7-11.6-0.6-17-2.8c-0.3-2.5,1.1-4.7,3-5.2
			C136.7,311.9,141.7,306.3,147,301z"/>
		<path fill="#C0BFC4" d="M151.2,239c3.9-0.3,4.9,3.7,7.7,5.1c1,0.9,0.5,1.9-0.1,2.5c-2.9,3.1-2.6,6.7-1.8,10.4c0,0,0,0,0,0
			c0.8,11.4-5.4,19.7-12.9,27.2c-1.6,1.6-3.5,2-6,1.1c-4.7-1.7-9.2-3.5-13.3-6.6c-2.8-2.2-6.1-4.1-10.1-3.7c-2.3,0.2-2.9-1.1-2.9-3
			c0.3-0.3,0.7-0.7,1-1c2.1,1.7,4.7,1.2,7,1.9c5.7,1.5,11.7,1.4,17.4,3.4c6.1,2.1,9.7-0.1,13.6-6.7c3.1-5.5,4.3-11,0.6-16.8
			c-0.6-0.7-1.1-1.5-1.4-2.5c-0.3-3,2.9-5.8,0.3-8.9c-0.2-0.7-0.3-1.4,0.1-2C150.8,239.2,151,239.1,151.2,239z"/>
		<path fill="#FAF9F9" d="M130,359c1.6,6-4,4.4-6.4,5.8c-1.9,1.1-4.4-0.4-6.6-0.9c-4.4-3.9-3.9-8.5,1.2-11.1
			C123.3,352.8,126.8,355.7,130,359z"/>
		<path fill="#CABABC" d="M128,324c6.3,2.1,12.6,4.2,19.5,3.1c2.4-0.4,5.2-1,7.6,0.8c-2.2,2.9-5.5,2.9-8.6,3.2
			c-4.9,0.4-9.9,1.6-14.8-0.3c-1.2-0.5-2.3-0.3-3.3,0.4c-1.3,0.9-2.5,2-3.5,3.3c-1.2,2.1-2.3,4.3-3.2,6.6c-1.1,2-1.7,4.3-3.4,6
			c-0.5,0.2-0.9,0.1-1.3-0.2c-1.1-2.7-0.4-4.6,1.4-7C121.9,334.8,124.8,329.3,128,324z"/>
		<path fill="#451E1D" d="M117,346.9c0.3,0,0.7,0,1,0c7.6,6.1,15.8,11.3,25.4,13.8c2.2,0.6,4.6,0.9,5.9,3.1c0.2,0.5,0.1,1-0.3,1.5
			c-1.8,1.1-3.5,0.3-5.3-0.2c-3.1-1.6-7.2-1.1-9.6-4.2c-1.2-0.9-2.5-1.7-4.1-1.8c-3.9-2.1-7.8-4.1-11.7-6.2
			C115.9,351.3,114.1,349.6,117,346.9z"/>
		<path fill="#572E31" d="M234,309c-0.6,0.9-1.5,1.7-1.3,2.9c-1.5,2.9-1.7,6.4-3.7,9.2c-2.3,1.1-5,1.3-7.1,3c-2,2.4-4.8,3.7-6.6,6.4
			c-1.8,2.7-3.6-0.3-5.4-0.5c-2.9-4.4-2.4-7.1,1.5-8.9c-1.7-0.2-3.5,0.5-5.2-0.2c-1-0.4-2.4-0.9-0.9-2.4c3.8-1.5,7.8-0.3,11.6-0.9
			c-2.3-0.8-6.5-0.5-6.1-3.5c0.5-3.6,4.3-1.3,6.7-1.4c2.3-0.1,4.7,0.4,6.8-0.7c3-0.8,5.5-2.2,5.8-5.7c0-0.3,0.2-0.6,0.4-0.9
			c1.1-1.9,2.4-4.4,4.7-3.3c2.8,1.4,0.4,3.6-0.3,5.4C234.7,307.9,234.4,308.4,234,309z"/>
		<path fill="#271010" d="M222,324.1c-0.5-0.4-0.9-1.5-0.5-1.5c2.6-0.1,4.6-3.2,7.5-1.4c-0.7,1.7-1.3,3.3-2,5
			c-1.2,0.3-1.9,1.8-2.9,1.7C221.8,327.1,227.1,323.1,222,324.1z"/>
		<path fill="#38191B" d="M205,319c3.1,2.2,6.7,0.2,10,1.3c-0.2,1-1.2,1.1-1.8,1.5c-1.1,0.6-2.9-0.7-3.4,1.1c-0.3,1,1.7,2.5-1.2,3.1
			c-0.8,0.1,1.4,1.4,2.3,2.2c0.9,0.8-0.8,1-0.8,1.8c-0.3,0.1-0.8,0.1-0.9,0.3c-1.3,2,2.1,4.7,0,5.7c-2.5,1.2-5.6,0.7-8.5,1
			c-0.5,0-1,0-1.5,0c-4.4,0.3-8.7,2.1-13.2,1.1c-1.6-0.5-3.2-0.9-4-2.6c1-2.3,3-1.6,4.7-1.5c1.8,0.1,3.6,0.8,5.7,0.2
			c-2.5-4.7,0.5-5.3,4.1-5.5c1.3-0.1,3,0,3.3-1.6c0.3-1.8-1.8-1.6-2.8-2.2c-3.3-2.3-7.6-2.4-11-4.5c-0.5-0.1-0.9-0.3-1.4-0.5
			c-0.9-0.5-1.7-1.2-1.8-2.4c3.2-3.3,7-1,10.6-1C197,318.3,201.5,316.5,205,319z"/>
		<path fill="#80141C" d="M208,341c0.5,2.5-0.9,4-2.9,5.1c-0.7,1-1.5,1.9-2,3l0,0c-1.6,1.3-2.2,2.9-2,4.9
			c-6.4,3.2-12.7,6.7-20.1,6.8c-0.6-1.4,1.8-2.8-0.1-4.1c-1.7-0.7-3.8,0-5.1-1.8c0.2-1.6,1.5-1.7,2.7-1.8c3.4-0.8,7.4,0.7,10.1-3.3
			c-2.7,0.5-5.1,0.7-7.1,2.2c-3.1,1-6.1,2-9.3,0.5c-0.3-5,4.4-3.6,6.7-5.3c2.8-0.6,5.5-1.7,8.5-1.1c6.3,2.7,11.4,1.1,15.6-4.1
			C204.7,341.6,206.3,341.3,208,341z"/>
		<path fill="#492629" d="M188,346.9c-3,0.3-6,0.7-9,1c-3.3,0.7-6.5,1.8-9.9,0.9c-3.3-2.8,0.4-2.3,1.5-3c1.4-0.9,4.3,1.4,4.5-2.1
			c-0.6-1.7-0.7-3.2,0.7-4.6c2.6-2.5,5.6-3.3,9-2.4c4.7,0,9.4,0.1,14.1,0.1c-4.4-0.2-6,4.9-10,5.4c-0.5,0-0.7,0.8-0.2,1.1
			c0.7,0.3,1.5,0.4,2.3,0.6C192,347.1,189.8,346.8,188,346.9z"/>
		<path fill="#C43737" d="M188,346.9c0.8-1.3,3.2-0.7,3.1-2.9c3.8-1.7,8-1.2,12-2.1C199.8,348.9,195.2,350.4,188,346.9z"/>
		<path fill="#1C0706" d="M172,351.9c3.4,0.4,6.6-0.4,9.9-0.9c2.2,0.5,1.8,1.5,0.3,2.3c-1,0.5-2.3-0.1-3.3,0.6c-1.1,0.1-2.3,0-3.1,1
			c-0.5,1.2-1.6,1.6-2.7,2c-3.6,0.3-5.6,3.2-8.2,5.1c-0.6,0-1.2,0-1.9,0c-3.2,2-7.1,2.2-10.5,3.6c-1.5,0.6-2.8-0.1-3.6-1.6
			c-2.4-1.7-5.2-1.9-7.9-2.5c-8-1.8-14-7.7-21.4-10.8c-1.7-0.7-1.6-2.3-1.7-3.8c0.3-2.3,1.7-4.1,2.8-6.1c1.7-1.1,3.4-0.7,5,0.2
			c4.8,3.3,4.8,3.3,7.6-0.6c3.3,0.3,6.8,0.1,9.5,2.7c1,3.1,3,3.1,5.5,1.9c0.5-0.1,0.9-0.1,1.4-0.1c3.4,0.6,6.8,1.4,10,2.7
			c0.4,2.2,1.7,3.1,4,3.4C166.5,351.4,169.5,350.3,172,351.9z"/>
		<path fill="#42090A" d="M149,364c1.5,0.8,2.8,1.1,4.6,0c2.9-1.7,6.1-2.4,9.5-1.9c0,2,1.5,2.1,2.7,1.8c5-1.1,10.1,1.2,15.6-0.7
			c-3.6,1.2-3.3,2.7-1.3,4.6c-1,0.5-2.1,0.9-3.1,1.4c-8.1,0.8-16.1,0.6-23.9-1.4c-1.6-0.4-3.8-0.3-4.1-2.7
			C149,364.7,149,364.3,149,364z"/>
		<path fill="#3F0708" d="M165,362c1.5-3.6,3.8-6.1,8-6c3,0.4,6-0.3,9.1,0c3.6,2.5-1,3.1-1.1,4.7C175.6,361.4,170.4,362.6,165,362z"
			/>
		<path fill="#611B21" d="M201,354c-3.1-3.2-1-4.2,2-4.9c0.9,2.5,3.9-0.1,5,2C206.1,353.1,203.2,352.7,201,354z"/>
		<path fill="#B6B3B1" d="M134.1,360.9c3.4,0.8,6.7,1.7,9.9,3.3c1.7,3.6,4.6,4.6,8.4,4.4c4.6-0.2,9.2-0.3,13.6,1.4
			c-10.9,0.7-21.9,3.9-32.2-2.5c-0.5-0.3-1.2-0.4-1.9-0.5c-1-0.1-2.2-0.4-2.4-1.5c-0.4-1.6,1.2-1.8,2.2-2.3
			C132.7,362.6,133.6,362,134.1,360.9z"/>
		<path fill="#9B9392" d="M166,370c-5.5,0-11-0.4-16.4,0.1c-4.8,0.4-6.3-1.5-5.6-5.9c1.7,0.3,3.3,0.6,5,0.9
			c9.2,2.8,18.5,4.3,28.1,4.1C173.5,371.2,169.7,369.6,166,370z"/>
		<path fill="#611B21" d="M203.1,349c0-1.5,0.6-2.5,2-3c0.6,1.5,2.6,0.1,3.3,1.8C207,350,204.4,347.1,203.1,349z"/>
		<path fill="#77706C" d="M242.9,291.9c-0.9,0.5-1.2,2.5-2.8,0.9c-0.4-0.3-0.7-0.6-0.8-1.1c-0.2-1.3-0.6-3,0.4-3.8
			c4.2-3.2,4.3-8.3,6.4-12.5c1.2-4.5,3.5-8.7,2.8-13.5c1.6-2.2-0.9-4.5,0.2-6.7c2.5-0.8,3-3.2,4-5.2c1.1-2.2,2.6-4.1,4.4-5.7
			c3.2-2,6-4.9,10.2-4.5c0.5,0.4,1,0.7,1.6,1.1c1.7,1.1,4.7-2,5.1,0.4c0.5,2.5-0.1,5.6-1.8,8c-3.4,4.8-5.5,10.3-7.8,15.6
			c-0.8,1.5-1.4,3.1-1.5,4.7c-0.2,6.5-4.2,9.7-9.5,11.9C249,283.6,246.5,288.4,242.9,291.9z"/>
		<path fill="#2E0E0A" d="M100.9,160.9c1.8-0.5,2.5,0,1.7,1.8c-1,2.4-1.8,4.8-0.6,7.4c-3,10.5-6.3,20.9-9.1,31.4
			c-3.5,13.6-5.3,27.6-7.2,41.6c-3.1,1-4.1-1.2-4.8-3.4c-0.6-2-0.5-4.2,0-6.3c2.6-2.5,1.5-6.2,2.7-9.1c0.3-1.9,0.8-3.8,1.4-5.6
			c1.3-4.7,2.5-9.5,3.9-14.2c1-9.5,2.6-18.9,3.6-28.4c0.1-2.9,2.1-5.6,1.4-8.6c0.1-0.5,0.3-0.9,0.5-1.3
			C98.4,166.4,97.7,161.3,100.9,160.9z"/>
		<path fill="#5C524C" d="M127.9,237.9c1.3-1.6,2.9-2.8,5.1-3c6-1,11.4,0.5,16.4,3.7c1.1,6.2-1.7,9.5-7.5,9c-1.7-0.1-3.4-0.1-5-0.5
			c-4.1-1.3-7.6-1.4-9.1,3.7c-0.2,0.8-0.9,1.5-1.9,1.1c-1.7-0.7-2-2.1-1.8-3.7C125.2,244.7,126.3,241.3,127.9,237.9z"/>
		<path fill="#A5A5A9" d="M152,270c-3.3,7.3-9.4,10-16.5,7.2c-6.2-2.4-12.8-2.5-19.2-3.3c-2.3-0.3-3.4-0.6-3.3-3
			c1.2-2.7,2-5.7,3.9-8.1c1.1,0.9,1.8,2.6,3.8,2.1c2.3,0,4.1,1.1,5.9,2.4c4.5,3.3,10,4.5,15.2,6.1c2.1,0.6,4.2,0.2,6-1.5
			C148.9,270.9,150,269.3,152,270z"/>
		<path fill="#807F80" d="M120,266c-4.3,2.2-2.4-1.7-3.1-3.1c0.4-1,1-1.7,2-2c1.1,0.6,2.1,1.3,3.4,0.7c4.5-0.6,8.7,0.7,12.5,2.6
			c4.3,2.1,7.1,0.9,9.9-2.5c1.9-2.3,3.1-6.5,7.6-4.4c0,4.6,2.4,9.6-2.5,13.4c-2.7,2.1-5.6,3.2-8.8,2.4c-5.1-1.3-10.4-2.3-14.8-5.7
			C124.5,265.9,122.5,264.8,120,266z"/>
		<path fill="#7A5153" d="M183.8,177.9c-1.6,2-3.2,3.9,1.2,4.1c1.3,0.6,1.3,0.6-0.1,3.3c0.4,1.5,1.8,2.1,2.9,2.9
			c1.2,0.7,2.5,1.3,3,2.8c1.3,6.4,2.4,12.8-1.6,18.8c-1.7,1-2.5,4.4-5.5,2c0.1-4,1.6-7.7,3.2-11.4c2.4-5.7,1.5-7.7-4.1-10.5
			c-2.8-1.4-4.4-3.8-4.5-6.7c-0.2-4.1,0.3-8.3,0.6-12.4c1.6-0.1,3-0.9,4.6-1.3c2.5,0.9,3.8,2.3,1.6,4.7
			C184.2,175.4,185.1,177.1,183.8,177.9z"/>
		<path fill="#590D10" d="M82,232.3c0.7,3.8-2.3,8.9,3.8,10.8c0.3,1.3,0.7,2.6,1,3.9c-3.5,1.7-6.2,1.7-7.2-2.9
			c-0.4-2-2.6-2.9-3.3-4.8c0.2-0.7-0.3-0.3-0.3-0.2c0.5,2.4-1.2,3.3-2.9,4.1l-0.3-0.2c-0.3-4.5-4.8-3-6.9-4.9c0,0-0.1-0.1-0.1-0.1
			c0.4-2.1-1.2-5.3,3.5-4.8c2.5,0.2-1-2.5,0.7-3.4c2.1-1.3,2.2,5.2,5,1.3c0.1-3.9-0.9-8,2.5-11.2c2.3,1,2.4,3.3,2.6,5.3
			c0.2,2.3,0.9,4.4,1.9,6.4C82,231.8,82,232,82,232.3z"/>
		<path fill="#220503" d="M73.2,243.1c0.6-2,3.8-3.2,2-6.2c2.3,3.3,6.7,5,6.3,9.7c1.8,0.1,3.5,0.2,5.3,0.3c0.8,0.9,1.5,1.9,2.3,2.8
			c-0.2,1.2-0.7,2.6-2.1,2.1c-4.9-1.5-4,1.8-4,4.5c0,2.6,0,5.3,0,7.9c-1-1.1-2-2.2-3-3.3c-0.1-5.5-0.6-10.8-6-14
			C72.7,245.9,72.3,244.7,73.2,243.1z"/>
		<path fill="#BA9598" d="M240,244.2c-2.7-1-4.1-3.2-5.8-5.4c-2.9-3.8-6.8-6.6-11.2-8.6c-0.3-0.3-0.4-0.7-0.3-1.2
			c0.7-1.1,0.6-2.4,1.5-3.4c0.4-0.2,0.8-0.3,1.3-0.3c3.4,0.7,6.7,2.6,10.4,1.7c0.5,0.1,0.9,0.3,1.3,0.5c0.9,1.8,2.8,2,4.3,2.7
			c0.7,1.5,0.2,2.7-0.7,3.9c-1.9,1.7,0.4,3.2,0.4,4.9C241.1,240.9,242.1,242.9,240,244.2z"/>
		<path fill="#8F6467" d="M196,313c-1.1-3-0.7-5,3.1-3.8c5.3,1.8,7.9-0.9,10.1-5.2c1.4-2.7,4.4-3.9,6.8-5.4c3.3-2,4.4-6.2,8-7.7
			c1-0.3,2-0.6,3-1c0.6,0.5,0.7,1.1,0.5,1.8c-0.2,0.4-0.4,0.8-0.7,1.1c-2,1.5-4.6,2.5-5.2,5.4c-1,2.2-3.2,3.2-4.9,4.7
			c-1.6,1.1-3.2,2.3-4.1,4.1c-1.2,2.6-3.3,4-6,4.5c-1.2,0.3-2.6,0.3-3.1,1.8c-0.8,1.6-1.6,3.2-3.4,3.9c-2-0.2-3-1.9-4.2-3.1
			C195.6,313.7,195.6,313.3,196,313z"/>
		<path fill="#812C31" d="M258.1,245c-2.6,3-4.7,6.4-6,10.1c-1.1,3.3-2,0.4-3,0c-0.1-0.5-0.2-1-0.3-1.5c-1.8-1-0.9-3-1.7-4.4
			c-2.1-1.8-5.7-0.7-6.9-4c1.2-1.6,4.2-1.4,4.1-4.2c1.2-1.9,2.4-3.8,3.7-0.1c1,2.7,3.2,3.9,5.8,4.4
			C255.2,244.6,256.5,243.6,258.1,245z"/>
		<path fill="#9A6468" d="M229,286.9c0.5-0.8,0.9-2,1.6-2.3c4.2-1.6,5.9-5.5,8.3-8.7c0.6-0.5,1.2-0.6,1.9-0.3c1.3,0.7,0.3,3.4,2.8,3
			c0.4,0.3,1,0.9,0.8,1.1c-2.5,2.9-3.5,7.3-8.2,7.9c-4-0.3-3.4,2.1-2.7,4.6c-0.1,0.5-0.3,0.9-0.7,1.2c-1.6,0.7-2.8,0.3-3.9-1
			C228,290.6,229.3,288.8,229,286.9z"/>
		<path fill="#BC8A8F" d="M241,276c-0.7,0-1.3-0.1-2-0.1c3.3-4.7,6.7-9.3,10-14c1.3,1.3,2.3,2.4,1.4,4.6c-1.3,3.1-2.2,6.4-3.2,9.6
			c-0.2,0-0.4-0.1-0.6-0.1C244.7,273.5,242.8,276.7,241,276z"/>
		<path fill="#B89799" d="M215.5,220.1c-1-1.7-2-3.8-4.4-3.1c-4.4,1.4-9,0.4-13.3,1.7c-0.8-1,1.9-1.8,0.2-2.9
			c0.1-1.9,1.5-1.6,2.7-1.7c4.2,0.9,8.4,0.2,12.5-0.4c0.5-0.9,0.2-2.1,0.6-3c0.6-0.8,1.3-1.2,2.3-1.1c3.7,2.3,2,7.1,4.5,10
			c0,0.4-0.1,0.9-0.3,1.2c-1.4,1.2-2.3-1.4-3.7-0.4C216.2,220.4,215.8,220.3,215.5,220.1z"/>
		<path fill="#E0DFE5" d="M157,257c-3.9-5-1.4-9,1.9-12.9c2.4,2.2,2,5.5,2.9,8.2c0.5,1.5,0.9,4.1-2.5,2.9
			C157.9,254.8,157.2,255.6,157,257z"/>
		<path fill="#997172" d="M200.8,214.9c-1,0.1-2.1,0-2.8,0.9c-0.3,0.1-0.6,0.2-1,0.2c-1-0.1-1.9-0.3-2.3-1.3c0-0.5,0.2-0.9,0.5-1.2
			c1.3-0.8,2.8-0.9,4.2-1.6c2-1,3.7-2,2.7-4.9c-0.8-2.4,0.7-4.2,3.1-4.7c2.5-0.5,3.1,0.9,2.9,3.2c-0.1,2.6,3.7,1.4,4,3.7
			c-0.9,2.5-2.5,1.8-4.3,1.2c0.2,1.1,3.4,0.7,1.9,3C206.9,214.8,203.7,214.2,200.8,214.9z"/>
		<path fill="#71393C" d="M183.8,211.9c2.4,1.1,2.9-2.7,5.2-2c0.2,0.2,0.4,0.4,0.6,0.5c0.8,1.5,0.8,3.1,0.7,4.7
			c-0.1,1.1-0.4,2.1-1.4,2.8c-0.3,0.4-0.6,0.7-1,1.1c-0.6,0.5-1.3,0.8-2.1,0.9c-2.3-0.4-4.6-0.9-4.9-3.9
			C181.9,214.6,182.8,213.2,183.8,211.9z"/>
		<path fill="#9C8082" d="M186,230c2.1-1.3,4.3-2,6.2,0c1.2,1.3,2,3,1.4,5c-1.1,3.4-4,4.2-6.7,1.9c-0.9-0.7-1.9-1.3-2.8-1.9
			C183.8,233,186.7,232.2,186,230z"/>
		<path fill="#88585A" d="M195.2,158c0.6-0.2,1.1-0.4,1.7-0.6c0.2-0.5,0.5-0.5,0.8-0.2c0.1,3.3-2,4.9-4.7,6.1
			c-2,0.8-3.9,1.6-5.1,3.6c-1.7,2.1-3.9,1.8-6.1,1.2c-0.3-0.4-0.2-0.8,0.2-1.1c2.7-2,6-3.2,7.9-6.1C191.2,159,193.2,158.6,195.2,158
			z"/>
		<path fill="#E1CECF" d="M244.9,241.2c1.3,4.6-1,5.1-4.7,4.1c-0.1-0.4-0.1-0.7-0.2-1.1c0.3-2.7,1.6-5.4-1.3-7.8
			c-1.8-1.5-0.4-2.4,1.5-2.6C243.2,235.4,245,237.7,244.9,241.2z"/>
		<path fill="#5C524C" d="M122,263c-2.6,1.6-3,0-3-2.1c0.4-1.3,0.8-2.5,1.2-3.8c1.7-1.2,0.6-4.3,3.3-4.8c3.9,1.2,2.8,3.8,1.8,6.3
			C124.5,260.3,122.8,261.3,122,263z"/>
		<path fill="#A5A5A9" d="M122.9,252.9c-1.4,1.1-0.3,3.8-2.8,4.1c1.7-6.7,4-13.2,7.8-19.2c-0.4,3.5-1.8,6.7-2.9,10
			C123.9,249.4,124.7,251.7,122.9,252.9z"/>
		<path fill="#6F4D4E" d="M195,215c0.8,0.1,1.7,0.2,2,1.1c-2.9,2.1-4.7,5.1-6.1,8.9c-1.7-1.8-0.7-3.5-0.8-4.9
			C191.1,217.7,191.6,214.9,195,215z"/>
		<path fill="#A48A8C" d="M185.1,223.1c-0.8,2.3-2.1,4.7-4.7,3.7c-3.1-1.2-2.4-4.2-1.3-6.7c1-0.5,1.7,0.1,2.4,0.8
			C182.2,222.5,184,222.2,185.1,223.1z"/>
		<path fill="#D7B9BA" d="M195,215c-1.6,1.7-3.3,3.4-4.9,5c-0.2-0.8-0.3-1.8-1.2-2.2c0.1-0.8,0.3-1.7,0.4-2.5c0.7-2.6,3.2-3.2,5-4.7
			c0.5,0,0.9,0.2,1.2,0.7c0.4,1,0.3,2-0.5,2.8C195,214.4,195,214.7,195,215z"/>
		<path fill="#968C89" d="M149,239.1c-4.9-3.3-10.4-3.8-16-4.1c6.8-1.9,12.8,0.1,18.3,4c-0.2,0-0.3,0-0.5,0
			C150.1,239.6,149.6,239.6,149,239.1z"/>
		<path fill="#CEACAF" d="M181.2,221.2c-0.7-0.4-1.4-0.7-2-1.1c0-1.6,0.3-3.1,1.8-4.1c1.3,1.5,2.9,2.8,5,3.1
			C185.3,222.1,183.3,221.8,181.2,221.2z"/>
		<path fill="#7D5656" d="M181.2,221.2c1.4-1,3.5-0.7,4.7-2.1c0.7,0,1.4-0.1,2-0.1c-0.9,1.4-1.8,2.7-2.7,4.1
			C183.2,223.8,180.8,225.4,181.2,221.2z"/>
		<path fill="#957B7C" d="M215.5,220.1c0.5,0,1.1-0.1,1.6-0.1c2.1,2.9,5.6,4.8,6,8.8c-0.1,0.5-0.1,0.9-0.2,1.4
			C219.1,227.9,216.6,224.5,215.5,220.1z"/>
		<path fill="#E9CBCC" d="M186,230c4.7,3.8-0.2,3.8-2,5C181.6,232.1,184.4,231.3,186,230z"/>
		<path fill="#624C4D" d="M182,167c0,0.3,0,0.7,0,1c0.8,0.4,1.6,0.9,0.9,2.1c-0.9,2.7-2.4,2.1-4,0.8
			C179.3,169.1,179.9,167.4,182,167z"/>
		<path fill="#CBB9BA" d="M195.2,158c-0.7,2.8-3.8,1.4-5.3,2.9c0.4-2,1.9-3.3,2.9-4.9C193.2,157.1,194.2,157.5,195.2,158z"/>
		<path fill="#56383B" d="M229,286.9c2,1.7,1,3.3-0.1,5c-0.7,0.6-1.3,0.6-1.9-0.1c0-0.6,0-1.2,0-1.8
			C227.6,288.9,227.7,287.5,229,286.9z"/>
		<path fill="#77706C" d="M247.1,249.3c1.2,1.2,1.5,2.8,1.7,4.4c-1.9,0.5-3-0.8-4.4-2C245.7,251.1,247.6,251.4,247.1,249.3z"/>
		<path fill="#410405" d="M78,279c-1,4.1-3.3,5.1-7,3.1C74,282.6,75.9,280.6,78,279z"/>
		<path fill="#951322" d="M93,134c0.3-1.8,1.9-2.6,2.8-3.9c3.3-0.3,4.1-2.8,5.1-5.4c1.6-4.3,1.7-9,4.4-12.9c0.8-0.1,1.4,0.3,1.8,1
			c0.2,0.5,0.2,0.9-0.1,1.4c0,0.9-0.1,1.8-0.1,2.7c-1,2.7-0.8,5.9-3.1,8.1c-1.7,3.7-3.7,7.2-7,9.7C95.4,135.8,93.8,137.2,93,134z"/>
		<path fill="#EB4144" d="M118.1,99.1c-1.8,5.2-5.5,9-9.2,12.9c-1.3-3.1,1.4-5.1,2.2-7.6c0.2-0.4,0.5-0.8,0.8-1.2
			c1.9-1.6,3-4.3,6.1-4.3L118.1,99.1z"/>
		<path fill="#B21E32" d="M112,104c-1,2.7-2.1,5.3-3.1,8c-0.6,0.7-1.2,1.4-1.8,2.1c0-0.4-0.1-0.8-0.1-1.2c-0.9-3.8,1.4-6.4,3.7-9
			C111.1,103.7,111.5,103.7,112,104z"/>
		<path fill="#EB4144" d="M103.8,124.9c1-2.7,2.1-5.4,3.1-8.1C106.9,119.9,107,123.1,103.8,124.9z"/>
		<path fill="#3D0304" d="M110.9,103.9c-1.3,3-2.7,6-4,8.9c-0.3-0.3-0.7-0.6-1-0.9c-1.3-1.9,0-3.5,0.6-5.2c2.1-6.5,3.6-13,4.5-19.8
			c1-7.5,4.3-14.6,6.3-21.9c0.1-0.5,1.1-0.9,0.4-1.4c-0.2-0.1-1.2,0.4-1.8,0.4c-1.8-1.6-0.1-2.9,0.7-3.7c3.5-3.4,6-7.2,7.3-12
			c0.2-0.7,0.6-1.1,1.4-0.5c0.5,2.3-0.4,4.5-0.1,6.8c-1.4,6.8-0.2,14.1-4.5,20.9c2.6-0.5,2.9-2.6,4.6-2.5c0.3,0.7,0.6,1.5,0.9,2.2
			c-2.4,3.6-2.9,7.8-4.1,11.8c-0.7,1.3-0.9,3-2.1,3.8C115.2,94,113.1,99,110.9,103.9z"/>
		<path fill="#6E0112" d="M110.9,103.9c0.4-5.1,1.8-9.5,6.7-12.4c1.7-1,2.9-3,4.4-4.6c-0.4,1.6-0.8,3.2-1.1,4.9
			c-0.3,0.7-0.7,1.4-1,2c-2.4,3.5-6.5,5.7-7.8,10.1c0,0,0,0,0,0C111.6,104,111.3,103.9,110.9,103.9z"/>
		<path fill="#9F1E2B" d="M100.9,160.9c-1,1.1-1.8,2.4-1.8,3.9c-0.2,4.3-2.3,2.2-4.1,1.2c-1.2-1.1-1.2-1.1,0-4.3
			c0.6-1.3,3.4-0.4,3-2.8C99.2,159.1,100.9,158.7,100.9,160.9z"/>
		<path fill="#B21E32" d="M112,104c-0.3-5.6,3.8-7.8,7.8-10.1c0.2,2-1.2,3.4-1.9,5C115.9,100.6,114,102.3,112,104z"/>
		<path fill="#431A1C" d="M248,209.9c0,1.7,0.7,3,1.8,4.2c1.5,0.5,2,1.6,1.5,3c-0.8,2.1-2.6-0.4-3.7,0.7c-2.3,4.4-2.6,4.5-5.4,0.7
			c-1.9-2.5-3.5-2.5-6.2-1.6c-2.4,0.8-5.7,3.1-7.6-1.2c0.1-0.5,0.2-0.9,0.5-1.3c0.3-0.4,0.7-0.6,1.1-0.9c6.8-3.7,7.1-7,1.4-14.4
			c-0.6-1.2-0.9-2.6-1.6-3.7c-1.9-2.1-3.1-4.1,1.2-4.7c1.5-0.2,2.5-1.4,4-1.7c1.5,1.4,3,2.5,5.1,3.2c3,0.9,0.1,2.5,0,3.8
			C244.1,199.9,249.1,203.2,248,209.9z"/>
		<path fill="#431A1C" d="M230,171.9c0-0.7-0.1-1.4-0.1-2.1c2-0.8,4,0.8,3.8,1.8c-1.3,5.6,2.8,10.6,1.4,16.1c-1.2,0-2.1-0.7-3-1.3
			c-1-0.8-1.9-1.8-3.4-0.9c-0.4,3.5-2,5.3-5.7,4.5c-2.9-0.6-5,2.6-8,1.8c-2.5-0.9-2.6-2.4-1.2-4.4c0.6-2,1.8-3.3,3.9-4
			c2.8-0.9,5.3-2.6,7.2-5.1c-0.8-1.1-2.4-1.1-3-2.4c-1.3-0.2-2.2-0.8-1.7-2.3c0.4-1.2,1.3-1.2,2.4-0.8c1.5,0.6,3.1,1.2,4.7,1.7
			C230,175.4,230.2,173.9,230,171.9z"/>
		<path fill="#5A1110" d="M249,173c0.7,2,2.5,3.6,2,6.2c-0.3,1.6,1,1.1,1.9,0.8c-1.2,5.2-3.9,1.2-6,1c-2.4-2.9-1.9-6.9-3.9-9.9
			c-0.7-1.7-1.1-3.6-3.5-1.5c-0.4,0.4-1.2-0.1-1.7-0.7c-0.5-0.8-1.6-1.6-1.5-2.4c0.1-2.2,1.3,0.3,1.8-0.3c0.2-0.2,0.2-1.1,0.1-1.1
			c-5.3-0.7-3.1-5.4-4.4-8.2c0.2-1,0.7-2.4,1.7-1.4c1.7,1.6,2.8,0.5,4-0.4c1.3,5,2.8,9.8,7,13.4C248,169.6,248.3,171.5,249,173z"/>
		<path fill="#E84630" d="M248,209.9c-0.6-4.2-2.6-7.6-5.8-10.3c-1.1-0.9-2.5-1.7-2.1-3.6c2.6-0.2,3.3-2.7,4.9-4.1
			c4.8,0.7,5.2,1,5.9,5.1c1.1,2.9,1.9,5.5-1.8,7.5C247.5,205.5,251.4,208.7,248,209.9z"/>
		<path fill="#AD535A" d="M215.1,191c3.9-1.5,7.6-3.5,12.2-1.8c-0.5-2.2-2.8-4.3,0.8-5.1c1.3,1.4,2.6,2.8,4.8,2
			c1.1,0.1,1.6,0.8,2.2,1.7c0,0.4,0,0.8-0.1,1.2c-0.8,3.1-3.3,3.1-5.9,3c0.3,1.4,2.4,1.3,1.9,3c-1.4,0.9-2.9,0.2-4.4,0.3
			c-1.3,0-2.6,0-3.8,0C219.9,194.4,216.3,194.8,215.1,191z"/>
		<path fill="#D8221B" d="M238,169c2.4,0.3,3.1-1.1,3.1-3.7c1.6,2,2.5,3.8,3,5.8c-2.9,1.3-0.6,5.4-3.5,6.7c-1.3,3.7,2.1,3.6,3.9,4.8
			c1.2,0.8,2.6,1.6,1.7,3.5c-0.5,1-2.3,1.5-1.1,3.1C238.1,185.9,234.8,176.3,238,169z"/>
		<path fill="#D8221B" d="M250.9,197.1c-1-2.8-4.4-2.9-5.9-5.1c0-1,0-2,0-3c1.6,1.5,3.6,2,5.3,0.7c1.6-1.3,3-0.6,4.6-0.5
			c0.7,0.1,1.1,0.7,1,1.5c-0.1,0.8-0.6,1.1-1.4,1c-3.8-0.6-3.1,2.3-3.4,4.4C251,196.4,251,196.7,250.9,197.1z"/>
		<path fill="#7D4448" d="M201.6,168.8c-3.8,1.9-4.1,3.7,0.2,5.2c0,2.2,2,4,1.1,6.3c-2.2,1.3-3.8,3.7-6.8,3
			c-0.4-0.3-0.7-0.6-0.8-1.1c-0.1-0.7,0.1-1.3,0.4-1.9c1.6-2.9-0.1-2.5-2-1.9c-0.9-0.1-2,0.1-1.6-1.4c0.9-0.5,1.2-1.2,0.7-2.1
			c-0.7-2.1,1.4-2.7,2.2-4c0.1-0.1,0.2-0.2,0.4-0.3c1.7-1.7,3-4.1,6.1-2.8c0.1,0,0.1,0.3,0.1,0.4
			C201.7,168.5,201.7,168.7,201.6,168.8z"/>
		<path fill="#EDB1B5" d="M183,170.1c-0.3-0.7-0.6-1.4-0.9-2.1c1.7-1.7,3.9-1,5.9-1.2c2.3,1.7,2.7,3.7,0.2,5.5
			c-2.1,1.5-2.8,3.8-4.4,5.6C182.3,175.5,188.1,172.2,183,170.1z"/>
		<path fill="#C5747B" d="M197.7,157.2c-0.3,0-0.6,0.1-0.8,0.2c-1.6-1.2-0.7-3.1-1.4-4.6c-0.7-1.7,0.2-3.6,1.8-4
			c2-0.5,2.8,1.2,2.9,3.1c-1-0.2-2.6-1.2-2.2,1.1C198.2,154.4,198.5,155.8,197.7,157.2z"/>
		<path fill="#F5B5B9" d="M195.2,171.1c0.1,1.8-1.6,2.6-2.2,4c-1.1-0.1-2.1-0.1-3.3-0.2C190.3,171.5,193,171.6,195.2,171.1z"/>
		<path fill="#D39C9F" d="M183.1,185.1c-0.1-1.4,3.1-0.9,1.9-3c0.7-1.1,2-0.8,3-1c0.1,0.2,0.3,0.4,0.4,0.7
			C188,184.9,186.5,186.5,183.1,185.1z"/>
		<path fill="#D39C9F" d="M192.2,177.2c0.4,0.7,1,0.8,1.7,0.8c-0.2,3-2.8,2.8-4.7,3.6c-0.5,0-0.9-0.2-1.3-0.6c0,0,0,0,0,0
			C189.3,179.6,189.6,177,192.2,177.2z"/>
		<path fill="#CF9A9C" d="M202.9,179.9c-2.1-1.6-2.4-3.6-1-5.9c0.7,0,1.5,0,2.2,0c1.9,2.5,5.4-0.6,7.2,2.2c-1.9,3-1.2,6.9-3.4,9.8
			c-1.4-0.2-2.5-1.6-4.1-1C202.1,183.6,204.3,181.5,202.9,179.9z"/>
		<path fill="#7C373C" d="M210.9,175.9c-1.5,0.6-3.1-0.3-4.7,0.5c-2.9,1.4-2.2-0.8-2.1-2.3c1.6-0.1,3.2-0.1,4.8-0.2
			c1.2-0.4,2.4-0.8,3.3,0.5C212.3,175.3,211.7,175.7,210.9,175.9z"/>
		<path fill="#CF9A9C" d="M211.9,174.9c-0.6-1.5-2-0.6-3-1.1c2.1-0.9,4.2-1.7,6.4-2.6c0.3,0.3,0.5,0.6,0.8,1
			C215.5,174.4,214.2,175.5,211.9,174.9z"/>
		<path fill="#EFA0A2" d="M199,144.9c-0.9-0.7-2.3-1.3-1.4-2.7c1.6-2.3,3.5-0.7,5.3-0.1c0.7,0.3,1.4,0.6,2,0.9
			c0.6,1,0.1,1.8-0.4,2.6c-0.2,0.1-0.4,0.3-0.6,0.4C202.5,145,200.9,144.2,199,144.9z"/>
		<path fill="#FAB3B4" d="M210.9,144.1c-3,4.3-4.5,4.7-6.9,1.9c0,0,0.1,0,0.1,0C206,144.3,208,142.4,210.9,144.1L210.9,144.1z"/>
		<path fill="#CF6769" d="M210.9,144.1c-2.8-1.1-4.2,2.4-6.8,1.9c0.3-1,0.6-2,0.9-2.9c2,0.3,4.2-0.6,6.1,0.6
			C211,143.7,210.9,144.1,210.9,144.1z"/>
		<path fill="#F8F5F5" d="M211.9,174.9c1.4-0.9,2.8-1.8,4.2-2.7c2.2-0.5,3,0.4,2.8,2.6c-0.6,4.9,1.4,2.7,3.1,1.1
			c1.8-0.3,3.9,0.7,4.2,1.7c0.5,1.5-1.3,2.8-2.7,3.8c-1.6,1.1-3.2,2.7-5,3c-2.2,0.5-2.3,2.4-3.5,3.5c-1.6,0.6-3.6,0.6-1.6,3.3
			c2.6,3.4,6,3.3,9.5,3.2c1.1,0.1,3.1,0.7,1.6,1.6c-4.2,2.7-0.8,5.3-0.5,7.9c0.1,1.7,0.7,3.3,0.1,5c-0.8,0.7-1.7,0.8-2.7,0.7
			c-2.9-0.8-5.6-2.9-8.8-0.8c-0.2,0-0.4,0-0.7,0c-0.6-0.3-1.1-0.8-1.8-0.9c-1.3-0.2-2.6,1.4-3.9-0.4c-1.5-2.1,1.3-2.7,1.3-4.5
			c-1.8-0.9-3.2-0.5-4.4,1.3c-1.1,1.6,0.4,1.8,0.8,2.7c0.7,1.7,0,4.1-2.4,5c-2.1,0.8-4.2,1.9-6.6,1.8c0-1.1,0-2.1,0-3.2
			c-1-1-1.9-2-2.5-3.4c-0.7,0.8-0.4,2.2-1.5,2.8c-0.7,0.3-1.4,0.2-1.9-0.4c0,0-0.1,0-0.1,0c-0.3-0.4-0.9-1.1-0.8-1.2
			c4.4-5.5,1.8-11.7,1.9-17.6c0.5-1.7,2.4-2.5,2.9-4.2c0.2-0.4,0.3-0.8,0.6-1.2c0.7-1,1.3-2.2,2.5-2.8c3.1,0.8,3.9-3.6,6.9-3
			c1-0.2,1.1-2,2.2-1.5c1.4,0.7,0.2,1.6-0.3,2.3c-1,1.3-0.8,2.8-0.8,4.2c-0.9,2.1-3.7,3.3-2.8,6c1.4-1.9,3.3-3.8,5.6-5
			c2.3-3,0-7.8,4.1-10.1C211.2,175.6,211.6,175.2,211.9,174.9z"/>
		<path fill="#67060C" d="M258.1,245c-1.9-0.5-2.9,1-4.2,1.9c-1.4-1.2-1.8-2.7-1.5-4.4c0.2-1.3,0.2-2.7-0.8-3.7
			c-3.3-3.1-1.3-5.1,1.3-7.1c1.6-0.4,2.3,1,3.5,2.2c0.8-2.4,0.4-5.2,4.2-5.7c1.8-0.2,1.8-3.5-0.5-4.9c-2.3-1.3-3.3-3-2.8-5.6
			c0-0.2,1-0.9,0-0.7c-3.9,0.8-2.2-2.1-2.6-3.6c-0.3-1-1-1.7-1.6-2.5c0-1.3,0-3.5,1.2-3.4c6.7,0.6,4.3-4.3,4.8-7.5
			c0.1-0.4,0.2-0.9,0.5-2c1.6,4.3,2.6,8,2.7,11.9c1.3,3.7,2.2,7.5,4,11c3.7,0.3,1.1,3.2,1.8,4.7c-1.8,4.4-1.2,8.9,0,13.3
			c0,0.2-0.1,0.5-0.2,0.7C264.6,241.5,261.3,243.3,258.1,245z"/>
		<path fill="#B41D21" d="M253,211.1c3.2,0.7,2.1,3.5,2.3,5.2c2.1,1.3,1.4-3.2,3.4-1.1c0.9,0.9,3.2,2.4-0.4,3.3
			c-0.5,0.1,0.3,3.3,1.8,3.9c2.2,1,4.1,5.9,2.6,7.7c-0.6,0.7-1.2,0.5-1.7,0.2c-2.7-1.5-3.1-0.1-2.9,2.2c0.1,1.5,0.2,3.3-1.8,3.6
			c-2.1,0.3-0.8-2.1-1.7-2.8c-0.5-0.4-1.1-0.7-1.6-1.1c-3.3-1.7-4.8-4.3-4.4-8c0.9-1.1,1.7-0.5,2.5,0.2c1.3,1.9,2.4,1.5,3.7-0.4
			c-1.3,0.1-1.6,1.5-2.7,1.1c-2.3-2.3-4.3-4.8-5.2-8c-0.2-0.5-0.2-0.9,0.1-1.3c1.9-1.7,2.6,0.4,3.7,1.3c0.8-1.4-0.3-2.2-0.7-3.2
			c2.6-1.7,1.7,2.9,3.9,2C254.7,214.3,252.9,212.8,253,211.1z"/>
		<path fill="#CF1F13" d="M266.1,221.1c-3-3-5-6.4-4-11C268,212.2,265.5,217.2,266.1,221.1z"/>
		<path fill="#7A090F" d="M239.9,176.9c0.4-0.9,2.3-1.4,1.6-2.1c-5.8-5.9,2.4-2.1,2.6-3.8c2.2,3,2.6,6.5,2.9,10
			c0.8,2.5,1.5,4.9,2.3,7.4c-2.2,0.4-2-1.9-3.2-2.5c0-1.5-1.4-2-2.1-2.9C243.7,180.3,241.8,178.6,239.9,176.9z"/>
		<path fill="#8E8C8C" d="M242.9,291.9c3-5.1,5.9-10.1,12.2-12.3c4-1.4,7.7-4.1,7-9.6c-0.3-2.1,1.6-3.5,2.9-5c0,1.7,0,3.4,0,5
			c-2.1,8.4-7.3,14.1-15.3,17.1C247,288.1,245.5,290.7,242.9,291.9z"/>
		<path fill="#91151C" d="M271.7,232c-0.5,0.8-1,1.5-1.6,2.3c-0.4-0.5-0.9-1-1-1.6c-0.4-1.8,0.4-2.8,2.3-2.9
			C271.5,230.6,271.6,231.3,271.7,232z"/>
		<path fill="#4A0C0D" d="M69.2,222.1c-4,0.6-4,0.6-4.3-6.3c0.2-2.7-0.4-5.4,0.7-8c2.2-2.9,1.7-6.5,2.6-9.7c0.4-1.5,0.4-4,2.2-3.9
			c2,0,1.7,2.4,1.9,4c-0.4,6.6-1.6,13.2-1.1,19.9C71.4,219.6,71.4,221.5,69.2,222.1z"/>
		<path fill="#762325" d="M71.1,198.1c-0.1-1-0.2-1.9-0.3-3.3c-2,3.3-1.7,6.7-2.7,9.8c-0.5,1.5-0.6,3-2.5,3.2
			c1.1-8,2.2-16.1,4.5-23.8c0.8,0.6,1.6,2.5,2.7,0.3c0.7-1.4,1.3-2.8,2-4.3c0,0,0.3,0,0.3,0c1.6,2,1.2,4.2,0.7,6.5
			c-2.1,3.5-1.8,7.6-3.4,11.3C72.1,198.2,71.7,198.3,71.1,198.1z"/>
		<path fill="#2A0302" d="M74.9,187.1c0.1-2.4,0.2-4.7,0.2-7.1c3.2-2.5,2-7.1,4.4-9.9c1.7-2,3.7-4.9,5.8-5.1
			c2.9-0.2,1.1,3.3,1.7,5.1c1.3,2.1,0,4.1-0.2,6.2c-1.7,7.2-3.9,14.3-2.6,21.8c-1.1,3.3-0.7,6.9-1.2,10.3c-0.7,3.2-1.5,6.4-3.1,9.4
			c-0.5,0.9-1,1.8-2,2.2c-2,3.4-0.8,7.6-2.9,11c-1.4-1.7-2.7-3.4-4.1-5.1c-1.2-2.3-0.3-4.8,0.5-6.8c2.2-5.8,3.1-11.9,4.2-17.9
			c1.4-3.7,2.7-7.4-0.8-10.9C73.9,189.4,74.2,188.1,74.9,187.1z"/>
		<path fill="#FB7767" d="M85.9,175.8c0.4-1.9,0.8-3.8,1.2-5.7c1.8-3.6,1.7-8.9,7.9-8.4c2.1,1.4-1.6,2.9,0,4.3
			c0.1,0.3,0.2,0.6,0.1,0.9c-0.1,3.7-2.1,6.9-2.2,10.6c-0.2,1-0.7,1.9-1.2,2.7c-0.9,1.3-1.6,2.7-3,3.6c-2.5,0.7-3.4-0.5-3.2-2.7
			C85.6,179.4,85.1,177.6,85.9,175.8z"/>
		<path fill="#ED8289" d="M115.9,64.1c1.4-1.3,2.8-2.6,4.7-4.5c-1.8,5.6-2.9,10.5-4.8,15.2c-5,12-3.9,25.5-9.8,37.2
			c-1.5,4.7-2.9,9.3-4.4,14c-0.7,2.1-1.7,3.9-3.4,5.4c-1.7,1.4-2.3,0.6-2.3-1.2c0.5-2.4,3.8-2.6,4.1-5.2c-0.4-5.8,1.5-11.3,2.9-16.8
			c2.5-9.7,4.1-19.7,8-29.1c1.6-3.8,0.5-8.5,3.5-12C114.9,66.1,115.4,65.1,115.9,64.1z"/>
		<path fill="#C0545C" d="M114.4,67.1c-2.3,16.6-9.3,32.2-11.6,48.8c-0.4,3.1-1.8,6-2.8,9c-4.1,0.8-1.9-2.5-1.8-3.4
			c1-7.5,1.6-15,4.2-22.2c0.4-1.1,0.5-2.2,0.7-3.3c2.6-7.7,5.2-15.5,7.9-23.2C111.7,70.7,112.1,68.3,114.4,67.1z"/>
		<path fill="#EF8690" d="M124,55c-0.4-2.5,0.1-4.9,1.2-7.1c0.6-1.2,1.3-2.5,1.9-3.7c2,2.2-0.5,3.9-0.7,5.9c-0.1,1.1,0,2,1.1,2.4
			c1.2,0.5,2-0.4,2.3-1.3c2.1-6.8,4.1-13.6,6.1-20.4c0.4-1.4-1.3-1.8-1.8-2.8c2.9-1.3,2.6,0.8,3,2.6c0.3,1.5-1.8,2.9,0,4.4
			c-1.6,7.6-4.4,14.9-6.9,22.2C127.1,59.1,125.4,57.6,124,55z"/>
		<path fill="#E73F3B" d="M76.9,200.9c-0.7,8.6-3.9,16.6-6,24.9c-2.2-0.5-2-2.1-1.7-3.8c2.5-3.8-0.4-7.8,0.6-11.8
			c1-3.9,0.9-8.1,1.3-12.2c0.3-0.1,0.5-0.2,0.8-0.2c0.8-0.1,0.9-0.9,1.1-1.4c0.6-1.8,2-3.1,3.6-2.5c2.1,0.8,0.9,2.8,0.5,4.2
			C76.9,199.1,76.2,199.9,76.9,200.9z"/>
		<path fill="#E53425" d="M66,238c1.5-0.3,3.3,2,4.5-0.9c0.6-1.6,1.5-0.1,1.9,0.6c1.1,1.6,0.5,3.5,0.5,5.2
			C68.3,244.6,68.1,240,66,238z"/>
		<path fill="#C1332B" d="M205.5,134.4c1.6,2.3,3,4.4,4.5,6.6C205.5,140.7,204.4,139,205.5,134.4z"/>
		<path fill="#BC8A8F" d="M234,309c-0.6-2.4,2-4.1,1.5-6.7c-2.8,0.2-4,2.4-4,4.2c0.1,4.8-2.8,5.9-6.6,6.4c-3.2,1.5-6.3-0.1-9.4-0.2
			c-1.9-0.1-2.1-1.6-1.7-3.2c0.3-0.8,0.7-1.4,1.3-1.9c1.5-0.8,2.9-2,4.8-1.8c0.4,0.3,0.6,0.7,0.7,1.1c0.2,0.8-0.2,1.6-0.4,2.3
			c1-0.3,1.6-1,2-2c0.5-2.9,3-4.1,4.8-6c0.6-0.8,1.1-2,2.1-1.9c3.6,0.3,5.6-2.3,8.1-4c1-0.3,1.9-0.1,2.7,0.7c0,1,0,2,0.1,3
			c-0.7,1.7-2.1,3-2,5C237.1,306,236.2,308,234,309z"/>
		<path fill="#E49B9F" d="M240,296.1c-0.9,0-1.9,0-2.8,0c-2-0.1-5.6,1.9-4.2-3c0-0.3-0.1-0.7-0.1-1c1.8-0.4,3.7,0.7,5.3-0.6
			c0.7-0.1,1.3,0,1.8,0.6c0.1,0.3,0.1,0.5,0.2,0.8C240.1,293.9,240,295,240,296.1z"/>
		<path fill="#F89AA1" d="M124,55c2,0.9,3.6,2.8,6.1,2.2c-1.6,5.3-3.3,10.5-4.9,15.8c-1.7,1.6-1.6,4.7-5.2,6.1
			C121.4,70.7,122.7,62.8,124,55z"/>
		<path fill="#D6B6B7" d="M183.1,317.9c0.6,0.4,1.2,0.8,1.8,1.2c0.1,2.1,1.6,1.4,2.8,1.4c1.4,1.1,3.4,2,2.7,4.2
			c-0.6,2.2-2.5,3.2-4.6,3.3c-2.8,0.2-5,0.8-6.3,3.7c-0.6,1.5-2.5,2.1-4.2,2.3c-1.3,0.2-2.5,0.1-3.8-0.3c-0.9-0.3-1.8-0.7-2.5-1.5
			c-1.1-0.3,1.2-1.4-0.3-1.5c-1.5-0.1-3.3,0.7-3.8-1.7c1.1-0.5,3.7,0.4,2.3-2.3c-2-3.9,1.2-3,2.6-2.6c3,0.8,5.9,1,8.9,0.6
			c3.9-0.5,4.5-2.3,2.1-5.5c-0.6-0.8-1.3-1.5-1.9-2.3C181,314,182.1,315.8,183.1,317.9z"/>
		<path fill="#866A6E" d="M164.9,329.1c1.2,1,2.7,0.7,4.1,0.9c2.7,0.4-0.1,1.2,0.1,1.9c-1.2,1.4-2.9,1.3-4.5,1.1
			c-3.7-1.5-6.8-0.1-9.8,1.8c-2.4,0.6-4.7,0.9-7.2,0.6c-3.9-1.3-7.9-1.9-12-2c-3.1-0.1-6.2-0.1-8.7-2.5c0.9-1.7,2.5-2.2,4.2-1.6
			c8.2,2.6,16.1,0.5,24-1.3C158.3,328.8,161.6,329.2,164.9,329.1z"/>
		<path fill="#B7999B" d="M183.1,317.9c-1.2-1.1-2.4-2.5-4.2-0.8c-2.2-1.1-4.4-2.2-6.7-3.2c-0.8-0.4-1.7-0.7-1.5-1.6
			c0.2-0.9,1.1-1.3,1.9-1.2c1.1,0.1,2.4,0.1,3.4,0.5c6.5,2.8,13.1,2.8,19.9,1.4c0,0.3-0.1,0.6-0.1,0.8c-0.7,1.3-1.7,2.2-2.9,3
			c-1.3,1.7-2.7,0.5-4.2,0.4C187,317,184.7,315.7,183.1,317.9z"/>
		<path fill="#6D6A69" d="M149,239.1c0.6,0,1.2,0,1.8-0.1c0.1,0.6,0.3,1.2,0.4,1.9c2.3,3.1-0.8,6.1-0.1,9.1c0.4,0.6,0.7,1.3,1.1,1.9
			c1,1.7,1.4,3.4-0.1,5c-2.9,0.5-4.4,2.8-5.9,4.9c-4.4,5.9-5.2,5.9-11.9,3.3c-3.8-1.5-7.8-3.6-12.2-2.2c-0.2-2,1.1-3.2,2.1-4.7
			c1.2-1.9,2.2-4.2-1.1-5.3c0.1-1.9,0.7-3.6,2-5c0.2,1.2-0.1,2.7,1.4,3.5c1.8-6.5,2.8-7,9.8-5.6c2.7,0.6,5.7,1,8.3,0.8
			C148,246.2,149,242.6,149,239.1z"/>
		<path fill="#949496" d="M152,257c0-1.7,0.1-3.4,0.1-5c3.5,3.2,4.1,10.6,1.3,16c-0.4,0.7-0.9,1.3-1.4,2c-3,1.3-4.1,5.6-8.2,5
			c-6.3-1-12.2-2.9-17.6-6.4c-2-1.3-3.7-2.8-6.3-2.6c2.1-1.7,4.4-1.5,6.4,0c4.2,3.1,9.1,4.3,14,5.6c7.2,2,12.1-2.2,10.8-9.3
			C150.8,260.3,152,258.8,152,257z"/>
		<path fill="#968C89" d="M151,250c-1.6-3.1,0.9-6.1,0.1-9.1C155.4,244,151.8,247,151,250z"/>
		<path fill="#7B4B4F" d="M126.8,330.9c6.1,0.7,12.3,1.4,18.4,2c1.4,0.1,2.6,0.3,2.7,2c-0.1,3.7-2.8,3-4.9,2.7
			c-3-0.4-5.7-2.2-8.6-1.7c5.9,1.1,12,2.4,15.8,8.3c0.2,0.9-0.4,1.3-1.1,1.6c-0.4,0-0.7,0.1-1.1,0.1c-1.8-0.4-3.9,0-5-1.9
			c-2.8-2.6-6.9-1.2-10-3c-2.2-0.5-4.3-1.1-5.8-3.1c-1-1.4-2.9-2.1-3.3-4C124.9,333,125.9,331.9,126.8,330.9z"/>
		<path fill="#8A3235" d="M124,334c1.4,1,3.1,1.6,3.9,3.3c0.1,1.9,3.5,5.2-2,4.9c-1.7-0.4-3.5-0.8-5.2-1.3
			C121.2,338.3,122.7,336.2,124,334z"/>
		<path fill="#7D4C52" d="M193,316.8c-0.5-2.4,1.3-2.6,2.9-3c2.3-0.1,2.8,2.2,4.3,3.1c1.8-0.8,4.3-1,2.9-4.1
			c-0.9-3.8,2.3-0.9,3.1-1.9c3.1,0.2,5.7-2.4,8.9-1.9c0.3,1.1-1.4,3,1.4,3c2.9,0.1,5.7,0.5,8.6,0.8c-4.3,2.7-8.9,0-13.8,0.5
			c2.8,3.8,7.8,1.5,10.7,5.1c-5.9,1.2-11.4,0.3-16.9,0.6C201,318.2,196.4,320.8,193,316.8z"/>
		<path fill="#492629" d="M175,333.1c2-1,4.8-0.6,4.7-4.4c0-1.9,3.1-1.5,5-1.6c1.8-0.2,3.9-0.2,4.7-2.2c0.7-1.9-0.9-3-2.1-4.1
			c-1-0.1-1.6-0.5-1.3-1.7c4.7,1.7,9.4,3.4,14.1,5.1c1.2,0.4,1.9,1.3,1.9,2.6c0.1,1.4-0.7,2.2-1.9,2.6c-1.3,0.4-2.6,0.4-3.9,0.6
			c-1.4,0.2-3.4-0.7-3.8,1.3c-0.4,2.2,2.4,1.1,3.2,2.7c-4.2,4.1-9.1,0.1-13.5,1C179.1,336.6,176.3,337.5,175,333.1z"/>
		<path fill="#2E1617" d="M175,333.1c1.7,3,4.6,1.5,7,1.9c1,0.6,1.9,1.3,2.9,1.9c-3.3,0.2-6.2,1.7-9,3.2c-4.1,0.9-7.9,2.8-12.1,3.2
			c-1.1,0.1-2.1,0.1-3.2,0c-2.5-0.4-5-0.6-7.4-1c-2.8-0.5-4.5-2.2-4.2-5.2c0.3-2.9,2.5-2.4,4.5-2.6c2.3-0.2,4.6-0.4,6.9,0.5
			c2,0.8,3.9,0.4,5.7-0.7c1.5-0.9,3-2.3,5-1.4C172.4,333,173.7,333,175,333.1z"/>
		<path fill="#AA7C7D" d="M185.9,319c0.4,0.6,0.9,1.1,1.3,1.7c-1.5,0.4-0.8,2.4-2.3,3c-2-1.5-0.5-3-0.1-4.5
			C185.2,319.1,185.6,319.1,185.9,319z"/>
		<path fill="#341516" d="M172,351.9c-3.7,1.5-7.3,0.1-11,0.1c-1.1,0-2.4,0.3-2.8-1.2c-0.4-1.5,1.2-1.7,1.8-2.7
			c2.5-2.1,5.2-1.9,7.8-0.3c3.7,0.1,7.5,0.1,11.2,0.2C177.1,350,173.5,349.1,172,351.9z"/>
		<path fill="#3D0607" d="M179,353.9c0.2-1.8,4.4,0.5,3-2.9c1.5-3.6,4.6-1.2,6.8-1.9c-0.3,1.1,1,2.3-0.7,3.4
			C185.2,354.3,182.1,354.1,179,353.9z"/>
		<path fill="#B82B2C" d="M182,356c-3,1.1-6,2.1-9.1,0c1-0.4,1.9-0.7,2.9-1.1C177.9,355.4,180.3,354,182,356z"/>
		<path fill="#90696B" d="M167.8,347.8c-2.6,0.1-5.2,0.2-7.8,0.3c-3.8,0.2-7.2-1.8-10.9-2.3c0.3-0.3,0.6-0.6,1-0.9
			c1-2.3,2.9-2.6,5.2-2.6c1.9,0,3.9,0.7,5.8-0.3c1,0,1.9,0,2.9,0c2.6,1.3,5,2.8,8.1,1c1.2-0.7,2.8-0.2,4.1,0.8
			c1.3,2.6,1.3,2.7-1.1,3.1C172.6,347.4,170.1,346.4,167.8,347.8z"/>
		<path fill="#6D4549" d="M176.1,343.9c-2.2,0.4-4.2-0.1-6.5,1.7c-1.9,1.5-3.8-2-5.6-3.5c4.1,0.3,7.5-4.1,11.9-2
			C175,341.4,175.9,342.6,176.1,343.9z"/>
		<path fill="#500F12" d="M125.9,342.1c3.4-0.5,1.1-3.3,2-4.9c1.1,2.1,3.8,2,5.1,3.8c-1.2,2,2.1,2.2,1.4,4.4
			C131.4,345.1,127.9,345.7,125.9,342.1z"/>
		<path fill="#482C2B" d="M143,344c1.8,0.3,3.6,0.7,5,1.9c-1.3,0.5-1.9,2.4-3.9,1.2C142.7,346.3,142.2,345.5,143,344z"/>
		<path fill="#BC8A8F" d="M240,292c-0.7,0-1.3,0-2,0c-1.4,0.9-2.4,0.4-1.9-1.1c0.5-1.5,0.5-2.7-0.1-4.1c3.4-1.7,5.4-4.6,7-7.9
			c0.1-2.5,1.7-3.1,3.9-3c0,0,0.4,0.3,0.4,0.3C246.4,282.2,241.4,286.3,240,292z"/>
		<path fill="#700D1B" d="M90.9,179.9c0.3-0.7,0.5-1.3,0.8-2c1.7-0.3-0.3-3.3,2.3-2.9c-0.8,10.1-2.1,20.1-3.9,30.1
			c-5.1,0.8-6.1-0.2-6.2-5.2c0-4.5,0.6-8.5,4.3-11.6C90.7,186.1,89.2,182.4,90.9,179.9z"/>
		<path fill="#9F1E2B" d="M90.9,179.9c0.1,4,0.6,7.8-3.5,11c-3.6,2.9-2.7,7.9-2.2,12.1c0.2,1.5,1.4,2.3,2.9,1.2
			c1.2-0.9,1.7-0.5,1.9,0.8c-1.3,4.7-2.6,9.4-3.9,14.1c-3-0.1-4.9-1.7-4.2-4.7c1.2-5.3,0.5-10.8,1.5-16.1
			c-0.9-6.1,0.9-11.3,5.5-15.5C88.9,181.4,89.9,180.6,90.9,179.9z"/>
		<path fill="#EF514B" d="M83.9,198c-0.1,5.4,0.9,10.9-0.9,16.2c-1.1,3.4,2.7,2.9,3.1,4.9c-0.5,1.9-0.9,3.8-1.4,5.8
			c-1.9,2.6-2.8,0.5-3.4-0.9c-1.2-2.5-1.2-5.3-0.6-7.8c0.5-2.4,0.5-4.9,1-7.3c0.1-3.7,0.1-7.3,1.3-10.9
			C83.4,197.5,83.7,197.6,83.9,198z"/>
		<path fill="#921521" d="M81.8,208.9c0,4.1-0.1,8.3,0.2,12.4c0.1,1.4-0.7,4.5,2.8,3.6c0.4,1.9-2.5,3.3-0.4,5.8
			c1.1,1.3-1,1.8-2.4,1.5c0,0-0.1-0.5-0.1-0.5c-3.9-4-2.1-9.4-3.1-14.1C79.8,214.8,80.8,211.9,81.8,208.9z"/>
		<path fill="#9F1E2B" d="M94,175c-1.2,0.6-0.6,2.6-2.3,2.9c1.1-3.6,2.2-7.3,3.3-10.9C96.7,169.9,94.6,172.3,94,175z"/>
		<path fill="#F8DEDD" d="M194,186.4l0.1,0.3c-1.5,3.3-4.1,3.6-7.1,2.4c-0.9-1.7-4.3-0.9-3.9-3.9c2.6-0.2,4.7-1,4.9-4.1
			c0.3,0,0.7,0.1,1,0.1c0.3,0.3,0.7,0.6,1,0.9C191.1,183.6,194.6,183.1,194,186.4z"/>
		<path fill="#A16F72" d="M187,189c2.7,0.2,5.2-0.1,7.1-2.4c0,2.7-2.3,3.4-4,4.5C189,190.4,188,189.7,187,189z"/>
		<path fill="#D93A39" d="M78.8,217.7c1.3,0.8,1.4,2.1,1.3,3.4c-0.5,3.8-0.1,7.3,1.9,10.7c-4.8-2.8-2.3-8-4.1-11.8
			C78,219.1,77.9,218.2,78.8,217.7z"/>
		<path fill="#4D1C1F" d="M249,224c0.2,3.3,2.4,5.6,4,8.3c-1.2,2.2-3.7,3.8,0.4,6.4c2.5,1.5-1.1,5.5,0.6,8.3
			c-2.5-1.6-6.6-1.1-6.9-5.8c-0.3-3.9-1.4,0.5-2.1,0c-1.6-2.4-3.1-4.8-4.7-7.3c0.8-1.2,0.8-2.4,0.4-3.8c-1-1.2-1.2-2.6-1.1-4.1
			c0.2-1,0.9-1.7,1.4-2.6c1.4-2.8-0.5-5.6-3.6-5.4c-2.8,0.2-5.4,1.5-8.2,1.6c-0.5,0-0.9-0.1-1.4-0.3c-0.9-0.6-2.2-1.2-1.5-2.6
			c0.5-1,1.2-2.4,2.9-1.6c2.9,3.8,6.2,0.9,8.5-0.4c2.7-1.4,3.3-1.1,4.4,1.3c0.7,1.5,2.2,2.8,3.3,4.2c1.6-1.2,0-3.4,1.8-4.4
			c0,0.3,0,0.7,0,1C247.8,219.3,249.4,221.4,249,224z"/>
		<path fill="#E9B2B6" d="M228.1,218.9c2.7-0.7,5.4-1.2,8-2c4-1.3,5.8,2,7.2,4.1c1.5,2.3-2.8,2.9-3.2,5.1c-0.7,1.2-1.6,2.1-3.1,1.9
			c-0.3,0-0.7,0-1,0c-2.3-1.4-5.5,0.2-7.6-2.9C226.7,222.6,226,221,228.1,218.9z"/>
		<path fill="#F3DFE0" d="M228.1,218.9c0.2,2.2-2.4,5.7,2.7,5.4c-0.3,5.1,2.5,1.1,3.9,1.3c1.2,0.2,1.3,1.3,1.3,2.3
			c-4,1.6-7.3-0.3-10.6-2c-1.8-1.1-3.1-2.5-3.3-4.7c0-1,0.3-1.9,1.2-2.5C224.9,218.1,226.5,218.3,228.1,218.9L228.1,218.9z"/>
		<path fill="#F8EAEA" d="M223.1,228.8c-2.1-2.9-5.3-5-6-8.8c1.4-0.9,1.8,0.9,2.8,1.1c2.1,1.1,3.3,2.9,3.9,5.2
			C224.1,227.2,226.2,228.7,223.1,228.8z"/>
		<path fill="#D69097" d="M237,227.9c1-0.6,2.1-1.3,3.1-1.9c0.3,1.4,1.5,2.6,0.5,4.1C236.9,233.5,237.7,229.4,237,227.9z"/>
		<path fill="#795153" d="M223.8,226.2c-1.7-1.5-2.9-3.3-3.9-5.2c0.1-0.3,0.1-0.6,0.1-0.9c1.7-1.3,2.3-0.2,2.9,1.2
			c0.8,1.5,1.6,3,2.4,4.6C224.8,226.1,224.3,226.1,223.8,226.2z"/>
		<path fill="#F5DADA" d="M236.7,231.5c0.5,1.7-1.3,2.1-1.9,2.3c-1.3,0.4-0.8-1.3-1.2-2c-0.7-1.2,0.3-1.8,1.3-2.1
			C236.3,229.4,236,231,236.7,231.5z"/>
		<path fill="#F4C3C4" d="M233,293c-0.9,4.2,3.7,0.8,4.2,3c-1.4,2.8-3.6,4.7-6.9,4.1c-1.8-0.3-1.4,1.4-2.3,1.8
			c-2.1,0.8-4.3,1.4-6.4,1.9c-2,0.5-4.2,0.6-5.4-1.9c1.6-1.4,3.2-2.7,4.7-4.1c2.5-3.1,5.2,0,7.9-0.3c0.5,0.3-0.1-0.9-0.1-0.2
			c-3.4-0.9-2.5-3-1.5-5.2c0,0-0.1-0.4-0.1-0.4c0.6,0,1.3,0.1,1.9,0.1C230.3,292.3,231.6,292.7,233,293z"/>
		<path fill="#EAC2C4" d="M216.2,302.1c4,2.8,7.9-1.4,11.8-0.1c-1.9,1.8-4.7,2.9-5,6c-1.3,0.7-2-0.2-2.8-1c-0.1-0.4-0.2-0.7-0.3-1.1
			c-2.3-1.1-2.6,1.4-3.9,2.1c-0.3,0.4-0.7,0.7-1,1.1c-2.6,2.1-5.8,2-8.9,1.9c2.8-1.2,5.6-2.5,6-6C212.5,302.4,215,303.2,216.2,302.1
			z"/>
		<path fill="#E49B9F" d="M227.1,292.2c-0.3,1.5,1.5,2.6,0.4,4.2c2,0.3,1.1-2.2,2.6-1.9c0.8,0.2,0.9,0.9,0.7,1.5
			c-0.6,1.5-1.5,2.8-3.2,2.6c-2.2-0.2-4.4-1.6-6.7-0.7C220.7,293.6,224.6,293.7,227.1,292.2z"/>
		<path fill="#D8A2A7" d="M203,312.8c1.8,0.8,3.2,2.8,2.4,4.1c-1.1,1.6-3.5,0-5.3,0C201.1,315.6,202.1,314.2,203,312.8z"/>
		<path fill="#F4C3C4" d="M235.9,286.9c1.4,0.8,3.8,1.2,1.3,3.4c-1.1,1-0.6,1.6,0.7,1.7c-1.7,3.6-3.4,1.3-5.1,0
			c-1-1.3-2.5-2.6-1.3-4.3C232.6,286.2,234.3,286.2,235.9,286.9z"/>
		<path fill="#F8D3D3" d="M246.8,275.9c-1.3,1-2.6,2-3.9,3c-5.2,2-0.4-2.5-1.9-2.9C242.9,275.3,244.7,268.9,246.8,275.9z"/>
		<path fill="#F8EAEA" d="M222.9,221.4c-1-0.4-1.6-1.5-2.9-1.2c-3-2.8-2-7.1-4.1-10.2c0.8-2.8,2.6-1.1,4-0.8c2.8,3,6.6-0.3,9.6,1.5
			c0.6,1.1,1.1,2.1,0.4,3.3l0,0c-2.7,0.8-3.8,3.6-5.9,5.1C223.1,219.6,223,220.5,222.9,221.4z"/>
		<path fill="#FBF1F0" d="M200.8,214.9c2.4-3.5,6.1-1.2,9-2c1.9-1.1,3.6-1.7,4.3,1.2c0.1,0.6,0.2,1.8-0.2,1.6
			C209.6,214.3,205,217.4,200.8,214.9z"/>
		<path fill="#EBDADB" d="M214.1,214.1c-1.1-1.6-2.8-1-4.3-1.2c-0.4-1.6-2.8-0.9-3.1-2.6c1.6-1.3,4,0.8,5.4-1.2c0,0-0.1,0-0.1,0
			c1.6-0.4,2.2,0.3,2.1,1.9C214.2,212,215.4,213,214.1,214.1z"/>
		<path fill="#704B4F" d="M214.1,210.9c-0.8-0.5-0.9-1.8-2.1-1.9c3-4.3,6-1.9,9.1,0c-0.2,0.4-0.5,0.7-1,0.8c-1.4-0.4-2.8-1-4.1,0.1
			C215.3,210.3,214.7,210.6,214.1,210.9z"/>
		<path fill="#985355" d="M189.1,209.9c0.6-0.1,1.1-0.1,1.7-0.2c1.4-0.5,2.3,0.1,3,1.3c0.4,3.4-3.3,2.6-4.5,4.3
			C189.2,213.5,189.1,211.7,189.1,209.9z"/>
		<path fill="#F7E8E8" d="M192.1,234.1c0.1,1.4-0.5,2.1-1.9,2.1c-0.6,0-1.4-0.1-1.3-1c0.2-1.1,0.8-2.2,1.9-2.6
			C191.7,232.2,191.9,233.3,192.1,234.1z"/>
		<path fill="#B38E90" d="M193.7,211c-1-0.4-2-0.8-3-1.3c0.1-1.5,0.1-2.9,1.9-3.9c0.4,1.8,3.4,2.4,2.3,5.1
			C194.6,211,194.2,211,193.7,211z"/>
		<path fill="#ECBCBF" d="M229.9,213.9c-0.3-1-0.6-2-0.9-3c0.2-1.3,0.7-2.8-1.6-2.1c-1.2,0.4-2.3,1.3-3.4,0
			c-1.2-1.5-0.9-3.2-0.8-4.9c0.6-1.4,1.7-2.2,3.2-2.4c2.9,1.1,4.3-0.9,5.8-2.7c3.1,2.4,5.3,5,4.1,9.4
			C235.3,211.8,233.9,214.1,229.9,213.9z"/>
		<path fill="#FAEFEF" d="M232.1,198.8c-0.4,4.2-2,6-6,3.1c-4-3.1,0.2-5.3,1-7.8c1.4-0.3,2.7,0.3,3.9,0.9
			C231.7,196.1,232.8,197.2,232.1,198.8z"/>
		<path fill="#ECBCBF" d="M224,219c1.3-2.4,2.6-4.9,5.9-5.1c-0.3,0.4-0.6,0.9-0.9,1.3c-0.7,1.1-3.2,1.8-0.9,3.7
			C226.7,218.5,225.4,219.9,224,219z"/>
		<path fill="#F3DADC" d="M223.1,194.9c-2.4-1.2-4.5,2.7-6.8,0.7c-2.4-2.1-4.4-4.6-5.6-7.6c1.7-1.5,3,0.1,4.4,0
			c-0.4,0.8-2.1,0.6-1.8,1.8c0.1,0.5,1.2,0.8,1.9,1.2c2.5,1.4,4.9,2.9,7.8,3.2c0.4,0.1,0.5,0.2,0.4,0.4
			C223.3,194.8,223.2,194.9,223.1,194.9z"/>
		<path fill="#FA847F" d="M232.9,186.2c-0.6,1.4-1.6,2.2-3.1,1.7c-1.8-0.6-1.9-2.1-1.7-3.7C230.5,182.8,232,183.8,232.9,186.2z"/>
		<path fill="#DBA4A9" d="M223.1,194.9c-0.1-0.2-0.1-0.5-0.2-0.7c1.4,0,2.8-0.1,4.2-0.1c1.4,2.8-3.3,4.9-1,7.8c-0.6,1.2-1.9,1.4-3,2
			c-0.1-0.5-0.1-1.1-0.4-1.4c-2.4-2.8-3.3-5.2,1.3-6.6c0.1,0,0.1-0.2,0.2-0.3C223.9,195.3,223.5,195.1,223.1,194.9z"/>
		<path fill="#421213" d="M239.9,176.9c3.8,0.4,5.8,2,4.1,6.1c-2.8,0.2-4.6-1.4-5.7-3.7C237.7,178.1,238.5,177.1,239.9,176.9z"/>
		<path fill="#F8EFEF" d="M189,181.9c0-0.3,0-0.6,0-0.8c1.6-1,3.3-2.1,4.9-3.1c1-2.2,2.4-2.7,4.2-1c2.2,2-0.6,2.2-1.2,3.3
			c-0.3,0.6-0.7,1.1-1,1.7C193.6,182.8,191.3,183.8,189,181.9z"/>
		<path fill="#D39C9F" d="M189,181.9c2.3,0.4,4.6-1.1,6.9,0.1c0,0.3,0.1,0.7,0.1,1c0.2,1.6-0.8,2.5-2,3.4
			C193.6,183.4,188.9,185.3,189,181.9z"/>
		<path fill="#572D2F" d="M206.9,186c-0.2,4.3-5.9,3.6-6.5,7.5c-0.5-3.7-1.1-7.3,3.7-8.4c1.1-0.3,0.7-2.7,2.2-2.1
			C207.7,183.4,206.5,185,206.9,186z"/>
		<path fill="#F3DADC" d="M218.3,200.5c0.1,2.7-1.3,3.7-3.5,4c-1.9,0.3-1.9-1.1-1.7-2.2c0.2-1.9,0.2-4.3,2.3-4.9
			C216.4,197.2,218.1,198.7,218.3,200.5z"/>
		<path fill="#69383A" d="M224,208.8c2.5,0.3,3.6-2.8,6.4-2.3c0.2,1.6,0.2,3.1-1.4,4.4c-3.1,0.1-6.4,2.5-9-1.1
			c0.3-0.3,0.6-0.5,1-0.8C222,208.9,223,208.9,224,208.8z"/>
		<path fill="#6F131B" d="M251.8,224.9c0.9-1,1.8-2.1,2.9-3.2c0.4,1.9,2.5,4,0.8,5.4c-1.2,1-3.4-0.2-4.4-2
			C251.2,224.8,251.5,224.7,251.8,224.9z"/>
		<path fill="#ED5951" d="M251.8,224.9c-0.3,0.1-0.5,0.1-0.7,0.2c-0.7-0.4-1.4-0.7-2.1-1.1c-1.2-2.2-2.6-4.3-2-7.1
			C249.3,219.2,250.7,222,251.8,224.9z"/>
		<path fill="#F75F54" d="M76.9,200.9c-0.1-0.1-0.3-0.2-0.4-0.3c-1.5-1.9,2.1-4.4-0.3-5.7c-2.2-1.2-2,3.3-4.4,3
			c0.8-3.7-0.3-7.8,3.1-10.8c0.1,0.7,0,1.6,0.4,1.9C80,192.5,79,196.6,76.9,200.9z"/>
		<path fill="#D13437" d="M83.9,198l-0.4,0c0,0-0.4,0-0.4,0c-1.5-7.7,0.4-15,2.8-22.2c0,1.8,0,3.6,0.1,5.4c0.1,1.9,1,2.7,3,1.6
			c0,2.1-1.3,3.7-2.6,5.2C83.9,191,84,194.6,83.9,198z"/>
		<path fill="#7D4C52" d="M216,308c0.7-1.5,0-3.9,2.4-4.2c1.1-0.1,1.5,1,1.5,2.1C218.5,306.5,217.8,308.3,216,308z"/>
		<path fill="#F4C3C4" d="M220.2,307c0.9,0.3,1.9,0.7,2.8,1c-0.4,3.1-2.6,1.5-4.3,2C219.3,308.7,219.7,307.9,220.2,307z"/>
		<path fill="#4D262A" d="M161.1,342.1c-3.3,2.4-7.8,0.3-11,2.9c-5.1-5.8-13.2-6.1-20-10.1c2.7-1.6,4.6,0.2,6.6,0.3
			c2.1,0.1,4.2,0.8,6.3,1.4c2.1,0.6,3.9,0.9,5.1-1.5c2.2-1.6,4.8-0.7,7.1-1.1c2.8-1.1,5.5-2.9,8.8-1.9c1.7,0,3.5,0,5.2,0
			c0.7,0.3,1.4,0.7,2.1,1c-1.2,0.2-2.3,0.6-3.1,1.5c-2.7,3.3-6,3.2-9.4,1.4c-1.7-0.9-3.5-0.8-5.4-0.8c-1.5,0-3.1-0.1-3.3,2.1
			c-0.2,2.1,0.5,3.6,2.8,3.9C155.6,341.4,158.3,341.7,161.1,342.1z"/>
		<path fill="#BB9699" d="M163.9,331.9c-2.9,0.6-5.8,1.3-8.8,1.9C157.5,330.9,160.4,330,163.9,331.9z"/>
	</g>
</g>
</svg>
