<?xml version="1.0" encoding="utf-8"?>
<!-- Generator: Adobe Illustrator 18.1.1, SVG Export Plug-In . SVG Version: 6.00 Build 0)  -->
<svg version="1.1" id="Lag_1" xmlns="http://www.w3.org/2000/svg" xmlns:xlink="http://www.w3.org/1999/xlink" x="0px" y="0px"
	 viewBox="0 0 384 514" enable-background="new 0 0 384 514" xml:space="preserve">
<g>
	<g>
		<path fill="#FFFFFF" d="M16.3,411.2c0-164.2,0-328.3-0.1-492.5c0-3.2,0.4-4.4,4.1-4.4c115.4,0.1,230.8,0.1,346.2,0
			c3.4,0,4,0.8,4,4c-0.1,216.6-0.1,433.1,0,649.7c0,3.7-1.1,4.1-4.3,4.1c-115.3-0.1-230.5-0.1-345.8,0c-3.5,0-4.3-0.8-4.2-4.2
			c0.3-8.4,0.1-16.9,0.1-25.3c6.3-6.9,13.6-12.7,20.5-18.9c10.8-9.8,21.9-19,33.8-27.4c14.6-10.3,30.6-17.8,47.7-23
			c3.5-1.1,6.9-2.5,10.2-4c21.8-8.2,44.1-15,66.4-21.7c5.5-1.7,9-5.4,12.3-9.7c0.6-0.8,0.4-1-0.5-0.5c-0.3,0.1-0.5,0.3-0.8,0.5
			c-2.3,1-4.4,4.4-6.8,2.3c-2.3-1.9,0.1-4.9,0.9-7.2c0.9-2.5,1.7-4.9,1.1-7.6c-0.3-1.4-0.1-2.8,0.5-4c4.4-9.4,7.6-19.4,14.2-27.7
			c3-3.8,5.1-8.4,6.2-13.2c2-8.5,6.8-14.8,14.5-19.1c5.3-2.9,8.2-7.3,7-13.6c-0.5-2.8,0.1-5.6,0.6-8.2c1.6-7.9,0.3-16.5,4.5-23.7
			c3.4-5.8,4.5-12.5,8.8-17.9c5.1-6.2,5.8-14.3,7.8-21.8c0.7-2.8,2.5-5.4,1.4-8.4c0.8-4.7,2.8-8.9,4.1-13.5c0.9-3.3,0.6-3.8-2.8-3.2
			c-1.5,0.3-2.9,0.8-4.4,1.3c-1.7,0.5-3.3,0.8-4.3-1.2c0.1-5.9,3.2-11.1,4.5-16.7c2.2-5.1,2.5-10.7,3.1-16.1
			c1.5-12.8,0.6-25.5-3.3-37.9c-1.6-5.1-2-5.4-7-3.1c-9.7,4.4-19,9.8-29.4,12.5c-0.4,0.2-0.8,0.4-1.3,0.5c-4.2,0.9-7.8,3.2-11.8,4.5
			c-2.5,0.8-5.1,1.6-7.4,2.9c-1.5,0.7-3.1,1.2-4.7,1.3c-9,3-17.7,6.7-26.8,9.5c-21.6,6.7-42.8,14.6-64.5,21.1
			c-1,0.3-2.1,0.5-3.1,0.6c-3.1,0-6.2-0.1-9,1.6c-1.1,0.6-2.3,1-3.6,1.1c-2.3-0.1-4.3-0.5-3.8-3.6c2.8-3.6,6.7-5.9,10.7-7.6
			c4.7-2,5.9-5.2,6.2-10.1c0.4-7.6-2.6-14.4-3.7-21.6c-2.9-18.9-7-37.5-8.6-56.6c-1-11.5-0.5-22.9,0.3-34.3c0.2-3,0.9-5.8,2-8.5
			c1.4-3.7,4.6-4.6,7.1-1.6c3.9,4.7,8.7,8.6,12.5,13.4c6.8,8.8,14.9,10.7,24.2,4.6c5.8-3.9,12.3-4.1,18.8-4.9
			c4.2-0.5,8.5,0.3,12.3-2.4c1.5-1.1,3.7-0.9,5.3,0c4.2,2.4,8.8,4.3,11.5,8.9c1.5,2.5,3.8,4.4,5.8,6.5c8.1,8.5,14.9,18.1,22.1,27.4
			c3.8,5,8.9,8.8,12.5,14c2.5,3.6,4.8,7,6.2,11.2c1.4,4.2,3.8,5.9,7.9,5.4c4.1-0.5,8.3-0.4,12.2-1.7c1-0.3,2-0.7,2.9-1.3
			c2-2.2,0.3-3.9-0.9-5.6c-0.7-0.8-1.4-1.5-2.1-2.3c-9.5-20.6-21.3-39.9-33.2-59.1c-0.2-0.4-0.4-0.8-0.5-1.2
			c-1.8-5.1-5.7-8.9-8.2-13.5c-7.1-9.9-12.8-20.6-19.9-30.4c-0.7-1-1.3-2.1-1.5-3.3c-0.3-3.6-3.1-5.3-5.5-7.2
			c-2.5-1.4-4.9-0.1-7,0.8c-21.2,9.2-43.4,15.8-64.9,24.3c-1.9,0.7-3.8,1.4-5.5,2.4c-9.1,5.7-19.4,7.1-29.6,9
			c-2.4,0.5-4.8,1-6.6,2.8c-0.3,0.3-0.6,0.7-0.9,0.9c-6.3,3.7-6.3,3.7-4.8,8.8c0.4,0.9,0.8,1.8,1,2.7c0.1,7.6,0.9,15.2,1.9,22.8
			c0.5,15.1,2.5,30,4.9,44.9c1.8,11.4,3.3,22.9,4.4,34.5c0.4,4.3,1.7,8.4,2.9,12.5c2.4,8,2.9,16.6,7.2,24.1c0.2,0.4,0.4,0.9,0.6,1.3
			c3,8.4,8,15.8,12.7,23.4c0.8,1.3,2.2,2.1,3.4,3c4.3,3,6.8,7.9,11.2,10.7c1.5,1.5,2.5,3.2,1.8,5.5c-0.2,0.4-0.4,0.8-0.6,1.2
			c-1.9,4.9-5.2,8.8-8.5,12.7c-8.9,12.1-17.5,24.4-26.3,36.6c-1.4,1.9-2.9,3.6-4.6,5.1c-11.2,10.3-21.4,21.4-32.1,32.2
			c-3.6,3.6-6.8,7.4-9.8,11.5c-5.8,8.7-10.6,18.1-16.8,26.6C20.2,409.4,19.4,412.3,16.3,411.2z"/>
		<path fill="#DDDCE1" d="M16.3,411.2c2.5-0.8,3.4-3.2,4.9-5.1c6-8,10-17.4,16.3-25.3c0.4-0.5,0.7-1.1,1.1-1.4c0.7-0.6,1.4-2,2.6-1
			c1,0.8,0.7,2,0.3,3c-0.6,1.6-1.6,2.9-2.5,4.4c-2.8,4.5-5.2,9.2-6.4,14.8c1.7-4.8,5.7-5.8,9.6-7.8c4.6-2.4,9.4-5.2,11.5-11.1
			c1.2-3.4,4.3-6.3,7.6-8.3c1.8-1.1,3.4-2.5,3.3-4.7c-0.1-4.5,2.8-6.7,6.2-8.3c5.2-2.5,10.5-3.7,16.1-0.2
			c8.3,5.2,13.3,12.6,14.7,22.1c1.6,10.8-3.7,18.7-11.6,25.3c-6.9,5.8-14.3,11.1-21.7,16.2c-5.1,3.6-11.2,4.9-17,6.9
			c-8.6,3.1-17,2.8-25.2-1.7c-2.5-1.4-4.8-2.6-3.2-6.3c1.1-2.6-0.9-3.9-3.2-4.5c-1.1-0.3-2.4,0.5-3.5-0.5
			C16.3,415.5,16.3,413.4,16.3,411.2z"/>
		<path fill="#F7F3EA" d="M128.5,470.1c-5.3,3.4-11.4,5.2-17.3,7c-9.9,3-18.9,7.6-27.8,12.6c-17.3,9.8-32.2,22.9-47,36.1
			c-5.7,5.1-11.4,10.1-17,15.2c-0.9,0.8-1.7,1.7-3.1,1.7c0-13.5,0-27,0-40.5c1.7-2.8,4.1-3.4,7.1-2.4c1.6,2.9,3.1,5.7,5.6,8.1
			c2.2,2.1,4.4,2.6,7.1,1.8c4.4-1.3,8.7-2.9,11.7-6.6c5.2-4.7,11.8-7.5,17.3-11.6c5.1-3.7,10.9-3.2,16.1-5.1
			c4.3-0.3,6.9-3.8,10.6-5.3c7.8-4,16-6.9,24.5-9.2c3.4-1.2,6.5-3.3,10.3-3C127.4,469.2,128.1,469.5,128.5,470.1z"/>
		<path fill="#EDECEC" d="M23.7,500.5c-2.7-0.3-5.1,0.5-7.4,1.8c0-28.2,0-56.4,0-84.6c3.6-2.2,6.2-0.6,8.3,2.4
			c0.7,0.9,1.3,2,0.2,2.8c-4,3-0.6,3.7,1.4,4.8c8,4.6,16.4,4.7,25,1.9c0.8,0.7,2.2,1,2,2.5c-4.7,1.9-9.6,3.2-14.5,4.6
			c-5.5,1.5-5.5,1.4-3.4,6.8c0.2,0.6,0.3,1.2,0.4,1.8c1.4,6.3-0.3,11.8-3.4,17.5c-1.8,3.3-3,7.3-3.9,11.1c-0.7,3.1-1.9,5.8-4.7,7.6
			c-2,1.3-2.2,2.9-1.7,5.2c0.9,3.7-0.4,7.9,3,11C25.8,498.2,25.9,500.3,23.7,500.5z"/>
		<path fill="#F0F0F0" d="M72.4,86.6c1.1-2.4,3.6-3.1,5.7-3.2c14.1-1.3,26.5-7.4,39.4-12.4c18.7-7.4,37.7-14.1,56.5-21.2
			c3.1-1.2,6.3-2.4,9.3-3.7c1.9-0.8,3.5-0.7,4.9,1c-6.8,2.2-13,5.8-19.3,9.1c-2,1.1-4.2,1.7-6.1,3.9c3.7,1.1,7.2,0.6,10.5,2.1
			c7.1,3.1,11.4,9.3,16,14.8c9.9,12,20.7,23.3,29.8,35.9c9.3,12.9,17.2,26.8,25.8,40.1c4.1,6.4,6.7,13.8,12.4,19.2
			c-4.7,2.7-10.1,1.9-15.1,2.5c-2.9,0.3-6.1-1.3-6.9-4.9c-1.9-9-8.2-15.1-14.3-21.3c-4.3-4.3-7.1-9.7-11.1-14.1
			c-3.9-4.4-7.2-9.3-11.1-13.7c-3.9-4.4-8.4-8.2-11.7-13.2c-2.3-3.5-6.7-5.1-10.6-6.9c-0.9-0.4-2.4-0.4-3.1,0.1
			c-6.9,5.6-15.6,1.3-23.1,4.2c-2,0.8-4.5,0.7-6.2,2.4c-1.7,1.6-3.8,2.5-6,3.3c-10.6,3.7-15.3,1.7-22-7.5
			c-3.6-4.9-8.9-8.7-12.6-13.8c-1.2-1.7-3.6-1.2-4.4,1c-0.9,2.6-1.7,5.3-2,8c-1.8,14.4-1.7,28.9,0.2,43.2c1.7,13.4,4.2,26.7,6.5,40
			c1.8,10.8,6,21.3,5.3,32.6c-0.2,3.8-1.2,6.5-4.9,7.9c-4.6,1.7-8.3,5.1-12.6,7.3c-1.3-1.5-0.7-2.9,0.2-4.2
			c2.9-4.1,2.4-8.5,0.7-12.7c-1.8-4.5-2.5-9.1-2.2-13.9c0.8-15.3-2.7-30.4-2-45.7c0.6-14.2-2.7-28.5,0.8-42.8
			c1.7-7-0.4-14.6,1.1-21.9c0.4-1.9-0.9-2.7-2.4-2.3c-4.3,1.1-8.8,0.4-13.1,1.5C73.9,87.2,73.1,87.1,72.4,86.6z"/>
		<path fill="#ECEBF0" d="M53.1,431.5c-1.2,0-1.8-0.6-1.8-1.8c15.2-3.7,26.5-14,38.2-23.3c3.5-2.8,7.6-6.3,8.9-10.2
			c1.8-5.6,3.4-11.4,0.8-18.2c-2.2-5.9-5.3-10.2-9.5-14.4c-7.4-7.3-15.7-4.6-22.5,0.3c-0.4,0.3-0.9,0.7-0.8,1
			c1.2,8.8-8.1,10.2-11.1,15.9c-0.2,0.4-0.9,0.6-0.9,1c-0.4,7.4-8.1,8.1-11.6,12.7c-0.3,0.4-1.1,0.7-1.6,0.6
			c-4.2-1.1-5.5,1.7-6.3,4.8c-0.5,1.8-0.9,3.6-3.1,2.8c-2.3-0.8-1-2.4-0.4-3.8c2.1-5.5,4.6-10.6,7.9-15.5c0.9-1.4,2.1-2.6,1.8-4.5
			c-1.7-0.1-2.1,1.7-3.4,2c1.7-4.2,5.3-7,8.1-10.2c5.6-6.4,12.2-11.9,17.7-18.6c2.5-3,5.8-5.4,8.8-8c9-7.9,15.8-17.6,22.5-27.5
			c5-7.3,10.4-14.2,15.6-21.3c1.5,0.8,2.8,1.2,4-0.6c0.6-0.9,1.1-1.8,1.9-2.6c1.5-1.5,2.9-3.6,5.4-2.7c2.3,0.8,1.5,3,1.5,4.8
			c0,0.6,0,1.3,0.2,1.8c2.8,5.3,2,9.1-3.9,11.8c-2.6,1.2-1.6,4.5-1,6.7c0.8,2.7,0.4,5-0.2,7.6c-0.7,3-1.7,4.9-5.1,4.1
			c-0.3-0.1-0.6-0.1-0.9,0c-3,0.5-10.7,10.9-10.3,13.8c0.4,3,3.2,4.1,6.4,2.6c2.1-1,3.5-3.9,6.4-2.6c2.6,1.1,1.5,4.2,2.7,6
			c2.3,3.2,2.4,6.6,1.7,10.4c-1,5-0.8,10.2,4.5,13.3c2.8,1.4,5.6,1.6,8.4,0.3c2.8-1.4,5.2-0.8,7.8,0.5c4.4,2.2,9.1,3,14.2,2
			c5.4-1,11-0.4,16.5-0.3c3.1,0,6.3-2,9.4-0.1c0.5,3.2-2.3,2.3-3.8,3.1c-4.8,0.7-9.7-0.1-14.6,0.5c6.7,4.4,11,11.1,16.4,16.4
			c0.1,0.4,0,0.8-0.1,1.3c-1.5,1.2-4.2-1.7-5.2,1.4c-1.6,0-2.5-1.1-3.3-2.2c-1.5-1.9-3.1-3.8-4.4-5.9c-4.6-6.9-20.3-12.4-28.2-10.2
			c-4.1,1.1-8.4,1.9-12.2-1.2c-1.2-0.9-2.2-0.5-3.4,0.2c-2,1.2-3.7,2.7-4.8,4.8c-5.8,10.7-14.5,18.9-23.1,27.1
			c-1.7,1.6-3.3,3.2-4.9,4.9c-1.3,1.3-2,2.7-0.8,4.5c-0.1,1.7-1.4,2.3-2.7,2.8c-4.4,1.7-8.4,4.2-12.7,6.3c-2.7,1-5.3,1.9-7.7,3.5
			c-0.8,0.5-1.6,0.8-2.5,1.1C58.9,430.6,56.3,433.8,53.1,431.5z"/>
		<path fill="#F1F0F4" d="M175.4,374.5c1.3-1.2,3.4-0.3,4.6-1.9c0.6-2.8,4-2.1,5.1-4.2c5.3-1.3,8.1-5.4,10.8-9.6
			c1.6-2.4,2.9-5,5.2-6.9c1.3-0.8,2.3-1.9,3.5-2.9c0.7-0.6,1.5-1,2.3-1.3c0.6-0.2,1.1-0.5,1.7-0.6c2.7-0.2,5.5-3.6,8-0.7
			c2.8,3.3,5.5,7.1,4.3,12c-0.3,1.3-1.1,3,0.6,3.6c1.8,0.6,2-1.4,2.5-2.6c1.4-3.9,4.3-5.3,8.2-5.2c4.4,0.1,5.8-1.1,6.3-5.4
			c0.5-4.4,1.3-8.8,2.1-13.1c0.6-3.4,0.7-6.6-0.7-9.9c-1-2.1-0.9-4.1,1-5.8c6.9-5.9,10-14.4,14.1-22.1c0.5-2.8,1.6-5.2,3.3-7.5
			c2.9-3.1,4-6.9,4.5-11c0.1-0.4,0.3-0.8,0.4-1.2c1.4-2.3,1.4-4.9,2-7.4c0.3-1.4,0.5-2.7,2.2-3.2c2.6,3.8-1.2,6.9-1.5,10.4
			c-0.2,2.4-1.2,4.9-1.7,7.5c-1.2,6.3-4.6,11.5-8.1,16.7c-0.6,0.9-1.7,1.6-1.8,2.6c-1.6,8.4-8.5,15.2-7.9,24.2
			c0.5,7.2-2.7,13.9-1.5,21.3c1,5.8-3.3,9.9-8.3,12.6c-7.4,3.9-11.7,10-13.5,18.1c-1.2,5.3-3.8,10-6.9,14.4c-4.2,5.9-8,11.9-10,18.9
			c-0.4,1.6-1.1,3.1-2,4.6c-1.6,2.4-2.9,4.9-1.6,8.1c1.2,3-1.4,5.5-2.2,8.2c-0.4,1.6-1.9,2.9-0.9,4.8c2.5-0.1,3.8-2.4,6-3
			c1,1.6,0,2.6-1.1,3.5c-4.2,3.4-9.1,5.4-14.3,6.7c-1.9,0.5-4.4,0.8-5.4-2c0-1.3,0.8-2.1,1.7-2.9c1.6-1,3.3-1.7,4.8-2.9
			c1-0.6,2-1.2,2.9-2.1c0.6-0.5,1.2-1,1.7-1.6c1.6-2,0.6-3.6-0.7-5.3c-4.5-6-4.3-6.9,1.1-12.1c3.9-3.8,6.4-8.2,5.1-13.9
			c-0.4-1.8-0.2-3.4,1.2-4.7c1.5-1.5,2.4-3.1,2.3-5.3c0-1.9,1.4-3,2.9-3.9c1.7-1.1,3.2-2.4,4.1-4.2c1.1-2.3,1.3-4.7-1.2-6
			c-2.3-1.2-5.3-0.6-6,1.7c-1.5,4.9-6.3,6.4-8.7,10.3c-0.6,0.9-1.5,1.7-2.6,1.7c-2.6,0.1-4.6,1.3-6.7,2.7c-2.7,1.8-5.5,1.7-8.2-0.2
			c-0.9-0.7-1.9-1.3-1.5-2.7c0-0.3,0-0.6,0-0.9c6-1.2,6.4-2.6,2.5-7.9c-1.2-1.7-2.9-3.1-4-4.9C174.7,378.2,174.3,376.4,175.4,374.5z
			"/>
		<path fill="#E1E0E6" d="M122.1,370.8c-6-4.8-5.5-11-3.7-17.4c0.6-2-0.2-3.3-1-4.7c-1-1.9-3.3-3.2-2-6c0.4-0.8-0.5-1.7-1.4-2.1
			c-1-0.3-1.9-0.1-2.4,0.8c-1.2,2-3.2,2.8-5.2,3.4c-1.9,0.6-3.7,0.1-4.8-1.7c-1-1.5-2-3.1-1.2-5.1c2-4.9,6.7-7.8,8.9-12.6
			c0.2-0.5,1.3-0.5,2.1-0.7c1.9-0.4,5.6,3,5.3-2.4c-0.1-2.3,2.2-3.9,0.7-6.8c-2.3-4.6-0.8-7.5,3.8-10.1c1.7-0.9,3.3-2.2,2.6-4.3
			c-1.1-3.2-3-6.1-1.9-9.9c0.4-1.5-1.5-1.5-2.6-0.7c-2,1.5-3.5,3.4-4.5,5.7c-0.5,1.2-1.5,1.9-2.9,1.8c-1.8-0.1-1.6-1.5-1.7-2.7
			c3-4.1,6.6-7.9,8.3-12.9c7.2,1.9,13.6,5.5,20,9.3c6.7,3.9,11.2-1.6,14.5-5.9c4.3-5.7,7.9-12.2,4.2-19.9c-1.3-5-0.6-6.5,3.7-7.7
			c5.8,5.3,7,15.1,2.8,23.6c-1.3,2.6-2.8,5.1-3.4,7.9c-0.8,3.9-2.9,7.2-4.8,10.6c-1.7,4.3-4.3,8-7.1,11.7
			c-7.9,10.7-16.3,21-22.9,32.6c-1,1.7-2,3.4-2.6,5.2c-0.4,0.6,0.6,0.7,0,0.4c-0.1,0-0.1-0.2,0.1-0.4c0.8-1,1.2-2.7,3-1.8
			c1.3,3.2-1.2,5.6-2.3,8c-2.1,4.7-3,8.7,2.2,11.8C125.1,369.2,123.3,369.5,122.1,370.8z"/>
		<path fill="#E9E9E9" d="M74.3,86.5c0.9-1.2,2.3-2.1,3.5-1.7c3.5,1.1,6.5-0.3,9.8-0.9c4.3-0.8,5.6,0.8,3.9,4.9
			c-0.5,1.3-0.7,2.6-0.7,4c0.7,11.8-0.9,23.4-2.7,35c-0.4,2.3,0.5,4.5,0.9,6.8c1.7,10,0.4,20,1,30c0.7,13.4,2.6,26.7,1.9,40.1
			c-0.2,3.3,2,6,2.8,9.1c1.1,4.5,1.7,8.7-2.1,12.3c-0.9,0.8-0.8,1.9-0.7,3c-0.3,3,1.8,2.7,3.7,2.7c0.2,0.5,0.1,1.1-0.3,1.1
			c-3.8,0.4-4.5,3.4-5.4,6.3c-5.4-7.5-5.3-16.7-8-25.1c-3.3-9.9-3.2-20.4-5-30.5c-1.4-7.9-1.9-16-3.6-23.9
			c-1.3-6.2-1.7-12.8-2.1-19.3c-0.3-6-1.7-12-1.4-18.2c3.4,1.5,2.6,4.9,2.9,7.5c1,9.1,1.6,18.3,3,27.4c2.7,18,4.9,36.1,8.2,54
			c1.1,5.7,2.5,11.4,4.8,17.1c1-1.8-0.1-3.3,0-4.8c-2.2-16.4-4.8-32.8-6.4-49.4c-1.5-15.5-2.8-31-3.7-46.5c-0.4-7.3,0.1-14.6-0.8-22
			c-0.6-5.3-1.1-10.8,3.9-15.3C78.8,89,75.5,89.5,74.3,86.5z"/>
		<path fill="#E7E6EB" d="M243.6,382.7c-5.3-1.7-3.3,2.5-3.8,4.7c-0.2,0.1-0.4,0.2-0.5,0.3c-0.4-0.1-0.7-0.3-1-0.7
			c-0.4-1.6-1.3-2.9-2.2-4.2c5.7-11,12.4-21.4,17.7-32.6c7.6-15.9,14.3-32,18.4-49.2c1.4-5.7,4.4-10.9,7.4-16.4
			c1.4,2.6,1.6,4.6,0.9,7c-2.1,7.1-2.4,14.5-2.3,21.9c0,0.3,0.2,0.7,0,0.9c-4.2,5.9-2.4,13.5-5.7,19.9c-2.2,4.4-3,9.6-3.3,14.6
			c-0.2,2.7,0.3,5.5-1.3,8c-0.5,0.8-0.7,1.8-0.1,2.6c3.2,4.6,0.8,8.4-1.9,12.1c-3.8,5.2-7.7,10.3-12.5,14.5c-1.9,1.6-2.9,3.5-2.7,6
			c-2.4-0.3-2.5-2.3-2.9-4c-0.8-3.5-2-6.9-3.5-10.7C243.8,379.3,245.2,381.2,243.6,382.7z"/>
		<path fill="#E1E1E1" d="M257.3,172.1c-3-0.6-4.6-2.9-5.9-5.3c-6.6-12.9-15.2-24.6-22.3-37.2c-6.5-11.5-14.4-22.1-23.2-31.6
			c-8.1-8.8-14.4-19.2-23.5-27.1c-2.6-2.2-4.2-5.4-7.7-7c-3.8-1.8-7.5-2.5-11.5-2.3c-0.9,0.1-1.9,0.1-2.3-1c-0.3-0.9,0.2-1.5,1-1.8
			c8.7-4.1,16.1-11.1,26.4-11.9c2.3,2.1,5.6,3.5,5.5,7.4c-2.3,0.4-3.1-1.4-4.2-2.7c-1.1-1.2-2-2.7-4.1-1.9c-1.5,1-2.9,1.8-0.9,3.8
			c6.7,6.8,11.5,15,16.9,22.8c9.7,14.1,19.2,28.5,27.9,43.2c6.5,10.9,13.3,21.7,18.9,33.1c2.2,4.5,4.9,8.8,7.6,13.7
			c1.2-1.6,0-3.4,1.3-4.4c0.6,0.6,1.2,1.2,1.8,1.9c0.6,2.4,2.5,4.6,0.9,7.3C259.1,171.5,258.2,171.8,257.3,172.1z"/>
		<path fill="#D5D4D4" d="M74.3,86.5c2.5,0.7,4.8,3,7.7,1.3c0.7-0.4,1.5,0.1,1.9,0.8c0.5,0.8,0.1,1.6-0.5,2
			c-6.8,5.2-4.6,12.2-3.8,18.9c0.1,1.1,0.2,2.1,0.2,3.2c-0.1,21.7,1.6,43.2,4.4,64.7c1.2,9.3,1.2,18.9,3.1,28.1
			c1.3,6,1.5,12.1,2.6,18c-3.2-0.6-3.1-3.5-3.6-5.7c-3.3-13.7-5.1-27.7-6.6-41.7c-0.9-8.7-2.2-17.3-3.4-25.9
			c-0.9-6.2-1.1-12.5-2-18.7c-0.9-6.3-0.2-12.8-1.9-19c-2.1-5.5-1.3-11.1-1-16.7c0.1-2,0.4-3.9-0.2-5.9c-0.3-1.2,0.3-2,1.2-2.6
			c0-0.3,0-0.6,0.1-0.8C73.1,86.6,73.7,86.6,74.3,86.5z"/>
		<path fill="#C7C6C6" d="M73.3,112.3c1.6,2.2,2.3,4.5,1.1,7.2c-0.3,0.8-0.4,1.9-0.2,2.7c2.9,10.7,2.5,21.8,4.1,32.7
			c1.7,11.9,3.3,23.9,4.3,36c0.8,10.4,3.3,20.6,5.9,30.8c0.2,0.7,0.8,1.2,1.3,1.8c0.3,1.8,0.7,3.6,0.9,5.4c0.1,1.1-0.3,2.3-1.5,2.5
			c-1.3,0.2-1.7-0.9-2.1-1.9c-4.4-13-6.3-26.6-8.3-40.1c-2-13.7-4-27.3-5.8-41c-1-7.8-1.6-15.7-2.4-23.5c-0.1-0.9-0.1-1.8-0.9-2.5
			c-1.2-7.9-2.2-15.9-1.9-23.9c2.6,0.4,2,2.6,2,4.1c0.1,3.2,0.6,6.2,1.2,9.3C71.5,114.4,72.5,113,73.3,112.3z"/>
		<path fill="#CAC9C9" d="M257.3,162c-0.7,2.1,2.8,5-0.3,6c-2.2,0.7-3-2.8-4.1-4.7c-6.8-12.1-13.6-24.2-20.5-36.2
			c-10.1-17.4-21.2-34.1-32.3-50.8c-5.2-7.8-10-15.9-17-22.4c-2.8-2.7,0-4.1,2.5-4.9c1.7,4.8,5.4,8.4,8.2,12.5
			c10.1,15.2,20.4,30.2,30.1,46.2c-0.6-2.1-2.3-3.7-0.5-5.4c9.9,14.6,18.6,30,26.9,45.6C252.8,152.4,255.1,157.1,257.3,162z"/>
		<path fill="#EECCC7" d="M89.8,239.3c-2.1-5.5,1.9-6.4,5.6-7.5c0.9-0.3,1.8-0.6,2.7-1c2.9-1.3,6.2-1,9.2-1.8
			c14.3-3.4,28-8.5,41.8-13.2c14.8-5,29.9-9.4,44.5-15c2.8-1.1,5.2-3.4,8.5-2.9c0.2,2-2.4,2-2.8,3.7c2.8,0.9,5.7-3,8.3,0.4
			c-1.6,2.5-4.4,2.6-6.8,3.3c-11.6,3.3-23.5,5.9-34.3,11.6c-11.1,5.8-23.1,9-34.6,13.6c-2.2,0.9-4.5,2.2-7,0.8
			c-0.5-3.2,2.3-3.2,4-3.9c7-2.7,13.9-5.5,21.1-7.8c1.9-0.6,3.8-1.1,5.7-2.5c-2.3-0.6-3.9,0.4-5.5,1c-14.1,4.5-28.1,9.5-42.3,13.8
			c-3.4,1-6.8,1.8-10.3,2.4c-3.5,0.6-5.9,2.1-6.6,5.8c-0.4,0.4-0.8,0.4-1.2,0.1C89.9,239.9,89.9,239.6,89.8,239.3z"/>
		<path fill="#ECEBE8" d="M185.6,444.4c0.1,0.8,0.4,1.5,1.2,1.7c4.4,1.2,16.7-4.7,19-9.1c0.5-0.4,0.9-0.9,1.4-1.1
			c0.9-0.5,1.6-2,2.7-1c1.2,1.2-0.2,2.1-0.8,3.1c-5,8.2-13.3,11-21.9,13.5c-19,5.5-37.9,11.4-56.3,18.4c-0.7,0.3-1.5,0.2-2.3,0.3
			c-0.6,0-1.2,0-1.9,0c0.5-2.9,3.3-2.9,5.1-3.8c6-2.9,12.6-4.4,18.8-6.9c3.9-1.6,8.7-1.2,12.4-3.7c0.7,0.1,0.2-0.3,0.2-0.3
			c-2.9,0.6-3-1-2.3-3.1c3.1-3.2,7.7-3,11.3-5.1c1.2-0.7,2.6-1.1,4-1.3C179.4,445.8,182.1,442.8,185.6,444.4z"/>
		<path fill="#BFBFBF" d="M223.3,102.1c-0.7,2.7,2.8,4.4,1.8,7.3c-2.3-0.2-2.8-2.2-3.7-3.6c-6.1-9.5-12.1-19-18.4-28.4
			c-4.8-7.1-9.7-14-14.2-21.3c-0.7-1-1.1-2.2-2.3-2.7c-2.3-1.1-1.9-2.8-0.9-4.6c2.1-1.9,3.3-0.1,4.3,1.3c1.1,1.7,2.3,3.2,4,4.2
			c3.9,6.2,7.8,12.3,11.6,18.5c3.2,5.1,6.4,10.3,9.6,15.4C217.1,93.3,220.8,97.4,223.3,102.1L223.3,102.1z"/>
		<path fill="#A2A1A0" d="M243.6,382.7c-0.2-1.3-0.5-2.7-0.7-4c-0.2-1.3-1-3.1,0.4-3.7c1.7-0.7,2.1,1.4,2.5,2.5
			c1.2,3.4,2.2,6.9,3.1,10.4c0.4,1.5,0.7,2.9,1.8,4.1c3.7,9.5,7.4,18.9,11.1,28.4c2.7,7.8,5.2,15.5,7.4,23.4
			c0.3,1.2,1.4,2.9-0.6,3.5c-1.7,0.5-2-1.2-2.6-2.5c-4.2-9.1-6.6-18.9-10-28.3c-0.7-1.9-1.3-3.8-2.2-5.5
			C250.4,401.6,247,392.2,243.6,382.7z"/>
		<path fill="#BFBEBD" d="M253.6,427.8c0.3,0.9,0.6,1.9,0.9,2.8c1.6,5.7,3.6,11.2,5.5,16.8c0.3,1,0.5,2.1,0.9,3
			c0.4,1,0.1,1.9-0.9,2.2c-1.1,0.4-1.8-0.4-2.1-1.3c-1.3-4.1-3.3-7.8-4.8-11.8c-1.7-4.2-3-8.6-5.1-12.7c-2.7-7.7-5.5-15.3-8.2-23
			c-1.8-3.8-4.1-7.5-4.9-11.8c-0.3-1.5-0.6-2.9-0.2-4.5c0.3-1.3,0.8-2.4,2.2-2.5c1.5-0.1,1.2,1.5,1.9,2.2l0,0
			c2.5,7.6,5.2,15.2,7.8,22.8C248.8,416.1,250.3,422.3,253.6,427.8z"/>
		<path fill="#BCB9BF" d="M158,265.8c2.8,7.5,0,17.8-6.1,22.4c-0.6,0.5-1.2,1-1.7,1.5c-4.9,5-11.4,5.4-16.9,0.6
			c-3.6-3.1-7.3-5.5-12.3-5.2c-2.1,0.1-2.7-0.9-2.6-2.8c0.2-0.1,0.5-0.1,0.7-0.2c0.4,0.1,0.9,0.2,1.3,0.3c7.6,1,15.3,0,22.8,2.8
			c6.1,2.2,12.7-4.1,13.5-11.9c0.3-2.4-0.4-4.9,0.8-7.2C157.7,266.1,157.9,266,158,265.8z"/>
		<path fill="#E3C4BC" d="M226,189.5c4.3-2.8,9.5-3,14-5.4c5.9-3.1,12.2-5.6,18.1-8.8c3.5-1.9,5.4-0.6,6.2,2.5
			c1.6,5.9,3.1,11.8,4,17.8c1.8,12.1-0.2,24-1.9,35.9c-0.2,1.1-1,2.2-1.5,3.3c-0.5-0.3-0.8-0.7-1-1.2c-0.1-7.1,1.4-14.1,1.9-21.1
			c0.3-4.1,0.6-8.1,0-12.2c-0.2-0.5-0.2-1-0.3-1.5c0.5-6.7-3.1-12.7-3.4-19.2c-0.4-1.9-1.2-3-3.3-1.8c-1.2,0.6-2.2,1.4-3.4,2
			c-7.3,6.3-16.3,8.7-25.5,10.5C228.4,190.6,227,190.7,226,189.5z"/>
		<path fill="#DFDDDD" d="M253.7,411.1c3.4,3.8,3.8,8.8,5.4,13.3c2.4,6.8,4.5,13.6,7.4,20.2c0.4,1,0.6,2.1,2.4,2.1
			c-1.4-9.1-5.6-17.3-7-26.2c4.3,8.4,6.6,17.5,9.2,26.5c0.8,2.8,1.3,5.6,1.8,8.4c0.1,0.8,0.3,2-0.9,2.3c-0.8,0.2-1.3-0.6-1.7-1.2
			c-0.7-1.2-1.7-2.2-2.1-3.5C263,439.1,257.7,425.4,253.7,411.1z"/>
		<path fill="#E2B4AB" d="M226,189.5c6.6-1.3,13.1-2.1,19.4-5.3c3.4-1.8,6.6-4,10-5.7c0.4,4.8-3.2,5.9-6.6,7.2
			c-1.9,0.5-3.5,1.5-5.1,2.6c-0.9,0.5-1.9,1-3,1.2c-2.6,0.1-5.1,0.6-7,2.5c-2.9,1.7-6,2.9-9.2,3.9c-2.5,0.9-4.9,2-7.5,2.9
			c-1.5,0.2-3,1-4.5,0.3c-0.6-0.6-0.5-2.1-2.1-1.5c-1.2,0.4-2.6,0.5-3.7-0.7c2.1-2,4.7-2.3,7.4-2.8
			C218.2,193.2,222.1,191.2,226,189.5L226,189.5z"/>
		<path fill="#B6B6B6" d="M73.3,112.3c-0.1,0.9,0,1.8-0.2,2.7c-0.1,0.8-0.6,1.5-1.5,1.4c-1,0-0.9-1-1.1-1.7
			c-0.9-3.7-1.9-7.3-1.8-11.1c0-1.7,0.7-3.7-0.9-5.2c-0.3-0.6-0.6-1.2-0.9-1.8c-1.1-6-0.4-7,4.6-7.4c2.3,1.2,1.9,3.1,1.6,5.1
			C72,100.4,72,106.4,73.3,112.3z"/>
		<path fill="#C7C6C9" d="M267.5,267.7c-0.8,1.1-1.2,2.3-1,3.7c-2.3,2-1.3,5.1-2.7,7.4l0,0c-0.8,2.2-0.3,4.9-2.4,6.7
			c-0.6,0.7-1.4,1.2-2.4,0.7c-0.3-0.4-0.5-0.8-0.6-1.2c1.1-6.9,3.1-13.6,6.6-19.7c1.9-3.3,2.6-7.1,4-10.6c0.9-2.2-0.3-2.3-2-1.7
			c-2.3,0.8-4.5,2-7,2.4c-0.5-0.1-0.9-0.3-1.2-0.7c-0.3-1.4-1.2-3,1.2-3.3c3.1,1.7,5.3-1.6,8.1-1.5c1.5,0,3-0.9,4.2,0.6
			c1.1,1.4,0.3,2.7-0.3,4.2C270.3,258.9,269,263.3,267.5,267.7z"/>
		<path fill="#DAD9D9" d="M248.1,426.9c2.7,1.9,2.8,5.2,4,7.9c2.4,5.8,4.7,11.7,7.6,17.3c-0.2-7.6-4.5-14.1-5.2-21.5
			c4,9.9,7.9,19.8,8.6,30.7C256.7,450.5,251.6,439,248.1,426.9z"/>
		<path fill="#EDADA5" d="M260,251.3c-1.2,0.9-0.6,2.3-0.9,3.5c0,2.7-2,4-3.7,5.5c-1.4,0.8-2.9,2.3-4.5,0.9c-1.7-1.5-0.7-3.4,0.1-5
			c0.3-0.7,0.5-1.4,0.7-2.1c1.7-4,4.5-7.1,7-10.6c1.5-2.1,2.6-4.4,3.4-6.9c0.6-1.1,0.6-2.7,2.4-2.9c0.1,0.4,0.3,0.8,0.4,1.2
			C263.2,240.4,261.6,245.9,260,251.3z"/>
		<path fill="#E3E1E3" d="M238.9,387.3c-1-0.4-1.5-2.5-2.9-1c-1.2,1.2-0.8,2.8-0.4,4.3c1.3,4.4,3.5,8.6,4.2,13.2
			c-1.7-1.8-2.7-4.3-6.2-3c-2,0.7-3.3-0.9-2.6-3.3c1.5-5,2.6-10.2,5.1-14.9C239.2,383,238.9,385.3,238.9,387.3z"/>
		<path fill="#CF968F" d="M206.7,196.9c1.5,0.1,2.9-0.1,4.3-0.6c0.7-0.3,1.9-0.7,2.3,0.2c0.2,0.6-0.6,1.5-1,2.2
			c-0.7,1.9-2.3,2.3-4,2.8c-0.2,0-0.4,0-0.6,0c-2.7-0.3-4.9,1.2-7.4,1.7c-1.1,0.2-2.6,0.8-3.1-0.7c-0.4-1.1,0.9-1.8,1.7-2.4
			c1.1-0.8,2.3-1.4,3.4-2.1C203.7,197.6,205.2,197.3,206.7,196.9z"/>
		<path fill="#E3E1E3" d="M253.6,427.8c-1.9-2-3.2-4.3-4-7c-3.3-11.2-8.5-21.9-10.7-33.4c0.3,0,0.6,0,0.9,0
			c3.5,10.7,7.1,21.4,10.5,32.1C251.2,422.3,254,424.4,253.6,427.8z"/>
		<path fill="#E9E9E9" d="M89.9,240.1c0.3,0,0.6-0.1,0.9-0.1c0.4-0.2,0.8-0.2,1.2,0.1c3.6,5.6,6.3,11.8,10.3,17.2
			c1,2.9,3.8,4.7,4.8,7.7c0.1,0.7-0.1,1.3-0.6,1.8c-2.7-1.6-5-3.5-5.6-6.7c-0.1-0.7-0.5-1.6-1-2C93.8,253.6,93.6,245.9,89.9,240.1z"
			/>
		<path fill="#CAC9C9" d="M223.3,102.2c-3.9-4-7.1-8.3-8.3-13.8C218,92.8,222.3,96.5,223.3,102.2z"/>
		<path fill="#CBB4A9" d="M106.5,266.8c0-0.6,0-1.3,0-1.9c3.4,0.2,4.7,3.3,6.8,5.2c1,2.4,4.5,3,4.7,6.1c-0.1,0.4-0.3,0.8-0.6,1
			C112.9,274.7,110.6,269.8,106.5,266.8z"/>
		<path fill="#BCB9BF" d="M119.1,282.3c0.8-2.2-0.2-3.7-1.7-5c0.2-0.3,0.3-0.5,0.5-0.8c0.7-1.2,1.5-2.1,2.9-2.4
			c3.5,2.2,2.9,5.8-1.4,8.5L119.1,282.3z"/>
		<path fill="#E3C4BC" d="M226,189.5c-3.5,2.7-7.4,4.6-12,4.6C217.9,192.3,221.6,190,226,189.5z"/>
		<path fill="#E9E9E9" d="M71.5,89.3c-4.7,0.5-4.8,3.8-4.6,7.4c-2.2-5.5-1.5-6.8,5.4-9.2C72.1,88,71.8,88.7,71.5,89.3z"/>
		<path fill="#F0F0F0" d="M260.1,171.2c-0.3-2.4-0.6-4.9-0.9-7.3C260.4,166.2,263.5,168.2,260.1,171.2z"/>
		<path fill="#E9E9E9" d="M107.4,229.1c-2.9,1.3-6.1,1.5-9.2,1.8C100.9,228.8,104.2,229.1,107.4,229.1z"/>
		<path fill="#ECE9E3" d="M161.6,452.6c-1.5,2.5,1.3,2.4,2.8,4.1c-12.8,4.6-26,7-37.8,13.4c-3.7-0.4-6.6,2.4-10.1,2.8
			c-6.5,0.3-12.4,3.5-19,3.9c-6.9,0.5-12.9,4.7-19.3,7.1c-6.3,2.4-11.8,6.3-18.2,8.7c-1.5,0.6-2.5,1.7-3,3.2c-0.5,1.5-1.5,2.9-3.1,3
			c-3.4,0.3-4.4,2.9-5.5,5.3c-2.6,3.8-6.7,5.1-10.6,6.4c-7.3,2.5-14-2.3-14.2-10.1c1.7-1.9,1.1-3.5-0.8-4.5
			c-2.5-1.3-1.4-3.4-1.9-5.2c-1.5-6.1,2-9.5,4.9-14c2.2-3.5,4.3-8.2,4.2-13c-0.1-2.4,2.1-3.2,3.1-4.8c2.8-4.5,1.7-9,1.5-13.6
			c4.7,1.5,6.5,4.8,4.8,10.2c-1.3,4.3-2.5,8.5-0.6,12.8c-0.1,3.4-3,5.7-2.7,9.5c0.4,5.8,5.5,10.3,11.1,8.6
			c14.7-4.6,29.3-9.7,44.2-13.6c14.2-3.7,28-9,42.4-12c8.1-1.7,15.2-6.5,23.4-7.9C158.8,452.6,160.1,451.4,161.6,452.6z"/>
		<path fill="#ECEBE8" d="M48.5,504.1c-0.3-3.2,0.1-5.9,4.4-5.7c1.1,0,2.7-0.6,2.8-2c0.3-4.4,4-4.6,6.9-6.2
			c6.9-3.8,14.1-6.8,21.3-10c5.7-2.5,11.2-6,18-4.4c1.7,0.4,2.4-1.7,3.9-2.1c3.6-1,7.2-1,10.9-1c-2.3,3-6,1.9-8.9,2.8
			c-5.5,1.7-10.1,5.6-15.9,6.4c-3.7,1.3-6.6,3.9-10.1,5.5c-2.9,0.6-5.5,2.8-8.7,1.1c-0.5-0.3-1.8,0.3-2.5,0.9
			c-5.5,4.2-11.8,7-17.6,10.7C51.2,501.3,49.9,502.8,48.5,504.1z"/>
		<path fill="#ECE9E3" d="M81.6,487.6c2.8-2.8,6-5.1,10.1-5.5C88.6,484.3,85.9,487.4,81.6,487.6z"/>
		<path fill="#DDDCE1" d="M38.4,468.3c-2.9-3.2-2.2-6.7-0.8-10.3c2.6-6.7,2.2-8.4-2.8-12.7c0-0.2,0-0.3-0.1-0.5
			c-2.9-7.7-2.9-7.6,5.2-9.6c4.5-1.1,8.9-2.5,13.3-3.7c3.3,0.6,5.9-2.5,9.2-1.9c-0.4,3-3,3-5.1,3.8c-2.2,0.2-4.4,0.9-6.6,1.5
			c-1.8,0.6-4.1,0.9-4.7,3c-0.7,2.5,1.9,3,3.2,4.3c2.3,1.9,2.8,4.7,3,7.4c0.3,2.8-0.7,4.9-3.7,6c-3.4,1.2-6.4,2.6-4.2,7.4
			C45.4,465.4,41.9,468.3,38.4,468.3z"/>
		<path fill="#FEFDFD" d="M87.1,416.8c-1.8,0-3.3-0.3-1.9-2.5c0.8-1.3,1.8-2.4,2.9-3.5c7.3-7.3,15.1-14.2,21.4-22.5
			c2.1-2.8,4.3-5.7,5.7-8.8c1.4-3.2,4.6-3.9,6.6-6.1c0.8-0.8,1.8-0.6,2.4,0.2c3.8,4.6,8.4,2.8,12.9,1.6c5-1.3,9.8-0.8,14.1,2.2
			c0.6,0.4,1.3,1,2,1.2c8.1,1.2,12.3,7.3,16.5,13.3c0.8,1.2,1.6,2.3,2.9,2.9c2.8-0.3,3.3,2.1,4.5,3.8c0.6,1.2,1.4,2.4,2,3.6
			c0.8,1.6,1.4,3.2,0,4.6c-1.4,1.4-3.1,0.9-4.6,0c-1.6-0.9-3.1-1.9-4.6-2.9c-0.6-0.4-1.1-0.8-1.6-1.3c-3.4-3.2-6.5-6.9-10.9-10.3
			c0.9,4.2,3.6,6.5,5.2,9.5c0.7,1.3,1.8,2.4,2.5,3.8c1.7,3.6,0.8,4.8-3.2,5.1c-5.2,0.4-9.8,3.1-14.7,4.7c-4.2,1.4-8.3,2.2-12.6,1
			c-6.2-1.8-12.9-2.2-18.7-5.7c-2.2-1.3-4.4-0.4-6.7,0.2c-2.3,0.6-4.4,0.6-4.5-2.6c0.9-4,4.8-5.6,7.1-9.3c-4.2,3.2-7.7,6.3-11.3,9.4
			C96.3,411.4,92.7,415.6,87.1,416.8z"/>
		<path fill="#FEFDFD" d="M175.4,374.5c-0.2,3.5,1.5,5.9,4,8.2c1,0.9,1.6,2.2,2.4,3.3c1.6,2.2,3,4.8,1.4,7.1c-1.5,2.1-3.9,0-5.9-0.1
			c-7-5.1-10.3-14.1-19.3-17c0.1-0.4,0.3-0.9,0.4-1.3C164.1,374.5,169.8,374.5,175.4,374.5z"/>
		<path fill="#C1BFBE" d="M122.1,370.8c-0.4-3,1.7-2.8,3.6-2.7c6.7-1.2,12.4-5,18.9-6.9c1.3-0.4,2.6-1.3,3.9-1.3
			c6.7,0.2,8.9-3.5,9.2-9.6c0.1-3.3,1.4-6.6,2-9.9c0.3-1.6,0.6-3.4,2.7-3.8c0.7,0.5,0.9,1.2,0.9,1.9c-0.3,2.9-0.7,5.8-1.4,8.6
			c-0.7,2-1,4.2-1.3,6.3c-0.4,1.2-0.5,2.4-0.5,3.6c0,3.6-2,5.3-5.3,5.7c-2.8,0.3-5.4,1-7.9,2.1c-2.3,1-1.1,2.9-1.1,4.4
			c-0.1,1.6,1,2.1,2.4,2.1c7.6-0.2,15.3,0.7,22.9-0.5c3.8-0.6,7.5-1.1,11.2-2c1.2-0.3,2.4-0.8,3.4,0.3c-1,2.5-3.8,2.3-5.6,3.5
			c-9.5,1.9-19.2,0.2-28.7,1.7c-1.6,0.3-3.3,0-5-0.2c-6-0.9-11.6-5.8-18.3-1.7C126.6,373.4,124.1,371.7,122.1,370.8z"/>
		<path fill="#C1C0C4" d="M87.1,416.8c4.3-3.1,8.6-6.1,12.9-9.2c1.6-1,2.8-0.9,3.2,1.2c-0.2,1.8-1.6,2.8-2.9,3.9
			c-4.3,3.1-7.8,7.2-12.6,9.7c-7.5,4.1-15,8.3-22.5,12.3c-2.8,1.5-5.6,2.5-8.7,2.5c-1.5,0-3.4,0.2-3.8-1.7c-0.4-1.9,1.6-1.8,2.7-2.4
			c0.4-0.2,0.9-0.3,1.2-0.5c2.1-0.4,4-1.2,5.5-2.8c0.4-0.7,1.1-0.9,1.9-0.9c2.5-1.2,5.2-1.9,7.4-3.6
			C76.3,421.5,82.3,420.2,87.1,416.8z"/>
		<path fill="#E4E3E8" d="M176.4,398.4c-1.3-1.1-1.9-3-3.7-3.7c0.3-1.1-1.5-2.5-0.2-3.2c2.3-1.2,3,1.8,4.8,2.3
			c0.4,0.9,1,1.5,1.8,1.8c0.9,1.1,1.9,2.2,0.4,3.5C178.3,400.1,177.3,399.2,176.4,398.4z"/>
		<path fill="#DDDCE1" d="M71.5,425.1c-1.9,2.3-4.4,3.6-7.4,3.6C66,426.3,68.9,426,71.5,425.1z"/>
		<path fill="#CECDCE" d="M192,439.8c-0.9,1.9-2.7,2.4-4.6,2.8c-3.3,1.5-6.7,2.8-10.3,3.6c-6.6,1.7-13.3,1.1-20,0.8
			c-9.4-0.5-18.7,0.8-27,5.7c-14.8,8.8-30.6,13.9-47.9,14.2c-5.7,0.1-10-2.1-12.2-7.2c-2.7-6.1-1.4-13.5,2.9-17.4
			c1.2-1.1,1.8-2.4,2.1-3.9c0.4-1.9,1.5-3.5,3.4-2.9c5.2,1.7,9.8-1.2,14.7-1.8c4.3-0.5,8.6-1.2,12.7,0.5c8.3,3.5,17.2,2.9,25.8,2.9
			c5,0,10.3-2.4,15.5-3.1c8-1.1,15.9-3.4,24-4.2c6.1-0.6,11.9,0.6,17.5,2.9C191.5,433.8,194,435.9,192,439.8z"/>
		<path fill="#D9D8D7" d="M192,439.8c0.3-5.3-3.6-6.2-7.4-7.3c-9.9-3.1-19.5-0.5-29.2,1.3c-5.2,1-10.4,2.6-15.8,2.4
			c-1.5-0.1-2.7,0.3-3.7,1.4c-0.9,0.9-2,1.6-3.3,1.3c-8.4-1.7-17.3,0.5-25.6-2.9c-4.9-2-9.8-1.1-15-0.7c-4.2,0.4-8.4,5.3-13.2,1.1
			c-1.4-1.2-2.8,0.4-2.7,2.4c0.1,2.5-0.2,4.4-3.4,4.9c-2.5,0.4-1.7,3.3-2.3,5c-2,5.9,1,13.8,6,16c3.8,1.7,8,1.2,11.8,0.6
			c10.2-1.5,20.6-2.8,29.9-7.9c3.4-1.9,7-3.5,10.5-5.4c9.8-5.5,20.2-7.2,31.4-6.1c5.7,0.6,11.6,1,17.3-0.7c0.6,1-0.4,1.3-0.9,1.8
			c-1.3-0.1-2.5,0.3-3.7,0.9c-5.3,1.5-10.6,2.3-16.2,2.3c-6.8,0-13.4,2.5-19.1,5.9c-8.9,5.3-18.7,7.6-28.4,10.4
			c-13.8,3.9-27.7,8-42,9.8c-1.5,0.2-3,0.4-4.6,0.4c-8.4-0.1-11.6-3.3-12-11.6c-0.1-1.8,0.6-3.3,1.9-4.5c4.4-4.3,2.4-9.5,1.6-14.3
			c-0.4-2.2-3.6-2.5-5.4-3.9c-2.4-0.4-4.2-1.8-4.4-4c-0.2-2.6,2.3-3.4,4.3-4.1c2.7-0.9,5.6-1.4,8.4-2c-0.7,1.4-2.9,1.1-3.3,3.3
			c3.9,1,7.3-0.1,10.8-1.8c8-3.9,15.4-9.1,23.8-12.5c0.7,2,1.8,3.7,4.1,3.8c6,0.3,11.6,2.9,17.7,2.4c2.6-0.2,5.1,0.3,7.7,1.1
			c10.5,2.9,21.2,2.5,31.7,0.4c10.1-2,20.1-3.7,30.4-2.3c5.3,0.7,9.9,3.1,14.2,6.1c1.9,1.3,2.3,3.2,0.9,5.2
			C194.2,439.1,193.3,439.8,192,439.8z"/>
		<path fill="#ECEBF0" d="M176.4,398.4c2.8,0.9,3.7,0,2.8-2.8c3.3,2,6.2,1.9,8.9-1.1c1.1-1.2,2.3-1.9,4.1-1.6
			c0.6,0.1,1.6,0.3,1.7,0.1c1.9-3.9,7.2-5,8.4-9c1.3-4.2,4.1-5.5,7.7-5.7c2-0.1,3.4,1.7,3.9,3.4c1.1,3.7-0.9,6.7-3.7,8.7
			c-2.4,1.7-5.3,2.7-3.7,6.5c0,0.1,0,0.4-0.2,0.4c-5.4,3.2-2.6,8.6-3.4,13c-0.7,3.7-3.1,6.6-5.8,9.1c-4.8,4.4-5.1,5.5-0.5,10.5
			c2.4,2.6,2.5,4.7,0.1,7.1c-3.9-6.1-8.4-11.8-10.2-19c-0.2-0.7-1-1.1-1.6-1.6c-4.4-3.3-11.7-1.8-14.3,3.5c-1.8,3.6-4.5,4.6-7.8,4
			c-3.3-0.7-6.3,0.1-9.4,1c-8.8,2.5-17.4,3.2-26.5,0.3c-8.1-2.6-16.7-3.7-25-5.5c-2.1-0.5-5.3,0-5.7-2.8c-0.4-2.2,2.4-3.2,3.9-4.7
			c0.6-1.2,1.5-2.1,2.7-2.7c0.9-0.6,1.1-2.5,2.9-1.8c-0.1,2.2,0.7,3.3,3,2.2c3.8-1.7,6.9,0.2,10.5,1.1c9.1,2.3,18.1,8.1,28.1,3
			c3.7-1.9,8.3-1.6,11.5-5c0.3-0.3,1.4,0.3,2.1,0.3c1.3-0.1,2.9,1.3,3.9,0c1.3-1.7-0.5-3.2-1.2-4.5c-2.3-3.9-5-7.6-7.4-11.5
			c-0.5-0.7-1.1-1.7-0.3-2.5c1-1.1,2.1-0.1,2.8,0.5c3.8,3.3,7.5,6.7,10.6,10.7c-1.1,1.1-2.2-0.1-3.4,0c1.3,2.6,3.7,3.9,6.1,5.6
			c-0.1-1.9-2.6-2.7-1.8-4.7c1.7-0.1,2.7,1.4,4,2.1c1.4,0.8,2.8,2.5,4.5,1.1c1.7-1.5,0.1-3-0.7-4.4
			C177.1,400.7,176.8,399.5,176.4,398.4z"/>
		<path fill="#E4E3E8" d="M100,412.1c-3.7,5-3.7,5.1,2.8,6.5c7.8,1.7,16.1,2.2,23.5,5c7.2,2.7,14.1,2,21.3,1.5
			c1.4-0.1,2.7-0.4,4-0.9c3.8-1.3,7.3-3.2,11.8-1.5c1.9,0.7,5.7,0.7,5.8-3.6c0.1-1.7,1.2-2.9,2.9-3.2c2.1-0.4,3.7-1,5-2.8
			c0.9-1.3,2.6-1.4,3.7-0.6c3.1,2.3,7.2,2.8,8.2,8.2c0.7,3.9,1.9,8.8,6.4,11.2c2,1,1.1,3.3,1.2,5.1c-0.6,0.3-1.2,0.6-1.8,0.9
			c0.4-2.7-1-3.9-3.2-5.4c-7.4-5-15.6-5-24-5c-7.3,0-14.2,2.5-21.2,3.6c-4,0.6-8.3-0.2-12.3,0.5c-6.7,1.1-12.8-0.7-19-2.6
			c-1.6-0.5-3.3-0.4-5-0.3c-6.9,0.5-13.4-2.1-20.1-2.8c-3.1-0.3-3.9-2-1.9-4.6C92.2,418.5,95.5,414.5,100,412.1z"/>
		<path fill="#E9E7EC" d="M256.4,298.1c-4.5,8-7.2,17-14.9,22.9c-0.8,0.6-1.8,1.5-1.1,2.7c4.4,7.5,0.7,14.8-0.3,22.2
			c-0.4,2.9,0.6,6.2-2.5,8.4c-1.4,1.1-2.5,1.8-4.5,1.3c-4.7-1.1-6.6,0.4-8,5.4c-0.5,1.9-1.6,3.8-3.7,3.1c-2-0.7-2.8-2.5-1.9-4.9
			c1.2-3.2-1-10.5-3.3-12.5c-1-0.8-2-0.9-2.9-0.1c-1.9,1.5-4.3,1.4-6.4,2.1c-0.5-1.3,0.3-2.2,1.1-2.7c5.4-3.5,8.2-9.4,12.7-13.8
			c1.9-1.8,2.9-4.3,3.8-6.8c1.7-2.9,3.2-5.9,5.9-8c2.9-2.1,5.9-3.6,9.6-4c3.7-0.4,6.3-2.9,8.4-5.8c1.6-2.2,2.8-4.7,4.4-6.9
			C253.5,299.3,254.2,297.6,256.4,298.1z"/>
		<path fill="#949090" d="M159.7,353.3c0-2.2,0.4-4.4,1.2-6.4c1.8,0.3,2.5,2.5,4.5,2.4c1,0.4,1.5,1.5,2.7,1.7
			c2.6-12.3,5.6-24.6,7.9-36.9c1.2-1.1,2.3-0.4,3.3,0.2c0.8,0.7,1.3,1.5,1.1,2.6c-2.7,8.3-4.4,16.9-6.6,25.3c-1,3.7,1.2,7.4,0,11.3
			c-0.4,1.3,1.6,1.6,2.8,1.3c3.4-0.9,6.6-2.3,9.6-4.3c1.1-0.7,1.6-1.9,1.7-3.2c0.2-6.9,1.5-13.7,1-20.6c-0.1-2.1-0.7-3.9-2.7-5
			c-1.2-0.7-2.4-1.4-2.8-2.9c1.2-2,3.1-1.8,5-1.5c1.4,0.3,2.4,1.4,3.5,2.2c1.9,1.1,3.8,2.3,5.7,3.5c1.4,0.9,2.9,1.8,1.7,3.9
			c-1.4,0.2-2.4,0.5-2.6,2.4c-0.4,3.6-1,7.2-0.9,10.9c0.1,2.4,0,4.9-1.7,6.9c-2,2.3-0.3,2.8,1.6,3.1c1.4,0.3,2.6-0.6,4-0.8
			c2.3-0.2,3.8,0.2,2.2,2.9c-1.9,2.7-4,5.3-5.8,8.1c-2.6,4.1-5.3,8-10.6,8.7c-4.8,1.6-9.7,2.7-14.8,2.7c-5,1-10,0.2-15,0.4
			c-1.2,0.1-2.6,0.3-2.9-1.4c-0.3-1.7,0.9-2.5,2.2-2.9c2.9-1,5.9-1.7,8.2-3.9c2.1-2,1.7-3.3-0.9-4.3c-0.9-0.5-1.4-1.2-0.5-2.1
			c3.6-3.3,0.2-3.2-1.8-3.9C160,353.6,159.9,353.5,159.7,353.3z"/>
		<path fill="#D4D3D8" d="M256.4,298.1c-3.4,2.2-4.6,6-6.7,9.1c-2.9,4.3-6.3,7.3-11.8,7.5c-2.8,0.1-5,2.2-7.3,3.6
			c-1.3-3.4,2.4-4.4,3.2-6.8c3-3.6,7.5-5.1,11.3-7.4c4.1-2.5,7.2-5.5,9-9.9c1.2-3,2.5-5.9,5-8c0.6-0.3,1.2-0.7,1.8-1
			c1.5,2.5-1,3.8-1.8,5.5C258.2,293.2,256.2,295.2,256.4,298.1z"/>
		<path fill="#DCD7D4" d="M225.1,325.7c-3.2,8.3-9.4,14.2-15.5,20.2c-1,0.9-2.2,1.6-2.8,2.9c-0.6,0.3-1.2,0.6-1.8,0.9
			c-1.1-0.4-2.2-0.9-3-1.9c0-1.5,1.4-1.8,2.3-2.5c2.6-1.9,4.7-4.2,5.1-7.6c0.9-0.5,1.7,0,2.4,0.3c2.9,0.7,2-1.6,2-2.8
			c0-3.8,1.7-6.7,4.4-9.1C220.5,323.9,222.7,323.5,225.1,325.7z"/>
		<path fill="#C1BEBD" d="M202.1,347.8c1.3,0,2.7,0,2.8,1.9c-0.8,1.1-1.4,2.3-2.9,2.6c0.3-2.3-0.6-2.8-2.6-1.7
			c-1.7,0.9-3.5,1.2-5.3,0.6c-2.5-0.9-5.3-1.9-1.1-4.5c1.4-0.9,1.7-2.5,1.6-4.1c-0.2-4.9,0.7-9.7,0.9-14.5c0.2-4.2,1.8-2.7,3.7-1.4
			c4.4,0.6,9,5.1,9.5,9.3c-2.3,1.2-3.8-0.2-5.2-1.6c-1.4-1.4-2.5-3.1-4.5-4.2c-2.2,5.3-0.7,11-2.2,16.3c-0.3,1.1,0.6,1.6,1.7,1.6
			C199.7,347.9,200.9,347.1,202.1,347.8z"/>
		<path fill="#E9E7EC" d="M259.2,290.8c0-2,2.4-3.3,1.8-5.5c0.9-2.2,1.8-4.3,2.7-6.5C263.9,283.4,262.9,287.6,259.2,290.8z"/>
		<path fill="#DEDDDB" d="M176.4,447.1c0.3-0.6,0.6-1.2,0.9-1.8c3.6,0,6.4-2.9,10.1-2.8c-0.3,0.9-1,1.5-1.8,1.8
			C182.5,445.3,179.4,446.2,176.4,447.1z"/>
		<path fill="#E9E7EC" d="M263.7,278.8c0.1-2.8-0.5-5.8,2.7-7.4C265.2,273.7,266.7,277.1,263.7,278.8z"/>
		<path fill="#FFFFFF" d="M162.6,336.8c-2.8,6-3.8,12.4-4.5,18.9c-0.3,2.7-0.7,3.9-3.7,4.4c-8.1,1.4-15.9,4.1-23.1,8.2
			c-1.8,1-3.8,1.1-5.6-0.2c-6.4-3.4-6.1-3.3-3.6-10.6c1.1-3.3,3.4-6.1,3.6-9.6c-0.6-1.3,0.1-2.4,0.8-3.4
			c7.5-10.6,14.5-21.6,22.9-31.6c1.4-1.7,2.4-3.6,3.4-5.5c1.1-2.2,2.8-3.2,5.2-2.7c0.4,0.1,0.9,0.2,1.3,0.4c2.9,2,6.5,2.6,9.2,4.8
			c0.3,0.4,0.4,0.8,0.5,1.3c-0.9,8.1-3,16-5,23.9C163.9,335.8,163.3,336.4,162.6,336.8z"/>
		<path fill="#CCCACA" d="M158.9,305.5c-2.5-0.4-3.8,0.5-5.4,2.8c-6.2,9.2-13,18-19.4,27.1c-2.9,4.1-5.6,8.3-8.3,12.4
			c-1.8,1.5-2.3,4.2-5.4,6c3.3-10.3,9-18,14.7-25.8c4.8-6.5,9.7-12.9,14.5-19.4c2-2.7,3.6-5.6,4.8-8.7
			C155.4,302.1,158.2,303,158.9,305.5z"/>
		<path fill="#F0D3CC" d="M158.9,289.8c0.5-3.8,3-6.8,4.4-10.2c3-7.4,1.5-14.4-2.6-21c0.8-0.9,1.8-1,2.9-0.8c3.5,1.2,5,4,5.4,7.4
			c0.7,5.8,0.9,11.6-2.6,16.8c-0.6,1-1.4,1.9-2.2,2.8C162.1,286,162.4,290,158.9,289.8z"/>
		<path fill="#C7B6B3" d="M163.4,258.5c-0.9,0-1.8,0-2.7,0.1c-3.6,1.4-4,4-2.7,7.2c0,0-0.2,0.2-0.2,0.2c-0.4,0.2-0.8,0.2-1.3,0
			c-2.3-1.9-2.5-4.2-2-6.9c0.7-3.2-0.2-5.6-3.5-6.9c-1.4-0.7-3.2-0.9-3.7-2.7c0-0.5,0.1-0.9,0.4-1.3c4.6-1.1,7.7,2.8,11.6,3.8
			C161.9,253.6,164.8,254.7,163.4,258.5z"/>
		<path fill="#C1A6A2" d="M158.9,289.8c2.6-1,2.1-4.5,4.6-5.5c0.5,0.5,0.8,1.1,0.8,1.8c0.1,1.3-0.4,2.6-0.8,3.8
			c-0.5,1.3-1.4,2.5-2.1,3.7c-0.7,1-1.4,1.9-1.9,2.9c-0.6,1.2-1.3,2.4-1.7,3.6c-0.7,1.7,0.7,2.3,1.7,3c0.7,0.7,1,1.4,0.5,2.3
			c-0.4,0.3-0.8,0.3-1.1,0c0,0,0,0,0,0c-1.9-1.5-5.1-2.1-4.6-5.6C156.1,296.7,158.1,293.5,158.9,289.8z"/>
		<path fill="#FDF1E9" d="M124.8,230.9c7.3-0.6,13.5-4.3,20.3-6.3c14.6-4.3,27.4-13,42.2-16.7c6.8-1.7,13.9-3,20.3-6.3c0,0,0,0,0,0
			c3.1-1,6-2.7,9.3-3.2c1.1-0.1,1.9-1,3-1c2.2,0,3.1,1.1,2.2,3.2c-0.3,0.7-0.8,1.4-1.4,1.7c-6.3,3.6-12.4,7.9-19.6,9.6
			c-4.5,1.1-8.7,2.4-12.8,4.8c-6.1,3.6-13,5.2-19.8,7c-13.1,3.5-26.1,7.5-38.9,11.9c-3.6,1.5-7.3,2.8-11.2,3.5
			c-2.5,0.4-4.9,0.3-3.8-3.4c1.6-2.7,4.8-2.5,6.9-4.2C122.6,231,123.6,230.4,124.8,230.9z"/>
		<path fill="#9E635E" d="M124.8,230.9c-0.9,0.4-1.8,0.8-2.7,1.1c-1.1,0.5-2.2,1-3.4,0.3c-1.1-2.3,0.9-2.5,2.2-3.1
			c2.2-1,4.5-1.8,6.8-2.7c-8.4,3.7-17.7,5.2-25.9,9.6c-1.1,0.6-2.4,0.7-3.6,0.6c-3.2-0.5-5.1,1.1-6.6,3.6c-0.3,0-0.5-0.1-0.7-0.3
			c-0.6-3.2-0.2-5.5,3.8-6.2c19.5-3.9,38-11.4,56.9-17.3c2.2-0.7,5.6-2.7,6.5-0.3c0.9,2.4-3.1,3-5.2,3.8
			C143.4,223.5,133.7,226.1,124.8,230.9z"/>
		<path fill="#DEDDDB" d="M48.5,442.5c2.1-0.1,3.9,0.8,5.7,1.5c0.8,0.3,2.3,0.9,2,1.6c-1.8,4.2,1.6,8.6-0.4,12.7
			c-0.3,0.7-0.5,1.6-1,1.9c-3.6,1.9-4.4,4.4-2.2,7.9c1.2,1.9-0.7,5.2,2.1,6.1c3.4,1.1,7.1,1.8,10.8,1.2c18-2.9,35.5-8.1,53-12.9
			c8.2-2.3,15.1-6.8,22.9-9.6c6.5-2.3,12.8-4.7,19.9-3.9c3.7,0.4,7.5-0.7,11.3-1.1c-3.7,1.5-7.4,3.1-11,4.6
			c-19.3,7.1-39,12.8-58.7,18.2c-13.2,3.6-26.2,7.9-39.3,11.6c-5.2,1.5-10.8,2.6-15.9,5.2c-3.9,2-7-1.1-10.1-2.6
			c-2.4-1.2-2.5-3.8-2.7-6.7c-0.3-4.2,1.8-6.9,3.5-10.1c2.1,0,3.1-1.8,4.4-3c2.9-2.9-0.7-3.2-2-4.4c2.8-2.7,3.9-7,8.9-6.9
			c1.4,0,1.9-2.6,1.6-4.3C50.7,447.2,50.3,444.6,48.5,442.5z"/>
		<path fill="#A1A0A5" d="M157,266c0.3,0,0.6,0,0.9,0c0.3,6.1,0.6,12.1-4.4,17.1c-4.3,4.2-6.5,5.4-12.1,3.1
			c-6.3-2.7-12.8-1.3-19.3-1.9c-1.3-0.1-2.5,0.1-2.6-1.7c1.3-1.9,2.6-3.7,2.7-6.1c0.1-1.7-0.7-1.7-2-1.3c-0.8-1-0.3-1.9,0.2-2.8
			c0.4-0.7,0.9-1.3,1.5-1.9c0.3-0.2,0.7-0.2,1.1-0.1c0.6,0.9,1.9,0.8,2.4,1.8c0.1,0.6,0,1.2-0.1,1.8c-0.4,1.1-0.4,1.8,1.1,1.5
			c2.2-0.5,4.3,0,6,1.4c3.3,2.7,7.4,3.5,11.3,4.9c5.2,2,11.1-0.5,10.5-7.2C153.8,271.3,154.8,268.4,157,266z"/>
		<path fill="#4A211D" d="M266.6,198.7c0.2,0.3,0.2,0.5,0,0.8c0.7,1.8,0.4,3.6,0.3,5.4c-0.2,6-2.4,7.9-8.3,7.2
			c-2.8-0.3-3.3-2.4-3.4-4.6c-0.2-3.7,0.2-7.4-1.2-10.9c-0.8-1.2-1.4-2.5-1.9-3.8c-0.2-0.4-0.4-0.9-0.6-1.3c-0.6-1.8-1.3-3.8,0.6-5
			c2.4-1.4,5.3-1.8,7.8-0.3c3,1.7,5.2,4,5.8,7.7C265.9,195.5,265.5,197.3,266.6,198.7z"/>
		<path fill="#652019" d="M254.5,195.1c2.6,3.9,1.7,8.4,1.9,12.7c0.1,2.2-0.2,4.2,3.5,2.8c6.2-2.3,6.3-1.9,6.6-11.1
			c1.2,2.7,1.1,5.6,0.7,8.5c-1,8.6-1.2,17.2-2.9,25.7c-0.5,1-1,1.9-1.5,2.9c-0.4,0.2-0.8,0.2-1.2,0c-0.9-3.1,1.2-5.9,1.3-8.9
			c0-1.6,0.7-3.2,0.2-5c-4.4,1.8-8.2,10.5-6.5,14.4c0.5,1.1,1.2,1.2,2.2,1.1c1-0.1,2.2-0.8,2.6,0.9c-0.7,2.4-2.7,4-3.9,6.1
			c-0.7,1.2-1.9,2.1-3.5,1.6c-1.6-0.5-1.7-1.9-1.7-3.3c0-7.2,0.9-14.3,2.9-21.2c0.3-1.2,1.1-2.4,0.6-3.5c-2.7-5.6-0.8-11.8-2.3-17.6
			C253.1,199.2,252.9,196.9,254.5,195.1z"/>
		<path fill="#6E3523" d="M266.6,198.7c-2.1-3.4-1.8-7.8-5.4-10.6c-2.8-2.2-5.6-1.8-8.1-1c-2.8,0.9-0.2,3.3-0.3,5.1
			c-2.5,0.4-3.1-1.5-3.4-3.2c-0.4-1.8,0.6-3.2,2.1-4.2c1.6-1.1,3.5-0.9,5.4-1.4c-1.9-2.2-1.3-4,0.8-5.5c1.8-1.4,3.6-1.5,5.2,0.4
			C263,185.3,267.3,191.5,266.6,198.7z"/>
		<path fill="#BE786A" d="M262.9,178.3c-2.2-1.1-4.1-1-5.7,1.1c-1.6,2.1,0.2,3.3,1.6,4.5c-2.7,2.5-7.7-0.6-8.7,4.1
			c-0.4,1.7,0.7,3.5,2.6,4.4c0,0-0.1,0.1-0.1,0.1c0.8,0.9,0.4,2,0.5,3c-0.2,0.4-0.5,0.6-0.9,0.8c-1.3-0.2-1.3-1.4-1.9-2.2
			c-0.2-0.3-0.5-0.6-0.7-1c-0.8-0.9-1.5-1.9-2.4-2.7c-2.3-2.2-1.7-3.9,0.9-5.3c3.4-1.1,6.2-2.8,7.2-6.5
			C260.6,175.1,260.7,175.1,262.9,178.3z"/>
		<path fill="#F6B3A9" d="M163.4,258.5c-0.2-2.9-2.1-4.5-4.5-5.5c-1.7-2.7-4.2-4.4-6.8-6.1c-1.5-1-3.6-1.8-2.9-4.1
			c0.6-2.3,2.8-2.6,4.8-2.8c7.3-0.6,14.6-1.6,21.6-3.9c7.9-2.5,15.6-5.5,22.5-10.1c5-3.3,10.6-5.4,16.1-7.8
			c6.5-2.8,12.5-6.2,17.4-11.6c5.5-6.1,5.9-8.5,1.7-15.3c1.5-3.4,4.6-2.7,7.4-2.7c1.2,1,1.5,2.6,2.4,3.9c4.2,5.5,4.2,10.6-0.4,16.1
			c-4.3,5.1-9.3,9.7-13.5,15c-1.5,1.8-2.9,3.5-3.5,5.8c-0.3,1.3-0.7,2.7-1.5,3.8c-3.7,5.1-6,10.4-4.6,17c0.6,3-1.5,5.5-3.3,7.8
			c-9.8,12.4-22.9,18.1-38.5,18.1c-4,0-6.8,0.7-8.9,4.2c-0.7,1.2-1.7,2.7-3.6,2.1c2.3-4.8,3.3-9.7,2.8-15
			C167.8,263.7,167,260.5,163.4,258.5z"/>
		<path fill="#FACDC3" d="M233.4,191.4c4.5,2.4,5.8,6.5,3.1,11c-4.9,7.9-12.2,13-20.6,16.6c-5.5,2.3-11.1,4.3-16.2,7.5
			c-13.8,8.9-28.8,13.7-45.2,14.6c-1.8,0.1-4.1,0-4.6,2.1c-0.4,1.9,2,1.9,3.1,2.8c2.3,2,6,2.9,5.9,7c-3.8-1.2-7-4.2-11.2-4.5
			c-2.7,1.5-4.7-0.2-7-1.2c-6.1-4-13.1-3.6-19.8-3.7c-3.1,0-6.1-0.4-8.8-1.8c-1.9-1-3.3-2.3-1.8-4.7c1.5-1.4,2.9-3,5.3-1.7
			c-1.2,2.4-0.2,3.1,2.1,2.5c3.9-1.1,7.8-2.3,11.7-3.4c0.4-0.3,0.8-0.5,1.3-0.4c10.5,3,19.9-1.1,29.3-4.5c8.7-3.1,17.7-4.6,26.5-7.2
			c9.1-2.7,16.8-8,24.5-13.1c3.8-2.5,7.2-5.7,11.6-7.2c0.6-0.2,1.1-0.5,1.6-0.9c4.1-2.6,4.1-3.9-0.1-6.3
			C227.3,193.8,230.3,192.6,233.4,191.4z"/>
		<path fill="#ECA295" d="M165.3,282.4c4.1-6.4,9.9-7.3,17.2-7.7c13.9-0.7,25.6-7.1,33.9-18.9c2.2-3.1,2.9-6.3,1.8-9.5
			c-1.2-3.8,0.3-6.5,2.2-9.4c0.7-1.1,1.9-2.1,2.3-3.4c3.1-9.8,10.2-16.5,17.1-23.4c2.4-2.4,4.2-5.1,5-8.5c0.8-3.2,0.6-5.7-2.1-7.8
			c-1.8-1.3-2.3-3.1-2.1-5.3c0.9-0.3,1.8-0.6,2.7-0.9c1.5,3.2,4.5,4.3,7.4,5.5l0,0c0.7,1.6,0.7,3.3-0.1,4.8
			c-1.6,2.9-1.6,6.3-2.9,9.1c-3.8,8.3-4.8,18.2-12.7,24.4c-2.1,1.7-2.4,4-2,6.7c0.9,6.7-0.7,12.7-5.8,17.5c-3.2,2.9-5.9,6.3-8.5,9.6
			c-9.5,12-22.3,16.4-36.9,17.2c-2.5,0.1-4.8-0.7-7.3-0.7c-2.3,0-4.6,0.2-6.4,1.9c-1.5,0.9-2.4,2.9-4.7,2.5c0-0.6,0-1.3,0-1.9
			C163.8,283.4,164.5,282.8,165.3,282.4z"/>
		<path fill="#FCE3D9" d="M224.2,195.1c1.8,0.5,4.4-1.2,5.3,1.3c0.9,2.7-1.6,4.5-3.5,5.3c-11.3,5.2-20.2,14.2-31.6,19.2
			c-6.1,2.7-12.6,4.4-19.2,5.6c-6.4,1.2-12.5,3.7-18.7,5.7c-4.2,1.3-8.4,2.7-12.7,3.9c-5,1.5-9.6-0.6-14.4-1.5
			c7-3.3,14.7-4.7,21.9-7.4c13.2-4.8,27.7-5.8,39.8-13.8c1.4-0.9,3.1-1.5,4.7-1.7c8.5-0.7,15.1-6,22.6-9.3c0.5-0.2,1.1-0.6,1.5-1
			c0.7-0.8,2.4-1.4,1.5-2.9c-0.7-1.1-1.9-0.7-2.9-0.3c-0.6,0.2-1.2,0.3-1.8,0.4c-0.3-0.2-0.4-0.4-0.3-0.6c0.1-0.2,0.2-0.3,0.3-0.3
			C219.1,196.6,221.6,195.6,224.2,195.1z"/>
		<path fill="#DD9386" d="M250.9,193.2c-3.9,0.1-7.7,0.1-7.4-5.5c1-1.8,2.7-2.5,4.6-2.7c-1.4,1.8-2.5,3.4,0.4,5
			C249.5,190.7,250.1,192.1,250.9,193.2z"/>
		<path fill="#EECCC7" d="M216.8,197.8c0,0.3,0,0.6,0,0.9c-3.2,0.6-5.8,2.9-9.2,2.7c1.2-1.5,3.1-1.8,4.6-2.7
			C213.8,198.5,215.3,198.1,216.8,197.8z"/>
		<path fill="#78726F" d="M260.1,254.9c1.6-2.2,4.4-1.5,6.4-2.9c2.7,0.1,2.5,1.7,2.3,3.7c-0.4,4.6-3,8.2-4.9,12.1
			c-2.8,5.6-4.7,11.5-7,17.3c-1.8,1.9-3.8,3.5-6.2,4.6c-1.7,0.8-3.5,1.4-5.1-0.2c-1.6-1.6-0.9-3.3,0-5c3.3-5.8,6.4-11.7,8.8-18
			C256.5,262.8,256.7,258.1,260.1,254.9z"/>
		<path fill="#BCB8BA" d="M259.2,286.2c-3.1,5.4-4.1,12-9.3,15.9c-3.6,2.7-7.5,4.9-11.5,6.9c-1.6,0.8-2.6,2.1-4,2.9
			c-0.2-0.1-0.3-0.3-0.5-0.4c-0.3-0.6-0.4-1.2-0.2-1.9c0.3-1.1,1.1-1.8,1.9-2.6c2-4.9,5.4-8.3,10.5-10.1c4.6-1.6,7.6-5,9.6-9.3
			c0.9-1.2,1.4-3,3.5-2.6C259.2,285.5,259.2,285.9,259.2,286.2z"/>
		<path fill="#9A9694" d="M259.1,285.2c-0.9,0.9-1.8,1.9-2.8,2.8c-0.5,0.5-1.1,0.6-1.8,0.2c-0.8-1.8,1-2.1,1.8-3
			c0.4-6.1,4-10.9,6-16.4c1.6-4.4,5.4-7.9,5.7-13c0.1-1.8,0.1-2.9-1.5-3.8c1.3-1.3,2.9-1.4,4.1-0.3c1.1,1-0.3,2.2-0.5,3.3
			c-1.5,6.4-5,12-7.5,18C261,277,260.3,281.2,259.1,285.2z"/>
		<path fill="#C0A19B" d="M260.1,254.9c-1.5,4-3.1,7.9-4.6,11.9c-0.8,1.1-1.7,1.7-2.4-0.1c-0.1-0.4,0-0.9,0-1.3
			c0.6-2.1,0.7-4.3,2.4-6c1.2-1.5,2.4-3.1,3.6-4.6C259.4,254.9,259.8,254.9,260.1,254.9z"/>
		<path fill="#954C44" d="M252.8,196c0-1.2-0.1-2.4-0.1-3.6c1.4,0.4,0.8,2.1,1.8,2.7c1.2,7.8-0.2,15.8,2.7,23.4
			c0.3,0.9,0,2.1-0.3,3.1c-2.6,7.2-3.1,14.8-3.4,22.4c0,1-0.3,1.9,0.8,2.3c0.8,0.3,1.6-0.3,1.9-0.9c1.3-2.6,4.4-3.9,4.8-7
			c-0.4-1,0.1-1.5,1-1.8c0.3,0,0.6,0,1,0.1c-1.2,7.1-7.2,11.3-10.2,17.4c-2.5,3.5-3.4,7.7-5.4,11.7c2.1,0.4,2.7-1.3,3.8-1.6
			c1.7-0.6,3.1-0.8,2.4,1.8l-0.1,0.1c-0.9,2.6,0,5.9-3.1,7.6c-1.5-0.6-2.9-0.9-4,0.6c-3.9,1.8-4.3,1.5-5.1-4.4
			c-3.2,2.1-4.6,5-5.2,8.2c-0.8,4-2.4,7.5-5.2,10.5c-0.7,0.6-1.5,1.1-2.4,0.5c1.2-9,2.4-18,10.5-24c1.7-1.3,3.5-2.4,4.3-4.6
			c0.9-2.6,3-4.4,4-7c1.9-2.8,2.3-6.1,2.8-9.3c0.6-6.4,2.1-12.6,2.9-18.9c0.4-3.5,0.4-7-0.2-10.5c-1-5.9-0.6-11.9-0.3-17.8
			C252.6,196.5,252.7,196.2,252.8,196z"/>
		<path fill="#C27970" d="M253.6,265.8c-1.4-3.6-2.4-0.3-3.4,0.3c-1.1,0.6-1.8,2.8-3.2,2c-1.7-1.1-0.8-3.1,0-4.5
			c1.8-3.2,2.6-7.1,5.7-9.6c-0.1,0.7-0.1,1.5-0.3,2.2c-0.6,1.4-2.4,2.9-1.1,4.3c1.4,1.5,2.5-1.6,4.2-1
			C255.2,261.7,255,263.9,253.6,265.8z"/>
		<path fill="#813E30" d="M121.2,272.1c-0.3,1-0.7,1.9-1,2.9c-0.8,0.5-1.5,0.9-2.3,1.4c-1-2.6-4.9-2.7-5-5.9c0.6-0.3,1.2-0.1,1.8,0
			c1.3,0.2,2.5,2.7,3.9,0.6c1.1-1.6,0.1-3.3-0.9-4.6c-2.7-3.5-6.2-6.3-9-9.8c-3.1-4-6-8-7.6-13.7c-2.6,3.7-1,6.3-0.2,9
			c0.6,1.9,2.7,3.6,1,5.9c-4.6-5.2-7.2-11.5-10.2-17.6c-0.4-3.8,1.2-5.1,5-4.8c7,0.4,12.4-4.6,18.9-5.9c5.1-1.1,10.1-3.2,15.2-4.4
			c-3.2,4-8.8,3.6-12.3,6.9c-0.7,1.9-2.6,2-4,2.7c-3.3,1.6-6.8,2.9-8.9,6.2c-0.9,2.9,0.3,5.3,1.9,7.6c3.2,4.7,7,8.8,11,12.7
			C121.5,264.2,123.2,267.7,121.2,272.1z"/>
		<path fill="#3A1513" d="M101.8,257.9c0-3-2.2-5.2-3-8c-0.5-2-0.7-3.9-0.4-5.8c0.2-1.2,1-1.8,2.2-2c1-0.1,1.8,0.2,2.1,1.3
			c1.7,8.6,8,14,13.6,20c0.9,1,2,1.9,2.7,3c1.3,2,2.1,4.3,0.3,6.3c-2.2,2.4-3.2-0.9-4.9-1.3c-0.5-0.1-1-0.6-1.5-1
			c-2.1-1.9-4.2-3.7-6.3-5.6C105.3,262.3,102.3,261,101.8,257.9z"/>
		<path fill="#E4E3E8" d="M105.5,407.6c-1,0.6-1.9,1.2-2.9,1.8c0-2-1.4-1.7-2.6-1.8c3.2-4,7.8-6.5,11.5-10.1
			c0.5-0.5,1.2-1.1,1.9-0.3c0.7,0.9,0.2,1.7-0.5,2.4C110.5,402.3,108,404.9,105.5,407.6z"/>
		<path fill="#E4E3E8" d="M169.9,403c0.9,2.2,3.9,3.2,4,6.5c-4.3-1.1-7.2-3.7-9.6-7.1c-0.5-0.8-1.2-1.7-0.4-2.4
			c0.9-0.9,1.6,0.2,2.3,0.7c0.8,0.7,1.6,1.4,2.8,1.4C169.3,402.4,169.6,402.7,169.9,403z"/>
		<path fill="#A8A4A3" d="M161.7,358.8c1.9,0.2,4.3-0.9,5.2,1.6c0.8,2.4-1.6,3.4-2.9,4.7c-2.2,2.2-5.2,3-8.1,3.7
			c-1,0.2-2.4,0.1-2.2,1.7c0.2,1.4,1.6,1.2,2.6,1.2c4.9,0,9.7,0,14.6,0c-3,1.8-6.2,0.8-9.3,0.9c-4.9,0.2-9.8,0-14.6,0
			c-2.1,0-4.3,0.1-2.6-3.1c0.3-0.5,0.6-1.5,0.4-1.7c-4.9-4,0.8-3.2,2-4.2c1-0.8,2.5-1.5,3.8-1.4c6.3,0.3,9.3-2.7,9.3-8.9
			c0,0,0.2-0.1,0.2-0.1C161.6,354.8,160.1,357.3,161.7,358.8z"/>
		<path fill="#8B8785" d="M164.4,349.6c-3.5,2.2-2.2-2.1-3.6-2.7c0.9-2.7,0.3-5.7,1.8-8.2c2.6-8.2,3.5-16.9,5.9-25.2
			c0.3-0.9,0.3-1.8,1.5-1.9c3.5,1.6,3.2,4.6,2.5,7.4c-2.5,9.9-4.4,19.9-7.4,29.6C165,349,164.7,349.3,164.4,349.6z"/>
		<path fill="#A8A4A3" d="M169.9,311.9c-3.1,7.3-3.3,15.2-5.5,22.7c-0.4,1.5-0.6,2.9-1.8,4.1c0-0.6-0.1-1.3-0.1-1.9
			c2.1-8.8,4.3-17.7,5.5-26.7c0.6-0.5,1.3-0.5,2-0.1C170.5,310.6,170.5,311.3,169.9,311.9z"/>
		<path fill="#E4E3E8" d="M198.4,407.5c0.3,1.9-0.3,3.6-0.9,5.3c-1.2,3.3-3.4,3.6-6.1,1.7c-3.5-2.5-4.1-11.8-0.9-14.6
			c2.4-2.1,4.6-0.9,6.3,1C198.5,402.8,198.6,405.1,198.4,407.5z"/>
		<path fill="#BCB8BA" d="M225.1,325.7c-5.7-0.8-9.9,2.9-10.1,8.8c0,1.2,0.2,2.5-0.1,3.6c-0.7,2.6-2,2.9-3.6,0.5
			c1.3-1.8,1.9-3.8,1.6-6c-0.7-5.8,2-9.5,7.4-10.9c3.9-1.1,6.6-3.3,8.9-6.5c1.2-1.6,2.5-3.6,5-3.4c0,0,0.3,0.2,0.3,0.2
			c-0.3,2.7-3.7,3.5-3.8,6.3C228.1,320.3,227,323.3,225.1,325.7z"/>
		<path fill="#F1F0F4" d="M223.9,340.4c-0.2,1.1-0.9,1.8-1.9,1.5c-1.6-0.5-2.5-1.7-2.4-3.5c0-0.8,0.4-1.5,1.4-1.2
			C222.7,337.6,223.6,338.7,223.9,340.4z"/>
		<path fill="#868384" d="M183.7,318.3c10,4.5,5.9,13.2,6.1,20.6c0,1.9-0.4,3.9-0.6,5.9c-0.2,2.3,1.2,5.2-1.8,6.6
			c-4.3,2.1-8.4,5.2-13.5,4.9c-2.3-0.2-3-2.7-1.6-4.7c1.3-1.8,1.3-3.4,0.1-5c-2.1-3.1,0.6-5.5,1.1-8.2c1.3-6.7,3.1-13.3,4.6-19.9
			c0.2-1,0.9-1.6,1.8-2C182.1,315.4,183,316.7,183.7,318.3z"/>
		<path fill="#9C9899" d="M169.9,311.9c0-0.6,0-1.1,0-1.7c2.7,0.2,5.8-0.3,6.5,3.5c-0.6,9.4-2.6,18.5-5.2,27.6
			c-0.9,3.1-1.4,6.2-1.4,9.4c0,1.1,0.6,2.7-1,3.1c-1.1,0.2-1.8-0.9-2.4-1.9c-0.5-0.9-1-1.9-2.1-2.3c-1-5.7,2.4-10.5,3.6-15.7
			c0.4-1.7,1-3.4,1-5.3c0-2.6,0.2-5,1.5-7.4C172.1,318.3,172.9,314.8,169.9,311.9z"/>
		<path fill="#482724" d="M208.6,335.8c-2.4-3.7-5.5-6.8-9.3-9.2c-1.2-4.1-5.8-3.9-8.2-6.5c0.6-3.1,0.6-3.1,5.6-1.9
			c0.4,0.1,0.9,0.3,1.3,0.6c2.7,1.8,5.9,2.3,8.7,3.6c3.3,1.5,5,3.6,5.5,7c0.2,0.4,0.3,0.9,0.4,1.3c1,5.5,0.6,6.1-3.8,6.3
			C208.3,336.7,208.2,336.3,208.6,335.8z"/>
		<path fill="#B38583" d="M183.7,318.3c-1.2-0.6-2-2-3.6-1.9c-0.3-0.6-0.7-1.2-1-1.8c-0.5-0.7-0.5-1.4,0-2.1
			c3.3-1.2,6.8,0.6,10.1-0.7c8.5,1.4,16-1.9,23.6-4.8c1.8-0.7,3.6-1.7,5.7-1c1,0.9,0.4,1.7-0.1,2.5c-6.5,4-13.8,5.8-20.3,7.4
			c3.7,2.3,7.9,2.9,11.9-1.3c0.8-0.9,2.2-0.9,3.4,0c0.2,0.5,0.2,0.9,0,1.4c-6,6.1-9.1,6.7-15.7,3.3l0,0c-2.9-1.3-5.9-2.2-9.1-1
			C186.8,317.4,185.3,318.6,183.7,318.3z"/>
		<path fill="#8B8785" d="M161.7,358.8c-1,0.9-1.7,0.6-1.8-0.6c-0.1-1.6,0-3.3,0-4.9c2.6-1.5,4.9,0,5.5,2
			C166.3,357.8,162.7,357.3,161.7,358.8z"/>
		<path fill="#868384" d="M179.1,313.2c0,0.5,0,1,0,1.5c-0.9-0.3-1.8-0.6-2.7-0.9c-1.4-2.6-4.8-1.5-6.5-3.5c-0.6,0-1.2-0.1-1.8-0.1
			c0,0-0.1,0.1-0.1,0.1c-0.3-0.5-0.2-0.9,0.2-1.3c3.1-1.6,5.4,0.9,8.1,1.4C177.4,311,178.7,311.6,179.1,313.2z"/>
		<path fill="#7B564F" d="M188.4,318.3c3.4-3,6.2-0.4,9.1,1c-2,1.1-4.8-3.1-6.4,0.9C190.1,319.6,189.9,318.1,188.4,318.3z"/>
		<path fill="#FEFDFD" d="M208.6,335.8c0.1,0.2,0.2,0.5,0.3,0.8c0,0.5,0.7,0.7,0.5,1.3c2.1,4.8-2.7,5.9-4.6,8.5
			c-0.6,0.8-2.1,0.4-2.6,1.5c-1.4,0.6-2.7,1.5-4.2,1.7c-1.6,0.3-3.4-0.3-2.7-2.4c2.2-6.1,0.5-12.7,2.7-18.7
			C203,328.7,203.3,335.7,208.6,335.8z"/>
		<path fill="#A08481" d="M209.4,337.8c-0.5-0.3-0.8-0.7-0.5-1.3c5.9,0,2.2-4,2.6-6.2c-0.5-4.5,1.6-8,5.4-9.6
			c5.6-2.4,10.5-5.5,14.8-9.8c0.6-0.6,1.5-1.1,2.5-0.8c0,0.6,0,1.2,0,1.8c-2.2,1.9-4.5,3.7-5.8,6.4c-1.9,3.9-6,3.8-9.2,5.2
			c-3.8,1.7-5.2,4-5.2,8.1c0,2.5,1.7,6.1-2.7,7.2C210.7,338.4,210,338.1,209.4,337.8z"/>
		<path fill="#CCCACA" d="M168.2,309c-0.1,0.4-0.2,0.7-0.2,1.1c-3.1-1.5-6.7-1.7-9.1-4.6c0.4-0.1,0.7-0.1,1.1-0.2
			C163.6,304.6,166.5,305.4,168.2,309z"/>
		<path fill="#615550" d="M124.8,273.2c0-0.6,0-1.2,0-1.8c0.8-6.6,4.6-12,6.8-18.1c4.6-6.7,5.3-6.9,16.1-3.8
			c1.3,0.6,2.6,1.1,3.9,1.7c0.8,0.6,1.5,1.2,1.7,2.2c-0.8,6.2-2.3,7.5-8.2,6.7c-1.2-0.2-2.5-0.1-3.6-0.4c-6.2-1.8-6.7-1-9.4,6
			c-1.2,3.1-2.4,6.2-4.3,9C126.2,275.5,124.5,276.6,124.8,273.2z"/>
		<path fill="#828182" d="M124.8,273.2c0.3,2.2,1.5,1.6,2.8,0.9c1-1.7,2.4-1.6,4-1.1c3.2,1,6.6,1.2,9.6,2.8c1.9,1,3.8,0.7,5.5-0.8
			c2.4-2.1,4.2-4.8,6.4-7.1c0.3-0.3,0.7-0.9,0.6-1.2c-2-4.5,0.1-9.2-1-13.7c-0.3-0.6-0.6-1.2-1-1.8c3.7,1,5.2,3.9,4.3,7.2
			c-0.9,3-0.1,5.2,1.1,7.6c-0.9,4-1.8,7.8-1.9,12c-0.1,4.2-6.5,7.1-11.4,5c-4.2-1.8-9.1-2.3-12.6-5.8c-1.3-1.3-3-1.3-4.7-0.9
			c-1,0.3-2,2.3-3,0.7C122.4,275.6,123.2,274.1,124.8,273.2z"/>
		<path fill="#B5918A" d="M147.7,249.5c-1.4-0.1-2.8,0.1-4.1-0.3c-5.2-1.8-8.8,0.3-11.5,4.7c-0.8-0.8-0.9-1.8-0.6-2.8
			c2.5-3.2,5-6.5,9.9-4.4c2.1,0.6,4.2,1.3,6.3,1.9C147.7,248.9,147.7,249.2,147.7,249.5z"/>
		<path fill="#D88E83" d="M163.5,286.2c1.2-0.9,2.4-1.9,3.6-2.8c2.1-1.6,4.4-2.2,6.9-1.7c4.7,0.9,9.5,0.2,14.1,0.7
			c9.6,1.1,16.9-3.1,23.6-9c3-2.6,5.7-5.5,8.2-8.6c3.3-4.2,6.6-8.3,11.2-11.3c3.4-2.2,5.4-5.9,5.5-10.2c0.1-4,1.3-7.5,3.3-10.8
			c2.2-3.7,3.4-7.8,4-12.1c0.7-4.6,3.1-8.6,4.6-12.9c0.4-1.2,1.3-2.1,2.6-2.4c0.8,0,1.4,0.5,1.7,1.2c0.3,0.9,0.2,1.9,0,2.8
			c-3.4,9-5,18.6-9.3,27.2c-1.2,2.4-1.1,5.1-0.3,7.6c1.2,3.8-0.2,6.5-3.2,8.8c-0.9,0.6-1.7,1.3-2.6,1.8c-10,5.1-15.1,14.9-22.1,22.9
			c-1.1,1.3-1.4,3-1.3,4.7c0.5,10.1-8.1,16.1-17.6,12.3c-1.5-0.6-2.5-1.8-3-3.2c-1-2.7-3-3.5-5.7-3.7c-4.3-0.3-8.5-0.8-12.7-1.4
			c-2.8-0.4-5.5-0.1-7.9,1.6c-1.5,0.9-2.4,2.9-4.6,2.4C162.9,288.6,163.2,287.4,163.5,286.2z"/>
		<path fill="#B66C65" d="M248.1,254c-0.3,2.7-3,3.9-3.7,6.4c-0.3,0.3-0.7,0.6-1,0.9c-5.5,2.6-10.1,6-12.8,11.8
			c-1.1,2.3-1.3,4.6-1.7,7c-0.6,3.5-1.9,6.8-3.2,10c-1.5,2.3-3.7,4-5.6,6c-0.9,1-2.1,2-2,3.5c0.3,3.7-2.2,5.1-5,6.1
			c-4.6,1.6-9.3,3.1-13.9,4.6c-2.6,0.9-4.8,0.9-5.4-2.7c-0.5-2.9-3.1-3.4-5.3-3.5c-5.2-0.2-9-2.3-12.6-6.3
			c-3.3-3.6-8.5-3.6-13.2-2.5c-1.3,0.3-2.3,1.6-3.8,0.8c0.1-1.3,0.7-2.2,1.9-2.7c2.9-4.6,6.9-5.5,11.9-4c4.1,1.2,7.8,2.9,11.4,5.6
			c5.5,4.1,18,8.1,24.8,2c0.7-0.6,1.5-1,2.4-1.4c1.2-0.5,2.5-0.9,3.8-1.4c5.7-2.7,7-8.1,8.1-13.5c1.4-7.1,3.7-13.9,9.5-18.8
			C237.1,258.1,242.4,255.6,248.1,254z"/>
		<path fill="#A85F57" d="M158.8,296.2c7.1-4.5,14.2-3.3,20,3.2c1.9,2.1,4.3,3.4,7.2,3.3c2.5-0.1,4.8,0.6,7.1,1.6
			c1,0.4,2.4,0.9,2.2,2.1c-1.4,6.3,2.7,3,4.6,2.4c4.4-1.2,8.8-2.7,13-4.3c2.1-0.8,5.7-1.1,3.4-5.1c-0.5-0.9,0.5-1.7,1.2-2.3
			c2.5-2.4,5.1-4.8,7.7-7.2c2-2.6,2.9-5.8,3.2-8.9c0.9-9,5.6-15.1,13.4-19.2c0.7-0.4,1.2-0.9,1.9-1.3c0.3,0,0.6,0,0.9,0
			c-0.1,2.3-1.9,3.3-3.5,4.5c-5.3,4-9.2,8.6-9.5,15.8c-0.1,2.8-1.7,5.5-2.6,8.2c0.1,1.1-0.4,2.1-1.1,2.9c-1.9,2.1-4.1,4-3.2,7.4
			c0.4,1.4-1.4,2.2-2.2,3.3c2.6,0.9,4.8-2.9,7.4-0.6c0.2,2.1-1.5,2.6-2.9,3.4c-2.7,0.6-5.2,2.4-8.2,1.1c-3.7,1.2-7.7,2-11.1,3.8
			c-5.9,3-12,3.6-18.3,2.7c-0.6-1.2-0.3-2.7-1.7-3.6c-7-5-13.9-10-22.4-12.2c-1.7-0.4-2.9-0.1-4.2,1c-1.1,0.9-1.9,2.5-3.8,1.7
			C157.3,298.3,157.8,297.1,158.8,296.2z"/>
		<path fill="#C77D73" d="M209.5,297.2c-2.9,4.1-7.3,5.1-11.6,4.1c-6.2-1.5-12.6-2.4-17.6-7.6c-4.8-4.9-14.2-4.3-19.6-0.2
			c-0.1-1.6,1.3-2.4,1.9-3.6c1.2-0.9,2.4-1.8,3.6-2.8c8.9-1.7,17.3-1.9,24.5,5.3c3.7,3.7,9.1,4.7,14.4,4.6
			C206.6,296.9,208.1,296.1,209.5,297.2z"/>
		<path fill="#331210" d="M168.2,309c-2.4-2-5.3-2.8-8.2-3.8c-0.5-0.6-0.9-1.3-1.4-1.9c-1.3-3.1,1.2-6.8,4.8-6.2
			c7.9,1.4,15.2,4.6,21,10.3c2,1.9,0.9,4-2,4.4c-2.1,0.2-4.3,0.3-6.2-0.9C173.2,311.5,171.1,308.6,168.2,309z"/>
		<path fill="#792D28" d="M176.2,311c2.8-0.1,6.9,1.6,7.8-1.1c0.8-2.2-3.1-4.4-5.5-5.6c-4.5-2.4-9-4.8-14.1-6
			c-3.7-0.8-5.9,1.2-5.8,5.1c-2.7-0.4-3.3-1.6-1.4-3.7c5.9-4.5,10.9-4.4,17.5-0.1c4.7,3,9.3,6.3,14.1,9c3.3,1.9,1.2,2.8,0.5,4.3
			c-3.3,2-6.8,0-10.2,0.3C177.9,312.7,176.7,312.3,176.2,311z"/>
		<path fill="#DE988D" d="M104.6,240.2c3.2-5.2,9.2-5.6,13.8-8.2c1.2,0,2.4,0,3.6,0.1c-1.4,2.5-4.7,1.7-6.5,3.6
			c-1.7,0.1-3.1,1.2-4.6,1.9c-2.1,1.4-3.8,3.1-5,5.3c-0.3,0.3-0.7,0.5-1.2,0.4C103.9,242.2,104,241.2,104.6,240.2z"/>
		<path fill="#C2786D" d="M104.6,240.2c0.2,1-0.1,2.1,0.8,2.8c2.6,5.1,6.9,7.9,12.2,9.5c7.3,2.2,9.1,6,6.6,13.3
			c-0.5,1.6-0.9,3.3-2.1,4.5c-0.1,0.7-0.2,1.5-1,1.8c0.4-4.5-0.9-8.2-4.6-11.2c-4.4-3.6-7.6-8.2-10.8-12.8
			C104.2,245.8,102.9,243.1,104.6,240.2z"/>
		<path fill="#DE988D" d="M122.2,270.3c-0.7-3.2,1.8-5.7,1.8-8.8c0.1-4.5-1.5-6.7-5.9-7.7c-4.1-0.9-8-2.4-10.9-5.9
			c-1.3-1.5-1.9-3.1-1.8-5c0,0,0.2-0.1,0.2-0.1c4.7,4.1,10.8,3.8,16.4,5.1c6,1.4,6.9,2.3,5.9,8.2c-1.8,4.7-1.2,10.3-4.9,14.3
			C122.7,270.5,122.5,270.4,122.2,270.3z"/>
		<path fill="#D9C0BA" d="M123,270.5c1.2-4.9,2.5-9.8,3.7-14.7c1.7-1.7,2.2-4.8,5.5-4.6c0,0.9,0,1.8,0,2.7c-2,6-4.3,11.9-7.4,17.5
			C123.7,272.1,122.9,272.1,123,270.5z"/>
		<path fill="#3B1617" d="M262,236.6c-0.3,0.6-0.7,1.2-1,1.8c-1.4,0.6-2.4,2.6-4.5,1.4c-2-1.1-1.2-2.9-1.1-4.5
			c0.5-5.2,0.3-10.5,6-13.8c3-1.7,3.1-0.4,3.1,1.8C264.6,227.8,263.4,232.2,262,236.6z"/>
		<path fill="#DD9386" d="M251.8,205.2c-3.8,4-4.5,9.5-6.4,14.4c-0.6,1.5-0.3,3.5-1,4.9c-4.5,8.6-5.5,18.5-9.8,27.1
			c-0.3,0.5-0.5,1.3-1,1.5c-11,6.4-15.9,19.3-27.1,25.7c-4.5,2.6-8.6,5.1-13.9,4.7c-6.4-0.5-12.8,0.7-19.2-0.9
			c-2.1-0.5-4.2,0.4-6.3,0.8c2.7-4,6.9-2.9,10.5-2.6c11.9,0.9,22.8-1.3,32.5-8.6c7.6-5.8,12.9-13.7,19.3-20.7
			c2.7-2.9,4.1-8,2.7-12.5c-1.3-4.3,0.2-7.3,3.5-9.4c2.1-1.4,3.6-3,4.2-5.2c2-7.3,7.2-13.4,7.6-21.3c0.2-3.5,3.9-5.9,3.4-9.8
			c1.1,0.7,0.9,1.7,0.9,2.7C253.2,199,252.8,202.1,251.8,205.2z"/>
		<path fill="#D08679" d="M251.8,205.2c-0.9-3.1,0.1-6.2,0.1-9.3c0.3,0,0.6,0,0.9,0c0,0,0,0,0,0c0.6,3.4,0.7,6.8-0.1,10.2
			C252.4,205.8,252.1,205.5,251.8,205.2z"/>
		<path fill="#F6B5AC" d="M132.2,251.2c-1.8,1.5-3.7,3.1-5.5,4.6c1.2-5.1,0.8-5.8-4.3-6.4c-4.3-0.5-8.4-2.3-12.9-2
			c-2.6,0.2-2.7-2.9-4-4.4c-0.2-3.8,2.5-4.7,5.4-5.4c-0.9,1.4-0.8,2.5,0.9,3.2c2.9,1.2,5.8,1.7,9.1,1.8c6.9,0.2,14.3-0.8,20.3,4.2
			C137.4,246.2,134.9,248.9,132.2,251.2z"/>
		<path fill="#8C8380" d="M250,273.3c2.3-1.9,1.2-5.5,3.5-7.4c0.1,1.5,0.9,1.5,1.9,0.9c-2.1,6.5-5.6,12.4-8.9,18.4
			c-0.7,1.2-1.7,2.3-0.6,3.7c1.3,1.6,2.7,0.4,4.1,0c2.4-0.7,3.6-3.3,6.2-3.7c-0.6,0.9-1.2,1.9-1.8,2.8c-1.1,3.3-7.9,8.3-11.1,8.1
			c-2.1-0.1-2.8-1.6-3.3-3.3c-0.3-3.4,2.4-5.8,3.2-8.9C245.5,280.3,247,276.3,250,273.3z"/>
		<path fill="#8A6863" d="M234.2,310c-5,4.8-10.1,9.3-17,11.6c-3.7,1.2-4.6,5.3-5.7,8.7c-0.1-0.3-0.1-0.6-0.2-0.9
			c-1.2-3.3,0.2-5.8,2.5-8.1c1.6-1.6,3.6-2.7,5.2-4.4c1-1.1,2.4-2.1,0.7-3.7c-0.3-0.4-0.3-0.7-0.2-1.2c1.7-2.1,4.4-0.6,6.4-1.9
			c0.5-0.3,1-0.7,1.5-1.1c1.8-1.1,2.3-4.1,5.1-3.9c1.1,1.2,2.8,0.5,4,1.3c0.1,0.6,0.2,1.2-0.5,1.6
			C235.4,308.8,234.8,309.4,234.2,310z"/>
		<path fill="#9E9A9B" d="M236,308.1c0.1-0.6,0.2-1.1,0.2-1.7c-0.9-2.1,1.3-4.4-0.3-6.5c0.8-2.4,3.9-3.5,3.5-6.6
			c0.2-0.6,0.6-1.1,1.3-1c1,2.5,2.8,3.7,5.2,1.9c2.9-2.1,6.6-3.2,8.7-6.4c0.6,0,1.2,0,1.8,0c-1.4,4.9-4.5,8.2-9.3,9.7
			C241.7,299.4,238.5,303.5,236,308.1z"/>
		<path fill="#6C231E" d="M250,273.3c-1.2,4.1-4,7.3-5.7,11c-2.8,4.3-5.2,8.8-8.7,12.6c-1,1-2.1,1.8-3.6,2c-4-0.1-4-3.1-3.2-5.5
			c1.9-5.6,4.9-10.8,10.1-14c2.7-1.7,5.3-3.5,7.2-6.1c0.7-1.1,1.3-2.6,2.9-2.3C250.2,271.2,249.8,272.5,250,273.3z"/>
		<path fill="#C47B70" d="M248.1,254c-1.8,1.3-3.6,2.6-5.8,3.5c-11,4.1-16.3,12.5-18.2,23.8c-1,5.9-2.5,11.7-9.1,14.2
			c0.8-4.2,5-7.1,4.9-11.4c-0.1-4.2,1.5-7.6,2.8-11.3c2.4-6.9,7.3-11.4,13-15.4c1.5-1,3.2-1.7,4.4-3.2c1-1,2-1.9,3.3-2.4
			c3.9-1.5,5.6-4.2,5.3-8.4c-0.1-1.6-0.3-4,2.7-2.7c-0.1,1.4,0.4,2.9-0.4,4.3C251.1,248.2,250.1,251.2,248.1,254z"/>
		<path fill="#813630" d="M246.3,273.3c-1.2,3.2-3.2,5.4-6.4,7c-5.7,3-8.5,8.4-10.1,14.4c-0.6,2.1,0.4,3.5,2.9,3.4
			c0,1.6-1,2.2-2.3,2.6c-3.8-1.1-5.3-4.8-3.4-8.2c1-1.7,2.6-2.9,3.7-4.5c2.8-4,4.1-8.6,5.3-13.2c0.5-2,1.8-3.8,3.5-5.2
			c0.9-0.8,1.7-2.1,3-1.5c1.7,0.7,0.6,2,0.4,3.1c-0.3,1.2-0.5,2.6,0.7,3.3C244.7,275.1,245.3,273.5,246.3,273.3z"/>
		<path fill="#904942" d="M230.6,288c-0.6,3.3-5.1,5.2-2.9,9.7c0.8,1.6,1.4,2.4,3.1,2.4c0.2,0.7-0.1,1.2-0.6,1.6
			c-0.2,0-0.4,0.1-0.6,0.1c-3.2,0.3-5.9,3-9.4,2.5c-0.6-1.8,0.8-2.3,1.6-3.1c0.7-0.6,2-1.5,1.9-1.7c-3-5.8,3.5-7,5-10.6
			C229.4,288.6,230,288.3,230.6,288z"/>
		<path fill="#BE786A" d="M250.9,244.8c0-1.6,0-3.1-0.1-4.7c-1.2-1.3-1-2.8-0.7-4.3c1.3-7.2,2-14.4,1.4-21.7
			c-0.2-1.9,0.2-3.6,1.1-5.2c0-0.9,0-1.8,0-2.7c0-3.4,0-6.8,0.1-10.2c1.2,1.1,0.8,2.5,0.9,3.9c0.3,5.8,0,11.5,0.8,17.3
			c0.9,6.7-0.7,13.3-2.2,19.8C251.6,239.5,252.8,242.4,250.9,244.8z"/>
		<path fill="#7B564F" d="M219.7,312.9c1.1,0,2.3-0.3,2.9,0.8c0.7,1.3-0.7,1.8-1.4,2.5c-1.5,1.5-2.9,3-4.7,4.2
			c-3.1,2.1-5.5,4.8-5.2,8.9c-1-5.6-6.1-6.3-10.1-8.1c-1.3-0.6-3-0.3-3.6-2.1c6.2,2.8,10.9-0.2,15.6-3.7
			C215.1,314.1,217.1,312.9,219.7,312.9z"/>
		<path fill="#D5B5B3" d="M227.9,310.1c-0.3,0.3-0.6,0.6-0.9,0.9c-2.7,1.5-6.3-1.1-8.7,1.9c-1.5,1.2-3.1,2.1-5.2,1.8
			c-2.3-0.4-3.7,1.1-5,2.6c-1.5,1.7-3.4,2.4-5.3,1.7c-3.2-1.1-6.2-2.4-9.6-3.6c8.8-0.5,16.5-4.4,24.5-7.3c2.7-2.2,6.5-1.7,9.1-3.9
			c0.7-1,2.5-1,2.7-2.6c0,0,0.2,0.1,0.2,0.1c1.4-1,2.5-0.9,3.2,0.8c0,0.4,0,0.9-0.2,1.3C230.7,305.6,229.1,307.7,227.9,310.1z"/>
		<path fill="#C89F9D" d="M226.8,304.3c-2.3,2.9-6,2.8-9.1,3.9c0.3-0.6,0.6-1.2,1-1.8C221.4,305.7,224.1,305,226.8,304.3z"/>
		<path fill="#8A6863" d="M213.2,314.7c1.5-0.6,3.1-1.3,4.6-1.9c0.6-0.4,1.1-0.5,1.7-0.1c0,0,0.2,0.2,0.2,0.2
			c-1.9,1.5-4,2.7-6.5,2.7C213.2,315.3,213.2,315,213.2,314.7z"/>
		<path fill="#706C6B" d="M152.5,253c0.5,0.6,1.5,1.1,1.4,1.7c-0.1,4,0.2,7.9,0.8,11.9c0.4,3-4,5.6-6.2,8.4c-2.9,3.7-5.9,3-9.7,1.4
			c-3.5-1.4-7.2-2.9-11.3-2.1c1.7-4.6,3.2-9.3,5.3-13.6c1.1-2.2,2.8-4.1,6.3-2.4c2.6,1.2,6,1.3,9,1.3
			C152,259.3,151.9,255.8,152.5,253z"/>
		<path fill="#D08679" d="M252.7,208.9c-1.5,5.5,1.3,10.8,0.3,16.5c-0.8,4.9-1.9,9.8-2.1,14.8c-1,0.6-1.8,1.2-1.5,2.5
			c1.4,5-0.4,8.2-5.4,9.8c-1.2,0.4-2.2,1.6-3.3,2.4c-10.3,4.5-16.2,13-20.8,22.8c-1.6,3.3,0,6.8-1.4,10.3c-1.6,3.8-3.5,6.7-7.2,8.4
			c-0.4,0.7-1.1,0.9-1.8,0.9c-8.5,2.2-15.7,0.6-21.8-6.3c-3.8-4.3-9.7-2.7-14.6-3.7c-2.2-0.5-4.6-0.1-6.8-0.1c1.9-3,5.2-2.8,7.8-2.5
			c5.4,0.5,10.8,1.4,16.3,1.7c1.7,0.1,3.1,0.9,3.7,2.8c0.6,1.9,0.6,4.4,3.7,4.5c4.2,0,8.8,1.6,12-2c2.3-2.6,4.9-5.5,3.1-9.8
			c-1-2.5,0.9-4.7,2.6-6.4c2.9-3,5.5-6.1,7.7-9.6c3.8-6.1,9.8-9.4,15.4-13.3c3.4-2.3,5.5-4.6,3.5-9c-0.9-2.1-1-4.7,0.1-6.7
			c4.4-8.3,5.9-17.5,9-26.2C251.4,209.8,252.2,209.4,252.7,208.9z"/>
		<path fill="#C77D73" d="M211.3,296.3c4.4-2.8,7.4-7.7,6.8-12c-0.8-6.1,2.5-9.7,4.9-14c4-7.1,9.4-13.1,17.7-15.4
			c-4.1,3.6-9.4,5.8-12.6,10.4c-3.8,5.3-6.9,10.8-6.9,17.8c0,4.8-2.9,8.9-6.2,12.4C213.9,296,212.7,296.4,211.3,296.3z"/>
		<path fill="#AA6056" d="M243.5,260.4c-1.9,4.1-6.7,4.8-9.4,8.3c-4,5.1-4.5,11.1-6,16.9c-0.5,1.9-1.2,3.4-2.9,4.3
			c2.7-6.2,1.9-13.2,5.6-19.4C233.9,265.2,238.1,262.3,243.5,260.4z"/>
		<path fill="#904942" d="M235.2,296.2c3.1-4,6.1-7.9,9.2-11.9c-1.2,2.7-2.4,5.4-3.7,8.1c-0.3,0.3-0.5,0.7-0.8,1
			C238.9,295.4,238,297.5,235.2,296.2z"/>
		<path fill="#674E4D" d="M236.2,300c4.1,2.2,0.1,4.3,0,6.5c-1.6,0.7-3.7,3.4-3.8-1.1c-0.5-0.6-0.5-1.2,0.1-1.7l0,0
			C233.4,302.1,234.1,300.3,236.2,300z"/>
		<path fill="#C89F9D" d="M232.5,303.6c0,0.6-0.1,1.1-0.1,1.7c-2.2,0.9-2.4,3.7-4.5,4.7C228.3,307.1,230,305.1,232.5,303.6z"/>
		<path fill="#C89F9D" d="M219.5,312.7c-0.6,0-1.2,0-1.7,0.1c2.5-3.4,6.1-1.1,9.2-1.8C224.9,313.5,221.6,310.6,219.5,312.7z"/>
		<path fill="#C89F9D" d="M236.2,300c-1.1,1.4-2,3-3.7,3.7c-0.1-1.8-1.3-1.9-2.7-1.8c0.3-0.6,0.7-1.2,1-1.8c0.6-0.6,1.2-1.2,1.9-1.8
			c0.9-0.7,1.7-1.3,2.6-2c2.2,0.2,2.9-2.3,4.7-2.7C241.4,297.2,238.5,298.4,236.2,300z"/>
	</g>
</g>
</svg>
