
<svg xmlns="http://www.w3.org/2000/svg" version="1.1" xmlns:xlink="http://www.w3.org/1999/xlink" preserveAspectRatio="none" x="0px" y="0px" width="209px" height="84px" viewBox="0 0 209 84">
<defs>
<g id="Layer0_0_MEMBER_0_MEMBER_0_FILL">
<path fill="#2B2B2A" stroke="none" d="
M 254.2 97.75
Q 253.1 89.15 252.5 84.85 251.65 78.55 245.5 75.75
L 237.75 75.75
Q 229.85 76.7 227.5 76.85 210.95 77.85 202.7 78.8 180.65 81.35 164.9 83.9 139.95 87.95 110.5 99.55 107 100.95 105.35 103.85 103.65 106.85 104.55 110.4 105.2 113.05 109.6 129.85 112.7 141.65 114.3 149.35 116.45 159.45 118.9 173.4 120.3 181.45 123.05 197.55 123.6 200.8 124.25 206.35 125 212.9 125.35 215.15 125.65 217.35 125.1 218.75 124.5 220.25 122.55 221.45 103.35 233.2 92.5 246.3 92.2 246.65 89.15 251.1
L 89.15 252.9
Q 115.75 249.1 116.4 249 117.75 248.8 133.4 245.95
L 134.2 256.2
Q 135.7 274.8 144.95 294.4 146 296.7 145.95 298.85 145.9 300.85 144.8 303.25 140.9 311.7 128.75 339.5
L 127.65 342.2 130.45 342.2
Q 168.85 340.1 198.15 360.2 215.2 371.9 229.1 391.1 240.45 406.85 249.6 427.75 250.4 429.75 251.6 430.7
L 244.2 407.85 244.7 407.6
Q 248.9 414.55 249.45 415.6 251.65 419.8 256.5 421 261.4 422.25 265.25 419.55 267.65 417.9 268.3 416.05 268.95 414.2 268.05 411.45 262.95 395.85 261.45 375.75
L 259.25 345.55 259.25 342.8
Q 262.15 342 267.85 340.5 272.85 339.2 276.1 337.9 281.9 335.65 283.55 331.25 285.15 326.85 282.3 321.45 281.1 319.15 280.25 318.2 278.1 315.65 279.35 313.1 281.7 308.2 283.15 304.9 283.75 303.65 283.35 302.65 283.05 301.9 282.4 300.85 281.65 299.65 281.3 299.05 289 296.35 289.05 290.95 289.1 285.85 282.4 280.1 282.6 280.05 287.7 278.7 290.9 277.8 292.95 277.1 297.7 275.45 299.5 271.7 301.3 267.9 299.35 263.45 297.9 259.95 293.4 255.95 290.2 253.05 284.75 248.5 278.1 242.9 276.05 241.1 275.7 240.8 275.6 240.1 275.5 239.45 275.6 238.85 275.75 238.05 276.3 236.15 276.8 234.4 276.9 233.4 277 231.65 277 229 276.95 225.9 276.95 224.25 280.25 223.45 287.4 221.8 293.9 220.25 298.45 218.95 307.65 216.25 319.35 211.75 320.55 211.3 322 209.95 322.85 209.2 324.45 207.7 322.45 206.7 321.4 206.2 319.65 205.35 318.3 205 317.35 204.7 315.85 204.75 314.15 204.8 313.3 204.8
L 276.45 204.2
Q 275.9 204.2 275 204.05 272.7 194.25 271.6 189.4 269.65 180.85 268.45 174.8 262.15 143.1 256.15 110.65 255.2 105.45 254.2 97.75
M 232.6 372.45
Q 238.4 371.2 239 364.65 239.2 362.7 240.2 361.45 241.1 360.35 242.95 359.45 246.85 357.6 254.6 353.25 249.2 350.5 246.75 349 242.5 346.35 241.3 342.3 253.3 342.3 255.7 342.4 256.1 342.4 256.65 343.2 257.15 344 257.2 344.65 257.5 347.75 257.95 357.4 258.8 372.25 259.8 381.3 261.3 394.35 263.95 404.9 264.15 405.6 265.7 410.85 266.95 414.8 264.65 417.35 262.4 419.9 258.2 419.25 253.35 418.5 251.05 414.2 249.2 410.65 245.4 404.15 241.45 397.3 239.75 394.15 238.95 392.55 238.2 390.05 237.4 387.15 236.95 385.75
L 232.6 372.45 Z"/>
</g>

<path id="Symbol_9_0_Layer0_0_1_STROKES" stroke="#303030" stroke-opacity="0.4980392156862745" stroke-width="1" stroke-linejoin="round" stroke-linecap="round" fill="none" d="
M -92.8 0
L 92.8 0"/>
</defs>

<g transform="matrix( 1, 0, 0, 1, 104.5,56.75) ">
<g transform="matrix( 1, 0, 0, 1, 0,0) ">
<use xlink:href="#Symbol_9_0_Layer0_0_1_STROKES"/>
</g>
</g>

<g transform="matrix( 1, 0, 0, 1, 21.05,51.95) ">
<clipPath id="Mask_Mask_1">
<rect x="-2" y="-2" width="170.9" height="34.05" fill="#FFFFFF" stroke="none"/>
</clipPath>

<text clip-path="url(#Mask_Mask_1)" writing-mode="lr"><tspan x="49.7" y="23.8" baseline-shift="0%" font-family="Myriad Pro" font-size="25" fill="#000000" xml:space="preserve">Til fest</tspan></text>
</g>

<g transform="matrix( 0.143646240234375, 0, 0, 0.143768310546875, 74.8,-6.5) ">
<use xlink:href="#Layer0_0_MEMBER_0_MEMBER_0_FILL"/>
</g>
</svg>
