
<svg xmlns="http://www.w3.org/2000/svg" version="1.1" xmlns:xlink="http://www.w3.org/1999/xlink" preserveAspectRatio="none" x="0px" y="0px" width="209px" height="84px" viewBox="0 0 209 84">
<defs>
<g id="Layer0_0_MEMBER_0_MEMBER_0_FILL">
<path fill="#2B2B2A" stroke="none" d="
M 359.8 259.6
L 379.35 237.35 194.85 73.6 192.4 73.6 8 236.95 8 238.2 27.7 259.45 193.65 112.4 359.8 259.6 Z"/>
</g>

<g id="Layer0_0_MEMBER_0_MEMBER_1_FILL">
<path fill="#2B2B2A" stroke="none" d="
M 215.3 155.75
L 193.6 136.65
Q 108.05 212.45 65.95 250 64.8 251.05 64.05 252.9 63.3 254.7 63.3 256.35 63.1 322.3 63.2 414.65 63.2 420.75 65.5 422.9 67.8 425 74.2 425
L 152.7 425 152.7 356.65
Q 152.7 349.55 154.95 347.35 157.15 345.1 164.35 345.05
L 222.45 345.05
Q 230.15 345.1 232.35 347.35 234.55 349.6 234.55 357.45
L 234.55 425 311.35 425
Q 319.6 425 321.85 422.85 324.05 420.7 324.05 412.65 324.05 309.55 324.15 258 324.15 254.95 323.2 252.75 322.25 250.5 319.95 248.45 290.45 222.5 215.3 155.75 Z"/>
</g>

<g id="Layer0_0_MEMBER_0_MEMBER_2_FILL">
<path fill="#2B2B2A" stroke="none" d="
M 107.9 126.7
Q 108.65 126.05 109.15 125.05 109.7 123.95 109.75 123.05 109.8 120.25 109.8 97.45
L 63.7 97.45 63.7 166.8
Q 96.75 136.9 107.9 126.7 Z"/>
</g>

<path id="Symbol_9_0_Layer0_0_1_STROKES" stroke="#303030" stroke-opacity="0.4980392156862745" stroke-width="1" stroke-linejoin="round" stroke-linecap="round" fill="none" d="
M -92.8 0
L 92.8 0"/>
</defs>

<g transform="matrix( 1, 0, 0, 1, 104.5,56.75) ">
<g transform="matrix( 1, 0, 0, 1, 0,0) ">
<use xlink:href="#Symbol_9_0_Layer0_0_1_STROKES"/>
</g>
</g>

<g transform="matrix( 1, 0, 0, 1, 67.65,51.9) ">
<clipPath id="Mask_Mask_1">
<rect x="-28.25" y="-2" width="130.25" height="66.1" fill="#FFFFFF" stroke="none"/>
</clipPath>

<text clip-path="url(#Mask_Mask_1)" writing-mode="lr"><tspan x="-21.3" y="23.8" baseline-shift="0%" font-family="Myriad Pro" font-size="25" fill="#000000" xml:space="preserve">Til hverdag</tspan></text>
</g>

<g transform="matrix( 0.145111083984375, 0, 0, 0.1451873779296875, 76.4,-7.6) ">
<use xlink:href="#Layer0_0_MEMBER_0_MEMBER_0_FILL"/>
</g>

<g transform="matrix( 0.145111083984375, 0, 0, 0.1451873779296875, 76.4,-7.6) ">
<use xlink:href="#Layer0_0_MEMBER_0_MEMBER_1_FILL"/>
</g>

<g transform="matrix( 0.145111083984375, 0, 0, 0.1451873779296875, 76.4,-7.6) ">
<use xlink:href="#Layer0_0_MEMBER_0_MEMBER_2_FILL"/>
</g>
</svg>
