<?xml version="1.0" encoding="utf-8"?>
<!-- Generator: Adobe Illustrator 18.1.1, SVG Export Plug-In . SVG Version: 6.00 Build 0)  -->
<svg version="1.1" id="Lag_1" xmlns="http://www.w3.org/2000/svg" xmlns:xlink="http://www.w3.org/1999/xlink" x="0px" y="0px"
	 viewBox="0 0 384 514" enable-background="new 0 0 384 514" xml:space="preserve">
<g>
	<g>
		<path fill="#FFFFFF" d="M1,411C1,232.2,1,53.3,0.9-125.5c0-3.7,0.8-4.6,4.6-4.6c125,0.1,250,0.1,375,0c3.7,0,4.6,0.8,4.6,4.6
			c-0.1,235.3-0.1,470.7,0,706c0,3.7-0.8,4.6-4.6,4.6c-125-0.1-250-0.1-375,0c-3.7,0-4.7-0.8-4.6-4.6C1.2,571.7,1,562.8,1,554
			c7-7.8,15.3-14.3,23-21.3c8.5-7.6,17.4-14.9,26.4-22c18.2-14.4,38.6-24.2,60.4-32.1c23.8-8.6,47.9-15.9,71.7-24.2
			c4.8-1,9.4-3,14.1-4.3c5.9-1.6,9.1-6.5,12.9-11.3c-1.3,0.3-1.9,0.9-2.6,1.4c-2.4,1.1-4.7,4.7-7.4,2.5c-2.6-2.1,0.3-4.9,1-7.2
			c0.9-2.9,1.8-5.7,1.3-8.8c-0.3-1.8,0.1-3.7,0.9-5.4c4.9-10.5,8.9-21.5,16.2-30.9c2.8-3.6,4.6-7.7,5.5-12.2
			c2.1-9.7,6.5-17.6,16.2-21.8c5.9-2.5,8.3-7.6,7.4-13.9c-0.3-2.7,0.1-5.3,0.5-7.9c1-6.4,1.3-12.9,2.1-19.3c0.3-2.7,0.8-5.5,2.3-7.6
			c4.5-5.9,5.1-13.5,9.7-19.4c5.5-7,6.7-15.8,8.9-24.1c0.8-3,2.4-5.9,2.1-9.2c0.2-2.6,2.1-4.8,1.9-7.5c0.6-7.6,1.7-9.3,7-10.7
			c3,0.3,5.2,2,7.3,3.9c4.2,5.3,5.5,11.2,3.7,17.7c-1.1,4.3-1,8.9-2.5,13.1c-4,10.8-9.5,20.9-12.9,32c-1.5,2.2-2.4,4.7-3.3,7.3
			c-7.1,21.1-17.3,40.7-28.2,60c-3.9,7-7.7,14-10.3,21.6c-0.6,1.7-1.8,3.7-0.2,5.1c1.8,1.5,3.4-0.3,4.8-1.3
			c11.3-8.3,22.1-17.2,30-29c2.3-3.4,4.6-6.7,1.7-10.9c-0.6-0.8-0.9-2-0.4-2.9c3.3-6.1,1.7-13.1,3.5-19.5c1-3.5,1.5-7.1,3.6-10.3
			c1.5-2.3,1-5.2,1.3-7.8c0.7-5.8,2.2-11.1,8.1-13.9c3.7-1.6,7.7-2.2,11.3-4c3.3-1.7,4.9-3.8,3.9-7.6c-0.6-2.3-0.5-4.6-0.4-7
			c1.7-5.6,0.5-11.1-0.3-16.6c-0.7-4.9-1.9-9.7-1.9-14.6c0-1.7-0.8-2.8-1.9-3.8c-1-1.4-1.5-3.1-1.8-4.8c-0.8-9.7-3.3-19.1-4-28.7
			c-2.5-18.7-5.1-37.3-7.8-55.9c-0.9-7.9-1.9-15.8-2.9-23.8c-0.5-3-1.2-6-1.7-9.1c-1.2-8.4-1.3-17-3.4-25.3
			c-1.5-7-1.7-14.2-2.5-21.3c-0.5-4.4-2.2-6.7-6.7-6.9c-5.3-0.2-10.5-1.5-15.9-1.3c-9-0.2-17.8-2.1-26.7-3.2
			c-1.4-0.2-2.6-0.7-3.5-1.8c-2.9-10.8-4.7-21.8-6.6-32.8c-1.1-4.3-2.6-8.5-4.8-12.5c-5.7-10.2-16.7-12.2-25.4-10.2
			c-11.6,2.7-18.4,10.6-22.7,21.2c-2.5,6.2-3.9,12.7-5,19.3c-0.5,2.9-0.5,6-2.1,8.7c-2.5,2-5.4,1.4-8.1,1
			c-15.2-2.1-30.4-3.2-45.6-4.6c-0.6,0-1.2,0-1.8,0c-4.8-0.1-9.6,0-14.4,0c-5.7,0-6.4,0.5-6.7,6.6c-0.3,4.8,0,9.6-0.1,14.4
			c0,2,0,4-0.4,5.9c-0.5,1.8-0.6,3.6-0.6,5.4c-0.3,20.9-1.8,41.8-2.6,62.7c-0.7,17.9-1.6,35.9-2.4,53.8c-0.7,17.4-1.7,34.8-2.5,52.3
			c-0.6,12.1-1,24.2-1.6,36.4c-1.6,6.2-1.1,12.6-0.7,18.9c0.3,4.3,4.6,3.8,7.7,4.6c4.3,1.4,2,3.9,0.7,5.7
			c-4.7,6.9-11.1,12.4-17.1,18.1c-9.6,9.2-18.7,18.8-27.7,28.6c-2.6,2.8-5.6,5.2-7.4,8.7c-6.3,9.5-11.5,19.7-18.3,28.9
			C5.2,409,4.4,412.2,1,411z"/>
		<path fill="#DDDCE1" d="M1,411c2.8-0.9,3.7-3.5,5.3-5.6c6.6-8.7,10.8-18.9,17.7-27.5c0.4-0.5,0.7-1.1,1.2-1.6
			c0.8-0.7,1.5-2.2,2.8-1.1c1.1,0.8,0.7,2.1,0.3,3.2c-0.6,1.8-1.8,3.2-2.7,4.8c-3.1,5.1-6,10.3-7.7,16.7c2.2-1,2.2-2.9,3-4.1
			c1.1-1.7,2.2-3.2,4.4-3.8c7.2-2.1,12.7-6.1,16.2-13.2c1.7-3.4,4.6-6.5,8-8.8c2-1.3,4.1-2.8,4-5.4c-0.1-5.9,4.3-8.3,8.4-10
			c5.2-2.1,10.7-2.9,16.2,0.7c8.4,5.6,13.6,13.2,15.3,22.9c1.7,9.5-0.7,18-8.3,24.6c-10.8,9.5-21.6,18.8-34.7,25
			c-5.1,2.4-10.7,3.7-16.1,5.3c-8.6,2.2-16.5,0.6-24-3.9c-1.6-1-3-2-2.8-4.3c0.4-5.9,0.3-5.9-5.3-6.6c-0.5-0.1-0.9-0.3-1.3-0.6
			C1,415.7,1,413.3,1,411z"/>
		<path fill="#F5F1EA" d="M183,455c-1,0.6-1.9,1.4-2.9,1.8c-16.1,5.2-32.5,9.5-48.2,15.6c-17.9,6.9-36.6,12-53.5,21.4
			c-14,7.7-26.7,17.2-38.9,27.4C27.4,531.3,15.8,542,4,552.5c-0.9,0.8-1.8,1.5-3,1.5c0-17.3,0-34.7,0-52c3.6-1.1,4.8,4,8.2,3.2
			c1.7,0.7,2.3,2.1,3,3.7c4.5,10.8,12.8,10.4,19.1,3.5c6.1-6.7,13.8-10.1,20.9-14.7c4.2-2.8,8.4-6.2,13.8-6.5
			c10.6-0.6,19.4-6.1,28.9-9.8c8.8-3.4,17.9-6,26.9-8.8c0.4-0.2,0.9-0.5,1.3-0.7c5.2-2.9,11.2-3.2,16.5-5.6c1.8-0.6,3.5-1.7,5.3-2.3
			c2.8-0.4,5.7-0.8,8.4-1.8c0.9-0.4,1.8-0.7,2.7-1.1c1.7-0.6,3.3-1.1,5-1.5c5.3-1.9,10.7-3.6,16.2-5
			C179.3,454.2,181.2,453.3,183,455z"/>
		<path fill="#EDECED" d="M9,506c-3.9,1.2-5.1-3.1-8-4c0-28,0-56,0-84c3.4-1.4,6.4-1.3,8.5,2.2c0.6,0.9,1.6,2.1,0.5,3.1
			c-3.8,3.7-0.2,4.4,2.2,5.7c6.9,3.8,14.1,5.3,21.8,2.9c0.8,0.6,1.7,1.2,0.9,2.4c-3.3,2.9-7.5,3.9-11.7,4.7
			c-2.3,0.4-4.1,1.3-3.8,4.1c4.6,10.4-0.4,19.4-4.3,28.5c-1,2.3-1.9,4.6-2.5,7c-0.4,1.6-0.5,3.7-1.7,4.6c-5,3.8-5.5,8.5-4.4,14.2
			c0.4,2.1,0.2,4.2,2.1,5.8C9.4,504.1,9.8,505,9,506z"/>
		<path fill="#3A1011" d="M101,55.2c0.4,0,0.7,0,1.1,0c3.7,4.7,3.3,10.6,3.2,15.8c-0.4,17.4,3,34.5,2.4,51.8
			c-0.2,5.1,0.4,10.3,1.4,15.3c0.1,14.3,1.6,28.5,2.4,42.8c1.2,20.4,1.8,40.9,3.7,61.2c0.6,6.8,0.3,13.6,0.1,20.5
			c0.3,3.3-1.7,5.7-3.2,8.3c-3.4,6.1-5.7,12.7-9.6,18.5c-1.9,2.2-3.9,4.4-6.2,6.2c-1.5,1.2-3.2,1.6-5,0.9c-2.6-1.5-2.8-4-2.8-6.5
			c0.3-30.6-0.4-61.2,0.4-91.9c0.3-12.8-0.3-25.6-0.4-38.4c-0.1-15.5,0.2-31-0.1-46.4c-0.4-17.8-0.9-35.6-1.3-53.4
			c0-1.2-0.1-2.3,0.4-3.4C91.8,54.2,96.6,56.5,101,55.2z"/>
		<path fill="#ECEBF0" d="M93.2,296.1c3.7-1.4,5.3-5.3,8.5-7.2c3.2-1.9,5.8-4.3,7.6-7.6c1.3-2.3,3.3-4.7,6.4-3.5
			c2.8,1,2.2,3.8,1.9,6.1c-0.2,1.5-0.2,3.1,0.6,4.4c2.6,4.2,0.8,7.2-2.9,9c-4.5,2.1-4.7,5.3-3.1,9.1c1.6,3.9-0.2,7.1-1.4,10.6
			c-0.6,1.7-2,1.9-3.6,2.1c-5,0.5-13.1,9.6-12.9,14.5c0.1,3.2,2.6,4.5,5.6,3c2.5-1.3,4-4.8,7.8-3.2c3.4,1.4,2.1,5,3.6,7.2
			c2.7,3.8,2.5,7.4,1.4,11.7c-1,4.1-1.4,8.7,2.7,11.9c1.1,1.8,3.8,2.4,3.6,5c-0.7,1-1.8,1.4-2.8,2c-1.9,1-3.8,2.7-5.9,1.1
			c-2-1.5-0.1-3.5,0.1-5.8c-1.8,1.6-2.7,3.5-2.3,4.8c2.4,8.2-3.4,13-7.4,18.4c-6.2,8.3-14,15.1-21.2,22.4c-1.5,1.5-3.6,2.9-1.1,5.2
			c-0.1,1.8-1.6,2.5-2.9,3c-4.8,1.8-9.2,4.5-13.7,6.8c-3,0.9-5.7,2.5-8.4,3.9c-0.9,0.5-1.8,0.9-2.8,1.2c-3.4,1.1-6.7,2.5-10.3,2.8
			c-1.8,0.2-3.6,0.7-5-0.9c-0.3-0.7-0.7-1.3-1-2c17.3-3.1,30.8-13.2,43.7-24.2c3-2.6,5.8-5.4,8.7-8.1c6.4-6,6.7-13.4,5.7-20.8
			c-1.6-11.5-8.4-19.8-18.9-24.4c-3.4-1.5-8.1-0.3-11.4,1.7c-3.4,2.1-8.2,4-7,9.9c0.2,1-0.9,2.9-1.9,3.3c-4.6,1.7-6.1,6.7-10,9.1
			c-0.3,0.2-0.6,0.5-0.6,0.7c0,8.4-9.5,8.4-12.5,14.1c-6.5-1.2-8.1,3.4-9.8,8.2c-0.4,1.2-1.7,1.4-2.9,0.6c-1.3-0.9-1-1.9-0.5-3.1
			c2.5-6.2,5.2-12.3,9-17.8c1.1-1.6,2.4-3.1,2.4-5.3c-2-0.1-2.5,1.9-4,2.2c2.3-5,6.5-8.7,10.2-12.5c11.9-12.4,24.3-24.4,36.4-36.6
			c2.2-2.2,4.1-4.7,6-7.3c0.8-1,2.2-2.5,0.1-3.7c-0.1-1.7,1.1-2.9,1.9-4.3c3.1-4.4,6.6-8.5,9.6-13C89.2,298.4,90.9,296.9,93.2,296.1
			z"/>
		<path fill="#8E1921" d="M223.1,65.9c6,2.5,12.6,1.7,18.9,2.9c3.6,0.7,7.4,0.8,11.1,1.2c1,3.6-1.7,2.8-3.4,2.8
			c-3.7,0-7.5-1.4-11.2-0.1c-8.9,4.8-14.6,12.9-20.7,20.6c-5.1,6.5-9.1,13.9-15.8,19.1c-4.4,3.5-5.1,8.8-6.4,13.7
			c-0.9,3.3-2.1,6.3-4.2,8.9c-2.8,3.5-5.5,7.1-6.3,11.7c-0.4,2.1-2.2,3.2-3.9,4.3c-9.3,3.2-18.8,5.3-28.5,6.7c-8.3-1.8-9-3.7-6-11.7
			c2.3-6.2,5.6-12.1,6.5-18.8c0.3-2.2,1.7-3.9,3-5.7c5.4-7,10.4-14.2,13.6-22.5c1.1-2.9,3-5.2,5.2-7.2c7-6.2,12.3-13.4,14.7-22.7
			c0.5-2.1,1.3-4.5,3.3-6c5.6-1.5,11.1,1,16.7,0.4c2.2-0.1,4.3,1,6.5,0.9c1.4,0,2.7,0.1,4.1,0.2C221.2,64.8,222.2,65.2,223.1,65.9z"
			/>
		<path fill="#7E171C" d="M108,138.1c-1.6-4.7-1.9-9.8-1.8-14.6c0.5-17.9-3-35.7-2.4-53.6c0.2-4.9-1.1-9.8-1.7-14.7
			c12.6,0.5,25,2.3,37.6,3.3c5.4,0.4,10.9,2.3,16.4,0.6c0.8-0.8,1.8-1,2.8-0.7c1.7,0.6,3.3,1.3,4.5,2.6c2.5,6.6,3.5,9.1-3.3,14
			c-3.9,2.8-6.1,7.6-8,11.8c-1.9,4.1-4.5,6.8-8.3,8.8c-1.9,1-3.9,2.1-3.8,4.7c0.1,3.6-2.2,5.3-5.2,6.5c-3.1,1.2-4.9,3.3-6.1,6.7
			c-1.4,4.2-4.7,7.4-7.9,10.5c-0.8,0.8-2.3,1.1-2.7,2.2C116.1,131.2,113.1,135.6,108,138.1z"/>
		<path fill="#F1F0F4" d="M275,255c-2.6,13.2-5,26.6-13.3,37.7c-1.7,2.2-2.9,4.4-2.7,7.2c0.1,1,0.1,2-0.8,2.8
			c-6.1,5.1-6.8,12.7-6.8,19.5c0,5-2.2,9.4-1.7,14.4c0.2,2.1-0.3,4.4,0.1,6.7c1,5.8-2.3,11.8-9,14.5c-9.4,3.8-12.9,11.4-14.9,20.4
			c-1,4.6-3,8.9-5.7,12.7c-5.3,7.5-8.9,15.7-13.2,23.8c-3.6,6.9-2.6,14-5,20.7c-0.8,2.2-3.9,4.8-1.9,6.5c1.9,1.6,4-2.2,6.3-2.8
			c0.2,0,0.3-0.1,0.5-0.2c1.1,1.7,0,2.8-1.2,3.8c-4.6,3.7-9.9,5.9-15.5,7.3c-2.1,0.5-4.7,0.9-5.8-2.1c0-1.4,0.9-2.3,1.9-3.2
			c1.7-1.1,3.6-1.9,5.2-3.2c1.1-0.7,2.2-1.4,3.1-2.3c0.7-0.6,1.3-1.2,1.9-1.8c1.3-1.8,0.6-3.5-0.5-5c-1.2-1.6-2.3-3.3-3.1-5.1
			c-1.3-2.9-1-5.5,1.7-7.5c5.6-4.3,9.5-9.4,7.6-17.1c-0.4-1.7,0.5-3.2,1.6-4.6c1.2-1.5,2-3.1,2.1-5c0.1-2.2,1.2-3.7,3.2-4.7
			c1.5-0.7,2.7-1.9,3.7-3.2c1.6-2.2,2.8-4.4,0.2-6.6c-1.9-1.6-6.6-0.8-7.3,1.7c-1.6,5.3-6.2,8-9.8,11c-3.4,2.8-8.5,4.3-13.1,5.2
			c-3.2,0.7-6.4-1.4-6.8-5.6c0.5-0.4,1.2-0.5,1.8-0.5c1.4,0.1,2.9,1.6,4.1,0.1c1.3-1.7,0-3.5-0.8-5c-1.4-2.6-3.1-5-5-7.3
			c-1.9-2.3-2.7-4.8-1.5-7.8c1-1.5,2.4-1.6,4-1.2c4.3,2.8,7.1,6.9,9.3,11.5c0.5,1.1,0.9,2.9,2.7,2.3c1.2-0.3,1.7-1.7,1.8-2.8
			c0.3-4.2-1.8-8-2.5-12.1c-0.3-1.5-2.7-0.8-4-1.5c-0.4-0.2-0.7-0.5-1-1c0-0.5,0.1-0.9,0.5-1.2c2.2-1.7,5.8-0.9,7.2-4
			c2.4-4.2,4.8-8.4,8-12.1c1-1,2.2-1.9,3.3-2.8c4-3.5,8-7.1,13.1-9c2-0.8,2.4-2.5,2.8-4.4c0.4-1.9,1.2-3.7,3.4-3.8
			c2.8-0.1,4.6,1.6,6,3.8c1.2,1.8,0.7,3.5-0.8,4.9c-0.9,0.9-1.9,1.9-2.8,2.9c-1.2,1.5-2.3,3-1.4,5c1,2.1,2.7,3.5,5.1,3.4
			c2.8-0.1,5.6-0.4,8.4-0.3c2.6,0,3.9-2.1,4.2-4.3c0.8-5.8,2.3-11.4,2.9-17.2c0.3-3.2-0.3-6.2-2.2-9c-2.2-3.2-1.1-6,2.1-7.4
			c5.2-2.3,7.7-6.9,10.1-11.3c3.8-7.2,7.8-14.2,11.2-21.7c2.3-5,3.4-10.4,5.2-15.5C272,259.3,271.4,255.9,275,255z"/>
		<path fill="#671511" d="M89.1,301c-3.3,4.4-6.5,8.7-9.8,13.1c-2.6,3.9-6,2.4-9.3,1.3c-3.4-1.1-2.5-3.9-2.4-6.3
			c0.1-4.8-0.5-9.6,0.3-14.4c1.1-26.3,2.3-52.6,3.4-78.8c1.3-28.1,2.4-56.2,3.9-84.3c0.9-16.3,0.9-32.6,2.7-48.8
			c1.5,1.2,1.5,2.9,1.6,4.5c1.3,25.4,3.5,50.8,3.2,76.3c-0.4,42.6-0.3,85.2-0.1,127.9c0,3.6-0.4,7.3,1.7,10.6c0.8,0,1.4-0.3,2.1-0.6
			C87.2,301,88.1,300.4,89.1,301z"/>
		<path fill="#E5E4EA" d="M289,303.1c-4.3,1.9-6.7,6.4-6.5,9.9c0.5,8.8-5,15.6-6,23.8c-0.7,5.8,0.6,12.1-3.3,17.3
			c-0.2,0.3,0,1.4,0.4,1.8c5.1,4.8,0.7,8.7-1.6,12.3c-7.9,12.2-19.1,21-30.6,29.5c-0.8,0.6-1.7,1.1-2.5,1.6
			c-1.4,0.8-2.9,1.1-4.2,0.1c-1.2-0.9-1-2.6-0.6-3.7c1.4-4.1,2.7-8.2,4.6-12c6.5-12.7,13.2-25.2,19.8-37.9
			c6.8-13.1,12.4-26.8,17.3-40.8c0.3-0.7,0.8-1.4,1.2-2c2.5,0.6,4.9-0.5,7.3-0.7C286,302.2,287.7,301.5,289,303.1z"/>
		<path fill="#CA5560" d="M287.1,158.8c1.8,6.5,2.2,13.3,3.2,20c1.6,10.6,3.1,21.2,4.6,31.8c0.2,1.5,0,3,0,4.5
			c-3.3-0.1-6.6,0.2-9.9,0.8c-8.1,1.5-10.7,0-13.8-7.5c-0.5-6.9,2.1-13.3,3.1-20c0.2-1.6,1.1-3.1,1.1-4.8c-1.4-0.5-2.6,0.5-3.9,0.5
			c-4,0.2-6.1,2.1-6,6.2c0,0.8-0.2,1.6-0.3,2.5c-0.4,2.1-0.3,4.9-2.8,5.3c-2.1,0.4-3.1-2.1-4.2-3.8c-1.6-2.6-2.8-5.3-2.7-8.4
			c0.6-2.7,3.3-2.7,5.7-3.5c-3.3,0.4-6.1,2.8-8.4-1.1c2.5-2.3,5.8-0.8,8.6-1.7c2.4-0.7,5.1-1.1,4.8-4.6c-0.2-1.9-0.8-3.3-3.2-2.4
			c-1.9,0.7-3.8,1.1-5.9,0.5c-1.4-0.4-2.4-1.2-2.5-2.7c-0.1-1.4,0.9-2.1,2-2.6c3.1-1.4,6.4-1.8,9.7-2.4c3.8-0.7,5.8-2.3,4.1-6.4
			c-0.4-1.1-0.4-2.3,0.2-3.4c3.2-1.3,6.7-0.8,10-1.2C284,153.6,285.3,156.7,287.1,158.8z"/>
		<path fill="#A11F29" d="M238,72c3.4-3.9,7.2,0.2,10.9-0.4c1.6-0.3,3.5,1.2,4.1-1.6c6.7,0.6,13.4,1.4,20.2,1.9
			c1.8,0.1,2.7,0.6,2.9,2.5c1,8.8,2.1,17.5,3.1,26.2c0.2,0.8,0.7,1.6-0.2,2.2c-0.8,0.5-1.3-0.2-1.6-0.7c-1.4-2-1.4-4.4-1.8-6.7
			c-1.2-6.4-1.7-6.4-7.1-3.3c-9.2,5.3-18.7,10-28.2,14.7c-1.3,0.3-2.6,0.4-4,0.2c-4-0.4-5.2-2.7-3.2-6.1c0.9-1.6,2.6-2.6,2.9-4.6
			c0-0.3-0.1-0.6-0.5-1.1c-2.3-0.1-3.4,2.2-5.2,3.1c-2.2,1.1-4.6,1-4-1.9C228.3,87.6,227.9,77.2,238,72z"/>
		<path fill="#A92732" d="M240,106c9.9-6.3,21.1-10.2,30.8-16.8c2.9-2,4.9-1.4,5.3,2.7c0.3,3.1,0.9,6.2,1.9,9.2
			c0.8,2.4,0.8,0,1.2-0.4c2,7.1,2.6,14.3,3,21.6c0.1,1.4,0.3,2.5,0.8,3.7c-3.2,1-2.7-1.6-3.2-3.3c-1.6-14-2.4-14.4-16-11.4
			c-9.5,2.1-16.1,8.5-23.3,14c-7.8,6-14.8,12.9-16.9,23.3c-0.2,1.2-0.7,2.7-2.5,2.6c-0.5-0.4-1-0.9-1.1-1.5
			c-0.7-3.7-2.8-4.8-6.4-3.5c-1.3,0.5-2.8,0.9-4.3,0.2c-0.7-4.3,0.5-8.4,2.8-11.7c5.4-7.8,10.4-15.9,17.5-22.3
			C232.6,109.5,235.9,107.1,240,106z"/>
		<path fill="#E5E4E9" d="M275,255c-2.9,4.2-3.4,9.2-4.8,13.9c-2.5,8.6-6.8,16.4-11,24.2c-2.5,4.8-4.7,9.7-8.2,13.9
			c-1.5,1.8-2.8,3.4-5.3,4.1c-3.1,0.9-5,2.9-2,6.2c3.4,3.6,2.9,8.4,1.9,12.3c-1.3,5-1.3,10.1-2.7,15c-1.1,3.9-3.1,6.3-7.5,4.6
			c-1.5-0.6-2.9,0-4.3,0.5c-3.8,1.1-6.4-0.8-8.4-3.7c-2.1-2.9,0.2-4.9,1.8-7c0.5-0.6,1.2-1.2,1.7-1.8c0.9-1.2,3.5-1.5,2.4-3.7
			c-1-2-2.7-3.4-4.9-4c-2.3-0.6-3.3,1.5-3.1,2.9c0.7,4.1-1.5,4.8-4.7,6c-4.6,1.7-8.1,5.6-12.1,8.6c-1.1-1.6,0.7-3.8-1.1-5.2
			c2.7-4.2,6.9-6.9,10.1-10.6c2.9-3.4,6-6.5,8-10.8c-1.2-0.7-3.2,0.1-4-1.7c0.7-2,2.6-2,4.1-1.9c5.3,0.6,8.7-1.9,10.7-6.6
			c0.3-0.7,0.9-1.3,1.5-1.9c3.7-4.4,8.4-7.3,13.9-9.2c6-2.1,9.6-7.6,12.2-12.7c3.6-7,7.9-13.9,9.2-21.9c0.7-4.4,3-8.1,4.4-12.1
			c0.6-1.8,1.4-4.2,4.1-4.4C277.5,250.6,275.1,252.5,275,255z"/>
		<path fill="#561210" d="M86,303c-1.7,2.7-3.1,2.3-3.9-0.5c-0.8-2.7-1.1-5.5-1.1-8.3c0.1-53.9,0.2-107.9-0.1-161.8
			c-0.1-11.5-1.9-23-2.7-34.6c-0.4-5-0.2-10-0.3-15c0.2-7.8,0.5-15.6,0.7-23.4c0-2.9,0.9-4.2,4-4.1c6.1,0.1,12.3-0.1,18.4-0.1
			c-4.2,1.8-8.6,0.3-12.9,0.9c-1.2,1-3,1.3-4.1,2.5c-2.5,6.9-0.6,13.9-0.1,20.7c0.5,6.9,1.1,13.9,1.4,20.9
			c1.6,43.9,1.5,87.9,1,131.8c-0.1,9.2,0.3,18.5-0.5,27.8c-1.1,13,0,26.1,0.6,39.2C86.5,300.4,86.3,301.7,86,303z"/>
		<path fill="#B83B46" d="M281,122c0.2,1.5-0.7,3.6,1.9,4c0.4,2.9,0.8,5.9,1.2,8.8c0.5,0.9,0.3,1.9,0.4,2.9c0.2,2.4-0.8,2.9-2.9,1.9
			c-7.1-3.6-12.6,1-18.4,3.7c-1.9,0.8-0.1,3.7-2.3,4.5c-11.1,2-16.3,6.7-17.3,15.4c-0.4,4.1,1.6,7.8,2,11.7
			c-0.2,1.8-0.2,3.6-2.4,4.3c-1.9-0.6-2.1-2.3-2.7-3.9c-1-2.9-2.4-5.4-5.2-6.9c-3.2-1.7-3.4-3.9-1.6-6.9c1.7-2.8,3.2-5.7,5.1-8.5
			c0.5-0.2-0.6-0.7-0.2-0.2c0.2,0.2,0.1,0.3-0.2,0.5c-1,0.6-1.9,0.4-2.7-0.3c-1.5-3.2,0.7-5.4,2.2-7.7c8.7-13.2,21.3-21,36.3-25
			C276.7,119.7,279.1,119.7,281,122z"/>
		<path fill="#C53C4A" d="M272,208c5.5,8.2,5.7,8.3,17.4,5.6c2.4-0.6,4.1-0.7,5.6,1.4c1.6,9.6,3.5,19.2,4.1,29
			c-0.5,0.2-1.1,0.2-1.3-0.2c-1.9-4.7-5.1-4.6-8.9-2.6c-2.1-1-3.6-3-6-3.5c-0.9-0.2-1.9-0.3-2.8-0.4c-4.6-0.6-8.9,2.4-13.6,1.4
			c-1.9-2.2,1.9-5.1-0.8-7.2c1.5-6.2,2.2-12.6,3.8-18.9C270,210.8,269.9,208.8,272,208z"/>
		<path fill="#B31B1F" d="M289,303.1c-3.2,0.4-6.4,0.7-9.5,1.2c-1.3,0.2-2.2,0.3-2.3-1.3c3.2-10.8,8.4-20.7,12.8-31
			c5.6-6.2,10.9-5.5,14.3,1.7c2,3.4-0.2,7.1,0.7,10.5c0.1,1.3,0.1,2.6,0.2,4c1,9.1,1,9.1-7.5,12.4
			C294.8,301.6,291.8,302.3,289,303.1z"/>
		<path fill="#DDDACA" d="M159,59.1c-1,0-2,0-3,0c1.5-13.4,3.7-26.6,11.9-37.9c8.4-11.6,24.6-15.8,36.7-8.7
			c7.7,4.5,10.8,12.2,12.4,20.6c-2.4,1.9-4.9,2.6-7.5,0.3c-1.2-1.5-1.5-3.3-2.1-5c-2.6-7.2-7.6-10.8-15-10.9
			c-6.6-0.1-11.3,3.4-13.9,10.8c-2.6,7.5-3,15.2-2.6,23.1c0.2,3.8,1.3,7.6-0.9,11.2c-1.9,1-3.7,1.1-5.2-0.6
			c0.5-9.4-0.9-18.9,0.9-28.3c1.2-6.2,3-11.9,7.4-15.8c-6.1,4.4-10.3,10.9-12.8,18.6c-1.9,5.9-3.4,11.8-4.1,18
			C161,56.1,160.8,57.9,159,59.1z"/>
		<path fill="#BF4651" d="M260.8,147.1c-1.3-2.9,0.3-4.7,2.7-5.8c3.6-1.6,7.3-3.1,11.1-4.2c3.2-0.9,6.5-1,9.1,3.4
			c0.2-2.9,0.3-4.3,0.4-5.8c1.5,7.9,2.7,15.9,3,24c-0.4,0.2-0.2,2.4-1,0.7c-2.1-4.2-4.8-5.3-9.1-3.7c-2,0.8-4.2,0.1-6.2-0.7
			C267.1,152.9,263.7,150.3,260.8,147.1z"/>
		<path fill="#BDBCC0" d="M280.7,236.7c0.8,0.3,1.5,0.6,2.3,0.9c-6.1,1.1-5.5,6-5.9,10.3c-5,6.5-6.1,14.7-9.1,22
			c-4.4,10.8-8.2,22.2-18.5,29.4c-1.7,1.2-3.6,1.8-5.4,2.1c-4.7,0.8-6.4,5.3-10,7.4c-1.5-3.1,1.1-5,2.2-7.4c0.7-1.1,1.6-2.1,2.2-3.3
			c2.3-4.6,5.6-7.9,10.8-9.4c5.9-1.7,9.9-5.6,11.8-11.6c0.2-0.4,0.5-0.8,0.8-1.2c2.7-3.6,4.3-7.6,4-12.2c0-1,0.2-1.9,0.4-2.9
			c0.5-1.7,1.2-3.3,2.3-4.7c2.7-4.3,5.2-8.7,6.3-13.8C275.5,239.8,276,235.9,280.7,236.7z"/>
		<path fill="#ECEAE8" d="M185,447c0.1,0.8,0.4,1.6,1.3,1.9c4.8,1.3,18.2-5.1,20.6-9.9c0.6-0.5,1.2-1.1,1.9-1.5
			c0.8-0.5,1.5-1.7,2.5-0.9c1.2,1,0.1,2-0.5,3c-6.5,10.2-16.7,13.7-27.9,15.4c-7.7,0.8-14.7,3.9-22,6c-0.9-1.7-1.1-3.4-0.4-5.2
			c0.8-1.2,2-1.9,3.2-2.7c2.2-1.4,4.8-1.9,7.1-3c1.3-0.6,2.7-1.1,4.1-1.4C178.4,448.4,181.3,445.4,185,447z"/>
		<path fill="#C12633" d="M303.1,274c-3.2-6.2-4-6.4-13.2-2c0.8-4.5,1.2-9.1,2.4-13.6c1.6-6.4,0.6-12-3.3-17.2
			c4.5-4.8,6.8-4.2,10.1,2.8c0.3,1.3,0.7,2.6,1,3.9c3,6.5,1.9,13.7,3.5,20.4C304.1,270.2,304.6,272.2,303.1,274z"/>
		<path fill="#ECEBDB" d="M210.1,33c2.3,1.7,4.6-0.6,6.9,0c2.2,10.9,4.9,21.8,6.1,32.9c-1,0-2,0.1-3,0.1c-4-6.5-3.5-14.1-4.6-20
			c1.8,5.7-0.7,12.8,0.5,19.9c-2.1,0.5-3.8-1.7-5.9-1c-0.8-0.9-1.2-2-1.1-3.2c1-9,0.6-18,0.4-26.9C209.3,34.1,209.6,33.5,210.1,33z"
			/>
		<path fill="#D7D1D1" d="M303.1,274c-1-8.7-2-17.4-3-26.1c1.9,0.3,2.9,1.4,2.9,3.4c-0.1,7.7,1.9,15.1,2.9,22.6
			c0.5,3.5-0.2,6.9-1,10.3C304.3,280.8,303.7,277.4,303.1,274z"/>
		<path fill="#872526" d="M67.9,294.7c0.1,4.3,0.2,8.6,0.2,12.9c0,6.8,4.9,9.6,11.3,6.4c-0.9,1.3-1.8,2.5-2.6,3.8
			c-4.2,1.8-10-1.4-9.8-5.5C67.1,306.4,66.4,300.5,67.9,294.7z"/>
		<path fill="#E9E7E1" d="M164,454c-1,0.7-2,1.3-3,2c-2.3,1.5-3.1,4.2-5,6c-0.4,0.8-1.2,1-2,1c-2.9,1.2-6.5-0.9-9,2
			c-1.6,0.9-2.9,2.4-5,2c-3.1,1.3-6.4,1.7-9.6,2.3c-2.8,0.6-5.4,1.5-7.4,3.7h0c-3.1-0.2-6.3-0.5-8.8,2.1c-0.8,0.8-2.1,0.9-3.3,1
			c-10.6,1.1-20.8,4.2-30.9,7.5c-10.9,3.5-21.1,8.6-31.7,13c-7.1,2.9-12,7.5-16,13.6c-3.3,5.1-3.7,3.8-9.2,2.1
			c-6.7-2.1-8.1-5.6-7.4-11.5c0.1-0.7-0.4-1.3-0.9-1.7c-4.5-3.4-3.9-8.3-2.4-12.3c2.7-7.5,4.5-15.3,7.2-22.7
			c1.8-4.9,4.1-9.5,3.2-14.9c4.4,0.4,5,3.6,5.1,7c0,2.6-0.7,5.2-1.6,7.7c-1.1,3-0.9,5.8,1.1,8.3c0.7,2.1-0.5,3.9-1.2,5.7
			c-1.6,4.2-0.7,7.9,2,11.2c2.5,3.1,5.8,2.4,9.2,1.5c12.5-3.2,24.8-7,37.2-10.9c10.4-3.3,21.3-5.2,31.6-8.8
			c12-4.3,24.9-5.9,36.5-11.7c5.5-2.7,11.9-2.9,17.5-5.5C161.5,452.9,162.9,452.9,164,454z"/>
		<path fill="#ECE8E4" d="M23,449c4.5,6.2-1.1,11-2.4,16.3c-1.3,5.6-3.2,11.1-5.1,16.5c-1.3,3.7-3.2,7.3-2.5,11.4
			c0.2,1,0,2.7,0.4,2.8c5.6,1.7,3.5,6.1,3.6,9.8c0,0.3,0,0.7,0,1c0.1,1.4,1.2,3.5,2,2.7c4.5-4.2,7.2,9.3,11.5,1.1
			c4.3-8.3,11.2-12.6,19.5-16.4c10.5-4.8,21.2-9.3,32.2-12.7c9.3-2.8,18.4-6.4,28.4-6.5c1.3,0,2.9,0.2,3.7-1.1
			c2.5-4.4,5.5-3.2,8.7-0.9c-4.8,3-10.4,4.4-15.6,5.7c-10.3,2.5-19.7,7.1-29,11.6c-4.3,2.1-8.3,0.9-12.3,2
			c-6.4,1.7-11.4,5.9-17.1,8.7c-3.3,1.6-6.1,4.3-9.8,5.5c-2.3,0.8-4,3.8-5.7,6c-6.1,8-14.9,8.1-21.2,0.5c-1.8-2.1,0-5.6-3.2-6.9
			c-3.4-2.7-2.7-6.7-3.7-10.2c-1.8-6.1-0.4-9.1,4.2-12c0.4-0.2,0.6-0.8,0.7-1.3c1.9-7.9,5-15.3,8.6-22.6c2.7-5.5,0.9-11.3-0.8-16.9
			C21.8,443.3,22.8,445.8,23,449z"/>
		<path fill="#ECE8E4" d="M123,473c1-2.5,2.3-4,5.4-4.2c3.9-0.2,7.8-1.2,11.6-1.8C134.8,470.3,128.4,470.3,123,473z"/>
		<path fill="#ECE8E4" d="M156,462c0-3.4,1.2-5.7,5-6c-0.3,1.7,1.1,3.3,0,5C159.3,461.3,157.7,461.7,156,462z"/>
		<path fill="#ECE8E4" d="M145,465c0.3-3,2.4-3.2,4.7-2.9c1.5,0.2,2.9,0.6,4.3,0.9C151.2,464.7,148.2,465.1,145,465z"/>
		<path fill="#DDDCE1" d="M23,449c-1.6-2-2.4-4.8-5-6c-0.3-2.4,0.3-4.6,3-4.8c5-0.4,9.4-2.7,14-4.2c5.6,0.4,10.6-2.3,16-3
			c-0.4,3.3-3.3,3.3-5.5,4.1c-2.5,0.3-4.9,0.9-7.2,1.7c-2,0.7-4.6,0.8-5.2,3.2c-0.6,2.6,2.3,3.3,3.7,4.8c2,2.1,3,4.8,3.3,7.6
			c0.4,3-0.4,5.7-3.7,6.7c-3.6,1.1-4.9,3.3-4.2,7.1c0.6,3.6-0.8,6.1-5.1,5.8c-4.1-0.6-3.2-3.7-2.7-6.1c0.5-2.5,1.2-5.1,2-7.6
			C27.7,454.1,25.9,451.5,23,449z"/>
		<path fill="#87181D" d="M169.8,61.3c1.8,1,3.6,0.6,5.4,0.1C181,60.9,186.6,62,192,64c1.9,4-2.2,6.4-2.8,9.8
			c-0.7,4.1-2.7,8.8-6.2,11.5c-9.8,7.4-13.5,18.9-19.9,28.6c-1.2,1.8-2.1,3.7-3.7,5.3c-6.6,6.7-6.4,16.4-10.4,24.2
			c-0.4,0.8-0.4,1.9-0.8,2.8c-3.7,7.5-3.6,8.1,3.8,10.8c-0.7,1.3-1.9,1.9-3.2,2.2c-3.7,0.8-4,3.1-3.5,6.3c0.6,3.3,1.9,4.8,5.3,3.5
			c0.6-0.2,1.3-0.3,1.9-0.5c6.3-1.4,7.5-0.4,7.7,6.3c-0.2,1.3-0.2,3-1.6,3.4c-7.4,2.2-6.9,8.2-6.8,13.9c0,1.5,0.3,3-0.6,4.3
			c-1.5,1.8-3.7,2.2-5.8,2.5c-4.5,0.6-5.8,3.1-6.2,7.4c-0.6,8-1.6,16.1-3.3,24c-0.3,1.2-0.7,2.4-1,3.6c-2.9,4.2-7.7,7-9.2,12.2
			c-1.4,2.4-2.5,5.1-4,7.4c-1.6,2.4-3.2,4.8-4.3,7.5c-0.6,1.5-1.1,3.1-3.1,3.2c0.4-17.8-1.6-35.5-2.6-53.2
			c-1-17.2-1.1-34.4-3.3-51.6c-0.9-7-0.3-14.3-0.3-21.4c0.9-1.5-2.1-6.8,3.6-3.5c1.3,0.7,2.1-0.6,2.3-1.9c1-4.4,3.2-7.6,6.9-10.7
			c2.6-2.3,6.7-5.1,6.8-10.3c0-3,3.4-5.1,6.5-6.2c3-1,5.8-1.9,4.3-6.2c-0.5-1.4,0.7-3,2.2-3.5c8.5-2.6,10.3-10.8,14.6-16.9
			c0.9-1.4,1.5-3.4,2.7-4c6.3-3,7.1-7.8,5.1-13.7C165.3,59.2,167.6,59.1,169.8,61.3z"/>
		<path fill="#E1E0E5" d="M115,365c-4.3-3.4-5.7-9.6-3.1-15.6c1.2-2.7,0.9-4.8-0.9-6.8c-1.3-1.4-2.5-2.8-1.8-4.8
			c0.7-2.2-0.9-2.9-2.3-3.8c-1.6-1-2.4,0.1-3.4,1c-1.2,1.1-2.5,2.2-3.8,3.1c-1.4,0.9-3.2,1.5-4.6,0.1c-1.5-1.5-3.2-3.6-2.6-5.6
			c2-5.9,6.7-10.1,10.1-15.1c0.2-0.3,0.9-0.5,1.4-0.4c2.6,0.2,5.7,2.8,6.4-2.8c0.4-2.8,1.6-5.1,0.4-8.3c-1.4-3.6-2.7-8,3.8-9.6
			c2.8-0.7,6-3.5,2.5-7.6c-1.5-1.7-1.2-4-0.4-6.2c0.6-1.5,0.7-3.2-0.9-4c-1.8-0.9-3.2,0.4-4.3,1.6c-1,1.1-1.9,2.4-2.4,3.7
			c-1.3,3.5-4,4.6-7.3,4.9c3.1-6,6.1-12,9.2-17.9c7.4,1.9,14.1,5,20.6,9c7.1,4.4,10.4,3.7,16-3c5.6-6.8,10.9-14.2,6.5-23.9
			c-1.7-3.5-1-6.8,2.2-8.6c3-1.7,5.5,0.6,7.6,2.7c2.8,6.9,0.2,13.7-0.5,20.5c-2.2,7.9-3.7,16-9.1,22.6c-7.3,9.5-14.8,19-21.6,28.9
			c-5.4,6.1-8.8,13.4-13.4,20.1c-0.5,0.1,0.8,0.7,0.4,0.2c-0.1-0.1,0.1-0.2,0.4-0.3c0.7-0.4,1.5-0.7,2.2-0.1c0,5.5-4,9.5-5.5,14.5
			c-1,3.3-1.5,5.9,0.5,8.8C117.2,363.9,116.3,364.7,115,365z"/>
		<path fill="#4C1110" d="M83,56.3c1.7,0,3.3-0.1,5-0.1c1.3,4.7,0.8,9.5,1,14.3c1.3,39.6,0.9,79.3,1,118.9c0,33.5,0,67.1,0,100.6
			c0,2.5-0.8,5.7,3.2,6.1c-1.4,1.6-2.8,3.3-4.1,4.9c-0.7,0.3-1.4,0.7-2.1,1c-1.8-1.7-1.4-3.9-1.5-6.1c-0.9-15.8-0.1-31.5,0-47.3
			c0.1-24.9-0.1-49.8,0.1-74.7c0.3-25.1-0.7-50.1-1.2-75.2c-0.2-11.4-0.9-22.8-2.1-34.2C82,61.8,82.5,59,83,56.3z"/>
		<path fill="#BFBDC3" d="M155.1,252.9c2.5,4.4,2.6,8.7,0.3,13.3c-2.2,4.4-3.8,9-7.6,12.6c-6.2,5.8-12.3,6.3-19.2,1.3
			c-4.3-3.1-8.3-6.8-14.2-6.1c-2.4,0.3-2.1-2.2-3.4-3c0.3-2.6,3.2-4,3.3-6.7c2.7-3.6,3.3-8.4,6.8-11.5c0.9,0,1.3,0.5,1.4,1.2
			c0,2.5-1.9,4.2-2.8,6.3c-0.8,1.4-1.5,2.9-2,4.4c-0.3,0.8-0.6,1.6-1,2.3c-1.7,2.7-2,3.7,2.2,4.4c6.8,1.2,13.9,0,20.4,3.5
			c3.4,1.8,8.9-1.3,11.4-5.2c1.9-3,3-6.3,3.1-9.9c0-2.1-0.3-4.3,0.8-6.3C154.7,253.2,154.9,253.1,155.1,252.9z"/>
		<path fill="#FCFBFB" d="M78,417c-3.1-0.1-4.9-0.6-1.8-3.8c7.8-7.9,15.9-15.6,23.2-24c3.5-3.9,5-8.9,8.2-12.9
			c0.4-0.5,0.4-2.1,0.1-2.3c-4.3-2.7,0.9-5.2,0.2-8.1c-0.3-1.4,2.4-0.9,3.7-0.7c1.5,0.3,0.9,1.4,0.3,2.3c-0.9,1.1-2.7,2.3-1.4,3.8
			c1.5,1.7,3.1,0,4.4-0.8c1.3-0.9,2.6-1.5,4.1-1.4c0.2,0.1,0.5,0.2,0.7,0.3c3.4,3,7.5,1.9,10.9,0.9c5.7-1.6,11.1-0.4,16.1,1.4
			c8.1,2.9,15.9,6.7,20.4,14.9c2.6,4.6,7.2,7.8,10,12.4c0.4,2.8,4.6,6.2-1.3,8.1c-3.2-0.1-5.2-2.6-7.8-4.1c-0.4-0.3-0.8-0.5-1.2-0.9
			c-3.8-3.3-6.8-7.5-11.4-10.1c1.8,4,4.4,7.3,6.6,10.9c1.1,1.7,2.2,3.4,2.5,5.4c0.4,2-0.4,3.4-2.5,3.4c-5.5-0.1-10.2,2.6-15.1,4.4
			c-6.8,2.6-13.5,3.9-20.4,1.4c-5.9-2.2-12.5-1.9-17.9-5.5c-2.3-1.5-5.2-0.8-7.8-0.5c-1.8,0.2-3.4,0.1-4.3-1.7
			c-0.9-1.8-0.1-3.2,1.1-4.6c2.7-3.1,5.8-5.8,8.4-9c-4.7,3.4-8.7,7.5-13.1,11.3C88.1,410.9,84.3,415.9,78,417z"/>
		<path fill="#C1C0C3" d="M78,417c4.7-3.3,9.3-6.6,14-10c1.2-0.6,2.5-2.5,3.9-1c1.5,1.6-0.1,3.1-1.1,4.3c-2,2.4-4.4,4.6-7,6.4
			c-3,2.1-5.7,4.5-9,6.3c-8.3,4.5-16.5,9.2-24.9,13.6c-2.8,1.5-5.8,2.4-9,2.5c-1.5,0-3.4,0.2-3.9-1.5c-0.5-1.8,1.3-2.5,2.6-3.1
			c0.4-0.2,0.9-0.3,1.3-0.6c2.3-0.4,4.3-1.3,5.9-3c0.7-0.3,1.3-0.7,2-1c2.8-1,5.5-2.2,8-3.9C66.2,422.1,72.7,420.7,78,417z"/>
		<path fill="#CAC8C5" d="M115,365c0.7-0.7,1.3-1.3,2-2c7,1.4,12.7-2.8,18.8-4.7c1.8-0.6,3.7-1.6,5.7-0.8c1.5,1.3,0.1,1.9-0.7,2.7
			c0,0-6.6,8.5-6.6,8.5c-2.8,0.2-5.5,0.4-8.3,1.2c-2.4,0.7-4.9,1.1-7-0.8c0,0,0,0,0,0C117.8,367.6,115.7,367,115,365z"/>
		<path fill="#DDDCE1" d="M61,426c-2.1,2.5-4.7,3.9-8,3.9C55.4,428,58,426.7,61,426z"/>
		<path fill="#9E212B" d="M240,106c-12,6.6-18.9,18-26.7,28.5c-2.6,3.4-1.8,8-4.3,11.5c0.4,0.4,0.6,0.9,0.6,1.4
			c-2,5.7-3.3,11.8-7.6,16.4c-5.5-0.7-10.7,0.3-15.9,1.8c-2.3-0.3-4.7,0.1-6.8-1.2c-0.1-0.1-0.2-0.4-0.2-0.4c5.7-3.9,2.3-9.2,2-14
			c1.6-1.4,3.1-2.6,3.2-5.2c0.1-2,1.2-4.3,2.6-5.8c4.7-5,7.7-10.9,8.8-17.5c0.8-5,3.4-8.7,7.1-11.5c5.9-4.4,9-10.9,13.3-16.5
			c5.2-6.9,11-13.3,17.3-19.1c1.4-1.3,2.9-2.2,4.8-2.3c-2.8,4.2-9.2,7.8-8.4,12.2c1,5.5-3.2,8.9-2.5,14c2.9,0.1,4.2-2.3,5.9-3.8
			c1.2-1,2.5-2,3.9-0.7c1.4,1.3,1.3,2.9,0.2,4.5c-0.2,0.3-0.4,0.5-0.7,0.7c-1.4,1.7-4.4,3-3.2,5.6C234.6,107.4,237.7,105.5,240,106z
			"/>
		<path fill="#FFFFFF" d="M192,64c-5.8,0.3-11.3-1.2-16.8-2.6c-0.9-10.1-1.2-20.1,0.8-30.1c2.5-12.1,10.9-17.6,22.5-14.3
			c5.6,1.6,8.4,6.1,10.3,11.2c0.6,1.5,0.8,3.2,1.2,4.8c1.5,9.2,1.3,18.3,0.3,27.5c-0.2,1.5-0.2,3-0.3,4.4
			C203.9,65.9,198,63.5,192,64z"/>
		<path fill="#F2F2F1" d="M181,150c3.3,3.2,2.7,7.6,3,11.4c0.2,2.8-3.8,0.7-5.1,2.5c-5,2.1-5.8,5.6-4.7,10.7
			c1.5,6.6,2.3,13.4,3.2,20.2c0.8,5.8-0.1,6.9-5.8,8.3c-0.8,0.2-1.6,0.4-2.4,0.5c-6.1,1.1-6.8,0.5-7.7-5.6c-1-7.7-2.6-15.3-2.4-23.1
			c-0.5-6.6-0.7-7.1-8.2-4.3c-5.1,2-6.2,0.6-6.7-4.1c-0.7-6.3-1-6.2,7.8-9.4C161.8,155.1,171.4,152.8,181,150z"/>
		<path fill="#FEFDFD" d="M215.9,65.9c-1.6-1.2-2.2-2.8-1.9-4.7c0.7-5.7,1.4-11.3,1.7-17c1.5,7.3,2.9,14.6,4.4,21.9
			C218.6,66.7,217.3,66.5,215.9,65.9z"/>
		<path fill="#FEFEFE" d="M169.8,61.3c-2.3-0.1-4.5-0.1-6.8-0.2c-1.3-0.8-3.2-0.4-4-2c1.8-10.4,3.1-21,8.2-30.6
			c3.4-6.3,8.1-11.3,15.6-14.8c-2.3,4.1-5.8,5.9-7.4,9.3c-5,10.5-4.9,21.6-3.9,32.7C171.7,58.1,172.1,59.9,169.8,61.3z"/>
		<path fill="#CECDCE" d="M192,442c-1,2-2.9,2.6-5,3c-3.6,1.6-7.3,3.1-11.2,4c-6.7,1.9-13.5,1.4-20.3,1c-11.3-0.7-22.2,0.9-32,7
			c-13.7,8.5-28.7,13-44.7,14.5c-4.2,0.4-8.2,1.1-12.3-0.5c-4.4-1.8-7.2-4.8-7.7-9.6c-0.4-3.8-1.4-7.6-0.3-11.4
			c0.6-2,1.8-3.4,2.9-5.1c3.4-5,6.7-7.9,13.8-8.2c8.6-0.3,17.2-3.5,25.9-0.2c8.3,3.2,17.5,3.6,25.6,2.2c10.9-1.8,22-3.3,32.7-6.2
			c9.1-2.5,18.1-1.9,27.1,0.8C191.8,435,193.2,437.3,192,442z"/>
		<path fill="#D9D8D7" d="M192,442c0.3-4.3-2.1-6.5-6-7.5c-9.3-2.3-18.4-2.6-27.8-0.2c-7.3,1.9-14.8,3.3-22.4,3.7
			c-0.7,0-1.4-0.1-2,0.1c-12.7,4.4-25.2,2-37.6-1.5c-4-1.1-8.2,0.1-12.2,0.1c-5,0-9.5,5.4-14.9,1.2c-1.6-1.2-2.8,0.6-3,2.6
			c-0.1,1.5,0.8,3.6-1.4,4.3c-6.3,2-5.3,7-4.9,11.7c0.1,1,0.2,2,0.3,3c0.3,7.4,5.9,12.5,13.3,11.3c12.8-2.2,26.1-2.5,37.8-9.1
			c4.3-2.4,9.1-3.9,13-7.1c5.4-4.4,12.5-3.7,18.8-5.6c8.2-2.5,16.5,0.7,24.7,0.1c2.8-0.2,5.6-0.2,8.3-1.1c0.6,1.1-0.5,1.4-1,2
			c-1.3,0.3-2.7,0.7-4,1c-5.8,1.7-11.6,2.4-17.6,2.5c-7.9,0.2-15.5,3.1-22.2,7.1c-8.8,5.3-18.4,7.8-28.1,10
			c-7.6,1.7-14.8,4.6-22.5,6.2c-8.5,1.7-16.8,4.1-25.4,5.3c-2.3,0.3-4.6,0.3-7-0.2c-7.3-1.5-10.1-5-10.2-12.4c0-1.4,0.2-2.7,1.2-3.7
			c3.3-3.2,3.5-6.9,3.4-11.4c-0.2-5.1-3.2-7.2-6.7-9.4c-2.7-0.5-4.7-2.1-4.8-4.8c-0.2-3,2.9-3.3,4.9-4c2.9-1,6-1.5,9-2.2
			c-0.9,1.3-3,1.5-3.4,3.7c4.2,0.6,7.8-0.4,11.4-2.2c8.7-4.3,16.8-9.9,25.9-13.6c0.1,3.4,2.3,4.7,5.2,5c5.6,0.5,10.9,2.7,16.7,1.9
			c5.4-0.7,10.2,2.5,15.6,3c14,1.3,27.7-0.4,41.5-3.1c11.9-2.3,23.8-2.6,34.5,4.9c2.3,1.6,4.6,3.1,2.5,6.4
			C194.4,441.3,193.4,442,192,442z"/>
		<path fill="#ECEBF0" d="M119,369c3.3,0.2,6.7,0.1,9.7-1.4c2.3-1.2,4.2,0.3,6.3,0.4c8.9,0.9,17.9,0.5,26.8,0.7
			c3.9,0.1,7.6-1,11.4-1c1.8,0,3.7-0.2,5.4,0.8c0.6,0.4,0.7,0.9,0.5,1.6c-1.4,0.1-2.9-0.5-4,1c-3.5,2.3-7.4,0.9-11.2,1.3
			c-2,0.2-4-0.2-5.6,0.1c6.8,5.2,12.7,11.5,17.8,18.6c4.8,5.9,5.8,6.1,11.6,1.9c0.3-0.2,0.6-0.6,0.8-0.6c5.9,1.3,7.8-4.5,11.8-6.6
			c1.9-1,3.3-2.7,3.5-4.6c0.4-5.8,5.2-4.5,8.2-4.8c3.1-0.4,5.1,4.8,3.4,7.7c-0.6,1-1.3,2.3-2.2,2.6c-6.1,2.3-5.5,9.3-9.3,13.1
			c-0.9,0.9-0.9,2.1-0.6,3.3c2.3,7-1.2,11.8-6,16.1c-5.2,4.8-5.3,5.9-0.8,11.6c2.1,2.7,3.9,5.2,0.6,8.1c-4.4-6.1-8.2-12.6-11.8-19.3
			c-3.2-6-12.4-5.1-15.7,1.3c-1.9,3.7-4.5,4.7-8.1,4.2c-4.3-0.6-8.1,0.5-12.2,1.5c-11.6,2.8-23.3,3-34.8-0.8
			c-7.9-2.6-16.2-3.6-24.2-5.5c-2.3-0.6-5-0.8-3.3-4.4c3.2-2.7,6.5-5.4,8.9-8.9c-1.5-1.5-2.6,0.3-3.8,0c4.8-4.3,9.6-8.6,14.4-12.9
			c0.6-0.5,1.3-1.3,2.1-0.5c0.9,0.9,0.3,1.9-0.4,2.6c-2.9,3-5.9,5.9-8.8,8.9c-1.1,1.2-2.8,2.2-2,4.2c1,2.3,2.8,0.7,4.3,0.7
			c3.7-0.2,6.9,1.1,10.4,2c11.2,3.1,22.3,8.8,34.8,2.8c4.6-2.2,9.5-5.8,15.6-4.2c1.5,0.4,1.6-1.4,1.1-2.5c-0.8-1.6-1.6-3.3-2.6-4.8
			c-2.1-3.2-4.3-6.3-6.3-9.5c-0.8-1.2-2.3-2.8-1.1-4c1.5-1.5,3.1,0.3,4.2,1.3c3.5,3.5,6.9,7.2,10.4,10.8c-1.8,1.6-2.9-0.7-4.5-0.8
			c1.5,1.7,3.1,3.1,5.1,4.4c0.4-1.4-1.6-2.3-0.7-3.7c2.9,0.3,4.3,3.4,7,4c1.4,1.4,3.1,2.4,4.7,0.8c1.5-1.6-0.2-3-1.1-4.2
			c-0.8-1.2-1.7-2.4-2.6-3.6c-6.7-6.2-10.5-14.9-17.8-20.4c-6.5-4.9-14.3-7.4-22.3-8c-3.8-0.3-7.7,1.2-11.6,1.7
			C121,372.6,119.5,372,119,369z"/>
		<path fill="#E2E1E6" d="M87,416c0.1,1.3,0,2.7,1.9,3c6.5,0.9,12.8,2.8,19.3,3.8c4.8,0.7,9.1,2.7,13.9,3.6
			c11.2,2.1,21.9,0.8,32.5-2.6c3.2-1.1,6.1,0.9,9.3,0.4c2.1-0.3,4.1-0.4,4.1-3.2c0-2.8,1.3-3.9,3.9-4.1c0.8-0.1,1.7-0.3,2.3-0.8
			c2.6-2.3,5.1-4.2,8.4-1c2.2,2.2,4.6,3.8,5.8,7.2c1.4,4.1,2.9,8.6,6.7,11.4c1.8,1.3,2.1,3.3,1.9,5.4c-0.7,0.3-1.3,0.7-2,1
			c0.2-2.2-0.5-3.5-2.5-4.9c-11.3-7.6-23.3-6.8-36-4.7c-8.1,1.4-16.1,4.1-24.9,2.9c-5-0.7-10.4,0.6-15.7-0.1
			c-3.4-0.4-6.4-1.7-9.6-2.4c-3-0.7-5.9-0.2-8.8-0.4c-6.5-0.4-13.1-1.4-19.2-3.7c-3.2-1.2,0.3-3.1,0.6-4.8C81.6,420,84.3,418,87,416
			z"/>
		<path fill="#949090" d="M201.1,349.1c-2.7,4-5.3,8-8,12c-1.7,3.3-5.6,2.2-8.1,3.9l0,0c-1.6,2-3.7,3.1-6.4,3
			c-4.1-0.2-8.1,0.6-12.1,1c-4,0-7.9,0-11.9,0c-1.8,0-4.1,0.2-4.5-2.1c-0.5-2.7,2.1-3,3.9-3.5c2.5-0.7,5.1-1.2,7.3-2.9
			c2.7-2,3.8-4.2,0.8-6.8c-0.3-3.5-3.5-4.4-5.8-6c-0.9-2.4-0.6-4.5,1-6.5c2-0.1,3.2-0.6,3.5-3.2c0.5-3.8,1.2-7.7,4.1-10.7
			c1.9-0.7,3.9-1.4,6-0.8c1.6,1,2.5,2.7,2,4.3c-1.8,5,0,10.2-0.8,15.2c-0.6,3.5,0.8,4.4,3.8,3.4c3.2-1,6.2-2.4,9.1-4.1
			c2.4-1.4,2.5-3.7,2.6-6.1c0.2-5.3,0.7-10.6,1.7-15.8c4.4-2.6,9.1-4.2,14.3-2.9c0.4,3.8-3,2.7-4.8,3.8c-2.5,0.2-2.7,2-2.7,3.9
			c0,4.6,0.2,9.3-2.7,13.4c-1.3,1.8-0.1,2.7,1.7,3c1.7,0.3,3.3-0.4,4.8-1c0.5-0.2,1-0.2,1.4-0.3C206,345.7,201.2,347.2,201.1,349.1z
			"/>
		<path fill="#FCFBFB" d="M176,391c-4.5-3.9-9.1-7.7-12.4-12.8c-2.2-3.4-6.4-3.6-9.1-7.2c6.8,0,13.6,0,20.5,0
			c-0.3,2.8,0.5,5,2.5,7.2c2.4,2.6,4.6,5.6,5.8,9.2c0.6,1.8,1.4,3.6-0.4,5c-1.5,1.2-3.1,0.6-4.6-0.5
			C177.7,391.4,176.8,391.3,176,391z"/>
		<path fill="#B3B0AF" d="M166,368c6.5-0.1,12.8-0.8,19-3c0,0.3,0,0.7,0,1c-1,3-3.3,3.3-6,2.9c-12.2,1.1-24.4,1.3-36.6,1.2
			c-2.7,0-5.3-0.2-7.4-2.2c-4.4-4.3-4.4-4.2,1.4-7.2c1.8-0.9,4.3-0.8,5.5-2.8c0.7-2.8,3.2-2.8,5.1-2.9c5.1-0.2,6.9-2.9,7.2-7.5
			c0.2-3.8,1.4-7.5,2.5-11.2c0.3-1.1,0.7-2.3,2.1-2.5c1.3,0.9,1.4,2.3,1.4,3.7c-0.1,1.5-0.6,2.7-2,3.5c-0.8,2.3-1.5,4.6-1.1,7
			c0.3,0.4,0.4,0.9,0.4,1.4c-0.7,7.6-0.7,7.6-10.6,10c3.9,3.3,0.6,5.3-1.9,7.8C152.3,368.7,159.1,369.1,166,368z"/>
		<path fill="#FCFBFB" d="M179,368.9c2-1,4-1.9,6-2.9c1.5,0,3,0,4.5,0c1.5,0,2.7,0.4,2.3,2.3c-0.7,3.1,0.4,5.8,1.6,8.5
			c0.2,0.4,0.5,0.9,0.5,1.4c0.1,3-0.9,6.2-3.4,7.2c-2.6,1-3.1-2.4-3.8-4.2c-1.6-4.4-5.5-7.2-7.7-11.2C179,369.6,179,369.3,179,368.9
			z"/>
		<path fill="#DEDCDB" d="M175,450c0.3-0.7,0.7-1.3,1-2c3.9,0,7-3.2,11-3c-0.4,1-1,1.6-2,2C181.7,448,178.3,449,175,450z"/>
		<path fill="#BAB8B7" d="M201.1,349.1c-1.3-1.7,4.2-3.5-0.1-5.1c-0.2-1.6,0.9-1.8,2-2c6.4,0.6-0.2,3.5,0.9,5
			C202.9,347.6,202,348.4,201.1,349.1z"/>
		<path fill="#B3B0AF" d="M185,365c2-2.7,6-1.5,8.1-3.9C192,365.7,187.8,363.9,185,365z"/>
		<path fill="#531210" d="M83,56.3c0.9,3.8,0.7,7.8,0.8,11.7c0.4,11.6,1,23.2,1.4,34.8c0.5,15.1,0.8,30.2,0.8,45.4
			c0,48.5,0,97,0,145.5c0,2.9,0.2,5.6,1,8.4c-0.3,0.3-0.7,0.7-1,1c-0.3-1.3-1-2.6-0.9-3.8c0.4-11.4-1.3-22.7-0.6-34.2
			c0.5-8.1,2.2-16.7-0.1-25.1c-0.7-2.7,0.6-5.9,0.6-8.8c0.1-28.3,0.4-56.6-0.1-84.9c-0.3-15.6-0.6-31.2-1-46.8
			c-0.3-11.5-2-23-2.6-34.6C81.1,62,81.4,58.8,83,56.3z"/>
		<path fill="#FCFBFB" d="M272,208c-1.6,6.7-3.9,13.3-3.7,20.2c0.1,2.6-1.2,2.8-2.5,3.6c-2.7,3.6-7,3.3-10.3,2.6
			c-4.1-0.8-1-4.1-0.7-6.4c1.2-3.3,1.6-6.8,2.5-10.1c0.8-3.2-0.6-5.9-2.2-8.4c-3.7-5.5-7.2-11.1-10.8-16.7c-2.3-3.6-2.1-4.4,2-5.4
			c3.1-0.8,6.2-2.5,9.6-1.4c0.8,1.9,1.6,3.9,2.5,5.8c1,2,2.3,3.9,3.9,6.7c1.5-4.4,2.4-8.2,2-11.8c-0.3-2.6,0.8-2.8,2.5-3.2
			c3.4-0.8,6.7-1.6,10.6-2.5C275.3,190.3,273.1,199,272,208z"/>
		<path fill="#FDFCFC" d="M260.8,147.1c4.1,1.7,7.6,4.2,10,8c2.7,9.7,2.7,9.7-7.2,11.9c-2.1,0.5-4.2,0.9-6.3,1.5
			c-0.8,0.2-2.2,0.2-2.1,1.6c0.1,1.2,1.2,1.5,2.2,1.8c2.1,0.8,3.9,0.2,8.7-2.6c0.2,0.2,0.6,0.4,0.7,0.6c2.2,8.8,0.1,11.4-9.1,11.5
			c-1.5,0-3-0.1-4.5-0.2c-4.3,0.1-6.2-2.9-8.1-6.1c-1.9-5-3.4-9.9-2-15.4C245.2,151.3,250.7,147.3,260.8,147.1z"/>
		<path fill="#BC434D" d="M245,175.1c2.6,2.1,4.7,4.9,8.1,6.1c2.4,1.8,5.1,0.4,8,1.1c-1.6,1.6-4.3,1.5-5.1,3.8
			c-4,1.1-8,2.2-12.4,3.3c3.9,6.1,7.5,12.4,11.8,18.2c3.4,4.6,4.3,9.1,2.5,14.4c-0.7,2-1.2,4.1-1.8,6.2c-4.3,0.2-6.5-2.5-8.2-6
			c-2.6-6.4-3.3-13.2-4.3-19.9c-0.7-4.5-2.4-6.9-6.8-7.8c-1.6-0.3-3.2-1-4.8-1.5c-2.6-0.8-5.2-1.6-7.2-3.7c1.6-3.6,0.2-7.1-0.3-10.6
			c-0.2-1.4-0.7-3.1,1-4c1.6-0.9,3.2-0.4,4.6,0.7c1.8,1.3,3,3.1,3.6,5.2c0.6,2.1,0.9,4.4,4.1,3.7c2.5-0.5,5.1-0.8,4.7-4.4
			c0-0.3,0.3-0.6,0.5-0.8C243.7,177.7,244.4,176.4,245,175.1z"/>
		<path fill="#AD333D" d="M281,122c-5.1-1.9-9.8-0.1-14.3,2c-12,5.4-22.6,12.5-29.3,24.3c-0.8,1.5-1.6,2.9-1.4,4.7
			c-0.4,1.3-1.3,1.9-2.5,2.2c-3.2,0.6-5.3,2.3-6.6,5.4c-0.5,1.4-1.7,2.7-3.4,2.5c-1.8-0.2-2.2-2-2.4-3.4c-0.3-2.8-2.1-5.7,0-8.6
			c2.3-2.6,1.8-6.2,3.2-9.2c4.4-9.9,13.2-15.3,20.9-22c7.8-6.7,16.8-10.1,26.9-11.5c4.1-0.5,6.4,0.1,7.1,4.5
			C279.6,115.9,280.4,118.9,281,122z"/>
		<path fill="#FBF9F9" d="M221.2,151c0.6,3.9,1.2,7.8,1.8,11.7c3-5.2,6.6-9.4,13-9.8c1.1,0,2.2,0,3.9,0c-2,3.6-3.9,7.1-5.9,10.6
			c-0.5,0.9-1.8,2.3-0.1,2.8c6.2,2,7.2,7.6,9.1,12.6c0.5,1.5,1.1,3.1,1.7,4.8c-1.6,0.4-3.3,0.7-4.8,1.2c-4.1,1.5-7.5,1.9-7.2-4.2
			c0-1-0.8-2.2-1.4-3.1c-1.1-1.7-2.7-3.4-4.9-2.6c-2.2,0.9-0.4,2.9-0.4,4.4c0,1.8,0.2,3.8,1,5.3c1.5,2.7-0.3,3.3-2.1,4.1
			c-6,3.7-8.8,2.9-9.7-3.6c-1.9-12.8-5.6-25.3-6.2-38.3c0-0.4,0-0.7,0-1.1c0.8-0.2,1.6-0.3,2.4-0.5
			C219.1,143.4,219.1,143.4,221.2,151z"/>
		<path fill="#9E1B1B" d="M171,327c-2,0.4-4,0.7-6,1.1c-1.8,1.1-4,1.1-5.9,1.9c-4.6,1.5-9.3,2.1-14,2.7c-3-0.1-5.9,0.6-8.9,1
			c-1.9,0.3-4.6,1.2-5-1.3c-0.4-2.5,2.5-2.7,4.4-3c13.8-2.2,27.4-5.3,41.2-7.7c9.5-1.7,18.9-3.6,28.4-5.2c4-0.7,7.5-2.5,10.6-3.9
			c-8.2-3.8-12.1-12.1-17.5-19.1c-0.2-0.4-0.4-0.9-0.6-1.3c-4.5-8.6-4.5-8.7,4.1-13.6c1.6-0.9,2.6-2.1,2.8-3.9
			c0.5-3.7,2.6-6.8,4.1-10.1c1.3-2.8,3.1-4.3,6.3-3.3c7.6,4.9,15.7,8.6,24.2,11.6c3.8,1.3,6.3,3.6,6.1,8c-0.2,4.8-3,8.7-4.4,13
			c-1.2,2.7-2.7,5.3-3.9,8.1c-1.2,2.2-2.6,4.4-3,7c-0.6,1-1.4,1.9-1.8,2.9c-1.9,4.2-4.6,6.6-9.6,5.9c-1.9-0.3-4,0-5.7,1.1
			c-4,2.1-8.1,3.3-12.6,2c-4.9,0.2-9.7,1.4-14.3,2.9c-1.5,1.6-3.5,1.5-5.4,1.5c-3.6-0.3-7.1,0.8-10.6,1.3C173,327,172,327,171,327z"
			/>
		<path fill="#FEFDFD" d="M204.3,320.9c4.2-0.7,8.2-2.4,12.6-2c1.8,0.1,3.5,0.2,5.7,0.4c-4.3,9.8-11.9,16.2-19.5,22.7
			c-0.7,0.7-1.4,1.3-2,2c0,0,0,0,0,0c-5.8,1.6-7.3,0.4-5.9-5.1c0.9-3.6,1-7.1,1-10.8c0-1.9-0.4-4.1,2.1-5
			C200.3,322.7,202.5,322.4,204.3,320.9z"/>
		<path fill="#B62E3A" d="M248.9,221.8c1.4,3.3,4.3,4.8,7.2,6.4c-0.5,1.8-0.9,3.7-1.5,6c4-0.8,7.6-1.5,11.2-2.3
			c7.2,1.9,0.2,4.1,0.1,6.1c-0.9,2.4-3.7,2.4-5.1,4.3c-0.5,0.5-1,0.9-1.5,1.3c-0.3,0.3-0.7,0.5-1.1,0.8c-3.1,1.9-2.8,5.2-3.5,8.1
			c-0.2,0.4-0.5,0.7-1,0.9c-0.5,0-0.9-0.2-1.3-0.5c-5.5-5.7-11.9-10.5-17.5-16.2c-4.8-4.9-4.7-4.9-0.4-10.4c0.5-0.7,0.8-1.4,1.2-2.2
			C239.8,221.4,244.2,220.8,248.9,221.8z"/>
		<path fill="#A39796" d="M259.8,241.9c1.3-2.5,3.9-2.8,6.1-3.9c5,0.4,9.6-3.4,14.8-1.2c-4.6,1.3-4.8,5.6-5.4,9.1
			c-0.8,4.6-3.9,7.6-6.1,11.2c-2-2.3-0.4-4.4,0.5-6.4c0.6-1.4,1.8-2.4,2.4-3.8c0.7-1.9,1.8-4.2,0.7-5.7c-1.2-1.7-3.3,0.2-5,0.3
			C265.1,241.8,262.6,244.3,259.8,241.9z"/>
		<path fill="#79726E" d="M259.8,241.9c4.4,0.1,8.3-2,12.5-3c1.5-0.4,3.1-0.7,2.5,1.3c-1,3.2,0,7-3.1,9.7c-2.1,1.8-2.9,4.4-2.7,7.2
			c-0.7,1.3-1.3,2.7-2,4c-1.2,3.7-3.4,7-4.1,10.9c-0.6,3.8-3.3,6.4-6.5,7.6c-5.9,2.3-9.8,6.5-12.9,11.7c-1.1,1.1-1.6,3.2-3.9,2.4
			c0.7-4.4,4.1-8,4.2-12.6c1.1-3.1-0.1-7.1,3.4-9.3c0.9-0.1,1.2,1,2,1.1c0.5-1.6-0.8-2.8-0.9-4.3c0.2-1.6,0.2-3.3,2.3-3.9
			c2.2,1,2-1.3,2.3-2c2.4-5.7,4.5-11.5,6.2-17.5c0.2-0.8-0.4-1.5-0.6-2.3C259.1,242.6,259.4,242.2,259.8,241.9z"/>
		<path fill="#A1A0A2" d="M239.8,293.7c1.6-0.2,2.4-1.5,3.1-2.8c5-6.5,11.9-10.4,19.1-14c-1.4,8.6-7.9,11.7-15.1,14
			c-3.1,1-4.7,3.3-6.3,5.8c-1.1,1.8-2.4,3.5-3.6,5.2C237,298.9,238.9,296.5,239.8,293.7z"/>
		<path fill="#949293" d="M262,277c-5.8,5.4-13.3,8.5-19.1,14c2.4-5.2,5.9-9.4,11.4-11.6c4.4-1.7,7.2-4.3,7.9-9.6
			c0.4-3,1.8-6.6,4.8-8.7c-0.1,1-0.1,1.9-0.2,2.9C265.3,268.3,265.2,273.3,262,277L262,277z"/>
		<path fill="#A39796" d="M262,277c2.5-4,1.7-9.2,4.9-13C267.3,269.1,265.8,273.5,262,277z"/>
		<path fill="#DEDCDB" d="M36,445c1.6,0.5,3.2,0.8,4.7,1.4c1.9,0.8,3.9,1,2.7,4.7c-1,2.9,1.8,6.6,0.6,10.3c-0.4,1.3-0.4,2.6-1.7,3.4
			c-2.2,1.2-4.4,3-3,5.4c1.9,3.3,0.2,8.3,6.3,9.8c6.3,1.6,12.2,0.3,18.1-0.6c8.2-1.3,16.5-3.4,24.4-5.9c7.5-2.3,15.1-4.5,22.7-6.2
			c12.9-2.8,23.3-11.8,36.2-14.3c2.4-0.5,4.8-1.5,7.3-1.1c5.7,0.9,11.1-0.8,16.7-1c-2,1.8-4.8,1.6-7,3c-8.3,3.1-17.2,4.1-25.2,8.3
			c-4,2.1-8.7,3.2-13.2,4.2c-10.3,2.3-20.1,6.5-30.4,8.8c-14.6,3.3-28.6,8.7-43.2,12.1c-4.8,1.1-9.6,2.9-14.5,4.4
			c-4.1,1.3-8,1.3-10.5-1.8c-2.8-3.6-4.5-8.2-2.1-13c0.8-1.6,1.4-3.4,2-5c3.1-1.4,5.5-2.8,3.6-7.1c-1.4-3.1,0.7-6.1,3.5-6.6
			c6-0.9,5.3-4.3,4-8.3C37.5,448.3,36.7,446.7,36,445z"/>
		<path fill="#971A1F" d="M215,262c-6.5-0.6-5.2,6-8,8.9c-1,1-0.7,3.1-1.1,4.7c-0.6,2.1-1.3,3.8-4,4.5c-6.6,1.8-7.3,3.9-4.1,9.7
			c0.6,1,0.8,2.2,1.2,3.2c-3.9,0.5-6.7-2-8.9-4.4c-4-4.3-9.8-6.2-13.3-11c-0.7-0.9-2-1.2-3.1-1.4c-3.2-0.4-5.5-2.1-6.9-5
			c-0.9-2.1-2.9-2.5-4.7-3.3c0.8-7,2.8-13.9,0.7-21c-0.7-1.8-3.8-3.2-0.8-5.5c2.4-1.1,5.1-1.6,7.6-2.1c3.1-0.5,3.7-1.4,2.1-4.5
			c-6.2-11.5-12.7-22.9-18.9-34.4c-0.8-1.4-1.8-2.8-1.9-4.5c-1.7-5.7-0.8-11,2.1-16.1c0.9-1.6,0.9-4.4,4.4-2.5
			c1.8,1,1.2-1.6,1.6-2.6c1.4,8.5,3,17,4.1,25.5c0.3,2.4,0.8,3.2,3.2,2.6c3.3-0.9,7.9-0.7,9.8-2.9c1.8-2.1-0.6-6.4-1-9.7
			c-0.9-6.1-1.8-12.2-2.7-18.2c-1.1-7.1-1.2-7.1,6.5-8.1c2.3,0.7,5.1-1,7.2,1.2c0.4,1.5-0.7,2.5-1.4,3.5c-6.5,9.6-4.5,19.8,5,26.1
			c1.7,1.3,3.8,0.8,5.7,1.1c1,0.2,2.1,0.2,2.5,1.2c0.5,1.2-0.7,1.7-1.4,2.3c-1,0.9-1.6,2-2.4,3.1c-0.6,0.3,0.2,0.2-0.4,0.3
			c-8.3,1.1-8.3,7.4-8.4,13.5c-0.1,1.9,0.6,5-1.4,5.4c-2.6,0.5-2.4-2.9-3.4-4.6c-0.3-0.6-0.5-1.2-0.8-1.8c-3.5-8.2-3.5-8.2-12.8-4.8
			c4.7,7.3,8.9,14.8,13.4,22.2c1.5,2.4,3.2,3.6,6.2,2.7c2.9-0.8,3.3-2.9,3.3-5.4c0-1.8-0.1-3.7,0.4-5.5c0.4-1.4,0.7-3.3,2.4-3.4
			c1.4-0.1,2,1.5,2.6,2.7c0.6,1.2,1.1,2.4,1.5,3.7c1.3,3.4,3.1,5.5,7.1,3.8c1.2-0.5,2.6-0.5,3.9,0.2c1.2,2.6-0.9,3.2-2.5,3.7
			c-4,1.3-3.9,3-2.1,6.5c2.3,4.6,4.4,9.3,7,13.7C211.5,257.9,215.1,258.5,215,262z"/>
		<path fill="#E7E7E7" d="M151,196c2.7,2.2,3.7,5.5,5.3,8.3c6.4,11.4,12.7,22.9,19.2,34.7c-4.2,1.6-8.8,2.4-13.2,3.2
			c-1.6,0.5-2.1-0.8-2.9-1.7c-1.1-2.4-3.3-2.2-5.4-2.3c-6-0.9-11.4-4.3-17.6-4.4c-1.4,0-2.3-1.2-1.4-2.9c1.2-10,2.5-20.1,3.5-30.1
			c0.2-1.7,0.9-1.7,2-2C144,197.9,147.5,196.9,151,196z"/>
		<path fill="#706C6B" d="M121.9,254c-0.3-0.4-0.6-0.8-0.8-1.2c1.3-2.3,2.6-4.7,3.9-7c0.1,0.1,0.4,0.3,0.4,0.2
			c3.9-4.1,8.4-3.3,13.3-2.4c7.2,1.3,7.3,0.9,9.4-6.9c1.1-0.4,1.9,0.2,2.6,1.1c1.2,1.9,1.7,4,1.2,6.2c-0.6,2.5-0.6,4.8,0.6,7.2
			c0.7,1.3,0.9,3.2-0.1,4.3c-3.2,3.7-5.9,8.1-10.1,10.8c-2.1,1.4-4.5,1-6.7,0c-4.3-2-8.8-2.9-13.4-3.8c-2.1-1.7-0.9-3.4,0.1-5
			C123.2,256.1,124,254.9,121.9,254z"/>
		<path fill="#5E524C" d="M148,237c1.9,5.7-0.6,8.9-6.2,8.1c-3.1-0.4-6.1-0.2-9.1-1.7c-2.2-1.1-4.6,1.3-6.4,6
			c-2-0.7-0.9-2.5-1.2-3.8c1-5.5,5.4-8.4,9.2-11.8C139.2,233,144,233.1,148,237z"/>
		<path fill="#C1B7B5" d="M148,237c-4.2-2.6-8.9-3.2-13.8-3.1c0.2-1-0.2-2.2,0.8-3c0.3,0.5,0.7,1.6,1,1.6c6.9-0.4,12.7,3.9,19.4,4.6
			c1.8,0.6,2.9,2.4,4.9,2.8c0.7,0.7,1.4,1.5,2.1,2.2c-1.6,1.8,1.1,3.1,0.6,4.8c-2.2-0.3-4.1-3.5-6.4-1.5c-2.2,1.8-2.9,4.6-1.3,7.5
			c0,0-0.2,0.1-0.2,0.1c-0.5,0.2-0.9,0.2-1.4-0.1c-2-2.6-3-5.2-1.7-8.6c0.9-2.2-0.3-4.5-1.8-6.3C149.5,237.3,148.9,237,148,237z"/>
		<path fill="#8E1918" d="M162.1,268c2.7-1.8,4.4-0.7,5.4,2c1.2,3.3,3.3,5.2,7.1,5.2c1.8,0,3.5,1,4.5,2.8c0.4,0.7,0.9,1.6,1.5,1.9
			c6.8,3.4,11.4,10.1,18.5,13.1c6.1,6.5,9.9,15,18.4,19.4c-5,5.1-11.6,5.4-17.9,6.6c-22.2,4.2-44.5,8.2-66.7,12.3
			c-0.4,0.1-0.7,0.6-1.4,1.2c5,1.1,9.2-2,13.7-1c-1.6,3.4-5.1,2.5-7.8,3.5c-3.5,0.1-6.8,1.5-10.3,1.2c-2.9-0.3-3.9-1.6-2.3-4.3
			c2.5-4.3,5-8.6,7.7-12.7c5.8-8.8,14.1-15.7,18.7-25.3c0.6-1.3,1.2-2.7,2.1-3.8C157.9,283.4,160,275.7,162.1,268z"/>
		<path fill="#FEFEFE" d="M137.2,334c2.6-0.8,5.3-1.6,7.9-2.5c4.7-0.9,9.3-1.7,14-2.6c0.5-0.4,0.9-0.4,1.3,0.1
			c0.6,1.9,0.1,3.5-1.4,4.8c-1.9,5.6-3.5,11.3-3.7,17.2c-0.1,3.3-1.6,4.4-4.3,4.7c-3.1,0.4-6.2,0.5-9,2.2c-4.7,0.5-9.3,2-13,4.5
			c-4.3,2.8-7.9,2.4-12,0.6c-3.5-2.2-3.5-4.9-1.8-8.4c2.5-5.1,4.6-10.4,6.9-15.6c-0.2-3,1.7-3.6,4.1-3.5
			C129.9,335.8,133.5,334.8,137.2,334z"/>
		<path fill="#C7BFC0" d="M137.2,334c-2.9,1.9-6.1,2.2-9.5,2c-2.6-0.2-4.6,0.6-5.7,3c-1.8,0.7-2.5,2.5-4.4,3.3
			c3.6-8.5,7.7-16.7,14.3-23.4c0.4-0.3,0.7-0.3,1.1,0.1c-1.8,5.7-5.8,10.2-8.3,15.6C129.1,335.7,133.1,333.9,137.2,334z"/>
		<path fill="#CAC3C5" d="M133,319c-0.4,0-0.7,0-1.1-0.1c3-6.7,8.2-11.9,12.5-17.6c2.8-3.8,4.9-8.2,8.7-11.2
			c-1.1,5.9-4.3,10.7-7.9,15.2C141.3,310,137.1,314.4,133,319z"/>
		<path fill="#818182" d="M150,238c2.7,1.5,3.7,4.2,2.8,6.7c-1.2,3.2-0.3,5.7,1.2,8.3c0.6,5-0.3,9.9-1.7,14.5
			c-1.5,4.9-7.1,7.2-12.9,5.2c-4.5-1.5-9.3-2.4-13.2-5.5c-2-1.6-4.2-1.6-6.6-0.9c-1.7,0.5-3.6,0.5-2.7-2.3c0.3-1.6,0.9-2.9,2.1-4
			c1,0.6,1.9,1.4,2.9,1.9c4.8-0.9,9.1,0.6,13.2,2.7c3.9,2,6.8,1.5,9.6-1.8c2-2.4,3.4-5.4,6.3-7c0.8-0.5,1.3-1.5,0.9-2.1
			C148.8,248.8,151.9,243.1,150,238z"/>
		<path fill="#A1A1A6" d="M116.9,264c0.3,0.9,0.7,2.4,1.8,1.5c3.9-3.1,6.6-0.2,9.8,1.5c4.6,2.5,9.4,4.8,14.7,5
			c5.8,0.2,9.2-3,8.7-8.8c-0.3-3.7,2.1-6.6,2-10.1c0.3,0,0.6,0,0.9,0c0.3,5.3,0.6,10.6-2.1,15.6c-3.8,7-9.5,9.5-16.8,6.4
			c-6.2-2.6-12.8-1-19.1-2.4c-1-0.2-2.4,0.7-3.2-0.3c-1-1.3,0.1-2.5,0.7-3.7C115,267.1,116,265.5,116.9,264z"/>
		<path fill="#5E524C" d="M121.9,262c-2.5,1.6-2.9,0.2-2.9-1.9c0.1-2.4,2.3-3.8,2.9-6c1-0.1,1.4-2.4,2.6-1.1c0.9,0.9,0.7,2.5,0,3.7
			C123.6,258.3,121.6,259.5,121.9,262z"/>
		<path fill="#F1F0F4" d="M176,399c1.4,1.2,2.7,2.4,4.1,3.6c1.3,1.2,2.3,2.5,1.7,4.4c-0.4,1.5-1.6,2-3.1,2c-2.1,0.1-3.6-0.6-3.8-3
			c2.1,0,3.6-0.4,2.5-3C176.9,401.7,176.5,400.3,176,399z"/>
		<path fill="#AA2934" d="M194,202c-1.3-3,1.3-3.4,3.2-4.6c-2.8-1.1-5.9,0.8-8.2-1.5c5.7-1.6,11.3-3.4,17.1-4.2
			c3.3-0.5,5.2-1.3,3.8-5.3c-0.8-2.3-0.9-4.9-1.3-7.3c-0.9-6-1.5-12-6.9-16.1c2.4-5.4,4.8-10.7,7.2-16.1c2.8,5.1,2.5,10.9,3.6,16.3
			c1.6,7.6,3.2,15.3,4.1,23.1c0.4,4,1.7,4.3,4.8,3.1c1.1-0.4,2.3-0.4,3.4-0.6c2.7,0.2,4.6,2.2,7,3c-1.1,1.5-2.9,1.5-4.4,2.1
			c-10.7,4-14.2,18.5-6.4,26.8c3.2,3.5,7,5.7,11.9,3.9c0.9-0.3,1.9-0.5,2.8,0.3c0.1,0.4,0.4,1,0.2,1.2c-4.8,6.6-4.8,6.6,1.8,11.8
			c4.7,3.7,8.4,8.5,13.5,11.7c1.4,0.9,1.5,2.1,1.5,3.4c0.8,1.2,0.9,2.3-0.6,3.1c-2.9-2.5-6.1-4.4-9.8-5.6
			c-11.4-3.5-18.8-12.8-27.7-19.8c-3-2.3-4.9-3.5-7.8-0.8c-1.3-1-1.2-2.4-0.9-3.7c2.1-9.2,4-18.5,5.9-27.6c-0.2,0.1-0.6,0.3-1.1,0.4
			c-6.3,0.8-10.2,3.6-9,10.7c0.1,0.6-0.1,1.3-0.3,2c-0.5,1.5-0.5,3.7-2.4,3.9c-1.7,0.1-2.3-1.8-2.7-3.1
			C195.7,209.1,191.9,206.3,194,202z"/>
		<path fill="#F6F5F5" d="M201.8,163.1c5.4,1.4,6.7,5.3,7.3,10.4c0.7,6,1.5,12.1,3.7,18.5c-8.3-0.4-15.3,5.6-23.7,4
			c-11.6-7.6-12.8-20-3-30.9C191,162.2,196.2,161.5,201.8,163.1z"/>
		<path fill="#E2E1E6" d="M197,406.9c0,1,0.1,1.5,0,2c-0.4,2,1.3,5.2-2.7,5.1c-2.9-0.1-4.5-1.6-3.9-4.9c0.2-1-0.5-2.2-0.9-3.2
			c-0.9-2.4,0-4.3,1.6-5.9c1-1.1,2.5-1.1,3.7-0.3c1.9,1.2,3.3,2.8,2.6,5.4C197,405.7,197,406.5,197,406.9z"/>
		<path fill="#E2E1E6" d="M168,402c0.1,0.1,0.2,0.3,0.2,0.4c0.7,1.9,4.5,3.2,2.9,4.8c-1.8,1.8-3.8-1.4-5.7-2.4
			c-0.7-0.4-1.3-1.1-1.8-1.7c-0.9-1.2-3.5-2.2-2.1-3.9c1.8-2.1,2.5,0.9,3.7,1.6C166.2,401.4,167,402,168,402L168,402z"/>
		<path fill="#878384" d="M171,327c0.7-0.3,1.3-0.7,2-1c3.7-0.7,7.5-0.8,11.1-2c1.9-0.1,3.9-0.1,5.8-0.2c-0.3,6.3-0.7,12.5-0.9,18.8
			c-0.1,1.2-0.3,2.4-1.5,3c-4.2,2.2-8.3,4.7-13.1,5.4c-3.7,0.5-5.4-1.6-3.8-4.9c0.8-1.6,1.8-2.8,0.7-4.5c-1.7-2.5-1.3-4.9,0-7.5
			C172.6,331.8,172.3,329.3,171,327z"/>
		<path fill="#A4A09E" d="M166,368c-7.3,2.2-14.7,0.4-22.1,0.9c-0.7,0-1.5-0.3-1.5-1c0-1.3,1.1-1.9,2-2.6c1.2-0.9,3.5-0.9,3.3-3.1
			c-0.2-2.3-2.7-1.8-5.1-3.2c6.4-2,14.8-0.2,14.2-10c1,2.2,2.4,4,5.1,4c1.8,0.4,3.7,0.6,4,3c0.3,2.3-1.1,3.5-2.7,4.9
			c-3,2.8-6.7,3.3-10.4,4.1c-1,0.2-2.2,0.4-2.2,1.6c0.1,1.1,1.3,1.4,2.3,1.4C157.4,368,161.7,368,166,368z"/>
		<path fill="#BAB8B7" d="M198.2,323.2c-2.3,6-1.1,12.4-2.5,18.6c-0.8,3.4,3.4,1.7,5.3,2.2c-1.5,2.1-3.7,2-5.8,2
			c-1.5,0-3.1,0-3.8-1.7c-0.7-1.6,0.3-2.6,1.4-3.8c3.3-3.6,2-8.1,2.3-12.4C195.1,325.8,194.5,323.1,198.2,323.2z"/>
		<path fill="#878384" d="M159.7,329.2l-0.4,0c0,0-0.3-0.2-0.3-0.2c1.8-1.6,3.9-0.9,5.9-0.8c-0.9,4.2-3.4,8-3,12.5
			c0.1,1.2-0.2,2.5-1.4,2.8c-2,0.5-1.2-2-2.4-2.5c0.3-1,0.6-2,0.9-2.9C159.2,335.1,160.6,332.2,159.7,329.2z"/>
		<path fill="#878384" d="M162,353c-4.9,1.9-4.9,1.9-5.1-4c0-0.3,0.1-0.6,0.1-0.9C160,348.4,164.5,347.3,162,353z"/>
		<path fill="#A4A09E" d="M159.7,329.2c2.4,3.1-0.1,5.9-0.6,8.9c0-1.4-0.1-2.8-0.1-4.2C159.2,332.3,159.4,330.8,159.7,329.2z"/>
		<path fill="#BC5E65" d="M255.4,161.8c-1.4,0.2-2.5,0.1-2.2-1.3c0.5-2.1,1.9-3.5,4.2-3.5c1.7,0,3.6,0.9,3.4,2.2
			C260.3,162.1,256.9,160.6,255.4,161.8z"/>
		<path fill="#F9F7F7" d="M235.9,224.9c-9.7,3.1-16,0.2-19.1-8.8c-3.3-9.4,1-19.9,9.4-22.9c1.8-0.7,3.8-0.9,5.8-1.3
			c0.5,0.1,1,0.2,1.5,0.3c9.8,2.1,10,2.5,11.9,12.1c1.1,5.8,1.5,11.8,3.6,17.4C244.6,223,240,223,235.9,224.9z"/>
		<path fill="#A81D29" d="M208,230.1c1.7-5.9,1.7-5.9,5.9-1.7c3.7,3.7,8.7,6.3,12.2,10c6.4,6.9,14.2,10.3,22.7,13.2
			c1.8,0.6,3.2,2.3,3.4,4.6c1.3,1.3,1.1,3,1,4.6c-0.4,1.6-0.7,3.1-2.1,4.2c-0.6,1.4-1.3,2.8-1.9,4.2c0.4,1.2,0,2.2-1,2.9
			c-2.2,2.7-2.5,6.2-4,9.1c0.4-7.6-6.4-6.9-10.6-9c-6.3-3.1-13.4-4.8-18.5-10.1c-6.1-5.1-10.2-11.6-12.3-19.3
			c-0.2-0.7-0.9-1.4-1.5-2c-2.9-2.8-1.6-4.5,1.5-5.8c1.8-0.8,4.5-0.4,5.2-3.2C207.4,231.2,207.4,230.6,208,230.1z"/>
		<path fill="#8E1918" d="M184.1,324c-3.5,1.8-7.3,2.2-11.1,2C176.6,324.6,180.3,323.9,184.1,324z"/>
		<path fill="#6B6059" d="M251,264.9c-0.1-1.4,0.3-2.6,1-3.8c1-2.7,1.1-5.5,2-8.2l0,0.1c1.4-3.3,1.1-7.4,4.3-10c0,0,0.4-0.1,0.4-0.1
			c2.3,0.2,2.9,1.7,2,3.4c-3.1,5.8-3.4,12.7-7.3,18.3c-0.7,1-0.5,2.5-0.8,3.9C250.2,268,251.3,266.1,251,264.9z"/>
		<path fill="#A8716F" d="M258.2,243c-1.8,3.2-1.6,7.2-4.3,10C253.7,249,254.1,245.2,258.2,243z"/>
		<path fill="#A8716F" d="M254,253c0.1,2.9-0.1,5.8-2,8.2c0-1.7,0.1-3.3,0.1-5c1-0.8,1-1.9,0.9-3C253.4,253,253.7,253,254,253z"/>
		<path fill="#6B6059" d="M248,272c0.3-1,0.7-1.9,1-2.9c1.2,0.5,1.9,1.4,1.9,2.6c0,1.3,0.4,3.2-1.1,3.4
			C247.7,275.5,248.2,273.4,248,272z"/>
		<path fill="#F2F1F1" d="M208,230.1c0,0.5-0.1,1.1-0.1,1.6c-9.7,1.5-9.7,1.5-13.9-7.8c-0.4-0.9-0.8-1.7-1.5-3.1
			c-1.5,4-1.4,7.8-1.4,11.4c0,1.9,0.3,3.8-2.4,3.8c-2.8,0-5.8,3.6-8.3-0.9c-4.1-7.2-8.5-14.3-12.8-21.4c-0.8-1.4-1.8-2.7-2.8-4.2
			c0.3-0.2,0.5-0.5,0.7-0.5c3.9-0.9,8.5-3.6,11.4-2.3c2.7,1.2,3.4,6.6,5,10.2c0.5,1.2,1,2.4,1.9,4.6c0.2-3.6,0.3-6.1,0.5-8.6
			c0.2-2.9-0.7-6.8,0.9-8.3c1.9-1.9,5.8-1.9,8.9-2.6c0.5,4.9,3.7,8.7,5.6,14.2c1.5-5,1.3-9.2,1.5-13.3c0.1-1.3-0.5-2.6,1.5-3
			c3.7-0.7,7.3-1.7,11.3-2.6c-2.1,10-4.1,19.5-6.1,29C207.5,227.7,206.6,228.9,208,230.1z"/>
		<path fill="#902123" d="M148.5,214c1.5,3.4,3.1,6.8,4.5,10.3c0.4,0.9,1.9,2.1,0.4,3c-1.5,0.9-3.4,1.6-5.2,1.1
			c-1.4-0.4-0.7-2-0.7-3.1c0-3.8,0-7.6,0-11.4C147.9,213.9,148.2,213.9,148.5,214z"/>
		<path fill="#9E585A" d="M160.1,240c-0.3,0.7-0.4,1.9-1.5,0.9c-1.2-1.1-2.2-2.4-3.3-3.6C158,236.1,159.5,237.2,160.1,240z"/>
		<path fill="#9F242C" d="M190.5,178.9c0.4-2.7,1.5-5.2,4.8-5c4.5,0.2,3.3,4.2,3.7,6.8c0.5,2.9-1.7,3.8-4,3.7
			C191.7,184.4,190.6,182,190.5,178.9z"/>
		<path fill="#B33842" d="M226.6,209.3c0.3-2.9,1.2-5.4,4.6-5.4c4.8,0,3.3,4.2,3.9,6.7c0.6,2.6-1.4,3.6-3.5,3.7
			C228.2,214.5,227,212.3,226.6,209.3z"/>
	</g>
</g>
</svg>
