
<svg xmlns="http://www.w3.org/2000/svg" version="1.1" xmlns:xlink="http://www.w3.org/1999/xlink" preserveAspectRatio="none" x="0px" y="0px" width="209px" height="84px" viewBox="0 0 209 84">
<defs>
<g id="Symbol_10_0_Layer0_0_FILL">
<path fill="#626262" stroke="none" d="
M -30.9 114.15
L -30.75 115.8
Q -29.25 118.6 -27.7 121.15
L -26.15 121.15 -30.9 114.15 Z"/>

<path fill="#2E2D2A" stroke="none" d="
M -38.9 100.3
Q -39 100.15 -39.6 99.45 -40.05 98.9 -40.55 98.85 -36.45 106.95 -36.1 107.6 -33.45 112.55 -30.75 115.8
L -30.9 114.15 -38.9 100.3 Z"/>

<path fill="#3F1010" stroke="none" d="
M -90.95 72.6
Q -91.4 71.6 -92.4 71.35 -101.9 68.4 -109.95 63.85
L -109.95 63.9 -110.25 64.9
Q -102.8 69.55 -90.95 72.6 Z"/>

<path fill="#5B0405" stroke="none" d="
M -142.6 8.7
Q -143.8 9.1 -144.25 9.65 -144.95 10.6 -144.05 12.8 -138.2 26.7 -137.6 28.1 -133.65 36.75 -129.85 42.8 -121.05 56.35 -109.95 63.9
L -109.95 63.85
Q -101.9 68.4 -92.4 71.35 -91.4 71.6 -90.95 72.6 -90.55 72.65 -87.6 73.2 -85.65 73.6 -84.25 73.3 -85.3 72.05 -87.15 71.3 -87.6 71.15 -90.6 70.35 -101.95 67.05 -111.4 59.5 -119.75 52.75 -127.15 42.2 -130.75 37.05 -134.95 27.7 -140.1 16.05 -141.95 12.75 -142.95 10.95 -142.7 9.95 -142.35 8.9 -140.6 8.15 -141.8 8.4 -142.6 8.7 Z"/>

<path fill="#FDFDFD" stroke="none" d="
M -40.55 98.85
Q -43.4 94.35 -46.45 88.35 -47.8 85.7 -51.75 77.5 -52.85 75.15 -53.4 74.55 -54.6 73.1 -56.45 73 -58.75 73.85 -59.9 74.7 -61.6 75.85 -62.2 77.7 -61.25 80.55 -60.2 81.95 -54.2 90.05 -46.9 102.05 -43 108.55 -35.6 121.15
L -27.7 121.15
Q -29.25 118.6 -30.75 115.8 -33.45 112.55 -36.1 107.6 -36.45 106.95 -40.55 98.85 Z"/>

<path fill="#6A6B6A" stroke="none" d="
M -62.2 77.7
Q -62.9 78.3 -62.65 79.35 -62.4 80.65 -62.55 81.05
L -61.7 82.5
Q -50.8 98.4 -44.85 108.15 -40.75 114.85 -37.35 121.15
L -35.6 121.15
Q -43 108.55 -46.9 102.05 -54.2 90.05 -60.2 81.95 -61.25 80.55 -62.2 77.7 Z"/>

<path fill="#876968" stroke="none" d="
M -51.55 62.2
Q -51 61.45 -51.7 60.7 -61.2 66.4 -63.35 67.55 -70 71.25 -75.4 73.55 -74.95 73.75 -74.15 74.25 -73.4 74.55 -72.7 74.55 -72.75 73.65 -72.05 73.25 -71.85 73.05 -70.7 72.7 -68.6 72 -66.1 70.75 -64.95 70.05 -61.75 68.25
L -51.55 62.2 Z"/>

<path fill="#4B4643" stroke="none" d="
M -52.55 74.05
Q -54.35 71.6 -56.45 73 -54.6 73.1 -53.4 74.55 -52.85 75.15 -51.75 77.5 -47.8 85.7 -46.45 88.35 -43.4 94.35 -40.55 98.85 -40.05 98.9 -39.6 99.45 -39 100.15 -38.9 100.3
L -50.8 75.85
Q -51.45 75.75 -51.9 75.15 -52.25 74.35 -52.55 74.05 Z"/>

<path fill="#271D1C" stroke="none" d="
M -56.45 73
Q -54.35 71.6 -52.55 74.05 -52.25 74.35 -51.9 75.15 -51.45 75.75 -50.8 75.85 -52.05 72.9 -52.1 69.1 -52.15 66.85 -51.55 62.2
L -61.75 68.25
Q -64.95 70.05 -66.1 70.75 -68.6 72 -70.7 72.7 -71.85 73.05 -72.05 73.25 -72.75 73.65 -72.7 74.55 -67.6 76.1 -62.55 81.05 -62.4 80.65 -62.65 79.35 -62.9 78.3 -62.2 77.7 -61.6 75.85 -59.9 74.7 -58.75 73.85 -56.45 73 Z"/>

<path fill="#6D0606" stroke="none" d="
M -49.45 57.8
L -50.35 57.6
Q -51.2 58.25 -54.05 60.65 -56.35 62.6 -57.95 63.65 -68.85 70.45 -80.55 69.8 -91.05 69.2 -102.65 62.5 -116.2 54.6 -125.05 39.3 -132.8 25.75 -140.05 7.8
L -140.6 8.15
Q -142.35 8.9 -142.7 9.95 -142.95 10.95 -141.95 12.75 -140.1 16.05 -134.95 27.7 -130.75 37.05 -127.15 42.2 -119.75 52.75 -111.4 59.5 -101.95 67.05 -90.6 70.35 -87.6 71.15 -87.15 71.3 -85.3 72.05 -84.25 73.3 -81.3 73.95 -75.4 73.55 -70 71.25 -63.35 67.55 -61.2 66.4 -51.7 60.7
L -49.45 57.8 Z"/>

<path fill="#7F0708" stroke="none" d="
M -50.35 57.6
Q -50.2 56.85 -49.35 55.15 -48.55 53.7 -48.55 52.65 -50 53.65 -51.9 56.05 -53.85 58.8 -55.05 59.75 -67.4 69.7 -83.45 66.35 -101.3 62.65 -111.85 49.1 -117.05 42.45 -120.45 37.2 -124.85 30.6 -127.6 24.25 -130.5 17.65 -134.05 7.45 -134.4 6.4 -134.3 5.85 -134.1 5.15 -133.25 4.7
L -129.1 2.3 -127.95 1.65 -128.3 1.15 -140.05 7.8
Q -132.8 25.75 -125.05 39.3 -116.2 54.6 -102.65 62.5 -91.05 69.2 -80.55 69.8 -68.85 70.45 -57.95 63.65 -56.35 62.6 -54.05 60.65 -51.2 58.25 -50.35 57.6 Z"/>

<path fill="#8D090A" stroke="none" d="
M -45.55 45.5
Q -46.3 46.6 -46.9 47.55 -50.15 52.35 -50.4 52.75 -55.2 59.3 -61.35 62.4 -67.9 65.55 -75.6 64.7 -88.85 63.2 -99.2 54.05 -112.45 42.35 -121.7 23.75 -126.4 14.3 -128.9 3.15 -129 2.7 -129.1 2.3
L -133.25 4.7
Q -134.1 5.15 -134.3 5.85 -134.4 6.4 -134.05 7.45 -130.5 17.65 -127.6 24.25 -124.85 30.6 -120.45 37.2 -117.05 42.45 -111.85 49.1 -101.3 62.65 -83.45 66.35 -67.4 69.7 -55.05 59.75 -53.85 58.8 -51.9 56.05 -50 53.65 -48.55 52.65 -48.4 52.3 -46.75 49.15 -45.7 47.1 -45.55 45.5 Z"/>

<path fill="#6E090B" stroke="none" d="
M -73.25 -30.8
L -70.9 -32.05
Q -69.5 -33.05 -68.45 -32.25 -67.8 -31.8 -66.9 -30.5 -60.55 -23 -56.55 -15.4 -54.4 -13.55 -52.65 -10.55 -52 -9.35 -49.95 -5 -45.5 4.45 -43.6 10.5 -40.15 21.6 -42.8 35.75 -43.2 37.8 -44.05 40.7 -44.6 42.3 -45.55 45.5 -45.7 47.1 -46.75 49.15 -48.4 52.3 -48.55 52.65 -48.55 53.7 -49.35 55.15 -50.2 56.85 -50.35 57.6
L -49.45 57.8
Q -45.8 52.7 -42.9 43.85 -38.1 29.3 -41.25 14.35 -44.05 1.6 -53.05 -12.8 -56.2 -17.75 -60.85 -24.2 -66.2 -31.65 -68.95 -35.35
L -69.35 -35.25
Q -69.25 -33.65 -71 -32.75 -73.05 -31.7 -73.25 -30.8 Z"/>

<path fill="#F03B30" stroke="none" d="
M -91.6 -18.55
Q -95.25 -16.55 -96 -16 -95.95 -15.9 -95.85 -15.8 -95.6 -15.3 -95.15 -14.45 -94.65 -13.45 -94.6 -12.7 -94.15 -6.1 -89.1 2.35 -83.9 11.4 -76.05 22.3 -73.65 25.7 -72.15 27.3 -69.8 30 -67.35 31.5 -63.2 34.05 -60.15 32.85 -57.05 31.65 -55.75 27.1 -54.95 24.45 -55.05 21.3 -55.2 18.95 -55.8 15.45 -56.7 10.8 -58.85 5.35 -60.1 2.25 -63.15 -4.3 -66.15 -10.55 -69 -14.6 -72.6 -19.8 -77.1 -23.2 -77.45 -23.45 -79.3 -25.4 -79.6 -25.75 -79.9 -26.05
L -87.45 -21.6
Q -88.8 -20.1 -91.6 -18.55 Z"/>

<path fill="#C01616" stroke="none" d="
M -96 -16
Q -95.25 -16.55 -91.6 -18.55 -88.8 -20.1 -87.45 -21.6
L -99.75 -14.5 -99.55 -14.1 -96 -16
M -107.7 -9.25
Q -110.55 -7.35 -112.1 -6.85 -115.7 -5.5 -117.05 -3.05 -118.25 -0.65 -117.7 3.25 -116.15 13.45 -112.35 20.5 -107.65 29.25 -102.9 35.6 -97.3 43.15 -90.85 48.7 -82.5 55.7 -75.25 58.5 -66.1 61.95 -57.45 55.75 -50 50.45 -47.05 41.7 -44.85 35.05 -44.8 24.4 -44.75 18.25 -46.9 11.15 -48.2 6.75 -51.6 -1.45 -52.45 -3.65 -53.95 -6.45 -55.65 -9.75 -56.5 -11.4 -62.5 -22.6 -70.2 -31.25 -70.55 -31.65 -70.9 -32.05
L -73.25 -30.8 -73.55 -29.85
Q -70.9 -27.95 -68.45 -25 -66.75 -22.85 -64.45 -19.3 -58.45 -9.75 -54.7 -1.6 -50.3 8.2 -48.45 17.55 -45.85 31.35 -51.75 43.5 -54.6 49.5 -60.8 51.7 -67.7 54.1 -74.05 49.8 -93 36.95 -103.2 17.35 -108.5 7.35 -106.65 -4.55 -106.25 -7.1 -107.7 -9.25 Z"/>

<path fill="#281410" stroke="none" d="
M -88.8 -22.5
Q -87.35 -22.45 -85.55 -23.55 -82.95 -25.2 -82.65 -25.3 -82.6 -25.35 -80.55 -26.6 -79.35 -27.35 -78.2 -27.25
L -73.55 -29.85 -73.25 -30.8
Q -73.05 -31.7 -71 -32.75 -69.25 -33.65 -69.35 -35.25 -70.6 -35.1 -72.15 -33.85 -73.65 -32.6 -74.55 -32.2 -74.7 -32.15 -74.8 -32.1 -77.4 -29.8 -81.65 -27.05 -86.45 -24.1 -88.8 -22.5 Z"/>

<path fill="#E12522" stroke="none" d="
M -107.7 -9.25
Q -106.25 -7.1 -106.65 -4.55 -108.5 7.35 -103.2 17.35 -93 36.95 -74.05 49.8 -67.7 54.1 -60.8 51.7 -54.6 49.5 -51.75 43.5 -45.85 31.35 -48.45 17.55 -50.3 8.2 -54.7 -1.6 -58.45 -9.75 -64.45 -19.3 -66.75 -22.85 -68.45 -25 -70.9 -27.95 -73.55 -29.85
L -78.2 -27.25 -79.9 -26.05
Q -79.6 -25.75 -79.3 -25.4 -77.45 -23.45 -77.1 -23.2 -72.6 -19.8 -69 -14.6 -66.15 -10.55 -63.15 -4.3 -60.1 2.25 -58.85 5.35 -56.7 10.8 -55.8 15.45 -55.2 18.95 -55.05 21.3 -54.95 24.45 -55.75 27.1 -57.05 31.65 -60.15 32.85 -63.2 34.05 -67.35 31.5 -69.8 30 -72.15 27.3 -73.65 25.7 -76.05 22.3 -83.9 11.4 -89.1 2.35 -94.15 -6.1 -94.6 -12.7 -94.65 -13.45 -95.15 -14.45 -95.6 -15.3 -95.85 -15.8 -95.95 -15.9 -96 -16
L -99.55 -14.1 -107.7 -9.25 Z"/>

<path fill="#2E0707" stroke="none" d="
M -123.9 -2.1
Q -123.95 -2.2 -123.95 -2.3 -125.1 -2.65 -126.5 -1.85 -129.85 0 -134.95 2.4 -140.7 5 -143.6 6.4 -143.65 6.45 -143.75 6.55 -143.65 6.7 -143.7 7
L -147.35 8.4 -146.15 11.15
Q -141.7 22.8 -138.75 29.3 -134.25 39.1 -129.35 46.45 -121 59.05 -110.25 64.9
L -109.95 63.9
Q -121.05 56.35 -129.85 42.8 -133.65 36.75 -137.6 28.1 -138.2 26.7 -144.05 12.8 -144.95 10.6 -144.25 9.65 -143.8 9.1 -142.6 8.7 -141.8 8.4 -140.6 8.15
L -140.05 7.8 -128.3 1.15
Q -127.9 0.75 -125.85 -0.3 -124.4 -1.05 -123.9 -2.1 Z"/>

<path fill="#5D1E1E" stroke="none" d="
M -123.9 -2.2
Q -123.9 -2.15 -123.9 -2.1 -124.4 -1.05 -125.85 -0.3 -127.9 0.75 -128.3 1.15
L -127.95 1.65 -123.95 -0.65 -99.75 -14.5 -87.45 -21.6 -79.9 -26.05 -78.2 -27.25
Q -79.35 -27.35 -80.55 -26.6 -82.6 -25.35 -82.65 -25.3 -82.95 -25.2 -85.55 -23.55 -87.35 -22.45 -88.8 -22.5
L -123.9 -2.2 Z"/>

<path fill="#9F0D0E" stroke="none" d="
M -123.85 -0.65
Q -123.9 -0.65 -123.95 -0.65
L -127.95 1.65 -129.1 2.3
Q -129 2.7 -128.9 3.15 -126.4 14.3 -121.7 23.75 -112.45 42.35 -99.2 54.05 -88.85 63.2 -75.6 64.7 -67.9 65.55 -61.35 62.4 -55.2 59.3 -50.4 52.75 -50.15 52.35 -46.9 47.55 -46.3 46.6 -45.55 45.5 -44.6 42.3 -44.05 40.7 -43.2 37.8 -42.8 35.75 -40.15 21.6 -43.6 10.5 -45.5 4.45 -49.95 -5 -52 -9.35 -52.65 -10.55 -54.4 -13.55 -56.55 -15.4 -53.45 -10.45 -51 -5.1 -47.45 2.55 -45.2 11.1 -42.15 23.1 -43.5 33 -45.05 44.15 -52.2 53.25 -56 57.95 -62.95 60.7 -70.7 63.85 -76.95 61.8 -88.95 57.8 -100.45 46.55 -103.25 43.85 -106.45 39.2 -109.95 33.85 -111.9 31.3 -114.05 28.25 -116.4 23.45 -118.85 18 -120.25 15.3 -121.8 12.1 -122.6 7.4 -123.4 2 -123.85 -0.65 Z"/>

<path fill="#AB1012" stroke="none" d="
M -123.95 -0.65
Q -123.9 -0.65 -123.85 -0.65 -123.4 2 -122.6 7.4 -121.8 12.1 -120.25 15.3 -118.85 18 -116.4 23.45 -114.05 28.25 -111.9 31.3 -109.95 33.85 -106.45 39.2 -103.25 43.85 -100.45 46.55 -88.95 57.8 -76.95 61.8 -70.7 63.85 -62.95 60.7 -56 57.95 -52.2 53.25 -45.05 44.15 -43.5 33 -42.15 23.1 -45.2 11.1 -47.45 2.55 -51 -5.1 -53.45 -10.45 -56.55 -15.4 -60.55 -23 -66.9 -30.5 -67.8 -31.8 -68.45 -32.25 -69.5 -33.05 -70.9 -32.05 -70.55 -31.65 -70.2 -31.25 -62.5 -22.6 -56.5 -11.4 -55.65 -9.75 -53.95 -6.45 -52.45 -3.65 -51.6 -1.45 -48.2 6.75 -46.9 11.15 -44.75 18.25 -44.8 24.4 -44.85 35.05 -47.05 41.7 -50 50.45 -57.45 55.75 -66.1 61.95 -75.25 58.5 -82.5 55.7 -90.85 48.7 -97.3 43.15 -102.9 35.6 -107.65 29.25 -112.35 20.5 -116.15 13.45 -117.7 3.25 -118.25 -0.65 -117.05 -3.05 -115.7 -5.5 -112.1 -6.85 -110.55 -7.35 -107.7 -9.25
L -99.55 -14.1 -99.75 -14.5 -123.95 -0.65 Z"/>

<path fill="#D3D3D3" stroke="none" d="
M -158.05 -25.85
Q -158.35 -26.4 -159.1 -26.55 -159 -24.3 -158.85 -23.9 -155.15 -10.75 -147.35 8.4
L -143.7 7
Q -143.65 6.7 -143.75 6.55 -143.8 6.45 -143.9 6.4 -143.95 6.35 -144.05 6.3 -145.25 6.95 -145.8 6.85 -146.55 6.65 -147.1 5.3 -150.8 -4.55 -152.65 -9.55 -155.95 -18.35 -157.65 -24.55 -157.85 -25.45 -158.05 -25.85 Z"/>

<path fill="#D2D2D2" stroke="none" d="
M -99.2 -64.95
Q -96.85 -64.3 -95.9 -63.3 -90.75 -57.9 -84 -50.45 -80.05 -46.15 -72.3 -37.35 -71.25 -36.15 -71.4 -35.45 -71.6 -34.7 -72.95 -34.2 -73.25 -34.15 -73.5 -34.1 -74.2 -34 -74.55 -33.8 -75.2 -33.35 -74.95 -32.2 -74.75 -32.2 -74.55 -32.2 -73.65 -32.6 -72.15 -33.85 -70.6 -35.1 -69.35 -35.25
L -68.95 -35.35 -73.65 -41.05
Q -84.9 -54.55 -95.1 -64.05 -96.4 -65.2 -96.9 -65.4 -98.05 -65.85 -99.2 -64.95 Z"/>

<path fill="#EBEBEB" stroke="none" d="
M -95.9 -63.3
Q -96.85 -64.3 -99.2 -64.95
L -151 -35.1
Q -154 -33.35 -158.5 -30 -160.4 -28.6 -159.1 -26.55 -158.35 -26.4 -158.05 -25.85 -157.85 -25.45 -157.65 -24.55 -155.95 -18.35 -152.65 -9.55 -150.8 -4.55 -147.1 5.3 -146.55 6.65 -145.8 6.85 -145.25 6.95 -144.05 6.3 -143.95 6.35 -143.9 6.4 -143.8 6.3 -143.65 6.2 -143.15 4.95 -143.45 3.55 -143.65 2.7 -144.35 1 -149.9 -13 -154.5 -26.25 -155.1 -28 -154.85 -29.1 -154.45 -30.45 -152.85 -31.3 -145.05 -35.6 -128.45 -45.85 -112.75 -55.55 -104 -60.25 -101.4 -61.7 -100.4 -61.5 -99.3 -61.3 -97.35 -59.15 -96.25 -57.95 -90.15 -50.85 -85.8 -45.7 -82.8 -42.7 -81.25 -41.15 -78.3 -37.9 -75.8 -35.4 -73.5 -34.1 -73.25 -34.15 -72.95 -34.2 -71.6 -34.7 -71.4 -35.45 -71.25 -36.15 -72.3 -37.35 -80.05 -46.15 -84 -50.45 -90.75 -57.9 -95.9 -63.3 Z"/>

<path fill="#322F35" stroke="none" d="
M 1 -46.1
Q -1.5 -53.7 -6.75 -59.6
L 1 -46.1
M -23.25 -96.2
Q -23.25 -96.25 -23.25 -96.3 -23.15 -97.1 -21.65 -97.9 -20.25 -98.7 -20.75 -99.95
L -24.85 -97.6 -23.85 -95.85 -23.25 -96.2
M -43 -102.6
Q -43.1 -103.6 -42.05 -104.25
L -42 -104.25
Q -41.7 -105.2 -40.6 -105.75 -38.8 -106.75 -38.75 -106.75 -38.7 -106.8 -38.65 -106.8 -37.1 -107.9 -36.25 -107.7 -35.2 -107.45 -34.45 -105.3 -33.8 -103.4 -32.35 -100.9 -31.45 -99.45 -29.7 -96.65 -29.05 -95.3 -27.75 -96 -30.55 -100.2 -31.95 -102.9 -34.05 -106.75 -35.2 -110.25
L -39.5 -108
Q -43.9 -104.75 -44.55 -104.15 -47.05 -102.25 -45.6 -100.05 -44.25 -97.8 -41.7 -93.1 -39.3 -89.1 -36.6 -87.05 -35.25 -85.8 -33.8 -83.2 -32.2 -80.1 -31.45 -79.15
L -31.4 -79.1
Q -30.9 -78.55 -29.75 -76.3 -28.75 -74.45 -27.4 -73.75 -27.9 -76.9 -31.35 -82.1 -34.75 -87.15 -35.1 -90.35 -35.15 -90.5 -36.55 -91
L -42.25 -100.8
Q -42.9 -102 -43 -102.6 Z"/>

<path fill="#AD0404" stroke="none" d="
M 124.2 121.15
Q 123.8 120.45 123.6 120.1 121.55 117 120.25 116.9 118.9 116.9 117.35 120.05 117.05 120.7 116.75 121.15
L 124.2 121.15
M 97.7 95.25
Q 86.85 76.85 85.7 75.05 78.35 63.3 67.8 45.05 51.05 16.15 50.25 14.8 49.35 13.3 45.65 7.9 44.05 5.6 42.95 3.7 42 2.15 41.4 0.85 42.15 3.25 42.4 6.7 42.6 8.7 42.75 12.75 43.15 16.75 44.5 19.5 46.25 23.15 48.55 29.45 51.2 37.05 52.2 39.5 54.1 43.9 57.7 52.7 60.9 60.2 63.9 65.5
L 68.1 72.5
Q 70.6 76.65 71.9 79.6 75.85 88.7 83.5 100.55 87.95 107.45 97 121.15
L 114.85 121.15
Q 114.6 120.8 114.3 120.35 113.95 119.9 112.25 117.75 110.95 116.1 110.35 114.95 104.9 107.45 97.7 95.25 Z"/>

<path fill="#8C3A3A" stroke="none" d="
M 74.3 110.55
L 80.4 121.15 81.1 121.15 73.2 107.55
Q 73 108.3 73.45 109.2 73.7 109.65 74.3 110.55
M 77.4 121.15
Q 73.7 117.35 68 112.4 58.9 104.35 55.5 100.75 54.5 99.75 53.95 99.35 52.9 98.7 51.85 98.75
L 53.55 107 53.55 107.05 61.7 121.15 77.4 121.15 Z"/>

<path fill="#530001" stroke="none" d="
M 37.15 79.95
Q 37.05 79.9 37 79.9
L 37.25 81.5
Q 38.95 86.25 41.75 92.05 43.2 95.05 46.95 102.15 50.65 109.2 56.1 119 56.65 120 57.3 121.15
L 60.9 121.15 37.15 79.95
M 8.2 -1.6
Q 8.75 -2.4 9.05 -2.8 9.55 -3.55 9.55 -4.25 7.6 -3.1 5.85 -0.8 4.05 2.05 3.05 3.5
L 3.8 11.6
Q 4.2 13.2 4.7 17.35 5.15 21.05 5.75 23.1 6.85 27.05 9.75 28.5
L 10.5 16.35
Q 6.3 12.5 5.7 7.9 5.05 3.35 8.2 -1.6 Z"/>

<path fill="#350607" stroke="none" d="
M 3.65 41.1
Q 4.2 44.25 6 47.35 17.2 66.8 39.7 105.55 44.4 113.65 48.7 121.15
L 49.9 121.15 3.65 41.1 Z"/>

<path fill="#702525" stroke="none" d="
M 13.6 37.95
Q 13.35 38.95 13.9 39.9 14.25 40.55 15 41.6
L 37.15 79.95 60.9 121.15 61.7 121.15 53.55 107.05 53.55 107 13.6 37.95 Z"/>

<path fill="#500000" stroke="none" d="
M 3.4 12.85
Q 3.4 13.25 3.35 14.15 2.75 21.6 5.5 29.85 7.35 35.35 11.9 44.15 17.2 54.4 26.25 70.1 38.8 91.95 41 95.85 46.35 105.5 55.35 121.15
L 57.3 121.15
Q 56.65 120 56.1 119 50.65 109.2 46.95 102.15 43.2 95.05 41.75 92.05 38.95 86.25 37.25 81.5
L 37 79.9
Q 37.05 79.9 37.15 79.95
L 15 41.6
Q 14.25 40.55 13.9 39.9 13.35 38.95 13.6 37.95 10.85 34.8 9.75 28.5 6.85 27.05 5.75 23.1 5.15 21.05 4.7 17.35 4.2 13.2 3.8 11.6 3.45 12 3.4 12.85 Z"/>

<path fill="#2A0001" stroke="none" d="
M 1.95 5.6
L 1 5.35
Q -5.15 24.35 3.65 41.1
L 49.9 121.15 53.05 121.15
Q 25.5 73.6 11 48.15 4.95 37.45 2.8 28.4 0.6 18.8 1.95 5.6 Z"/>

<path fill="#3F0000" stroke="none" d="
M 3.8 11.6
L 3.05 3.5 1.95 5.6
Q 0.6 18.8 2.8 28.4 4.95 37.45 11 48.15 25.5 73.6 53.05 121.15
L 55.35 121.15
Q 46.35 105.5 41 95.85 38.8 91.95 26.25 70.1 17.2 54.4 11.9 44.15 7.35 35.35 5.5 29.85 2.75 21.6 3.35 14.15 3.4 13.25 3.4 12.85 3.45 12 3.8 11.6 Z"/>

<path fill="#8C4C4D" stroke="none" d="
M 13.7 12.35
Q 13.15 11.4 12.3 10.95
L 10.5 16.35 9.75 28.5
Q 10.85 34.8 13.6 37.95
L 53.55 107 51.85 98.75
Q 51.75 97.6 51.55 97.05 47.85 86.65 40.15 65.95 31.8 43.65 21.7 26.15
L 14.6 13.9
Q 14.05 12.9 13.7 12.35 Z"/>

<path fill="#974544" stroke="none" d="
M 25.8 24.1
Q 25.5 22.5 25.25 21.6 24.85 20.2 23.7 19.8 21.35 19 18.85 17.25 17.5 16.35 14.6 13.9
L 21.7 26.15
Q 31.8 43.65 40.15 65.95 47.85 86.65 51.55 97.05 51.75 97.6 51.85 98.75 52.9 98.7 53.95 99.35 54.5 99.75 55.5 100.75 58.9 104.35 68 112.4 73.7 117.35 77.4 121.15
L 80.4 121.15 74.3 110.55
Q 73.7 109.65 73.45 109.2 73 108.3 73.2 107.55
L 31.45 34.7
Q 29.05 30.75 28.4 29.55 26.7 26.6 25.8 24.1 Z"/>

<path fill="#A70C0B" stroke="none" d="
M 116.35 98.65
L 107.95 79.6
Q 103.7 71.15 101.6 66.95 97.8 59.6 94.95 54.5 87.25 40.65 84.7 36.3 78.75 26.15 73.45 18.6 70.8 14.85 69.8 13.5 67.55 10.65 65.55 8.8 66.6 10.45 67.85 12.65 69.05 14.85 70.45 17.6 74 24.6 75.05 26.55 80.75 36.7 89.5 53.95 95.35 65.55 102.95 86.1 106.7 96.05 107.55 98.5 110.05 105.6 111.35 111.2 111.5 111.85 112 113.3 112.1 114.5 110.35 114.95 110.95 116.1 112.25 117.75 113.95 119.9 114.3 120.35 114.6 120.8 114.85 121.15
L 116.75 121.15
Q 117.05 120.7 117.35 120.05 118.9 116.9 120.25 116.9 121.55 117 123.6 120.1 123.8 120.45 124.2 121.15
L 126.35 121.15
Q 123.7 115.5 123.15 114 121.8 110.85 119.75 106.25 117.5 101.2 116.35 98.65 Z"/>

<path fill="#9C0202" stroke="none" d="
M 107.15 75
Q 108.1 78.05 107.95 79.6
L 116.35 98.65
Q 117.5 101.2 119.75 106.25 121.8 110.85 123.15 114 123.7 115.5 126.35 121.15
L 131.2 121.15
Q 128.7 116 126.4 111.35 122.95 104.55 122.15 102.55 115.5 87.95 114.7 86.25 110.45 77 106.5 70.3 106.3 71.95 107.15 75
M 41.65 -9.45
L 40.75 -9.75
Q 37.75 -8.25 36.85 -5.35 33.4 6.15 37 15.7 37.9 18.3 39.85 22.45 42.4 27.8 42.9 29.15
L 52.05 51.15
Q 52.95 53.4 54.8 57.85 56.45 61.75 57.9 64.4 66.9 81.25 67.85 82.95 73.6 93.45 78.4 101.2
L 90.7 121.15 97 121.15
Q 87.95 107.45 83.5 100.55 75.85 88.7 71.9 79.6 70.6 76.65 68.1 72.5
L 63.9 65.5
Q 60.9 60.2 57.7 52.7 54.1 43.9 52.2 39.5 51.2 37.05 48.55 29.45 46.25 23.15 44.5 19.5 43.15 16.75 42.75 12.75 42.6 8.7 42.4 6.7 42.15 3.25 41.4 0.85 39.65 -2.75 39.8 -4.9 39.95 -7.15 42 -8.9
L 41.65 -9.45 Z"/>

<path fill="#9A0E0D" stroke="none" d="
M 100.35 56.65
Q 99.3 54.65 98.8 53.55 97.95 51.8 98 50.3 98 50.25 98 50.2 95.4 46 87 30 80.3 17.4 74.95 10.3 74.25 9.4 73.55 8.55 65.7 -0.7 54.75 -4.55
L 65.55 8.8
Q 67.55 10.65 69.8 13.5 70.8 14.85 73.45 18.6 78.75 26.15 84.7 36.3 87.25 40.65 94.95 54.5 97.8 59.6 101.6 66.95 103.7 71.15 107.95 79.6 108.1 78.05 107.15 75 106.3 71.95 106.5 70.3 102.55 61.1 100.35 56.65 Z"/>

<path fill="#910101" stroke="none" d="
M 110.4 73.85
Q 105.5 64.4 102.45 58.85 101.7 57.45 100.2 54.55 98.85 51.65 98.05 50.25
L 98 50.3
Q 97.95 51.8 98.8 53.55 99.3 54.65 100.35 56.65 102.55 61.1 106.5 70.3 110.45 77 114.7 86.25 115.5 87.95 122.15 102.55 122.95 104.55 126.4 111.35 128.7 116 131.2 121.15
L 134.4 121.15
Q 132.85 117.7 132.15 116.2 129.7 111.2 127.1 106.3 121.25 94.65 118.2 88.95 116.15 85.1 110.4 73.85
M 32.1 -15.5
Q 33.3 -14.85 36.35 -12.45 38.85 -10.35 40.75 -9.75
L 41.65 -9.45
Q 45.9 -11.9 46.1 -12 48.65 -13.4 50.75 -13.95
L 50.75 -14
Q 46.65 -16.6 43.55 -17.85 39.35 -19.5 35.35 -19.5 34.95 -19.5 34.25 -19.7 33.55 -20.1 33.2 -20.2
L 32.45 -19.85 32.05 -19.55
Q 29.85 -19.15 27.05 -17.45 22.55 -14.8 22.25 -14.65 22.3 -14.4 22.25 -14 22.25 -13.55 22.1 -13.35 19.65 -8.7 21 -3.3 21.7 -0.25 24.9 5.65 25.65 7.05 31.75 18.3 35.85 25.95 38.35 30.95 40.85 35.9 44.8 45.2 49.1 55.15 51.15 59.4 56.8 71.2 58.5 74.55 62.75 83.1 66.7 89.3 68.4 92.15 72.5 99.4 76.15 105.9 78.4 109.45 81.5 114.25 85.65 121.15
L 89.55 121.15
Q 86.75 116.75 81.9 109.15 77.05 101.6 75.15 98.5 71.45 92.45 68.9 87.5 62.85 75.85 59.85 70.05 54.45 59.75 51.4 52.3 44.2 34.95 38.95 24.8 32.55 12.35 29.4 2.2 28.8 0.15 27.1 -2.6 25.2 -5.65 24.25 -7.2 21.7 -11.4 24.75 -14.3 28.15 -17.6 32.1 -15.5 Z"/>

<path fill="#8A0101" stroke="none" d="
M 103.85 51.5
Q 106.15 55.65 106.4 56.3 108.65 61.95 113.35 71.75 118.4 82.55 120.4 87.15 121.95 90.9 125 96.95 128.75 104.35 129.85 106.75 134.95 117.8 135.75 119.5 136.1 120.35 136.5 121.15
L 140.8 121.15
Q 136.7 112.4 130.8 100.45 123.15 84.9 117.5 74.75 115.55 71.25 109.85 60.5 105.1 51.6 102 46.3 102.3 48.55 103.85 51.5
M 16.85 -8.7
Q 16.1 -6.95 15.55 -4.3 14.75 -0.55 14.55 0.05 13.55 3.9 16.35 6.85 21.2 12.05 25.75 19.55 28.25 23.5 33.4 33.4 34.25 35 36 38.25 37.3 41.15 37.4 43.65 36.45 42.5 34.65 39 33 36 31.45 34.7
L 73.2 107.55 81.1 121.15 85.65 121.15
Q 81.5 114.25 78.4 109.45 76.15 105.9 72.5 99.4 68.4 92.15 66.7 89.3 62.75 83.1 58.5 74.55 56.8 71.2 51.15 59.4 49.1 55.15 44.8 45.2 40.85 35.9 38.35 30.95 35.85 25.95 31.75 18.3 25.65 7.05 24.9 5.65 21.7 -0.25 21 -3.3 19.65 -8.7 22.1 -13.35 22.25 -13.55 22.25 -14 22.3 -14.4 22.25 -14.65 18.85 -13.3 16.85 -8.7 Z"/>

<path fill="#8B0303" stroke="none" d="
M 102 46.3
Q 100.7 44.15 91.5 27.85 85.15 16.65 80.2 9.9 77 5.4 75.3 3.2 72.35 -0.7 69.65 -3 72.7 2.15 74.95 10.3 80.3 17.4 87 30 95.4 46 98 50.2
L 98.05 50.25
Q 98.85 51.65 100.2 54.55 101.7 57.45 102.45 58.85 105.5 64.4 110.4 73.85 116.15 85.1 118.2 88.95 121.25 94.65 127.1 106.3 129.7 111.2 132.15 116.2 132.85 117.7 134.4 121.15
L 136.5 121.15
Q 136.1 120.35 135.75 119.5 134.95 117.8 129.85 106.75 128.75 104.35 125 96.95 121.95 90.9 120.4 87.15 118.4 82.55 113.35 71.75 108.65 61.95 106.4 56.3 106.15 55.65 103.85 51.5 102.3 48.55 102 46.3 Z"/>

<path fill="#BDB4AE" stroke="none" d="
M -5.7 -37.65
Q -6.25 -38.65 -6.85 -38.9 -7.6 -39.1 -8.55 -38.4
L -1.6 -26.45
Q -1.35 -27.1 -1.15 -27.25 -0.85 -27.65 -0.3 -27.5 -0.1 -28.95 -1.25 -30.7 -2.6 -32.95 -2.85 -33.65 -2.9 -33.7 -2.95 -33.75 -3.75 -34.35 -4.45 -35.5 -5.2 -36.95 -5.7 -37.65 Z"/>

<path fill="#B0AFBA" stroke="none" d="
M -22.85 -62.85
Q -22.95 -62 -22.45 -61.1 -22.15 -60.55 -21.45 -59.55 -16.7 -51.15 -11.8 -42.85 -11.4 -42.1 -10.7 -40.55 -10 -39.3 -8.95 -38.85 -16 -52.05 -22.85 -62.85
M -31.75 -78.75
Q -31.65 -78.95 -31.5 -79.05
L -31.45 -79.15
Q -32.2 -80.1 -33.8 -83.2 -35.25 -85.8 -36.6 -87.05 -34.15 -81.85 -31.75 -78.75
M -41.65 -103.05
Q -41.9 -103.65 -42.05 -104.25 -43.1 -103.6 -43 -102.6 -42.9 -102 -42.25 -100.8
L -36.55 -91 -35.4 -91.5
Q -35.5 -91.7 -35.75 -92.2 -36.6 -93.7 -39.05 -97.75 -40.85 -100.7 -41.65 -103.05
M -42 -104.25
L -41.9 -104.3
Q -40.9 -105 -40.05 -105.1 -39.75 -105.15 -39.45 -105.1 -38.2 -104.95 -37.15 -103.3 -36.2 -101.95 -34.95 -99.05 -33.6 -96.15 -32.75 -94.8 -32.6 -94.65 -32.65 -94.25 -32.7 -94.15 -32.75 -93.95 -33 -93.25 -33.05 -92.9 -28.95 -94.5 -31.9 -98.6 -34.7 -102.5 -36.05 -105.1 -36.8 -106.5 -38.6 -106.7 -38.65 -106.75 -38.75 -106.75 -38.8 -106.75 -40.6 -105.75 -41.7 -105.2 -42 -104.25
M 0.85 -43.75
L 0.85 -43.8 0.55 -44.2
Q -0.15 -44.35 -0.7 -45.05 -1.15 -45.95 -1.4 -46.4 -8 -57.6 -11.2 -63.25 -21.05 -80.9 -26.2 -89.6 -27.4 -91.65 -28.9 -91.85 -30.1 -91.95 -32.05 -91.1 -33.9 -90.2 -33.65 -88.85 -33.55 -88.35 -32.4 -86.35 -19.65 -64.15 -7 -41.8 -6.6 -41.1 -6.05 -40.85 -5.7 -40.65 -4.95 -40.5
L -4.9 -40.5
Q -4.65 -40.65 -4.45 -40.6
L -3.9 -40.95
Q -5.2 -41.65 -6.15 -44.05 -7.15 -46.65 -8.2 -47.45 -8.6 -47.75 -8.55 -48.25 -8.5 -48.85 -7.85 -49.05 -6.95 -49.2 -6.45 -47.9 -5.45 -45.45 -4.3 -44.35 -2.75 -42.95 -0.35 -43.1
L 0.85 -43.75 Z"/>

<path fill="#141012" stroke="none" d="
M -35.2 -110.25
Q -34.05 -106.75 -31.95 -102.9 -30.55 -100.2 -27.75 -96
L -24.85 -97.6 -20.75 -99.95
Q -19.15 -101.15 -20.25 -103.05 -22.45 -107.05 -23.55 -109.1 -25.55 -112.65 -27.65 -114.65
L -35.2 -110.25 Z"/>

<path fill="#969696" stroke="none" d="
M -21.3 -118.6
L -21.6 -119.05 -39.75 -108.6 -39.5 -108 -35.2 -110.25 -27.65 -114.65 -21.35 -118.2 -21.3 -118.6 Z"/>

<path fill="#BFBDC9" stroke="none" d="
M -41.9 -104.3
L -42 -104.25 -42.05 -104.25
Q -41.9 -103.65 -41.65 -103.05 -40.85 -100.7 -39.05 -97.75 -36.6 -93.7 -35.75 -92.2 -35.5 -91.7 -35.4 -91.5
L -33.05 -92.9
Q -33 -93.25 -32.75 -93.95 -32.7 -94.15 -32.65 -94.25 -32.6 -94.65 -32.75 -94.8 -33.6 -96.15 -34.95 -99.05 -36.2 -101.95 -37.15 -103.3 -38.2 -104.95 -39.45 -105.1 -39.75 -105.15 -40.05 -105.1 -40.9 -105 -41.9 -104.3 Z"/>

<path fill="#B01615" stroke="none" d="
M 48.85 -8
Q 45.3 -9.75 42 -8.9 39.95 -7.15 39.8 -4.9 39.65 -2.75 41.4 0.85 42 2.15 42.95 3.7 44.05 5.6 45.65 7.9 49.35 13.3 50.25 14.8 51.05 16.15 67.8 45.05 78.35 63.3 85.7 75.05 86.85 76.85 97.7 95.25 104.9 107.45 110.35 114.95 112.1 114.5 112 113.3 111.5 111.85 111.35 111.2 110.05 105.6 107.55 98.5 106.7 96.05 102.95 86.1 95.35 65.55 89.5 53.95 80.75 36.7 75.05 26.55 74 24.6 70.45 17.6 69.05 14.85 67.85 12.65 66.6 10.45 65.55 8.8
L 54.75 -4.55
Q 50.85 -7.05 48.85 -8 Z"/>

<path fill="#8F1514" stroke="none" d="
M 50.75 -14
L 50.75 -13.95
Q 48.65 -13.4 46.1 -12 45.9 -11.9 41.65 -9.45
L 42 -8.9
Q 45.3 -9.75 48.85 -8 50.85 -7.05 54.75 -4.55 65.7 -0.7 73.55 8.55 74.25 9.4 74.95 10.3 72.7 2.15 69.65 -3 64.25 -16.05 50.8 -14
L 50.75 -14 Z"/>

<path fill="#460101" stroke="none" d="
M 60.45 -23.85
Q 59.4 -24.3 59 -24.45 52.55 -26.4 46.9 -24.9 54 -24.1 61.3 -20.65 66.9 -18.05 74.2 -12.95 78.65 -9.95 82.65 -3.5 97.6 20.45 116.9 54.05 128.05 73.4 150 112.2 152.1 115.85 155.15 121.15
L 159.7 121.15
Q 129.95 69.1 117.9 48.2 107.35 29.45 102 20.1 92.6 3.55 85.1 -7.4 76.8 -19.7 62 -24.6 61.4 -23.5 60.45 -23.85 Z"/>

<path fill="#740505" stroke="none" d="
M 40.1 -21.85
Q 36.3 -21.7 33.2 -20.2 33.55 -20.1 34.25 -19.7 34.95 -19.5 35.35 -19.5 39.35 -19.5 43.55 -17.85 46.65 -16.6 50.75 -14
L 50.8 -14
Q 64.25 -16.05 69.65 -3 72.35 -0.7 75.3 3.2 77 5.4 80.2 9.9 85.15 16.65 91.5 27.85 100.7 44.15 102 46.3 105.1 51.6 109.85 60.5 115.55 71.25 117.5 74.75 123.15 84.9 130.8 100.45 136.7 112.4 140.8 121.15
L 148.5 121.15
Q 145.75 115.25 141.95 107.85 135.65 95.95 132.6 89.95 130.55 85.85 125.85 77.55 121.2 69.5 119 65.15 116 59 110.05 48.75 103.3 37 100.9 32.35 90.8 13.25 78.55 -5.15 76.15 -8.9 72.95 -10.45 69.8 -12.1 64.8 -14.4 57.8 -17.5 56.5 -18.15 52.7 -20 47.2 -21.05 43.15 -21.9 40.1 -21.85 Z"/>

<path fill="#6B0101" stroke="none" d="
M 36.7 -22.65
Q 33.8 -21.9 32.45 -19.85
L 33.2 -20.2
Q 36.3 -21.7 40.1 -21.85 43.15 -21.9 47.2 -21.05 52.7 -20 56.5 -18.15 57.8 -17.5 64.8 -14.4 69.8 -12.1 72.95 -10.45 76.15 -8.9 78.55 -5.15 90.8 13.25 100.9 32.35 103.3 37 110.05 48.75 116 59 119 65.15 121.2 69.5 125.85 77.55 130.55 85.85 132.6 89.95 135.65 95.95 141.95 107.85 145.75 115.25 148.5 121.15
L 155.15 121.15
Q 152.1 115.85 150 112.2 128.05 73.4 116.9 54.05 97.6 20.45 82.65 -3.5 78.65 -9.95 74.2 -12.95 66.9 -18.05 61.3 -20.65 54 -24.1 46.9 -24.9
L 46.85 -24.9
Q 45.9 -24.45 44.25 -24.1 42.15 -23.8 41.65 -23.65 38.35 -23.05 36.7 -22.65 Z"/>

<path fill="#9B0001" stroke="none" d="
M 36.35 -12.45
Q 33.3 -14.85 32.1 -15.5 28.15 -17.6 24.75 -14.3 21.7 -11.4 24.25 -7.2 25.2 -5.65 27.1 -2.6 28.8 0.15 29.4 2.2 32.55 12.35 38.95 24.8 44.2 34.95 51.4 52.3 54.45 59.75 59.85 70.05 62.85 75.85 68.9 87.5 71.45 92.45 75.15 98.5 77.05 101.6 81.9 109.15 86.75 116.75 89.55 121.15
L 90.7 121.15 78.4 101.2
Q 73.6 93.45 67.85 82.95 66.9 81.25 57.9 64.4 56.45 61.75 54.8 57.85 52.95 53.4 52.05 51.15
L 42.9 29.15
Q 42.4 27.8 39.85 22.45 37.9 18.3 37 15.7 33.4 6.15 36.85 -5.35 37.75 -8.25 40.75 -9.75 38.85 -10.35 36.35 -12.45 Z"/>

<path fill="#720000" stroke="none" d="
M 9.05 -2.8
Q 8.75 -2.4 8.2 -1.6 5.05 3.35 5.7 7.9 6.3 12.5 10.5 16.35
L 12.3 10.95
Q 13.15 11.4 13.7 12.35 14.05 12.9 14.6 13.9 17.5 16.35 18.85 17.25 21.35 19 23.7 19.8 24.85 20.2 25.25 21.6 25.5 22.5 25.8 24.1 26.7 26.6 28.4 29.55 29.05 30.75 31.45 34.7 33 36 34.65 39 36.45 42.5 37.4 43.65 37.3 41.15 36 38.25 34.25 35 33.4 33.4 28.25 23.5 25.75 19.55 21.2 12.05 16.35 6.85 13.55 3.9 14.55 0.05 14.75 -0.55 15.55 -4.3 16.1 -6.95 16.85 -8.7 18.85 -13.3 22.25 -14.65 22.55 -14.8 27.05 -17.45 29.85 -19.15 32.05 -19.55 31.1 -20.45 30.25 -20 22.05 -15.5 18.95 -13.35 12.95 -9.2 9.55 -4.25 9.55 -3.55 9.05 -2.8 Z"/>

<path fill="#150103" stroke="none" d="
M 7.65 -15.6
Q 7.15 -15.1 6.1 -14.95 5.05 -14.8 4.5 -14.65 5.55 -8.85 3.2 -2.4 2.8 -1.1 1.85 1.4 1.15 3.65 1 5.35
L 1.95 5.6 3.05 3.5
Q 4.05 2.05 5.85 -0.8 7.6 -3.1 9.55 -4.25 12.95 -9.2 18.95 -13.35 22.05 -15.5 30.25 -20 31.1 -20.45 32.05 -19.55
L 32.45 -19.85
Q 33.8 -21.9 36.7 -22.65 38.35 -23.05 41.65 -23.65 42.15 -23.8 44.25 -24.1 45.9 -24.45 46.85 -24.9
L 46.9 -24.9
Q 52.55 -26.4 59 -24.45 59.4 -24.3 60.45 -23.85 61.4 -23.5 62 -24.6 54.45 -27.1 46.9 -28.7 40.65 -30.05 37.1 -33.4 32.3 -28.2 22.7 -23.5 17.95 -20.35 15.45 -18.95 11.3 -16.45 7.65 -15.6 Z"/>

<path fill="#820E0C" stroke="none" d="
M 5 -18.95
Q 3.4 -21.7 2.7 -22.65 1.35 -24.65 -0.25 -25.9 -0.3 -25.3 0.3 -24.25 0.85 -23.3 0.7 -22.65
L 4.5 -14.65
Q 5.05 -14.8 6.1 -14.95 7.15 -15.1 7.65 -15.6 6.75 -16.1 6.1 -17.1 5.95 -17.3 5 -18.95 Z"/>

<path fill="#DC6E64" stroke="none" d="
M 1.4 -27.55
Q 0.7 -27.15 0.3 -26.9 3.45 -26.55 4.55 -23.85 5.05 -22.65 6.3 -21.4 8.3 -19.25 9.05 -19.35 9.8 -19.5 10.75 -22.2
L 12.45 -26.25 9.8 -30.85 9.25 -30.8
Q 7.15 -29.25 6.05 -28.55 4.15 -27.25 2.15 -28.6 2.05 -27.95 1.4 -27.55 Z"/>

<path fill="#402E28" stroke="none" d="
M 0.3 -26.9
Q 0.7 -27.15 1.4 -27.55 2.05 -27.95 2.15 -28.6
L -4.45 -40.6
Q -4.65 -40.65 -4.9 -40.5
L -4.95 -40.45
Q -5.7 -39.85 -5.65 -39.1 -5.55 -38.6 -5 -37.65
L -2.9 -33.75 -2.85 -33.65
Q -2.6 -32.95 -1.25 -30.7 -0.1 -28.95 -0.3 -27.5
L 0.3 -26.9 Z"/>

<path fill="#B19C9F" stroke="none" d="
M 8.05 -32.45
L 6.65 -31.5
Q 3.95 -29.85 3.15 -30.1 2.55 -30.2 1.55 -31.85 1.2 -32.35 0.85 -32.95
L -3.9 -40.95 -4.45 -40.6 2.15 -28.6
Q 4.15 -27.25 6.05 -28.55 7.15 -29.25 9.25 -30.8
L 8.45 -31.8 8.05 -32.45 Z"/>

<path fill="#DCD5D6" stroke="none" d="
M 6.65 -31.5
L 8.05 -32.45 7.8 -32.9
Q 5.1 -30.75 2.95 -33.75 2 -35.1 0.8 -37.2 -0.55 -39.55 -1.3 -40.65 -1.8 -41.45 -1.4 -42.1 -1.2 -42.5 -0.35 -43.1 -2.75 -42.95 -4.3 -44.35 -5.45 -45.45 -6.45 -47.9 -6.95 -49.2 -7.85 -49.05 -8.5 -48.85 -8.55 -48.25 -8.6 -47.75 -8.2 -47.45 -7.15 -46.65 -6.15 -44.05 -5.2 -41.65 -3.9 -40.95
L 0.85 -32.95
Q 1.2 -32.35 1.55 -31.85 2.55 -30.2 3.15 -30.1 3.95 -29.85 6.65 -31.5 Z"/>

<path fill="#2F2E36" stroke="none" d="
M 2.25 -45.35
Q 2.35 -45.85 2.35 -46.35 2.4 -48.2 1.25 -49.8 -1.25 -53.75 -2.7 -55.6 -4 -57.35 -5.75 -60.9 -7.6 -64.75 -8.6 -66.3 -12.4 -71.55 -14.25 -74.2 -15 -75.35 -15.7 -76.4 -17.85 -79.75 -19.25 -82.5 -19.35 -82.7 -19.95 -84.25 -20.25 -85.05 -20.7 -86.25 -21.55 -88.55 -22.75 -89.7 -24.5 -91.5 -24.5 -94.3 -24.5 -94.9 -24.45 -95.5 -26.1 -94.55 -26.3 -94.35 -26.75 -93.55 -25.7 -91.8 -24.85 -90.45 -23.1 -87.8 -21.6 -85.4 -20.7 -83.75 -20.15 -82.8 -18.5 -79.1 -17.25 -76.3 -16.15 -74.8 -14 -72.05 -11.3 -67.25 -7.8 -61.15 -6.75 -59.6 -1.5 -53.7 1 -46.1 0.55 -45.55 1.05 -44.7
L 2.25 -45.35 Z"/>

<path fill="#413F48" stroke="none" d="
M 0.55 -44.2
L 1.05 -44.7
Q 0.55 -45.55 1 -46.1
L -6.75 -59.6
Q -7.8 -61.15 -11.3 -67.25 -14 -72.05 -16.15 -74.8 -17.25 -76.3 -18.5 -79.1 -20.15 -82.8 -20.7 -83.75 -21.6 -85.4 -23.1 -87.8 -24.85 -90.45 -25.7 -91.8 -26.75 -93.55 -26.3 -94.35 -26.1 -94.55 -24.45 -95.5
L -23.85 -95.85 -24.85 -97.6 -27.75 -96
Q -29.05 -95.3 -29.7 -96.65 -31.45 -99.45 -32.35 -100.9 -33.8 -103.4 -34.45 -105.3 -35.2 -107.45 -36.25 -107.7 -37.1 -107.9 -38.65 -106.8 -38.6 -106.75 -38.6 -106.7 -36.8 -106.5 -36.05 -105.1 -34.7 -102.5 -31.9 -98.6 -28.95 -94.5 -33.05 -92.9
L -35.4 -91.5 -36.55 -91
Q -35.15 -90.5 -35.1 -90.35 -34.75 -87.15 -31.35 -82.1 -27.9 -76.9 -27.4 -73.75 -28.75 -74.45 -29.75 -76.3 -30.9 -78.55 -31.4 -79.1 -31.45 -79.1 -31.5 -79.05 -31.65 -78.95 -31.75 -78.75
L -22.85 -62.85
Q -16 -52.05 -8.95 -38.85 -8.8 -38.55 -8.55 -38.4 -7.6 -39.1 -6.85 -38.9 -6.25 -38.65 -5.7 -37.65 -5.2 -36.95 -4.45 -35.5 -3.75 -34.35 -2.95 -33.75
L -2.9 -33.75 -5 -37.65
Q -5.55 -38.6 -5.65 -39.1 -5.7 -39.85 -4.95 -40.45
L -4.95 -40.5
Q -5.7 -40.65 -6.05 -40.85 -6.6 -41.1 -7 -41.8 -19.65 -64.15 -32.4 -86.35 -33.55 -88.35 -33.65 -88.85 -33.9 -90.2 -32.05 -91.1 -30.1 -91.95 -28.9 -91.85 -27.4 -91.65 -26.2 -89.6 -21.05 -80.9 -11.2 -63.25 -8 -57.6 -1.4 -46.4 -1.15 -45.95 -0.7 -45.05 -0.15 -44.35 0.55 -44.2 Z"/>

<path fill="#4F221E" stroke="none" d="
M 25.45 -40.15
Q 26.85 -41.25 27.45 -42.65 25.6 -42.6 23.65 -41.35 21.35 -39.65 17.9 -37.7 13.9 -35.5 11.85 -34.4 10.6 -33.7 10 -33.35 8.9 -32.7 8.45 -31.8
L 9.25 -30.8 9.8 -30.85 22.8 -38.45
Q 24.7 -39.55 25.45 -40.15 Z"/>

<path fill="#CF281A" stroke="none" d="
M 26.05 -39.2
Q 26.0015625 -39.2 26 -39.15 25.3 -35.45 20.95 -33.45 19.8 -32.85 17.95 -31.7 15.7 -30.4 14.9 -29.95 12.2 -28.7 12.45 -26.25
L 10.75 -22.2
Q 9.8 -19.5 9.05 -19.35 8.3 -19.25 6.3 -21.4 5.05 -22.65 4.55 -23.85 3.45 -26.55 0.3 -26.9
L -0.3 -27.5
Q -0.85 -27.65 -1.15 -27.25 -1.35 -27.1 -1.6 -26.45
L 0.7 -22.65
Q 0.85 -23.3 0.3 -24.25 -0.3 -25.3 -0.25 -25.9 1.35 -24.65 2.7 -22.65 3.4 -21.7 5 -18.95 5.95 -17.3 6.1 -17.1 6.75 -16.1 7.65 -15.6 11.3 -16.45 15.45 -18.95 17.95 -20.35 22.7 -23.5 23.35 -24.9 25.2 -25.85 26.2 -26.45 28.2 -27.45 29.55 -28.25 29.8 -29.05 30.1 -29.9 29.2 -31.15 26.75 -34.4 26.05 -39.2 Z"/>

<path fill="#F6F6F6" stroke="none" d="
M 21.2 -40.65
Q 23.2 -41.75 23.5 -43.2 23.85 -44.55 22.7 -46.45
L 18.35 -53.6 0.85 -43.75 -0.35 -43.1
Q -1.2 -42.5 -1.4 -42.1 -1.8 -41.45 -1.3 -40.65 -0.55 -39.55 0.8 -37.2 2 -35.1 2.95 -33.75 5.1 -30.75 7.8 -32.9
L 14.5 -36.85
Q 18.45 -39.2 21.2 -40.65 Z"/>

<path fill="#D03F33" stroke="none" d="
M 29.5 -43.8
Q 29.5 -44.1 29.3 -44.3
L 27.45 -42.65
Q 26.85 -41.25 25.45 -40.15 24.7 -39.55 22.8 -38.45
L 9.8 -30.85 12.45 -26.25
Q 12.2 -28.7 14.9 -29.95 15.7 -30.4 17.95 -31.7 19.8 -32.85 20.95 -33.45 25.3 -35.45 26 -39.15 26 -39.2919921875 26 -39.4 28.25 -40.45 29.5 -43.8 Z"/>

<path fill="#93160F" stroke="none" d="
M 29.65 -44
L 29.65 -43.8 29.5 -43.8
Q 28.25 -40.45 26 -39.4 26.003125 -39.29375 26.05 -39.2 26.75 -34.4 29.2 -31.15 30.1 -29.9 29.8 -29.05 29.55 -28.25 28.2 -27.45 26.2 -26.45 25.2 -25.85 23.35 -24.9 22.7 -23.5 32.3 -28.2 37.1 -33.4 35.85 -34.9 33.45 -38.8 31.3 -42.35 29.65 -44 Z"/>

<path fill="#CCC5C1" stroke="none" d="
M 25.6 -51.9
Q 23.7 -54.8 22.95 -56.6
L 21.4 -55.5
Q 25.3 -48.8 29.3 -44.3 29.5 -44.1 29.5 -43.8
L 29.65 -43.8 29.65 -44
Q 29.9 -44.8 29.4 -45.7 28.7 -46.7 28.4 -47.2 27.7 -48.75 25.6 -51.9 Z"/>

<path fill="#5C5350" stroke="none" d="
M 19.25 -59.2
Q 20.5 -57.45 20.15 -56.25 19.85 -55.2 18 -54.25
L 18.45 -54.05 21.4 -55.5 22.95 -56.6
Q 23.2 -57.4 22.8 -58.15 22.25 -59 22 -59.45
L -2.3 -100.4
Q -2.35 -100.5 -3.9 -102.6 -4.8 -103.9 -5 -105 -5.45 -108.25 -7.7 -112.3 -10.4 -116.7 -11.5 -118.95 -12.05 -120.05 -12.8 -120.6 -14 -121.5 -15.6 -120.8 -15.55 -120.7 -15.5 -120.6 -13.55 -115.85 -10.5 -110 -8.65 -106.5 -4.7 -99.55 -0.85 -92.75 6.8 -79.05 13.5 -67.35 19.25 -59.2 Z"/>

<path fill="#B49E98" stroke="none" d="
M 18 -54.25
L 15.65 -52.95 11.6 -50.75
Q 7.2 -47.55 2.25 -45.35
L 1.05 -44.7 0.55 -44.2 0.85 -43.8 0.85 -43.75 18.35 -53.6 22.7 -46.45
Q 23.85 -44.55 23.5 -43.2 23.2 -41.75 21.2 -40.65 18.45 -39.2 14.5 -36.85
L 7.8 -32.9 8.05 -32.45 8.45 -31.8
Q 8.9 -32.7 10 -33.35 10.6 -33.7 11.85 -34.4 13.9 -35.5 17.9 -37.7 21.35 -39.65 23.65 -41.35 25.6 -42.6 27.45 -42.65
L 29.3 -44.3
Q 25.3 -48.8 21.4 -55.5
L 18.45 -54.05 18 -54.25 Z"/>

<path fill="#140F12" stroke="none" d="
M 7.15 -54.65
Q 6.45 -57.3 3.55 -61.8 2.15 -64.1 -1.05 -70.15 -3.85 -75.5 -5.8 -78.4 -8.15 -81.95 -11.2 -87.4 -14.7 -93.55 -16.45 -96.6 -18.2 -99.5 -20.95 -97.55
L -23.15 -96.25 -23.25 -96.2 -23.85 -95.85 -24.45 -95.5
Q -24.5 -94.9 -24.5 -94.3 -24.5 -91.5 -22.75 -89.7 -21.55 -88.55 -20.7 -86.25 -20.25 -85.05 -19.95 -84.25 -19.35 -82.7 -19.25 -82.5 -17.85 -79.75 -15.7 -76.4 -15 -75.35 -14.25 -74.2 -12.4 -71.55 -8.6 -66.3 -7.6 -64.75 -5.75 -60.9 -4 -57.35 -2.7 -55.6 -1.25 -53.75 1.25 -49.8 2.4 -48.2 2.35 -46.35 2.35 -45.85 2.25 -45.35 7.2 -47.55 11.6 -50.75 8.1 -51.05 7.15 -54.65 Z"/>

<path fill="#2A2424" stroke="none" d="
M 8.1 -62.2
Q 7.3 -63.7 4.65 -68.1 4.35 -68.65 3.1 -70.1 2.15 -71.3 1.75 -72.2 -4.25 -85.3 -12.1 -95.95 -13.3 -97.7 -13.7 -98.65 -14.3 -100.25 -13.6 -101.8 -13.35 -102.45 -13.45 -102.8 -13.5 -103.35 -14.25 -103.7 -18.55 -105.95 -20.35 -109.8 -22.15 -113.6 -21.2 -118.3
L -21.35 -118.2 -27.65 -114.65
Q -25.55 -112.65 -23.55 -109.1 -22.45 -107.05 -20.25 -103.05 -19.15 -101.15 -20.75 -99.95 -20.25 -98.7 -21.65 -97.9 -23.15 -97.1 -23.25 -96.3 -23.2 -96.3 -23.15 -96.25
L -20.95 -97.55
Q -18.2 -99.5 -16.45 -96.6 -14.7 -93.55 -11.2 -87.4 -8.15 -81.95 -5.8 -78.4 -3.85 -75.5 -1.05 -70.15 2.15 -64.1 3.55 -61.8 6.45 -57.3 7.15 -54.65 8.1 -51.05 11.6 -50.75
L 15.65 -52.95
Q 15.65 -53.05 15.7 -53.15 14.95 -54.1 14.3 -53.7 11.4 -51.95 10.55 -55.75 9.8 -58.75 8.1 -62.2 Z"/>

<path fill="#403735" stroke="none" d="
M 4.65 -68.1
Q 7.3 -63.7 8.1 -62.2 9.8 -58.75 10.55 -55.75 11.4 -51.95 14.3 -53.7 14.95 -54.1 15.7 -53.15 15.65 -53.05 15.65 -52.95
L 18 -54.25
Q 19.85 -55.2 20.15 -56.25 20.5 -57.45 19.25 -59.2 13.5 -67.35 6.8 -79.05 -0.85 -92.75 -4.7 -99.55 -8.65 -106.5 -10.5 -110 -13.55 -115.85 -15.5 -120.6 -15.55 -120.7 -15.6 -120.8
L -21.3 -118.6
Q -21.1 -118.5 -21.2 -118.3 -22.15 -113.6 -20.35 -109.8 -18.55 -105.95 -14.25 -103.7 -13.5 -103.35 -13.45 -102.8 -13.35 -102.45 -13.6 -101.8 -14.3 -100.25 -13.7 -98.65 -13.3 -97.7 -12.1 -95.95 -4.25 -85.3 1.75 -72.2 2.15 -71.3 3.1 -70.1 4.35 -68.65 4.65 -68.1 Z"/>
</g>

<path id="Symbol_9_0_Layer0_0_1_STROKES" stroke="#303030" stroke-opacity="0.4980392156862745" stroke-width="1" stroke-linejoin="round" stroke-linecap="round" fill="none" d="
M -92.8 0
L 92.8 0"/>
</defs>

<g transform="matrix( 1, 0, 0, 1, 104.5,56.75) ">
<g transform="matrix( 1, 0, 0, 1, 0,0) ">
<use xlink:href="#Symbol_9_0_Layer0_0_1_STROKES"/>
</g>
</g>

<g transform="matrix( 1, 0, 0, 1, 21.05,51.95) ">
<clipPath id="Mask_Mask_1">
<rect x="-2" y="-2" width="170.9" height="34.05" fill="#FFFFFF" stroke="none"/>
</clipPath>

<text clip-path="url(#Mask_Mask_1)" writing-mode="lr"><tspan x="26.7" y="23.8" baseline-shift="0%" font-family="Myriad Pro" font-size="25" fill="#000000" xml:space="preserve">Vino Rosso</tspan></text>
</g>

<g transform="matrix( 0.21038818359375, 0, 0, 0.2105255126953125, 104.5,28.2) ">
<g transform="matrix( 1, 0, 0, 1, 0,0) ">
<use xlink:href="#Symbol_10_0_Layer0_0_FILL"/>
</g>
</g>
</svg>
