
<svg xmlns="http://www.w3.org/2000/svg" version="1.1" xmlns:xlink="http://www.w3.org/1999/xlink" preserveAspectRatio="none" x="0px" y="0px" width="209px" height="84px" viewBox="0 0 209 84">
<defs>
<g id="Layer0_0_FILL">
<path fill="#DEDDDB" stroke="none" d="
M 67.35 20.65
Q 66.35 21.05 66.1 21.65 65.85 22.25 66.05 23.3 67.7 30.55 70.1 37.7 71.25 41.05 73.7 43.1 76.2 45.1 79.4 45.25
L 79.45 45.1
Q 77.6 44.65 76.5 44.2 74.9 43.55 73.8 42.6 73.1 42 72.85 41.75 72.35 41.25 72.15 40.65 70.2 37.05 68.7 32 68.3 30.6 66.4 23 66.1 21.95 66.9 21.3 67.3 21 68.45 20.6 70.7 19.75 74 18.15 78.85 15.8 79.5 15.5 79.6 15.15 80 14.95 80.2 14.85 80.65 14.65 80.3 14.5 79.9 14.7 79.4 14.95 79.2 15.05
L 73.3 17.9
Q 69.75 19.55 67.35 20.65 Z"/>

<path fill="#E6E6E6" stroke="none" d="
M 89.65 53.75
L 90.6 53.75 89.45 51.35 88.55 51.45
Q 89.1 52.6 89.65 53.75 Z"/>

<path fill="#C2C1C1" stroke="none" d="
M 88.55 51.45
L 87.9 50.2 87.65 50.3 89.3 53.75 89.65 53.75
Q 89.1 52.6 88.55 51.45 Z"/>

<path fill="#C5C4C4" stroke="none" d="
M 88.3 47
L 88.25 46.95 87.45 46.5 89.45 51.35 90.6 53.75 91.05 53.75
Q 90.15 51.65 88.3 47 Z"/>

<path fill="#939291" stroke="none" d="
M 83.4 45.65
Q 83.1 45.7 83 45.75 82.8 45.85 82.8 46.1 83.6 46.3 85.1 46.95 86.45 47.35 87.45 46.5
L 88.25 46.95 88.3 47
Q 88.05 45.1 88.65 43.65 88.35 43.5 88.05 43.65 87.95 43.7 87.6 43.95 85.65 45.55 83.4 45.65
M 84.8 45.95
Q 85.2 45.6 86 45.4 86.85 45.25 87.15 45 86.9 46.15 86.35 46.35 85.85 46.6 84.8 45.95 Z"/>

<path fill="#737271" stroke="none" d="
M 86 45.4
Q 85.2 45.6 84.8 45.95 85.85 46.6 86.35 46.35 86.9 46.15 87.15 45 86.85 45.25 86 45.4 Z"/>

<path fill="#8F855A" stroke="none" d="
M 81.95 44.85
Q 81.7 44.55 81.65 44.45
L 81.3 44.3
Q 79.35 44.1 78.3 43.45 76.2 42.85 75.2 41.3 74.55 40.3 73.8 40.15 73.2 40.05 72.5 40.45 72.3 40.55 72.15 40.65 72.35 41.25 72.85 41.75 73.1 42 73.8 42.6 74.9 43.55 76.5 44.2 77.6 44.65 79.45 45.1 79.85 45.05 80.75 45.25 81.55 45.4 82 45.3 82.2 45.05 81.95 44.85 Z"/>

<path fill="#D3CDB4" stroke="none" d="
M 83.05 43.8
Q 82.7 43.75 82.6 43.65
L 81.05 43.15 81.3 44.3 81.65 44.45
Q 81.75 44.45 82.6 44.4 83.2 44.45 83.5 44.1 83.4 43.85 83.05 43.8 Z"/>

<path fill="#DCDAD6" stroke="none" d="
M 89.4 42.3
Q 89.8 41.5 89.9 40.8 89.05 41.8 88.65 42.35 87.85 43.25 87.05 43.5 84.75 45.35 82 45.3 81.55 45.4 80.75 45.25 79.85 45.05 79.45 45.1
L 79.4 45.25
Q 80.05 45.55 81.1 45.75 81.65 45.9 82.8 46.1 82.8 45.85 83 45.75 83.1 45.7 83.4 45.65 85.65 45.55 87.6 43.95 87.95 43.7 88.05 43.65 88.35 43.5 88.65 43.65 89.15 42.75 89.4 42.3 Z"/>

<path fill="#D1C597" stroke="none" d="
M 90.25 36.8
Q 90.251171875 36.848828125 90.3 36.85 90.4 37.35 90.15 38.05 89.8 39.05 89.8 39.25 90.45 38.7 90.75 37.65 91.05 36.65 90.95 35.55
L 90.25 36.8 Z"/>

<path fill="#877E56" stroke="none" d="
M 90.3 36.85
L 90.25 36.85
Q 89.65 37.5 89.1 38.75 88.45 40.4 88.15 40.8 87.65 41.55 87.65 41.65 87.3 42.1 86.9 42.35 86.45 42.6 86.45 42.95 86.5 43.3 87.05 43.5 87.85 43.25 88.65 42.35 89.05 41.8 89.9 40.8
L 90.05 40.45
Q 89.45 40.3 89.45 39.95 89.45 39.75 89.8 39.25 89.8 39.05 90.15 38.05 90.4 37.35 90.3 36.85 Z"/>

<path fill="#EBE3C7" stroke="none" d="
M 89.4 32.05
Q 88.95 32.25 88.7 32.4
L 77.85 37.55
Q 75.45 38.7 75.35 39.25 75.25 39.8 77.15 41.7 77.35 41.95 78.05 42.4 78.5 42.8 78.3 43.45 79.35 44.1 81.3 44.3
L 81.05 43.15
Q 78.55 42.2 76.55 40.1 76.2 39.8 76.05 39.65 75.85 39.4 75.95 39.05 76.1 38.75 76.45 38.8 76.9 38.85 77 38.85
L 78.2 38.35
Q 80.7 37.4 84.3 35.3 89.1 32.55 90.2 31.95 89.85 31.85 89.4 32.05 Z"/>

<path fill="#D2C287" stroke="none" d="
M 91.6 31.6
L 91.45 31.35 90.2 31.95
Q 89.1 32.55 84.3 35.3 80.7 37.4 78.2 38.35
L 77 38.85
Q 76.9 38.85 76.45 38.8 76.1 38.75 75.95 39.05 75.85 39.4 76.05 39.65 76.2 39.8 76.55 40.1 78.55 42.2 81.05 43.15
L 82.6 43.65
Q 82.65 43.35 82.9 43.3 83 43.25 83.4 43.25 85.45 43.2 86.7 41.75 87.35 40.95 88.45 38.5 88.85 37.6 89.05 36.9 89.25 35.95 89.1 35.15 88.85 33.8 89.55 32.95 90.1 32.25 91.4 31.8
L 91.6 31.6
M 82.8 36.8
Q 83.25 36.55 84.85 35.8 86.25 35.2 87.05 34.6 87.5 34.3 87.95 34.5 88.35 34.7 88.5 35.25 88.8 36.25 88.55 37.1 87.5 39.85 85.15 42.05 84.3 42.8 83.25 42.6 81.55 42.3 80.55 41.85 79.15 41.3 78.25 40.2 77.85 39.7 77.85 39.45 77.9 39.1 78.5 38.85 78.95 38.65 82.8 36.8 Z"/>

<path fill="#E1D196" stroke="none" d="
M 84.85 35.8
Q 83.25 36.55 82.8 36.8 78.95 38.65 78.5 38.85 77.9 39.1 77.85 39.45 77.85 39.7 78.25 40.2 79.15 41.3 80.55 41.85 81.55 42.3 83.25 42.6 84.3 42.8 85.15 42.05 87.5 39.85 88.55 37.1 88.8 36.25 88.5 35.25 88.35 34.7 87.95 34.5 87.5 34.3 87.05 34.6 86.25 35.2 84.85 35.8 Z"/>

<path fill="#A19565" stroke="none" d="
M 91.7 34.85
Q 91.85 33.8 91.85 33.25 91.85 32.35 91.4 31.8 90.1 32.25 89.55 32.95 88.85 33.8 89.1 35.15 89.25 35.95 89.05 36.9 88.85 37.6 88.45 38.5 87.35 40.95 86.7 41.75 85.45 43.2 83.4 43.25 83 43.25 82.9 43.3 82.65 43.35 82.6 43.65 82.7 43.75 83.05 43.8 83.4 43.85 83.5 44.1 83.2 44.45 82.6 44.4 81.75 44.45 81.65 44.45 81.7 44.55 81.95 44.85 82.2 45.05 82 45.3 84.75 45.35 87.05 43.5 86.5 43.3 86.45 42.95 86.45 42.6 86.9 42.35 87.3 42.1 87.65 41.65 87.65 41.55 88.15 40.8 88.45 40.4 89.1 38.75 89.65 37.5 90.25 36.85
L 90.25 36.8 90.95 35.55
Q 91 35.5 91.4 35.3 91.7 35.15 91.7 34.85 Z"/>

<path fill="#9E9469" stroke="none" d="
M 91.85 33.25
Q 91.85 33.8 91.7 34.85 91.7 35.15 91.4 35.3 91 35.5 90.95 35.55 91.05 36.65 90.75 37.65 90.45 38.7 89.8 39.25 89.45 39.75 89.45 39.95 89.45 40.3 90.05 40.45 92.9 36.7 92.05 32.4
L 91.6 31.6 91.4 31.8
Q 91.85 32.35 91.85 33.25 Z"/>

<path fill="#FEFEFE" stroke="none" d="
M 85.8 21.9
Q 84.7 20.4 81.2 15.9 80.4 14.9 79.5 15.5 78.85 15.8 74 18.15 70.7 19.75 68.45 20.6 67.3 21 66.9 21.3 66.1 21.95 66.4 23 68.3 30.6 68.7 32 70.2 37.05 72.15 40.65 72.3 40.55 72.5 40.45 73.2 40.05 73.8 40.15 74.55 40.3 75.2 41.3 76.2 42.85 78.3 43.45 78.5 42.8 78.05 42.4 77.35 41.95 77.15 41.7 75.25 39.8 75.35 39.25 75.45 38.7 77.85 37.55
L 88.7 32.4
Q 88.95 32.25 89.4 32.05 89.85 31.85 90.2 31.95
L 91.45 31.35
Q 91.2 30.75 90.65 29.8 90 28.65 89.8 28.3 88.25 25.35 85.8 21.9 Z"/>

<path fill="#BFBDBA" stroke="none" d="
M 81.2 15.9
Q 84.7 20.4 85.8 21.9 88.25 25.35 89.8 28.3 90 28.65 90.65 29.8 91.2 30.75 91.45 31.35
L 91.6 31.6 92.05 32.4
Q 92.2 32.1 92.05 31.7 91.85 31.3 91.75 31.05 90.7 28.95 90.35 28.2 89.55 26.65 88.75 25.45 84.55 19.25 80.65 14.65 80.2 14.85 80 14.95 79.6 15.15 79.5 15.5 80.4 14.9 81.2 15.9 Z"/>

<path fill="#EEDDA3" stroke="none" d="
M 127.95 52.1
Q 127.05 51.25 126 50.9 125.3 50.65 125 49.95 124.9 49.75 124.75 49.8 124.7 49.8 124.55 49.95 124.1 50.65 123.2 51.4 122.15 52.2 121.65 52.65 120.75 53.45 120.75 53.75
L 129.4 53.75
Q 128.5 52.65 127.95 52.1 Z"/>

<path fill="#E2CE91" stroke="none" d="
M 135.05 53.75
L 135.3 53.75
Q 135.3 53.6 135.25 53.6
L 135.05 53.75
M 126.55 47.85
L 125.6 48.6 120.6 53
Q 121.5 52.55 122.65 51.55 124.15 50.2 124.55 49.95 124.7 49.8 124.75 49.8 124.9 49.75 125 49.95 125.3 50.65 126 50.9 127.05 51.25 127.95 52.1 128.5 52.65 129.4 53.75
L 131.7 53.75
Q 131.7 53.7 131.75 53.65
L 131.75 53.75 134.1 53.75
Q 134.1 53.6 134.15 53.45 134.2 53.35 134.3 53.4 134.4 53.45 134.5 53.6 135.3 53.05 134.45 52.35 133.35 51.4 131.95 49.7 129.95 47.05 129.7 46.8 129.25 46.3 129.2 46.15 129 45.8 129.1 45.35 129.05 45.4 128.95 45.5
L 128.4 45.95
Q 128.35 46.35 128.05 46.65 127.6 46.9 127.45 47.1
L 126.55 47.85 Z"/>

<path fill="#856656" stroke="none" d="
M 134.15 53.45
Q 134.1 53.6 134.1 53.75
L 134.5 53.75 134.5 53.6
Q 134.4 53.45 134.3 53.4 134.2 53.35 134.15 53.45 Z"/>

<path fill="#816153" stroke="none" d="
M 131.7 53.75
L 131.75 53.75 131.75 53.65
Q 131.7 53.7 131.7 53.75 Z"/>

<path fill="#826251" stroke="none" d="
M 135.55 52.4
L 135.3 52.45 135.25 53.6
Q 135.3 53.6 135.3 53.75
L 135.75 53.75 135.55 52.4 Z"/>

<path fill="#856551" stroke="none" d="
M 136.8 53.75
L 137.15 53.75 136.85 52.2
Q 136.5 52.85 136.55 53.25 136.6 53.5 136.8 53.75 Z"/>

<path fill="#D2BA75" stroke="none" d="
M 137.9 53.75
L 139.1 53.75
Q 138.6 53.15 138.1 53
L 138 53.25
Q 138 53.55 137.9 53.75
M 130.3 44.75
L 130.2 44.45 129.1 45.35
Q 129 45.8 129.2 46.15 129.25 46.3 129.7 46.8 129.95 47.05 131.95 49.7 133.35 51.4 134.45 52.35 135.3 53.05 134.5 53.6
L 134.5 53.75 135.05 53.75 135.25 53.6 135.3 52.45 135.55 52.4 135.75 53.75 136.8 53.75
Q 136.6 53.5 136.55 53.25 136.5 52.85 136.85 52.2 136.8 51.35 136.1 50.55 135.9 50.25 134.85 49.3 134.4 48.95 132.75 47.05 131.45 45.6 130.4 45 130.35 44.95 130.3 44.75 Z"/>

<path fill="#C4A963" stroke="none" d="
M 139 52.3
Q 138.55 51.95 138.05 52.15
L 138.1 53
Q 138.6 53.15 139.1 53.75
L 140.35 53.75
Q 140 53.35 139.65 52.95 139.1 52.35 139 52.3
M 130.2 44.45
L 130.3 44.75
Q 130.35 44.95 130.4 45 131.45 45.6 132.75 47.05 134.4 48.95 134.85 49.3 135.9 50.25 136.1 50.55 136.8 51.35 136.85 52.2
L 137.15 53.75 137.9 53.75
Q 138 53.55 138 53.25 137.75 52.65 137.6 52.35 137.4 51.85 137.4 51.45 135.5 49.1 134.15 47.65 132.3 45.6 130.6 44.15
L 130.2 44.45 Z"/>

<path fill="#8A6B51" stroke="none" d="
M 138.05 52.15
L 138.05 51.8 137.4 51.45
Q 137.4 51.85 137.6 52.35 137.75 52.65 138 53.25
L 138.1 53 138.05 52.15 Z"/>

<path fill="#F4EAC7" stroke="none" d="
M 120.6 53
L 120.4 53.1 119.8 53.55 119.55 53.75 120.75 53.75
Q 120.75 53.45 121.65 52.65 122.15 52.2 123.2 51.4 124.1 50.65 124.55 49.95 124.15 50.2 122.65 51.55 121.5 52.55 120.6 53 Z"/>

<path fill="#9B925D" stroke="none" d="
M 118.55 38.1
Q 118.6 37.7 118.25 37.4 118.1 37.25 117.6 37.05 117.7 37.95 118.55 38.1
M 121.6 41.2
Q 122.3 41.65 122.65 42.15 123.1 42.7 124.6 44.15 125.85 45.4 126.5 46.25 126.8 46.7 126.8 47.05 126.8 47.35 126.4 47.7
L 126.55 47.85 127.45 47.1 127.5 46.75
Q 124.2 42.45 119 38.65 119.35 39.6 120.4 40.45 120.75 40.7 121.6 41.2 Z"/>

<path fill="#E9E7B2" stroke="none" d="
M 108.65 44.1
Q 108.35 44.2 107.85 44.05 107.35 43.9 107.1 43.95 107.1 44.8 107.35 45.7 107.45 46.15 107.9 47.35 108.35 48.55 109.2 49.8 109.6 50.4 110.75 51.95 111.2 52.55 112.25 53.75
L 115.7 53.75
Q 114.75 52.55 113.65 51.05 111.5 48 110.35 46.5 110.25 46.4 109.65 45.15 109.3 44.35 108.65 44.1 Z"/>

<path fill="#C0BD87" stroke="none" d="
M 111.1 45.15
Q 110.75 44.8 110.4 45.05 111.2 46.15 112.8 48.4 114.25 50.35 115.15 51.75 115.55 52.35 116.45 53.4 116.6 53.6 116.7 53.75
L 117.8 53.75
Q 117.05 52.95 116.1 51.7 115.05 50.25 114.5 49.5 114.5 49.45 114.45 49.45 113.75 48.7 113 47.55 112.15 46.2 111.7 45.5 111.5 45.55 111.1 45.15 Z"/>

<path fill="#D5D39D" stroke="none" d="
M 110.05 44.4
Q 109.8 44.45 109.65 44.25 109.45 43.95 109.35 43.85 108.45 42.8 107.95 42.3 107.1 41.35 106.15 41.2 106.65 41.65 107.6 42.5 108.35 43.25 108.65 44.1 109.3 44.35 109.65 45.15 110.25 46.4 110.35 46.5 111.5 48 113.65 51.05 114.75 52.55 115.7 53.75
L 116.7 53.75
Q 116.6 53.6 116.45 53.4 115.55 52.35 115.15 51.75 114.25 50.35 112.8 48.4 111.2 46.15 110.4 45.05
L 110.1 44.35 110.05 44.4 Z"/>

<path fill="#79793F" stroke="none" d="
M 106.1 48.1
Q 106.1 48.3 106.2 48.5 106.25 48.6 106.45 48.8 108.65 51.85 110.05 53.75
L 111.1 53.75 107.9 49.75 107.85 49.75
Q 107.35 49.6 106.9 49 106.25 48.25 106.1 48.1 Z"/>

<path fill="#DEDA99" stroke="none" d="
M 105.3 41.4
Q 105.15 41.65 105.15 42.3 105.15 43.4 105.75 44.75 106.15 45.5 106.9 46.95 107.15 47.55 107.2 47.9 107.25 48.15 107.25 48.4 107.2 48.6 107.1 48.8
L 107.85 49.7 107.9 49.75 111.1 53.75 112.25 53.75
Q 111.2 52.55 110.75 51.95 109.6 50.4 109.2 49.8 108.35 48.55 107.9 47.35 107.45 46.15 107.35 45.7 107.1 44.8 107.1 43.95 107.35 43.9 107.85 44.05 108.35 44.2 108.65 44.1 108.35 43.25 107.6 42.5 106.65 41.65 106.15 41.2 105.5 41.1 105.3 41.4 Z"/>

<path fill="#A09860" stroke="none" d="
M 106.4 37.25
Q 106.45 37.45 106.55 37.55 107.45 38.85 109.3 41.5 110.9 43.8 112.2 45.35 112.85 46.1 113.45 47.3 113.8 48 114.45 49.45 114.5 49.45 114.5 49.5 115.05 50.25 116.1 51.7 117.05 52.95 117.8 53.75
L 118.55 53.75
Q 117.4 52.25 116.8 51.45 115.55 49.75 114.8 48.5 113.45 46.05 111.05 43.15 110.15 42.1 109 40.4 107.8 38.5 107.15 37.55 107.1 37.55 107.05 37.5 106.9 37.45 106.75 37.2 106.6 36.9 106.3 36.95 106.35 37.05 106.4 37.25
M 106.05 36.25
Q 105.95 36.1 105.9 35.95 105.9 35.85 105.9 35.75
L 105.75 35.55 105 34.7
Q 105.15 35.7 106.2 36.8 106.25 36.6 106.05 36.25 Z"/>

<path fill="#988D51" stroke="none" d="
M 105.9 35.95
Q 105.95 36.1 106.05 36.25 106.25 36.6 106.2 36.8
L 106.3 36.95
Q 106.6 36.9 106.75 37.2 106.9 37.45 107.05 37.5 107.1 37.55 107.15 37.55 107.1 37.05 106.65 36.6 105.95 35.85 105.9 35.75 105.9 35.85 105.9 35.95
M 122.65 42.15
Q 122.3 41.65 121.6 41.2 120.75 40.7 120.4 40.45 119.35 39.6 119 38.65
L 118.55 38.1
Q 117.7 37.95 117.6 37.05 116.2 35.65 115.45 35 114.2 33.8 113.2 33 113.15 32.95 111.7 31.4 110.8 30.45 109.9 30.2 109.35 30 108 29.1 106.85 28.3 106 28.25 104.4 28.2 102.9 27.3 101.75 26.6 100.35 25.2 99.95 24.8 99.85 24.75 99.55 24.55 99.25 24.75 98.8 25.05 99.3 25.9 99.55 26.35 99.85 26.8 100 27 101.1 28.55 101.85 29.6 102.25 30.3 102.75 31.2 103.6 32.5 104.05 33.25 105 34.7
L 105.75 35.55 105.95 35.1 105.8 34.9 102.9 30.75
Q 102.8 30.6 102.75 30.45 102.45 29.8 102.35 29.45 102.15 28.9 102.5 28.55 102.8 28.2 103.35 28.45 103.65 28.55 104.2 28.95 104.75 29.25 105.95 29.85 107 30.4 107.55 31.05 107.8 31.35 108.3 31.4 108.7 31.45 109.15 31.35 110.2 31.05 111.05 31.55 111.75 31.95 112.4 32.9 113 33.8 114.05 34.3 114.5 34.55 114.95 34.95 115.15 35.2 115.65 35.7 116.15 36.25 117.85 38.35 119.2 40.05 120.3 40.85 121.15 41.5 121.35 41.65 122 42.05 122.65 42.15 Z"/>

<path fill="#88824A" stroke="none" d="
M 105.95 35.1
L 105.75 35.55 105.9 35.75
Q 105.95 35.85 106.65 36.6 107.1 37.05 107.15 37.55 107.8 38.5 109 40.4 110.15 42.1 111.05 43.15 113.45 46.05 114.8 48.5 115.55 49.75 116.8 51.45 117.4 52.25 118.55 53.75
L 119.55 53.75 119.8 53.55
Q 119.45 53.4 119.4 53.3 117.2 51 115.65 48.55 115.5 48.25 115.1 47.3 114.75 46.55 114.45 46.15 112.65 44 111.75 42.95 110.1 41.05 109.2 39.6 108.65 38.7 107.6 37.35 106.3 35.6 105.95 35.1 Z"/>

<path fill="#D1C57F" stroke="none" d="
M 100.65 36
Q 99.9 34 99.75 33.45 99.5 32.85 99.45 32.7 99.25 32.25 98.95 32 99 32.2 99.7 34.25 100.15 35.6 100.4 36.5 101.65 40.7 103.15 44.05 104.85 47.85 107.05 51 108 52.25 109.15 53.75
L 110.05 53.75
Q 108.65 51.85 106.45 48.8 106.25 48.6 106.2 48.5 106.1 48.3 106.1 48.1 105.05 46.9 104.75 45.8 103.9 44.4 103.05 42.25 102.1 39.75 101.6 38.55 101.2 37.6 100.65 36 Z"/>

<path fill="#D6D08B" stroke="none" d="
M 98.55 28.55
Q 98.4 28.55 98.25 28.55 98.65 29.35 99.4 30.9 100.05 32.3 100.45 33.25 100.6 33.55 103.5 41.15 105.3 45.9 107.1 48.8 107.2 48.6 107.25 48.4 107.25 48.15 107.2 47.9 107.15 47.55 106.9 46.95 106.15 45.5 105.75 44.75 105.15 43.4 105.15 42.3 105.15 41.65 105.3 41.4 105.5 41.1 106.15 41.2 107.1 41.35 107.95 42.3 108.45 42.8 109.35 43.85 109.45 43.95 109.65 44.25 109.8 44.45 110.05 44.4
L 110.05 44.35
Q 109.55 43.8 108.7 42.45 107.9 41.2 107.25 40.7 106 39.65 104.95 37.8 103.85 35.6 103.25 34.55 101.5 31.45 99.1 28.85 98.85 28.6 98.55 28.55 Z"/>

<path fill="#676C38" stroke="none" d="
M 95.7 24.5
L 95.25 24.15 95.2 24.6
Q 96.8 27.5 97.2 28.25 98.25 30.35 98.95 32 99.25 32.25 99.45 32.7 99.5 32.85 99.75 33.45 99.9 34 100.65 36 101.2 37.6 101.6 38.55 102.1 39.75 103.05 42.25 103.9 44.4 104.75 45.8 105.05 46.9 106.1 48.1 106.25 48.25 106.9 49 107.35 49.6 107.85 49.75
L 107.85 49.7 107.1 48.8
Q 105.3 45.9 103.5 41.15 100.6 33.55 100.45 33.25 100.05 32.3 99.4 30.9 98.65 29.35 98.25 28.55 97.9 28.05 97 26.5 96.3 25.2 95.7 24.5 Z"/>

<path fill="#89844C" stroke="none" d="
M 92.65 19.85
L 92.2 20.35 95.2 24.6 95.25 24.15 95.7 24.5
Q 95.35 23.6 94.35 22.25 93.2 20.7 92.85 20.05
L 92.65 19.85 Z"/>

<path fill="#C4BD7A" stroke="none" d="
M 94.25 20.65
L 93.75 19.95
Q 93.4 19.6 92.85 20.05 93.2 20.7 94.35 22.25 95.35 23.6 95.7 24.5 96.3 25.2 97 26.5 97.9 28.05 98.25 28.55 98.4 28.55 98.55 28.55 98.85 28.6 99.1 28.85 101.5 31.45 103.25 34.55 103.85 35.6 104.95 37.8 106 39.65 107.25 40.7 107.9 41.2 108.7 42.45 109.55 43.8 110.05 44.35
L 110.1 44.35 110.4 45.05
Q 110.75 44.8 111.1 45.15 111.5 45.55 111.7 45.5 111.15 44.55 109.75 42.85 108.35 41.15 107.8 40.2 107.5 39.6 106.45 38.35 105.55 37.2 105.2 36.45 104.65 35.25 103.75 33.8 103.3 33.05 102.05 31.25 101.4 30.25 100.1 28.65 98.6 26.85 98.1 26.1 96.8 24.3 96.15 23.4 95 21.8 94.25 20.65 Z"/>

<path fill="#E6D7A5" stroke="none" d="
M 90.85 13
L 89.2 14.35 88.85 14.7
Q 88.75 15.2 88.3 15.45
L 92.2 20.35 92.65 19.85 95 17.5
Q 94.65 17.05 92.85 15.35 91.55 14 90.85 13 Z"/>

<path fill="#5D5D5D" stroke="none" d="
M 88.25 8.55
Q 88.3 8.45 88.35 8.35 88.45 8.05 88.9 7.7 88.35 7.85 87.8 8.35 87.25 8.85 86.9 9.1 87.05 9.2 87.2 9.3 87.4 9.5 87.65 9.75 87.9 9.95 88.35 10.35 88.8 10.75 89.6 11.7 90.25 12.4 90.85 12.7 90.95 12.75 91 12.8
L 91.2 12.6
Q 91.15 12.55 91.05 12.45 90.7 12 90.05 11 89.35 10 88.8 9.5 88.25 9 88.25 8.55 Z"/>

<path fill="#605F5D" stroke="none" d="
M 85.15 11.45
L 85.05 11.35
Q 84.95 11.45 84.9 11.5
L 88 15.1
Q 87.6 14.2 86.65 13.15 85.45 11.8 85.15 11.45
M 85.95 10.4
Q 85.8 10.4 85.6 10.5 85.4 10.75 85.25 10.85 85.05 11.1 85.05 11.3 85.2 11.25 85.55 10.95 85.85 10.8 86.1 11.2 86.55 11.95 87.4 13 88.7 14.45 88.85 14.7
L 89.2 14.35
Q 89.15 14.3 89 14.15 88.65 13.7 87.7 12.6 86.75 11.5 86.3 10.7 86.2 10.45 85.95 10.4 Z"/>

<path fill="#323230" stroke="none" d="
M 85.55 10.95
Q 85.2 11.25 85.05 11.3
L 85.05 11.35 85.15 11.45
Q 85.45 11.8 86.65 13.15 87.6 14.2 88 15.1
L 88.3 15.45
Q 88.75 15.2 88.85 14.7 88.7 14.45 87.4 13 86.55 11.95 86.1 11.2 85.85 10.8 85.55 10.95 Z"/>

<path fill="#818285" stroke="none" d="
M 85.6 10.5
Q 85.8 10.4 85.95 10.4 86.2 10.45 86.3 10.7 86.75 11.5 87.7 12.6 88.65 13.7 89 14.15 89.15 14.3 89.2 14.35
L 90.85 13 91 12.8
Q 90.95 12.75 90.85 12.7 90.25 12.4 89.6 11.7 88.8 10.75 88.35 10.35 87.9 9.95 87.65 9.75 87.4 9.5 87.2 9.3 87.05 9.2 86.9 9.1 86.45 9.55 86.2 9.75 85.75 10.1 85.6 10.5 Z"/>

<path fill="#6C6C6E" stroke="none" d="
M 84.8 7.65
Q 84.65 7.65 84.5 7.8
L 83.4 8.65
Q 83.25 9.05 83.5 9.45 83.65 9.65 84 10.05 84.2 10.05 84.3 10 84.65 9.85 84.9 9.55 85.1 9.25 85.5 8.7 85.7 8.5 85.55 8.3 85.55 8.2 85.3 7.9 85.05 7.6 84.8 7.65 Z"/>

<path fill="#323231" stroke="none" d="
M 84.5 7.8
Q 84.65 7.65 84.8 7.65 85.05 7.6 85.3 7.9 85.55 8.2 85.55 8.3 85.7 8.5 85.5 8.7 85.1 9.25 84.9 9.55 84.65 9.85 84.3 10 84.2 10.05 84 10.05
L 84.6 10.45
Q 84.75 10.3 85.1 10.05 85.35 9.75 85.5 9.55 85.6 9.35 86.1 9 86.45 8.7 86.2 8.2
L 85.2 7.15
Q 83.9 7.55 83.4 8.65
L 84.5 7.8 Z"/>

<path fill="#AE8F6A" stroke="none" d="
M 84.75 5
Q 84.7 5 84.7 5.05
L 86.9 3.25
Q 86.1 2.65 85.55 2.8 85 2.95 83.85 4 84.75 4.05 84.9 4.2 84.95 4.3 84.75 5 Z"/>

<path fill="#6C6C6F" stroke="none" d="
M 84.2 5.55
Q 84.1 5.6 84 5.7 84.15 5.8 84.2 5.9 84.3 6.05 84.2 6.15 83.95 6.4 83.8 6.55 83.25 6.85 83 7.05 82.6 7.4 82.95 7.85 83.15 8.1 83.5 7.75 83.75 7.55 84.15 7.05 84.5 6.65 84.7 6.65 84.95 6.7 85.2 7.15
L 86.2 8.2
Q 85.9 7.6 85.25 6.85 84.25 5.6 84.2 5.55 Z"/>

<path fill="#23211F" stroke="none" d="
M 84 5.8
Q 84 5.75 83.95 5.75
L 82.2 7.25
Q 81.85 7.65 82.2 8.25 82.6 9 82.5 9.3 82.35 10 82.9 10.55 83.45 11.05 84.25 11.1
L 84.6 10.45 84 10.05
Q 83.65 9.65 83.5 9.45 83.25 9.05 83.4 8.65 83.9 7.55 85.2 7.15 84.95 6.7 84.7 6.65 84.5 6.65 84.15 7.05 83.75 7.55 83.5 7.75 83.15 8.1 82.95 7.85 82.6 7.4 83 7.05 83.25 6.85 83.8 6.55 83.95 6.4 84.2 6.15 84.3 6.05 84.2 5.9 84.1 5.85 84 5.8 Z"/>

<path fill="#C4A47D" stroke="none" d="
M 83.95 5.75
L 84 5.7
Q 84.1 5.6 84.2 5.55 83.5 4.3 82.45 5.4 81.95 5.85 81.85 6.25 81.75 6.7 82.2 7.25
L 83.95 5.75 Z"/>

<path fill="#CFBD8E" stroke="none" d="
M 84 5.7
L 83.95 5.75
Q 84 5.75 84 5.8 84.1 5.85 84.2 5.9 84.15 5.8 84 5.7
M 83.05 4.6
Q 82.6 5 82.45 5.4 83.5 4.3 84.2 5.55 84.25 5.6 85.25 6.85 85.9 7.6 86.2 8.2 86.45 8.7 86.1 9 85.6 9.35 85.5 9.55 85.35 9.75 85.1 10.05 84.75 10.3 84.6 10.45
L 84.25 11.1
Q 84.45 11.35 84.5 11.4 84.7 11.55 84.9 11.5 84.95 11.45 85.05 11.35
L 85.05 11.3
Q 85.05 11.1 85.25 10.85 85.4 10.75 85.6 10.5 85.75 10.1 86.2 9.75 86.45 9.55 86.9 9.1 87.25 8.85 87.8 8.35 88.35 7.85 88.9 7.7
L 88.9 7.75
Q 89.2 7.7 89.75 7.25 90.3 6.8 90.7 6.85 90.9 6.25 90.4 5.85 88.8 6.95 88 7.5 87.15 8.1 86.55 7.35
L 84.7 5.05
Q 84.7 5 84.75 5 84.95 4.3 84.9 4.2 84.75 4.05 83.85 4 83.3 4.4 83.05 4.6 Z"/>

<path fill="#1B1A17" stroke="none" d="
M 90.4 5.85
Q 90.3 4.7 89.35 4 88.4 3.25 86.9 3.25
L 84.7 5.05 86.55 7.35
Q 87.15 8.1 88 7.5 88.8 6.95 90.4 5.85
M 86.3 4.2
Q 86.6 4.05 86.85 4.3 87.15 4.6 86.85 4.8 86.75 4.9 86.6 4.9 86.45 4.9 86.35 4.75 86.15 4.5 86.3 4.2
M 88.2 6.15
Q 87.95 5.9 87.8 5.75 87.65 5.5 87.6 5.4 87.55 5.15 87.75 5.05 88 4.8 88.3 5 88.4 5.05 88.7 5.4 89.15 6 88.75 6.2 88.45 6.35 88.2 6.15 Z"/>

<path fill="#5F5F60" stroke="none" d="
M 87.8 5.75
Q 87.95 5.9 88.2 6.15 88.45 6.35 88.75 6.2 89.15 6 88.7 5.4 88.4 5.05 88.3 5 88 4.8 87.75 5.05 87.55 5.15 87.6 5.4 87.65 5.5 87.8 5.75 Z"/>

<path fill="#69696B" stroke="none" d="
M 86.85 4.3
Q 86.6 4.05 86.3 4.2 86.15 4.5 86.35 4.75 86.45 4.9 86.6 4.9 86.75 4.9 86.85 4.8 87.15 4.6 86.85 4.3 Z"/>

<path fill="#D4BF7F" stroke="none" d="
M 94 10.55
L 92.3 11.75 91.2 12.6 91 12.8 90.85 13
Q 91.55 14 92.85 15.35 94.65 17.05 95 17.5
L 96.3 16.45 96.9 15.95 98.1 14.95 94 10.55 Z"/>

<path fill="#444341" stroke="none" d="
M 92.3 11.75
Q 92.25 11.4 92.05 11.15 91.95 11 91.65 10.65 91.3 10.2 90.25 9.25 89.3 8.35 88.9 7.75
L 88.9 7.7
Q 88.45 8.05 88.35 8.35 88.3 8.45 88.25 8.55 88.25 9 88.8 9.5 89.35 10 90.05 11 90.7 12 91.05 12.45 91.15 12.55 91.2 12.6
L 92.3 11.75 Z"/>

<path fill="#1D1C19" stroke="none" d="
M 92.05 11.15
Q 92.25 11.4 92.3 11.75
L 94 10.55 90.7 6.85
Q 90.3 6.8 89.75 7.25 89.2 7.7 88.9 7.75 89.3 8.35 90.25 9.25 91.3 10.2 91.65 10.65 91.95 11 92.05 11.15 Z"/>

<path fill="#C3B775" stroke="none" d="
M 103.35 21.05
L 101.65 19.4
Q 100.35 18.55 99.05 17.05 98.55 16.5 98.1 16.25 97.55 15.95 96.9 15.95
L 96.3 16.45
Q 96.3 16.85 95.95 17.1 95.5 17.4 95.35 17.55 94.9 18 94.95 18.3 95 18.55 95.55 18.95 95.95 19.2 97.1 20.3 98.05 21.15 98.75 21.55 98.9 21.6 99 21.9 99.2 22.25 99.2 22.35 100.35 23.9 101.25 23.9 102 23.85 102.55 24.2 102.95 24.5 103.3 25.1 103.7 25.65 104.2 26.05 104.7 26.5 105.15 26.6 107.3 27.1 108.75 28.55 109.3 29.15 109.7 29.4 110.3 29.7 110.95 29.7 111.15 29.75 111.4 29.9 111.6 30 111.75 30.15 112.65 31.35 114.4 33 116.6 35.15 117.15 35.75 117.8 36.45 119.05 37.8 120.15 39 121.1 39.65 120.2 38.45 118.1 36.3 115.95 34.1 115.05 32.9 114.8 32.6 113.1 30.25 110.4 28.5 109.05 27.6 106.7 26.05 105.35 24.55 104.75 23.8 104.45 23.45 103.85 22.75 103.35 22.4 103.1 22.25 103.2 21.8 103.2 21.6 103.35 21.05 Z"/>

<path fill="#857A4B" stroke="none" d="
M 102.6 19.6
Q 102.7 19.65 102.8 19.65
L 98.1 14.95 96.9 15.95
Q 97.55 15.95 98.1 16.25 98.55 16.5 99.05 17.05 100.35 18.55 101.65 19.4
L 101.25 18.85 101.25 18.8 102.6 19.6 Z"/>

<path fill="#ACA362" stroke="none" d="
M 127.65 46.4
Q 127.6 46.35 127.4 46.1 125.4 43.4 122.05 40.55 121.55 40.15 121.1 39.65 120.15 39 119.05 37.8 117.8 36.45 117.15 35.75 116.6 35.15 114.4 33 112.65 31.35 111.75 30.15 111.6 30 111.4 29.9 111.15 29.75 110.95 29.7 110.3 29.7 109.7 29.4 109.3 29.15 108.75 28.55 107.3 27.1 105.15 26.6 104.7 26.5 104.2 26.05 103.7 25.65 103.3 25.1 102.95 24.5 102.55 24.2 102 23.85 101.25 23.9 100.35 23.9 99.2 22.35 99.2 22.25 99 21.9 98.9 21.6 98.75 21.55 98.05 21.15 97.1 20.3 95.95 19.2 95.55 18.95 95 18.55 94.95 18.3 94.9 18 95.35 17.55 95.5 17.4 95.95 17.1 96.3 16.85 96.3 16.45
L 95 17.5 92.65 19.85 92.85 20.05
Q 93.4 19.6 93.75 19.95
L 94.25 20.65
Q 95 21.8 96.15 23.4 96.8 24.3 98.1 26.1 98.6 26.85 100.1 28.65 101.4 30.25 102.05 31.25 103.3 33.05 103.75 33.8 104.65 35.25 105.2 36.45 105.55 37.2 106.45 38.35 107.5 39.6 107.8 40.2 108.35 41.15 109.75 42.85 111.15 44.55 111.7 45.5 112.15 46.2 113 47.55 113.75 48.7 114.45 49.45 113.8 48 113.45 47.3 112.85 46.1 112.2 45.35 110.9 43.8 109.3 41.5 107.45 38.85 106.55 37.55 106.45 37.45 106.4 37.25 106.35 37.05 106.3 36.95
L 106.2 36.8
Q 105.15 35.7 105 34.7 104.05 33.25 103.6 32.5 102.75 31.2 102.25 30.3 101.85 29.6 101.1 28.55 100 27 99.85 26.8 99.55 26.35 99.3 25.9 98.8 25.05 99.25 24.75 99.55 24.55 99.85 24.75 99.95 24.8 100.35 25.2 101.75 26.6 102.9 27.3 104.4 28.2 106 28.25 106.85 28.3 108 29.1 109.35 30 109.9 30.2 110.8 30.45 111.7 31.4 113.15 32.95 113.2 33 114.2 33.8 115.45 35 116.2 35.65 117.6 37.05 118.1 37.25 118.25 37.4 118.6 37.7 118.55 38.1
L 119 38.65
Q 124.2 42.45 127.5 46.75 127.65 46.55 127.65 46.4 Z"/>

<path fill="#C4C088" stroke="none" d="
M 127.75 45.2
Q 127.4 44.75 127.1 44.45
L 118.25 35.55
Q 116.5 34.1 116.4 34.05 115.8 33.55 115.7 33.35 115.3 32.95 115.25 32.6 115.05 31.75 114.45 31.15 114 30.7 113.1 30.25 114.8 32.6 115.05 32.9 115.95 34.1 118.1 36.3 120.2 38.45 121.1 39.65 121.55 40.15 122.05 40.55 125.4 43.4 127.4 46.1 127.6 46.35 127.65 46.4 127.65 46.55 127.5 46.75
L 127.45 47.1
Q 127.6 46.9 128.05 46.65 128.35 46.35 128.4 45.95
L 127.75 45.2 Z"/>

<path fill="#C3A760" stroke="none" d="
M 130.95 43.85
L 130.7 43.95 130.6 44.15
Q 132.3 45.6 134.15 47.65 135.5 49.1 137.4 51.45
L 138.05 51.8
Q 138.3 51.6 138.2 51.4 138 51.2 137.9 51.05 137.3 50.05 136 48.75 134.2 47.05 133.9 46.65 132.3 44.8 130.95 43.85 Z"/>

<path fill="#70733C" stroke="none" d="
M 125.6 48.6
Q 124.35 46.4 123.6 45.45 122.3 43.8 120.75 42.95 120.2 42.6 120 42.6 119.55 42.5 119.25 43 119.05 43.3 118.75 43.05 117.2 41.75 116.75 41.15 115.8 40 115.75 38.6 115.7 38.1 115.6 38.05 114.9 37.85 113.65 37 112.5 36.15 111.75 36 110.95 35.85 109.9 35.05 108.75 34.15 108.2 33.95 107.9 33.8 107.75 33.7 107.45 33.6 107.25 33.75 107 33.95 106.95 34.25 106.9 34.55 107.05 34.85 107.4 35.5 108.15 36.75 108.75 37.9 109.35 38.65 109.55 38.95 110.25 40 110.8 40.85 111.2 41.3 111.7 41.9 112.75 43.05 113.7 44.1 114.3 44.85 114.8 45.6 115.05 45.95 115.45 46.55 115.7 47.15 116.25 48.65 117.8 50.3 118.65 51.25 120.4 53.1
L 120.6 53 125.6 48.6 Z"/>

<path fill="#888248" stroke="none" d="
M 124.3 44.85
Q 125.3 45.95 126.4 47.7 126.8 47.35 126.8 47.05 126.8 46.7 126.5 46.25 125.85 45.4 124.6 44.15 123.1 42.7 122.65 42.15 122 42.05 121.35 41.65 121.15 41.5 120.3 40.85 119.2 40.05 117.85 38.35 116.15 36.25 115.65 35.7 115.15 35.2 114.95 34.95 114.5 34.55 114.05 34.3 113 33.8 112.4 32.9 111.75 31.95 111.05 31.55 110.2 31.05 109.15 31.35 108.7 31.45 108.3 31.4 107.8 31.35 107.55 31.05 107 30.4 105.95 29.85 104.75 29.25 104.2 28.95 103.65 28.55 103.35 28.45 102.8 28.2 102.5 28.55 102.15 28.9 102.35 29.45 102.45 29.8 102.75 30.45 102.8 30.6 102.9 30.75
L 105.8 34.9
Q 105.85 33.5 104.7 32.7 104.15 32.3 103.8 31.5 103.6 31.1 103.3 30.05 103.25 29.85 103.3 29.65 103.4 29.45 103.6 29.35 104 29.2 104.3 29.5 104.5 29.7 104.85 30.1 106.6 31.8 106.8 31.9 108 32.8 109.3 32.85 109.95 32.85 110.1 33.2 110.4 34.05 111.6 34 112.65 33.95 113.55 34.9 114.25 35.55 115.7 36.85 117 38.05 117.65 39.1 118.3 40.2 119.35 41.1 120.25 41.9 121.6 42.65 123 43.45 124.3 44.85 Z"/>

<path fill="#7E7D43" stroke="none" d="
M 126.4 47.7
Q 125.3 45.95 124.3 44.85 123 43.45 121.6 42.65 120.25 41.9 119.35 41.1 118.3 40.2 117.65 39.1 117 38.05 115.7 36.85 114.25 35.55 113.55 34.9 112.65 33.95 111.6 34 110.4 34.05 110.1 33.2 109.95 32.85 109.3 32.85 108 32.8 106.8 31.9 106.6 31.8 104.85 30.1 104.5 29.7 104.3 29.5 104 29.2 103.6 29.35 103.4 29.45 103.3 29.65 103.25 29.85 103.3 30.05 103.6 31.1 103.8 31.5 104.15 32.3 104.7 32.7 105.85 33.5 105.8 34.9
L 105.95 35.1
Q 106.3 35.6 107.6 37.35 108.65 38.7 109.2 39.6 110.1 41.05 111.75 42.95 112.65 44 114.45 46.15 114.75 46.55 115.1 47.3 115.5 48.25 115.65 48.55 117.2 51 119.4 53.3 119.45 53.4 119.8 53.55
L 120.4 53.1
Q 118.65 51.25 117.8 50.3 116.25 48.65 115.7 47.15 115.45 46.55 115.05 45.95 114.8 45.6 114.3 44.85 113.7 44.1 112.75 43.05 111.7 41.9 111.2 41.3 110.8 40.85 110.25 40 109.55 38.95 109.35 38.65 108.75 37.9 108.15 36.75 107.4 35.5 107.05 34.85 106.9 34.55 106.95 34.25 107 33.95 107.25 33.75 107.45 33.6 107.75 33.7 107.9 33.8 108.2 33.95 108.75 34.15 109.9 35.05 110.95 35.85 111.75 36 112.5 36.15 113.65 37 114.9 37.85 115.6 38.05 115.7 38.1 115.75 38.6 115.8 40 116.75 41.15 117.2 41.75 118.75 43.05 119.05 43.3 119.25 43 119.55 42.5 120 42.6 120.2 42.6 120.75 42.95 122.3 43.8 123.6 45.45 124.35 46.4 125.6 48.6
L 126.55 47.85 126.4 47.7 Z"/>

<path fill="#B2944C" stroke="none" d="
M 130.9 42.25
Q 131.3 42.75 131.4 43.05 131.5 43.45 130.95 43.85 132.3 44.8 133.9 46.65 134.2 47.05 136 48.75 137.3 50.05 137.9 51.05 138 51.2 138.2 51.4 138.3 51.6 138.05 51.8
L 138.05 52.15
Q 138.55 51.95 139 52.3 139.1 52.35 139.65 52.95 140 53.35 140.35 53.75
L 142.45 53.75
Q 140.9 52 139.7 50.7 138.1 49 135.8 46.3 133.25 43.25 131.95 41.75 131.7 41.4 131.55 41.25 131.3 40.95 131 40.95 131.7 41.8 131.8 41.95 131.9 42.05 132.15 42.3 132.25 42.55 132.05 42.75 131.85 42.95 131.65 42.8 131.45 42.55 131.3 42.5 131.25 42.45 130.9 42.25 Z"/>

<path fill="#D1C77E" stroke="none" d="
M 123.15 33.25
Q 124.15 33.85 125.35 35.1 126.05 35.8 127.35 37.2 127.95 37.75 129.15 39.05 130.3 40.3 131 40.95 131.3 40.95 131.55 41.25 131.7 41.4 131.95 41.75 133.25 43.25 135.8 46.3 138.1 49 139.7 50.7 140.9 52 142.45 53.75
L 143.1 53.75
Q 141.2 51.6 140 50.2 135.9 45.55 133.05 42.35 130.25 39.2 129.3 38.2 127.1 35.85 125.3 34.2 122.05 31.2 117.3 28.4 114.95 27.05 108.55 23.8 109.15 24.45 110.15 25 110.7 25.35 111.9 25.95 113.85 26.95 114.8 27.5 116.35 28.4 117.55 29.25 119.55 30.1 121.1 31.6 121.15 31.6 121.25 31.7 122.25 32.15 123.15 33.25 Z"/>

<path fill="#7E7D41" stroke="none" d="
M 124.9 35
Q 126 36.1 126.1 36.25 126.8 37 127 37.75
L 130.9 42.25
Q 131.25 42.45 131.3 42.5 131.45 42.55 131.65 42.8 131.85 42.95 132.05 42.75 132.25 42.55 132.15 42.3 131.9 42.05 131.8 41.95 131.7 41.8 131 40.95 130.3 40.3 129.15 39.05 127.95 37.75 127.35 37.2 126.05 35.8 125.35 35.1 124.15 33.85 123.15 33.25 123.6 33.75 124.9 35
M 125.75 36.2
Q 125.25 35.6 124.7 35.4 125 35.7 125.55 36.4 126.05 37 126.55 37.25 126 36.55 125.75 36.2 Z"/>

<path fill="#E9E8B2" stroke="none" d="
M 121.9 34.9
Q 121.75 34.65 121.7 34.6 121.15 34.1 120.55 33.95 119.85 33.75 119.3 34 118.95 34.2 119.1 34.75 119.15 35.05 119.3 35.75 119.35 36 119.5 36.15 119.6 36.2 119.9 36.4 121.2 37.05 121.85 37.9 122.35 38.6 123.85 40 125.2 41.25 125.75 42.15 125.85 42.25 126.05 42.4 126.35 42.55 126.4 42.65 126.85 43.1 127.8 43.95 128.6 44.75 128.95 45.5 129.05 45.4 129.1 45.35
L 130.2 44.45 130.6 44.15 130.7 43.95
Q 130.75 43.7 130.75 43.55 130.7 43.4 130.5 43.25 129.6 42.75 128.65 41.5 127.3 39.75 127.1 39.5 125.65 37.85 124.85 37.05 123.5 35.7 122.15 35.1 122 35.05 121.9 34.9 Z"/>

<path fill="#DCD99B" stroke="none" d="
M 121.7 34.6
Q 121.75 34.65 121.9 34.9 122 35.05 122.15 35.1 123.5 35.7 124.85 37.05 125.65 37.85 127.1 39.5 127.3 39.75 128.65 41.5 129.6 42.75 130.5 43.25 130.7 43.4 130.75 43.55 130.75 43.7 130.7 43.95
L 130.95 43.85
Q 131.5 43.45 131.4 43.05 131.3 42.75 130.9 42.25
L 127 37.75 126.55 37.25
Q 126.05 37 125.55 36.4 125 35.7 124.7 35.4
L 123.55 34.5
Q 122.55 34.25 121.5 33.6 121 33.2 119.8 32.2 119.25 31.8 118.1 31.6 117 31.4 116.7 31.75 116.25 32.4 116.6 33.1 116.8 33.5 117.4 34.2 117.55 34.4 117.95 34.8 118.25 35.15 118.25 35.55
L 127.1 44.45
Q 127.4 44.75 127.75 45.2
L 128.4 45.95 128.95 45.5
Q 128.6 44.75 127.8 43.95 126.85 43.1 126.4 42.65 126.35 42.55 126.05 42.4 125.85 42.25 125.75 42.15 125.2 41.25 123.85 40 122.35 38.6 121.85 37.9 121.2 37.05 119.9 36.4 119.6 36.2 119.5 36.15 119.35 36 119.3 35.75 119.15 35.05 119.1 34.75 118.95 34.2 119.3 34 119.85 33.75 120.55 33.95 121.15 34.1 121.7 34.6 Z"/>

<path fill="#D5CE89" stroke="none" d="
M 122.7 33.65
Q 122.1 33.15 121.75 32.95 119.8 31.4 116.85 29.7 113.45 27.8 111.75 26.8 107.7 24.5 103.35 21.05 103.2 21.6 103.2 21.8 103.1 22.25 103.35 22.4 103.85 22.75 104.45 23.45 104.75 23.8 105.35 24.55 106.7 26.05 109.05 27.6 110.4 28.5 113.1 30.25 114 30.7 114.45 31.15 115.05 31.75 115.25 32.6 115.3 32.95 115.7 33.35 115.8 33.55 116.4 34.05 116.5 34.1 118.25 35.55 118.25 35.15 117.95 34.8 117.55 34.4 117.4 34.2 116.8 33.5 116.6 33.1 116.25 32.4 116.7 31.75 117 31.4 118.1 31.6 119.25 31.8 119.8 32.2 121 33.2 121.5 33.6 122.55 34.25 123.55 34.5 123.25 34.05 122.7 33.65 Z"/>

<path fill="#6A6E3A" stroke="none" d="
M 121.75 32.95
Q 122.1 33.15 122.7 33.65 123.25 34.05 123.55 34.5
L 124.7 35.4
Q 125.25 35.6 125.75 36.2 126 36.55 126.55 37.25
L 127 37.75
Q 126.8 37 126.1 36.25 126 36.1 124.9 35 123.6 33.75 123.15 33.25 122.25 32.15 121.25 31.7 121.15 31.6 121.1 31.6 119.55 30.1 117.55 29.25 116.35 28.4 114.8 27.5 113.85 26.95 111.9 25.95 110.7 25.35 110.15 25 109.15 24.45 108.55 23.8 107.2 23 105.6 21.85 104.7 21.2 102.8 19.65 102.7 19.65 102.6 19.6
L 101.25 18.8 101.25 18.85 101.65 19.4 103.35 21.05
Q 107.7 24.5 111.75 26.8 113.45 27.8 116.85 29.7 119.8 31.4 121.75 32.95 Z"/>
</g>

<path id="Symbol_9_0_Layer0_0_1_STROKES" stroke="#303030" stroke-opacity="0.4980392156862745" stroke-width="1" stroke-linejoin="round" stroke-linecap="round" fill="none" d="
M -92.8 0
L 92.8 0"/>
</defs>

<g transform="matrix( 1, 0, 0, 1, 104.5,56.75) ">
<g transform="matrix( 1, 0, 0, 1, 0,0) ">
<use xlink:href="#Symbol_9_0_Layer0_0_1_STROKES"/>
</g>
</g>

<g transform="matrix( 1, 0, 0, 1, 21.05,51.95) ">
<clipPath id="Mask_Mask_1">
<rect x="-2" y="-2" width="170.9" height="34.05" fill="#FFFFFF" stroke="none"/>
</clipPath>

<text clip-path="url(#Mask_Mask_1)" writing-mode="lr"><tspan x="21.9" y="23.8" baseline-shift="0%" font-family="Myriad Pro" font-size="25" fill="#000000" xml:space="preserve">Vino Bianco</tspan></text>
</g>

<g transform="matrix( 1, 0, 0, 1, 0,0) ">
<use xlink:href="#Layer0_0_FILL"/>
</g>
</svg>
