
<svg xmlns="http://www.w3.org/2000/svg" version="1.1" xmlns:xlink="http://www.w3.org/1999/xlink" preserveAspectRatio="none" x="0px" y="0px" width="209px" height="84px" viewBox="0 0 209 84">
<defs>
<g id="Layer0_0_MEMBER_0_MEMBER_0_FILL">
<path fill="#FD5D43" stroke="none" d="
M 150.8 344.85
Q 149.8 345.15 149.3 345.4 144.95 348.4 143.85 349.85 141.65 352.75 143.35 356.8 147.6 367.05 148.35 368.7 151.35 375.35 154.5 380
L 184.5 380
Q 185.25 379.05 185.05 378.2 180.5 359.35 175.4 347.05 173.15 341.8 168.35 341.75 159.2 342.45 150.8 344.85 Z"/>
</g>

<g id="Layer0_0_MEMBER_0_MEMBER_1_FILL">
<path fill="#FD624F" stroke="none" d="
M 200.05 343.15
Q 195.15 342.45 188.55 339.3 186.35 338.25 183.05 336.55 178.3 334.05 177.6 333.7 176.65 333.65 175.9 334.35 175.55 334.65 174.8 335.75 174.55 337.8 171.85 339.6 168.95 341.55 168.45 343 171.85 343 173.5 345.65 174.1 346.55 175.45 350.8 177.4 356.65 180.05 365.4 181.55 370.3 184.5 380
L 211.5 380
Q 212.85 378.3 212.5 376.25 212.35 375.2 211.2 372.6 208.3 366.15 208.05 365.5 206.45 361.4 206.05 358.15 205.2 350.8 200.05 343.15 Z"/>
</g>

<g id="Layer0_0_MEMBER_0_MEMBER_2_FILL">
<path fill="#ED5A4F" stroke="none" d="
M 202.05 315.75
Q 198.5 311.5 197.65 310.75 194.9 308.2 191.7 307.75 189.55 308.05 183.95 307.15 179.05 306.35 176.15 307.3 174.7 308.8 175.65 310.25 176.2 311.05 177.5 312.55 179.8 315.3 180.1 318.15 180.35 321 178.75 324.35 176.85 328.4 176.7 328.95 175.95 331.75 177.45 334.05 180.45 337.25 186.2 339.7 189.4 341.1 195.75 343.85 196.55 344.25 197.65 343.9 197.75 343.85 199.45 343.05 199.9 342.8 200.65 342 201.35 341.3 201.9 341.05 205.65 341.25 207.75 342.3 210.45 343.7 211.45 347 211.9 348.4 213 349.85 213.55 350.6 215.05 352.25 222.15 360.15 222.5 369.55 222.75 375.85 226.5 380
L 229.5 380
Q 230.45 378.85 230.3 377.45 230.2 376.6 229.55 374.85 228.55 372.2 227 367.05 225.35 361.65 224.45 359.2 222.65 354.9 222 352.65 215.7 331.9 202.05 315.75 Z"/>
</g>

<g id="Layer0_0_MEMBER_0_MEMBER_3_FILL">
<path fill="#FD6958" stroke="none" d="
M 149.5 346.05
Q 145.3 345.85 140.4 344.7 137 343.85 131.6 342.1 128.75 341.15 126.55 345.2 121.6 353.85 120.1 359.15 118.45 365.2 118.75 369.75 119.1 375.55 122.5 380
L 154.5 380
Q 153.8 376.1 151.1 370.75 147.1 362.85 146.7 361.85 143.9 355.05 144.1 353.45 144.35 351.55 149 346.9
L 149.5 346.05 Z"/>
</g>

<g id="Layer0_0_MEMBER_0_MEMBER_4_FILL">
<path fill="#F9685F" stroke="none" d="
M 149.5 346.05
L 150.5 346.05
Q 154.45 343.95 159.9 343.4 165.5 342.85 168.55 341.65 173 339.9 175.45 336.05
L 177.45 334.05
Q 177.15 328.9 180.15 324.05 182.25 320.75 181.55 317.6 181.05 315.2 178.5 312.05 177.75 312.95 177.35 315.25 176.95 317.45 176.1 318.4 173.3 321.5 168.9 327.25 163.9 333.8 161.8 336.25 159.05 339.55 155.05 340.6 151.25 341.6 147.3 340.4 144.85 339.6 138.4 338.25 132.7 337 129.55 335.8 123.25 333.35 118.65 338.25 115.1 344.35 112.4 354.7 108.35 370 107.75 371.75 105.95 377 109.5 380
L 122.5 380
Q 121.9 377.95 121.65 376.9 121.1 375.1 120.9 373.75 120.1 368.55 120 366.45 119.85 362.3 121.2 359.55 122.15 357.7 124.25 352.85 126.1 348.55 127.4 346.15 128.7 343.8 130.1 343.2 131.6 342.6 133.65 343.7 138 346 141.35 346.65 145.55 347.45 149.5 346.05 Z"/>
</g>

<g id="Layer0_0_MEMBER_0_MEMBER_5_FILL">
<path fill="#FA695A" stroke="none" d="
M 201.5 340.05
Q 200.15 340.1 199.7 341 199.45 341.55 199.45 343.05 202 347.25 203.85 353.9 204.9 357.65 206.8 365.2 206.9 365.55 210.05 372.35 212.05 376.65 211.5 380
L 226.5 380
Q 226.3 378.05 224.75 373.6 223.35 369.6 223.4 367.05 223.55 360.75 218.45 354.4 216.15 351.85 215.05 350.55 213.05 348.2 212.45 346.05 207.6 340.8 201.5 340.05 Z"/>
</g>

<g id="Layer0_0_MEMBER_0_MEMBER_6_FILL">
<path fill="#ED6C65" stroke="none" d="
M 119.5 338
Q 117.2 336 114.15 338.25 112.2 339.7 110.8 339.3 109.5 338.9 108.45 336.8 106.9 336.65 105.7 337.65 105.1 338.15 103.85 339.85 100.6 344.4 99.05 345.95 97.6 348.1 97.25 351.1 97.05 352.6 97.1 356.55 97.6 364.25 98.75 371.9 99 373.3 99.05 376.1 99.25 378.55 100.5 380
L 109.5 380
Q 108.25 377.25 108.35 374.35 108.45 371.45 109.8 369.05 111.25 366.5 112.05 362.8 112.75 358.55 113.15 356.4 113.45 354.75 114.2 352.65 115.1 350.3 115.55 349.05 117.15 345.5 117.95 343.7 119.4 340.45 119.5 338 Z"/>
</g>

<g id="Layer0_0_MEMBER_0_MEMBER_7_FILL">
<path fill="#F3F1F6" stroke="none" d="
M 328.95 343.2
Q 328.65 342.2 328.85 340.95 329.2 339.55 329.25 338.8 329.25 337.5 328.4 336.7 323.85 336.55 320.85 337.55 317.1 338.8 314.7 342 314.5 343.15 314.7 343.95 316.4 350.45 319.7 360.55 324.1 374.05 325 377.05 325.55 378.95 327.5 380
L 338.5 380
Q 339.7 378.55 339.55 376.75 339.45 375.6 338.55 373.5 336.1 367.75 333.45 358.45 329.65 345.35 328.95 343.2 Z"/>
</g>

<g id="Layer0_0_MEMBER_0_MEMBER_8_FILL">
<path fill="#5A2225" stroke="none" d="
M 228.5 333.45
Q 227.9 332.65 227.5 332.35 225.95 331.6 225.2 332.25 224.5 332.85 225.1 334.2 225.45 335.1 224.85 335.55 224.1 336.05 224.15 336.3 223.8 341.7 226 344.7 226.95 346.05 226.5 347.45 225.95 349 225.05 353.35 224.25 357.1 223.25 359.15
L 229.5 380 245.5 380
Q 246.2 377.15 245.1 373.9 244.7 372.85 242.45 368.4 241.4 367.45 240.7 366.05 240.25 365.2 239.55 363.3 236.05 353.25 234.3 348.25 231.15 339.3 228.5 333.45 Z"/>
</g>

<g id="Layer0_0_MEMBER_0_MEMBER_9_FILL">
<path fill="#D4BCC0" stroke="none" d="
M 172.8 284.05
Q 176.3 287.25 181.2 290.65 183.5 292.2 190.15 296.5 204.55 305.85 214.8 316.5 217.35 319.2 221.3 324.7 225.5 330.55 227.6 332.95
L 227.6 332.9
Q 230.65 339.15 232.55 344.15 233.45 346.45 236.9 356.65 239.45 364.35 241.7 368.95
L 245.5 380 247.5 380
Q 247.4 377.35 246.95 376.1 245.85 373 241.2 358.7 237.7 348 234.9 341.45 222 311.45 193.15 293.35 185.8 288.95 182.2 286.55 176 282.5 172.1 278.4 171.4 277.65 169.5 274.5 168.05 272 166.35 271.1 165.6 272.45 166.2 274 166.55 274.85 167.45 276.55 168.3 277.85 169.7 280.6 171.1 282.95 172.8 284.05 Z"/>
</g>

<g id="Layer0_0_MEMBER_0_MEMBER_10_FILL">
<path fill="#E1E1E7" stroke="none" d="
M 331.2 341.95
Q 330.7 340.3 330.45 339.95 329.85 338.95 328.5 339 328.4 339.2 327.3 340.2 326.55 340.9 326.9 341.8 328.9 346.55 330.85 353.7 332 357.7 334.15 365.75 334.3 366.35 337.05 372.65 338.85 376.8 338.5 380
L 342.5 380
Q 343.35 379 343.25 377.7 343.2 377 342.7 375.35 340.7 368.9 337.05 358.6 332.4 345.6 331.2 341.95 Z"/>
</g>

<g id="Layer0_0_MEMBER_0_MEMBER_11_FILL">
<path fill="#66555B" stroke="none" d="
M 331.35 338
Q 331.05 337.4 330.85 337.1 330.55 336.65 330.05 336.5 328.75 336.35 328.35 337.3
L 328.5 339
Q 337.65 362.5 342.5 380
L 345.5 380
Q 345.65 378.9 345.15 377.55 344.5 376.05 344.25 375.25
L 331.35 338 Z"/>
</g>

<g id="Layer0_0_MEMBER_0_MEMBER_12_FILL">
<path fill="#A89CA0" stroke="none" d="
M 314 342.25
Q 312.6 341.1 311.5 342.9 312.3 346.9 312.7 348.2 316.3 360.1 322.5 380
L 325.5 380
Q 323.9 371.9 320.35 361 316.05 348.55 314 342.25 Z"/>
</g>

<g id="Layer0_0_MEMBER_0_MEMBER_13_FILL">
<path fill="#523A40" stroke="none" d="
M 325.5 380
L 327.5 380 315.3 342.05
Q 314.95 340.95 314.05 341 313.1 341.05 313.3 342.25
L 325.5 380 Z"/>
</g>

<g id="Layer0_0_MEMBER_0_MEMBER_14_FILL">
<path fill="#905844" stroke="none" d="
M 74.5 152.1
Q 74 153.5 75.6 154.35 77 154.6 79.25 153.65 81.6 152.65 82.8 152.75 83.6 152.75 84.15 152.55 86.65 151.15 90.15 149.9 91.05 149.6 96.4 147.9 98.8 147.25 99.4 147.1 101.15 146.8 102.7 147.2 99.1 151.9 99.05 153.45 98.95 155.15 102.45 159.65 104.3 162.1 104.55 164 104.85 166.25 103.1 168.5 102.85 169.2 102.8 169.9 103.15 172.45 105.25 173.7 106.45 174.45 109.65 175.2 109.25 176.15 108.15 177.95 107.4 179.45 108.4 180.45 111 183.1 111.25 187.65 111.4 190.2 111.55 195.3 112.9 198.8 115.7 205.7 118.2 211.9 119.4 216.25 121.85 216.6 124.1 215.4 125.6 214.55 127.75 212.4 128.95 206.7 129.1 204.5 129.45 200.1 128.05 196.5 126.75 193.35 126.2 191.75 125.25 189 125.15 186.75 124.35 182.55 122.1 177.15 119.4 171 118.1 167.9 116.85 166.4 116.3 163 115 156.25 114.55 154.3 113.35 149.45 111.5 146 110.9 145.5 111.05 143.15 111.15 141.25 109.3 140.9 92 144.85 74.5 152.1 Z"/>
</g>

<g id="Layer0_0_MEMBER_0_MEMBER_15_FILL">
<path fill="#733438" stroke="none" d="
M 355.75 181.05
Q 354.75 178.15 353.55 177 352 175.5 349.2 175.95 347.7 177.3 347.55 179.5 347.55 180.65 348 182.2 348.3 183.05 348.85 184.75 353 198.15 354.1 207.9 355.3 212.9 355.9 220.2 356.25 224.35 356.8 232.6 357.25 237.85 357.25 240.8 357.2 245.35 356.3 248.95 356.25 251.35 355.65 256.45 355.05 261.3 355.05 263.9 355.25 264.65 355.4 266.4 355.75 267.75 357.15 267.85 358.2 267.9 358.95 266.85 359.05 266.65 360 264.75 360.5 263.8 361.15 260.9 361.95 257.3 362.65 252.05 363.45 246.15 363.85 243.2 363.9 242.95 363.75 236.5 363.65 232.45 365.5 230.05
L 365.45 224.05
Q 364.45 223.3 364.1 221.95 364 221.5 363.8 219.5 361.85 198.35 355.75 181.05 Z"/>
</g>

<g id="Layer0_0_MEMBER_0_MEMBER_16_FILL">
<path fill="#F5EFF5" stroke="none" d="
M 341.25 141.85
Q 335.65 130.85 331.7 124.1 331.1 122.6 330.7 121.95 329.95 120.85 328.45 121.05 327.4 122.55 327.7 124.15 327.9 125.4 329.05 127 331.3 130 333.35 134.8 335.5 139.75 337.25 148.8 339.2 159.1 340.55 163 342.05 167.3 342.3 169.4 342.8 172.95 341.45 175.95 344.6 176.65 347.65 175.45 349.85 174.55 352.85 172.2 353.45 170.95 352.6 168.8 345.85 151 341.25 141.85 Z"/>
</g>

<g id="Layer0_0_MEMBER_0_MEMBER_17_FILL">
<path fill="#C79197" stroke="none" d="
M 206.1 247.45
Q 205.75 247.1 204.55 243.6 203.75 241.2 201.1 241.3 200.4 243.15 201.45 245 202.05 248 204 251.65 205.15 253.75 207.6 257.85 208.3 259.5 210.65 262.85 212.85 265.95 213.5 268 215.15 270.9 215.85 271.8 229.4 290.1 243.8 303.2 260.05 317.9 278.45 327.05 279.45 327.8 280.45 327.25 280.5 325.35 278.75 324.3 275.95 322.55 275.85 322.45 271.3 319.75 269.05 318.3 265.2 315.85 262.8 313.45 254.4 306.6 250 303.4 242.8 298.25 238.05 291.7 235.4 289.25 231.9 284.7 227.2 278.65 226.05 277.35 217.55 268.6 210.3 255.55 208.65 253.1 206.1 247.45 Z"/>
</g>

<g id="Layer0_0_MEMBER_0_MEMBER_18_FILL">
<path fill="#AF3129" stroke="none" d="
M 349.55 176.05
Q 348.5 175.2 347.2 175.4 346.8 175.45 344.9 176.15 336.8 179.1 330.45 181 327.9 181.5 327.55 181.65 318.25 185.2 305.35 189.5 290.4 194.45 282.95 196.9 270.05 201.05 263.6 203.1 252.1 206.8 244.45 209.95 244.3 210.25 243.3 210.6 242.45 210.9 242.55 211.65 242.65 212.35 243.35 212.7 243.5 212.75 244.7 213.1 246.3 213.25 249.6 212.2 256.4 209.95 270.05 205.6 283.7 201.25 290.45 198.95 294.85 197.4 307.3 193.3 317.9 189.8 324.1 187.5 329 186.25 336.3 183.55 346.7 179.75 348.35 179.2
L 349.55 176.05 Z"/>
</g>

<g id="Layer0_0_MEMBER_0_MEMBER_19_FILL">
<path fill="#64262B" stroke="none" d="
M 116.25 295.45
Q 113.4 295.65 110.9 293.95 109.6 292.9 108.95 292.45 107.75 291.6 106.65 292.1 105.85 292.5 105.9 293.45 105.95 293.85 106.35 295.2
L 106.3 302.95
Q 106.45 305.65 106.9 307.1 107.5 309.25 109.1 310.65 111.25 312.4 113.25 311.15 114.75 310.25 117.2 309.65 118.55 309.35 121.25 308.7 123 306.8 126.7 303.75 130.55 300.55 132.15 298.9 133.2 296.7 133.6 295.6 134.3 293.6 132.1 292.25 128.5 292.4 126.75 292.6 123.65 292.9 121.5 293.8 118.45 295.3 116.25 295.45 Z"/>
</g>

<g id="Layer0_0_MEMBER_0_MEMBER_20_FILL">
<path fill="#B5A5A5" stroke="none" d="
M 85.1 208.35
Q 84.45 207.8 84.1 207.5 83.55 207 83.2 207.05 82.55 207.15 82.55 207.85 82.5 208.4 82.8 209 83.45 210.2 84.35 213.6 85.1 216.6 86.2 218.05 87.55 220.4 88.05 221.8 88.8 223.9 88.65 225.9
L 91.2 234.25
Q 92.7 239.2 93.6 242.55 95.1 248.15 102.35 276.15 103.15 276.5 103.45 277.5 103.85 279.05 103.9 279.15 104.55 280.2 105.1 280.2 105.65 280.25 106.25 279.2 106.8 275.95 105.55 271.25 103.7 264.4 103.55 263.45 100.95 257.25 101.4 251.1 101.25 249.95 103.3 248.9 105.15 247.9 104.55 246.3 103.95 245.15 103.4 243.25 102.6 240.55 102.5 240.2 102.25 239.5 100.65 232.25 99.55 227.45 97.55 224.7 95.3 223.75 93.25 225.8 92.886328125 226.9150390625 92.95 228.3 92.8625 227.6623046875 92.7 226.85
L 92.25 224.75
Q 91.05 221 90.25 219.2 89.05 215.35 88.35 213.45 87.15 210.1 85.1 208.35
M 93 229.05
Q 93.14609375 230.2537109375 93.55 231.6 94.25 233.95 95.65 238.65 96.85 242.8 97.4 245.85
L 97.2 246 97.1 245.5
Q 96.7 243.6 94.75 237.3 93.2314453125 232.352734375 93 229.05 Z"/>
</g>

<g id="Layer0_0_MEMBER_0_MEMBER_21_FILL">
<path fill="#F4D8DB" stroke="none" d="
M 355.95 288.95
Q 360.2 277.55 361.05 274.8 363.45 266.65 363.4 259.95 362.25 259.95 361.65 260.85 361.3 261.4 361.05 262.65 358.7 274.35 352.2 289.25 350.55 294.6 348.9 298.3 346.75 303.05 344 306.6 342.75 309.9 341.9 311.45 340.5 314.1 338.25 315.25 337.3 315.85 335.85 316.45 334.2 317.1 333.35 317.45 330.5 319.05 329.6 319.35 325.9 320.7 324 321.15 322.1 321.6 313.9 324.35 307.75 326.4 303.65 326.75 302.55 326.75 301.4 327 297.25 328.35 295.2 329 291.5 330.15 288.7 329.2 288 329.1 284.6 327.75 282.15 326.75 280.3 327.15
L 278.45 327.05
Q 281.2 329.4 286.15 331.15 294.1 333.95 294.3 334.05 295.15 333.95 297.4 334.05 299.3 334.1 300.45 333.9 300.7 333.8 304.75 332.8 307.35 332.2 308.65 330.75 308.9 330.45 308.45 329.95 308.1 329.55 308.4 329.55 312.25 329.5 318.5 327.45 325.45 325.1 328.4 324.75
L 332.45 324.15
Q 333.55 324.25 335.3 322.9 336.95 321.6 338.25 321.9 338.3 321.85 338.9 321.5 339.25 321.25 339.4 321.05 346.05 309.75 348.4 305.35 353.2 296.45 355.95 288.95 Z"/>
</g>

<g id="Layer0_0_MEMBER_0_MEMBER_22_FILL">
<path fill="#824449" stroke="none" d="
M 353.25 171.05
Q 352.75 171.75 352.4 171.95
L 341.45 175.95
Q 339.95 177 335.9 178.3 332.15 179.55 330.45 181 334.25 180.9 340.1 178.9 347.1 176.5 349.55 176.05 350.45 176.65 352.35 177.6 353.95 178.6 354.4 180.2 358 192.35 359.7 200.4 362.1 211.55 362.45 221.1 362.55 222.75 363.2 223.4 363.9 224.15 365.45 224.05 365.7 216.15 364.45 207.15 363.4 199.95 361.2 190.6 359.2 182.15 358.7 180.5 357 174.85 354.5 171 353.8 170.6 353.25 171.05 Z"/>
</g>

<g id="Layer0_0_MEMBER_0_MEMBER_23_FILL">
<path fill="#441A1C" stroke="none" d="
M 106.3 302.95
Q 102.8 316.8 98.8 325.5 91.9 340.7 91.3 356.8 92.2 357.8 92.7 357.3 93.25 356.45 93.5 356.05 94.45 355.15 94.85 354.6 95.5 353.7 95.5 352.75 95.5 349.2 97.2 344.15 99.6 337 99.85 335.8 103.85 326.9 103.9 326.8 106.35 321.75 108.85 318.3 112.05 313.95 109.5 310.05
L 106.3 302.95 Z"/>
</g>

<g id="Layer0_0_MEMBER_0_MEMBER_24_FILL">
<path fill="#A53D38" stroke="none" d="
M 363.25 239.2
Q 363.1 242.35 362.5 243.05 361.8 247.1 360.8 255.45 359.6 262.85 356.85 268.1
L 356.4 263.85
Q 354.7 264.3 354.15 266.05 353.85 267.05 353.35 269.1 353.2 271.7 351.85 276.55 350.5 281.5 350.3 284 350.75 287.5 350.75 287.55 351.35 289.4 353.4 290 356.4 283.6 359.1 275.2 360.6 270.4 363.4 259.95 363.55 257.55 364.85 248 365.8 240.65 365.5 236 363.35 236.65 363.25 239.2 Z"/>
</g>

<g id="Layer0_0_MEMBER_0_MEMBER_25_FILL">
<path fill="#95776C" stroke="none" d="
M 73.5 160.4
Q 72.75 158.1 73 156.8 73.95 160.9 74.45 162.6 75.4 165.9 76.8 168.25 77.2 168.9 77.45 170.75 77.9 172.25 79.7 172.05 81 167.7 79.3 162.65 76.75 156.9 75.45 154
L 74.5 152.1 69.45 154
Q 68.1 155.55 68.4 157.8 70.2 165.3 75.1 178.85 75.75 180.15 77.3 182.5 78.05 183.75 77.55 185.4 77.3 186.3 76.6 188.1 78 190.9 80.85 196.45 83.15 201.25 84.45 205.05 86.2 204.9 86.35 203.65
L 86.1 201.35
Q 85.85 198.2 84 192.8
L 83 188.7
Q 82.4 186.25 82.35 184.55 82.25 181.5 82.15 180.8 81.85 178.65 80.85 177.4 78.4 174.2 76.5 169.15 74.55 163.3 73.5 160.4 Z"/>
</g>

<g id="Layer0_0_MEMBER_0_MEMBER_26_FILL">
<path fill="#EBE4E3" stroke="none" d="
M 135.7 196.8
Q 133.9 191.85 133 188.85 132.1 185.95 129.95 186 128.85 186.05 128.5 188.3 130.25 194.5 133.35 203.2 135.05 208.1 138.6 217.95 139.7 220.3 141.6 225.85 143.35 231 144.75 233.7 145.05 234.15 145.75 234.7 148.6 235.8 149.65 239.55 150.9 242.2 151.25 242.65 152.4 244.15 154.3 244.3 153.35 239.5 151.1 233.9 149.7 230.4 146.55 224 143.8 220.35 141.75 214.65 139.65 208 138.55 204.7 137.9 202.65 135.7 196.8 Z"/>
</g>

<g id="Layer0_0_MEMBER_0_MEMBER_27_FILL">
<path fill="#EAE5E9" stroke="none" d="
M 186.7 179.2
Q 186.85 185.45 188.4 193.45 188.65 194.8 191.5 207.5 192.1 210.1 193.75 215.25 195.05 219.85 194.9 222.9 194.65 228.55 196.7 234.5 197.9 238 201.45 245
L 201.45 241.05
Q 202.1 239.75 201.65 238.15 200.95 236.35 200.6 235.45 198.2 229.25 197.95 225.45 197.9 224.8 198.8 223.85 199.65 222.95 199.5 222.2 195.5 214.1 192.2 201 187.05 180.35 186.7 179.2 Z"/>
</g>

<g id="Layer0_0_MEMBER_0_MEMBER_28_FILL">
<path fill="#C46B7A" stroke="none" d="
M 332.7 323.1
Q 332.2 323.35 325.9 325.95 321.75 327.65 319.45 329.55 316.85 331.35 313.45 332.4 310.8 333.25 306.9 333.75 304.4 334.1 303.9 334.35 302.4 335.05 302.4 337.05
L 302.45 337.1
Q 314.95 340.65 327.15 334.2 328.2 333.25 329.75 332.05 330.7 331.4 332.5 330.05
L 338.25 321.9
Q 338.2 320.85 338 320.55 337.65 320.15 336.65 320.7
L 332.7 323.1 Z"/>
</g>

<g id="Layer0_0_MEMBER_0_MEMBER_29_FILL">
<path fill="#D9D4D6" stroke="none" d="
M 324.25 118.25
Q 325.4 117.9 325.55 116.9 325.75 116 324.95 115.7
L 323.65 115.15
Q 319.15 116.25 316.9 116.8 312.95 117.8 310.25 118.7 290.35 125.05 250.75 138.05 246.5 139.3 244.4 140 240.7 141.2 238.45 143
L 238.5 143.05
Q 239.4 142.85 241.15 142.5 242.75 142.15 243.8 141.8 280.15 129.4 304.35 122.2 312.35 119.8 313.25 119.55 318.35 118.4 322.5 119 322.75 118.8 324.25 118.25 Z"/>
</g>

<g id="Layer0_0_MEMBER_0_MEMBER_30_FILL">
<path fill="#B0A5A3" stroke="none" d="
M 119.3 161.9
Q 117.85 163.6 118.15 165.85 119.05 167.6 121.1 168.6 127.7 174.95 126.95 183.55 126.9 185.5 127.2 186.35 127.7 187.7 129.4 188.1 130.5 186 131.3 186.9 131.5 187.15 132.1 188.75 134 193.7 137.4 203.75 140.5 212.45 144.85 223.75 145 224.05 145.45 225.1 146 225.75 146.55 224 133.2 187.4 132.35 184.9 131.9 183.6 128.2 174.6 125.6 168.4 124.6 164.1 124.95 163.05 123.7 162.4 121.75 163.05 119.3 161.9 Z"/>
</g>

<g id="Layer0_0_MEMBER_0_MEMBER_31_FILL">
<path fill="#9E857D" stroke="none" d="
M 87.75 194.25
Q 87.45 192.25 87.55 188.8 87 186.05 84.85 185.75 83.8 186.7 83.8 189.4 83.8 192.05 82.5 193 83.15 194.95 84.5 198.85 85.35 202.3 84.45 205.05
L 85.1 208.35 91.4 225.1
Q 92.65 224.95 93.45 223.85 94.95 221.7 93.75 219.6 91.35 215.45 90.4 209.75 89.95 207.15 89.4 199.45 88.1 197.2 87.75 194.25 Z"/>
</g>

<g id="Layer0_0_MEMBER_0_MEMBER_32_FILL">
<path fill="#EC898F" stroke="none" d="
M 328.35 337.3
L 330.45 336.9
Q 332.15 332.9 327.45 333 316.5 337.9 302.45 337.1 306.55 338.65 307.5 339.2 310.2 340.6 311.5 342.9
L 313.3 342.25
Q 313.65 341.5 314.25 341.6 314.6 341.7 315.3 342.05 317.8 340.05 321.55 338.9 322.8 338.5 328.35 337.3 Z"/>
</g>

<g id="Layer0_0_MEMBER_0_MEMBER_33_FILL">
<path fill="#7F4F53" stroke="none" d="
M 150.55 239
Q 148.75 237.05 147.9 237 146.7 236.9 146.4 239.95 146.5 241.8 147.7 245.1 148.3 246 148.95 248.05 149.75 249.85 151.35 250.25 152.1 249.7 152 248.5 152.35 249.05 152.55 250.25 153.1 251.45 154.2 253.8 155.1 255.9 155.5 257.45 156.1 258.7 157.15 261.2 158.2 263.3 159.55 264.5 161.2 265.1 162.4 264.05 161.45 260.3 158.5 254.1 155.25 247.4 154.3 244.3 153.15 243.4 152.15 241.85 151.7 241.2 150.55 239 Z"/>
</g>

<g id="Layer0_0_MEMBER_0_MEMBER_34_FILL">
<path fill="#E2DEDF" stroke="none" d="
M 194.75 156.8
Q 188.65 158.95 184.45 161.65 181.45 163.65 183.05 165.3 183.95 166.3 185.35 166.35 186.8 166.35 187.85 165.25 194.05 158.55 201.5 156.4 204.3 155.65 208.2 154.15 210.4 153.3 214.8 151.6 212.5 150.8 209.95 151.65 207.1 152.85 205.65 153.3 195.5 156.5 194.75 156.8 Z"/>
</g>

<g id="Layer0_0_MEMBER_0_MEMBER_35_FILL">
<path fill="#BB423D" stroke="none" d="
M 243.4 214
Q 244.5 213.4 244.55 212.15 242.65 211.85 243.45 211.1 244.6 210.15 244.45 209.95 235.45 211.65 224.4 216.15 223.7 216.45 218.1 217.95 214.25 219 212.25 220.95 212.95 222.2 214.75 222.7 217.6 222.65 221.75 221.15 227.2 219.2 228.55 218.9 230.55 218.15 234.95 216.9 239.2 215.75 241.35 214.9 242 214.55 243.4 214 Z"/>
</g>

<g id="Layer0_0_MEMBER_0_MEMBER_36_FILL">
<path fill="#DBCEC7" stroke="none" d="
M 69.35 158.1
Q 66.7 157.8 66.15 158.5 65.55 159.2 66.2 161.9 66.45 163 69.1 169.65 70.95 174.35 70.7 177.8 70.85 179.45 72.4 180.05 73.1 180 74.5 180 75.65 179.85 76.25 178.85
L 69.35 158.1 Z"/>
</g>

<g id="Layer0_0_MEMBER_0_MEMBER_37_FILL">
<path fill="#D4CDC9" stroke="none" d="
M 120 144.05
Q 118.65 139.85 117.25 139.2 115.85 138.55 111.4 140.05 111.25 144 114.2 145.3 115.6 144.75 116.2 144.9 117.2 145.05 117.45 146.55
L 118.35 150.75
Q 120.05 157.1 120.05 157.15 121.3 160.7 123.4 162.85
L 124.6 164.1
Q 125.5 163.3 125.45 162.15 125.45 161.6 124.95 160 121.75 149.35 120 144.05 Z"/>
</g>

<g id="Layer0_0_MEMBER_0_MEMBER_38_FILL">
<path fill="#A69DA2" stroke="none" d="
M 341.35 140.1
Q 340.2 140.15 340.05 140.7 339.9 141.15 340.45 142.05 346.05 154.65 346.95 156.8 350.45 165.2 352.4 171.95
L 354.5 171
Q 347.85 152.55 341.35 140.1 Z"/>
</g>

<g id="Layer0_0_MEMBER_0_MEMBER_39_FILL">
<path fill="#D47C89" stroke="none" d="
M 294.3 334.05
L 302.4 337.05
Q 303.05 335.65 304.6 335.25 305.5 335.05 307.45 334.95 313.25 333.95 314.4 333.6 318.2 332.5 320.45 330 319.2 328.9 317.4 329.15 315.35 329.7 314.35 329.9 309.8 331.1 307.55 331.65 303.5 332.6 300.55 332.9 300.2 333 297.35 333 295.35 333 294.3 334.05 Z"/>
</g>

<g id="Layer0_0_MEMBER_0_MEMBER_40_FILL">
<path fill="#7B605D" stroke="none" d="
M 111.4 140.05
L 109.3 140.9
Q 109.95 141.65 109.6 143.5 109.25 145.25 110.15 146.05 111.7 146.25 112.25 147.7 112.55 148.5 112.9 150.25 114.2 153.55 115.4 158.65 116.05 161.45 117.4 167.15 118.15 167.5 118.7 167.05 118.85 167.05 118.85 166.55 118.95 166.15 118.55 165.75
L 119.65 161.9
Q 120.35 158.7 118.9 154.45 117 149.8 116.4 147.4 115.6 145.7 114.4 145.15 114 144.6 113.1 142.45 112.4 140.75 111.4 140.05 Z"/>
</g>

<g id="Layer0_0_MEMBER_0_MEMBER_41_FILL">
<path fill="#BAB4B7" stroke="none" d="
M 341.35 140.1
Q 334.85 126.3 329.55 118.9 328.6 119.15 328.35 120.1
L 328.45 121.05
Q 331.4 124.65 334.75 131.4 338.95 139.7 340.45 142.05 340.55 140.55 341.35 140.1 Z"/>
</g>

<g id="Layer0_0_MEMBER_0_MEMBER_42_FILL">
<path fill="#995258" stroke="none" d="
M 224.4 216.15
Q 219.7 216.8 211.9 219 203 221.5 199.5 222.2 199.2 222.6 197.95 223 196.9 223.3 196.7 224.1 198.5 226.35 200 225.75 200.3 225.65 206.45 224 210.35 223 212.45 221.05 214.1 220 218.5 218.75 222.55 217.65 224.4 216.15 Z"/>
</g>

<g id="Layer0_0_MEMBER_0_MEMBER_43_FILL">
<path fill="#B4AAA6" stroke="none" d="
M 69.35 158.1
L 69.45 154
Q 66.15 154.55 65.15 156.35 64.15 158.15 65.3 161.4 66.5 164.65 68.1 169.55 68.95 172.3 70.7 177.8 71.8 176.2 71.35 174.2 70.6 171.9 70.2 170.75 69.65 169.05 68.6 166.3 67.3 162.85 66.95 161.9 66.25 160 66.65 159.05 67.15 157.95 69.35 158.1 Z"/>
</g>

<g id="Layer0_0_MEMBER_0_MEMBER_44_FILL">
<path fill="#91676B" stroke="none" d="
M 106.35 281.1
Q 106.05 280.45 105.5 280.05 104.75 279.4 104.3 277.9 103.8 276.1 103.45 275.6 102.8 274.6 102.65 275.2 102.4 276.15 102.35 276.15
L 106.35 295.2
Q 107 291.85 108.3 293.3 110.1 295.3 110.45 295 111.2 294.3 111.05 293.1 110.85 292.5 110.45 291.85 109.1 289.8 108.05 286.6 106.95 282.95 106.35 281.1 Z"/>
</g>

<g id="Layer0_0_MEMBER_0_MEMBER_45_FILL">
<path fill="#6E3639" stroke="none" d="
M 159.55 263.95
Q 159.6 267.25 161.15 270.85 162.05 273 164.5 277.05 165.65 278.95 166.8 278.5 167.85 278.15 168.45 276.05
L 166.35 271.1 162.4 264.05 159.55 263.95 Z"/>
</g>

<g id="Layer0_0_MEMBER_0_MEMBER_46_FILL">
<path fill="#824449" stroke="none" d="
M 365.5 236
Q 366.1 232.6 365.5 230.05 363.8 229.9 363.1 230.75 362.4 231.5 362.45 233.25 362.5 234.9 362.5 243.05 363.55 242.05 364.1 239.55 364.6 236.95 365.5 236 Z"/>
</g>

<g id="Layer0_0_MEMBER_0_MEMBER_47_FILL">
<path fill="#B8B0B2" stroke="none" d="
M 329.55 118.9
Q 329.95 115.5 327.85 115 325.05 115.15 323.65 115.15 325.45 116.55 324.35 117.45 322.7 118.4 322.5 119
L 328.35 120.1 329.55 118.9 Z"/>
</g>

<g id="Layer0_0_MEMBER_0_MEMBER_48_FILL">
<path fill="#D9D4D6" stroke="none" d="
M 238.5 143.05
L 238.45 143
Q 234.6 143.3 229.65 145.1 224.1 147.45 221.3 148.5 232.05 146.5 238.5 143.05 Z"/>
</g>

<g id="Layer0_0_MEMBER_0_MEMBER_49_FILL">
<path fill="#EE9FAB" stroke="none" d="
M 330.45 336.9
L 331.35 338
Q 331.25 333.2 332.5 330.05 330.05 330.35 329.45 330.6 327.9 331.2 327.45 333
L 329.6 334.45
Q 330.85 335.3 330.45 336.9 Z"/>
</g>

<g id="Layer0_0_MEMBER_0_MEMBER_50_FILL">
<path fill="#D6CEC8" stroke="none" d="
M 78.4 182.15
Q 77.35 181.3 76.6 181.65 76 181.95 75.45 183.1 75.2 186.2 76.6 188.1 78.5 186.7 79 185.6 79.75 184 78.4 182.15 Z"/>
</g>

<g id="Layer0_0_MEMBER_0_MEMBER_51_FILL">
<path fill="#EAE5E9" stroke="none" d="
M 207.6 257.85
Q 208 260.55 209.85 263.35 210.1 263.7 213.5 268 213.4 265.25 211.4 262.45 208.8 259.45 207.6 257.85 Z"/>
</g>

<g id="Layer0_0_MEMBER_0_MEMBER_52_FILL">
<path fill="#B09D98" stroke="none" d="
M 78.4 182.15
L 76.25 178.85
Q 74.85 179 74.2 179.1 73 179.3 72.4 180.05
L 75.45 183.1 78.4 182.15 Z"/>
</g>

<g id="Layer0_0_MEMBER_0_MEMBER_53_FILL">
<path fill="#A59A96" stroke="none" d="
M 86.2 218.05
L 88.65 225.9
Q 89.55 223.65 88.7 221.6 88.1 220 86.2 218.05 Z"/>
</g>

<g id="Layer0_0_MEMBER_0_MEMBER_54_FILL">
<path fill="#FD6958" stroke="none" d="
M 150.5 346.05
Q 150.9 346 159.45 344.25 164.8 343.1 168.45 343 171.65 341.5 173 340.55 175.35 338.9 175.45 336.05 171.2 339.3 167.5 340.95 162.95 342.95 158.35 343 155.2 343.05 154 343.4 151.7 344 150.5 346.05 Z"/>
</g>

<g id="Layer0_0_MEMBER_0_MEMBER_55_FILL">
<path fill="#541617" stroke="none" d="
M 161.05 281.65
Q 160 282.75 159.85 283.9 159.75 285.2 160.85 286 162.45 287.25 163 289.4 163.3 290.65 163.6 293.2 165.2 295.95 169.75 300.05 174.35 304.2 175.95 306.85 182.95 308 192.3 308.95 193.45 308.95 194.45 309.65 195.1 310.05 196.15 311.1 210.55 325.9 217.5 343.85 218.5 346.4 223.25 359.15
L 224 359
Q 224.45 358.9 224.6 358.7 225.65 357.25 226.3 352.6 226.8 348.5 229.05 346.85 229.15 346.8 229.05 346.45 228.95 346.1 228.8 346 226.55 344.65 225.8 341.4 224.6 336.25 224.5 336 224.85 333.3 223.85 330.5 223.1 328.5 221.2 325.55 209.2 306.85 186.5 295.2 183.65 294 183.35 293.8 177.95 291.2 175.45 289.6 171.15 286.85 170.15 282.35 169.8 280.55 166.45 279.2 164.7 278.45 163.3 279.45 162.5 280.05 161.05 281.65 Z"/>
</g>

<g id="Layer0_0_MEMBER_0_MEMBER_56_FILL">
<path fill="#F9726C" stroke="none" d="
M 126.65 320
Q 125 319.05 123.55 320 122.7 320.5 121.3 322.05 120.1 323.15 115.9 327.4 112.6 330.75 110.35 332.6 109.9 333.25 108.85 334.55 108.1 335.75 108.45 337 108.8 341.15 109.6 341.6 110.4 342.05 113.6 339.9 115.25 338.8 116.35 338.35 117.95 337.75 119.5 338 123 336.55 123.4 336.4 125.7 335.7 127 336.3 129.9 337.7 135.8 338.7 141.85 339.75 144.6 341 148.65 342.9 154 341.9 159.4 340.9 162.25 337.65 164.85 334.65 169.4 328.85 174.25 322.7 176.55 320 179.75 316.4 178.5 312.05
L 175.45 308.05
Q 174.3 306.85 172.7 307.65 172.1 308.35 172.8 310.15 173.45 311.8 172.3 312.6 169.3 314.75 165.45 319.8 161.15 325.5 159 327.4 156 330.1 153.4 330.9 150.4 331.75 146.9 330.45 138.75 327.4 131.75 330.05 128.9 331.15 124.45 329.5 122.85 328.9 122.55 328.15 122.25 327.3 123.55 326 125.25 324.25 125.8 323.4 126.8 321.75 126.65 320 Z"/>
</g>

<g id="Layer0_0_MEMBER_0_MEMBER_57_FILL">
<path fill="#B9534F" stroke="none" d="
M 126.45 319.95
Q 128.65 319.25 133.55 316 137.9 313.15 140.95 312.65 143.35 311.6 146.6 310.9 147.65 310.65 152.35 309.85
L 156.05 308.85
Q 159.2 308.3 163.5 308.3 166 308.35 171 308.55 171.9 308.55 172.45 308.05
L 175.45 308.05
Q 178.15 307.75 183.9 308.6 189.35 309.4 192.3 308.95
L 175.4 305.85
Q 173.5 304.75 172.5 304.35 170.85 303.65 169.35 303.65 168.15 303.7 165.4 303.3 162.85 302.9 161.4 303.1 146 305.1 135.9 309.85 127.7 312.8 121.1 319.15 119.25 321.35 115 325.35 111.45 329.05 110.25 332.6
L 110.6 333.2
Q 112.55 332.6 114.55 330.6 117.75 327.3 117.85 327.2 118.15 326.95 121.75 323.15 124.1 320.65 126.45 319.95 Z"/>
</g>

<g id="Layer0_0_MEMBER_0_MEMBER_58_FILL">
<path fill="#FD624F" stroke="none" d="
M 212.45 346.05
Q 211 342.8 208.1 341.2 205.2 339.6 201.5 340.05
L 212.45 346.05 Z"/>
</g>

<g id="Layer0_0_MEMBER_0_MEMBER_59_FILL">
<path fill="#57353D" stroke="none" d="
M 100.35 345.95
Q 101.25 344.9 101.55 344.3 102.05 343.35 101.9 342.35 101 341.55 101.15 340.35 101.5 338.95 101.55 338.25 101.7 336.2 101.35 335.5 100.75 334.25 98.5 335.05 97.6 338.55 95.5 345.4 93.8 351.55 93.5 356.05 94.35 356.1 95.95 356.6 97.45 356.9 98.4 356.05 98.6 352.6 98.7 350.85 99 347.8 100.35 345.95 Z"/>
</g>

<g id="Layer0_0_MEMBER_0_MEMBER_60_FILL">
<path fill="#B9534F" stroke="none" d="
M 100.35 345.95
Q 102.05 344.9 104.3 341.35 106.4 337.95 108.45 337
L 110.6 333.2 110.25 332.8
Q 106.9 333.6 104.65 336.3 103.05 338.2 101.4 342.05
L 100.35 345.95 Z"/>
</g>

<g id="Layer0_0_MEMBER_0_MEMBER_61_FILL">
<path fill="#732A2E" stroke="none" d="
M 189.75 294.9
Q 178.5 287.65 173.5 283.15 172.65 284.45 173.25 285.6 173.55 286.25 174.75 287.35 178.6 290.8 180.3 292.1 183.5 294.65 186.45 296.05 188.35 297.25 192.15 299.5 195.55 301.55 197.7 303.2 208.3 311.4 213.75 317.45 221.5 326.15 224.5 336 225.45 336 225.7 335.5 225.85 335.15 225.65 334.15 225.35 332.8 226.05 332.7 226.2 332.65 227.6 332.95 224.3 325.75 218.15 318.7 213.85 313.7 206 306.65 201 302.15 189.75 294.9 Z"/>
</g>

<g id="Layer0_0_MEMBER_0_MEMBER_62_FILL">
<path fill="#732A2E" stroke="none" d="
M 232.85 342.1
Q 230.55 336.6 227.6 332.9
L 239.35 366.65
Q 239.95 368.55 241.7 368.95 237.15 354.25 236.4 352.05 233.7 344.2 232.85 342.1 Z"/>
</g>

<g id="Layer0_0_MEMBER_0_MEMBER_63_FILL">
<path fill="#692629" stroke="none" d="
M 159.55 263.95
L 156.5 257.05
Q 155.2 256.95 154.8 257.85 154.75 257.95 154.4 259.65 154.45 261.3 155.2 263.6 156.35 267.15 156.45 267.45
L 156.9 268.8
Q 159.6 274.4 159.5 277.65 159.35 282.25 154.15 285.15 154.35 288.1 157.95 289 161.25 289.8 162.65 292.3 163.5 293.35 164.45 293 164.6 290.25 164.4 288.95 164.1 286.7 161.9 285.6 160.75 285.05 160.75 284.05 160.75 283.05 161.85 282.5 162.2 282.3 163.5 280.6 164.4 279.4 165.6 279.9 169.75 281.6 170.35 285.25 170.5 286.05 170.55 287.95 170.8 289.5 171.85 289.7 174.4 290.15 179.1 293.05 183.55 295.8 186.45 296.05 185.15 294.5 179.5 290.1 175 286.6 173.5 283.15 172.1 282.2 170.8 279.75 169.3 276.9 168.45 276.05 167.2 277.5 166.4 277.45 165.5 277.35 164.75 275.5 164.3 274.35 159.55 263.95 Z"/>
</g>

<g id="Layer0_0_MEMBER_0_MEMBER_64_FILL">
<path fill="#FEFEFE" stroke="none" d="
M 127.45 211.95
Q 123.9 214.1 123.6 214.25 121.4 215.5 119.45 215.9 116.6 215.55 112.8 217.05 107.15 219.3 106.45 219.45 105.4 220.55 101.7 221.85 98.45 222.95 97.4 225 101.2 241.3 101.8 243.65 102.3 245.5 102.55 245.9 103.15 247.05 104.6 247.15 105.65 248.05 107.2 247.9 107.65 247.9 109.75 247.3 111.45 246.8 117.15 245.35 121.75 244.15 124.5 243.2 127.45 242.2 133.4 240.35 138.5 238.5 141.8 236.25 143.2 234 141.95 231.55 140.6 228.85 138.5 223.15 136.4 217.45 135 214.75 133.75 212.2 133.6 211.95 132.6 210.5 130.9 210.25 128.65 210.25 127.45 211.95 Z"/>
</g>

<g id="Layer0_0_MEMBER_0_MEMBER_65_FILL">
<path fill="#8F5842" stroke="none" d="
M 78.8 152.4
Q 76.2 153.95 75.45 154 74.9 154.5 75.1 155.15 75.2 155.5 75.55 156.25 76.3 158.85 78.2 163.95 79.7 168.55 79.5 172 80.4 173.7 81.55 179.15 82.55 183.7 84.5 185.95 86.4 186.85 86.5 189 87.05 190 87 192.65 87 195 87.95 196.15 89.1 199.35 91.95 204.6 95.15 210.45 96.2 212.95 97.35 215.75 99.55 217.5 102.05 219.55 105.25 219.6 108.75 217.45 109.45 214.45 110.2 211.4 108 207.95 104.7 202.7 103.9 198.1 102.6 190.85 96.2 191.45 96.2 191.15 96.9 189.25 97.4 187.9 96.6 186.9 94.8 184.7 94.45 181.55 94.25 179.65 94.6 175.85 94.8 173.6 94 172.2 93.2 170.8 91.3 169.9 91 169.75 89.2 169.25 87.95 168.85 87.35 168.2 87.35 167.85 87.6 167.5 87.95 167.15 88.05 166.95 89.75 164.85 89.85 162.05 89.9 160.15 89.2 156.95 88.75 154.9 86.85 154.4 86.4 154.25 83.15 154.05 82.4 154 82.4 153.25 82.55 152.35 82.5 152 80.8 151.25 78.8 152.4 Z"/>
</g>

<g id="Layer0_0_MEMBER_0_MEMBER_66_FILL">
<path fill="#7C432A" stroke="none" d="
M 94.45 192
Q 95.35 193.25 96.6 193 99.95 192.3 101.55 194.55 102.75 196.2 102.9 199 103.15 203.35 105.95 207 108.6 210.5 108.5 213.15 108.4 215.8 105.45 219.05 105.2 220.45 106.55 220.1 109.45 220.1 113.2 218.6 115.3 217.75 119.45 215.9 118.85 210.95 118.45 208.45 117.8 204.05 115.45 201.6 114.2 200.35 113.5 198.5 113.05 197.35 112.5 195 111 192 109.85 186.8 108.35 180.2 107.8 178.45 107 176.1 106.1 174.85 105.05 173.4 103.2 172.7 99.55 171.35 96 174.9 94.55 176.4 94.9 178.4 95.05 179.3 96.15 181.85 97.75 185.5 97.7 187.35 97.65 190.2 94.45 192 Z"/>
</g>

<g id="Layer0_0_MEMBER_0_MEMBER_67_FILL">
<path fill="#864C33" stroke="none" d="
M 80.8 153.1
Q 79.95 153.85 80.2 154.85 80.45 155.75 81.4 155.9 82.15 156.05 83.15 155.65 88 153.9 88.2 157.4 88.25 158.95 88.85 162.35 88.9 165.25 86.3 166.7 85.6 166.8 85.25 166.85 84.6 167 84.65 167.75 84.65 169.15 86.05 169.65 86.3 169.75 89.85 170.7 92.55 171.45 93.3 172.55 94.35 174 92.85 176.6 92.2 177.8 93.1 180.7 94 183.5 92.95 185.15 92.7 185.55 94.25 186.35 96.05 187.25 96.25 188.3 96.55 189.65 94.95 189.85 93.25 190.1 93.4 191.1 93.4 191.3 93.8 191.55
L 94.45 192
Q 98.6 190.25 99.25 188.5 99.95 186.75 98.05 182.4 97.95 182.15 97.45 181.6 97.05 181.1 97 180.75 96.2 179.05 95.9 178.2 95.4 176.7 96.55 175.8 98.55 174.25 99.3 173.85 101.05 173 102.75 173.7 104.6 174.45 105.35 175.2 106.45 176.25 106.6 178.15 106.8 180.2 107.65 183.35 108.85 187.7 109.05 188.55 109.3 189.6 109.75 192.2 110.45 194.4 112.5 195 112.9 189.9 112.8 187.4 112.7 183 109.55 180.45 108.4 179.55 108.85 178.5 109.1 177.9 110.3 176.75 111.15 176.2 111.55 175.9 112.2 175.35 111.8 174.65 111.5 174.1 110.7 173.7 109.85 173.25 109.35 173.4 106.75 174 105.3 172.65 104.25 171.65 103.45 169 102 168.05 100.05 168.55 97.9 169.35 96.8 169.55 95.2 169.85 94.25 168.85 93.75 168.25 93 166.5 91.65 163.4 94.05 161.55 96.6 159.6 99 161.4 100.8 162.75 101.9 164.85 102.75 166.4 103.45 169 105.3 167.5 106.15 166 107.15 164.1 106.1 162.7 104.55 160.25 103.75 159 102.3 156.8 100.75 155.75 97.65 153.7 100.85 151.15 102.75 150.05 103.55 149.35 104.9 148.15 104.2 146.45 103.45 144.65 101.65 145.35 99.15 146.3 98.6 146.1 98.25 146 97.6 146.4
L 96.5 147
Q 96.5 149.8 94.05 150.9 91.1 152.25 88.85 152.55 86.05 153 83.5 152.05
L 82.5 152
Q 80.85 153.05 80.8 153.1 Z"/>
</g>

<g id="Layer0_0_MEMBER_0_MEMBER_68_FILL">
<path fill="#996D5F" stroke="none" d="
M 130.4 197.35
Q 129.25 194.15 128.45 192.55 128.35 192.4 127.3 189.2 126.6 187.15 124.45 187.05 124.5 187.45 124.45 188.6 124.4 189.65 124.6 190.3 124.65 190.55 127.05 196.6 128.5 200.35 128.1 203 127.9 204.25 127.85 207.5 127.85 210.35 127.45 211.95
L 130.45 211
Q 133.35 209.65 133.3 207 132.6 203.8 132.3 202.2 131.6 200.7 130.4 197.35 Z"/>
</g>

<g id="Layer0_0_MEMBER_0_MEMBER_69_FILL">
<path fill="#6B3B2A" stroke="none" d="
M 97.95 148.2
Q 97.65 147.65 96.5 147 91.9 148 89.65 148.7 85.85 149.9 83.5 152.05 85.8 153.95 91.1 153.25 96.4 152.5 97.8 150.1 98.45 149 97.95 148.2 Z"/>
</g>

<g id="Layer0_0_MEMBER_0_MEMBER_70_FILL">
<path fill="#A58985" stroke="none" d="
M 121.35 169.8
Q 120.25 167.8 118.45 166.95
L 118.45 167.2
Q 117.7 167.45 117.4 168.1
L 124.45 187.05
Q 125.75 187.75 126.2 189.9 126.7 192.35 127.45 193.05 128.8 192.3 129.1 190.65 128.9 190.05 127.6 186.55 126.65 184.1 126.4 182.35 125.85 181.1 124.7 177.95 123.7 175.05 122.95 173.5 122 171 121.35 169.8 Z"/>
</g>

<g id="Layer0_0_MEMBER_0_MEMBER_71_FILL">
<path fill="#AA948E" stroke="none" d="
M 113.35 147.65
Q 112.9 143.8 110.15 146.05 112.5 151.45 113.6 155.5 115 160.75 114.85 165.5 114.8 166.65 115.75 167.2 116.25 167.5 117.4 168.1
L 118.45 167.2
Q 118 166.9 117.8 166.7 117.35 166.4 117.4 166.25 118.05 162.4 116.05 156.8 113.6 149.85 113.35 147.65 Z"/>
</g>

<g id="Layer0_0_MEMBER_0_MEMBER_72_FILL">
<path fill="#FE7860" stroke="none" d="
M 348.35 179.2
Q 345.5 178.8 342.1 180.05 335.9 182.25 323.5 186.45 322.6 187.6 322.2 187.95 321.35 188.7 320.45 188.85 313.7 190.05 314.7 197.65 315.3 202.5 313.25 209.25 312.8 210.7 311.8 213.65 311.2 216.25 312.35 218.3 319.55 218.85 327.2 221.5 330.35 222.6 333.1 222.1 341.7 219.7 343.35 211.3 343.95 208.55 344.25 207.2 344.75 204.75 344.95 203.05 345.2 201.1 345.35 200.75 345.7 199.55 346.75 199.3 347.8 199.05 348.7 200 349.2 200.55 350.1 201.8 350.95 202.75 352.1 205.1 353.35 207 355.4 207.05 353.55 193.45 348.35 179.2 Z"/>
</g>

<g id="Layer0_0_MEMBER_0_MEMBER_73_FILL">
<path fill="#FD8071" stroke="none" d="
M 355.4 207.05
Q 353.2 204.7 351.95 202.3 348.8 196.4 346.45 196.85 344.8 197.15 344.15 199.6 344.15 199.65 343.5 204.05 342.4 211.45 341.2 214.15 338.95 219.25 333.45 221.05 330.35 223.2 328.9 225.3 327 227.95 327 231.35 327 233.45 324.1 235 322.5 235.85 322.2 236.05 321.25 236.8 321.2 237.95 324.3 241.85 329.2 241.1 331.4 240.5 333.6 240.2 339.9 239.35 342.3 238.15 346.5 236.1 347.75 230.95 348.15 229.35 349.35 229.45 350.45 229.6 351.5 230.9 352.65 232.4 352.95 234.8 353.1 236.2 353.25 239 353.5 240.85 353.9 244.65 354.7 247.75 357.55 249.05 357.85 247.6 358 246.9 358.2 245.6 358.25 244.7 358.65 223.3 355.4 207.05 Z"/>
</g>

<g id="Layer0_0_MEMBER_0_MEMBER_74_FILL">
<path fill="#FD857D" stroke="none" d="
M 328.5 240.05
Q 326.7 243.1 327.15 246.55 327.5 249.1 329.3 252.9 330.4 254.8 332.6 256.25 333.65 256.95 336.75 258.4 337.05 258.55 339.85 260.35 341.75 261.55 343.25 261.8 347.55 262.55 348.4 264 349.3 265.45 348.15 269.9 347.5 272.45 347.6 273.5 347.7 275.35 349.55 276.5 352.55 276.25 353.4 273.65 353.9 270.45 354.5 269.05
L 356.4 263.85
Q 356.4 262.05 357.25 256.5 357.95 251.9 357.55 249.05 356.55 247.65 356.5 247.5 355.2 244.65 354.75 241.1 354.4 238.55 354.4 234.45 354.4 231.75 353.05 229.8 351.65 227.7 349.25 227.45 347.45 227.2 346.55 229.25 346.2 230 345.55 232.95 344.95 235.4 343.15 236.65 341.7 237.6 339.05 238 335.5 238.45 333.7 238.75 330.65 239.2 328.5 240.05 Z"/>
</g>

<g id="Layer0_0_MEMBER_0_MEMBER_75_FILL">
<path fill="#6D1716" stroke="none" d="
M 230.25 261.95
Q 229.4 260.15 228.9 259.3 228 257.9 226.55 257.55 225.9 257.55 225.25 258.05 224.9 259.45 225.5 261 225.8 261.9 226.75 263.65 227.85 266 231.05 271.4 234 276.35 235.25 279.45 233.95 278.9 232.55 277.7 230.65 276 230.3 275.75 228.55 274.55 227.8 274.35 226.35 273.95 225.05 275.2 224.45 276.55 225.45 277.95 229 283.1 230.85 285.4 234.05 289.45 237.25 292.1 241.25 296.95 247.75 301.85 249.5 303.15 259.55 309.95 262.85 312.25 264.75 309.55 264.8 307.95 263.85 306.5 263.3 305.7 261.75 304.2 256.9 299.4 253.05 294.35 240.25 279.75 230.25 261.95 Z"/>
</g>

<g id="Layer0_0_MEMBER_0_MEMBER_76_FILL">
<path fill="#68282D" stroke="none" d="
M 205.1 228.65
Q 204.75 226.7 203.4 225.75 199.7 226.45 199 227.4 198.35 228.4 199.3 231.75 200.25 234.95 202.3 239.6 205.35 246.6 205.65 247.35 206.15 248.9 207.6 251.65 209.1 254.5 209.6 255.95 216.35 269.45 225.45 277.95
L 225.45 275
Q 225.15 272.85 223 270.2 220.45 267.05 219.9 265.75 214.2 253.7 211.4 247.65 206.45 236.85 205.1 228.65 Z"/>
</g>

<g id="Layer0_0_MEMBER_0_MEMBER_77_FILL">
<path fill="#9C2926" stroke="none" d="
M 242.8 296.85
Q 241.15 295.05 240.3 294.15 238.75 292.65 237.25 292.1 241.1 298.1 248.85 304.15 253.2 307.6 262.15 314.2 263.15 314.45 264.9 315.35 266.7 316.2 267.65 316.45 269.45 316.95 270.25 316.8 271.55 316.55 272 314.85 272 313.7 271.1 312.7 269.25 310.8 268.3 309.95 266.55 308.45 264.45 309.05 263.55 310.1 262.45 310.1 261.4 310.15 260.45 309.3 257.85 306.9 251.6 303.15 245.5 299.45 242.8 296.85 Z"/>
</g>

<g id="Layer0_0_MEMBER_0_MEMBER_78_FILL">
<path fill="#942929" stroke="none" d="
M 212.45 221.05
Q 207.75 222.1 207.2 222.2 206.55 222.25 202.1 224.05 199.05 225.3 196.7 224.1 196.3 228.05 198.05 232.9 199.05 235.65 201.45 241.05 202.75 242 203.6 244.55 204.45 247.25 205.4 248.15 205.95 248.7 206.5 248.1 204.55 242.7 203.6 240 201.85 235.15 200.5 231.95 199.4 229.35 200.15 227.95 200.85 226.6 203.45 226.05 204.55 226.65 205.35 226.2 208.1 224.65 209.6 225.5 211 226.25 211.75 229.4 212.3 231.85 212.65 232.5 213.6 234.15 215.75 233.95 216.55 231.7 215.3 227.9 213.95 223.8 214.4 221.85
L 212.45 221.05 Z"/>
</g>

<g id="Layer0_0_MEMBER_0_MEMBER_79_FILL">
<path fill="#CB4038" stroke="none" d="
M 288.35 330.15
Q 292.75 331.5 294.05 329.15 295.15 327.2 292.25 323.65 292.3 323.9 291.9 323.35 287.65 320.8 283.05 320.5 282.1 321 281.9 321.05 281.25 321.2 280.5 320.85 278.7 319.95 277.35 320.55 276.05 321.15 275.35 323.15 275.85 324.05 277.9 325.05 279.8 326 280.3 327.15
L 288.35 330.15 Z"/>
</g>

<g id="Layer0_0_MEMBER_0_MEMBER_80_FILL">
<path fill="#BF342C" stroke="none" d="
M 282.45 321.05
Q 281.1 317.55 278.1 315.8 275.5 314.35 271.45 314.05 271.15 315.9 270.05 315.95 269.4 315.95 267.85 315.15 264.9 313.65 262.15 314.2 264.55 317 268.3 319.35 270.45 320.7 275.35 323.15 277.2 321.7 278.3 321.45 279.9 321.15 281.65 322.7 282.4 323.35 282.6 322.6 282.75 321.9 282.45 321.05 Z"/>
</g>

<g id="Layer0_0_MEMBER_0_MEMBER_81_FILL">
<path fill="#995258" stroke="none" d="
M 205.4 248.15
Q 206.3 250.8 207.05 252.3 208.1 254.45 209.6 255.95 209.85 254.1 208.5 251.85 206.7 248.75 206.5 248.1
L 205.4 248.15 Z"/>
</g>

<g id="Layer0_0_MEMBER_0_MEMBER_82_FILL">
<path fill="#FD7149" stroke="none" d="
M 287.45 223.8
Q 291.95 220.5 293.65 212.85 295.3 205.3 292.8 200.15 291.9 198.3 290.35 197.85 288.15 198.35 287.05 198.7
L 244.55 212.15 241.45 214
Q 241.8 214.85 241.35 217.9 241 220.35 242.6 221.5 244.25 222.6 249.5 226.85 253.75 230.25 256.65 231.85 257.35 232.25 260.05 233.3 262.15 234.1 263.3 235.15 267.65 239.15 270.65 239.15 273.65 239.1 278.35 235.2 280.55 228.9 287.45 223.8 Z"/>
</g>

<g id="Layer0_0_MEMBER_0_MEMBER_83_FILL">
<path fill="#FE7D55" stroke="none" d="
M 315.9 195.95
Q 315.35 193.85 316.6 192.05 317.95 190 320.85 189.95 323.5 189.9 323.5 186.45
L 290.35 197.85
Q 294.1 205.45 292.65 212.4 291.15 219.55 284.6 224.25 278.9 228.35 277.45 235.05 277.2 235.5 276.15 236.85 275.25 237.95 275.1 238.75 274.55 241.7 272.7 243 271.1 244.15 267.85 244.5 264.75 244.85 262.8 246.5 260.5 248.4 260.1 251.65 261 254 264.4 254.2 265.9 254.3 268 253.55 271.1 252.5 271.5 252.4 273.45 251.85 276.75 250.35 280.4 248.7 282 248.15 296.35 243.55 301 229 302.95 222.85 309.5 220.6 310.1 220.4 311.5 220 312.6 219.45 312.5 218 312.5 216.8 312.55 216.55 314.5 209.85 315.4 206.5 317.1 200.5 315.9 195.95 Z"/>
</g>

<g id="Layer0_0_MEMBER_0_MEMBER_84_FILL">
<path fill="#4E282F" stroke="none" d="
M 121.5 320
Q 121.95 319.2 123.05 318.05 124.25 316.75 124.65 316.2 126.35 313.75 125.45 311.4 124.55 309.05 121.5 308 118.4 307.9 116.85 308.2 114.35 308.65 112.65 310.25 111.95 310.9 111.05 310.7 110 310.25 109.5 310.05 109.45 311.2 109.55 313.6 109.5 315.65 108.45 316.8 105.65 319.95 103 325.7 99.3 333.65 98.5 335.05 100.45 335.5 100.8 336.6 101.1 337.55 100.05 339.3 97.8 342.65 101.4 342.05
L 110.25 332.8 121.5 320 Z"/>
</g>

<g id="Layer0_0_MEMBER_0_MEMBER_85_FILL">
<path fill="#EA9FA2" stroke="none" d="
M 115.95 289.8
Q 113.2 289.75 112.45 290 110.6 290.6 110.45 293.05
L 110.35 293.1
Q 115.2 296.45 121.65 295.1 123.25 294.15 127 294.05 130.65 293.95 132.35 292.9 135.5 293.1 139.65 291.65 142 290.85 146.65 289.15 148.05 288.6 150.85 287.65 153.2 286.65 154.5 285.1 158.55 282.85 159.15 282.5 162.15 280.6 161.2 277.95
L 159.7 272.85
Q 158.75 269.8 157.45 268.05 156.2 268.9 155.9 270.3 155.7 271.3 156.05 272.95 156.6 275.6 154.15 277.15 143.5 283.45 136 286.25 125.7 290.1 115.95 289.8 Z"/>
</g>

<g id="Layer0_0_MEMBER_0_MEMBER_86_FILL">
<path fill="#5C3745" stroke="none" d="
M 139.75 305.95
Q 140 303.85 136.5 300.65 136 300.2 134.9 299.5 133.55 298.9 133.25 298.8 132.3 298.55 131.45 299.05 126.7 301.9 125.7 302.7 122.7 305 121.5 308 127 311.45 122.95 317 122 318.3 121.95 318.4 121.45 319.2 121.5 320 125.95 316.6 128.2 315.1 132.05 312.5 135.5 311.05 139.55 308 139.75 305.95 Z"/>
</g>

<g id="Layer0_0_MEMBER_0_MEMBER_87_FILL">
<path fill="#833B4B" stroke="none" d="
M 154.85 293.1
Q 155.3 291.35 154.3 290.3 153.6 289.55 151.8 288.95 151.05 288.7 149.1 288.55 147.35 288.4 146.45 288
L 132.35 292.9
Q 133.05 294.1 132.1 296 131.1 298.05 131.45 299.05
L 134.5 300.05
Q 146.25 300.95 154.85 293.1 Z"/>
</g>

<g id="Layer0_0_MEMBER_0_MEMBER_88_FILL">
<path fill="#DC9899" stroke="none" d="
M 110.35 293.1
L 110.45 295
Q 113 297.05 116.05 296.85 118.35 296.7 121.65 295.1
L 110.35 293.1 Z"/>
</g>

<g id="Layer0_0_MEMBER_0_MEMBER_89_FILL">
<path fill="#FDC2C4" stroke="none" d="
M 148.45 245.1
L 147.4 240.15
Q 147 238.4 146.7 237.55 146.2 236.1 144.45 236.05 140.9 237.05 139.2 237.7 136.2 238.8 134.55 240.7 131.4 244.35 130.4 249.2 129.6 253.05 130 258.75 130.7 267.8 127.65 276.45 126.4 280.1 122.95 280.7 119.55 281.35 116.9 278.5 115.7 277.3 114.65 275.2 113.5 273.05 109.5 269.5 105.7 266.2 104.65 263.5 104.45 263 103.75 262.85 103.05 262.75 102.4 263.05 102.45 265.65 104.15 271.5 105.7 276.85 105.5 280.05
L 105.7 281.05
Q 108.35 287.25 110 288.15 111.35 288.9 118.3 288.65 125.35 288.35 132.65 283.75 140.7 277.75 144.65 274.9 149 271.8 151 266.4 153 260.9 151.8 254.85 151.45 253.2 150.05 250 148.75 246.9 148.45 245.1 Z"/>
</g>

<g id="Layer0_0_MEMBER_0_MEMBER_90_FILL">
<path fill="#FDC9CA" stroke="none" d="
M 135.4 240.75
Q 134.2 240 132.05 240.75 129.25 241.75 123.45 243.35 117.7 244.95 114.9 245.95 113.85 246.35 107.55 247.75 103.05 248.75 100.55 250.5 98.95 256.95 102.4 263.05 105.9 264.75 106.4 268.95 106.65 270.9 106.95 271.3 107.55 272.25 109.25 271.6 110.45 271.15 111.15 271.85 111.3 272 112.15 273.4
L 115.7 279.4
Q 117 281.7 119.55 282.05 121 282.25 124.15 282 126.1 282 127.25 280.7 128.1 279.75 128.75 277.6 131.45 269.45 131.45 258.05 131.05 252.75 131.3 250.15 131.65 245.75 134.85 243.1 135.15 242.85 135.25 242.1 135.35 241.15 135.4 240.75 Z"/>
</g>

<g id="Layer0_0_MEMBER_0_MEMBER_91_FILL">
<path fill="#976C57" stroke="none" d="
M 106.55 220.1
L 105.45 219.05
Q 102.65 218.55 100.25 216.55 98 214.7 97.25 212.55 95.9 208.7 93.25 204.05 90.1 198.7 88.5 196 87.45 197.4 88.45 199.05 88.45 206.55 88.85 209.55 89.6 215.3 92.35 219.45 94.1 221.95 92.4 224.05 91.95 225.1 92.1 225.55 92.3 226.15 93.55 226.1
L 97.4 225
Q 98.25 224.45 102.3 223.15 105.4 222.15 106.55 220.1 Z"/>
</g>

<g id="Layer0_0_MEMBER_0_MEMBER_92_FILL">
<path fill="#7C3737" stroke="none" d="
M 135.4 240.75
L 144.45 236.85
Q 145.85 236.45 146.4 236.15 147.35 235.6 146.45 234.1 146.15 233.85 145.75 233.8 144.7 233.25 143.25 234.05 142.85 234.25 142.3 234.9 141.7 235.6 141.35 235.8 130.75 239.75 123.2 242.15 113.25 245.35 104.6 247.15 104.35 247.75 101.9 248 99.95 248.2 100.55 250.5 108.1 249.45 118.15 246.35 123.95 244.6 135.4 240.75 Z"/>
</g>

<g id="Layer0_0_MEMBER_0_MEMBER_93_FILL">
<path fill="#8E807F" stroke="none" d="
M 92.4 224.05
L 91.4 225.1 92.4 229.15
Q 93 233.4 94.55 238.7 95.25 241.15 97.6 248 98.7 246.55 98.55 244.7 98.5 243.95 97.75 241.4
L 93.55 226.1
Q 92.6 225.6 92.4 224.05 Z"/>
</g>

<g id="Layer0_0_MEMBER_0_MEMBER_94_FILL">
<path fill="#FEFEFE" stroke="none" d="
M 92.4 229.15
Q 92.25 233.9 93.75 238.9 95 243.05 97.6 248
L 92.4 229.15 Z"/>
</g>

<g id="Layer0_0_MEMBER_0_MEMBER_95_FILL">
<path fill="#FEADAA" stroke="none" d="
M 330.5 320.05
Q 330.1 319.45 329.15 319 328.05 318.55 327.55 318.25 326.6 316.35 327.35 314.65 327.9 313.35 329.65 311.85 331.8 310 332.4 309.25 333.8 307.65 333.95 305.95 334.95 295.55 329.1 289.35 322.8 282.65 311.65 285.1 309.8 285.5 308.6 286.55 307.25 287.7 307.3 289.3 307.35 292.45 305.5 294.95 304.55 296.15 301.3 299 298.3 301.55 297.45 303 295.95 305.6 297.35 308.65 298.2 310.7 297.95 312.05 297.45 314.8 298.8 316.6 299.9 318.1 302.6 319.2 306.35 320.75 306.55 321.85 306.8 322.9 304.1 326.15 303.1 327.15 303.45 328 309.65 327.15 317.2 324.75 320.75 323.65 330.5 320.05 Z"/>
</g>

<g id="Layer0_0_MEMBER_0_MEMBER_96_FILL">
<path fill="#FD928D" stroke="none" d="
M 266.75 287.9
Q 261.9 288.85 260.85 291.25 259.95 293.45 261.65 298.65 263.9 305.6 270.5 312.95
L 271.45 314.05
Q 275.9 316.2 277.3 317 280.5 318.85 282.45 321.05
L 291.5 324
Q 292.6 324.75 296.7 325.3 300.1 325.8 301.4 327.95
L 303.45 328 304.45 327
Q 304.85 324.1 303.1 322.9 301.9 322.1 298.95 321.85 291.55 321.35 287.6 316.5 285.05 313.4 284.25 312.5 282.3 310.35 280.45 309 278.9 307.9 278.95 306.75 278.95 305.65 280.45 304.7 285.2 301.65 289.45 295.85 294.05 288.85 296.35 285.35 297.45 283.2 296.8 281.75 295.1 280 291.55 280.2 287.5 280.4 286.1 279.6 277.15 285.8 266.75 287.9 Z"/>
</g>

<g id="Layer0_0_MEMBER_0_MEMBER_97_FILL">
<path fill="#C94F49" stroke="none" d="
M 351.4 283.95
Q 347.1 288.5 344.95 292.4 342.25 297.35 342 302.65 342 302.85 343.4 303.25 344.35 303.5 343.2 304.8 342.75 305.35 342.85 306.1 343 306.85 343.65 307.4 344.35 307.65 344.9 307.2 347.9 303.95 350.05 299.05 351.25 296.45 353.4 290 351.8 287.95 351.4 283.95 Z"/>
</g>

<g id="Layer0_0_MEMBER_0_MEMBER_98_FILL">
<path fill="#E3544F" stroke="none" d="
M 344.7 304.25
Q 345.95 302.6 345.65 301.4 344.55 300.85 343.75 301.75 342.65 302.95 342.4 303 341.7 302.7 341 302.95 340.6 303.1 339.8 303.65 339.2 304.3 337.15 306 335.5 307.45 334.65 308.5 334.1 309.7 332.55 311.5 330.85 313.4 330.35 314.4 329.25 316.5 330.05 317.4 330.85 318.3 333.55 318.15 336.2 318 338.65 316.2 338.85 315.05 339.95 313.9 341.65 312.05 341.7 312 342.25 311.3 343.35 309.8 344.1 308.45 343.5 307.05 343.4 306 344.7 304.25 Z"/>
</g>

<g id="Layer0_0_MEMBER_0_MEMBER_99_FILL">
<path fill="#F6F0F1" stroke="none" d="
M 326.8 326.95
Q 330.65 325.15 332.7 323.1 330.9 322.8 328.4 324 316.9 326.9 308.5 330.15
L 300.55 332.9
Q 304.8 333.35 310.6 332.2 313.9 331.55 320.45 330 320.9 329.75 326.8 326.95 Z"/>
</g>

<g id="Layer0_0_MEMBER_0_MEMBER_100_FILL">
<path fill="#E25A54" stroke="none" d="
M 291.5 324
Q 293.85 328.05 293.45 328.85 293 329.65 288.35 330.15 291.4 331.5 295.1 330.4 297.2 329.75 301.4 327.95 300.4 324.4 297.25 323.95 293.4 324.1 291.5 324 Z"/>
</g>

<g id="Layer0_0_MEMBER_0_MEMBER_101_FILL">
<path fill="#FD9390" stroke="none" d="
M 335.6 308.15
L 335 307.75
Q 327.35 310.35 326.5 320
L 330.5 320.05
Q 332.75 319.8 333.55 318.15 331.2 317.95 330.7 317.1 330.15 316.15 331.85 314.25 332.7 313.35 334.4 311.6 335.65 309.95 335.6 308.15 Z"/>
</g>

<g id="Layer0_0_MEMBER_0_MEMBER_102_FILL">
<path fill="#D1B7BE" stroke="none" d="
M 317.8 326.15
Q 308.05 329.25 307.45 329.4
L 308.5 330.15
Q 316.95 328.6 328.4 324 324 324.2 317.8 326.15 Z"/>
</g>

<g id="Layer0_0_MEMBER_0_MEMBER_103_FILL">
<path fill="#B84C4C" stroke="none" d="
M 338.65 316.2
Q 341.4 315 342.95 312.5 344.25 310.45 344.9 307.2
L 343.5 307.05
Q 343.35 308.6 342.3 309.9 341.85 310.45 340.05 312.1 338.6 313.05 338.1 313.65 337.2 314.8 338.65 316.2 Z"/>
</g>

<g id="Layer0_0_MEMBER_0_MEMBER_104_FILL">
<path fill="#E97D7E" stroke="none" d="
M 346.15 293.1
Q 347.9 290.05 351.4 283.95 351.6 282.95 353.25 276.55 354.4 272.1 354.5 269.05 354.25 269.35 352.75 273.1 351.7 275.55 349.5 276.05 344.95 285.7 340.6 296.45 339.6 299 339.45 300.1 339.15 302.3 340.45 303.95
L 342.4 303
Q 343.05 298.6 346.15 293.1 Z"/>
</g>

<g id="Layer0_0_MEMBER_0_MEMBER_105_FILL">
<path fill="#A48A84" stroke="none" d="
M 79.5 172
L 72.95 154.55
Q 71.35 157.95 72.6 162 73.35 164.25 75 168.6 75.5 170.8 77.95 175.05 80.25 179 80.6 181.45 81.15 185.3 82.5 193 85.3 192.2 85.3 189.95 84.65 187.25 84.5 185.95 84.05 185 83.25 179.3 82.65 175.15 79.8 173.4 79.6 173.3 79.6 172.85 79.55 172.25 79.5 172 Z"/>
</g>

<g id="Layer0_0_MEMBER_0_MEMBER_106_FILL">
<path fill="#6A5A5D" stroke="none" d="
M 128.4 191.1
Q 128.65 193.75 129.75 196.95 130.2 198.15 132 202.5 132.55 205.9 134 210.6 134.55 212.3 135.6 215.8 136.75 218.7 138.7 220.25 139.7 220 139.85 219.25 140 218.75 139.7 217.75
L 129.4 188.1 127.35 183.15
Q 127.05 182.65 126.5 182.5 125.95 182.5 125.55 183
L 128.4 191.1 Z"/>
</g>

<g id="Layer0_0_MEMBER_0_MEMBER_107_FILL">
<path fill="#86777A" stroke="none" d="
M 138.6 219.95
Q 137.8 220.7 137.95 221.8 137.95 221.85 138.55 223.6 139.35 226.05 140.85 229.35 141.7 231.25 143.45 234.95
L 145.75 233.8 139.7 217.75 138.6 219.95 Z"/>
</g>

<g id="Layer0_0_MEMBER_0_MEMBER_108_FILL">
<path fill="#8E6063" stroke="none" d="
M 144.45 236.85
Q 145.6 237 146.3 238.2 147.3 240.05 147.4 240.15 147.3 237.85 148.5 238.25 149.15 238.5 150.55 239 150.2 236.7 149.5 235.7 148.55 234.25 146.45 234.1 146.55 235 145.75 235.7 145.35 236.1 144.45 236.85 Z"/>
</g>

<g id="Layer0_0_MEMBER_0_MEMBER_109_FILL">
<path fill="#EEE2DD" stroke="none" d="
M 117.95 147.65
Q 117.2 146.15 115.3 147.1
L 119.65 161.9
Q 120.25 163.25 121.3 163.35 122.05 163.45 123.4 162.85
L 119.35 149.95
Q 119.1 149.8 117.95 147.65 Z"/>
</g>

<g id="Layer0_0_MEMBER_0_MEMBER_110_FILL">
<path fill="#EFE6E3" stroke="none" d="
M 127.35 183.15
Q 127.75 183.1 128.8 183.3 129.6 183.3 129.2 182.15 127.6 177.3 126.65 174.9 125.1 170.75 123.35 167.95 122.45 166.55 121.45 168.05 121.55 171.55 123.3 175.75 124.3 178.2 126.6 182.95
L 127.35 183.15 Z"/>
</g>

<g id="Layer0_0_MEMBER_0_MEMBER_111_FILL">
<path fill="#685B5B" stroke="none" d="
M 121.45 168.05
Q 120.65 167.1 120.25 166.6 119.45 165.8 118.55 165.75
L 118.45 166.95
Q 120.2 169.65 122.15 174.9 124.35 180.75 125.55 183 126.25 183 126.6 182.95 126.15 180 124.25 175.45 122 170 121.45 168.05 Z"/>
</g>

<g id="Layer0_0_MEMBER_0_MEMBER_112_FILL">
<path fill="#95776C" stroke="none" d="
M 88.5 196
Q 88.05 195.1 87.7 192.45 87.35 190.15 86.5 189 86.5 190.75 86.3 194.25 86.45 197.2 88.45 199.05
L 88.5 196 Z"/>
</g>

<g id="Layer0_0_MEMBER_0_MEMBER_113_FILL">
<path fill="#FAB4B5" stroke="none" d="
M 105.7 281.05
Q 106.45 285.75 107 287.45 108.1 290.9 110.45 293.05 111.5 291.05 113.7 290.85 114.95 290.75 117.55 291.1 121.05 291.2 125.35 290.35 126.8 290.05 133 288.55 137.55 287.45 143.1 284.65 149.35 281.2 152.5 279.5 156.7 277.3 157.15 276.8 159 274.85 156.85 271.35 156.6 270.95 156.95 269.85 157.45 268.15 157.45 268.05 156.2 265.45 155.7 264.1 154.85 261.75 154.95 259.8 154.6 256.55 154 254.7 153.15 252 151.4 250.15 150.75 249.55 150.1 247.55 149.45 245.7 148.45 245.1 148.35 248.5 149.55 251.35 151.65 256.45 149.65 264.3 147.65 272.1 143.45 275.25 142.6 275.9 140.65 276 138.7 276.15 137.6 277.4 135.6 279.75 132.1 281.95 130.1 283.2 125.95 285.55 123.9 286.8 120.15 286.95 116.1 287.1 114.45 287.85 110.35 289.7 108.9 286.65 107.9 282.55 106.65 281.35 106 281.15 105.7 281.05 Z"/>
</g>

<g id="Layer0_0_MEMBER_0_MEMBER_114_FILL">
<path fill="#6E3639" stroke="none" d="
M 154.5 259.95
Q 154.8 260.55 155.4 260.2 155.45 259.05 155.55 258.5 155.7 257.5 156.5 257.05 156.1 254.6 154.8 252.15 153.8 250.3 151.7 247.4
L 151.4 250.15
Q 151.3 252.2 152.65 255.15 154.25 258.7 154.5 259.95 Z"/>
</g>

<g id="Layer0_0_MEMBER_0_MEMBER_115_FILL">
<path fill="#FC7661" stroke="none" d="
M 271.45 251.05
Q 267.8 252.45 266 252.95 262.75 253.9 260.5 251 259.7 248.7 256.25 248.05 248.1 246.45 242.9 237.85 240.8 234.15 238.35 232.8 233.6 230.1 231.85 223.8 231.2 221.45 230.8 220.55 229.95 218.9 228.45 218.05
L 214.4 221.85
Q 213.15 222.55 213 223.65 212.85 224.5 213.35 226.05 213.75 227.4 214.8 229.95 215.6 232.3 215.5 234.05 215.55 237.85 217.7 242.5 218.9 245.15 221.5 250.35 222.1 251.1 223.75 254.35 225.1 256.9 226.6 258
L 229.05 262.25
Q 235.05 272.55 239.8 279.4 246 288.45 252.45 295.2 253.2 294.45 253.05 293.1 248.5 286.6 246.75 283.15 243.8 277.4 243.45 271.8 243.35 270.35 242.35 268.6 242 268 240.4 265.65 235.95 259.3 234.3 256.6 231.25 253.75 229.9 248.6 228.7 242.6 227.9 239.65 227.25 237.35 228.95 236.65 230.1 236.15 231.65 237.6 232.5 238.4 235.4 241.25 237.75 243.5 239.25 244.8 240.3 245.65 247.25 252.35 252.05 256.95 255.9 259.05 260.95 261.75 265.65 259.3 270.35 256.9 271.45 251.05 Z"/>
</g>

<g id="Layer0_0_MEMBER_0_MEMBER_116_FILL">
<path fill="#FE7456" stroke="none" d="
M 243.35 215.8
Q 243.7 215.15 243 214.6 242.4 214.15 241.45 214 234.95 215.55 234.8 215.6 231.05 216.6 228.45 218.05 229.45 220.35 230.75 225.4 232.15 229.75 234.8 231.5 237.6 233.4 240.4 236.95 241.95 239 245.05 243 249.7 248.3 254.45 248.9 255.9 249.1 257.6 249.75 257.85 249.85 260.5 251 263.2 247.75 265.15 246.55 268.05 244.8 271.6 245.6 272.65 245.85 273.8 245.15 275 244.45 275.05 243.4 275.1 241.9 276.3 239.2 277.5 236.6 277.45 235.05 271.8 238.1 270 237.85 268.25 237.6 263.3 233 262.55 232.25 262.1 232.2 257.95 231.75 253.75 228.6 249.15 224.65 246.7 222.85 243.25 220.3 243.15 220.2 241.75 218.5 243.35 215.8 Z"/>
</g>

<g id="Layer0_0_MEMBER_0_MEMBER_117_FILL">
<path fill="#F7F1EF" stroke="none" d="
M 118.5 145.2
Q 118.35 143.95 118.15 143.6 117.8 142.75 116.85 142.7 114.65 142.55 114.4 145.15
L 115.3 147.1
Q 116.55 146.8 117.4 148.4 118.25 150.05 119.35 149.95
L 118.5 145.2 Z"/>
</g>

<g id="Layer0_0_MEMBER_0_MEMBER_118_FILL">
<path fill="#593340" stroke="none" d="
M 158.2 292.95
Q 158.1 298.3 160.4 300.8 162.75 303.3 169.45 305
L 175.4 305.85
Q 174.35 302.85 173.1 301.05 171.45 298.8 168.9 297.6 166.4 296.5 164.45 293
L 163.45 292
Q 160.7 290.9 158.2 292.95 Z"/>
</g>

<g id="Layer0_0_MEMBER_0_MEMBER_119_FILL">
<path fill="#FC7C79" stroke="none" d="
M 155.45 308
Q 154 308 153.75 308.05 152.85 308.2 152.35 308.95 153.6 310.2 156 310.4 159.3 310.7 159.9 310.9 161.4 311.45 161.75 312.05 162.2 312.8 161.25 314.05 158.3 317.9 155.75 319.7 152.3 322.15 148.3 322.2 145.5 322.25 141.85 322.7 137.6 323.3 135.45 323.6 133.5 324.2 132.55 324.3 130.85 324.45 130.3 322.7 129.85 321.25 131.05 320.05 131.55 319.6 133.6 318.3 137.75 315.75 138.6 315.05 139.7 314.3 140.1 313.85 140.8 313 140.45 311.9 136.55 312.5 132.85 314.8 130.1 316.55 126.45 319.95 124.5 323.1 124.2 323.5 122.8 325.45 121.25 326.55 120.1 327.35 119.95 327.95 119.8 328.7 121.2 329.35 125.4 331.3 126.4 331.6 129.4 332.45 132.05 331.3 138.7 328.45 144.15 331.05 149.6 333.6 154.25 332 158.05 330.65 162.4 325.85 163.15 325.05 166.9 319.55 169.55 315.65 172.35 314.25 175.55 312.6 175.2 311.05 175 309.9 172.45 308.05 172.15 308 171.5 308 163.5 306.9 155.45 308 Z"/>
</g>

<g id="Layer0_0_MEMBER_0_MEMBER_120_FILL">
<path fill="#FD8B88" stroke="none" d="
M 152.35 308.95
Q 148.25 309.05 146.15 309.45 142.85 310.1 140.45 311.9 138.6 313.7 135.8 315.55 134.85 316.1 130.65 318.55 129.1 319.45 128.6 321 128.15 322.45 128.75 324.15 129.3 325.7 130.65 325.75 130.85 325.75 133.35 325.3 138.7 324.2 139.9 324 143.65 323.35 146.5 323.35 151.7 323.25 156.3 320.65 161.1 317.9 163.25 313.5 164 312 163.7 311.25 163.35 310.4 161.7 310 157.65 308.95 152.35 308.95 Z"/>
</g>

<g id="Layer0_0_MEMBER_0_MEMBER_121_FILL">
<path fill="#653F50" stroke="none" d="
M 158.5 293.05
Q 156.7 291.4 154.45 293 146.6 297.7 134.5 300.05 138.45 304.2 138.55 305.6 138.7 306.95 135.5 311.05 147.15 307.05 152.1 305.95 161.5 303.85 169.45 305 160.35 302.6 158.5 293.05 Z"/>
</g>

<g id="Layer0_0_MEMBER_0_MEMBER_122_FILL">
<path fill="#F9726C" stroke="none" d="
M 171.5 308
Q 163.35 305.65 155.45 308
L 171.5 308 Z"/>
</g>

<g id="Layer0_0_MEMBER_0_MEMBER_123_FILL">
<path fill="#742D38" stroke="none" d="
M 159.25 288.05
Q 156.15 288.05 154.5 285.1 152.8 285.2 150.4 286.35 147.5 287.75 146.45 288 147.05 289.35 148.35 289.8 149.1 290.05 150.9 290.05 154.25 289.95 154.45 293
L 158.5 293.05
Q 161.75 293.15 163.45 292 163 288.15 159.25 288.05 Z"/>
</g>

<g id="Layer0_0_MEMBER_0_MEMBER_124_FILL">
<path fill="#EA9FA2" stroke="none" d="
M 154.5 259.95
Q 153.8 264.6 157.45 268.05
L 155.4 260.2
Q 154.9 259.95 154.5 259.95 Z"/>
</g>

<g id="Layer0_0_MEMBER_0_MEMBER_125_FILL">
<path fill="#C3B7B6" stroke="none" d="
M 132.05 206.6
Q 132.4 209.4 130.45 211 134.45 215.65 137.25 222.8 138.3 225.55 141.35 235.8
L 143.45 234.95
Q 143.5 231.95 141.3 227.35 138.9 222.3 138.6 219.95
L 132.15 202.1
Q 131.75 201.5 131.35 202.05 131.25 203.55 132.05 206.6 Z"/>
</g>

<g id="Layer0_0_MEMBER_0_MEMBER_126_FILL">
<path fill="#7C432A" stroke="none" d="
M 103.45 169
Q 103.15 166.6 104.85 163.4 102.75 163.1 101.9 162.8 100.4 162.25 100.25 160.4 100.15 159.4 99.25 159.15 98.8 159.05 97.45 159.05 93.2 159.15 91.6 162 90.4 164.2 91.35 166.6 91.45 166.8 93.6 170.5 94.6 172.2 96.15 171.5 97 171.15 98.65 170.15
L 103.45 169 Z"/>
</g>

<g id="Layer0_0_MEMBER_0_MEMBER_127_FILL">
<path fill="#B7A6A4" stroke="none" d="
M 128.4 191.1
Q 127.85 191.35 127.65 191.95 127.55 192.2 127.45 193.05 128.05 194.05 129.1 197.7 129.95 200.65 131.35 202.05
L 132.15 202.1 128.4 191.1 Z"/>
</g>

<g id="Layer0_0_MEMBER_0_MEMBER_128_FILL">
<path fill="#FE8965" stroke="none" d="
M 327.1 234.25
Q 329.35 231.6 328.85 227.6 328.75 226.15 331.2 224.6 333.45 223.15 333.45 221.05 331.8 221.2 329.8 220.8 328.75 220.6 326.2 219.85 321.8 218.25 319.5 217.7 315.6 216.8 312.5 218 300.8 221.35 298.55 231.7 297.95 234.55 296.65 236.2 293.3 240.3 289.95 242.85 286 245.8 281.45 247.05 279.4 249.4 279.1 252.45 278.8 254.95 279.7 258.35 281.9 260.25 283.95 259.25 285.1 258.7 286.95 256.45 288.75 254.3 291.4 251.9 292.25 251.1 296.15 247.75 300.25 245.8 308.2 241.3 315.35 237.8 321.45 238 325.4 236.25 327.1 234.25 Z"/>
</g>

<g id="Layer0_0_MEMBER_0_MEMBER_129_FILL">
<path fill="#FE9575" stroke="none" d="
M 328.5 240.05
Q 326.95 240.25 324.9 239.35 322.05 238.15 321.45 238 314.85 236.05 307.55 240 299.7 245.25 295.45 247.05 294.9 247.85 293.65 249.35 292.4 250.8 291.85 251.6 287.85 257.35 287.1 258.8 284.8 263.1 285.05 267.2 287.25 269.75 292 270.45 293.6 270.05 295.15 268.55 296.05 267.7 297.8 265.95
L 303.25 260.5
Q 306.5 257.25 309.6 256.4 317.7 254.1 323.85 254.3 327.15 254.4 327.3 254.35 329.25 254.2 330.45 253 327.9 247.5 328.5 240.05 Z"/>
</g>

<g id="Layer0_0_MEMBER_0_MEMBER_130_FILL">
<path fill="#FE9B83" stroke="none" d="
M 325.6 269
Q 325.8 269.05 326.6 268.85 327.9 268.15 330.75 265.85 333.35 263.8 335.15 263 336.75 262.25 337.4 260.65 338.05 259 337.45 257.05 335.55 256.8 333.65 255.55 332.55 254.85 330.45 253 327.3 252.9 325.7 252.9 322.9 252.85 321 253.1
L 310.65 254.65
Q 304.9 256.2 301.5 260.55 296.25 267.15 291.5 270 286.65 274.8 286.5 280.05 288.7 282.6 291.3 281.85 293 281.35 293.95 281.3 295.35 281.25 296.45 282 298.8 282.25 300.65 280.5 301.7 279.55 303.45 277.2 308.35 271.6 313.2 269.5 318.95 267.05 325.6 269 Z"/>
</g>

<g id="Layer0_0_MEMBER_0_MEMBER_131_FILL">
<path fill="#FD9390" stroke="none" d="
M 349.75 263.05
Q 348.6 259.65 347.05 260.25 344.25 261.35 341.7 260 338.9 258.05 337.45 257.05 337.4 257.15 336.35 260.15 335.7 262 334.4 262.25 332 262.7 329.9 264.55 327.7 266.9 326.5 268.05 326.35 269.35 327.35 270.3 327.95 270.8 329.3 271.7 332 274.15 332.7 276.45 336.25 288.95 334.5 298.45 333.4 304.3 335.45 308
L 335.6 308.15
Q 338.25 307.45 340.45 303.95 341.05 297.85 344.15 291.3 346.65 286.5 347.7 284 349.55 279.7 349.5 276.05 348.4 274.4 348.7 272.55 348.85 271.5 349.85 269.05 350.9 266.5 349.75 263.05 Z"/>
</g>

<g id="Layer0_0_MEMBER_0_MEMBER_132_FILL">
<path fill="#FE8A7C" stroke="none" d="
M 281.1 267.8
Q 278.75 269.55 277.55 270.35 271.75 274.3 268.05 275.55 262.6 277.35 257.2 275.45 254.85 274.65 253.1 275.75 251.55 276.75 250.7 279.2 248.5 285.5 252.45 293
L 252.45 295.2
Q 254.2 298 258.35 302.2 262.85 306.8 264.45 309.05 265.9 309.1 267.5 310.95 269.2 312.85 270.5 312.95 268.6 309.5 267.65 307.8 265.95 304.75 264.65 302.75 261.05 297.2 262.15 293 263.2 288.75 268.6 288.4 273.85 288.1 278.45 285.8 282.3 283.85 286.5 280.05 286.6 279.85 289.25 275.15 290.9 272.2 291.5 270 290.65 268.85 288.65 268.25 286.05 267.4 285.45 267.05 283.25 266.5 281.1 267.8 Z"/>
</g>

<g id="Layer0_0_MEMBER_0_MEMBER_133_FILL">
<path fill="#5D191C" stroke="none" d="
M 215.5 234.05
Q 214.4 233.2 213.7 231.7 213.3 230.9 212.65 229 211.05 224.2 210.1 223.75 209.15 223.25 204.8 225.35
L 203.45 226.05
Q 204.05 227.85 205 233.65 205.8 238.4 207.15 241.15 209.05 244.9 212.45 252.65 214.35 256.55 217.8 264.5 221.15 271.25 225.45 275 227.8 274.9 229.95 276.85 233.5 280.1 233.55 280.15 234.05 280.45 234.9 281.2 235.7 281.6 236.45 280.8 237.15 280 237.05 279.15 236.95 278.45 236.2 277.35 229.8 268 225.45 258.05 225.45 256.35 224.2 253.9 222.7 251.05 222.45 249.9
L 215.5 234.05 Z"/>
</g>

<g id="Layer0_0_MEMBER_0_MEMBER_134_FILL">
<path fill="#A1220E" stroke="none" d="
M 225.45 258.05
L 226.6 258
Q 225.1 253.1 222.45 249.9 222.3 251.8 223.5 254.15 224.15 255.45 225.45 258.05 Z"/>
</g>

<g id="Layer0_0_MEMBER_0_MEMBER_135_FILL">
<path fill="#FE8267" stroke="none" d="
M 271.45 251.05
Q 265.95 259.1 261.45 259.5 256.9 259.9 249.9 252.95 247.3 250.4 243.4 246.85 239 242.85 236.8 240.85 234.8 238.85 233.75 237.9 231.95 236.2 230.55 235.15 228.9 233.9 227.65 234.45 226.35 235.05 226.6 237.05 227.8 246.5 228.1 247.7 229.55 253.6 233.45 257.05 234.65 255.9 234 253.8 233.7 252.9 233.05 251.5 232.25 249.85 232 249.25 231.2 247.7 231 246.9 230.6 245.55 231.8 244.8 232.9 244.1 234.05 245 234.7 245.5 235.9 246.75 236.05 246.75 236.25 247.1 239.65 251.95 245.45 257.9 248.7 261.25 255.4 267.95 257.65 270.25 258.6 270.9 260.6 272.25 262.55 271.7 268.7 269.9 272.8 267.25 277.75 264 280.45 259 280.4 255 280.45 253 280.55 249.5 281.45 247.05
L 271.45 251.05 Z"/>
</g>

<g id="Layer0_0_MEMBER_0_MEMBER_136_FILL">
<path fill="#FEA494" stroke="none" d="
M 336.15 296.7
Q 336.8 285.4 335.85 280.9 334.05 272.5 326.5 268.05 324.5 267.8 323.55 267.55 313.8 265.05 307.25 271.75 306.35 272.65 296.45 282
L 295.45 285.05
Q 294.25 287.15 294.4 288.8 295 296.2 293.1 302.95 292.4 305.45 294 307.15 295.5 308.85 298.45 309 296.8 305.15 299.3 302.35 302.9 299.55 304.45 298.1 305.45 297.2 307.4 295.5 308.75 293.85 308.4 291.8 307.45 286.15 313.7 286.05 320.05 286 322.35 286.65 326.8 287.9 329.6 292.6 332.7 297.9 332.55 302.45 332.4 307.55 328.15 311.25 323.65 315.1 326.5 320 328.55 315.35 329.7 313.1 331.8 309.2 335.45 308
L 336.15 296.7 Z"/>
</g>

<g id="Layer0_0_MEMBER_0_MEMBER_137_FILL">
<path fill="#FD9998" stroke="none" d="
M 295.45 285.05
Q 292.8 288.4 288 295.55 283.5 301.65 278.7 304.5 277.1 305.45 277.05 306.75 277 308.25 279.05 309.5 283.45 312.35 285.1 315.2 289.4 322.8 298.6 322.9 300.95 322.95 302.35 323.95 303.75 324.9 304.45 327 306.4 326.5 307.35 324.75 307.9 323.65 308.25 321.3 308.5 319.55 305.55 318.9 301.45 318 299.95 316.3 297.95 314.15 299.3 310.15 299.35 310 299.05 309.65 298.6 309.2 298.45 309 295.1 306.95 294.3 304.85 293.3 302.25 295.75 299.1 297.25 297.2 296.3 294.35 295.65 292.4 295.5 289.7 295.5 286.6 295.45 285.05 Z"/>
</g>

<g id="Layer0_0_MEMBER_0_MEMBER_138_FILL">
<path fill="#FD8771" stroke="none" d="
M 280.45 259
Q 273.75 265.35 266.6 269.3 260.45 272.75 257.35 268.25 255.6 265.7 251.7 262.35 247.2 258.5 245.75 256.8 239.55 249.1 236.3 245.4 234.45 243.35 233.75 242.9 232.1 241.8 230.55 242.9 229 244.05 229.4 246.1 229.55 246.9 230.75 249.65 231.3 250.85 232.6 253.15 233.6 255.25 233.45 257.05 235.55 261.3 237.9 264.2 240.35 267.25 241.5 269.4 243.15 272.5 243.2 275.25 243.25 280.4 246.15 285.1 247.7 287.7 252.45 293 251.75 291.25 251.6 288.1 251.35 284.45 251 283 250.2 279.85 252.55 277.9 254.9 276 258.15 277.05 261.6 278.2 265.25 277.6 268.1 277.15 271.95 275.35 274.1 274.35 278.65 271.05 282.75 268.05 285.45 267.05 285.35 265.75 286.1 264.15 287.05 262.45 287.35 261.55 288.3 258.95 291.45 254.3 294.55 249.75 295.45 247.05 292.05 249.5 290.45 250.85 287.7 253.2 286.25 255.65 284.45 258.6 280.45 259 Z"/>
</g>

<path id="Symbol_9_0_Layer0_0_1_STROKES" stroke="#303030" stroke-opacity="0.4980392156862745" stroke-width="1" stroke-linejoin="round" stroke-linecap="round" fill="none" d="
M -92.8 0
L 92.8 0"/>
</defs>

<g transform="matrix( 1, 0, 0, 1, 104.5,56.75) ">
<g transform="matrix( 1, 0, 0, 1, 0,0) ">
<use xlink:href="#Symbol_9_0_Layer0_0_1_STROKES"/>
</g>
</g>

<g transform="matrix( 1, 0, 0, 1, 21.05,51.95) ">
<clipPath id="Mask_Mask_1">
<rect x="-2" y="-2" width="170.9" height="34.05" fill="#FFFFFF" stroke="none"/>
</clipPath>

<text clip-path="url(#Mask_Mask_1)" writing-mode="lr"><tspan x="21.45" y="23.8" baseline-shift="0%" font-family="Myriad Pro" font-size="25" fill="#000000" xml:space="preserve">Vino Rosato</tspan></text>
</g>

<g transform="matrix( 0.19244384765625, 0, 0, 0.1924591064453125, 63.1,-19.6) ">
<use xlink:href="#Layer0_0_MEMBER_0_MEMBER_0_FILL"/>
</g>

<g transform="matrix( 0.19244384765625, 0, 0, 0.1924591064453125, 63.1,-19.6) ">
<use xlink:href="#Layer0_0_MEMBER_0_MEMBER_1_FILL"/>
</g>

<g transform="matrix( 0.19244384765625, 0, 0, 0.1924591064453125, 63.1,-19.6) ">
<use xlink:href="#Layer0_0_MEMBER_0_MEMBER_2_FILL"/>
</g>

<g transform="matrix( 0.19244384765625, 0, 0, 0.1924591064453125, 63.1,-19.6) ">
<use xlink:href="#Layer0_0_MEMBER_0_MEMBER_3_FILL"/>
</g>

<g transform="matrix( 0.19244384765625, 0, 0, 0.1924591064453125, 63.1,-19.6) ">
<use xlink:href="#Layer0_0_MEMBER_0_MEMBER_4_FILL"/>
</g>

<g transform="matrix( 0.19244384765625, 0, 0, 0.1924591064453125, 63.1,-19.6) ">
<use xlink:href="#Layer0_0_MEMBER_0_MEMBER_5_FILL"/>
</g>

<g transform="matrix( 0.19244384765625, 0, 0, 0.1924591064453125, 63.1,-19.6) ">
<use xlink:href="#Layer0_0_MEMBER_0_MEMBER_6_FILL"/>
</g>

<g transform="matrix( 0.19244384765625, 0, 0, 0.1924591064453125, 63.1,-19.6) ">
<use xlink:href="#Layer0_0_MEMBER_0_MEMBER_7_FILL"/>
</g>

<g transform="matrix( 0.19244384765625, 0, 0, 0.1924591064453125, 63.1,-19.6) ">
<use xlink:href="#Layer0_0_MEMBER_0_MEMBER_8_FILL"/>
</g>

<g transform="matrix( 0.19244384765625, 0, 0, 0.1924591064453125, 63.1,-19.6) ">
<use xlink:href="#Layer0_0_MEMBER_0_MEMBER_9_FILL"/>
</g>

<g transform="matrix( 0.19244384765625, 0, 0, 0.1924591064453125, 63.1,-19.6) ">
<use xlink:href="#Layer0_0_MEMBER_0_MEMBER_10_FILL"/>
</g>

<g transform="matrix( 0.19244384765625, 0, 0, 0.1924591064453125, 63.1,-19.6) ">
<use xlink:href="#Layer0_0_MEMBER_0_MEMBER_11_FILL"/>
</g>

<g transform="matrix( 0.19244384765625, 0, 0, 0.1924591064453125, 63.1,-19.6) ">
<use xlink:href="#Layer0_0_MEMBER_0_MEMBER_12_FILL"/>
</g>

<g transform="matrix( 0.19244384765625, 0, 0, 0.1924591064453125, 63.1,-19.6) ">
<use xlink:href="#Layer0_0_MEMBER_0_MEMBER_13_FILL"/>
</g>

<g transform="matrix( 0.19244384765625, 0, 0, 0.1924591064453125, 63.1,-19.6) ">
<use xlink:href="#Layer0_0_MEMBER_0_MEMBER_14_FILL"/>
</g>

<g transform="matrix( 0.19244384765625, 0, 0, 0.1924591064453125, 63.1,-19.6) ">
<use xlink:href="#Layer0_0_MEMBER_0_MEMBER_15_FILL"/>
</g>

<g transform="matrix( 0.19244384765625, 0, 0, 0.1924591064453125, 63.1,-19.6) ">
<use xlink:href="#Layer0_0_MEMBER_0_MEMBER_16_FILL"/>
</g>

<g transform="matrix( 0.19244384765625, 0, 0, 0.1924591064453125, 63.1,-19.6) ">
<use xlink:href="#Layer0_0_MEMBER_0_MEMBER_17_FILL"/>
</g>

<g transform="matrix( 0.19244384765625, 0, 0, 0.1924591064453125, 63.1,-19.6) ">
<use xlink:href="#Layer0_0_MEMBER_0_MEMBER_18_FILL"/>
</g>

<g transform="matrix( 0.19244384765625, 0, 0, 0.1924591064453125, 63.1,-19.6) ">
<use xlink:href="#Layer0_0_MEMBER_0_MEMBER_19_FILL"/>
</g>

<g transform="matrix( 0.19244384765625, 0, 0, 0.1924591064453125, 63.1,-19.6) ">
<use xlink:href="#Layer0_0_MEMBER_0_MEMBER_20_FILL"/>
</g>

<g transform="matrix( 0.19244384765625, 0, 0, 0.1924591064453125, 63.1,-19.6) ">
<use xlink:href="#Layer0_0_MEMBER_0_MEMBER_21_FILL"/>
</g>

<g transform="matrix( 0.19244384765625, 0, 0, 0.1924591064453125, 63.1,-19.6) ">
<use xlink:href="#Layer0_0_MEMBER_0_MEMBER_22_FILL"/>
</g>

<g transform="matrix( 0.19244384765625, 0, 0, 0.1924591064453125, 63.1,-19.6) ">
<use xlink:href="#Layer0_0_MEMBER_0_MEMBER_23_FILL"/>
</g>

<g transform="matrix( 0.19244384765625, 0, 0, 0.1924591064453125, 63.1,-19.6) ">
<use xlink:href="#Layer0_0_MEMBER_0_MEMBER_24_FILL"/>
</g>

<g transform="matrix( 0.19244384765625, 0, 0, 0.1924591064453125, 63.1,-19.6) ">
<use xlink:href="#Layer0_0_MEMBER_0_MEMBER_25_FILL"/>
</g>

<g transform="matrix( 0.19244384765625, 0, 0, 0.1924591064453125, 63.1,-19.6) ">
<use xlink:href="#Layer0_0_MEMBER_0_MEMBER_26_FILL"/>
</g>

<g transform="matrix( 0.19244384765625, 0, 0, 0.1924591064453125, 63.1,-19.6) ">
<use xlink:href="#Layer0_0_MEMBER_0_MEMBER_27_FILL"/>
</g>

<g transform="matrix( 0.19244384765625, 0, 0, 0.1924591064453125, 63.1,-19.6) ">
<use xlink:href="#Layer0_0_MEMBER_0_MEMBER_28_FILL"/>
</g>

<g transform="matrix( 0.19244384765625, 0, 0, 0.1924591064453125, 63.1,-19.6) ">
<use xlink:href="#Layer0_0_MEMBER_0_MEMBER_29_FILL"/>
</g>

<g transform="matrix( 0.19244384765625, 0, 0, 0.1924591064453125, 63.1,-19.6) ">
<use xlink:href="#Layer0_0_MEMBER_0_MEMBER_30_FILL"/>
</g>

<g transform="matrix( 0.19244384765625, 0, 0, 0.1924591064453125, 63.1,-19.6) ">
<use xlink:href="#Layer0_0_MEMBER_0_MEMBER_31_FILL"/>
</g>

<g transform="matrix( 0.19244384765625, 0, 0, 0.1924591064453125, 63.1,-19.6) ">
<use xlink:href="#Layer0_0_MEMBER_0_MEMBER_32_FILL"/>
</g>

<g transform="matrix( 0.19244384765625, 0, 0, 0.1924591064453125, 63.1,-19.6) ">
<use xlink:href="#Layer0_0_MEMBER_0_MEMBER_33_FILL"/>
</g>

<g transform="matrix( 0.19244384765625, 0, 0, 0.1924591064453125, 63.1,-19.6) ">
<use xlink:href="#Layer0_0_MEMBER_0_MEMBER_34_FILL"/>
</g>

<g transform="matrix( 0.19244384765625, 0, 0, 0.1924591064453125, 63.1,-19.6) ">
<use xlink:href="#Layer0_0_MEMBER_0_MEMBER_35_FILL"/>
</g>

<g transform="matrix( 0.19244384765625, 0, 0, 0.1924591064453125, 63.1,-19.6) ">
<use xlink:href="#Layer0_0_MEMBER_0_MEMBER_36_FILL"/>
</g>

<g transform="matrix( 0.19244384765625, 0, 0, 0.1924591064453125, 63.1,-19.6) ">
<use xlink:href="#Layer0_0_MEMBER_0_MEMBER_37_FILL"/>
</g>

<g transform="matrix( 0.19244384765625, 0, 0, 0.1924591064453125, 63.1,-19.6) ">
<use xlink:href="#Layer0_0_MEMBER_0_MEMBER_38_FILL"/>
</g>

<g transform="matrix( 0.19244384765625, 0, 0, 0.1924591064453125, 63.1,-19.6) ">
<use xlink:href="#Layer0_0_MEMBER_0_MEMBER_39_FILL"/>
</g>

<g transform="matrix( 0.19244384765625, 0, 0, 0.1924591064453125, 63.1,-19.6) ">
<use xlink:href="#Layer0_0_MEMBER_0_MEMBER_40_FILL"/>
</g>

<g transform="matrix( 0.19244384765625, 0, 0, 0.1924591064453125, 63.1,-19.6) ">
<use xlink:href="#Layer0_0_MEMBER_0_MEMBER_41_FILL"/>
</g>

<g transform="matrix( 0.19244384765625, 0, 0, 0.1924591064453125, 63.1,-19.6) ">
<use xlink:href="#Layer0_0_MEMBER_0_MEMBER_42_FILL"/>
</g>

<g transform="matrix( 0.19244384765625, 0, 0, 0.1924591064453125, 63.1,-19.6) ">
<use xlink:href="#Layer0_0_MEMBER_0_MEMBER_43_FILL"/>
</g>

<g transform="matrix( 0.19244384765625, 0, 0, 0.1924591064453125, 63.1,-19.6) ">
<use xlink:href="#Layer0_0_MEMBER_0_MEMBER_44_FILL"/>
</g>

<g transform="matrix( 0.19244384765625, 0, 0, 0.1924591064453125, 63.1,-19.6) ">
<use xlink:href="#Layer0_0_MEMBER_0_MEMBER_45_FILL"/>
</g>

<g transform="matrix( 0.19244384765625, 0, 0, 0.1924591064453125, 63.1,-19.6) ">
<use xlink:href="#Layer0_0_MEMBER_0_MEMBER_46_FILL"/>
</g>

<g transform="matrix( 0.19244384765625, 0, 0, 0.1924591064453125, 63.1,-19.6) ">
<use xlink:href="#Layer0_0_MEMBER_0_MEMBER_47_FILL"/>
</g>

<g transform="matrix( 0.19244384765625, 0, 0, 0.1924591064453125, 63.1,-19.6) ">
<use xlink:href="#Layer0_0_MEMBER_0_MEMBER_48_FILL"/>
</g>

<g transform="matrix( 0.19244384765625, 0, 0, 0.1924591064453125, 63.1,-19.6) ">
<use xlink:href="#Layer0_0_MEMBER_0_MEMBER_49_FILL"/>
</g>

<g transform="matrix( 0.19244384765625, 0, 0, 0.1924591064453125, 63.1,-19.6) ">
<use xlink:href="#Layer0_0_MEMBER_0_MEMBER_50_FILL"/>
</g>

<g transform="matrix( 0.19244384765625, 0, 0, 0.1924591064453125, 63.1,-19.6) ">
<use xlink:href="#Layer0_0_MEMBER_0_MEMBER_51_FILL"/>
</g>

<g transform="matrix( 0.19244384765625, 0, 0, 0.1924591064453125, 63.1,-19.6) ">
<use xlink:href="#Layer0_0_MEMBER_0_MEMBER_52_FILL"/>
</g>

<g transform="matrix( 0.19244384765625, 0, 0, 0.1924591064453125, 63.1,-19.6) ">
<use xlink:href="#Layer0_0_MEMBER_0_MEMBER_53_FILL"/>
</g>

<g transform="matrix( 0.19244384765625, 0, 0, 0.1924591064453125, 63.1,-19.6) ">
<use xlink:href="#Layer0_0_MEMBER_0_MEMBER_54_FILL"/>
</g>

<g transform="matrix( 0.19244384765625, 0, 0, 0.1924591064453125, 63.1,-19.6) ">
<use xlink:href="#Layer0_0_MEMBER_0_MEMBER_55_FILL"/>
</g>

<g transform="matrix( 0.19244384765625, 0, 0, 0.1924591064453125, 63.1,-19.6) ">
<use xlink:href="#Layer0_0_MEMBER_0_MEMBER_56_FILL"/>
</g>

<g transform="matrix( 0.19244384765625, 0, 0, 0.1924591064453125, 63.1,-19.6) ">
<use xlink:href="#Layer0_0_MEMBER_0_MEMBER_57_FILL"/>
</g>

<g transform="matrix( 0.19244384765625, 0, 0, 0.1924591064453125, 63.1,-19.6) ">
<use xlink:href="#Layer0_0_MEMBER_0_MEMBER_58_FILL"/>
</g>

<g transform="matrix( 0.19244384765625, 0, 0, 0.1924591064453125, 63.1,-19.6) ">
<use xlink:href="#Layer0_0_MEMBER_0_MEMBER_59_FILL"/>
</g>

<g transform="matrix( 0.19244384765625, 0, 0, 0.1924591064453125, 63.1,-19.6) ">
<use xlink:href="#Layer0_0_MEMBER_0_MEMBER_60_FILL"/>
</g>

<g transform="matrix( 0.19244384765625, 0, 0, 0.1924591064453125, 63.1,-19.6) ">
<use xlink:href="#Layer0_0_MEMBER_0_MEMBER_61_FILL"/>
</g>

<g transform="matrix( 0.19244384765625, 0, 0, 0.1924591064453125, 63.1,-19.6) ">
<use xlink:href="#Layer0_0_MEMBER_0_MEMBER_62_FILL"/>
</g>

<g transform="matrix( 0.19244384765625, 0, 0, 0.1924591064453125, 63.1,-19.6) ">
<use xlink:href="#Layer0_0_MEMBER_0_MEMBER_63_FILL"/>
</g>

<g transform="matrix( 0.19244384765625, 0, 0, 0.1924591064453125, 63.1,-19.6) ">
<use xlink:href="#Layer0_0_MEMBER_0_MEMBER_64_FILL"/>
</g>

<g transform="matrix( 0.19244384765625, 0, 0, 0.1924591064453125, 63.1,-19.6) ">
<use xlink:href="#Layer0_0_MEMBER_0_MEMBER_65_FILL"/>
</g>

<g transform="matrix( 0.19244384765625, 0, 0, 0.1924591064453125, 63.1,-19.6) ">
<use xlink:href="#Layer0_0_MEMBER_0_MEMBER_66_FILL"/>
</g>

<g transform="matrix( 0.19244384765625, 0, 0, 0.1924591064453125, 63.1,-19.6) ">
<use xlink:href="#Layer0_0_MEMBER_0_MEMBER_67_FILL"/>
</g>

<g transform="matrix( 0.19244384765625, 0, 0, 0.1924591064453125, 63.1,-19.6) ">
<use xlink:href="#Layer0_0_MEMBER_0_MEMBER_68_FILL"/>
</g>

<g transform="matrix( 0.19244384765625, 0, 0, 0.1924591064453125, 63.1,-19.6) ">
<use xlink:href="#Layer0_0_MEMBER_0_MEMBER_69_FILL"/>
</g>

<g transform="matrix( 0.19244384765625, 0, 0, 0.1924591064453125, 63.1,-19.6) ">
<use xlink:href="#Layer0_0_MEMBER_0_MEMBER_70_FILL"/>
</g>

<g transform="matrix( 0.19244384765625, 0, 0, 0.1924591064453125, 63.1,-19.6) ">
<use xlink:href="#Layer0_0_MEMBER_0_MEMBER_71_FILL"/>
</g>

<g transform="matrix( 0.19244384765625, 0, 0, 0.1924591064453125, 63.1,-19.6) ">
<use xlink:href="#Layer0_0_MEMBER_0_MEMBER_72_FILL"/>
</g>

<g transform="matrix( 0.19244384765625, 0, 0, 0.1924591064453125, 63.1,-19.6) ">
<use xlink:href="#Layer0_0_MEMBER_0_MEMBER_73_FILL"/>
</g>

<g transform="matrix( 0.19244384765625, 0, 0, 0.1924591064453125, 63.1,-19.6) ">
<use xlink:href="#Layer0_0_MEMBER_0_MEMBER_74_FILL"/>
</g>

<g transform="matrix( 0.19244384765625, 0, 0, 0.1924591064453125, 63.1,-19.6) ">
<use xlink:href="#Layer0_0_MEMBER_0_MEMBER_75_FILL"/>
</g>

<g transform="matrix( 0.19244384765625, 0, 0, 0.1924591064453125, 63.1,-19.6) ">
<use xlink:href="#Layer0_0_MEMBER_0_MEMBER_76_FILL"/>
</g>

<g transform="matrix( 0.19244384765625, 0, 0, 0.1924591064453125, 63.1,-19.6) ">
<use xlink:href="#Layer0_0_MEMBER_0_MEMBER_77_FILL"/>
</g>

<g transform="matrix( 0.19244384765625, 0, 0, 0.1924591064453125, 63.1,-19.6) ">
<use xlink:href="#Layer0_0_MEMBER_0_MEMBER_78_FILL"/>
</g>

<g transform="matrix( 0.19244384765625, 0, 0, 0.1924591064453125, 63.1,-19.6) ">
<use xlink:href="#Layer0_0_MEMBER_0_MEMBER_79_FILL"/>
</g>

<g transform="matrix( 0.19244384765625, 0, 0, 0.1924591064453125, 63.1,-19.6) ">
<use xlink:href="#Layer0_0_MEMBER_0_MEMBER_80_FILL"/>
</g>

<g transform="matrix( 0.19244384765625, 0, 0, 0.1924591064453125, 63.1,-19.6) ">
<use xlink:href="#Layer0_0_MEMBER_0_MEMBER_81_FILL"/>
</g>

<g transform="matrix( 0.19244384765625, 0, 0, 0.1924591064453125, 63.1,-19.6) ">
<use xlink:href="#Layer0_0_MEMBER_0_MEMBER_82_FILL"/>
</g>

<g transform="matrix( 0.19244384765625, 0, 0, 0.1924591064453125, 63.1,-19.6) ">
<use xlink:href="#Layer0_0_MEMBER_0_MEMBER_83_FILL"/>
</g>

<g transform="matrix( 0.19244384765625, 0, 0, 0.1924591064453125, 63.1,-19.6) ">
<use xlink:href="#Layer0_0_MEMBER_0_MEMBER_84_FILL"/>
</g>

<g transform="matrix( 0.19244384765625, 0, 0, 0.1924591064453125, 63.1,-19.6) ">
<use xlink:href="#Layer0_0_MEMBER_0_MEMBER_85_FILL"/>
</g>

<g transform="matrix( 0.19244384765625, 0, 0, 0.1924591064453125, 63.1,-19.6) ">
<use xlink:href="#Layer0_0_MEMBER_0_MEMBER_86_FILL"/>
</g>

<g transform="matrix( 0.19244384765625, 0, 0, 0.1924591064453125, 63.1,-19.6) ">
<use xlink:href="#Layer0_0_MEMBER_0_MEMBER_87_FILL"/>
</g>

<g transform="matrix( 0.19244384765625, 0, 0, 0.1924591064453125, 63.1,-19.6) ">
<use xlink:href="#Layer0_0_MEMBER_0_MEMBER_88_FILL"/>
</g>

<g transform="matrix( 0.19244384765625, 0, 0, 0.1924591064453125, 63.1,-19.6) ">
<use xlink:href="#Layer0_0_MEMBER_0_MEMBER_89_FILL"/>
</g>

<g transform="matrix( 0.19244384765625, 0, 0, 0.1924591064453125, 63.1,-19.6) ">
<use xlink:href="#Layer0_0_MEMBER_0_MEMBER_90_FILL"/>
</g>

<g transform="matrix( 0.19244384765625, 0, 0, 0.1924591064453125, 63.1,-19.6) ">
<use xlink:href="#Layer0_0_MEMBER_0_MEMBER_91_FILL"/>
</g>

<g transform="matrix( 0.19244384765625, 0, 0, 0.1924591064453125, 63.1,-19.6) ">
<use xlink:href="#Layer0_0_MEMBER_0_MEMBER_92_FILL"/>
</g>

<g transform="matrix( 0.19244384765625, 0, 0, 0.1924591064453125, 63.1,-19.6) ">
<use xlink:href="#Layer0_0_MEMBER_0_MEMBER_93_FILL"/>
</g>

<g transform="matrix( 0.19244384765625, 0, 0, 0.1924591064453125, 63.1,-19.6) ">
<use xlink:href="#Layer0_0_MEMBER_0_MEMBER_94_FILL"/>
</g>

<g transform="matrix( 0.19244384765625, 0, 0, 0.1924591064453125, 63.1,-19.6) ">
<use xlink:href="#Layer0_0_MEMBER_0_MEMBER_95_FILL"/>
</g>

<g transform="matrix( 0.19244384765625, 0, 0, 0.1924591064453125, 63.1,-19.6) ">
<use xlink:href="#Layer0_0_MEMBER_0_MEMBER_96_FILL"/>
</g>

<g transform="matrix( 0.19244384765625, 0, 0, 0.1924591064453125, 63.1,-19.6) ">
<use xlink:href="#Layer0_0_MEMBER_0_MEMBER_97_FILL"/>
</g>

<g transform="matrix( 0.19244384765625, 0, 0, 0.1924591064453125, 63.1,-19.6) ">
<use xlink:href="#Layer0_0_MEMBER_0_MEMBER_98_FILL"/>
</g>

<g transform="matrix( 0.19244384765625, 0, 0, 0.1924591064453125, 63.1,-19.6) ">
<use xlink:href="#Layer0_0_MEMBER_0_MEMBER_99_FILL"/>
</g>

<g transform="matrix( 0.19244384765625, 0, 0, 0.1924591064453125, 63.1,-19.6) ">
<use xlink:href="#Layer0_0_MEMBER_0_MEMBER_100_FILL"/>
</g>

<g transform="matrix( 0.19244384765625, 0, 0, 0.1924591064453125, 63.1,-19.6) ">
<use xlink:href="#Layer0_0_MEMBER_0_MEMBER_101_FILL"/>
</g>

<g transform="matrix( 0.19244384765625, 0, 0, 0.1924591064453125, 63.1,-19.6) ">
<use xlink:href="#Layer0_0_MEMBER_0_MEMBER_102_FILL"/>
</g>

<g transform="matrix( 0.19244384765625, 0, 0, 0.1924591064453125, 63.1,-19.6) ">
<use xlink:href="#Layer0_0_MEMBER_0_MEMBER_103_FILL"/>
</g>

<g transform="matrix( 0.19244384765625, 0, 0, 0.1924591064453125, 63.1,-19.6) ">
<use xlink:href="#Layer0_0_MEMBER_0_MEMBER_104_FILL"/>
</g>

<g transform="matrix( 0.19244384765625, 0, 0, 0.1924591064453125, 63.1,-19.6) ">
<use xlink:href="#Layer0_0_MEMBER_0_MEMBER_105_FILL"/>
</g>

<g transform="matrix( 0.19244384765625, 0, 0, 0.1924591064453125, 63.1,-19.6) ">
<use xlink:href="#Layer0_0_MEMBER_0_MEMBER_106_FILL"/>
</g>

<g transform="matrix( 0.19244384765625, 0, 0, 0.1924591064453125, 63.1,-19.6) ">
<use xlink:href="#Layer0_0_MEMBER_0_MEMBER_107_FILL"/>
</g>

<g transform="matrix( 0.19244384765625, 0, 0, 0.1924591064453125, 63.1,-19.6) ">
<use xlink:href="#Layer0_0_MEMBER_0_MEMBER_108_FILL"/>
</g>

<g transform="matrix( 0.19244384765625, 0, 0, 0.1924591064453125, 63.1,-19.6) ">
<use xlink:href="#Layer0_0_MEMBER_0_MEMBER_109_FILL"/>
</g>

<g transform="matrix( 0.19244384765625, 0, 0, 0.1924591064453125, 63.1,-19.6) ">
<use xlink:href="#Layer0_0_MEMBER_0_MEMBER_110_FILL"/>
</g>

<g transform="matrix( 0.19244384765625, 0, 0, 0.1924591064453125, 63.1,-19.6) ">
<use xlink:href="#Layer0_0_MEMBER_0_MEMBER_111_FILL"/>
</g>

<g transform="matrix( 0.19244384765625, 0, 0, 0.1924591064453125, 63.1,-19.6) ">
<use xlink:href="#Layer0_0_MEMBER_0_MEMBER_112_FILL"/>
</g>

<g transform="matrix( 0.19244384765625, 0, 0, 0.1924591064453125, 63.1,-19.6) ">
<use xlink:href="#Layer0_0_MEMBER_0_MEMBER_113_FILL"/>
</g>

<g transform="matrix( 0.19244384765625, 0, 0, 0.1924591064453125, 63.1,-19.6) ">
<use xlink:href="#Layer0_0_MEMBER_0_MEMBER_114_FILL"/>
</g>

<g transform="matrix( 0.19244384765625, 0, 0, 0.1924591064453125, 63.1,-19.6) ">
<use xlink:href="#Layer0_0_MEMBER_0_MEMBER_115_FILL"/>
</g>

<g transform="matrix( 0.19244384765625, 0, 0, 0.1924591064453125, 63.1,-19.6) ">
<use xlink:href="#Layer0_0_MEMBER_0_MEMBER_116_FILL"/>
</g>

<g transform="matrix( 0.19244384765625, 0, 0, 0.1924591064453125, 63.1,-19.6) ">
<use xlink:href="#Layer0_0_MEMBER_0_MEMBER_117_FILL"/>
</g>

<g transform="matrix( 0.19244384765625, 0, 0, 0.1924591064453125, 63.1,-19.6) ">
<use xlink:href="#Layer0_0_MEMBER_0_MEMBER_118_FILL"/>
</g>

<g transform="matrix( 0.19244384765625, 0, 0, 0.1924591064453125, 63.1,-19.6) ">
<use xlink:href="#Layer0_0_MEMBER_0_MEMBER_119_FILL"/>
</g>

<g transform="matrix( 0.19244384765625, 0, 0, 0.1924591064453125, 63.1,-19.6) ">
<use xlink:href="#Layer0_0_MEMBER_0_MEMBER_120_FILL"/>
</g>

<g transform="matrix( 0.19244384765625, 0, 0, 0.1924591064453125, 63.1,-19.6) ">
<use xlink:href="#Layer0_0_MEMBER_0_MEMBER_121_FILL"/>
</g>

<g transform="matrix( 0.19244384765625, 0, 0, 0.1924591064453125, 63.1,-19.6) ">
<use xlink:href="#Layer0_0_MEMBER_0_MEMBER_122_FILL"/>
</g>

<g transform="matrix( 0.19244384765625, 0, 0, 0.1924591064453125, 63.1,-19.6) ">
<use xlink:href="#Layer0_0_MEMBER_0_MEMBER_123_FILL"/>
</g>

<g transform="matrix( 0.19244384765625, 0, 0, 0.1924591064453125, 63.1,-19.6) ">
<use xlink:href="#Layer0_0_MEMBER_0_MEMBER_124_FILL"/>
</g>

<g transform="matrix( 0.19244384765625, 0, 0, 0.1924591064453125, 63.1,-19.6) ">
<use xlink:href="#Layer0_0_MEMBER_0_MEMBER_125_FILL"/>
</g>

<g transform="matrix( 0.19244384765625, 0, 0, 0.1924591064453125, 63.1,-19.6) ">
<use xlink:href="#Layer0_0_MEMBER_0_MEMBER_126_FILL"/>
</g>

<g transform="matrix( 0.19244384765625, 0, 0, 0.1924591064453125, 63.1,-19.6) ">
<use xlink:href="#Layer0_0_MEMBER_0_MEMBER_127_FILL"/>
</g>

<g transform="matrix( 0.19244384765625, 0, 0, 0.1924591064453125, 63.1,-19.6) ">
<use xlink:href="#Layer0_0_MEMBER_0_MEMBER_128_FILL"/>
</g>

<g transform="matrix( 0.19244384765625, 0, 0, 0.1924591064453125, 63.1,-19.6) ">
<use xlink:href="#Layer0_0_MEMBER_0_MEMBER_129_FILL"/>
</g>

<g transform="matrix( 0.19244384765625, 0, 0, 0.1924591064453125, 63.1,-19.6) ">
<use xlink:href="#Layer0_0_MEMBER_0_MEMBER_130_FILL"/>
</g>

<g transform="matrix( 0.19244384765625, 0, 0, 0.1924591064453125, 63.1,-19.6) ">
<use xlink:href="#Layer0_0_MEMBER_0_MEMBER_131_FILL"/>
</g>

<g transform="matrix( 0.19244384765625, 0, 0, 0.1924591064453125, 63.1,-19.6) ">
<use xlink:href="#Layer0_0_MEMBER_0_MEMBER_132_FILL"/>
</g>

<g transform="matrix( 0.19244384765625, 0, 0, 0.1924591064453125, 63.1,-19.6) ">
<use xlink:href="#Layer0_0_MEMBER_0_MEMBER_133_FILL"/>
</g>

<g transform="matrix( 0.19244384765625, 0, 0, 0.1924591064453125, 63.1,-19.6) ">
<use xlink:href="#Layer0_0_MEMBER_0_MEMBER_134_FILL"/>
</g>

<g transform="matrix( 0.19244384765625, 0, 0, 0.1924591064453125, 63.1,-19.6) ">
<use xlink:href="#Layer0_0_MEMBER_0_MEMBER_135_FILL"/>
</g>

<g transform="matrix( 0.19244384765625, 0, 0, 0.1924591064453125, 63.1,-19.6) ">
<use xlink:href="#Layer0_0_MEMBER_0_MEMBER_136_FILL"/>
</g>

<g transform="matrix( 0.19244384765625, 0, 0, 0.1924591064453125, 63.1,-19.6) ">
<use xlink:href="#Layer0_0_MEMBER_0_MEMBER_137_FILL"/>
</g>

<g transform="matrix( 0.19244384765625, 0, 0, 0.1924591064453125, 63.1,-19.6) ">
<use xlink:href="#Layer0_0_MEMBER_0_MEMBER_138_FILL"/>
</g>
</svg>
